<?xml version="1.0" encoding="utf-8"?>
<!-- Generator: Adobe Illustrator 19.0.0, SVG Export Plug-In . SVG Version: 6.00 Build 0)  -->
<svg version="1.1" id="Layer_1" xmlns="http://www.w3.org/2000/svg" xmlns:xlink="http://www.w3.org/1999/xlink" x="0px" y="0px"
	 viewBox="-1667 3392 120 130" style="enable-background:new -1667 3392 120 130;" xml:space="preserve">
<style type="text/css">
	.st0{fill:#010101;}
</style>
<g id="Loblaw_Digital">
</g>
<g id="Phoenix">
</g>
<g id="Magnet_Forensics_1_">
</g>
<g id="Bloomberg">
</g>
<g id="Wish">
</g>
<g id="lani">
</g>
<g id="Yelp">
</g>
<g id="Mozilla">
</g>
<g id="Microsoft">
</g>
<g id="Facebook">
</g>
<g id="D2L">
</g>
<g id="Linode">
</g>
<g id="Braintree">
</g>
<g id="Velocity">
</g>
<g id="citi">
</g>
<g id="Course_Hero">
</g>
<g id="square">
</g>
<g id="Capco">
</g>
<g id="lani_1_" transform="translate(42,-27.46699)">
	<g id="g9">
		<path id="path11" inkscape:connector-curvature="0" class="st0" d="M-1652.9,3472.4v34.5c0,0.1,0.1,0.1,0.1,0.1v2
			c-1.1,0-2-0.9-2-2.1v-34.5H-1652.9L-1652.9,3472.4z"/>
		<path id="path13" inkscape:connector-curvature="0" class="st0" d="M-1649,3501.3c0-4.4,4.5-7.7,9.6-7.7h11.6v-2.4
			c0-3-3.7-5.8-8.7-5.8c-3.4,0-6.2,0.9-8.3,2.2l-1-1.6c2.5-1.5,5.7-2.5,9.4-2.5c5.6,0,10.5,3.3,10.5,7.7v17.8h-1.6l-0.2-5.3h-0.1
			c-2.1,3.5-6.1,5.7-10.6,5.7C-1645.1,3509.5-1649,3505.8-1649,3501.3L-1649,3501.3z M-1627.8,3498.9v-3.4h-11.6
			c-4.5,0-7.6,2.7-7.6,5.7c0,3.4,2.8,6.3,8.6,6.3C-1632.4,3507.5-1627.8,3503-1627.8,3498.9L-1627.8,3498.9z"/>
		<path id="path15" inkscape:connector-curvature="0" class="st0" d="M-1619,3484l0.2,7.1h0.2c2.2-4.5,6.5-7.6,11.4-7.6
			c5.7,0,9.6,3.3,9.6,8.7v16.8h-1.9v-16.8c0-4.4-3-6.8-7.6-6.8c-6.4,0-11.6,5.6-11.6,12.5v11.1h-1.9v-25H-1619z"/>
		<path id="path17" inkscape:connector-curvature="0" class="st0" d="M-1591.4,3474.3c0.9,0,1.7,0.7,1.7,1.6c0,0.9-0.8,1.7-1.7,1.7
			c-0.9,0-1.6-0.8-1.6-1.7C-1593,3475.1-1592.3,3474.3-1591.4,3474.3z M-1590.4,3484v25h-1.9v-25H-1590.4z"/>
	</g>
	<path id="path19" inkscape:connector-curvature="0" class="st0" d="M-1682.8,3459.5h-20.5c-2.7,0-5,2.3-5,5v40c0,2.7,2.3,5,5,5
		h38.3c2.7,0,5-2.3,5-5v-21.3L-1682.8,3459.5L-1682.8,3459.5z"/>
	<path id="path21" inkscape:connector-curvature="0" class="st0" d="M-1661.8,3483.9h1.6 M-1660.1,3480.1h-1.6v-4.9h1.6V3480.1z
		 M-1660.1,3471.9h-1.6v-4.9h1.6V3471.9z M-1661.8,3463.8c-0.1-1.3-1.1-2.4-2.5-2.6l0.3-1.6c2,0.4,3.5,2.1,3.7,4.1L-1661.8,3463.8
		L-1661.8,3463.8z M-1667.3,3461.1h-4.9v-1.6h4.9V3461.1z M-1675.6,3461.1h-4.9v-1.6h4.9V3461.1z M-1683.8,3459.5v1.6"/>
</g>
<g id="Capco_1_" transform="translate(-80,96.53301)">
</g>
</svg>
