<?xml version="1.0" encoding="utf-8"?>
<!-- Generator: Adobe Illustrator 19.0.0, SVG Export Plug-In . SVG Version: 6.00 Build 0)  -->
<svg version="1.1" id="Layer_1" xmlns="http://www.w3.org/2000/svg" xmlns:xlink="http://www.w3.org/1999/xlink" x="0px" y="0px"
	 viewBox="-1667 3392 120 130" style="enable-background:new -1667 3392 120 130;" xml:space="preserve">
<style type="text/css">
	.st0{fill:#FFFFFF;}
	.st1{fill:#004883;}
	.st2{fill:#E32934;}
</style>
<g id="Loblaw_Digital">
</g>
<g id="Phoenix">
</g>
<g id="Magnet_Forensics_1_">
</g>
<g id="Bloomberg">
</g>
<g id="Wish">
</g>
<g id="lani">
</g>
<g id="Yelp">
</g>
<g id="Mozilla">
</g>
<g id="Microsoft">
</g>
<g id="Facebook">
</g>
<g id="D2L">
</g>
<g id="Linode">
</g>
<g id="Braintree">
</g>
<g id="Velocity">
</g>
<g id="citi">
</g>
<g id="Course_Hero">
</g>
<g id="square">
</g>
<g id="Capco">
</g>
<g id="g3" transform="translate(-5.366,-5.833)">
	<path id="path5" inkscape:connector-curvature="0" class="st0" d="M-1638.2,3485.1c-12.3,0-22.3-10-22.3-22.3
		c0-12.3,10-22.3,22.3-22.3c12.3,0,22.3,10,22.3,22.3S-1625.9,3485.1-1638.2,3485.1C-1638.2,3485.1-1638.2,3485.1-1638.2,3485.1z"/>
	<path id="path7" inkscape:connector-curvature="0" class="st1" d="M-1638.2,3440.8c12.2,0,22.1,9.9,22.1,22.1
		c0,12.2-9.9,22.1-22.1,22.1c-12.2,0-22.1-9.9-22.1-22.1C-1660.2,3450.6-1650.4,3440.8-1638.2,3440.8 M-1638.2,3440.4
		c-12.4,0-22.5,10.1-22.5,22.5c0,12.4,10.1,22.5,22.5,22.5c12.4,0,22.5-10.1,22.5-22.5C-1615.7,3450.4-1625.8,3440.4-1638.2,3440.4
		L-1638.2,3440.4z"/>
</g>
<g id="g9" transform="translate(-5.366,-5.833)">
	<g id="g11">
		<g id="g13">
			<g id="g15">
				<path id="path17" inkscape:connector-curvature="0" class="st1" d="M-1543,3453.8c0.2-0.3,0.4-0.6,0.4-1c0-0.5-0.2-0.8-0.4-1.1
					c-0.3-0.3-0.7-0.5-1.1-0.5c-0.4,0-0.7,0.2-1.1,0.5c-0.3,0.3-0.4,0.7-0.4,1.1c0,0.4,0.1,0.7,0.4,1c0.3,0.3,0.7,0.4,1.1,0.4
					C-1543.7,3454.2-1543.3,3454.1-1543,3453.8z"/>
				<path id="path19" inkscape:connector-curvature="0" class="st1" d="M-1543,3469v-13.3h-2.2l0,13.3H-1543z"/>
				<path id="path21" inkscape:connector-curvature="0" class="st1" d="M-1548.1,3456.3l-0.4-0.2c-1-0.6-2.2-0.9-3.6-0.9
					c-1.6,0-2.8,0.4-3.8,1.1c-0.5,0.4-0.8,0.7-1.1,1.2c-0.2,0.5-0.4,0.9-0.4,1.4c0,0.9,0.4,1.7,1.2,2.3c0.7,0.6,1.7,1.1,3.1,1.5
					c1.2,0.4,1.9,0.7,2.4,1.1c0.4,0.4,0.7,0.9,0.7,1.4c0,0.6-0.3,1.1-0.9,1.5c-0.6,0.3-1.4,0.5-2.4,0.5c-1.1,0-2.2-0.3-3.4-0.8
					l-0.3-0.2l-1,1.7l0.3,0.2c1.3,0.6,2.7,0.9,4.2,0.9c1.7,0,3-0.3,4.1-1.1c0.5-0.3,0.9-0.8,1.2-1.2c0.3-0.5,0.4-1.1,0.4-1.7v0
					c0-1-0.4-1.9-1.2-2.6c-0.7-0.6-1.7-1.1-3.1-1.5c-1.1-0.4-1.9-0.7-2.3-1c-0.5-0.4-0.7-0.8-0.7-1.2c0-0.5,0.2-0.9,0.7-1.3
					c0.5-0.3,1.2-0.5,2-0.5c1.2,0,2.2,0.2,3,0.7l0.3,0.2L-1548.1,3456.3L-1548.1,3456.3z"/>
				<path id="path23" inkscape:connector-curvature="0" class="st1" d="M-1561.6,3457.3c-1.5-1.3-3.4-2-5.6-2
					c-2.1,0-3.9,0.7-5.4,1.9c-1.6,1.4-2.4,3.4-2.4,6v10.4h2.1v-6.7c0.7,0.7,1.5,1.3,2.5,1.7c1,0.5,2.1,0.7,3.2,0.7
					c2.2,0,4-0.7,5.6-2.1c1.6-1.4,2.4-3,2.4-5C-1559.2,3460.3-1560,3458.7-1561.6,3457.3z M-1567.2,3457.1c1.6,0,3,0.5,4.1,1.5
					c1.1,1,1.7,2.2,1.7,3.7c0,1.4-0.5,2.6-1.5,3.6c-1.1,1-2.5,1.6-4.3,1.6c-1.7,0-3.1-0.5-4.3-1.6c-1-1-1.5-2.2-1.5-3.6
					c0-1.4,0.5-2.6,1.5-3.6C-1570.3,3457.7-1568.9,3457.1-1567.2,3457.1L-1567.2,3457.1z"/>
				<path id="path25" inkscape:connector-curvature="0" class="st1" d="M-1578.4,3458c-1.4-1.8-3.5-2.7-6.3-2.7
					c-2.1,0-3.8,0.6-5.4,1.8c-1.7,1.3-2.5,3-2.5,5.2c0,1.2,0.3,2.4,1,3.5c0.6,1.1,1.6,1.9,2.8,2.6c1.3,0.6,2.6,0.9,4.1,0.9
					c1.4,0,2.7-0.3,4-0.9c1.3-0.7,2.2-1.5,2.8-2.6l0.4-0.7h-2.4c-0.5,0.7-1.2,1.3-2.1,1.7c-0.9,0.5-1.9,0.7-2.8,0.7
					c-1.3,0-2.4-0.3-3.4-1c-1-0.7-1.7-1.6-2.1-2.7c1.4-0.5,2.7-0.8,4.2-0.8l2.2,0.2l3.5,0.3c1.1,0,2-0.2,2.8-0.4
					c0.3-0.1,0.5-0.3,0.6-0.5c0.1-0.2,0.1-0.5,0-0.8C-1577,3460.3-1577.5,3459-1578.4,3458L-1578.4,3458z M-1579,3461.3
					L-1579,3461.3l-1.2,0.2l-2.6-0.2l-3.6-0.3h-0.6c-1.2,0.1-2.2,0.3-3.3,0.7c0.2-1.5,0.9-2.7,2.1-3.6c1-0.7,2.2-1,3.4-1
					c1.9,0,3.4,0.6,4.5,1.9C-1579.6,3459.7-1579.2,3460.5-1579,3461.3L-1579,3461.3z"/>
				<path id="path27" inkscape:connector-curvature="0" class="st1" d="M-1602.2,3455.3c-2.1,0-3.9,0.7-5.4,1.9
					c-1.6,1.4-2.4,3.4-2.4,6l0,10.4h2.2l0-6.7c0.7,0.7,1.5,1.3,2.4,1.7c1,0.5,2.1,0.7,3.3,0.7c2.2,0,4-0.7,5.6-2.1
					c1.6-1.4,2.3-3,2.3-5c0-2-0.7-3.6-2.3-5C-1598,3456-1599.9,3455.3-1602.2,3455.3L-1602.2,3455.3z M-1606.4,3458.8
					c1.1-1.1,2.5-1.7,4.2-1.7c1.7,0,3,0.5,4.1,1.5c1.1,1,1.7,2.2,1.7,3.7c0,1.4-0.5,2.6-1.4,3.6c-1.1,1-2.5,1.6-4.3,1.6
					c-1.7,0-3.1-0.5-4.3-1.6c-1-1-1.5-2.2-1.5-3.6C-1607.9,3461-1607.4,3459.8-1606.4,3458.8z"/>
			</g>
		</g>
	</g>
	<g id="g29">
		<path id="path31" inkscape:connector-curvature="0" class="st2" d="M-1625.6,3446.1c-0.2-0.1-0.4-0.3-0.5-0.5
			c-3.4-2.4-7.6-3.8-12.1-3.8c-11.6,0-21,9.4-21,21c0,4.7,1.5,9,4.2,12.5c7-2.1,13.2-5.7,18.4-10.9
			C-1631.4,3459.3-1627.7,3453.1-1625.6,3446.1z"/>
		<path id="path33" inkscape:connector-curvature="0" class="st1" d="M-1638.2,3483.8c11.6,0,21-9.4,21-21c0-4.1-1.2-7.9-3.2-11.2
			c-0.1-0.1-0.1-0.1-0.1-0.2c0.4,1.4,0.6,2.8,0.6,4.3c0,2.4-0.6,4.6-1.6,6.8c-1.1,2-2.5,3.7-4.4,5.1c-1.5,1.1-3.2,2-5.3,2.8
			c-1.7,0.6-3.8,1.2-6.5,1.8l-7.7,1.7c-3.3,0.7-6.2,1.5-8.9,2.4C-1650.4,3480.9-1644.6,3483.8-1638.2,3483.8z"/>
	</g>
</g>
</svg>
