<?xml version="1.0" encoding="utf-8"?>
<!-- Generator: Adobe Illustrator 19.0.0, SVG Export Plug-In . SVG Version: 6.00 Build 0)  -->
<svg version="1.1" id="Layer_1" xmlns="http://www.w3.org/2000/svg" xmlns:xlink="http://www.w3.org/1999/xlink" x="0px" y="0px"
	 viewBox="-1667 3392 120 130" style="enable-background:new -1667 3392 120 130;" xml:space="preserve">
<style type="text/css">
	.st0{fill:url(#SVGID_1_);}
	.st1{fill:url(#SVGID_2_);}
	.st2{opacity:0.3;fill:#FFFFFF;enable-background:new    ;}
	.st3{opacity:0.62;fill:#595961;enable-background:new    ;}
	.st4{opacity:0.46;fill:#B2B2C2;enable-background:new    ;}
	.st5{opacity:0.74;fill:url(#SVGID_3_);enable-background:new    ;}
	.st6{fill:url(#SVGID_4_);}
	.st7{fill:url(#SVGID_5_);}
	.st8{fill:url(#SVGID_6_);}
	.st9{fill:url(#SVGID_7_);}
	.st10{fill:url(#SVGID_8_);}
	.st11{opacity:0.47;fill:url(#SVGID_9_);enable-background:new    ;}
	.st12{fill:url(#SVGID_10_);}
	.st13{opacity:0.41;fill:url(#SVGID_11_);enable-background:new    ;}
	.st14{fill:url(#SVGID_12_);}
	.st15{fill:url(#SVGID_13_);}
	.st16{opacity:0.32;fill:url(#SVGID_14_);enable-background:new    ;}
	.st17{opacity:0.19;fill:url(#SVGID_15_);enable-background:new    ;}
	.st18{opacity:0.19;fill:url(#SVGID_16_);enable-background:new    ;}
	.st19{opacity:0.6;fill:url(#SVGID_17_);enable-background:new    ;}
	.st20{fill:url(#SVGID_18_);}
	.st21{fill:url(#SVGID_19_);}
	.st22{fill:url(#SVGID_20_);}
	.st23{opacity:0.89;enable-background:new    ;}
	.st24{fill:url(#SVGID_21_);}
	.st25{fill:url(#SVGID_22_);}
	.st26{fill:url(#SVGID_23_);}
	.st27{opacity:0.32;fill:url(#SVGID_24_);enable-background:new    ;}
	.st28{opacity:0.57;fill:url(#SVGID_25_);enable-background:new    ;}
	.st29{opacity:0.46;fill:url(#SVGID_26_);enable-background:new    ;}
	.st30{fill:#595961;}
	.st31{opacity:0.81;fill:#B2B2C2;enable-background:new    ;}
	.st32{opacity:0.42;fill:#595961;enable-background:new    ;}
	.st33{fill:url(#SVGID_27_);}
	.st34{fill:url(#SVGID_28_);}
	.st35{fill:url(#SVGID_29_);}
	.st36{opacity:0.45;}
	.st37{fill:url(#SVGID_30_);}
	.st38{fill:url(#SVGID_31_);}
</style>
<g id="Loblaw_Digital">
</g>
<g id="Phoenix">
</g>
<g id="Magnet_Forensics_1_">
</g>
<g id="Bloomberg">
</g>
<g id="Wish">
</g>
<g id="lani">
</g>
<g id="Yelp">
</g>
<g id="Mozilla">
</g>
<g id="Microsoft">
</g>
<g id="Facebook">
</g>
<g id="D2L">
</g>
<g id="Linode">
</g>
<g id="Braintree">
</g>
<g id="Velocity">
</g>
<g id="citi">
</g>
<g id="Course_Hero">
</g>
<g id="square">
</g>
<g id="Capco">
</g>
<g>
	
		<linearGradient id="SVGID_1_" gradientUnits="userSpaceOnUse" x1="-1653.9823" y1="3451.2529" x2="-1653.9823" y2="3449.2021" gradientTransform="matrix(1 0 0 -1 0 6916)">
		<stop  offset="0" style="stop-color:#000000;stop-opacity:0"/>
		<stop  offset="1" style="stop-color:#000000;stop-opacity:0.52"/>
	</linearGradient>
	<path class="st0" d="M-1645.4,3449.4c-0.2,0-0.7-1.1-0.7-1.1c0,0-11.6,3.4-11.7,3.6c-0.2,0.2-5.1,17.5-5.1,17.5l18,3.4
		L-1645.4,3449.4z"/>
	
		<linearGradient id="SVGID_2_" gradientUnits="userSpaceOnUse" x1="-1640.3063" y1="3451.8398" x2="-1640.3063" y2="3449.6399" gradientTransform="matrix(1 0 0 -1 0 6916)">
		<stop  offset="0" style="stop-color:#000000;stop-opacity:0"/>
		<stop  offset="1" style="stop-color:#000000;stop-opacity:0.52"/>
	</linearGradient>
	<path class="st1" d="M-1640.4,3449c0,0,0-0.1-0.1-0.2c-0.1-0.1-0.2-0.1-0.2-0.1l-2.5-0.2l-1.9-1.9c-0.1-0.1-0.2-0.1-0.2-0.1
		l0.3,26.2l9.7-2.1L-1640.4,3449z"/>
</g>
<path class="st2" d="M-1645,3450.2c0.4,0.1,0.8-0.1,0.8-0.6c0.1-0.4-0.2-0.9-0.5-1c-0.4-0.1-0.8,0.1-0.8,0.6
	C-1645.6,3449.6-1645.4,3450-1645,3450.2z"/>
<path class="st3" d="M-1652.6,3451.6C-1652.7,3451.6-1652.7,3451.6-1652.6,3451.6c-0.4,0-0.6-0.3-0.6-0.6c0-0.3-0.2-7.1,3.8-8.7
	c1-0.4,1.9-0.3,2.7,0.3c1,0.7,1.7,2,2.1,4c0.3,1.4,0.3,2.6,0.3,2.6c0,0.3-0.2,0.5-0.5,0.5s-0.6-0.3-0.6-0.6c0-1.2-0.5-4.7-1.9-5.6
	c-0.4-0.3-1-0.3-1.6-0.1c-3.4,1.3-3.3,7.7-3.3,7.8C-1652.2,3451.4-1652.4,3451.6-1652.6,3451.6z"/>
<path class="st3" d="M-1652.6,3451.6C-1652.7,3451.6-1652.7,3451.6-1652.6,3451.6c-0.4,0-0.6-0.3-0.6-0.6c0-0.3-0.2-7.1,3.8-8.7
	c1-0.4,1.9-0.3,2.7,0.3c1,0.7,1.7,2,2.1,4c0.3,1.4,0.3,2.6,0.3,2.6c0,0.3-0.2,0.5-0.5,0.5s-0.6-0.3-0.6-0.6c0-1.2-0.5-4.7-1.9-5.6
	c-0.4-0.3-1-0.3-1.6-0.1c-3.4,1.3-3.3,7.7-3.3,7.8C-1652.2,3451.4-1652.4,3451.6-1652.6,3451.6z"/>
<path class="st4" d="M-1646.9,3442.6c-0.7-0.5-1.6-0.6-2.5-0.2c-1.6,0.6-2.8,2.3-3.3,4.9c-0.4,1.9-0.4,3.6-0.4,3.6
	c0,0.1,0,0.2,0.1,0.3c0.1,0.1,0.2,0.1,0.2,0.1c0,0,0,0,0,0c0.2,0,0.3-0.1,0.3-0.3c0-0.1-0.2-6.6,3.4-8c0.7-0.3,1.3-0.2,1.8,0.1
	c1.5,1,1.9,4.6,2,5.8c0,0.2,0.2,0.4,0.4,0.4c0.2,0,0.3-0.1,0.3-0.3C-1644.6,3448.9-1644.8,3444.1-1646.9,3442.6z"/>
<path class="st4" d="M-1652.8,3451.1C-1652.8,3451.1-1652.8,3451.1-1652.8,3451.1c-0.1,0-0.2-0.1-0.2-0.2c0-0.1-0.1-1.7,0.4-3.6
	c0.6-2.5,1.7-4.2,3.3-4.8c0.9-0.3,1.7-0.3,2.4,0.2c2,1.4,2.2,6.1,2.3,6.3c0,0.1-0.1,0.2-0.2,0.2c-0.1,0-0.2-0.1-0.2-0.2
	c0,0-0.2-4.6-2-5.9c-0.6-0.4-1.2-0.4-2-0.1c-3.6,1.4-3.4,8-3.4,8.1C-1652.6,3451-1652.7,3451.1-1652.8,3451.1z"/>
<path class="st3" d="M-1651.3,3445.9c0.2-0.3,0.3-0.6,0.4-0.8c-0.1,0.1-0.4,1-1.5,0.9C-1652.5,3445.9-1651.8,3446.1-1651.3,3445.9z"
	/>
<path class="st3" d="M-1651.7,3447c0.1-0.3,0.2-0.6,0.3-0.9c0,0.1-0.2,1.1-1.4,1.1C-1652.8,3447.2-1652.2,3447.4-1651.7,3447z"/>
<path class="st3" d="M-1652,3448.2c0.1-0.3,0.2-0.6,0.2-0.9c0,0.1-0.1,1.1-1.2,1.2C-1653,3448.5-1652.4,3448.6-1652,3448.2z"/>
<path class="st3" d="M-1645.3,3444.7c-0.1-0.3-0.3-0.6-0.5-1c0,0.1,0.6,1.1,0,1.9C-1645.8,3445.6-1645.3,3445.3-1645.3,3444.7z"/>
<path class="st3" d="M-1646.3,3443c-0.3-0.2-0.6-0.4-0.9-0.7c0.1,0.1,1.1,0.8,1,1.8C-1646.2,3444.2-1646,3443.6-1646.3,3443z"/>
<path class="st3" d="M-1644.9,3446.4c-0.1-0.3-0.2-0.7-0.3-1c0,0.1,0.4,1.2-0.4,1.8C-1645.5,3447.2-1645,3446.9-1644.9,3446.4z"/>
<path class="st3" d="M-1644.5,3448.1c0-0.3-0.1-0.7-0.2-1c0,0.1,0.2,1.2-0.6,1.7C-1645.3,3448.8-1644.7,3448.6-1644.5,3448.1z"/>
<path class="st3" d="M-1652.2,3449.6c0-0.3,0.1-0.6,0.1-1c0,0.1,0,1.2-1.1,1.4C-1653.2,3450-1652.5,3450-1652.2,3449.6z"/>
<path class="st3" d="M-1650.8,3444.9c0.2-0.2,0.4-0.5,0.6-0.7c-0.1,0.1-0.7,0.8-1.7,0.5C-1652,3444.7-1651.3,3445-1650.8,3444.9z"/>
<path class="st3" d="M-1650.1,3444c0.3-0.2,0.5-0.4,0.7-0.6c-0.1,0.1-0.8,0.7-1.9,0.2C-1651.3,3443.7-1650.7,3444.1-1650.1,3444z"/>
<path class="st3" d="M-1649.1,3443.4c0.3-0.1,0.6-0.2,0.9-0.3c-0.1,0-1,0.4-2-0.3C-1650.2,3442.8-1649.7,3443.3-1649.1,3443.4z"/>
<path class="st3" d="M-1648.3,3443.1c0.3,0,0.5,0.1,0.8,0.1c-0.1,0-0.9-0.1-1.4-0.8C-1648.8,3442.4-1648.7,3442.9-1648.3,3443.1z"/>
<path class="st3" d="M-1647.2,3443.5c0.2,0.2,0.4,0.4,0.6,0.6c-0.1-0.1-0.7-0.7-0.6-1.4C-1647.2,3442.7-1647.4,3443.1-1647.2,3443.5
	z"/>
<linearGradient id="SVGID_3_" gradientUnits="userSpaceOnUse" x1="-2255.3777" y1="3473.449" x2="-2257.1694" y2="3465.9329" gradientTransform="matrix(1 0 -0.1763 -1 1219.151 6916)">
	<stop  offset="0" style="stop-color:#FFFFFF;stop-opacity:0.65"/>
	<stop  offset="1" style="stop-color:#FFFFFF;stop-opacity:0"/>
</linearGradient>
<path class="st5" d="M-1645,3448.9c0-0.2-0.2-4.8-2.2-6.2c-0.4-0.3-0.8-0.4-1.2-0.4c-0.3,0-0.7,0.1-1,0.2c-1.6,0.6-2.7,2.2-3.2,4.7
	c-0.4,1.9-0.4,3.5-0.4,3.6c0,0.1,0,0.1,0.1,0.1c0,0,0,0,0,0c0.1,0,0.1,0,0.1-0.1c0-0.1-0.2-6.7,3.5-8.2c0.8-0.3,1.5-0.3,2.1,0.2
	c1.9,1.3,2.1,6,2.1,6C-1645.2,3448.9-1645.1,3449-1645,3448.9C-1645.1,3449-1645.1,3449-1645,3448.9
	C-1645,3449-1645,3448.9-1645,3448.9z"/>
<g>
	
		<linearGradient id="SVGID_4_" gradientUnits="userSpaceOnUse" x1="-2253.5574" y1="3471.1245" x2="-2252.7026" y2="3465.3506" gradientTransform="matrix(1 0 -0.1763 -1 1219.151 6916)">
		<stop  offset="0" style="stop-color:#000000;stop-opacity:0"/>
		<stop  offset="1" style="stop-color:#000000;stop-opacity:0.4"/>
	</linearGradient>
	<path class="st6" d="M-1644.7,3446.6c-0.4-2-1.1-3.3-2.1-4c-0.5-0.4-1.1-0.5-1.7-0.5c0.5,0,0.9,0.2,1.4,0.5c1,0.7,1.7,2,2.1,4
		c0.3,1.4,0.3,2.6,0.3,2.6c0,0.2-0.1,0.4-0.3,0.4c0,0,0.1,0,0.1,0c0.3,0,0.5-0.2,0.5-0.5C-1644.3,3449.2-1644.4,3448-1644.7,3446.6z
		"/>
</g>
<linearGradient id="SVGID_5_" gradientUnits="userSpaceOnUse" x1="-2259.123" y1="3467.218" x2="-2256.1267" y2="3473.5056" gradientTransform="matrix(1 0 -0.1763 -1 1219.151 6916)">
	<stop  offset="0" style="stop-color:#000000;stop-opacity:0"/>
	<stop  offset="1" style="stop-color:#000000;stop-opacity:0.4"/>
</linearGradient>
<path class="st7" d="M-1649.3,3443.4c-3.4,1.3-3.3,7.7-3.3,7.8c0,0.2-0.1,0.4-0.3,0.4c0,0,0.1,0,0.1,0c0,0,0.1,0,0.1,0
	c0.3,0,0.5-0.2,0.5-0.5c0-0.1-0.2-6.5,3.3-7.8c0.2-0.1,0.4-0.1,0.7-0.2C-1648.6,3443.2-1648.9,3443.2-1649.3,3443.4z"/>
<linearGradient id="SVGID_6_" gradientUnits="userSpaceOnUse" x1="-1649.9059" y1="3471.8203" x2="-1648.2811" y2="3463.6292" gradientTransform="matrix(1 0 0 -1 0 6916)">
	<stop  offset="0" style="stop-color:#000000;stop-opacity:0"/>
	<stop  offset="1" style="stop-color:#000000;stop-opacity:0.4"/>
</linearGradient>
<path class="st8" d="M-1652.6,3451.6C-1652.7,3451.6-1652.7,3451.6-1652.6,3451.6c-0.4,0-0.6-0.3-0.6-0.6c0-0.3-0.2-7.1,3.8-8.7
	c1-0.4,1.9-0.3,2.7,0.3c1,0.7,1.7,2,2.1,4c0.3,1.4,0.3,2.6,0.3,2.6c0,0.3-0.2,0.5-0.5,0.5s-0.6-0.3-0.6-0.6c0-1.2-0.5-4.7-1.9-5.6
	c-0.4-0.3-1-0.3-1.6-0.1c-3.4,1.3-3.3,7.7-3.3,7.8C-1652.2,3451.4-1652.4,3451.6-1652.6,3451.6z"/>
<linearGradient id="SVGID_7_" gradientUnits="userSpaceOnUse" x1="-1646.5903" y1="3469.6228" x2="-1656.3676" y2="3445.5505" gradientTransform="matrix(1 0 0 -1 0 6916)">
	<stop  offset="0" style="stop-color:#B8D26E"/>
	<stop  offset="1" style="stop-color:#7FB525"/>
</linearGradient>
<path class="st9" d="M-1644.1,3445l-15.5,4.8c0,0-0.7,0.2-0.8,0.4c-0.2,0.2-0.2,0.8-0.2,0.8l-2.4,18.4l18,3.4l1.4-27.8
	C-1643.8,3444.9-1644,3444.9-1644.1,3445z"/>
<linearGradient id="SVGID_8_" gradientUnits="userSpaceOnUse" x1="-1632.0637" y1="3459.1001" x2="-1641.1334" y2="3457.6787" gradientTransform="matrix(1 0 0 -1 0 6916)">
	<stop  offset="0" style="stop-color:#B4E034"/>
	<stop  offset="1" style="stop-color:#60A927"/>
</linearGradient>
<path class="st10" d="M-1638.7,3447.3c0,0,0-0.1-0.1-0.2c-0.1-0.1-0.2-0.1-0.2-0.1l-2.5-0.2l-1.9-1.9c-0.1-0.1-0.2-0.1-0.2-0.1
	l-1.4,27.8l9.7-2.1L-1638.7,3447.3z"/>
<linearGradient id="SVGID_9_" gradientUnits="userSpaceOnUse" x1="-1516.8649" y1="3516.168" x2="-1519.2341" y2="3496.8755" gradientTransform="matrix(0.9991 4.350000e-02 4.350000e-02 -0.9991 -290.7551 7037.4971)">
	<stop  offset="0" style="stop-color:#1D1D1B;stop-opacity:0.5"/>
	<stop  offset="8.960000e-02" style="stop-color:#1D1D1B;stop-opacity:0.4552"/>
	<stop  offset="1" style="stop-color:#1D1D1B;stop-opacity:0"/>
</linearGradient>
<path class="st11" d="M-1650.6,3460.2c-0.3-0.4-0.6-0.7-0.9-1c-0.3-0.3-0.7-0.5-1-0.8c-0.2-0.2-0.5-0.3-0.6-0.4
	c-0.2-0.1-0.3-0.3-0.4-0.4c-0.1-0.1-0.2-0.3-0.3-0.4c-0.1-0.1-0.1-0.3-0.1-0.4c0-0.2,0.1-0.4,0.1-0.6c0.1-0.2,0.2-0.3,0.3-0.4
	c0.1-0.1,0.3-0.2,0.5-0.3c0.2-0.1,0.4-0.1,0.7-0.1c0.3,0,0.5,0,0.8,0c0.3,0,0.5,0.1,0.7,0.1c0.2,0.1,0.4,0.1,0.6,0.2
	c0.2,0.1,0.4,0.1,0.5,0.2l1.2-3.6c-0.2-0.1-0.4-0.2-0.6-0.2c-0.2-0.1-0.5-0.1-0.8-0.2c-0.3,0-0.6-0.1-1-0.1c-0.3,0-0.7,0-1.1,0.1
	c-0.8,0.1-1.6,0.3-2.2,0.7c-0.6,0.3-1.2,0.7-1.6,1.2c-0.4,0.5-0.8,1-1,1.6c-0.2,0.6-0.4,1.3-0.4,2c0,0.4,0,0.8,0.1,1.2
	c0.1,0.4,0.2,0.7,0.4,1c0.2,0.3,0.4,0.6,0.7,0.9c0.3,0.3,0.6,0.5,0.9,0.8c0.3,0.2,0.5,0.4,0.6,0.5c0.2,0.2,0.3,0.3,0.4,0.5
	c0.1,0.2,0.2,0.3,0.2,0.5c0,0.2,0.1,0.3,0.1,0.5c0,0.2,0,0.4-0.1,0.5c-0.1,0.2-0.2,0.3-0.3,0.4c-0.1,0.1-0.3,0.2-0.5,0.2
	c-0.2,0-0.4,0-0.6,0c-0.3,0-0.5-0.1-0.8-0.2c-0.3-0.1-0.5-0.2-0.8-0.4c-0.2-0.1-0.5-0.3-0.6-0.4c-0.2-0.1-0.4-0.3-0.5-0.4l-0.8,2.7
	c0.1,0.2,0.3,0.3,0.5,0.5c0.2,0.2,0.4,0.3,0.7,0.5c0.3,0.2,0.6,0.3,0.9,0.4c0.3,0.1,0.7,0.2,1,0.3c0,0,0,0,0,0c0,0,0,0,0,0
	c0,0,0,0,0,0c0,0,0,0,0,0c0.7,0.2,1.5,0.2,2.1,0.1c0.7-0.1,1.3-0.3,1.9-0.7c0.6-0.4,1-0.9,1.4-1.6c0.3-0.7,0.5-1.5,0.6-2.4
	c0-0.6-0.1-1.1-0.2-1.6C-1650.1,3461-1650.4,3460.6-1650.6,3460.2z"/>
<linearGradient id="SVGID_10_" gradientUnits="userSpaceOnUse" x1="-1516.6852" y1="3515.9883" x2="-1519.0546" y2="3496.6958" gradientTransform="matrix(0.9991 4.350000e-02 4.350000e-02 -0.9991 -290.7551 7037.4971)">
	<stop  offset="0" style="stop-color:#FFFFFF"/>
	<stop  offset="1" style="stop-color:#CECEEB"/>
</linearGradient>
<path class="st12" d="M-1650.5,3460.4c-0.3-0.4-0.6-0.7-0.9-1c-0.3-0.3-0.7-0.5-1-0.8c-0.2-0.2-0.5-0.3-0.6-0.4
	c-0.2-0.1-0.3-0.3-0.4-0.4c-0.1-0.1-0.2-0.3-0.3-0.4c-0.1-0.1-0.1-0.3-0.1-0.4c0-0.2,0.1-0.4,0.1-0.6c0.1-0.2,0.2-0.3,0.3-0.4
	c0.1-0.1,0.3-0.2,0.5-0.3c0.2-0.1,0.4-0.1,0.7-0.1c0.3,0,0.5,0,0.8,0c0.3,0,0.5,0.1,0.7,0.1c0.2,0.1,0.4,0.1,0.6,0.2
	c0.2,0.1,0.4,0.1,0.5,0.2l1.2-3.6c-0.2-0.1-0.4-0.2-0.6-0.2c-0.2-0.1-0.5-0.1-0.8-0.2c-0.3,0-0.6-0.1-1-0.1c-0.3,0-0.7,0-1.1,0.1
	c-0.8,0.1-1.6,0.3-2.2,0.7c-0.6,0.3-1.2,0.7-1.6,1.2c-0.4,0.5-0.8,1-1,1.6c-0.2,0.6-0.4,1.3-0.4,2c0,0.4,0,0.8,0.1,1.2
	c0.1,0.4,0.2,0.7,0.4,1c0.2,0.3,0.4,0.6,0.7,0.9c0.3,0.3,0.6,0.5,0.9,0.8c0.3,0.2,0.5,0.4,0.6,0.5c0.2,0.2,0.3,0.3,0.4,0.5
	c0.1,0.2,0.2,0.3,0.2,0.5s0.1,0.3,0.1,0.5c0,0.2,0,0.4-0.1,0.5c-0.1,0.2-0.2,0.3-0.3,0.4c-0.1,0.1-0.3,0.2-0.5,0.2
	c-0.2,0-0.4,0-0.6,0c-0.3,0-0.5-0.1-0.8-0.2c-0.3-0.1-0.5-0.2-0.8-0.4c-0.2-0.1-0.5-0.3-0.6-0.4c-0.2-0.1-0.4-0.3-0.5-0.4l-0.8,2.7
	c0.1,0.2,0.3,0.3,0.5,0.5c0.2,0.2,0.4,0.3,0.7,0.5c0.3,0.2,0.6,0.3,0.9,0.4c0.3,0.1,0.7,0.2,1,0.3c0,0,0,0,0,0c0,0,0,0,0,0
	c0,0,0,0,0,0c0,0,0,0,0,0c0.7,0.2,1.5,0.2,2.1,0.1c0.7-0.1,1.3-0.3,1.9-0.7c0.6-0.4,1-0.9,1.4-1.6c0.3-0.7,0.5-1.5,0.6-2.4
	c0-0.6-0.1-1.1-0.2-1.6C-1650,3461.2-1650.2,3460.8-1650.5,3460.4z"/>
<linearGradient id="SVGID_11_" gradientUnits="userSpaceOnUse" x1="-1648.7566" y1="3456.7512" x2="-1636.9503" y2="3457.8916" gradientTransform="matrix(1 0 0 -1 0 6916)">
	<stop  offset="0" style="stop-color:#1D1D1B;stop-opacity:0.5"/>
	<stop  offset="3.800000e-02" style="stop-color:#1D1D1B;stop-opacity:0.4837"/>
	<stop  offset="0.4243" style="stop-color:#1D1D1B;stop-opacity:0.3185"/>
	<stop  offset="1" style="stop-color:#1D1D1B;stop-opacity:0"/>
</linearGradient>
<path class="st13" d="M-1640.9,3467.5l-0.6-20.6l-0.1-0.1l0.3,20.4c0,0-2.6,3.9-3,3.8c-0.6-0.2,1.1-25.8,1.1-25.8l-0.2-0.2
	c-0.1-0.1-0.2-0.1-0.2-0.1l-1.4,27.4l0,0l0,0.4l0.5-0.6l0,0L-1640.9,3467.5z"/>
<linearGradient id="SVGID_12_" gradientUnits="userSpaceOnUse" x1="-1646.6709" y1="3470.314" x2="-1648.0344" y2="3468.2317" gradientTransform="matrix(1 0 0 -1 0 6916)">
	<stop  offset="0" style="stop-color:#000000;stop-opacity:0"/>
	<stop  offset="1" style="stop-color:#000000;stop-opacity:0.4"/>
</linearGradient>
<path class="st14" d="M-1647.9,3446.1c-0.2,0.9-0.5,1.7-0.7,2.1c-0.1,0.3,0,0.6,0.3,0.6c0.3,0,0.6-0.2,0.7-0.5
	c0-0.1,0.5-1.2,0.8-2.6c0,0,0,0,0,0L-1647.9,3446.1z"/>
<linearGradient id="SVGID_13_" gradientUnits="userSpaceOnUse" x1="-1654.9158" y1="3467.7583" x2="-1656.0767" y2="3466.3762" gradientTransform="matrix(1 0 0 -1 0 6916)">
	<stop  offset="0" style="stop-color:#000000;stop-opacity:0"/>
	<stop  offset="1" style="stop-color:#000000;stop-opacity:0.4"/>
</linearGradient>
<path class="st15" d="M-1656.1,3448.7c-0.3,0.5-0.5,1-0.7,1.3c-0.2,0.3-0.1,0.6,0.2,0.6c0.3,0.1,0.6-0.1,0.8-0.3c0,0,0.5-0.9,1-2.1
	L-1656.1,3448.7z"/>
<linearGradient id="SVGID_14_" gradientUnits="userSpaceOnUse" x1="-1640.4329" y1="3445.5173" x2="-1639.9761" y2="3443.7703" gradientTransform="matrix(1 0 0 -1 0 6916)">
	<stop  offset="0" style="stop-color:#000000;stop-opacity:0"/>
	<stop  offset="1" style="stop-color:#000000;stop-opacity:0.4"/>
</linearGradient>
<polygon class="st16" points="-1645,3472.7 -1640.9,3467.5 -1635.3,3470.6 "/>
<linearGradient id="SVGID_15_" gradientUnits="userSpaceOnUse" x1="-1641.0377" y1="3448.2676" x2="-1639.9832" y2="3443.7122" gradientTransform="matrix(1 0 0 -1 0 6916)">
	<stop  offset="0" style="stop-color:#FFFFFF;stop-opacity:0.5"/>
	<stop  offset="8.960000e-02" style="stop-color:#FFFFFF;stop-opacity:0.4552"/>
	<stop  offset="1" style="stop-color:#FFFFFF;stop-opacity:0"/>
</linearGradient>
<polygon class="st17" points="-1645,3472.7 -1641,3467.5 -1635.3,3470.6 "/>
<linearGradient id="SVGID_16_" gradientUnits="userSpaceOnUse" x1="-1641.4493" y1="3447.762" x2="-1639.6013" y2="3442.9832" gradientTransform="matrix(1 0 0 -1 0 6916)">
	<stop  offset="0" style="stop-color:#000000;stop-opacity:0"/>
	<stop  offset="1" style="stop-color:#000000;stop-opacity:0.4"/>
</linearGradient>
<polygon class="st18" points="-1645,3472.7 -1641,3467.5 -1635.3,3470.6 "/>
<linearGradient id="SVGID_17_" gradientUnits="userSpaceOnUse" x1="-1643.3861" y1="3467.5208" x2="-1655.1147" y2="3454.2788" gradientTransform="matrix(1 0 0 -1 0 6916)">
	<stop  offset="0" style="stop-color:#FFFFFF;stop-opacity:0.5"/>
	<stop  offset="1" style="stop-color:#FFFFFF;stop-opacity:0"/>
</linearGradient>
<path class="st19" d="M-1649,3458.2c2.1,2.9,3.5,6,4.2,9l1.1-22.3c-0.2,0-0.4,0-0.4,0l-15.5,4.8c0,0-0.1,0-0.3,0.1
	C-1656,3451.2-1652,3454.1-1649,3458.2z"/>
<linearGradient id="SVGID_18_" gradientUnits="userSpaceOnUse" x1="-1645.3164" y1="3457.4666" x2="-1632.3013" y2="3457.0686" gradientTransform="matrix(1 0 0 -1 0 6916)">
	<stop  offset="0" style="stop-color:#1D1D1B;stop-opacity:0.5"/>
	<stop  offset="8.960000e-02" style="stop-color:#1D1D1B;stop-opacity:0.4552"/>
	<stop  offset="1" style="stop-color:#1D1D1B;stop-opacity:0"/>
</linearGradient>
<path class="st20" d="M-1638.8,3447.2c0.1,0.1,0.1,0.2,0.1,0.2l3.4,23.2l-5.6-3.1l-0.6-20.6l2.5,0.2
	C-1639,3447.1-1638.9,3447.1-1638.8,3447.2z"/>
<linearGradient id="SVGID_19_" gradientUnits="userSpaceOnUse" x1="-1635.5581" y1="3467.8508" x2="-1636.5668" y2="3464.1113" gradientTransform="matrix(1 0 0 -1 0 6916)">
	<stop  offset="0" style="stop-color:#FFFFFF;stop-opacity:0.4"/>
	<stop  offset="1" style="stop-color:#FFFFFF;stop-opacity:0"/>
</linearGradient>
<path class="st21" d="M-1639.2,3447.2c0,0,0.1,0,0.2,0.1c0.1,0.1,0.1,0.2,0.1,0.2l3.3,23l0.3,0.1l-3.4-23.2c0,0,0-0.1-0.1-0.2
	c-0.1-0.1-0.2-0.1-0.2-0.1l-2.5-0.2L-1639.2,3447.2z"/>
<linearGradient id="SVGID_20_" gradientUnits="userSpaceOnUse" x1="-1654.8556" y1="3443.5513" x2="-1653.9771" y2="3448.033" gradientTransform="matrix(1 0 0 -1 0 6916)">
	<stop  offset="0" style="stop-color:#1D1D1B;stop-opacity:0.5"/>
	<stop  offset="8.960000e-02" style="stop-color:#1D1D1B;stop-opacity:0.4552"/>
	<stop  offset="1" style="stop-color:#1D1D1B;stop-opacity:0"/>
</linearGradient>
<polygon class="st22" points="-1663,3469.3 -1645,3472.7 -1644.1,3453.7 -1661.1,3453.8 "/>
<ellipse transform="matrix(0.9392 0.3434 -0.3434 0.9392 1084.092 778.6092)" class="st2" cx="-1656.4" cy="3450.3" rx="0.7" ry="0.9"/>
<ellipse transform="matrix(0.9392 0.3434 -0.3434 0.9392 1084.0222 778.5969)" class="st23" cx="-1656.4" cy="3450.1" rx="0.7" ry="0.9"/>
<linearGradient id="SVGID_21_" gradientUnits="userSpaceOnUse" x1="-1647.042" y1="3457.2925" x2="-1635.191" y2="3456.8062" gradientTransform="matrix(1 0 0 -1 0 6916)">
	<stop  offset="0" style="stop-color:#1D1D1B;stop-opacity:0.5"/>
	<stop  offset="1" style="stop-color:#1D1D1B;stop-opacity:0"/>
</linearGradient>
<path class="st24" d="M-1641.5,3446.9l-1.9-1.8c-0.1-0.1-0.2-0.1-0.2-0.1l-1.4,27.8l4.1-5.2L-1641.5,3446.9z"/>
<linearGradient id="SVGID_22_" gradientUnits="userSpaceOnUse" x1="-1651.201" y1="3470.9648" x2="-1653.2319" y2="3448.7603" gradientTransform="matrix(1 0 0 -1 0 6916)">
	<stop  offset="0" style="stop-color:#FFFFFF;stop-opacity:0.5"/>
	<stop  offset="1" style="stop-color:#FFFFFF;stop-opacity:0"/>
</linearGradient>
<path class="st25" d="M-1644.1,3445l-15.5,4.8c0,0-0.7,0.2-0.8,0.4c0,0,0,0,0,0l15.6-4.3c0.1,0,0.4-0.1,0.4,0.8l-0.9,26l0.3,0.1
	l1.4-27.8C-1643.8,3444.9-1644,3444.9-1644.1,3445z"/>
<linearGradient id="SVGID_23_" gradientUnits="userSpaceOnUse" x1="-1651.201" y1="3470.9648" x2="-1653.2319" y2="3448.7603" gradientTransform="matrix(1 0 0 -1 0 6916)">
	<stop  offset="0" style="stop-color:#FFFFFF;stop-opacity:0.5"/>
	<stop  offset="1" style="stop-color:#FFFFFF;stop-opacity:0"/>
</linearGradient>
<path class="st26" d="M-1644.1,3445l-15.5,4.8c0,0-0.7,0.2-0.8,0.4c0,0,0,0,0,0l3.6-1l12.4-3.8c0,0,0.3-0.1,0.4,0l-1.4,27.3l0.3,0
	l1.4-27.8C-1643.8,3444.9-1644,3444.9-1644.1,3445z"/>
<linearGradient id="SVGID_24_" gradientUnits="userSpaceOnUse" x1="-1640.9264" y1="3448.2241" x2="-1644.962" y2="3441.8452" gradientTransform="matrix(1 0 0 -1 0 6916)">
	<stop  offset="0" style="stop-color:#FFFFFF;stop-opacity:0.5"/>
	<stop  offset="8.960000e-02" style="stop-color:#FFFFFF;stop-opacity:0.4552"/>
	<stop  offset="1" style="stop-color:#FFFFFF;stop-opacity:0"/>
</linearGradient>
<path class="st27" d="M-1640.1,3468l-0.8-0.4l-4.1,5.2l0.2,0c0,0,3.6-4.6,3.9-4.8C-1640.6,3467.7-1640.1,3468-1640.1,3468z"/>
<linearGradient id="SVGID_25_" gradientUnits="userSpaceOnUse" x1="-1642.1749" y1="3448.7839" x2="-1642.4564" y2="3447.7405" gradientTransform="matrix(1 0 0 -1 0 6916)">
	<stop  offset="0" style="stop-color:#000000;stop-opacity:0"/>
	<stop  offset="1" style="stop-color:#000000;stop-opacity:0.4"/>
</linearGradient>
<path class="st28" d="M-1645,3472.7l4.1-5.2C-1640.9,3467.5-1643.5,3470.3-1645,3472.7z"/>
<linearGradient id="SVGID_26_" gradientUnits="userSpaceOnUse" x1="-1637.8903" y1="3447.6584" x2="-1637.9596" y2="3447.4011" gradientTransform="matrix(1 0 0 -1 0 6916)">
	<stop  offset="0" style="stop-color:#000000;stop-opacity:0"/>
	<stop  offset="1" style="stop-color:#000000;stop-opacity:0.4"/>
</linearGradient>
<path class="st29" d="M-1635.3,3470.6l-5.6-3.1C-1640.9,3467.5-1640.3,3467.6-1635.3,3470.6z"/>
<ellipse transform="matrix(0.9392 0.3435 -0.3435 0.9392 1084.1945 775.9385)" class="st2" cx="-1648.2" cy="3448.4" rx="0.7" ry="0.9"/>
<ellipse transform="matrix(0.9392 0.3435 -0.3435 0.9392 1084.1249 775.926)" class="st23" cx="-1648.2" cy="3448.2" rx="0.7" ry="0.9"/>
<path class="st30" d="M-1656.4,3450.7C-1656.5,3450.7-1656.5,3450.7-1656.4,3450.7c-0.4,0-0.6-0.3-0.5-0.6c0-0.3,1.1-7.1,5.3-8.7
	c1.1-0.4,2-0.3,2.7,0.3c0.8,0.7,1.3,2,1.4,4c0.1,1.4-0.1,2.6-0.1,2.6c0,0.3-0.3,0.5-0.6,0.5c-0.3,0-0.5-0.3-0.5-0.6
	c0.2-1.2,0.3-4.7-0.9-5.6c-0.4-0.3-0.9-0.3-1.6-0.1c-3.7,1.3-4.6,7.7-4.6,7.8C-1655.9,3450.5-1656.2,3450.7-1656.4,3450.7z"/>
<path class="st4" d="M-1649.1,3441.7c-0.6-0.5-1.5-0.6-2.5-0.2c-1.7,0.6-3.2,2.3-4.2,4.9c-0.7,1.9-1,3.6-1,3.6c0,0.1,0,0.2,0.1,0.3
	c0.1,0.1,0.1,0.1,0.2,0.1c0,0,0,0,0,0c0.2,0,0.3-0.1,0.3-0.3c0-0.1,1-6.6,4.8-8c0.8-0.3,1.4-0.2,1.8,0.1c1.3,1,1.1,4.6,0.9,5.8
	c0,0.2,0.1,0.4,0.3,0.4c0.2,0,0.4-0.1,0.4-0.3C-1647.9,3447.9-1647.3,3443.2-1649.1,3441.7z"/>
<path class="st31" d="M-1656.5,3450.2C-1656.5,3450.2-1656.5,3450.2-1656.5,3450.2c-0.1,0-0.2-0.1-0.2-0.2c0-0.1,0.3-1.7,1-3.6
	c1-2.5,2.4-4.2,4.1-4.8c1-0.3,1.8-0.3,2.4,0.2c1.8,1.4,1.2,6.1,1.1,6.3c0,0.1-0.1,0.2-0.2,0.2c-0.1,0-0.2-0.1-0.2-0.2
	c0,0,0.6-4.6-1-5.9c-0.5-0.4-1.1-0.4-2-0.1c-3.9,1.4-4.8,8-4.9,8.1C-1656.3,3450.1-1656.4,3450.2-1656.5,3450.2z"/>
<path class="st32" d="M-1654.1,3444.9c0.2-0.3,0.4-0.6,0.6-0.8c-0.1,0.1-0.6,1-1.7,0.9C-1655.2,3445-1654.6,3445.2-1654.1,3444.9z"
	/>
<path class="st32" d="M-1654.7,3446.1c0.2-0.3,0.3-0.6,0.5-0.9c-0.1,0.1-0.4,1.1-1.6,1.1
	C-1655.8,3446.3-1655.2,3446.4-1654.7,3446.1z"/>
<path class="st32" d="M-1655.2,3447.3c0.1-0.3,0.3-0.6,0.4-0.9c-0.1,0.1-0.3,1.1-1.5,1.2
	C-1656.3,3447.6-1655.6,3447.7-1655.2,3447.3z"/>
<path class="st3" d="M-1647.9,3443.7c-0.1-0.3-0.2-0.6-0.3-1c0,0.1,0.4,1.1-0.3,1.9C-1648.5,3444.7-1648,3444.3-1647.9,3443.7z"/>
<path class="st3" d="M-1648.6,3442.1c-0.2-0.2-0.5-0.4-0.8-0.7c0.1,0.1,0.9,0.8,0.7,1.8C-1648.7,3443.2-1648.4,3442.6-1648.6,3442.1
	z"/>
<path class="st3" d="M-1647.7,3445.4c0-0.3-0.1-0.7-0.1-1c0,0.1,0.2,1.2-0.7,1.8C-1648.5,3446.2-1647.9,3445.9-1647.7,3445.4z"/>
<path class="st3" d="M-1647.6,3447.1c0-0.3,0-0.7,0-1c0,0.1,0,1.2-0.9,1.7C-1648.5,3447.8-1647.9,3447.6-1647.6,3447.1z"/>
<path class="st32" d="M-1655.6,3448.6c0.1-0.3,0.2-0.6,0.3-1c0,0.1-0.2,1.2-1.3,1.4C-1656.6,3449.1-1656,3449-1655.6,3448.6z"/>
<path class="st32" d="M-1653.4,3443.9c0.3-0.2,0.5-0.5,0.7-0.7c-0.1,0.1-0.8,0.8-1.8,0.5
	C-1654.5,3443.8-1653.9,3444.1-1653.4,3443.9z"/>
<path class="st32" d="M-1652.6,3443.1c0.3-0.2,0.6-0.4,0.8-0.6c-0.1,0.1-1,0.7-1.9,0.2C-1653.6,3442.7-1653.1,3443.2-1652.6,3443.1z
	"/>
<path class="st3" d="M-1651.5,3442.5c0.3-0.1,0.6-0.2,1-0.3c-0.1,0-1.1,0.4-1.9-0.3C-1652.4,3441.8-1652,3442.4-1651.5,3442.5z"/>
<path class="st3" d="M-1650.5,3442.2c0.3,0,0.5,0.1,0.8,0.1c-0.1,0-0.9-0.1-1.2-0.8C-1651,3441.4-1650.9,3441.9-1650.5,3442.2z"/>
<path class="st3" d="M-1649.5,3442.6c0.2,0.2,0.3,0.4,0.5,0.6c-0.1-0.1-0.6-0.7-0.3-1.4C-1649.3,3441.7-1649.6,3442.1-1649.5,3442.6
	z"/>
<linearGradient id="SVGID_27_" gradientUnits="userSpaceOnUse" x1="-1650.7706" y1="3474.3967" x2="-1652.5624" y2="3466.8806" gradientTransform="matrix(1 0 0 -1 0 6916)">
	<stop  offset="0" style="stop-color:#FFFFFF;stop-opacity:0.65"/>
	<stop  offset="1" style="stop-color:#FFFFFF;stop-opacity:0"/>
</linearGradient>
<path class="st33" d="M-1648.3,3447.9c0-0.2,0.6-4.8-1.1-6.2c-0.3-0.3-0.7-0.4-1.2-0.4c-0.3,0-0.7,0.1-1.1,0.2
	c-1.7,0.6-3.1,2.2-4.1,4.7c-0.7,1.9-1,3.5-1,3.6c0,0.1,0,0.1,0.1,0.1c0,0,0,0,0,0c0.1,0,0.1,0,0.1-0.1c0-0.1,1-6.7,4.9-8.2
	c0.8-0.3,1.5-0.3,2.1,0.2c1.7,1.3,1,6,1,6c0,0.1,0,0.1,0.1,0.1c0,0,0,0,0,0C-1648.3,3448-1648.3,3448-1648.3,3447.9z"/>
<g>
	
		<linearGradient id="SVGID_28_" gradientUnits="userSpaceOnUse" x1="-1648.9497" y1="3472.0725" x2="-1648.0951" y2="3466.2983" gradientTransform="matrix(1 0 0 -1 0 6916)">
		<stop  offset="0" style="stop-color:#000000;stop-opacity:0"/>
		<stop  offset="1" style="stop-color:#000000;stop-opacity:0.4"/>
	</linearGradient>
	<path class="st34" d="M-1647.6,3445.7c-0.1-2-0.5-3.3-1.4-4c-0.5-0.4-1-0.5-1.6-0.5c0.5,0,0.9,0.2,1.3,0.5c0.8,0.7,1.3,2,1.4,4
		c0.1,1.4-0.1,2.6-0.1,2.6c0,0.2-0.2,0.4-0.4,0.4c0,0,0.1,0,0.1,0c0.3,0,0.6-0.2,0.6-0.5
		C-1647.7,3448.3-1647.5,3447.1-1647.6,3445.7z"/>
</g>
<linearGradient id="SVGID_29_" gradientUnits="userSpaceOnUse" x1="-1654.5156" y1="3468.1658" x2="-1651.5194" y2="3474.4534" gradientTransform="matrix(1 0 0 -1 0 6916)">
	<stop  offset="0" style="stop-color:#000000;stop-opacity:0"/>
	<stop  offset="1" style="stop-color:#000000;stop-opacity:0.4"/>
</linearGradient>
<path class="st35" d="M-1651.6,3442.4c-3.7,1.3-4.6,7.7-4.6,7.8c0,0.2-0.2,0.4-0.4,0.4c0,0,0.1,0,0.1,0c0,0,0.1,0,0.1,0
	c0.3,0,0.5-0.2,0.5-0.5c0-0.1,1-6.5,4.6-7.8c0.2-0.1,0.5-0.1,0.7-0.2C-1650.9,3442.2-1651.2,3442.3-1651.6,3442.4z"/>
<g class="st36">
	
		<linearGradient id="SVGID_30_" gradientUnits="userSpaceOnUse" x1="-1656.5869" y1="3468.2886" x2="-1656.3948" y2="3466.0857" gradientTransform="matrix(1 0 0 -1 0 6916)">
		<stop  offset="0" style="stop-color:#000000;stop-opacity:0"/>
		<stop  offset="1" style="stop-color:#000000;stop-opacity:0.4"/>
	</linearGradient>
	<path class="st37" d="M-1656.5,3449.9c-0.2-0.1-0.3-0.2-0.4-0.4c-0.1,0.3-0.1,0.5-0.1,0.6c0,0.3,0.2,0.6,0.5,0.6c0,0,0.1,0,0.1,0
		c0.3,0,0.5-0.2,0.5-0.5c0,0,0-0.2,0.1-0.5C-1656,3450-1656.3,3450-1656.5,3449.9z"/>
	
		<linearGradient id="SVGID_31_" gradientUnits="userSpaceOnUse" x1="-1648.2717" y1="3469.0139" x2="-1648.0796" y2="3466.811" gradientTransform="matrix(1 0 0 -1 0 6916)">
		<stop  offset="0" style="stop-color:#000000;stop-opacity:0"/>
		<stop  offset="1" style="stop-color:#000000;stop-opacity:0.4"/>
	</linearGradient>
	<path class="st38" d="M-1648.3,3447.9c-0.2-0.1-0.3-0.2-0.3-0.3c0,0.2,0,0.4-0.1,0.6c0,0.3,0.2,0.6,0.5,0.6c0.3,0,0.6-0.2,0.6-0.5
		c0,0,0-0.3,0.1-0.6C-1647.8,3447.9-1648.1,3448-1648.3,3447.9z"/>
</g>
<g>
	<path d="M-1629.7,3463.1c0.7,0.4,1.9,0.8,3.1,0.8c1.1,0,1.6-0.6,1.6-1.3c0-0.7-0.4-1.1-1.6-1.8c-1.4-0.8-2.5-2-2.5-3.5
		c0-2.7,2.3-4.5,5.6-4.5c1.4,0,2.6,0.3,3.2,0.6l-0.9,2.7c-0.5-0.2-1.4-0.5-2.3-0.5c-1.1,0-1.7,0.5-1.7,1.3c0,0.6,0.5,1,1.4,1.6
		c1.5,0.8,2.7,2,2.7,3.6c0,3-2.4,4.7-5.8,4.7c-1.6,0-3-0.4-3.7-0.9L-1629.7,3463.1z"/>
	<path d="M-1620.3,3466.5l3.7-19.3h3.8l-1.4,7.6l0.1,0c1-1.2,2.3-2,4-2c2,0,3.1,1.3,3.1,3.4c0,0.7-0.1,1.6-0.3,2.5l-1.5,7.8h-3.8
		l1.4-7.5c0.1-0.5,0.2-1.1,0.2-1.7c0-0.8-0.3-1.4-1.2-1.4c-1.2,0-2.5,1.5-3,4l-1.3,6.6L-1620.3,3466.5L-1620.3,3466.5z"/>
	<path d="M-1593.6,3458.1c0,4.7-3,8.7-7.5,8.7c-3.4,0-5.2-2.3-5.2-5.3c0-4.6,3-8.7,7.5-8.7
		C-1595.2,3452.8-1593.6,3455.4-1593.6,3458.1z M-1602.4,3461.4c0,1.4,0.5,2.5,1.8,2.5c2,0,3.1-3.6,3.1-5.9c0-1.1-0.4-2.3-1.8-2.3
		C-1601.3,3455.7-1602.4,3459.2-1602.4,3461.4z"/>
	<path d="M-1594.5,3471.8l2.6-13.8c0.3-1.6,0.6-3.6,0.8-5h3.3l-0.2,2h0.1c1-1.4,2.5-2.2,4-2.2c2.8,0,3.9,2.3,3.9,4.8
		c0,4.6-2.9,9.1-7.3,9.1c-0.9,0-1.8-0.2-2.2-0.5h-0.1l-1,5.6H-1594.5L-1594.5,3471.8z M-1589.1,3463.3c0.4,0.3,0.9,0.5,1.6,0.5
		c2.1,0,3.6-3.5,3.6-5.9c0-1-0.4-2.1-1.5-2.1c-1.3,0-2.5,1.6-3,3.9L-1589.1,3463.3z"/>
	<path d="M-1580,3466.5l2.5-13.4h3.8l-2.6,13.4H-1580z M-1575.1,3451.5c-1.1,0-1.8-0.8-1.8-1.9c0-1.2,1-2.2,2.2-2.2
		c1.1,0,1.9,0.8,1.9,1.9C-1572.8,3450.7-1573.9,3451.5-1575.1,3451.5L-1575.1,3451.5z"/>
	<path d="M-1572.9,3466.5l2-10.5h-1.7l0.5-2.8h1.7l0.1-0.6c0.3-1.6,0.9-3.2,2.2-4.3c1-0.9,2.3-1.3,3.7-1.3c0.9,0,1.6,0.1,2,0.3
		l-0.7,3c-0.3-0.1-0.7-0.2-1.2-0.2c-1.3,0-2,1.1-2.2,2.4l-0.1,0.6h2.6l-0.5,2.8h-2.6l-2,10.5H-1572.9z"/>
	<path d="M-1559.4,3453.1l0.6,6c0.2,1.3,0.3,2.3,0.3,3.2h0.1c0.3-0.9,0.6-1.7,1.1-3.2l2.3-6h3.9l-4.6,9.9c-1.6,3.4-3.2,5.9-4.9,7.5
		c-1.3,1.3-2.9,1.9-3.7,2l-1-3.2c0.6-0.2,1.4-0.5,2.1-1.1c0.9-0.6,1.6-1.4,2-2.3c0.1-0.2,0.1-0.4,0.1-0.6l-2.3-12.3L-1559.4,3453.1
		L-1559.4,3453.1z"/>
</g>
</svg>
