<?xml version="1.0" encoding="utf-8"?>
<!-- Generator: Adobe Illustrator 16.0.0, SVG Export Plug-In . SVG Version: 6.00 Build 0)  -->
<!DOCTYPE svg PUBLIC "-//W3C//DTD SVG 1.1//EN" "http://www.w3.org/Graphics/SVG/1.1/DTD/svg11.dtd">
<svg version="1.1" id="Layer_1" xmlns="http://www.w3.org/2000/svg" xmlns:xlink="http://www.w3.org/1999/xlink" x="0px" y="0px"
	 width="1080px" height="1440px" viewBox="0 0 1080 1440" enable-background="new 0 0 1080 1440" xml:space="preserve"
	 preserveAspectRatio = "none">
<g>
	<defs>
		<rect id="SVGID_1_" width="1080" height="1440"/>
	</defs>
	<clipPath id="SVGID_2_">
		<use xlink:href="#SVGID_1_"  overflow="visible"/>
	</clipPath>
	<path clip-path="url(#SVGID_2_)" fill="#4D98D7" d="M272.124,1626.163c-0.547,0-1.075-0.301-1.339-0.822
		c-0.372-0.739-0.077-1.641,0.662-2.014l1.343-0.679c0.737-0.376,1.64-0.079,2.013,0.66c0.373,0.74,0.078,1.641-0.661,2.015
		l-1.344,0.679C272.583,1626.111,272.351,1626.163,272.124,1626.163 M289.594,1617.33c-0.547,0-1.074-0.302-1.338-0.822
		c-0.373-0.739-0.076-1.641,0.662-2.014l1.344-0.679c0.736-0.376,1.64-0.076,2.013,0.661c0.374,0.739,0.076,1.641-0.662,2.014
		l-1.344,0.679C290.053,1617.278,289.821,1617.33,289.594,1617.33 M307.067,1608.497c-0.547,0-1.075-0.3-1.338-0.822
		c-0.373-0.739-0.078-1.64,0.661-2.014l1.343-0.679c0.737-0.377,1.64-0.079,2.014,0.661c0.372,0.739,0.077,1.641-0.662,2.014
		l-1.343,0.679C307.525,1608.446,307.294,1608.497,307.067,1608.497 M324.54,1599.664c-0.548,0-1.074-0.3-1.339-0.822
		c-0.373-0.737-0.078-1.639,0.661-2.014l1.345-0.68c0.737-0.376,1.638-0.079,2.013,0.66c0.373,0.738,0.077,1.64-0.661,2.015
		l-1.345,0.68C324.998,1599.613,324.767,1599.664,324.54,1599.664 M342.011,1590.829c-0.547,0-1.075-0.3-1.339-0.821
		c-0.372-0.739-0.077-1.641,0.662-2.014l1.343-0.679c0.739-0.376,1.64-0.079,2.013,0.661c0.374,0.739,0.078,1.64-0.661,2.014
		l-1.343,0.679C342.469,1590.778,342.238,1590.829,342.011,1590.829 M359.483,1581.997c-0.547,0-1.076-0.302-1.339-0.822
		c-0.373-0.739-0.076-1.641,0.661-2.014l1.345-0.679c0.737-0.377,1.64-0.076,2.013,0.661c0.373,0.739,0.076,1.641-0.661,2.014
		l-1.345,0.679C359.941,1581.945,359.71,1581.997,359.483,1581.997 M376.955,1573.164c-0.547,0-1.074-0.3-1.339-0.822
		c-0.373-0.738-0.077-1.639,0.661-2.014l1.345-0.68c0.736-0.376,1.637-0.08,2.013,0.66c0.373,0.738,0.078,1.64-0.661,2.014
		l-1.344,0.681C377.412,1573.112,377.182,1573.164,376.955,1573.164 M394.426,1564.331c-0.547,0-1.074-0.3-1.338-0.822
		c-0.373-0.737-0.078-1.639,0.661-2.014l1.345-0.68c0.739-0.378,1.637-0.079,2.013,0.661c0.373,0.737,0.078,1.639-0.661,2.014
		l-1.345,0.68C394.885,1564.279,394.653,1564.331,394.426,1564.331 M411.898,1555.496c-0.547,0-1.076-0.301-1.339-0.821
		c-0.373-0.739-0.076-1.641,0.661-2.014l1.345-0.679c0.737-0.378,1.64-0.076,2.013,0.662c0.373,0.737,0.076,1.639-0.661,2.013
		l-1.345,0.679C412.356,1555.445,412.125,1555.496,411.898,1555.496 M429.372,1546.663c-0.548,0-1.076-0.301-1.339-0.821
		c-0.373-0.739-0.076-1.641,0.661-2.014l1.345-0.679c0.737-0.379,1.64-0.076,2.013,0.661c0.373,0.738,0.076,1.64-0.661,2.014
		l-1.345,0.679C429.828,1546.612,429.598,1546.663,429.372,1546.663 M446.842,1537.83c-0.547,0-1.074-0.299-1.339-0.821
		c-0.373-0.738-0.078-1.64,0.661-2.014l1.345-0.681c0.738-0.377,1.637-0.077,2.013,0.66c0.374,0.739,0.078,1.64-0.661,2.015
		l-1.345,0.681C447.3,1537.779,447.068,1537.83,446.842,1537.83 M464.315,1528.996c-0.548,0-1.076-0.302-1.339-0.822
		c-0.374-0.738-0.076-1.64,0.661-2.014l1.345-0.679c0.737-0.377,1.64-0.075,2.013,0.661c0.373,0.739,0.076,1.641-0.661,2.014
		l-1.345,0.679C464.772,1528.945,464.542,1528.996,464.315,1528.996 M481.786,1520.163c-0.548,0-1.076-0.302-1.339-0.822
		c-0.373-0.738-0.076-1.64,0.662-2.014l1.345-0.679c0.732-0.379,1.639-0.077,2.012,0.663c0.373,0.737,0.076,1.639-0.661,2.012
		l-1.345,0.679C482.244,1520.112,482.012,1520.163,481.786,1520.163 M499.258,1511.33c-0.547,0-1.075-0.301-1.338-0.822
		c-0.374-0.738-0.077-1.64,0.661-2.013l1.344-0.68c0.739-0.374,1.641-0.077,2.014,0.662c0.373,0.738,0.076,1.64-0.663,2.013
		l-1.345,0.679C499.716,1511.279,499.485,1511.33,499.258,1511.33 M516.73,1502.497c-0.548,0-1.075-0.299-1.339-0.822
		c-0.373-0.737-0.078-1.639,0.661-2.013l1.345-0.681c0.737-0.379,1.639-0.077,2.013,0.661c0.373,0.738,0.078,1.639-0.661,2.014
		l-1.345,0.68C517.188,1502.446,516.957,1502.497,516.73,1502.497 M534.202,1493.663c-0.547,0-1.075-0.3-1.338-0.822
		c-0.374-0.739-0.078-1.64,0.661-2.014l1.343-0.679c0.738-0.374,1.64-0.077,2.013,0.66c0.374,0.74,0.078,1.642-0.661,2.015
		l-1.343,0.679C534.66,1493.612,534.429,1493.663,534.202,1493.663 M551.674,1484.83c-0.547,0-1.075-0.302-1.339-0.823
		c-0.372-0.738-0.076-1.639,0.662-2.013l1.345-0.679c0.736-0.374,1.64-0.074,2.013,0.662c0.373,0.738,0.076,1.64-0.663,2.013
		l-1.344,0.679C552.132,1484.779,551.9,1484.83,551.674,1484.83 M569.146,1475.997c-0.547,0-1.073-0.3-1.339-0.82
		c-0.373-0.739-0.077-1.641,0.66-2.014l1.344-0.682c0.742-0.379,1.64-0.078,2.013,0.661c0.374,0.737,0.079,1.639-0.658,2.012
		l-1.343,0.682C569.604,1475.946,569.374,1475.997,569.146,1475.997 M586.618,1467.164c-0.548,0-1.074-0.3-1.339-0.822
		c-0.373-0.737-0.077-1.639,0.661-2.013l1.345-0.681c0.739-0.375,1.637-0.077,2.012,0.66c0.375,0.738,0.079,1.64-0.66,2.015
		l-1.344,0.68C587.076,1467.113,586.845,1467.164,586.618,1467.164 M604.091,1458.33c-0.548,0-1.075-0.3-1.339-0.822
		c-0.373-0.739-0.078-1.641,0.661-2.014l1.344-0.679c0.737-0.375,1.64-0.077,2.013,0.661c0.373,0.739,0.078,1.641-0.661,2.014
		l-1.344,0.679C604.549,1458.278,604.317,1458.33,604.091,1458.33 M621.562,1449.497c-0.547,0-1.075-0.302-1.338-0.823
		c-0.374-0.738-0.076-1.64,0.661-2.013l1.344-0.679c0.736-0.376,1.639-0.077,2.014,0.661c0.373,0.739,0.076,1.641-0.661,2.014
		l-1.345,0.679C622.02,1449.445,621.789,1449.497,621.562,1449.497 M639.035,1440.664c-0.548,0-1.074-0.3-1.338-0.821
		c-0.374-0.738-0.079-1.64,0.658-2.015l1.344-0.68c0.741-0.375,1.639-0.078,2.014,0.659c0.375,0.739,0.078,1.641-0.659,2.014
		l-1.344,0.682C639.493,1440.612,639.262,1440.664,639.035,1440.664 M656.506,1431.83c-0.547,0-1.075-0.302-1.339-0.824
		c-0.373-0.737-0.076-1.639,0.661-2.012l1.344-0.679c0.739-0.376,1.642-0.077,2.015,0.661c0.373,0.739,0.076,1.641-0.662,2.014
		l-1.344,0.679C656.963,1431.778,656.732,1431.83,656.506,1431.83 M673.979,1422.997c-0.547,0-1.075-0.3-1.339-0.822
		c-0.373-0.739-0.077-1.641,0.661-2.014l1.344-0.679c0.738-0.376,1.64-0.079,2.013,0.661c0.373,0.739,0.078,1.641-0.661,2.014
		l-1.343,0.679C674.437,1422.945,674.205,1422.997,673.979,1422.997 M691.45,1414.164c-0.548,0-1.074-0.3-1.339-0.822
		c-0.373-0.737-0.078-1.639,0.661-2.014l1.345-0.681c0.737-0.376,1.639-0.077,2.014,0.661c0.372,0.738,0.077,1.64-0.662,2.014
		l-1.345,0.681C691.908,1414.112,691.677,1414.164,691.45,1414.164 M708.922,1405.331c-0.547,0-1.073-0.3-1.337-0.821
		c-0.374-0.738-0.079-1.64,0.659-2.015l1.343-0.679c0.743-0.383,1.64-0.077,2.015,0.658c0.373,0.739,0.077,1.641-0.659,2.014
		l-1.344,0.682C709.381,1405.279,709.149,1405.331,708.922,1405.331 M726.394,1396.497c-0.547,0-1.075-0.302-1.339-0.824
		c-0.373-0.737-0.075-1.639,0.663-2.012l1.345-0.679c0.734-0.376,1.639-0.076,2.012,0.661c0.373,0.738,0.076,1.641-0.661,2.013
		l-1.345,0.68C726.852,1396.445,726.62,1396.497,726.394,1396.497 M743.866,1387.664c-0.547,0-1.075-0.3-1.338-0.823
		c-0.374-0.738-0.078-1.64,0.661-2.013l1.343-0.679c0.737-0.378,1.64-0.079,2.015,0.661c0.372,0.739,0.076,1.641-0.663,2.013
		l-1.343,0.68C744.324,1387.612,744.094,1387.664,743.866,1387.664 M761.338,1378.831c-0.548,0-1.074-0.3-1.339-0.823
		c-0.373-0.736-0.077-1.639,0.661-2.013l1.346-0.681c0.736-0.376,1.638-0.079,2.013,0.662c0.373,0.737,0.077,1.639-0.661,2.013
		l-1.345,0.681C761.797,1378.779,761.564,1378.831,761.338,1378.831 M778.811,1369.996c-0.547,0-1.075-0.3-1.339-0.822
		c-0.373-0.74-0.077-1.64,0.661-2.013l1.344-0.68c0.736-0.377,1.64-0.078,2.013,0.662c0.373,0.738,0.078,1.64-0.661,2.013
		l-1.343,0.679C779.269,1369.945,779.037,1369.996,778.811,1369.996 M796.282,1361.163c-0.548,0-1.076-0.301-1.339-0.822
		c-0.374-0.738-0.076-1.64,0.661-2.013l1.345-0.68c0.737-0.377,1.639-0.075,2.013,0.662c0.373,0.738,0.076,1.641-0.663,2.013
		l-1.344,0.679C796.739,1361.112,796.509,1361.163,796.282,1361.163 M813.756,1352.331c-0.549,0-1.077-0.301-1.341-0.823
		c-0.372-0.738-0.077-1.64,0.662-2.013l1.343-0.679c0.736-0.379,1.641-0.078,2.014,0.661s0.077,1.641-0.661,2.013l-1.344,0.68
		C814.213,1352.279,813.981,1352.331,813.756,1352.331 M831.226,1343.498c-0.547,0-1.074-0.301-1.339-0.823
		c-0.373-0.736-0.077-1.639,0.662-2.013l1.344-0.681c0.738-0.377,1.638-0.077,2.014,0.662c0.373,0.736,0.077,1.638-0.662,2.013
		l-1.344,0.681C831.684,1343.446,831.452,1343.498,831.226,1343.498 M848.698,1334.663c-0.547,0-1.075-0.3-1.339-0.822
		c-0.373-0.739-0.077-1.641,0.661-2.013l1.344-0.68c0.737-0.377,1.64-0.077,2.014,0.662c0.372,0.738,0.077,1.64-0.662,2.013
		l-1.343,0.679C849.156,1334.611,848.925,1334.663,848.698,1334.663 M866.17,1325.83c-0.547,0-1.076-0.301-1.339-0.822
		c-0.373-0.739-0.075-1.641,0.661-2.013l1.345-0.68c0.737-0.379,1.639-0.076,2.013,0.662s0.077,1.64-0.661,2.013l-1.344,0.679
		C866.628,1325.779,866.396,1325.83,866.17,1325.83 M883.643,1316.997c-0.548,0-1.074-0.3-1.338-0.82
		c-0.374-0.739-0.079-1.641,0.658-2.015l1.344-0.679c0.742-0.38,1.641-0.079,2.013,0.659c0.375,0.737,0.079,1.639-0.658,2.012
		l-1.343,0.681C884.101,1316.946,883.869,1316.997,883.643,1316.997 M901.113,1308.165c-0.547,0-1.073-0.301-1.339-0.823
		c-0.373-0.737-0.077-1.639,0.662-2.013l1.345-0.681c0.737-0.379,1.638-0.077,2.013,0.662c0.373,0.736,0.078,1.638-0.661,2.013
		l-1.345,0.681C901.571,1308.113,901.341,1308.165,901.113,1308.165 M918.587,1299.33c-0.548,0-1.076-0.3-1.339-0.822
		c-0.374-0.739-0.078-1.641,0.661-2.014l1.343-0.679c0.739-0.374,1.641-0.077,2.014,0.662c0.373,0.738,0.077,1.64-0.662,2.013
		l-1.343,0.679C919.044,1299.278,918.813,1299.33,918.587,1299.33 M936.058,1290.497c-0.548,0-1.075-0.301-1.339-0.822
		c-0.373-0.739-0.076-1.641,0.662-2.013l1.346-0.68c0.731-0.374,1.639-0.077,2.012,0.662c0.373,0.738,0.075,1.64-0.661,2.013
		l-1.345,0.679C936.516,1290.445,936.284,1290.497,936.058,1290.497 M953.53,1281.664c-0.547,0-1.074-0.3-1.339-0.82
		c-0.373-0.739-0.077-1.641,0.66-2.015l1.343-0.68c0.743-0.38,1.641-0.078,2.015,0.658c0.373,0.739,0.078,1.641-0.659,2.014
		l-1.344,0.681C953.988,1281.613,953.756,1281.664,953.53,1281.664 M971.002,1272.83c-0.548,0-1.076-0.302-1.339-0.823
		c-0.373-0.738-0.076-1.64,0.661-2.013l1.345-0.679c0.735-0.374,1.64-0.075,2.013,0.661c0.373,0.739,0.076,1.641-0.661,2.014
		l-1.345,0.679C971.459,1272.778,971.229,1272.83,971.002,1272.83 M988.474,1263.997c-0.547,0-1.074-0.3-1.338-0.822
		c-0.373-0.739-0.078-1.641,0.661-2.014l1.343-0.679c0.738-0.374,1.641-0.079,2.014,0.661c0.373,0.739,0.077,1.641-0.661,2.014
		l-1.344,0.679C988.933,1263.945,988.701,1263.997,988.474,1263.997 M1005.945,1255.164c-0.547,0-1.074-0.3-1.339-0.822
		c-0.373-0.737-0.077-1.639,0.662-2.014l1.345-0.68c0.737-0.375,1.639-0.078,2.013,0.661c0.373,0.737,0.077,1.639-0.661,2.013
		l-1.345,0.681C1006.403,1255.113,1006.172,1255.164,1005.945,1255.164 M1023.418,1246.331c-0.547,0-1.073-0.3-1.339-0.82
		c-0.373-0.739-0.077-1.641,0.66-2.014l1.344-0.681c0.741-0.382,1.639-0.079,2.015,0.66c0.372,0.737,0.076,1.639-0.66,2.012
		l-1.343,0.681C1023.876,1246.28,1023.646,1246.331,1023.418,1246.331 M1040.89,1237.497c-0.548,0-1.075-0.302-1.339-0.823
		c-0.373-0.738-0.076-1.64,0.661-2.013l1.345-0.679c0.737-0.376,1.641-0.078,2.013,0.661c0.374,0.739,0.077,1.641-0.662,2.014
		l-1.345,0.679C1041.348,1237.445,1041.116,1237.497,1040.89,1237.497 M1058.36,1228.664c-0.547,0-1.075-0.302-1.339-0.824
		c-0.372-0.737-0.076-1.639,0.662-2.012l1.345-0.679c0.735-0.376,1.64-0.076,2.013,0.661c0.373,0.739,0.076,1.641-0.662,2.014
		l-1.344,0.679C1058.818,1228.612,1058.587,1228.664,1058.36,1228.664 M1075.833,1219.831c-0.547,0-1.073-0.301-1.338-0.822
		c-0.374-0.737-0.078-1.639,0.661-2.014l1.345-0.68c0.738-0.377,1.637-0.079,2.013,0.661c0.373,0.737,0.078,1.639-0.661,2.013
		l-1.345,0.681C1076.291,1219.779,1076.061,1219.831,1075.833,1219.831 M1093.305,1210.998c-0.547,0-1.074-0.3-1.34-0.822
		c-0.373-0.737-0.076-1.639,0.662-2.014l1.345-0.68c0.737-0.376,1.639-0.079,2.014,0.661c0.373,0.737,0.077,1.639-0.661,2.013
		l-1.345,0.681C1093.763,1210.947,1093.531,1210.998,1093.305,1210.998 M1110.777,1202.164c-0.547,0-1.075-0.302-1.339-0.823
		c-0.373-0.738-0.076-1.64,0.661-2.013l1.345-0.679c0.738-0.376,1.641-0.076,2.014,0.661c0.373,0.739,0.076,1.64-0.662,2.013
		l-1.344,0.68C1111.235,1202.112,1111.004,1202.164,1110.777,1202.164 M1128.248,1193.331c-0.547,0-1.074-0.302-1.338-0.824
		c-0.373-0.737-0.076-1.639,0.661-2.012l1.345-0.679c0.737-0.378,1.64-0.076,2.013,0.661c0.372,0.739,0.075,1.64-0.662,2.014
		l-1.346,0.679C1128.706,1193.279,1128.476,1193.331,1128.248,1193.331 M1145.722,1184.498c-0.548,0-1.074-0.301-1.339-0.822
		c-0.373-0.738-0.078-1.639,0.661-2.014l1.345-0.681c0.737-0.376,1.637-0.078,2.013,0.662c0.373,0.737,0.078,1.639-0.661,2.013
		l-1.345,0.681C1146.18,1184.446,1145.948,1184.498,1145.722,1184.498 M1163.192,1175.663c-0.547,0-1.075-0.301-1.339-0.824
		c-0.373-0.736-0.076-1.638,0.662-2.011l1.344-0.679c0.739-0.378,1.641-0.077,2.014,0.661s0.076,1.64-0.661,2.013l-1.345,0.68
		C1163.65,1175.612,1163.42,1175.663,1163.192,1175.663"/>
	<path clip-path="url(#SVGID_2_)" fill="#4D98D7" d="M66.162,344.105c-0.828,0-1.498-0.67-1.498-1.498v-1.498
		c0-0.829,0.67-1.499,1.498-1.499s1.498,0.67,1.498,1.499v1.498C67.66,343.436,66.99,344.105,66.162,344.105 M66.162,324.628
		c-0.828,0-1.498-0.67-1.498-1.499v-1.498c0-0.828,0.67-1.498,1.498-1.498s1.498,0.67,1.498,1.498v1.498
		C67.66,323.958,66.99,324.628,66.162,324.628 M66.162,305.15c-0.828,0-1.498-0.669-1.498-1.498v-1.498
		c0-0.828,0.67-1.498,1.498-1.498s1.498,0.67,1.498,1.498v1.498C67.66,304.481,66.99,305.15,66.162,305.15 M66.162,285.673
		c-0.828,0-1.498-0.67-1.498-1.498v-1.498c0-0.829,0.67-1.499,1.498-1.499s1.498,0.67,1.498,1.499v1.498
		C67.66,285.003,66.99,285.673,66.162,285.673"/>
	<path clip-path="url(#SVGID_2_)" fill="#4D98D7" d="M670.514,1263.928c-0.828,0-1.498-0.67-1.498-1.497v-1.499
		c0-0.828,0.67-1.498,1.498-1.498s1.499,0.67,1.499,1.498v1.499C672.013,1263.258,671.342,1263.928,670.514,1263.928
		 M670.514,1244.451c-0.828,0-1.498-0.67-1.498-1.498v-1.499c0-0.828,0.67-1.498,1.498-1.498s1.499,0.67,1.499,1.498v1.499
		C672.013,1243.781,671.342,1244.451,670.514,1244.451"/>
	<path clip-path="url(#SVGID_2_)" fill="#4D98D7" d="M985.047,645.285c-0.544,0-1.068-0.297-1.334-0.813
		c-0.378-0.736-0.088-1.638,0.647-2.018l1.305-0.669c0.737-0.384,1.637-0.087,2.017,0.647c0.378,0.737,0.088,1.639-0.647,2.018
		l-1.304,0.671C985.511,645.232,985.276,645.285,985.047,645.285 M1001.994,636.588c-0.544,0-1.067-0.297-1.334-0.814
		c-0.378-0.736-0.088-1.64,0.648-2.018l1.302-0.668c0.737-0.38,1.639-0.086,2.018,0.648c0.378,0.736,0.088,1.64-0.648,2.018
		l-1.302,0.668C1002.458,636.535,1002.224,636.588,1001.994,636.588 M1018.94,627.892c-0.544,0-1.069-0.297-1.334-0.815
		c-0.378-0.737-0.088-1.639,0.649-2.016l1.304-0.669c0.732-0.379,1.639-0.088,2.017,0.65c0.377,0.736,0.088,1.638-0.65,2.016
		l-1.304,0.668C1019.404,627.838,1019.17,627.892,1018.94,627.892 M1035.888,619.194c-0.544,0-1.068-0.297-1.334-0.814
		c-0.378-0.736-0.088-1.64,0.647-2.017l1.303-0.669c0.737-0.384,1.639-0.086,2.018,0.648c0.378,0.737,0.088,1.64-0.648,2.018
		l-1.302,0.668C1036.352,619.142,1036.118,619.194,1035.888,619.194 M1052.834,610.498c-0.545,0-1.069-0.297-1.334-0.815
		c-0.379-0.736-0.088-1.638,0.649-2.016l1.304-0.668c0.732-0.384,1.639-0.087,2.016,0.649c0.378,0.735,0.088,1.639-0.649,2.016
		l-1.304,0.669C1053.298,610.445,1053.063,610.498,1052.834,610.498 M1069.781,601.8c-0.544,0-1.068-0.297-1.334-0.813
		c-0.378-0.736-0.088-1.641,0.647-2.018l1.303-0.669c0.737-0.383,1.638-0.086,2.017,0.649c0.378,0.735,0.089,1.639-0.647,2.017
		l-1.302,0.669C1070.244,601.749,1070.011,601.8,1069.781,601.8 M1086.728,593.105c-0.545,0-1.068-0.297-1.335-0.813
		c-0.377-0.737-0.087-1.639,0.648-2.018l1.304-0.67c0.739-0.382,1.639-0.087,2.018,0.648c0.378,0.736,0.088,1.638-0.648,2.017
		l-1.304,0.67C1087.191,593.052,1086.957,593.105,1086.728,593.105 M1103.675,584.408c-0.544,0-1.068-0.297-1.334-0.814
		c-0.378-0.735-0.088-1.639,0.648-2.017l1.302-0.669c0.737-0.383,1.639-0.086,2.018,0.648c0.377,0.737,0.088,1.641-0.648,2.018
		l-1.302,0.669C1104.139,584.355,1103.904,584.408,1103.675,584.408 M1120.621,575.711c-0.545,0-1.069-0.297-1.336-0.815
		c-0.376-0.736-0.087-1.639,0.651-2.016l1.303-0.668c0.731-0.384,1.639-0.09,2.017,0.649c0.378,0.735,0.088,1.639-0.649,2.017
		l-1.304,0.668C1121.085,575.659,1120.851,575.711,1120.621,575.711 M1137.568,567.015c-0.545,0-1.068-0.297-1.334-0.813
		c-0.378-0.737-0.088-1.641,0.647-2.018l1.303-0.669c0.737-0.382,1.639-0.086,2.017,0.649c0.377,0.735,0.088,1.64-0.647,2.017
		l-1.303,0.669C1138.032,566.962,1137.798,567.015,1137.568,567.015 M1154.515,558.317c-0.545,0-1.07-0.297-1.335-0.814
		c-0.377-0.737-0.087-1.639,0.648-2.017l1.306-0.668c0.73-0.382,1.639-0.088,2.016,0.649c0.377,0.736,0.088,1.639-0.649,2.016
		l-1.304,0.669C1154.979,558.266,1154.743,558.317,1154.515,558.317"/>
	<path clip-path="url(#SVGID_2_)" fill="#4D98D7" d="M968.736,654.403c-0.828,0-1.498-0.671-1.498-1.498v-0.75
		c0-0.562,0.312-1.075,0.812-1.332l0.666-0.343c0.737-0.379,1.639-0.088,2.018,0.649c0.353,0.687,0.123,1.521-0.509,1.935
		C970.146,653.816,969.51,654.403,968.736,654.403"/>
	<path clip-path="url(#SVGID_2_)" fill="#4D98D7" d="M968.736,692.547c-0.828,0-1.498-0.67-1.498-1.498v-1.468
		c0-0.828,0.67-1.498,1.498-1.498s1.498,0.67,1.498,1.498v1.468C970.234,691.876,969.564,692.547,968.736,692.547 M968.736,673.476
		c-0.828,0-1.498-0.671-1.498-1.499v-1.467c0-0.829,0.67-1.499,1.498-1.499s1.498,0.67,1.498,1.499v1.467
		C970.234,672.805,969.564,673.476,968.736,673.476"/>
	<path clip-path="url(#SVGID_2_)" fill="#4D98D7" d="M968.736,710.9c-0.828,0-1.498-0.67-1.498-1.498v-0.749
		c0-0.828,0.67-1.498,1.498-1.498s1.498,0.67,1.498,1.498v0.749C970.234,710.23,969.564,710.9,968.736,710.9"/>
	<path clip-path="url(#SVGID_2_)" fill="#4D98D7" d="M186.655,207.205c-0.547,0-1.076-0.3-1.339-0.823
		c-0.373-0.739-0.077-1.64,0.662-2.013l0.669-0.338c0.736-0.378,1.639-0.079,2.013,0.661c0.372,0.739,0.077,1.64-0.662,2.014
		l-0.669,0.338C187.113,207.153,186.882,207.205,186.655,207.205"/>
	<path clip-path="url(#SVGID_2_)" fill="#4D98D7" d="M-109.699,357.033c-0.547,0-1.074-0.3-1.339-0.822
		c-0.373-0.738-0.077-1.639,0.662-2.013l1.341-0.679c0.739-0.375,1.639-0.078,2.013,0.661c0.373,0.737,0.078,1.639-0.661,2.013
		l-1.342,0.679C-109.241,356.982-109.472,357.033-109.699,357.033 M-92.266,348.219c-0.547,0-1.075-0.3-1.339-0.822
		c-0.373-0.739-0.077-1.64,0.662-2.013l1.34-0.678c0.737-0.376,1.64-0.077,2.013,0.662c0.374,0.738,0.078,1.64-0.661,2.013
		l-1.34,0.677C-91.808,348.168-92.039,348.219-92.266,348.219 M-74.833,339.405c-0.547,0-1.075-0.3-1.338-0.822
		c-0.374-0.739-0.078-1.64,0.661-2.013l1.34-0.677c0.739-0.375,1.641-0.08,2.014,0.661c0.373,0.739,0.077,1.64-0.662,2.013
		l-1.34,0.678C-74.375,339.354-74.606,339.405-74.833,339.405 M-57.401,330.593c-0.547,0-1.074-0.3-1.339-0.823
		c-0.373-0.737-0.077-1.638,0.662-2.013l1.342-0.679c0.737-0.374,1.637-0.077,2.013,0.662c0.373,0.737,0.077,1.639-0.662,2.013
		l-1.341,0.679C-56.943,330.542-57.174,330.593-57.401,330.593 M-39.968,321.779c-0.547,0-1.075-0.3-1.339-0.822
		c-0.372-0.739-0.077-1.641,0.662-2.013l1.34-0.678c0.739-0.376,1.64-0.079,2.013,0.661c0.373,0.739,0.078,1.64-0.661,2.014
		l-1.34,0.677C-39.509,321.727-39.741,321.779-39.968,321.779 M-22.536,312.965c-0.547,0-1.075-0.301-1.339-0.822
		c-0.373-0.739-0.076-1.64,0.662-2.014l1.341-0.677c0.738-0.376,1.64-0.077,2.013,0.661c0.373,0.739,0.077,1.641-0.661,2.013
		l-1.341,0.678C-22.078,312.914-22.309,312.965-22.536,312.965 M-5.103,304.152c-0.547,0-1.074-0.299-1.337-0.82
		c-0.375-0.739-0.079-1.64,0.659-2.013l1.339-0.679c0.742-0.382,1.641-0.08,2.014,0.658c0.375,0.739,0.079,1.64-0.659,2.013
		l-1.34,0.68C-4.645,304.101-4.876,304.152-5.103,304.152 M12.329,295.339c-0.547,0-1.076-0.302-1.339-0.822
		c-0.373-0.739-0.076-1.641,0.661-2.014l1.342-0.677c0.738-0.376,1.641-0.076,2.014,0.661c0.373,0.739,0.075,1.64-0.661,2.013
		l-1.343,0.678C12.787,295.288,12.556,295.339,12.329,295.339 M29.763,286.527c-0.548,0-1.075-0.301-1.338-0.821
		c-0.375-0.74-0.079-1.641,0.658-2.014l1.341-0.679c0.741-0.382,1.64-0.08,2.013,0.659c0.374,0.739,0.079,1.64-0.659,2.013
		l-1.34,0.679C30.22,286.475,29.989,286.527,29.763,286.527 M47.194,277.712c-0.547,0-1.076-0.301-1.339-0.822
		c-0.373-0.739-0.076-1.64,0.661-2.013l1.342-0.677c0.738-0.378,1.64-0.077,2.013,0.661c0.373,0.739,0.077,1.64-0.661,2.013
		l-1.342,0.677C47.652,277.662,47.421,277.712,47.194,277.712 M64.627,268.898c-0.547,0-1.075-0.3-1.339-0.821
		c-0.373-0.74-0.076-1.641,0.662-2.014l1.341-0.677c0.736-0.378,1.64-0.077,2.014,0.661c0.373,0.739,0.076,1.64-0.662,2.013
		l-1.341,0.678C65.085,268.847,64.854,268.898,64.627,268.898 M82.06,260.086c-0.547,0-1.074-0.299-1.337-0.82
		c-0.375-0.74-0.079-1.641,0.659-2.014l1.34-0.679c0.743-0.383,1.64-0.08,2.013,0.658c0.375,0.74,0.079,1.641-0.659,2.014
		l-1.34,0.679C82.518,260.035,82.287,260.086,82.06,260.086 M99.492,251.272c-0.547,0-1.076-0.301-1.339-0.822
		c-0.373-0.739-0.076-1.64,0.661-2.013l1.343-0.678c0.738-0.377,1.64-0.076,2.013,0.661c0.373,0.74,0.075,1.64-0.661,2.014
		l-1.343,0.677C99.95,251.221,99.719,251.272,99.492,251.272 M116.926,242.458c-0.548,0-1.076-0.3-1.339-0.822
		c-0.374-0.739-0.078-1.64,0.661-2.014l1.34-0.677c0.738-0.377,1.64-0.079,2.013,0.661c0.373,0.74,0.078,1.641-0.661,2.014
		l-1.34,0.677C117.383,242.407,117.152,242.458,116.926,242.458 M134.357,233.645c-0.547,0-1.074-0.299-1.339-0.821
		c-0.373-0.738-0.077-1.639,0.662-2.014l1.341-0.679c0.739-0.377,1.638-0.078,2.013,0.662c0.374,0.737,0.078,1.639-0.661,2.013
		l-1.341,0.679C134.815,233.595,134.584,233.645,134.357,233.645 M151.79,224.832c-0.547,0-1.075-0.3-1.339-0.822
		c-0.373-0.74-0.077-1.64,0.662-2.014l1.34-0.677c0.737-0.378,1.639-0.077,2.014,0.661c0.372,0.739,0.077,1.641-0.662,2.014
		l-1.34,0.677C152.248,224.781,152.017,224.832,151.79,224.832 M169.222,216.018c-0.547,0-1.075-0.302-1.339-0.822
		c-0.373-0.739-0.076-1.64,0.662-2.013l1.341-0.678c0.739-0.377,1.641-0.076,2.014,0.661c0.373,0.74,0.076,1.641-0.662,2.014
		l-1.342,0.677C169.68,215.967,169.449,216.018,169.222,216.018"/>
	<path clip-path="url(#SVGID_2_)" fill="#4D98D7" d="M618.384,1478.992c-0.546,0-1.07-0.298-1.336-0.817
		c-0.376-0.736-0.083-1.639,0.654-2.015l309.056-157.726c0.739-0.38,1.639-0.085,2.015,0.653c0.376,0.736,0.084,1.64-0.654,2.016
		l-309.055,157.725C618.845,1478.939,618.612,1478.992,618.384,1478.992"/>
	<path clip-path="url(#SVGID_2_)" fill="#4D98D7" d="M1024.598,1348.785c-0.242,0-0.487-0.059-0.714-0.182l-0.64-0.344
		c-0.053-0.026-0.101-0.054-0.147-0.086l-0.416-0.208c-0.021-0.009-0.036-0.018-0.054-0.027l-0.326-0.162
		c-0.082-0.022-0.161-0.052-0.236-0.088l-0.65-0.307c-0.752-0.347-1.08-1.236-0.733-1.988c0.346-0.75,1.231-1.081,1.988-0.732
		l0.461,0.218c0.098,0.023,0.191,0.059,0.28,0.103l1.209,0.604c0.073,0.037,0.143,0.078,0.207,0.125l0.488,0.262
		c0.728,0.394,0.996,1.304,0.602,2.031C1025.644,1348.503,1025.129,1348.785,1024.598,1348.785"/>
	<path clip-path="url(#SVGID_2_)" fill="#4D98D7" d="M959.02,1410.2c-0.771,0-1.426-0.591-1.49-1.372
		c-0.07-0.825,0.542-1.55,1.366-1.618c0.481-0.041,0.962-0.087,1.44-0.133c0.807-0.072,1.559,0.521,1.64,1.343
		c0.082,0.823-0.52,1.557-1.343,1.639c-0.495,0.05-0.99,0.095-1.485,0.136C959.104,1410.198,959.062,1410.2,959.02,1410.2
		 M941.451,1409.797c-0.064,0-0.129-0.005-0.195-0.013c-0.496-0.063-0.99-0.136-1.483-0.21c-0.817-0.124-1.38-0.888-1.256-1.706
		c0.125-0.818,0.878-1.384,1.707-1.256c0.469,0.072,0.943,0.138,1.419,0.199c0.818,0.106,1.398,0.858,1.293,1.68
		C942.837,1409.246,942.192,1409.797,941.451,1409.797 M977.601,1406.162c-0.602,0-1.169-0.364-1.399-0.96
		c-0.297-0.772,0.088-1.639,0.86-1.938c0.446-0.171,0.887-0.348,1.321-0.531c0.763-0.315,1.641,0.042,1.961,0.806
		c0.318,0.764-0.041,1.64-0.805,1.96c-0.461,0.191-0.928,0.381-1.4,0.564C977.961,1406.13,977.78,1406.162,977.601,1406.162
		 M923.161,1404.659c-0.219,0-0.441-0.048-0.652-0.15l-0.624-0.306c-0.254-0.128-0.497-0.252-0.735-0.379
		c-0.73-0.39-1.008-1.297-0.619-2.026s1.295-1.012,2.027-0.619c0.218,0.115,0.44,0.231,0.665,0.344l0.595,0.291
		c0.744,0.361,1.055,1.258,0.693,2.002C924.252,1404.349,923.718,1404.659,923.161,1404.659 M994.754,1397.832
		c-0.549,0-1.077-0.303-1.34-0.827c-0.37-0.741-0.07-1.641,0.67-2.011l1.311-0.655c0.74-0.366,1.641-0.07,2.011,0.67
		s0.07,1.64-0.67,2.01l-1.312,0.656C995.209,1397.781,994.981,1397.832,994.754,1397.832 M910.791,1390.975
		c-0.672,0-1.283-0.455-1.454-1.137c-0.128-0.521-0.233-1.045-0.315-1.57c-0.127-0.817,0.434-1.583,1.251-1.71
		c0.828-0.127,1.585,0.433,1.711,1.251c0.067,0.438,0.155,0.874,0.263,1.307c0.199,0.803-0.289,1.615-1.093,1.815
		C911.032,1390.96,910.911,1390.975,910.791,1390.975 M1011.814,1389.303c-0.551,0-1.078-0.304-1.342-0.828
		c-0.37-0.739-0.07-1.641,0.67-2.011l1.312-0.657c0.74-0.37,1.64-0.071,2.01,0.67c0.37,0.739,0.07,1.641-0.671,2.011l-1.312,0.657
		C1012.268,1389.251,1012.039,1389.303,1011.814,1389.303 M1028.526,1380.189c-0.431,0-0.857-0.184-1.153-0.539
		c-0.529-0.637-0.443-1.582,0.193-2.11c0.355-0.297,0.699-0.601,1.025-0.91c0.601-0.569,1.55-0.544,2.118,0.059
		c0.569,0.602,0.542,1.55-0.058,2.119c-0.373,0.353-0.763,0.697-1.169,1.036C1029.202,1380.076,1028.862,1380.189,1028.526,1380.189
		 M915.556,1373.575c-0.409,0-0.819-0.168-1.114-0.498c-0.553-0.615-0.502-1.563,0.114-2.115c0.377-0.338,0.772-0.673,1.185-1.002
		c0.648-0.518,1.591-0.411,2.106,0.235c0.516,0.648,0.409,1.591-0.236,2.105c-0.368,0.294-0.72,0.591-1.054,0.892
		C916.271,1373.449,915.913,1373.575,915.556,1373.575 M932.086,1364.181c-0.548,0-1.077-0.303-1.34-0.827
		c-0.371-0.74-0.071-1.64,0.668-2.01l1.311-0.657c0.737-0.372,1.642-0.07,2.011,0.667c0.371,0.74,0.071,1.641-0.668,2.011
		l-1.312,0.657C932.542,1364.13,932.312,1364.181,932.086,1364.181 M1035.578,1363.337c-0.021,0-0.042,0-0.062-0.001
		c-0.827-0.033-1.471-0.732-1.436-1.559c0.004-0.121,0.007-0.242,0.007-0.365c0-0.299-0.015-0.597-0.043-0.894
		c-0.082-0.824,0.521-1.556,1.346-1.636c0.823-0.061,1.557,0.523,1.636,1.346c0.038,0.394,0.059,0.789,0.059,1.184
		c0,0.164-0.003,0.326-0.011,0.488C1037.04,1362.707,1036.377,1363.337,1035.578,1363.337 M949.146,1355.648
		c-0.55,0-1.08-0.303-1.342-0.828c-0.37-0.74-0.069-1.64,0.67-2.01l1.312-0.656c0.74-0.37,1.64-0.068,2.009,0.671
		c0.371,0.74,0.07,1.64-0.669,2.01l-1.312,0.655C949.599,1355.598,949.371,1355.648,949.146,1355.648 M966.23,1347.17
		c-0.578,0-1.13-0.336-1.375-0.898c-0.331-0.759,0.016-1.644,0.775-1.974c0.457-0.199,0.921-0.394,1.391-0.584
		c0.761-0.304,1.639,0.062,1.949,0.83c0.311,0.767-0.06,1.64-0.828,1.949c-0.443,0.18-0.881,0.362-1.315,0.553
		C966.633,1347.131,966.43,1347.17,966.23,1347.17 M1005.141,1342.794c-0.07,0-0.141-0.004-0.212-0.015
		c-0.473-0.067-0.946-0.131-1.423-0.188c-0.821-0.1-1.407-0.846-1.309-1.666c0.099-0.822,0.847-1.404,1.666-1.31
		c0.499,0.06,0.994,0.126,1.486,0.195c0.819,0.117,1.391,0.877,1.273,1.695C1006.516,1342.254,1005.875,1342.794,1005.141,1342.794
		 M984.648,1342.5c-0.756,0-1.404-0.569-1.488-1.336c-0.089-0.824,0.505-1.562,1.327-1.652c0.493-0.054,0.988-0.104,1.483-0.15
		c0.869-0.097,1.554,0.531,1.632,1.354c0.075,0.823-0.53,1.554-1.354,1.631c-0.481,0.044-0.962,0.094-1.438,0.146
		C984.756,1342.497,984.702,1342.5,984.648,1342.5"/>
	<path clip-path="url(#SVGID_2_)" fill="#4D98D7" d="M910.76,1329.779c-0.545,0-1.07-0.299-1.336-0.818
		c-0.376-0.735-0.083-1.638,0.654-2.014l270.226-137.911c0.739-0.379,1.638-0.083,2.015,0.654c0.377,0.736,0.084,1.639-0.653,2.015
		l-270.227,137.91C911.221,1329.727,910.988,1329.779,910.76,1329.779"/>
	<path clip-path="url(#SVGID_2_)" fill="#4D98D7" d="M144.682,1491.833c-0.545,0-1.071-0.299-1.336-0.818
		c-0.376-0.736-0.083-1.639,0.654-2.015l525.834-268.357c0.737-0.379,1.638-0.083,2.014,0.654c0.376,0.736,0.084,1.639-0.653,2.016
		L145.36,1491.669C145.143,1491.779,144.91,1491.833,144.682,1491.833"/>
	<path clip-path="url(#SVGID_2_)" fill="#4D98D7" d="M144.682,1467.432c-0.545,0-1.071-0.298-1.336-0.817
		c-0.376-0.736-0.083-1.639,0.654-2.015l525.834-268.357c0.737-0.379,1.638-0.083,2.014,0.654c0.376,0.735,0.084,1.639-0.653,2.014
		L145.36,1467.269C145.143,1467.38,144.91,1467.432,144.682,1467.432"/>
	<path clip-path="url(#SVGID_2_)" fill="#4D98D7" d="M670.514,1223.476c-0.828,0-1.498-0.67-1.498-1.498v-24.401
		c0-0.828,0.67-1.498,1.498-1.498s1.499,0.67,1.499,1.498v24.401C672.013,1222.806,671.342,1223.476,670.514,1223.476"/>
	<path clip-path="url(#SVGID_2_)" fill="#4D98D7" d="M1127.723,1056.124c0.545,0,1.071-0.299,1.336-0.818
		c0.376-0.735,0.083-1.639-0.654-2.015L924.217,948.89c-0.737-0.377-1.639-0.083-2.016,0.654c-0.375,0.735-0.082,1.639,0.655,2.015
		l204.188,104.401C1127.262,1056.071,1127.494,1056.124,1127.723,1056.124"/>
	<path clip-path="url(#SVGID_2_)" fill="#4D98D7" d="M1125.544,1030.415c0.546,0,1.071-0.298,1.336-0.817
		c0.376-0.736,0.083-1.639-0.654-2.015L924.217,924.487c-0.737-0.377-1.639-0.083-2.015,0.654c-0.376,0.736-0.083,1.639,0.655,2.015
		l202.008,103.096C1125.083,1030.362,1125.314,1030.415,1125.544,1030.415"/>
	<path clip-path="url(#SVGID_2_)" fill="#4D98D7" d="M923.536,951.723c0.829,0,1.499-0.67,1.499-1.499v-24.401
		c0-0.828-0.67-1.498-1.499-1.498c-0.827,0-1.498,0.67-1.498,1.498v24.401C922.038,951.053,922.709,951.723,923.536,951.723"/>
	<path clip-path="url(#SVGID_2_)" fill="#4D98D7" d="M277.445,1395.746c-0.828,0-1.499-0.67-1.499-1.498v-0.749
		c0-0.828,0.671-1.498,1.499-1.498s1.499,0.67,1.499,1.498v0.749C278.944,1395.076,278.273,1395.746,277.445,1395.746"/>
	<path clip-path="url(#SVGID_2_)" fill="#4D98D7" d="M277.445,1376.508c-0.828,0-1.499-0.672-1.499-1.498v-1.541
		c0-0.828,0.671-1.498,1.499-1.498s1.499,0.67,1.499,1.498v1.541C278.944,1375.836,278.273,1376.508,277.445,1376.508
		 M277.445,1356.478c-0.828,0-1.499-0.67-1.499-1.498v-1.541c0-0.828,0.671-1.498,1.499-1.498s1.499,0.67,1.499,1.498v1.541
		C278.944,1355.808,278.273,1356.478,277.445,1356.478 M277.445,1336.447c-0.828,0-1.499-0.67-1.499-1.498v-1.541
		c0-0.828,0.671-1.498,1.499-1.498s1.499,0.67,1.499,1.498v1.541C278.944,1335.777,278.273,1336.447,277.445,1336.447
		 M277.445,1316.418c-0.828,0-1.499-0.67-1.499-1.498v-1.542c0-0.826,0.671-1.497,1.499-1.497s1.499,0.671,1.499,1.497v1.542
		C278.944,1315.748,278.273,1316.418,277.445,1316.418 M277.445,1296.389c-0.828,0-1.499-0.671-1.499-1.499v-1.54
		c0-0.829,0.671-1.499,1.499-1.499s1.499,0.67,1.499,1.499v1.54C278.944,1295.718,278.273,1296.389,277.445,1296.389
		 M277.445,1276.357c-0.828,0-1.499-0.67-1.499-1.498v-1.541c0-0.827,0.671-1.498,1.499-1.498s1.499,0.671,1.499,1.498v1.541
		C278.944,1275.688,278.273,1276.357,277.445,1276.357"/>
	<path clip-path="url(#SVGID_2_)" fill="#4D98D7" d="M277.445,1256.328c-0.828,0-1.499-0.671-1.499-1.499v-0.749
		c0-0.828,0.671-1.498,1.499-1.498s1.499,0.67,1.499,1.498v0.749C278.944,1255.657,278.273,1256.328,277.445,1256.328"/>
	<path clip-path="url(#SVGID_2_)" fill="#4D98D7" d="M715.6,105.304c-0.547,0-1.075-0.299-1.339-0.822
		c-0.373-0.739-0.077-1.64,0.661-2.014l1.309-0.661c0.737-0.376,1.639-0.079,2.013,0.661c0.374,0.739,0.078,1.641-0.661,2.014
		l-1.308,0.661C716.058,105.253,715.826,105.304,715.6,105.304 M732.603,96.708c-0.547,0-1.074-0.3-1.339-0.822
		c-0.373-0.737-0.077-1.639,0.662-2.013l1.306-0.661c0.739-0.38,1.638-0.078,2.013,0.661c0.374,0.737,0.079,1.638-0.66,2.013
		l-1.307,0.662C733.061,96.657,732.828,96.708,732.603,96.708 M749.604,88.113c-0.547,0-1.075-0.301-1.339-0.823
		c-0.373-0.739-0.077-1.64,0.661-2.013l1.309-0.662c0.738-0.376,1.64-0.079,2.013,0.662c0.373,0.739,0.078,1.64-0.661,2.013
		l-1.308,0.661C750.062,88.061,749.831,88.113,749.604,88.113 M766.607,79.516c-0.547,0-1.075-0.299-1.339-0.822
		c-0.373-0.739-0.077-1.64,0.661-2.013l1.309-0.662c0.738-0.374,1.64-0.078,2.013,0.662c0.373,0.739,0.077,1.64-0.661,2.013
		l-1.309,0.661C767.065,79.466,766.834,79.516,766.607,79.516 M783.61,70.921c-0.547,0-1.075-0.3-1.339-0.823
		c-0.373-0.738-0.077-1.64,0.661-2.013l1.309-0.661c0.738-0.378,1.64-0.079,2.013,0.661c0.373,0.739,0.078,1.64-0.661,2.013
		l-1.308,0.661C784.068,70.869,783.837,70.921,783.61,70.921 M800.613,62.324c-0.547,0-1.076-0.299-1.339-0.821
		c-0.373-0.74-0.077-1.641,0.662-2.014l1.308-0.661c0.737-0.375,1.641-0.078,2.013,0.661c0.374,0.739,0.078,1.64-0.661,2.014
		l-1.309,0.661C801.071,62.273,800.84,62.324,800.613,62.324 M817.617,53.727c-0.548,0-1.076-0.3-1.34-0.822
		c-0.373-0.739-0.077-1.64,0.662-2.013l1.307-0.661c0.738-0.378,1.641-0.079,2.015,0.661c0.373,0.739,0.077,1.64-0.662,2.013
		l-1.308,0.662C818.074,53.676,817.844,53.727,817.617,53.727 M834.618,45.132c-0.547,0-1.075-0.301-1.339-0.823
		c-0.373-0.739-0.077-1.64,0.661-2.013l1.309-0.662c0.737-0.374,1.64-0.077,2.013,0.662c0.373,0.739,0.078,1.64-0.661,2.013
		l-1.309,0.661C835.076,45.08,834.845,45.132,834.618,45.132 M851.621,36.535c-0.547,0-1.075-0.299-1.339-0.822
		c-0.373-0.739-0.077-1.64,0.661-2.013l1.309-0.662c0.737-0.377,1.639-0.077,2.013,0.662c0.374,0.739,0.078,1.64-0.661,2.013
		l-1.308,0.661C852.078,36.485,851.848,36.535,851.621,36.535 M868.624,27.94c-0.547,0-1.075-0.3-1.339-0.823
		c-0.373-0.738-0.077-1.64,0.662-2.013l1.308-0.661c0.735-0.376,1.639-0.079,2.013,0.661c0.374,0.739,0.078,1.64-0.661,2.013
		l-1.308,0.662C869.082,27.888,868.851,27.94,868.624,27.94 M885.627,19.343c-0.547,0-1.075-0.299-1.338-0.821
		c-0.374-0.74-0.078-1.641,0.661-2.014l1.308-0.661c0.736-0.38,1.639-0.078,2.014,0.661c0.372,0.739,0.077,1.64-0.662,2.014
		l-1.308,0.661C886.085,19.292,885.854,19.343,885.627,19.343 M902.63,10.748c-0.547,0-1.075-0.3-1.338-0.822
		c-0.374-0.739-0.078-1.641,0.66-2.014l1.309-0.661c0.735-0.376,1.641-0.079,2.014,0.661c0.373,0.739,0.077,1.64-0.661,2.014
		l-1.309,0.661C903.088,10.697,902.857,10.748,902.63,10.748 M919.633,2.151c-0.547,0-1.075-0.301-1.339-0.823
		c-0.372-0.739-0.077-1.64,0.661-2.013l1.309-0.661c0.736-0.378,1.641-0.078,2.014,0.661c0.373,0.739,0.077,1.64-0.661,2.013
		l-1.309,0.661C920.092,2.099,919.86,2.151,919.633,2.151 M936.635-6.446c-0.547,0-1.075-0.299-1.339-0.822
		c-0.373-0.739-0.077-1.64,0.661-2.013l1.309-0.662c0.737-0.376,1.641-0.078,2.013,0.662c0.374,0.739,0.078,1.64-0.661,2.013
		l-1.308,0.661C937.093-6.496,936.861-6.446,936.635-6.446 M953.638-15.041c-0.547,0-1.075-0.3-1.339-0.823
		c-0.373-0.738-0.077-1.64,0.662-2.013l1.308-0.661c0.737-0.375,1.64-0.078,2.014,0.661c0.372,0.739,0.077,1.64-0.663,2.013
		l-1.307,0.662C954.096-15.093,953.865-15.041,953.638-15.041 M970.641-23.637c-0.547,0-1.075-0.3-1.338-0.822
		c-0.374-0.74-0.078-1.641,0.661-2.014l1.308-0.661c0.737-0.378,1.641-0.079,2.014,0.661c0.373,0.739,0.077,1.64-0.661,2.014
		l-1.309,0.661C971.099-23.689,970.868-23.637,970.641-23.637"/>
	<path clip-path="url(#SVGID_2_)" fill="#4D98D7" d="M699.236,113.576c-0.547,0-1.076-0.299-1.339-0.822
		c-0.373-0.739-0.077-1.64,0.661-2.013l0.669-0.338c0.737-0.378,1.64-0.078,2.013,0.661c0.373,0.739,0.078,1.64-0.661,2.013
		l-0.669,0.338C699.694,113.525,699.463,113.576,699.236,113.576"/>

		<rect x="952.829" y="-184.158" transform="matrix(0.4511 0.8925 -0.8925 0.4511 547.7911 -836.9525)" clip-path="url(#SVGID_2_)" fill="#4D98D7" width="2.996" height="422.057"/>
	<path clip-path="url(#SVGID_2_)" fill="#4D98D7" d="M52.844,1117.703c-0.16,0-0.323-0.038-0.475-0.119l-0.443-0.238
		c-0.334-0.179-0.538-0.529-0.53-0.907c0.009-0.38,0.229-0.721,0.57-0.886l0.453-0.218c0.501-0.238,1.101-0.03,1.342,0.471
		c0.106,0.222,0.125,0.464,0.068,0.685c0.047,0.224,0.019,0.466-0.098,0.683C53.55,1117.511,53.202,1117.703,52.844,1117.703"/>
	<path clip-path="url(#SVGID_2_)" fill="#4D98D7" d="M64.973,1111.415c-0.374,0-0.734-0.209-0.908-0.569
		c-0.24-0.5-0.03-1.102,0.471-1.344l1.01-0.486c0.501-0.237,1.101-0.03,1.343,0.471c0.24,0.5,0.03,1.102-0.471,1.344l-1.01,0.486
		C65.268,1111.384,65.12,1111.415,64.973,1111.415 M78.099,1105.097c-0.374,0-0.734-0.21-0.908-0.57
		c-0.24-0.5-0.03-1.103,0.471-1.343l1.01-0.486c0.5-0.241,1.101-0.031,1.343,0.471c0.24,0.5,0.03,1.101-0.471,1.343l-1.01,0.486
		C78.394,1105.064,78.246,1105.097,78.099,1105.097 M91.226,1098.777c-0.375,0-0.734-0.209-0.907-0.568
		c-0.241-0.502-0.031-1.103,0.469-1.344l1.009-0.486c0.504-0.244,1.103-0.031,1.343,0.469c0.241,0.501,0.031,1.103-0.469,1.343
		l-1.009,0.486C91.521,1098.746,91.372,1098.777,91.226,1098.777"/>
	<path clip-path="url(#SVGID_2_)" fill="#4D98D7" d="M105.252,1092.467c-0.151,0-0.306-0.034-0.451-0.106l-0.007-0.004l-0.007,0.004
		c-0.5,0.241-1.101,0.031-1.344-0.471c-0.24-0.5-0.03-1.102,0.471-1.343l0.453-0.219c0.28-0.133,0.608-0.133,0.888,0.008l0.45,0.227
		c0.496,0.249,0.696,0.854,0.447,1.351C105.976,1092.264,105.622,1092.467,105.252,1092.467"/>
	<path clip-path="url(#SVGID_2_)" fill="#4D98D7" d="M164.764,1122.379c-0.151,0-0.305-0.033-0.451-0.107l-0.916-0.46
		c-0.495-0.249-0.696-0.854-0.446-1.351c0.249-0.494,0.851-0.696,1.35-0.446l0.916,0.459c0.496,0.25,0.697,0.854,0.447,1.352
		C165.487,1122.176,165.133,1122.379,164.764,1122.379 M152.861,1116.397c-0.152,0-0.307-0.035-0.451-0.107l-0.915-0.461
		c-0.496-0.25-0.697-0.854-0.447-1.351c0.249-0.497,0.856-0.698,1.351-0.447l0.915,0.461c0.496,0.251,0.697,0.854,0.447,1.351
		C153.584,1116.194,153.23,1116.397,152.861,1116.397 M140.959,1110.414c-0.151,0-0.305-0.034-0.451-0.107l-0.916-0.459
		c-0.496-0.25-0.696-0.854-0.446-1.352c0.249-0.495,0.851-0.698,1.35-0.447l0.916,0.46c0.496,0.25,0.697,0.854,0.447,1.352
		C141.682,1110.211,141.328,1110.414,140.959,1110.414 M129.056,1104.433c-0.152,0-0.306-0.035-0.451-0.107l-0.915-0.461
		c-0.496-0.251-0.697-0.854-0.448-1.351c0.249-0.498,0.856-0.698,1.351-0.447l0.916,0.461c0.496,0.25,0.697,0.854,0.447,1.351
		C129.779,1104.229,129.425,1104.433,129.056,1104.433 M117.154,1098.449c-0.151,0-0.305-0.034-0.451-0.107l-0.915-0.46
		c-0.496-0.249-0.697-0.854-0.447-1.351c0.25-0.495,0.852-0.696,1.351-0.446l0.915,0.459c0.496,0.25,0.696,0.854,0.447,1.352
		C117.877,1098.246,117.523,1098.449,117.154,1098.449"/>
	<path clip-path="url(#SVGID_2_)" fill="#4D98D7" d="M175.759,1128.364c-0.359,0-0.707-0.192-0.888-0.531
		c-0.118-0.221-0.146-0.467-0.094-0.693c-0.058-0.226-0.037-0.472,0.076-0.696c0.25-0.495,0.852-0.695,1.351-0.447l0.45,0.226
		c0.335,0.169,0.549,0.511,0.554,0.887c0.005,0.375-0.2,0.722-0.532,0.899l-0.443,0.238
		C176.081,1128.326,175.919,1128.364,175.759,1128.364"/>
	<path clip-path="url(#SVGID_2_)" fill="#4D98D7" d="M134.258,1150.593c-0.359,0-0.706-0.191-0.888-0.53
		c-0.262-0.49-0.077-1.101,0.412-1.363l0.797-0.427c0.492-0.264,1.101-0.078,1.363,0.411c0.262,0.49,0.078,1.101-0.412,1.363
		l-0.797,0.428C134.581,1150.555,134.418,1150.593,134.258,1150.593 M144.634,1145.035c-0.359,0-0.707-0.192-0.889-0.53
		c-0.262-0.49-0.077-1.101,0.412-1.362l0.798-0.428c0.489-0.26,1.099-0.076,1.363,0.412c0.261,0.49,0.077,1.1-0.413,1.362
		l-0.797,0.428C144.958,1144.997,144.794,1145.035,144.634,1145.035 M155.009,1139.479c-0.359,0-0.707-0.192-0.888-0.53
		c-0.263-0.49-0.078-1.1,0.411-1.362l0.798-0.428c0.49-0.26,1.1-0.077,1.363,0.412c0.262,0.49,0.077,1.1-0.412,1.362l-0.798,0.428
		C155.333,1139.441,155.169,1139.479,155.009,1139.479 M165.384,1133.922c-0.359,0-0.707-0.193-0.888-0.531
		c-0.262-0.489-0.077-1.1,0.411-1.362l0.798-0.428c0.491-0.26,1.099-0.077,1.363,0.412c0.262,0.49,0.078,1.101-0.412,1.362
		l-0.797,0.428C165.708,1133.883,165.544,1133.922,165.384,1133.922"/>
	<path clip-path="url(#SVGID_2_)" fill="#4D98D7" d="M124.236,1155.96c-0.163,0-0.327-0.04-0.476-0.12l-0.442-0.237
		c-0.49-0.263-0.674-0.871-0.411-1.362c0.255-0.478,0.847-0.667,1.329-0.426c0.485-0.238,1.074-0.053,1.331,0.427
		c0.263,0.49,0.078,1.1-0.413,1.362l-0.443,0.237C124.562,1155.921,124.399,1155.96,124.236,1155.96"/>
	<path clip-path="url(#SVGID_2_)" fill="#4D98D7" d="M112.734,1149.797c-0.16,0-0.323-0.038-0.474-0.119l-0.921-0.494
		c-0.49-0.263-0.675-0.874-0.411-1.362c0.261-0.488,0.871-0.677,1.361-0.41l0.922,0.494c0.489,0.262,0.674,0.872,0.41,1.361
		C113.441,1149.604,113.093,1149.797,112.734,1149.797 M100.756,1143.378c-0.16,0-0.322-0.038-0.474-0.118l-0.921-0.494
		c-0.49-0.262-0.675-0.872-0.413-1.361c0.262-0.489,0.871-0.674,1.362-0.412l0.921,0.492c0.49,0.263,0.675,0.873,0.413,1.362
		C101.462,1143.185,101.115,1143.378,100.756,1143.378 M88.779,1136.96c-0.161,0-0.324-0.038-0.475-0.12l-0.922-0.494
		c-0.489-0.262-0.674-0.872-0.411-1.361c0.262-0.489,0.872-0.676,1.362-0.411l0.922,0.494c0.489,0.263,0.673,0.873,0.41,1.362
		C89.485,1136.768,89.137,1136.96,88.779,1136.96 M76.8,1130.541c-0.161,0-0.323-0.038-0.474-0.119l-0.921-0.493
		c-0.491-0.263-0.675-0.872-0.413-1.361c0.262-0.49,0.872-0.674,1.362-0.413l0.921,0.493c0.49,0.263,0.675,0.872,0.413,1.362
		C77.506,1130.349,77.159,1130.541,76.8,1130.541 M64.822,1124.123c-0.16,0-0.323-0.038-0.475-0.12l-0.921-0.494
		c-0.489-0.263-0.674-0.872-0.411-1.361c0.262-0.488,0.871-0.676,1.362-0.411l0.922,0.494c0.489,0.263,0.673,0.871,0.41,1.362
		C65.528,1123.931,65.18,1124.123,64.822,1124.123"/>
	<path clip-path="url(#SVGID_2_)" fill="#4D98D7" d="M-40.338,1418.751c-0.544,0-1.068-0.297-1.334-0.812
		c-0.378-0.736-0.088-1.641,0.647-2.019l317.785-163.173c0.738-0.382,1.637-0.087,2.018,0.649c0.377,0.735,0.088,1.639-0.648,2.017
		l-317.785,163.173C-39.875,1418.698-40.108,1418.751-40.338,1418.751"/>
	<path clip-path="url(#SVGID_2_)" fill="#4D98D7" d="M1279.015,1054.55l-1.315-0.657c-0.739-0.37-1.039-1.27-0.67-2.01
		c0.368-0.74,1.271-1.038,2.011-0.671l1.314,0.657c0.739,0.37,1.041,1.271,0.671,2.011c-0.263,0.524-0.792,0.827-1.342,0.827
		C1279.458,1054.707,1279.229,1054.656,1279.015,1054.55 M1261.919,1046.001l-1.314-0.659c-0.74-0.37-1.041-1.271-0.671-2.01
		c0.372-0.74,1.271-1.037,2.011-0.67l1.315,0.658c0.74,0.37,1.04,1.271,0.67,2.01c-0.264,0.525-0.791,0.828-1.342,0.828
		C1262.362,1046.158,1262.135,1046.107,1261.919,1046.001 M1244.823,1037.45l-1.314-0.657c-0.74-0.37-1.04-1.27-0.67-2.01
		c0.371-0.74,1.271-1.039,2.01-0.671l1.313,0.657c0.741,0.37,1.041,1.271,0.671,2.011c-0.264,0.524-0.792,0.827-1.342,0.827
		C1245.267,1037.607,1245.037,1037.557,1244.823,1037.45 M1227.728,1028.901l-1.315-0.659c-0.74-0.37-1.041-1.271-0.67-2.01
		c0.372-0.74,1.27-1.039,2.01-0.671l1.315,0.659c0.74,0.37,1.041,1.271,0.671,2.01c-0.264,0.525-0.792,0.828-1.342,0.828
		C1228.171,1029.059,1227.942,1029.008,1227.728,1028.901 M1210.632,1020.352l-1.314-0.658c-0.739-0.37-1.041-1.27-0.671-2.01
		c0.37-0.742,1.271-1.039,2.011-0.671l1.315,0.657c0.738,0.37,1.04,1.271,0.67,2.011c-0.262,0.524-0.791,0.827-1.342,0.827
		C1211.075,1020.508,1210.848,1020.457,1210.632,1020.352 M1193.537,1011.802l-1.315-0.658c-0.74-0.371-1.04-1.271-0.67-2.011
		c0.371-0.739,1.27-1.039,2.01-0.671l1.315,0.659c0.74,0.37,1.04,1.272,0.67,2.01c-0.262,0.525-0.791,0.828-1.342,0.828
		C1193.98,1011.959,1193.752,1011.908,1193.537,1011.802 M1176.44,1003.251l-1.314-0.657c-0.74-0.37-1.04-1.27-0.671-2.01
		c0.373-0.739,1.271-1.041,2.012-0.671l1.313,0.657c0.74,0.37,1.041,1.271,0.67,2.011c-0.263,0.524-0.79,0.828-1.341,0.828
		C1176.884,1003.409,1176.655,1003.357,1176.44,1003.251 M1159.345,994.702l-1.314-0.657c-0.739-0.37-1.041-1.271-0.671-2.011
		s1.271-1.036,2.01-0.67l1.316,0.657c0.738,0.371,1.04,1.27,0.67,2.01c-0.262,0.525-0.791,0.828-1.342,0.828
		C1159.787,994.859,1159.561,994.809,1159.345,994.702 M1142.25,986.152l-1.315-0.658c-0.74-0.37-1.04-1.271-0.67-2.01
		c0.371-0.74,1.271-1.036,2.01-0.671l1.315,0.658c0.74,0.37,1.04,1.271,0.67,2.011c-0.264,0.525-0.791,0.828-1.341,0.828
		C1142.693,986.311,1142.465,986.26,1142.25,986.152 M1125.153,977.603l-1.314-0.657c-0.74-0.37-1.04-1.271-0.67-2.012
		c0.372-0.739,1.271-1.036,2.011-0.669l1.312,0.657c0.741,0.37,1.043,1.27,0.672,2.01c-0.264,0.525-0.793,0.828-1.342,0.828
		C1125.597,977.76,1125.367,977.709,1125.153,977.603 M1108.058,969.053l-1.315-0.658c-0.739-0.37-1.041-1.271-0.67-2.01
		c0.372-0.74,1.269-1.037,2.011-0.671l1.315,0.658c0.74,0.37,1.04,1.271,0.67,2.011c-0.264,0.525-0.791,0.828-1.342,0.828
		C1108.501,969.211,1108.273,969.16,1108.058,969.053 M1090.963,960.503l-1.315-0.657c-0.737-0.369-1.04-1.271-0.67-2.011
		c0.369-0.74,1.269-1.037,2.01-0.67l1.315,0.657c0.739,0.37,1.04,1.27,0.67,2.01c-0.262,0.525-0.791,0.828-1.342,0.828
		C1091.406,960.66,1091.178,960.609,1090.963,960.503 M1073.867,951.953l-1.315-0.658c-0.74-0.37-1.04-1.271-0.67-2.011
		c0.372-0.74,1.269-1.036,2.011-0.67l1.315,0.658c0.74,0.371,1.04,1.271,0.67,2.011c-0.264,0.525-0.792,0.828-1.343,0.828
		C1074.311,952.111,1074.083,952.061,1073.867,951.953 M1056.771,943.403l-1.313-0.657c-0.74-0.37-1.041-1.27-0.67-2.011
		c0.371-0.74,1.271-1.038,2.01-0.67l1.314,0.657c0.74,0.37,1.04,1.27,0.67,2.01c-0.264,0.525-0.791,0.828-1.342,0.828
		C1057.214,943.561,1056.986,943.51,1056.771,943.403 M1039.676,934.854l-1.315-0.656c-0.739-0.371-1.04-1.271-0.67-2.011
		c0.368-0.739,1.27-1.04,2.01-0.669l1.315,0.655c0.739,0.37,1.04,1.271,0.67,2.011c-0.262,0.525-0.791,0.828-1.342,0.828
		C1040.119,935.012,1039.891,934.961,1039.676,934.854 M1022.58,926.305l-1.315-0.658c-0.74-0.37-1.04-1.271-0.67-2.011
		c0.37-0.738,1.271-1.038,2.011-0.67l1.315,0.658c0.739,0.37,1.04,1.271,0.67,2.011c-0.265,0.525-0.792,0.828-1.342,0.828
		C1023.023,926.463,1022.796,926.411,1022.58,926.305 M1005.483,917.754l-1.313-0.656c-0.74-0.371-1.04-1.271-0.671-2.011
		c0.37-0.742,1.271-1.036,2.011-0.67l1.314,0.656c0.74,0.37,1.04,1.271,0.67,2.011c-0.264,0.525-0.791,0.828-1.342,0.828
		C1005.927,917.912,1005.699,917.861,1005.483,917.754 M988.389,909.205l-1.315-0.658c-0.74-0.37-1.04-1.271-0.67-2.011
		c0.371-0.741,1.271-1.04,2.01-0.67l1.315,0.658c0.74,0.37,1.04,1.271,0.67,2.011c-0.263,0.525-0.791,0.828-1.342,0.828
		C988.832,909.363,988.604,909.312,988.389,909.205"/>
	<path clip-path="url(#SVGID_2_)" fill="#4D98D7" d="M971.962,900.812c0.55,0,1.078-0.303,1.342-0.828
		c0.37-0.74,0.07-1.641-0.67-2.011l-0.671-0.334c-0.74-0.366-1.64-0.071-2.01,0.67c-0.37,0.74-0.07,1.64,0.67,2.01l0.67,0.335
		C971.508,900.762,971.736,900.812,971.962,900.812"/>
	<path clip-path="url(#SVGID_2_)" fill="#4D98D7" d="M-28.166,875.016c-0.55,0-1.079-0.303-1.342-0.826
		c-0.37-0.74-0.07-1.642,0.67-2.012l1.313-0.656c0.738-0.369,1.639-0.072,2.01,0.67c0.37,0.738,0.07,1.64-0.67,2.01l-1.313,0.657
		C-27.712,874.965-27.941,875.016-28.166,875.016 M-11.105,866.483c-0.55,0-1.078-0.303-1.341-0.828
		c-0.37-0.738-0.07-1.641,0.67-2.011l1.313-0.656c0.74-0.366,1.638-0.07,2.009,0.67c0.37,0.74,0.071,1.641-0.67,2.011l-1.312,0.656
		C-10.651,866.433-10.879,866.483-11.105,866.483 M5.958,857.95c-0.55,0-1.078-0.302-1.341-0.828
		c-0.37-0.738-0.071-1.641,0.67-2.011l1.312-0.656c0.74-0.369,1.639-0.07,2.011,0.67c0.37,0.739,0.07,1.641-0.671,2.011
		l-1.312,0.656C6.412,857.899,6.184,857.95,5.958,857.95 M23.02,849.417c-0.55,0-1.078-0.303-1.342-0.828
		c-0.37-0.738-0.07-1.64,0.67-2.01l1.313-0.657c0.742-0.366,1.639-0.07,2.01,0.67c0.37,0.739,0.07,1.641-0.67,2.012l-1.313,0.656
		C23.474,849.366,23.245,849.417,23.02,849.417 M40.083,840.884c-0.55,0-1.079-0.303-1.342-0.827
		c-0.37-0.739-0.07-1.641,0.671-2.011l1.312-0.657c0.74-0.366,1.639-0.069,2.01,0.672c0.37,0.737,0.071,1.639-0.67,2.009
		l-1.312,0.657C40.537,840.833,40.309,840.884,40.083,840.884 M57.144,832.352c-0.549,0-1.08-0.303-1.341-0.828
		c-0.37-0.74-0.069-1.641,0.67-2.011l1.312-0.655c0.739-0.365,1.642-0.07,2.011,0.67c0.37,0.74,0.069,1.641-0.671,2.011
		l-1.312,0.655C57.598,832.301,57.37,832.352,57.144,832.352 M74.206,823.818c-0.55,0-1.08-0.303-1.341-0.828
		c-0.37-0.74-0.069-1.641,0.67-2.01l1.312-0.656c0.74-0.368,1.642-0.07,2.01,0.671c0.37,0.74,0.069,1.64-0.67,2.01l-1.313,0.655
		C74.66,823.768,74.431,823.818,74.206,823.818 M91.269,815.285c-0.55,0-1.08-0.303-1.342-0.828c-0.37-0.74-0.068-1.64,0.671-2.01
		l1.312-0.655c0.74-0.366,1.64-0.072,2.01,0.67c0.37,0.74,0.069,1.64-0.67,2.01l-1.312,0.656
		C91.723,815.234,91.495,815.285,91.269,815.285 M108.331,806.752c-0.55,0-1.08-0.303-1.342-0.827
		c-0.37-0.739-0.069-1.641,0.67-2.011l1.313-0.655c0.741-0.367,1.641-0.069,2.01,0.67c0.37,0.74,0.069,1.64-0.67,2.011l-1.313,0.655
		C108.785,806.701,108.556,806.752,108.331,806.752"/>
	<path clip-path="url(#SVGID_2_)" fill="#4D98D7" d="M125.392,798.221c-0.55,0-1.078-0.303-1.341-0.828
		c-0.37-0.74-0.071-1.64,0.67-2.01l0.67-0.336c0.74-0.368,1.639-0.071,2.01,0.671c0.37,0.74,0.071,1.64-0.67,2.01l-0.67,0.336
		C125.846,798.17,125.618,798.221,125.392,798.221"/>
	<path clip-path="url(#SVGID_2_)" fill="#4D98D7" d="M698.768,113.343c-0.225,0-0.454-0.051-0.671-0.159l-1.339-0.674
		c-0.739-0.371-1.038-1.273-0.666-2.011c0.371-0.74,1.267-1.039,2.012-0.666l1.339,0.673c0.739,0.371,1.037,1.273,0.666,2.012
		C699.845,113.042,699.316,113.343,698.768,113.343 M681.371,104.584c-0.225,0-0.455-0.051-0.672-0.16l-1.339-0.673
		c-0.738-0.372-1.037-1.273-0.665-2.011c0.372-0.74,1.268-1.036,2.012-0.666l1.34,0.673c0.738,0.371,1.036,1.273,0.666,2.012
		C682.448,104.283,681.92,104.584,681.371,104.584 M663.973,95.828c-0.227,0-0.456-0.052-0.671-0.16l-1.339-0.673
		c-0.739-0.373-1.036-1.273-0.664-2.012c0.371-0.741,1.275-1.037,2.012-0.666l1.337,0.674c0.74,0.373,1.038,1.273,0.666,2.011
		C665.05,95.525,664.521,95.828,663.973,95.828 M646.576,87.069c-0.226,0-0.455-0.052-0.671-0.16l-1.339-0.673
		c-0.739-0.372-1.038-1.273-0.666-2.012c0.372-0.739,1.267-1.036,2.012-0.665l1.339,0.672c0.738,0.372,1.037,1.273,0.665,2.012
		C647.653,86.768,647.125,87.069,646.576,87.069 M629.179,78.312c-0.227,0-0.457-0.052-0.672-0.16l-1.337-0.673
		c-0.741-0.373-1.038-1.272-0.666-2.012c0.372-0.741,1.274-1.038,2.012-0.666l1.337,0.674c0.74,0.373,1.037,1.273,0.666,2.011
		C630.256,78.011,629.727,78.312,629.179,78.312 M611.781,69.554c-0.225,0-0.454-0.051-0.671-0.159l-1.339-0.673
		c-0.739-0.372-1.037-1.273-0.666-2.012c0.372-0.739,1.268-1.036,2.012-0.666l1.339,0.673c0.739,0.372,1.037,1.272,0.666,2.012
		C612.858,69.252,612.33,69.554,611.781,69.554 M594.384,60.796c-0.227,0-0.456-0.051-0.671-0.159l-1.338-0.673
		c-0.74-0.373-1.037-1.273-0.666-2.012c0.371-0.742,1.274-1.038,2.012-0.666l1.337,0.673c0.741,0.374,1.038,1.273,0.666,2.012
		C595.461,60.496,594.933,60.796,594.384,60.796 M576.987,52.039c-0.226,0-0.455-0.051-0.672-0.159l-1.339-0.673
		c-0.738-0.372-1.037-1.273-0.665-2.012c0.371-0.739,1.267-1.038,2.012-0.666l1.338,0.673c0.739,0.372,1.038,1.273,0.666,2.012
		C578.063,51.737,577.536,52.039,576.987,52.039 M559.591,43.281c-0.226,0-0.455-0.051-0.672-0.159l-1.339-0.673
		c-0.739-0.372-1.037-1.273-0.666-2.012c0.372-0.739,1.269-1.036,2.013-0.666l1.338,0.673c0.739,0.372,1.037,1.273,0.666,2.012
		C560.667,42.98,560.14,43.281,559.591,43.281 M542.192,34.523c-0.226,0-0.455-0.051-0.672-0.159l-1.339-0.674
		c-0.738-0.371-1.037-1.273-0.665-2.011c0.372-0.739,1.267-1.038,2.012-0.666l1.339,0.673c0.738,0.372,1.037,1.273,0.665,2.012
		C543.27,34.222,542.741,34.523,542.192,34.523 M524.796,25.767c-0.226,0-0.456-0.051-0.672-0.16l-1.339-0.672
		c-0.738-0.372-1.038-1.273-0.666-2.012c0.372-0.739,1.269-1.036,2.012-0.666l1.339,0.673c0.739,0.372,1.037,1.273,0.666,2.012
		C525.873,25.466,525.344,25.767,524.796,25.767 M507.398,17.009c-0.227,0-0.457-0.051-0.672-0.159l-1.338-0.674
		c-0.74-0.373-1.037-1.272-0.665-2.011c0.371-0.741,1.275-1.037,2.011-0.666l1.338,0.673c0.74,0.373,1.037,1.273,0.665,2.012
		C508.475,16.708,507.946,17.009,507.398,17.009 M490.001,8.251c-0.226,0-0.455-0.051-0.672-0.16l-1.339-0.673
		c-0.739-0.371-1.037-1.272-0.666-2.011c0.372-0.739,1.269-1.036,2.013-0.666l1.338,0.673c0.739,0.372,1.038,1.273,0.666,2.012
		C491.079,7.951,490.549,8.251,490.001,8.251 M472.603-0.506c-0.226,0-0.456-0.052-0.671-0.159l-1.337-0.673
		c-0.741-0.374-1.038-1.273-0.666-2.013c0.372-0.74,1.274-1.036,2.012-0.666l1.337,0.674c0.741,0.373,1.038,1.273,0.665,2.011
		C473.679-0.809,473.151-0.506,472.603-0.506 M455.207-9.264c-0.225,0-0.455-0.051-0.672-0.16l-1.339-0.673
		c-0.738-0.371-1.037-1.273-0.665-2.011c0.371-0.739,1.268-1.036,2.012-0.666l1.338,0.673c0.739,0.372,1.038,1.273,0.666,2.012
		C456.283-9.564,455.755-9.264,455.207-9.264 M437.809-18.021c-0.227,0-0.457-0.052-0.672-0.16l-1.337-0.673
		c-0.74-0.373-1.037-1.273-0.666-2.012c0.372-0.74,1.274-1.036,2.012-0.666l1.337,0.674c0.74,0.373,1.038,1.273,0.666,2.011
		C438.884-18.323,438.357-18.021,437.809-18.021 M420.411-26.778c-0.225,0-0.455-0.052-0.672-0.159l-1.338-0.674
		c-0.739-0.371-1.038-1.273-0.666-2.012c0.372-0.738,1.269-1.035,2.012-0.665l1.339,0.673c0.738,0.371,1.037,1.273,0.665,2.012
		C421.488-27.081,420.96-26.778,420.411-26.778 M403.013-35.538c-0.227,0-0.457-0.05-0.672-0.159l-1.336-0.673
		c-0.74-0.373-1.038-1.273-0.667-2.012c0.372-0.74,1.276-1.035,2.012-0.665l1.338,0.672c0.74,0.374,1.037,1.273,0.666,2.012
		C404.09-35.838,403.562-35.538,403.013-35.538 M385.616-44.293c-0.225,0-0.454-0.052-0.671-0.16l-1.339-0.673
		c-0.739-0.372-1.038-1.273-0.665-2.012c0.371-0.739,1.268-1.037,2.011-0.666l1.339,0.673c0.739,0.372,1.037,1.273,0.666,2.012
		C386.693-44.596,386.166-44.293,385.616-44.293 M368.218-53.053c-0.227,0-0.456-0.051-0.671-0.159l-1.338-0.673
		c-0.74-0.373-1.037-1.273-0.665-2.012c0.372-0.741,1.274-1.038,2.011-0.665l1.338,0.672c0.74,0.373,1.037,1.273,0.666,2.012
		C369.296-53.354,368.768-53.053,368.218-53.053 M350.822-61.81c-0.226,0-0.456-0.051-0.672-0.159l-1.339-0.673
		c-0.739-0.372-1.037-1.273-0.665-2.012c0.371-0.739,1.267-1.037,2.011-0.666l1.339,0.674c0.739,0.371,1.038,1.272,0.666,2.011
		C351.899-62.11,351.371-61.81,350.822-61.81 M333.425-70.567c-0.226,0-0.455-0.051-0.671-0.16l-1.339-0.672
		c-0.739-0.372-1.038-1.273-0.666-2.012c0.372-0.739,1.269-1.039,2.012-0.666l1.339,0.673c0.738,0.372,1.037,1.273,0.666,2.012
		C334.502-70.868,333.975-70.567,333.425-70.567 M316.027-79.324c-0.226,0-0.455-0.051-0.671-0.159l-1.339-0.673
		c-0.739-0.372-1.038-1.273-0.666-2.012c0.371-0.74,1.267-1.038,2.012-0.666l1.339,0.673c0.738,0.371,1.037,1.273,0.665,2.012
		C317.104-79.625,316.576-79.324,316.027-79.324 M298.63-88.083c-0.225,0-0.455-0.051-0.671-0.16l-1.339-0.673
		c-0.739-0.371-1.037-1.272-0.666-2.011c0.372-0.739,1.269-1.039,2.012-0.666l1.339,0.673c0.739,0.372,1.037,1.273,0.665,2.012
		C299.708-88.383,299.179-88.083,298.63-88.083"/>
	<path clip-path="url(#SVGID_2_)" fill="#4D98D7" d="M970.324,900.828c0.237,0,0.478-0.056,0.701-0.175l0.661-0.352
		c0.731-0.388,1.01-1.295,0.621-2.024c-0.389-0.731-1.296-1.014-2.025-0.62l-0.661,0.351c-0.732,0.388-1.01,1.295-0.62,2.024
		C969.27,900.54,969.788,900.828,970.324,900.828"/>
	<path clip-path="url(#SVGID_2_)" fill="#4D98D7" d="M937.442,916.784c-0.39-0.729-0.111-1.638,0.619-2.026l1.212-0.646
		c0.732-0.391,1.64-0.109,2.027,0.619c0.389,0.729,0.111,1.637-0.619,2.026l-1.213,0.646c-0.225,0.12-0.466,0.176-0.702,0.176
		C938.229,917.579,937.712,917.291,937.442,916.784 M953.219,908.408c-0.387-0.732-0.107-1.639,0.622-2.027l1.215-0.644
		c0.729-0.386,1.639-0.108,2.026,0.622c0.388,0.731,0.108,1.639-0.622,2.027l-1.216,0.643c-0.223,0.119-0.463,0.175-0.699,0.175
		C954.008,909.204,953.488,908.914,953.219,908.408"/>
	<path clip-path="url(#SVGID_2_)" fill="#4D98D7" d="M923.538,925.658c0.237,0,0.478-0.056,0.701-0.176l0.661-0.351
		c0.731-0.388,1.01-1.295,0.62-2.025c-0.388-0.731-1.294-1.013-2.024-0.62l-0.662,0.351c-0.732,0.388-1.009,1.295-0.62,2.025
		C922.483,925.37,923.001,925.658,923.538,925.658"/>
	<path clip-path="url(#SVGID_2_)" fill="#4D98D7" d="M128.125,1331.325c-0.828,0-1.499-0.67-1.499-1.498v-262.075
		c0-0.828,0.671-1.498,1.499-1.498s1.498,0.67,1.498,1.498v262.075C129.623,1330.655,128.953,1331.325,128.125,1331.325"/>
	<path clip-path="url(#SVGID_2_)" fill="#4D98D7" d="M104.729,1343.883c-0.828,0-1.498-0.67-1.498-1.498v-260.567
		c0-0.829,0.67-1.499,1.498-1.499s1.499,0.67,1.499,1.499v260.567C106.229,1343.213,105.558,1343.883,104.729,1343.883"/>
	<path clip-path="url(#SVGID_2_)" fill="#4D98D7" d="M976.43,771.088c-0.733,0-1.376-0.54-1.481-1.289
		c-0.115-0.819,0.455-1.577,1.274-1.693c0.463-0.065,0.922-0.137,1.377-0.215c0.836-0.141,1.591,0.408,1.729,1.224
		c0.141,0.814-0.408,1.591-1.223,1.729c-0.485,0.083-0.974,0.16-1.465,0.229C976.571,771.083,976.499,771.088,976.43,771.088
		 M959.246,770.877c-0.083,0-0.167-0.007-0.252-0.021c-0.488-0.083-0.973-0.173-1.454-0.267c-0.812-0.16-1.34-0.947-1.181-1.76
		c0.16-0.811,0.942-1.349,1.76-1.181c0.455,0.091,0.913,0.174,1.376,0.252c0.815,0.139,1.365,0.911,1.228,1.728
		C960.598,770.36,959.965,770.877,959.246,770.877 M993.949,764.953c-0.497,0-0.982-0.246-1.268-0.695
		c-0.443-0.699-0.235-1.626,0.462-2.069c0.39-0.245,0.771-0.5,1.142-0.759c0.679-0.475,1.612-0.311,2.087,0.369
		c0.474,0.679,0.308,1.612-0.369,2.086c-0.408,0.285-0.825,0.563-1.252,0.836C994.5,764.877,994.223,764.953,993.949,764.953
		 M941.94,764.19c-0.296,0-0.593-0.086-0.854-0.268c-0.418-0.291-0.825-0.589-1.22-0.893c-0.655-0.505-0.777-1.445-0.272-2.101
		c0.505-0.656,1.444-0.782,2.102-0.272c0.356,0.274,0.723,0.543,1.1,0.804c0.681,0.474,0.849,1.407,0.376,2.086
		C942.881,763.967,942.414,764.19,941.94,764.19 M1004.404,750.247c-0.049,0-0.098-0.003-0.149-0.007
		c-0.823-0.083-1.425-0.815-1.343-1.64c0.042-0.424,0.062-0.854,0.062-1.286c0-0.828,0.671-1.561,1.498-1.561
		c0.828,0,1.498,0.607,1.498,1.436v0.125c0,0.531-0.025,1.059-0.077,1.582C1005.817,749.67,1005.165,750.247,1004.404,750.247
		 M932.561,748.846c-0.828,0-1.499-0.64-1.499-1.469v-0.062c0-0.506,0.025-1.009,0.07-1.508c0.078-0.825,0.823-1.444,1.632-1.354
		c0.823,0.077,1.43,0.808,1.354,1.632c-0.04,0.407-0.059,0.817-0.059,1.229C934.059,748.144,933.389,748.846,932.561,748.846
		 M996.2,734.248c-0.317,0-0.638-0.102-0.91-0.31c-0.356-0.274-0.727-0.542-1.104-0.806c-0.68-0.473-0.849-1.406-0.376-2.085
		c0.472-0.684,1.404-0.851,2.085-0.376c0.419,0.288,0.824,0.587,1.219,0.888c0.657,0.503,0.781,1.444,0.278,2.102
		C997.096,734.045,996.651,734.248,996.2,734.248 M941.839,733.507c-0.472,0-0.936-0.222-1.228-0.638
		c-0.476-0.678-0.311-1.61,0.366-2.086c0.405-0.286,0.821-0.563,1.248-0.837c0.697-0.444,1.622-0.24,2.07,0.455
		c0.444,0.697,0.241,1.624-0.455,2.07c-0.393,0.25-0.772,0.504-1.143,0.764C942.437,733.42,942.137,733.507,941.839,733.507
		 M979.145,726.999c-0.095,0-0.19-0.009-0.286-0.027c-0.457-0.088-0.916-0.173-1.38-0.25c-0.815-0.14-1.365-0.912-1.228-1.729
		s0.91-1.362,1.728-1.228c0.487,0.084,0.97,0.171,1.45,0.265c0.812,0.157,1.343,0.943,1.186,1.756
		C980.475,726.502,979.848,726.999,979.145,726.999 M959.117,726.773c-0.717,0-1.351-0.515-1.475-1.245
		c-0.141-0.815,0.408-1.59,1.223-1.729c0.482-0.084,0.971-0.16,1.461-0.231c0.819-0.129,1.577,0.45,1.697,1.27
		c0.117,0.819-0.451,1.579-1.271,1.697c-0.464,0.066-0.925,0.14-1.381,0.217C959.286,726.767,959.201,726.773,959.117,726.773"/>
</g>
<g>
	<defs>
		<rect id="SVGID_3_" width="1080" height="1440"/>
	</defs>
	<clipPath id="SVGID_4_">
		<use xlink:href="#SVGID_3_"  overflow="visible"/>
	</clipPath>
	<path clip-path="url(#SVGID_4_)" fill="#0050BB" d="M922.55,1328.596L922.55,1328.596c16.334,8.168,42.816,8.168,59.15,0
		l41.647-20.824c16.334-8.168,16.334-26.447,0-34.613c-16.335-8.168-42.818-8.168-59.15,0l-41.647,20.824
		C906.216,1302.15,906.216,1320.428,922.55,1328.596"/>
	<path clip-path="url(#SVGID_4_)" fill="#D6F2FF" d="M922.55,1322.761L922.55,1322.761c16.334,8.168,42.816,8.168,59.15,0
		l41.647-20.825c16.334-8.167,16.334-21.409,0-29.577c-16.335-8.167-42.818-8.167-59.15,0l-41.647,20.825
		C906.216,1301.352,906.216,1314.594,922.55,1322.761"/>
	<path clip-path="url(#SVGID_4_)" fill="#00CFFF" d="M980.493,1293.787L980.493,1293.787c2.158,1.079,5.689,1.079,7.847,0
		l19.314-9.658c2.157-1.079,2.157-2.845,0-3.923c-2.158-1.079-5.689-1.079-7.847,0l-19.314,9.657
		C978.336,1290.942,978.336,1292.708,980.493,1293.787"/>
	<polygon clip-path="url(#SVGID_4_)" fill="#00CFFF" points="1007.051,1279.903 1008.258,1280.507 1023.951,1272.66
		1022.744,1272.057 	"/>
	<path clip-path="url(#SVGID_4_)" fill="#4D98D7" d="M988.969,430.479c-0.829,0-1.499-0.67-1.499-1.499v-0.749
		c0-0.828,0.67-1.498,1.499-1.498c0.828,0,1.498,0.67,1.498,1.498v0.749C990.467,429.81,989.797,430.479,988.969,430.479"/>
	<path clip-path="url(#SVGID_4_)" fill="#4D98D7" d="M988.969,412.52c-0.829,0-1.499-0.67-1.499-1.498v-1.434
		c0-0.828,0.67-1.498,1.499-1.498c0.828,0,1.498,0.67,1.498,1.498v1.434C990.467,411.85,989.797,412.52,988.969,412.52
		 M988.969,393.874c-0.829,0-1.499-0.67-1.499-1.498v-1.434c0-0.828,0.67-1.498,1.499-1.498c0.828,0,1.498,0.67,1.498,1.498v1.434
		C990.467,393.204,989.797,393.874,988.969,393.874 M988.969,375.23c-0.829,0-1.499-0.67-1.499-1.499v-1.433
		c0-0.829,0.67-1.499,1.499-1.499c0.828,0,1.498,0.67,1.498,1.499v1.433C990.467,374.561,989.797,375.23,988.969,375.23
		 M988.969,356.585c-0.829,0-1.499-0.67-1.499-1.498v-1.434c0-0.829,0.67-1.498,1.499-1.498c0.828,0,1.498,0.669,1.498,1.498v1.434
		C990.467,355.915,989.797,356.585,988.969,356.585 M988.969,337.94c-0.829,0-1.499-0.67-1.499-1.498v-1.433
		c0-0.829,0.67-1.499,1.499-1.499c0.828,0,1.498,0.67,1.498,1.499v1.433C990.467,337.271,989.797,337.94,988.969,337.94
		 M988.969,319.296c-0.829,0-1.499-0.671-1.499-1.498v-1.434c0-0.829,0.67-1.499,1.499-1.499c0.828,0,1.498,0.67,1.498,1.499v1.434
		C990.467,318.625,989.797,319.296,988.969,319.296 M988.969,300.651c-0.829,0-1.499-0.67-1.499-1.498v-1.434
		c0-0.828,0.67-1.499,1.499-1.499c0.828,0,1.498,0.671,1.498,1.499v1.434C990.467,299.981,989.797,300.651,988.969,300.651
		 M988.969,282.007c-0.829,0-1.499-0.671-1.499-1.499v-1.434c0-0.828,0.67-1.498,1.499-1.498c0.828,0,1.498,0.67,1.498,1.498v1.434
		C990.467,281.336,989.797,282.007,988.969,282.007 M988.969,263.362c-0.829,0-1.499-0.67-1.499-1.498v-1.435
		c0-0.828,0.67-1.498,1.499-1.498c0.828,0,1.498,0.67,1.498,1.498v1.435C990.467,262.692,989.797,263.362,988.969,263.362
		 M988.969,244.717c-0.829,0-1.499-0.67-1.499-1.498v-1.434c0-0.828,0.67-1.498,1.499-1.498c0.828,0,1.498,0.67,1.498,1.498v1.434
		C990.467,244.047,989.797,244.717,988.969,244.717 M988.969,226.072c-0.829,0-1.499-0.67-1.499-1.498v-1.434
		c0-0.828,0.67-1.498,1.499-1.498c0.828,0,1.498,0.67,1.498,1.498v1.434C990.467,225.402,989.797,226.072,988.969,226.072"/>
	<path clip-path="url(#SVGID_4_)" fill="#4D98D7" d="M988.969,207.428c-0.829,0-1.499-0.67-1.499-1.499v-0.749
		c0-0.828,0.67-1.498,1.499-1.498c0.828,0,1.498,0.67,1.498,1.498v0.749C990.467,206.758,989.797,207.428,988.969,207.428"/>
	<path clip-path="url(#SVGID_4_)" fill="#4D98D7" d="M988.969,188.496c-0.829,0-1.499-0.67-1.499-1.499v-0.749
		c0-0.828,0.67-1.498,1.499-1.498c0.828,0,1.498,0.67,1.498,1.498v0.749C990.467,187.826,989.797,188.496,988.969,188.496"/>
	<path clip-path="url(#SVGID_4_)" fill="#4D98D7" d="M988.969,170.536c-0.829,0-1.499-0.67-1.499-1.498v-1.434
		c0-0.828,0.67-1.498,1.499-1.498c0.828,0,1.498,0.67,1.498,1.498v1.434C990.467,169.866,989.797,170.536,988.969,170.536
		 M988.969,151.891c-0.829,0-1.499-0.67-1.499-1.498v-1.434c0-0.828,0.67-1.498,1.499-1.498c0.828,0,1.498,0.67,1.498,1.498v1.434
		C990.467,151.221,989.797,151.891,988.969,151.891 M988.969,133.247c-0.829,0-1.499-0.67-1.499-1.499v-1.433
		c0-0.829,0.67-1.499,1.499-1.499c0.828,0,1.498,0.67,1.498,1.499v1.433C990.467,132.577,989.797,133.247,988.969,133.247
		 M988.969,114.602c-0.829,0-1.499-0.67-1.499-1.498v-1.434c0-0.829,0.67-1.498,1.499-1.498c0.828,0,1.498,0.669,1.498,1.498v1.434
		C990.467,113.932,989.797,114.602,988.969,114.602 M988.969,95.957c-0.829,0-1.499-0.67-1.499-1.498v-1.433
		c0-0.829,0.67-1.499,1.499-1.499c0.828,0,1.498,0.67,1.498,1.499v1.433C990.467,95.287,989.797,95.957,988.969,95.957
		 M988.969,77.313c-0.829,0-1.499-0.671-1.499-1.498v-1.434c0-0.829,0.67-1.499,1.499-1.499c0.828,0,1.498,0.67,1.498,1.499v1.434
		C990.467,76.642,989.797,77.313,988.969,77.313 M988.969,58.668c-0.829,0-1.499-0.67-1.499-1.498v-1.434
		c0-0.828,0.67-1.499,1.499-1.499c0.828,0,1.498,0.671,1.498,1.499v1.434C990.467,57.998,989.797,58.668,988.969,58.668
		 M988.969,40.024c-0.829,0-1.499-0.671-1.499-1.499v-1.434c0-0.828,0.67-1.498,1.499-1.498c0.828,0,1.498,0.67,1.498,1.498v1.434
		C990.467,39.353,989.797,40.024,988.969,40.024 M988.969,21.379c-0.829,0-1.499-0.67-1.499-1.498v-1.435
		c0-0.828,0.67-1.498,1.499-1.498c0.828,0,1.498,0.67,1.498,1.498v1.435C990.467,20.709,989.797,21.379,988.969,21.379
		 M988.969,2.734c-0.829,0-1.499-0.67-1.499-1.498v-1.434c0-0.828,0.67-1.498,1.499-1.498c0.828,0,1.498,0.67,1.498,1.498v1.434
		C990.467,2.064,989.797,2.734,988.969,2.734 M988.969-15.911c-0.829,0-1.499-0.67-1.499-1.498v-1.434
		c0-0.828,0.67-1.498,1.499-1.498c0.828,0,1.498,0.67,1.498,1.498v1.434C990.467-16.581,989.797-15.911,988.969-15.911"/>
	<polygon clip-path="url(#SVGID_4_)" fill="#00CFFF" points="995.418,461.042 1013.572,406.799 1004.218,411.868 984.811,466.113
		1017.26,468.465 971.556,527.33 983.419,523.509 1029.122,464.645 	"/>
	<polygon clip-path="url(#SVGID_4_)" fill="#D6F2FF" points="984.811,466.113 1004.218,411.867 951.811,476.236 982.815,481.935
		971.556,527.329 1017.26,468.466 	"/>
	<polygon clip-path="url(#SVGID_4_)" fill="#0050BB" points="984.811,466.113 995.418,461.042 1029.122,464.645 1017.26,468.466
		"/>
	<polygon clip-path="url(#SVGID_4_)" fill="#D6F2FF" points="968.087,893.476 961.71,895.372 952.994,881.974 961.955,878.505
		982.989,883.037 974.953,895.521 	"/>
	<path clip-path="url(#SVGID_4_)" fill="#D6F2FF" d="M973.381,891.723c2.758,1.38,2.758,3.615,0,4.995
		c-2.758,1.379-7.229,1.379-9.987,0c-2.758-1.38-2.758-3.615,0-4.995C966.152,890.344,970.623,890.344,973.381,891.723"/>
	<path clip-path="url(#SVGID_4_)" fill="#00CFFF" d="M979.663,874.248c6.227,3.113,6.227,8.162,0,11.276
		c-6.228,3.114-16.324,3.114-22.552,0s-6.228-8.163,0-11.276C963.339,871.134,973.436,871.134,979.663,874.248"/>
	<rect x="952.43" y="846.749" clip-path="url(#SVGID_4_)" fill="#00CFFF" width="31.864" height="33.137"/>
	<path clip-path="url(#SVGID_4_)" fill="#D6F2FF" d="M980.279,849.814c6.569,3.284,7.035,8.844,0.466,12.128
		c-6.569,3.285-17.686,3.052-24.255-0.231c-6.569-3.286-6.569-8.612,0-11.896C963.06,846.529,973.71,846.529,980.279,849.814"/>
	<path clip-path="url(#SVGID_4_)" fill="#D6F2FF" d="M997.215,837.237l-0.005-0.006c2.993-5.207,4.717-11.283,4.717-17.777
		c0-19.269-15.126-34.89-33.786-34.89s-33.786,15.621-33.786,34.89c0,7.604,2.363,14.636,6.362,20.367l11.167,17.577l33.002,0.959
		l12.135-20.788c0.011-0.021,0.022-0.038,0.034-0.058L997.215,837.237z"/>
	<path clip-path="url(#SVGID_4_)" fill="#00CFFF" d="M968.505,813.697c0,6.139-4.819,11.114-10.764,11.114
		s-10.763-4.976-10.763-11.114c0-6.138,4.818-11.114,10.763-11.114S968.505,807.56,968.505,813.697"/>
	<path clip-path="url(#SVGID_4_)" fill="#0050BB" d="M979.623,877.28c-6.229,3.114-16.324,3.114-22.551,0
		c-3.114-1.557-4.671-3.598-4.671-5.639v3.222c0,2.041,1.557,4.082,4.671,5.639c6.227,3.114,16.322,3.114,22.551,0
		c3.114-1.557,4.671-3.598,4.671-5.639v-3.221C984.293,873.683,982.736,875.724,979.623,877.28"/>
	<path clip-path="url(#SVGID_4_)" fill="#0050BB" d="M979.623,868.406c-6.229,3.114-16.324,3.114-22.551,0
		c-3.114-1.557-4.671-3.598-4.671-5.639v3.222c0,2.041,1.557,4.082,4.671,5.639c6.227,3.114,16.322,3.114,22.551,0
		c3.114-1.557,4.671-3.598,4.671-5.639v-3.221C984.293,864.809,982.736,866.85,979.623,868.406"/>
	<polygon clip-path="url(#SVGID_4_)" fill="#D6F2FF" points="47.054,1048.943 125.488,1087.958 169.611,1065.895 91.178,1026.881
		"/>
	<polygon clip-path="url(#SVGID_4_)" fill="#0050BB" points="47.054,1049.025 125.495,1088.051 125.495,1106.667 47.054,1067.642
		"/>
	<polygon clip-path="url(#SVGID_4_)" fill="#0050BB" points="125.495,1106.667 125.495,1088.051 169.622,1065.982 169.622,1084.599
			"/>
	<polygon clip-path="url(#SVGID_4_)" fill="#D5EBF7" points="132.053,1088.383 165.729,1105.111 194.507,1090.721 160.831,1073.992
			"/>
	<polygon clip-path="url(#SVGID_4_)" fill="#00CFFF" points="132.053,1088.432 165.733,1105.165 165.733,1117.307 132.053,1100.573
			"/>
	<polygon clip-path="url(#SVGID_4_)" fill="#D5EBF7" points="165.727,1117.307 165.727,1105.165 194.507,1090.772 194.507,1102.914
			"/>
	<polygon clip-path="url(#SVGID_4_)" fill="#00205B" points="167.75,1108.5 167.75,1104.153 192.483,1091.784 192.483,1096.131 	"/>
	<polygon clip-path="url(#SVGID_4_)" fill="#0050BB" points="163.128,1086.449 169.273,1089.521 175.419,1086.449 169.273,1083.376
			"/>
	<polygon clip-path="url(#SVGID_4_)" fill="#0050BB" points="151.095,1092.466 157.241,1095.539 163.386,1092.466 157.241,1089.393
			"/>
	<path clip-path="url(#SVGID_4_)" fill="#BFA400" d="M675.345,1331.892c-2.846-1.5-5.392-1.45-7.045-0.178l-0.013-0.007
		l-0.532,0.488l-1.557,1.427c1.188-0.822,2.81-1.044,4.658-0.583c0.694,0.174,1.416,0.433,2.163,0.807
		c4.915,2.458,8.899,8.435,8.899,13.35c0,0.801-0.115,1.516-0.313,2.155c-0.208,0.666-0.514,1.241-0.907,1.717l1.242-1.13
		l0.645-0.587h-0.031c0.844-0.918,1.367-2.228,1.403-3.922C684.062,1340.515,680.206,1334.455,675.345,1331.892"/>
	<path clip-path="url(#SVGID_4_)" fill="#BFA400" d="M676.472,1279.145c-16.84-8.877-32.234-10.014-43.509-4.675l-3.542,2.872
		c1.994-0.997,4.13-1.78,6.381-2.362c10.344-2.672,23.233-0.887,37.218,6.106c17.014,8.509,32.416,23.104,43.572,39.824l2.446-1.249
		C708.24,1302.688,693.312,1288.021,676.472,1279.145"/>
	<path clip-path="url(#SVGID_4_)" fill="#BFA400" d="M676.124,1295.448c-12.387-6.529-23.71-7.365-32.002-3.439l-3.17,2.63
		c3.296-1.647,7.104-2.523,11.283-2.593c6.229-0.104,13.291,1.6,20.784,5.348c12.519,6.261,23.853,17,32.058,29.306l2.481-1.252
		C699.616,1312.963,688.511,1301.978,676.124,1295.448"/>
	<path clip-path="url(#SVGID_4_)" fill="#BFA400" d="M675.729,1313.938c-7.335-3.866-14.04-4.361-18.951-2.036l-2.748,2.354
		c2.354-1.177,5.151-1.686,8.245-1.491c3.292,0.206,6.922,1.211,10.745,3.123c7.406,3.703,14.11,10.055,18.969,17.332l2.355-1.203
		C689.641,1324.626,683.064,1317.806,675.729,1313.938"/>
	<path clip-path="url(#SVGID_4_)" fill="#BFA400" d="M679.766,1351.917l0.015-0.014c-0.005,0.004-0.011,0.007-0.017,0.011
		L679.766,1351.917z"/>
	<path clip-path="url(#SVGID_4_)" fill="#FEDB00" d="M681.605,1349.351c0.198-0.64,0.313-1.354,0.313-2.155
		c0-4.915-3.984-10.892-8.899-13.35c-0.747-0.374-1.469-0.633-2.163-0.807c-1.849-0.461-3.471-0.239-4.657,0.583
		c-0.298,0.206-0.562,0.456-0.802,0.734c-0.805,0.937-1.276,2.262-1.276,3.938c0,4.915,3.983,10.892,8.898,13.35
		c2.699,1.35,5.112,1.351,6.744,0.271c0.006-0.004,0.012-0.007,0.017-0.011c0.345-0.229,0.649-0.511,0.918-0.836
		C681.092,1350.592,681.397,1350.017,681.605,1349.351"/>
	<path clip-path="url(#SVGID_4_)" fill="#FEDB00" d="M673.02,1281.086c-13.983-6.993-26.874-8.778-37.218-6.106
		c-2.251,0.582-4.387,1.365-6.381,2.362l6.067,9.103c9.605-4.802,22.875-4.106,37.531,3.224
		c14.657,7.33,27.927,19.906,37.531,34.314l6.068-3.032c-0.009-0.014-0.019-0.026-0.027-0.04
		C705.436,1304.189,690.033,1289.595,673.02,1281.086"/>
	<path clip-path="url(#SVGID_4_)" fill="#FEDB00" d="M673.02,1297.394c-7.493-3.748-14.556-5.451-20.784-5.348
		c-4.18,0.069-7.987,0.945-11.283,2.593l6.673,10.013c6.499-3.249,15.478-2.778,25.395,2.181c9.917,4.96,18.896,13.47,25.395,23.219
		l6.674-3.337c-0.004-0.005-0.007-0.009-0.011-0.015C696.872,1314.394,685.538,1303.654,673.02,1297.394"/>
	<path clip-path="url(#SVGID_4_)" fill="#FEDB00" d="M673.02,1315.889c-3.823-1.912-7.453-2.917-10.745-3.123
		c-3.094-0.194-5.891,0.314-8.245,1.491l6.518,9.778c3.192-1.597,7.603-1.366,12.473,1.07c4.871,2.436,9.281,6.615,12.474,11.404
		l6.518-3.258c-0.009-0.01-0.016-0.021-0.022-0.031C687.13,1325.943,680.426,1319.592,673.02,1315.889"/>
	<path clip-path="url(#SVGID_4_)" fill="#960C23" d="M752.872,160.301c7.374-3.688,13.352-12.655,13.352-20.029
		c0-0.894-0.089-1.721-0.257-2.482c1.957,1.344,3.138,3.751,3.138,7.026c0,7.373-5.978,16.34-13.352,20.028
		c-6.48,3.241-11.881,1.325-13.095-4.191C745.107,162.335,748.773,162.352,752.872,160.301"/>
	<path clip-path="url(#SVGID_4_)" fill="#E58D9B" d="M779.487,151.787l2.88,4.543l-6.578-3.288l-0.191-0.095
		c0.382-0.857,0.73-1.719,1.045-2.581L779.487,151.787z"/>
	<path clip-path="url(#SVGID_4_)" fill="#E58D9B" d="M749.766,178.324v7.817l-2.881-4.544v-4.583
		c0.931-0.074,1.893-0.222,2.881-0.449V178.324z"/>
	<path clip-path="url(#SVGID_4_)" fill="#E58D9B" d="M721.219,156.792l9.576-4.789c0.311-1.305,0.71-2.617,1.188-3.926l3.925,1.963
		c-0.962,2.155-1.717,4.342-2.232,6.506l-9.576,4.789c-0.284,1.656-0.463,3.296-0.528,4.908c-0.019,0.455-0.029,0.908-0.029,1.359
		c0,2.046,0.193,3.95,0.558,5.708l-2.88-4.543c-0.365-1.758-0.559-3.662-0.559-5.709
		C720.66,161.013,720.854,158.916,721.219,156.792"/>
	<path clip-path="url(#SVGID_4_)" fill="#E58D9B" d="M733.675,168.521c0.516,1.649,1.271,3.08,2.233,4.274l-3.809,5.712
		l-2.962,4.443l-2.88-4.543l6.176-9.265L733.675,168.521z"/>
	<path clip-path="url(#SVGID_4_)" fill="#E58D9B" d="M761.74,126.421v-4.992c0.864-0.069,1.703-0.074,2.51-0.014l6.77-10.156
		c3.322,0.608,6.198,2.046,8.468,4.233l2.88,4.543c-1.61-1.552-3.528-2.724-5.692-3.493c-0.885-0.314-1.811-0.563-2.774-0.739
		l-6.771,10.155C765.455,125.834,763.646,125.983,761.74,126.421"/>
	<path clip-path="url(#SVGID_4_)" fill="#E58D9B" d="M784.526,125.132l2.88,4.543l-3.122,1.561l-6.454,3.228
		c-0.516-1.649-1.271-3.08-2.232-4.273l0.594-0.891L784.526,125.132z"/>
	<path clip-path="url(#SVGID_4_)" fill="#E58D9B" d="M729.138,146.656l-2.88-4.543c2.27-4.458,5.145-8.771,8.467-12.702l6.771,3.384
		c1.675-1.8,3.483-3.459,5.39-4.929v-9.576c1.939-1.335,3.941-2.528,5.987-3.551c2.047-1.024,4.047-1.832,5.987-2.437l2.881,4.543
		c-1.588,0.496-3.216,1.129-4.876,1.902c-0.369,0.172-0.739,0.348-1.111,0.535c-2.047,1.023-4.047,2.217-5.987,3.552v9.576
		c-1.907,1.469-3.716,3.129-5.391,4.929l-6.77-3.385c-1.867,2.21-3.588,4.543-5.145,6.952
		C731.248,142.782,730.132,144.704,729.138,146.656"/>
	<path clip-path="url(#SVGID_4_)" fill="#C8102E" d="M724.098,173.311l8.336-4.169l1.241-0.62c0.516,1.649,1.271,3.08,2.233,4.274
		l-3.809,5.711l-2.963,4.444c2.271,2.187,5.146,3.624,8.469,4.232l6.77-10.156c0.807,0.06,1.646,0.055,2.51-0.014
		c0.931-0.074,1.893-0.222,2.881-0.449v1.759v7.817c1.94-0.605,3.94-1.413,5.987-2.436c2.046-1.024,4.047-2.218,5.987-3.552v-9.576
		c1.906-1.47,3.715-3.129,5.39-4.929l6.771,3.384c3.322-3.931,6.197-8.244,8.467-12.702l-6.578-3.288l-0.191-0.096
		c0.382-0.856,0.73-1.718,1.045-2.581c0.478-1.309,0.877-2.621,1.188-3.926l9.576-4.789c0.365-2.122,0.558-4.22,0.558-6.266
		s-0.192-3.951-0.558-5.709l-3.122,1.562l-6.454,3.228c-0.516-1.649-1.271-3.081-2.232-4.274l0.594-0.891l6.176-9.265
		c-1.61-1.552-3.528-2.724-5.692-3.493c-0.885-0.314-1.811-0.563-2.774-0.739l-6.771,10.155c-1.675-0.124-3.483,0.025-5.39,0.463
		v-4.992v-4.584c-1.588,0.495-3.216,1.129-4.876,1.902c-0.369,0.172-0.739,0.348-1.111,0.535c-2.047,1.023-4.047,2.217-5.987,3.552
		v9.576c-1.907,1.469-3.716,3.129-5.391,4.929l-6.77-3.385c-1.867,2.21-3.588,4.543-5.145,6.952
		c-1.213,1.876-2.329,3.798-3.324,5.75l2.846,1.422l3.926,1.962c-0.963,2.156-1.718,4.342-2.233,6.507l-9.577,4.789
		c-0.283,1.656-0.462,3.296-0.527,4.908c-0.019,0.455-0.029,0.908-0.029,1.358C723.541,169.649,723.734,171.553,724.098,173.311
		 M742.658,160.653c-0.168-0.761-0.257-1.589-0.257-2.482c0-7.374,5.978-16.342,13.352-20.029c4.099-2.051,7.765-2.035,10.214-0.352
		c1.957,1.344,3.138,3.751,3.138,7.026c0,7.374-5.978,16.341-13.352,20.029C749.272,168.086,743.872,166.169,742.658,160.653"/>
	<polygon clip-path="url(#SVGID_4_)" fill="#FFF199" points="74.207,498.609 77.986,500.5 77.986,459.568 74.207,457.678 	"/>
	<polygon clip-path="url(#SVGID_4_)" fill="#FEDB00" points="77.986,500.5 81.765,498.609 81.765,457.679 77.986,459.568 	"/>
	<polygon clip-path="url(#SVGID_4_)" fill="#FFF199" points="61.356,491.438 65.136,493.329 65.136,452.397 61.356,450.507 	"/>
	<polygon clip-path="url(#SVGID_4_)" fill="#FEDB00" points="65.136,493.329 68.915,491.438 68.915,450.508 65.136,452.397 	"/>
	<polygon clip-path="url(#SVGID_4_)" fill="#FFF199" points="48.471,485.11 52.25,487 52.25,446.069 48.471,444.18 	"/>
	<polygon clip-path="url(#SVGID_4_)" fill="#FEDB00" points="52.25,487 56.029,485.11 56.029,444.18 52.25,446.069 	"/>
	<path clip-path="url(#SVGID_4_)" fill="#BFA400" d="M50.264,369.354v26.36l40.314,20.161v-26.359L50.264,369.354z M70.421,399.632
		c-3.419-1.71-6.191-5.869-6.191-9.288c0-3.42,2.772-4.805,6.191-3.095c3.42,1.71,6.191,5.868,6.191,9.288
		C76.612,399.957,73.841,401.342,70.421,399.632"/>
	<polygon clip-path="url(#SVGID_4_)" fill="#FEDB00" points="77.806,465.027 37.492,444.866 37.492,401.798 77.806,421.96 	"/>
	<path clip-path="url(#SVGID_4_)" fill="#FEDB00" d="M46.525,370.888v26.359l40.314,20.161v-26.359L46.525,370.888z M66.682,401.165
		c-3.419-1.71-6.191-5.868-6.191-9.288c0-3.419,2.772-4.805,6.191-3.095s6.191,5.869,6.191,9.288
		C72.873,401.49,70.101,402.875,66.682,401.165"/>
	<polygon clip-path="url(#SVGID_4_)" fill="#FFF199" points="46.525,397.285 86.838,417.442 77.805,421.958 37.491,401.802 	"/>
	<polygon clip-path="url(#SVGID_4_)" fill="#FFF199" points="51.037,368.444 91.35,388.601 86.838,391.121 46.524,370.965 	"/>
	<polygon clip-path="url(#SVGID_4_)" fill="#BFA400" points="86.85,391.121 86.85,417.432 77.818,421.949 77.818,465.016
		86.85,460.499 89.879,458.984 91.362,457.977 91.362,388.6 	"/>
	<path clip-path="url(#SVGID_4_)" fill="#4D98D7" d="M393.863,181.112c-0.231,0-0.467-0.055-0.686-0.167L-35.503-40.78
		c-0.736-0.379-1.023-1.284-0.644-2.019c0.381-0.735,1.285-1.02,2.019-0.644l428.68,221.724c0.736,0.38,1.023,1.285,0.644,2.019
		C394.93,180.816,394.406,181.112,393.863,181.112"/>
	<path clip-path="url(#SVGID_4_)" fill="#4D98D7" d="M393.863,206.104c-0.231,0-0.467-0.054-0.686-0.167L-35.503-15.788
		c-0.736-0.381-1.023-1.285-0.644-2.02c0.381-0.734,1.285-1.023,2.019-0.643l428.68,221.725c0.736,0.381,1.023,1.285,0.644,2.02
		C394.93,205.81,394.406,206.104,393.863,206.104"/>
	<path clip-path="url(#SVGID_4_)" fill="#4D98D7" d="M241.792,102.986c-0.547,0-1.075-0.299-1.339-0.822
		c-0.373-0.739-0.078-1.64,0.662-2.013L530.192-45.998c0.738-0.376,1.641-0.079,2.014,0.661c0.373,0.739,0.078,1.64-0.662,2.013
		L242.466,102.825C242.25,102.935,242.02,102.986,241.792,102.986"/>
	<path clip-path="url(#SVGID_4_)" fill="#C8102E" d="M349.509,161.168c16.818-8.409,43.824-8.982,63.616,0.477l-2.487,8.718
		c-17.294-8.016-44.311-7.824-61.129,0.585c-6.105,3.053-10.035,6.779-11.811,10.699c-0.003-0.008-0.007-0.017-0.011-0.026
		c-0.72-1.599-1.093-3.231-1.093-4.863C336.594,171.115,340.899,165.473,349.509,161.168"/>
	<path clip-path="url(#SVGID_4_)" fill="#C8102E" d="M365.712,183.17c-1.351,1.895-0.528,4.099,2.493,5.609l11.386,5.693
		c0.969,0.485,2.084,0.851,3.272,1.111c3.933,0.859,8.703,0.492,11.909-1.111l44.12-22.2c3.495-1.748,4.046-4.422,1.688-6.473
		l6.799,3.401c4.175,2.087,7.591,7.211,7.591,11.386v5.273v-4.291c0-6.842-5.598-9.641-12.441-6.219l-35.949,17.823
		c-6.843,3.422-12.441,11.82-12.441,18.662v8.434c0,6.756,5.461,9.566,12.186,6.34c-2.313,1.33-7.124,2.244-12.686,2.244
		c-3.946,0-7.512-0.46-10.079-1.202c3.335,0.869,5.835-0.888,5.835-4.458v-13.072c0-4.175-3.415-9.299-7.59-11.387l-13.073-6.538
		c-4.175-2.088-7.591-0.38-7.591,3.794v-3.577C361.141,189.311,363.029,185.686,365.712,183.17"/>
	<path clip-path="url(#SVGID_4_)" fill="#C8102E" d="M382.858,227.432c-0.944-0.316-1.721-0.674-2.29-1.062l1.236,0.618
		C382.164,227.167,382.512,227.308,382.858,227.432"/>
	<path clip-path="url(#SVGID_4_)" fill="#E58D9B" d="M406.325,226.607c0.085-0.04,0.169-0.078,0.255-0.12l35.949-17.823
		c6.843-3.422,12.441-11.82,12.441-18.662v-4.143v-4.291c0-6.842-5.598-9.641-12.441-6.219l-35.949,17.823
		c-6.843,3.422-12.441,11.82-12.441,18.662v8.434C394.139,227.024,399.6,229.833,406.325,226.607 M441.686,202.917l-34.263,16.98
		c-4.175,2.088-7.591,0.38-7.591-3.795v-5.794c0-4.175,3.416-9.299,7.591-11.387l34.263-16.98c4.175-2.088,7.591-0.38,7.591,3.794
		v5.795C449.277,195.705,445.861,200.829,441.686,202.917"/>
	<path clip-path="url(#SVGID_4_)" fill="#960C23" d="M407.423,219.897l34.263-16.98c4.175-2.088,7.591-7.212,7.591-11.387v-5.795
		c0-4.175-3.416-5.882-7.591-3.794l-34.263,16.98c-4.175,2.088-7.591,7.212-7.591,11.386v5.795
		C399.832,220.277,403.248,221.985,407.423,219.897 M435.551,195.606l-25.589,12.797v-3.538l25.589-12.796V195.606z M443.281,191.74
		l-3.538,1.769v-3.538l3.538-1.769V191.74z"/>
	<path clip-path="url(#SVGID_4_)" fill="#E58D9B" d="M368.732,192.195l13.073,6.538c4.175,2.088,7.59,7.212,7.59,11.387v13.072
		c0,3.57-2.5,5.327-5.835,4.458c-0.23-0.06-0.464-0.133-0.702-0.219c-0.345-0.124-0.695-0.265-1.053-0.444l-1.236-0.618
		l-11.837-5.92c-4.175-2.088-7.591-7.212-7.591-11.387v-11.377v-1.696C361.141,191.815,364.557,190.107,368.732,192.195"/>
	<path clip-path="url(#SVGID_4_)" fill="#E58D9B" d="M434.879,165.337c-19.47,0.175-37.125,9.131-48.666,24.812
		c-1.37,1.862-2.478,3.677-3.35,5.434c-1.188-0.26-2.303-0.626-3.272-1.111l-11.386-5.693c-3.021-1.51-3.844-3.714-2.493-5.609
		c0.516-0.724,1.339-1.404,2.493-1.981l44.12-22.2c4.175-2.088,11.007-2.088,15.181,0l11.386,5.693c0.613,0.307,1.126,0.645,1.559,1
		C438.732,165.442,436.879,165.319,434.879,165.337"/>
	<path clip-path="url(#SVGID_4_)" fill="#960C23" d="M438.892,172.272l-44.12,22.2c-3.206,1.603-7.976,1.97-11.909,1.111
		c0.872-1.757,1.98-3.572,3.35-5.434c11.541-15.681,29.196-24.637,48.666-24.812c1.999-0.018,3.853,0.105,5.572,0.345
		c0.046,0.039,0.085,0.079,0.129,0.117C442.938,167.851,442.387,170.524,438.892,172.272"/>
	<polygon clip-path="url(#SVGID_4_)" fill="#E58D9B" points="439.744,189.971 443.282,188.202 443.282,191.74 439.744,193.509 	"/>
	<polygon clip-path="url(#SVGID_4_)" fill="#E58D9B" points="409.962,204.865 435.55,192.068 435.55,195.606 409.962,208.403 	"/>
	<path clip-path="url(#SVGID_4_)" fill="#960C23" d="M337.687,181.621v0.053c0.004-0.009,0.008-0.018,0.008-0.018
		c1.78,3.912,5.709,7.639,11.814,10.692c0.448,0.223,0.911,0.433,1.373,0.645v0.006l26.352,13.179v9.852l-26.352-13.258
		c-0.462-0.212-0.925-0.421-1.373-0.645c-8.61-4.305-12.915-9.947-12.915-15.589v-0.001v-9.779
		C336.594,178.39,336.966,180.021,337.687,181.621"/>
	<path clip-path="url(#SVGID_4_)" fill="#960C23" d="M360.03,127.764c0.336-0.181,0.683-0.348,1.038-0.5l0.034-0.016l-0.002,0.002
		c4.525-1.921,10.574-1.454,17.222,1.87c14.017,7.01,25.38,24.056,25.38,38.073c0,0.547-0.023,1.077-0.057,1.599v2.304l-7.374,3.55
		v-2.295c0.034-0.522,0.057-1.052,0.057-1.599c0-14.017-11.362-31.062-25.38-38.072c-5.063-2.533-9.775-3.401-13.735-2.827
		l-3.811,2.575l-0.42-1.271L360.03,127.764z"/>
	<path clip-path="url(#SVGID_4_)" fill="#C8102E" d="M352.943,167.507l-7.374,3.163v-25.303c0-8.954,4.641-14.498,11.645-15.513
		c-2.697,2.682-4.271,6.74-4.271,11.954V167.507z"/>
	<path clip-path="url(#SVGID_4_)" fill="#960C23" d="M130.102,707.632c-18.153-9.078-39.502,0.017-39.502,18.17v0.01
		c0.915-16.876,15.259-23.477,32.821-14.695c18.154,9.079,32.869,31.155,32.869,49.308c0,17.798-16.653,30.353-26.251,36.113
		c0.023,0.025,0.063,0.069,0.063,0.069s32.869-14.67,32.869-39.668C162.971,738.786,148.254,716.711,130.102,707.632"/>
	<path clip-path="url(#SVGID_4_)" fill="#E58D9B" d="M130.102,752.119c-6.417-3.209-11.619-11.012-11.619-17.429
		c0-1.403,0.262-2.612,0.719-3.63c-4.328-0.475-7.399,2.19-7.399,7.116c0,6.416,5.202,14.219,11.618,17.429
		c5.013,2.507,9.271,1.456,10.901-2.178C133.013,753.284,131.593,752.865,130.102,752.119"/>
	<path clip-path="url(#SVGID_4_)" fill="#C8102E" d="M156.29,760.425c0-18.153-14.716-40.229-32.869-49.307
		c-17.562-8.783-31.906-2.182-32.821,14.694c-0.031,0.568-0.048,1.147-0.048,1.737c0,27.737,32.869,72.544,32.869,72.544
		s2.734-1.224,6.618-3.554C139.637,790.777,156.29,778.223,156.29,760.425 M123.421,755.605
		c-6.417-3.21-11.619-11.013-11.619-17.429c0-4.925,3.072-7.591,7.399-7.116c1.309,0.145,2.729,0.562,4.22,1.308
		c6.417,3.209,11.618,11.013,11.618,17.429c0,1.404-0.262,2.613-0.718,3.631C132.692,757.062,128.434,758.112,123.421,755.605"/>
</g>
</svg>
