<?xml version="1.0" encoding="utf-8"?>
<!-- Generator: Adobe Illustrator 16.0.0, SVG Export Plug-In . SVG Version: 6.00 Build 0)  -->
<!DOCTYPE svg PUBLIC "-//W3C//DTD SVG 1.1//EN" "http://www.w3.org/Graphics/SVG/1.1/DTD/svg11.dtd">
<svg version="1.1" id="Layer_1" xmlns="http://www.w3.org/2000/svg" xmlns:xlink="http://www.w3.org/1999/xlink" x="0px" y="0px"
	 width="1080px" height="1080px" viewBox="0 0 1080 1080" enable-background="new 0 0 1080 1080" xml:space="preserve">
<g>
	<g>
		<g>
			<path fill="#00205B" d="M343.117,819.992c0,6.326-0.649,12.395-1.973,18.215c-1.306,5.828-3.189,11.301-5.651,16.4
				c-2.442,5.118-5.481,9.862-9.089,14.234c-3.598,4.37-7.676,8.244-12.252,11.604l37.254,40.683h-28.067
				c-4.034,0-7.703-0.471-11.009-1.466c-3.296-0.96-6.219-2.94-8.777-5.898l-18.276-20.489c-2.95,0.587-5.962,1.066-9.027,1.403
				c-3.065,0.338-6.202,0.517-9.436,0.517c-11.443,0-21.875-1.92-31.301-5.759c-9.409-3.837-17.467-9.133-24.167-15.885
				c-6.69-6.771-11.888-14.731-15.54-23.883c-3.669-9.151-5.517-19.031-5.517-29.676c0-10.625,1.848-20.523,5.517-29.675
				c3.652-9.151,8.85-17.095,15.54-23.829c6.7-6.717,14.758-12.012,24.167-15.841c9.426-3.83,19.857-5.749,31.301-5.749
				c11.435,0,21.857,1.919,31.239,5.792c9.383,3.865,17.415,9.17,24.078,15.904c6.654,6.726,11.816,14.66,15.485,23.812
				C341.287,799.575,343.117,809.438,343.117,819.992z M308.191,819.992c0-7.268-0.942-13.806-2.826-19.635
				c-1.883-5.828-4.584-10.751-8.121-14.785c-3.544-4.033-7.862-7.125-12.98-9.293c-5.101-2.132-10.929-3.225-17.45-3.225
				c-6.602,0-12.465,1.093-17.618,3.225c-5.144,2.168-9.489,5.26-13.026,9.293c-3.527,4.034-6.246,8.957-8.129,14.785
				c-1.883,5.829-2.826,12.367-2.826,19.635c0,7.34,0.942,13.914,2.826,19.743c1.883,5.801,4.602,10.731,8.129,14.784
				c3.537,4.023,7.882,7.107,13.026,9.24c5.153,2.096,11.017,3.181,17.618,3.181c6.521,0,12.35-1.085,17.45-3.181
				c5.118-2.133,9.436-5.217,12.98-9.24c3.537-4.053,6.238-8.983,8.121-14.784C307.249,833.906,308.191,827.332,308.191,819.992z"/>
			<path fill="#00205B" d="M487.868,893.567h-34.313V831.4h-59.76v62.167h-34.331V746.516h34.331v61.465h59.76v-61.465h34.313
				V893.567z"/>
			<path fill="#00205B" d="M584.375,893.567c-2.968,0-5.207-0.399-6.717-1.199c-1.528-0.809-2.79-2.487-3.785-5.056l-2.221-5.748
				c-2.631,2.222-5.153,4.176-7.57,5.863c-2.435,1.671-4.939,3.11-7.517,4.274c-2.595,1.182-5.349,2.053-8.28,2.639
				c-2.933,0.568-6.185,0.854-9.738,0.854c-4.797,0-9.116-0.622-13.024-1.866c-3.91-1.262-7.215-3.109-9.952-5.526
				c-2.718-2.435-4.833-5.456-6.309-9.062c-1.475-3.626-2.221-7.783-2.221-12.51c0-3.714,0.942-7.517,2.826-11.426
				c1.883-3.927,5.153-7.499,9.791-10.698c4.655-3.216,10.911-5.898,18.783-8.049c7.872-2.168,17.788-3.252,29.782-3.252v-4.486
				c0-6.175-1.263-10.636-3.785-13.39c-2.541-2.754-6.113-4.123-10.75-4.123c-3.714,0-6.735,0.409-9.081,1.209
				c-2.364,0.8-4.478,1.723-6.326,2.718c-1.848,1.013-3.643,1.938-5.402,2.737c-1.741,0.809-3.837,1.208-6.255,1.208
				c-2.15,0-3.98-0.533-5.49-1.564c-1.51-1.048-2.719-2.345-3.589-3.891l-5.651-9.791c6.326-5.58,13.345-9.738,21.058-12.475
				c7.694-2.7,15.957-4.068,24.771-4.068c6.325,0,12.03,1.029,17.112,3.074c5.082,2.051,9.382,4.903,12.918,8.582
				c3.519,3.678,6.237,8.014,8.121,13.061c1.883,5.064,2.825,10.573,2.825,16.562v65.4H584.375z M548.427,874.492
				c4.034,0,7.57-0.711,10.608-2.115c3.021-1.412,6.077-3.695,9.188-6.867v-14.331c-6.256,0-11.408,0.408-15.442,1.226
				c-4.033,0.817-7.249,1.83-9.595,3.057c-2.347,1.218-3.98,2.612-4.905,4.176c-0.906,1.556-1.35,3.252-1.35,5.082
				c0,3.607,0.959,6.131,2.915,7.587C541.799,873.764,544.66,874.492,548.427,874.492z"/>
			<path fill="#00205B" d="M696.395,813.737c-0.941,1.138-1.831,2.044-2.719,2.72c-0.87,0.675-2.114,1.013-3.731,1.013
				c-1.546,0-2.932-0.373-4.193-1.12c-1.227-0.728-2.647-1.563-4.194-2.452c-1.546-0.924-3.358-1.759-5.438-2.487
				c-2.078-0.747-4.69-1.102-7.765-1.102c-3.839,0-7.161,0.693-9.951,2.114c-2.79,1.403-5.1,3.43-6.912,6.05
				c-1.813,2.64-3.163,5.838-4.034,9.641s-1.333,8.095-1.333,12.865c0,10.04,1.955,17.734,5.812,23.136
				c3.873,5.367,9.204,8.068,16.01,8.068c3.625,0,6.521-0.453,8.618-1.368c2.133-0.906,3.928-1.929,5.402-3.021
				c1.475-1.119,2.843-2.132,4.104-3.083c1.227-0.941,2.79-1.413,4.674-1.413c2.487,0,4.371,0.906,5.65,2.719l9.098,11.195
				c-3.234,3.714-6.628,6.727-10.199,9.044c-3.554,2.328-7.215,4.141-10.946,5.447c-3.731,1.324-7.498,2.23-11.248,2.728
				c-3.768,0.506-7.445,0.765-11.018,0.765c-6.379,0-12.491-1.218-18.32-3.635c-5.811-2.407-10.928-5.926-15.335-10.546
				s-7.907-10.289-10.502-17.023c-2.595-6.717-3.874-14.394-3.874-23.012c0-7.517,1.102-14.571,3.376-21.146
				c2.239-6.557,5.58-12.243,10.005-17.059c4.389-4.798,9.845-8.583,16.33-11.355c6.504-2.754,14.021-4.122,22.567-4.122
				c8.21,0,15.406,1.297,21.591,3.927c6.201,2.63,11.781,6.469,16.773,11.515L696.395,813.737z"/>
			<path fill="#00205B" d="M750.308,742.464v84.689h4.638c1.955,0,3.465-0.267,4.496-0.799c1.048-0.533,2.025-1.528,2.968-2.933
				l19.794-29.479c1.138-1.743,2.506-3.021,4.088-3.83c1.581-0.809,3.571-1.209,6.006-1.209h28.681l-27.063,37.255
				c-1.279,1.741-2.684,3.287-4.193,4.637c-1.511,1.333-3.146,2.56-4.904,3.626c3.038,2.283,5.668,5.33,7.889,9.098l29.48,50.048
				h-28.271c-2.363,0-4.39-0.364-6.112-1.164c-1.706-0.764-3.11-2.114-4.194-4.068l-19.777-37.05
				c-0.941-1.688-1.901-2.772-2.914-3.287c-1.013-0.498-2.541-0.765-4.549-0.765h-6.06v46.334h-31.293V742.464H750.308z"/>
			<path fill="#00205B" d="M899.288,811.801c-0.818,1.297-1.653,2.203-2.576,2.736c-0.906,0.533-2.062,0.818-3.483,0.818
				c-1.475,0-2.949-0.32-4.425-0.96c-1.492-0.64-3.092-1.333-4.798-2.079c-1.724-0.729-3.66-1.422-5.811-2.062
				s-4.62-0.959-7.374-0.959c-3.963,0-7.002,0.755-9.134,2.274c-2.114,1.51-3.181,3.606-3.181,6.308
				c0,1.955,0.692,3.572,2.079,4.842c1.368,1.271,3.198,2.408,5.49,3.386c2.292,0.977,4.887,1.901,7.783,2.772
				c2.879,0.889,5.846,1.848,8.867,2.914c3.039,1.083,6.006,2.345,8.902,3.784c2.879,1.467,5.474,3.234,7.766,5.367
				c2.293,2.114,4.122,4.673,5.49,7.712c1.387,3.038,2.079,6.682,2.079,10.91c0,5.171-0.959,9.951-2.843,14.323
				c-1.884,4.389-4.673,8.146-8.422,11.318c-3.714,3.146-8.335,5.615-13.826,7.356c-5.49,1.76-11.78,2.631-18.925,2.631
				c-3.57,0-7.125-0.339-10.696-1.014s-7.02-1.581-10.359-2.737c-3.306-1.137-6.397-2.504-9.223-4.068
				c-2.825-1.581-5.242-3.287-7.268-5.1l7.268-11.515c0.87-1.333,1.919-2.407,3.128-3.181c1.208-0.773,2.789-1.156,4.762-1.156
				c1.812,0,3.43,0.41,4.886,1.21c1.439,0.8,3.004,1.67,4.691,2.629c1.688,0.925,3.643,1.812,5.9,2.612
				c2.256,0.817,5.1,1.227,8.529,1.227c2.435,0,4.478-0.267,6.148-0.773c1.688-0.506,3.038-1.182,4.051-2.07
				c1.013-0.87,1.759-1.83,2.222-2.914c0.479-1.066,0.692-2.186,0.692-3.341c0-2.079-0.692-3.803-2.097-5.153
				c-1.421-1.35-3.287-2.487-5.562-3.465c-2.293-0.978-4.904-1.884-7.819-2.736c-2.932-0.835-5.917-1.795-8.938-2.879
				c-3.039-1.065-6.007-2.363-8.938-3.873c-2.933-1.529-5.527-3.447-7.819-5.758c-2.293-2.328-4.141-5.171-5.544-8.529
				c-1.421-3.358-2.133-7.445-2.133-12.226c0-4.425,0.854-8.662,2.576-12.652c1.725-4.016,4.283-7.534,7.731-10.556
				c3.429-3.02,7.729-5.429,12.918-7.213c5.17-1.786,11.23-2.666,18.16-2.666c3.767,0,7.428,0.338,10.964,0.995
				c3.519,0.675,6.841,1.617,9.933,2.825c3.093,1.227,5.918,2.639,8.494,4.282c2.541,1.671,4.799,3.466,6.735,5.402L899.288,811.801
				z"/>
		</g>
	</g>
	<g>
		<polygon fill="#FEDB00" points="374.16,532.747 392.943,552.116 530.64,594.336 450.285,504.262 		"/>
		<polygon fill="#C8102E" points="646.551,504.298 566.001,594.318 704.302,552.045 722.979,532.783 		"/>
		<polygon fill="#C8102E" points="511.377,339.307 461.409,495.697 541.23,585.185 541.23,401.074 521.488,339.325 		"/>
		<polygon fill="#00205B" points="574.921,339.343 555.197,401.074 555.197,585.398 635.498,495.697 585.512,339.307 		"/>
		<polygon fill="#00205B" points="895.539,395.14 879.014,391.994 731.97,543.587 809.8,519.792 854.793,616.3 903.517,460.603
			"/>
		<polygon fill="#C8102E" points="687.937,324.896 623.699,247.989 594.184,279.068 579.399,325.349 		"/>
		<polygon fill="#FEDB00" points="889.977,349.631 846.602,286.922 774.03,357.788 893.744,380.568 		"/>
		<polygon fill="#FEDB00" points="578.031,605.265 846.139,630.8 802.284,536.728 		"/>
		<polygon fill="#C8102E" points="1014.666,232.894 894.063,267.508 913.681,428.51 		"/>
		<polygon fill="#C8102E" points="218.223,391.994 201.724,395.14 193.754,460.603 242.46,616.3 287.462,519.792 365.24,543.622
			"/>
		<polygon fill="#00205B" points="517.028,325.34 501.817,277.735 473.563,247.989 409.327,324.896 		"/>
		<polygon fill="#FEDB00" points="203.501,380.568 323.233,357.788 250.662,286.922 207.269,349.631 		"/>
		<polygon fill="#00205B" points="518.574,605.265 294.988,536.728 251.124,630.8 		"/>
		<polygon fill="#00205B" points="82.588,232.894 183.582,428.51 203.199,267.508 		"/>
		<polygon fill="#FEDB00" points="493.715,206.461 548.195,376.996 602.713,206.461 548.195,146.685 		"/>
	</g>
</g>
</svg>
