<?xml version="1.0" encoding="UTF-8"?>
<svg width="351px" height="67px" viewBox="0 0 351 67" version="1.1" xmlns="http://www.w3.org/2000/svg" xmlns:xlink="http://www.w3.org/1999/xlink">
    <!-- Generator: Sketch 46.2 (44496) - http://www.bohemiancoding.com/sketch -->
    <title>1password-black</title>
    <desc>Created with Sketch.</desc>
    <defs></defs>
    <g id="Page-1" stroke="none" stroke-width="1" fill="none" fill-rule="evenodd">
        <g id="1Password" transform="translate(-79.000000, -72.000000)">
            <g id="1password-black" transform="translate(79.000000, 72.000000)">
                <path d="M19.4566184,10.4299897 L19.4566184,47.6911427 C19.4566184,48.8546441 19.5300432,49.0728469 20.6247404,49.1453346 L26.6070087,49.6557071 L26.6070087,55.4036853 L1.00028983,55.4036853 L1.00028983,49.6557071 L7.27329071,49.1453346 C8.2953048,49.0728469 8.44067111,48.7821565 8.44067111,47.6911427 L8.44067098,22.5636832 C8.44067098,21.5214181 7.65329017,21.6933844 2.1692403,23.5427315 C2.1692403,23.5427313 0.145656131,17.5758108 0.145656131,17.5758108 L12.6794984,10.4299897 L19.4566184,10.4299897 Z M43.6374125,10.6554789 L47.9427767,10.6554789 C53.1210803,10.6554789 57.4264445,11.891468 57.4264445,18.8769147 C57.4264445,27.0990902 52.1005496,28.190104 47.2856617,28.190104 L43.6374125,28.190104 L43.6374125,10.6554789 Z M48.9633075,35.975874 L43.6374125,35.975874 L43.6374125,47.6175455 C43.6374125,48.7825263 43.7108373,48.9275017 44.8055346,49.0732167 L55.2377917,49.6553373 L55.2377917,55.4033155 L26.639197,55.4033155 L26.639197,49.6553373 L31.2352937,49.1457044 C32.2558245,49.000729 32.4026741,48.7825263 32.4026741,47.6907729 L32.4026741,10.5097638 C32.4026741,9.41875008 32.2558245,9.1265803 31.2352937,9.0540926 L26.639197,8.54519941 L26.639197,2.72399383 L51.3707514,2.72399383 C64.8690508,2.72399383 68.9533988,9.85515558 68.9533988,18.2223065 C68.9533988,30.882504 61.2942264,35.975874 48.9633075,35.975874 Z M89.8277771,45.7992879 C88.150873,47.035277 85.6700042,48.4184605 83.1891355,48.4184605 C80.7816915,48.4184605 79.030621,47.3274468 79.030621,44.4161043 C79.030621,41.5055015 80.5629004,40.4144878 84.8660396,40.1237973 L89.8277771,39.7598795 L89.8277771,45.7992879 Z M123.365859,31.9016218 C129.129337,33.2108383 135.623354,35.2486301 135.623354,43.7614961 C135.623354,52.6382798 128.401022,56.2767183 119.134662,56.2767183 C113.135335,56.2767183 107.268767,54.8528528 105.222513,53.9334426 L105.222513,55.4031676 L91.7976388,55.4031676 L91.067099,51.4740387 L90.7029416,51.401551 C87.9313402,54.0939511 84.2830911,56.2767183 78.4461891,56.2767183 C69.2547372,56.2767183 67.7943992,50.0198468 67.7943992,45.5078578 C67.7943992,38.2317206 72.3185545,34.8847123 81.4380649,34.3025918 L89.8277771,33.7212109 L89.8277771,29.7188547 C89.8277771,26.298619 89.4636197,23.9708764 84.9394644,23.9708764 C81.4380649,23.9708764 79.6135695,24.4797696 79.6135695,28.8460437 L69.325937,27.9717533 C69.325937,18.1496709 78.3008228,16.7664873 85.0128892,16.7664873 C96.1022613,16.7664873 100.552992,19.7510571 100.552992,29.9370574 L100.552992,47.6181372 C100.552992,48.7823784 100.626417,48.9273537 101.720372,49.0730688 L104.688515,49.5664289 L104.688515,43.1068878 L112.495278,43.6890084 L113.225818,47.83634 C113.297018,48.4909482 113.444609,48.7823784 114.100983,48.9273537 C114.976147,49.2187839 116.946009,49.6551894 119.719094,49.6551894 C123.58465,49.6551894 125.773303,48.5641756 125.773303,45.8717756 C125.773303,42.9611728 122.854852,42.0883618 119.134662,41.4330138 C113.007027,40.3420001 104.981472,39.0327836 104.981472,29.5006519 C104.981472,20.4781531 112.71407,16.7664873 121.103782,16.7664873 C126.867259,16.7664873 132.48537,18.0771832 134.528656,18.8767668 L134.528656,29.4274245 L126.721893,28.9185313 L125.992094,25.1343779 C125.920153,24.5522573 125.773303,24.2615669 125.26378,24.1158518 C124.31519,23.8251614 122.56412,23.5337313 120.594258,23.5337313 C116.946009,23.5337313 114.902722,24.9161751 114.902722,27.2446574 C114.902722,30.2277479 118.915871,30.8823561 123.365859,31.9016218 Z M335.388987,44.5621892 C333.419126,46.2360632 330.719466,47.6909948 328.238597,47.6909948 C323.641017,47.6909948 321.599955,43.7618659 321.599955,36.7039315 C321.599955,30.2281177 323.715183,25.2072354 329.114503,25.2072354 C331.22899,25.2072354 333.564492,26.1532738 335.388987,27.3907423 L335.388987,44.5621892 Z M347.49889,49.1459263 L351.00029,49.6555592 L351.00029,55.4035374 L337.430791,55.4035374 L336.701734,51.3286935 L336.190727,51.2554661 C333.12691,54.2385566 329.552085,56.2763484 324.226191,56.2763484 C315.617687,56.2763484 310.073001,50.8190606 310.073001,36.9221343 C310.073001,22.2973723 317.439958,16.7668572 325.538937,16.7668572 C329.770877,16.7668572 333.053485,18.2217887 335.82657,20.2595805 L335.82657,9.20002956 C335.82657,8.47219395 335.534354,7.96330075 334.87798,7.745098 L330.864832,6.36191446 L331.666572,0.468221186 L346.33151,0.468221186 L346.33151,47.7634825 C346.33151,48.8552359 346.404935,49.0009509 347.49889,49.1459263 Z M224.642339,23.8976491 C223.621808,24.0433641 223.184226,24.4072819 222.891268,25.3533203 L213.918607,55.4031676 L202.39017,55.4031676 L196.700117,31.0288108 L196.262535,31.0288108 L190.499058,55.4031676 L177.366399,55.4031676 L168.173464,25.2808326 C167.882732,24.4072819 167.516349,24.2615669 166.641185,24.0433641 L165.931411,23.8917317 L165.931411,29.4274245 L158.124648,28.9185313 L157.39485,25.1343779 C157.322908,24.5522573 157.176058,24.2615669 156.666535,24.1158518 C155.717945,23.8251614 153.966875,23.5337313 151.997013,23.5337313 C148.348764,23.5337313 146.305477,24.9161751 146.305477,27.2446574 C146.305477,30.2277479 150.318626,30.8830958 154.768615,31.9016218 C160.532092,33.2108383 167.026109,35.2486301 167.026109,43.7614961 C167.026109,52.6390195 159.803777,56.2767183 150.537417,56.2767183 C143.898034,56.2767183 137.404758,54.5303566 136.09127,53.6575456 L136.09127,43.1068878 L143.898034,43.6890084 L144.628573,47.83634 C144.699773,48.4909482 144.847364,48.7823784 145.503738,48.9273537 C146.378902,49.2187839 148.348764,49.6551894 151.121849,49.6551894 C154.987406,49.6551894 157.176058,48.5641756 157.176058,45.8717756 C157.176058,42.9611728 154.257607,42.0883618 150.537417,41.4330138 C144.409041,40.3420001 136.384227,39.0327836 136.384227,29.5006519 C136.384227,20.4781531 144.116825,16.7664873 152.506537,16.7664873 C157.272475,16.7664873 161.933096,17.6622281 164.560815,18.4248282 L164.744748,17.4950626 L183.203301,17.4950626 L183.203301,23.5337313 L179.11747,23.9708764 L184.954372,44.4161043 L185.465379,44.4161043 L191.957171,18.4403613 L202.974602,18.4403613 L209.249827,44.4161043 L209.68741,44.4161043 L215.158671,23.9708764 L211.000156,23.5337313 L211.947262,17.4950626 L227.270057,17.4950626 L227.270057,19.6401066 C226.361518,20.9715132 225.562003,22.3805852 224.873738,23.8525292 L224.642339,23.8976491 Z M300.08285,25.7170162 C298.186414,25.7170162 295.925078,27.3176628 294.83038,28.2637012 L294.83038,47.5454276 C294.83038,48.7089291 294.903805,48.9271318 295.998502,49.0010989 L303.220093,49.5824798 L303.220093,55.4036853 L279.362219,55.4036853 L279.362219,49.5099921 L282.647053,49.0728469 C283.667583,48.9271318 283.81295,48.7089291 283.81295,47.6179153 L283.81295,26.2983971 C283.81295,25.4988135 283.594159,24.9891806 282.865844,24.7709778 L279.356286,23.5401664 C279.242811,23.3034719 279.118953,23.0734344 278.999545,22.8404383 L279.728602,17.4948407 L292.568303,17.4948407 L293.444209,23.3153066 L293.881791,23.3153066 C296.289235,19.6051202 299.499902,16.7670051 304.169424,16.7670051 C305.846328,16.7670051 309.202361,17.0584352 310.515849,17.422353 L310.515849,30.6646711 L301.76198,30.3739807 L301.03144,26.5173395 C300.886073,25.8619916 300.667282,25.7170162 300.08285,25.7170162 Z" id="Fill-1" fill="#020203"></path>
                <g id="app-icon" transform="translate(221.000000, 5.000000)">
                    <path d="M31,7 C44.2547239,7 55,17.7452761 55,31 C55,44.2552238 44.2547239,55 31,55 C17.7452761,55 7,44.2552238 7,31 C7,17.7452761 17.7452761,7 31,7" id="color" fill="#198CFF"></path>
                    <g id="lock">
                        <g id="Chrome">
                            <path d="M1,31 C1,14.4314385 14.4314385,1 31,1 C47.5685615,1 61,14.4314385 61,31 C61,47.5690788 47.5685615,61 31,61 C14.4314385,61 1,47.5690788 1,31 Z M7,31 C7,44.2552238 17.7452761,55 31,55 C44.2547239,55 55,44.2552238 55,31 C55,17.7452761 44.2547239,7 31,7 C17.7452761,7 7,17.7452761 7,31 Z" id="chrome" fill="#FFFFFF"></path>
                            <path d="M0,31 C0,48.1213814 13.8791531,62 31,62 C48.1208469,62 62,48.1213814 62,31 C62,13.8791531 48.1208469,0 31,0 C13.8791531,0 0,13.8791531 0,31 L0,31 Z M1,31 L1,31 C1,14.4332523 14.4295951,1 31,1 C47.5704049,1 61,14.4332523 61,31 C61,47.5670777 47.5705748,61 31,61 C14.4294252,61 1,47.5670777 1,31 L1,31 Z M8,30.9979191 C8,43.6996927 18.2975563,53.9958382 31,53.9958382 C43.7024437,53.9958382 54,43.6996927 54,30.9979191 C54,18.2966246 43.7024437,8 31,8 C18.2975563,8 8,18.2966246 8,30.9979191 L8,30.9979191 Z M7,31 L7,31 C7,17.7470124 17.7435015,7 31,7 C44.2564985,7 55,17.7470124 55,31 C55,44.2533049 44.256661,55 31,55 C17.743339,55 7,44.2533049 7,31 L7,31 Z" id="chrome" fill="#000000" fill-rule="nonzero" opacity="0.5"></path>
                            <path d="M41.3195702,56.0777316 C50.4488574,52.1865706 56.8475592,43.1506151 56.8475592,32.6222147 C56.8475592,18.5404225 45.4022862,7.12443149 31.2831253,7.12443149 C17.1644707,7.12443149 5.71869145,18.5404225 5.71869145,32.6222147 C5.71869145,46.6626063 17.0971425,58.0488089 31.1580874,58.1164637 C31.1150582,58.1169686 31.0730414,58.119998 31.0300121,58.119998 C16.2122588,58.119998 4.20001221,46.1390389 4.20001221,31.3599982 C4.20001221,16.5809576 16.2122588,4.59999847 31.0300121,4.59999847 C45.8477655,4.59999847 57.8600121,16.5809576 57.8600121,31.3599982 C57.8600121,42.5028455 51.0305115,52.051261 41.3195702,56.0777316 Z M30.5119332,58.4197413 C47.0646461,58.4197413 60.4832368,45.03672 60.4832368,28.52852 C60.4832368,26.9891221 60.3659333,25.4770386 60.1411447,24 C60.6982071,26.2784326 60.9999924,28.6563308 60.9999924,31.1053494 C60.9999924,47.6140648 47.5814017,60.9960554 31.0286887,60.9960554 C16.0195245,60.9960554 3.58793679,49.9929937 1.3999939,35.6338695 C4.59767709,48.7107634 16.4153592,58.4197413 30.5119332,58.4197413 Z" id="chrome-shadows" fill-opacity="0.100000001" fill="#000000"></path>
                        </g>
                        <path d="M31,13 C40.941,13 49,21.059 49,31 C49,40.9415 40.941,49 31,49 C21.059,49 13,40.9415 13,31 C13,21.059 21.059,13 31,13 L31,13 Z" id="inside" fill="#F2F2F2"></path>
                        <path d="M31,13 L31,13 L31,13 C21.059,13 13,21.059 13,31 C13,40.9415 21.059,49 31,49 C40.941,49 49,40.9415 49,31 C49,21.059 40.941,13 31,13 L31,13 Z M31,12 L31,12 C41.4932847,12 50,20.5067153 50,31 C50,41.4936164 41.4934531,50 31,50 C20.5065469,50 12,41.4936164 12,31 C12,20.5067153 20.5067153,12 31,12 L31,12 Z" id="inside" fill-opacity="0.25" fill="#000000" fill-rule="nonzero"></path>
                        <path d="M39,31 C39,35.4182239 35.4182761,39 31,39 C26.5817239,39 23,35.4182239 23,31 C23,26.5817761 26.5817239,23 31,23 C35.4182761,23 39,26.5817761 39,31 Z" id="Fill-12" fill-opacity="0.05" fill="#000000"></path>
                        <path d="M38,31 L38,31 C38,27.1340418 34.8659723,24 31,24 C27.1340277,24 24,27.1340418 24,31 C24,34.8659582 27.1340277,38 31,38 C34.8659723,38 38,34.8659582 38,31 L38,31 Z M39,31 C39,35.4182239 35.4182761,39 31,39 C26.5817239,39 23,35.4182239 23,31 C23,26.5817761 26.5817239,23 31,23 C35.4182761,23 39,26.5817761 39,31 L39,31 Z" id="Fill-12" fill-opacity="0.15" fill="#000000" fill-rule="nonzero"></path>
                        <path d="M39,31 L39,31 C39,26.5817761 35.4182761,23 31,23 C26.5817239,23 23,26.5817761 23,31 C23,35.4182239 26.5817239,39 31,39 C35.4182761,39 39,35.4182239 39,31 L39,31 Z M40,31 L40,31 C40,35.9705257 35.9705438,40 31,40 C26.0294562,40 22,35.9705257 22,31 C22,26.0294743 26.0294562,22 31,22 C35.9705438,22 40,26.0294743 40,31 L40,31 Z" id="Fill-12" fill="#FFFFFF" fill-rule="nonzero"></path>
                    </g>
                    <path d="M35,32.9294336 L33.0008751,34.7855153 L35,36.6420612 L35,45 L27,45 L27,19 L35,19 L35,32.9294336 Z M27,27.3579387 L27,31.0714949 L28.999625,29.2144847 L27,27.3579387 Z" id="keyhole-highlight" fill="#FFFFFF"></path>
                    <path d="M35,31.9294336 L33.0008751,33.7855153 L35,35.6420612 L35,44 L27,44 L27,18 L35,18 L35,31.9294336 Z M27,26.3579387 L27,30.0714949 L28.999625,28.2144847 L27,26.3579387 Z" id="keyhole" fill="#4D4D4D"></path>
                    <path d="M33.9996249,32.3579387 L32.500375,34.0712449 C32.500375,34.0712449 32.500375,35.0787588 32.500375,35.0787588 C32.500375,35.0787588 33.99925,36.9875327 33.9999997,36.9884875 L33.9996249,44 L28,44 L28,20 L33.9996249,20 L33.9996249,32.3579387 Z M28,31.6196524 L29.499625,29.9429557 L29.499625,28.9287551 L28,27.2150204 L28,31.6196524 Z" id="keyhole-center" fill="#808080"></path>
                </g>
            </g>
        </g>
    </g>
</svg>