<?xml version="1.0" encoding="UTF-8"?>
<svg width="544px" height="89px" viewBox="0 0 544 89" version="1.1" xmlns="http://www.w3.org/2000/svg" xmlns:xlink="http://www.w3.org/1999/xlink">
    <!-- Generator: Sketch 44.1 (41455) - http://www.bohemiancoding.com/sketch -->
    <title>Group</title>
    <desc>Created with Sketch.</desc>
    <defs></defs>
    <g id="Page-1" stroke="none" stroke-width="1" fill="none" fill-rule="evenodd">
        <g id="communitech" fill-rule="nonzero">
            <g id="Group" transform="translate(271.726540, 44.294775) scale(-1, 1) rotate(-180.000000) translate(-271.726540, -44.294775) translate(0.000000, -0.037450)">
                <path d="M331.834371,88.6305842 L343.267418,68.7456147 L343.267418,75.9814337 L358.573702,75.9814337 L358.573702,42.1240135 L382.789097,0 L407.999133,43.7994383 L407.999133,75.9783672 L426.520003,75.9783672 L433.801155,88.6305842 L331.834371,88.6305842 Z M362.664266,75.9783672 L404.921877,75.9783672 L404.921877,61.6115263 L391.258218,61.6115263 L391.258218,23.426481 L375.953268,23.426481 L375.949268,61.6115263 L362.664266,61.6115263 L362.664266,75.9783672 L362.664266,75.9783672 Z" id="Shape" fill="#2D7AC8"></path>
                <path d="M30.0451155,43.106789 L38.7896969,43.106789 L38.7896969,41.5276285 C38.7896969,35.1475213 37.6250593,31.0252244 35.2939176,29.1555378 C32.9631759,27.2883844 27.8107714,26.3509412 19.8328375,26.3509412 C10.7789305,26.3509412 5.21026974,27.8326375 3.12592185,30.7909635 C1.04064065,33.7518229 0,41.6629584 0,54.5257035 C0,62.1041807 1.40876478,67.0827229 4.23429414,69.4711965 C7.05915685,71.8575369 12.9632759,73.0544403 21.9499846,73.0544403 C28.4924877,73.0544403 32.864245,72.0669983 35.0579235,70.0998475 C37.2564019,68.1310967 38.3531745,64.2213278 38.3531745,58.3745406 L38.3859737,57.3303 L29.6413923,57.3303 L29.6413923,58.5125372 C29.6413923,61.5244619 29.0795397,63.4552136 27.9503679,64.2962592 C26.8227961,65.1415714 24.2436606,65.5660941 20.2224278,65.5660941 C14.8345625,65.5660941 11.5975767,64.9057107 10.5153371,63.5844104 C9.43096422,62.2599101 8.88937776,58.3501412 8.88937776,51.8331041 C8.88937776,43.0603901 9.37469896,37.8687866 10.3486746,36.2569602 C11.3226503,34.6450005 14.4699049,33.840354 19.7973717,33.840354 C24.1139305,33.840354 26.9159937,34.2830096 28.2019616,35.1761872 C29.4893961,36.0668316 30.1336466,38.027716 30.1336466,41.0536403 L30.0451155,43.106789 L30.0451155,43.106789 Z M69.5285284,73.0544403 C77.8537869,73.0544403 83.2172528,71.6659416 85.6093264,68.9004108 C88.0076664,66.1311467 89.2035032,59.9397015 89.2035032,50.3227419 C89.2035032,39.8140713 88.0024665,33.1893036 85.5915935,30.4549719 C83.1875203,27.7206403 77.3625992,26.3509412 68.1180303,26.3509412 C59.7927718,26.3509412 54.4065065,27.7023741 51.9664341,30.4055065 C49.5274284,33.1059723 48.3086589,39.051157 48.3086589,48.2419939 C48.3086589,59.1791872 49.5039624,66.0462155 51.9023024,68.8472121 C54.2945093,71.6492754 60.173029,73.0544403 69.5285284,73.0544403 L69.5285284,73.0544403 Z M68.8586785,65.5660941 C63.0442905,65.5660941 59.6463755,64.8145129 58.6687999,63.3145504 C57.6876244,61.8172545 57.1991033,56.6245844 57.1991033,47.7384065 C57.1991033,41.1588377 57.771489,37.1954701 58.9182603,35.853237 C60.0640984,34.5122038 63.4453472,33.840354 69.0570735,33.840354 C74.4226727,33.840354 77.6401923,34.5928685 78.7073656,36.1058973 C79.7782722,37.6173262 80.3125255,42.1994783 80.3125255,49.852887 C80.3125255,57.5308284 79.8078714,62.0687149 78.7928301,63.4672133 C77.7772555,64.8639784 74.4669383,65.5660941 68.8586785,65.5660941 L68.8586785,65.5660941 Z M155.036124,72.6788497 L155.036124,26.7258652 L146.332342,26.7258652 L146.332342,51.7809721 C146.332342,53.7809221 146.38834,56.0455322 146.501671,58.5818687 L146.669666,62.0167162 L146.834996,65.4123647 L146.567002,65.4123647 L145.525695,62.2145779 L144.51372,59.0219911 C143.572411,56.1469963 142.841762,54.027316 142.325775,52.6574835 L132.219628,26.7258652 L124.27036,26.7258652 L114.064882,52.4544219 C113.502362,53.8683866 112.760248,55.9918002 111.842537,58.8198628 L110.798297,62.0167162 L109.754056,65.1738373 L109.484196,65.1738373 L109.655125,61.8457872 L109.820188,58.4829379 C109.955651,55.8772697 110.022716,53.6470588 110.022716,51.7809721 L110.022716,26.7258652 L101.319867,26.7258652 L101.319867,72.6788497 L115.514845,72.6788497 L123.732907,51.4127147 C124.294226,49.9294184 125.033807,47.8102714 125.955251,45.0494071 L126.967092,41.8505537 L128.0088,38.6812996 L128.312392,38.6812996 L129.288501,41.8505537 L130.300342,45.0144746 C131.131655,47.6826746 131.850837,49.7930218 132.454022,51.3424497 L140.539153,72.6788497 L155.036124,72.6788497 L155.036124,72.6788497 Z M222.982425,72.6788497 L222.982425,26.7258652 L214.278643,26.7258652 L214.278643,51.7809721 C214.278643,53.7809221 214.334642,56.0455322 214.449305,58.5818687 L214.615968,62.0167162 L214.78263,65.4123647 L214.51197,65.4123647 L213.471996,62.2145779 L212.461355,59.0219911 C211.518712,56.1469963 210.78673,54.027316 210.27341,52.6574835 L200.165662,26.7258652 L192.216528,26.7258652 L182.010116,52.4544219 C181.45013,53.8683866 180.707482,55.9918002 179.787505,58.8198628 L178.743531,62.0167162 L177.699557,65.1738373 L177.431564,65.1738373 L177.59956,61.8457872 L177.767556,58.4829379 C177.902219,55.8772697 177.968884,53.6470588 177.968884,51.7809721 L177.968884,26.7258652 L169.266435,26.7258652 L169.266435,72.6788497 L183.46208,72.6788497 L191.679208,51.4127147 C192.240527,49.9294184 192.980509,47.8102714 193.901819,45.0494071 L194.913794,41.8505537 L195.955101,38.6812996 L196.25776,38.6812996 L197.235069,41.8505537 L198.247044,45.0144746 C199.079023,47.6826746 199.797672,49.7930218 200.39899,51.3424497 L208.485454,72.6788497 L222.982425,72.6788497 L222.982425,72.6788497 Z M266.783997,72.6788497 L275.487779,72.6788497 L275.487779,42.1172137 C275.487779,35.7283068 274.258477,31.507079 271.797205,29.4471305 C269.341266,27.3821154 264.312059,26.3509412 256.717582,26.3509412 C248.700449,26.3509412 243.44458,27.3274501 240.949976,29.2752681 C238.458038,31.2232194 237.211403,35.3351166 237.211403,41.6120263 L237.211403,72.6788497 L245.916519,72.6788497 L245.916519,41.6120263 C245.916519,38.2411773 246.524503,36.1006975 247.741806,35.1944535 C248.953776,34.2934093 251.812371,33.840354 256.314925,33.840354 C260.93081,33.840354 263.830737,34.2986092 265.013374,35.2127197 C266.193345,36.1293634 266.783997,38.373974 266.783997,41.9494846 L266.783997,72.6788497 L266.783997,72.6788497 Z M332.267693,72.6788497 L332.267693,26.7258652 L317.512062,26.7258652 L304.403056,51.9492346 C303.756406,53.2080031 302.739098,55.4074148 301.345799,58.5490696 L299.865836,61.8457872 L298.421873,65.1415714 L298.085881,65.1415714 L298.220544,62.1156471 L298.323208,59.1219886 L298.38854,53.0960059 L298.38854,26.7258652 L289.686091,26.7258652 L289.686091,72.6788497 L304.439055,72.6788497 L316.37209,49.3919652 C317.424064,47.3228169 318.6427,44.8202128 320.033332,41.8817529 L321.782622,38.144913 L323.530578,34.3715407 L323.831904,34.3715407 L323.727907,37.3359999 L323.629242,40.3011258 L323.561244,46.2253777 L323.561244,72.6788497 L332.267693,72.6788497 L332.267693,72.6788497 Z M346.568669,26.7258652 L355.271118,26.7258652 L355.271118,72.6788497 L346.568669,72.6788497 L346.568669,26.7258652 Z M387.958301,64.9109105 L387.958301,26.7258652 L379.255852,26.7258652 L379.255852,64.9109105 L365.966851,64.9109105 L365.966851,72.6788497 L401.620626,72.6788497 L401.620626,64.9109105 L387.958301,64.9109105 L387.958301,64.9109105 Z M420.004166,65.3786322 L420.004166,53.4945293 L441.620959,53.4945293 L441.620959,47.0378907 L420.004166,47.0378907 L420.004166,34.0251493 L442.931593,34.0251493 L442.931593,26.7258652 L411.301717,26.7258652 L411.301717,72.6788497 L442.744931,72.6788497 L442.744931,65.3786322 L420.004166,65.3786322 L420.004166,65.3786322 Z M483.994567,43.106789 L492.739681,43.106789 L492.739681,41.5276285 C492.739681,35.1475213 491.573044,31.0252244 489.245102,29.1555378 C486.911827,27.2883844 481.759956,26.3509412 473.782822,26.3509412 C464.728382,26.3509412 459.159187,27.8326375 457.076573,30.7909635 C454.989958,33.7518229 453.948651,41.6629584 453.948651,54.5257035 C453.948651,62.1041807 455.357949,67.0827229 458.183212,69.4711965 C461.008475,71.8575369 466.912327,73.0544403 475.900102,73.0544403 C482.439939,73.0544403 486.814496,72.0669983 489.005108,70.0998475 C491.206386,68.1310967 492.302359,64.2213278 492.302359,58.3745406 L492.335691,57.3303 L483.59191,57.3303 L483.59191,58.5125372 C483.59191,61.5244619 483.029257,63.4552136 481.901286,64.2962592 C480.770647,65.1415714 478.193378,65.5660941 474.172145,65.5660941 C468.78428,65.5660941 465.547028,64.9057107 464.464388,63.5844104 C463.377749,62.2599101 462.837762,58.3501412 462.837762,51.8331041 C462.837762,43.0603901 463.323083,37.8687866 464.299059,36.2569602 C465.271035,34.6450005 468.420289,33.840354 473.748156,33.840354 C478.064048,33.840354 480.865311,34.2830096 482.153279,35.1761872 C483.43858,36.0668316 484.083898,38.027716 484.083898,41.0536403 L483.994567,43.106789 L483.994567,43.106789 Z M543.337083,72.6788497 L543.337083,26.7258652 L534.634634,26.7258652 L534.634634,46.5691024 L513.109839,46.5691024 L513.109839,26.7258652 L504.408723,26.7258652 L504.408723,72.6788497 L513.109839,72.6788497 L513.109839,53.8683866 L534.634634,53.8683866 L534.634634,72.6788497 L543.337083,72.6788497 L543.337083,72.6788497 Z" id="Shape" fill="#231F20"></path>
            </g>
        </g>
    </g>
</svg>