<?xml version="1.0" encoding="utf-8"?>
<!-- Generator: Adobe Illustrator 19.0.0, SVG Export Plug-In . SVG Version: 6.00 Build 0)  -->
<svg version="1.1" id="Layer_1" xmlns="http://www.w3.org/2000/svg" xmlns:xlink="http://www.w3.org/1999/xlink" x="0px" y="0px"
	 viewBox="150 88.8 800 322.5" style="enable-background:new 150 88.8 800 322.5;" xml:space="preserve">
<style type="text/css">
	.st0{fill:#00B0DA;}
</style>
<path class="st0" d="M194.8,174.6h67.4v22.1h-67.4V174.6z M194.8,217.5h67.4v22.1h-67.4V217.5z M194.8,260.4h67.4v22.1h-67.4V260.4z
	 M194.8,303.3h67.4v22.1h-67.4V303.3z M151.2,346.2h155.7v22.1H151.2V346.2z M151.2,389.2h155.7v22.1H151.2V389.2z M150,131.7h155.7
	v22.1H150V131.7z M150,88.8h155.7v22.1H150V88.8z M757.5,196.7l-8-22.1H638v22.1L757.5,196.7z M705.4,239.6v-12.3l4.3,12.3h123.5
	l4.6-12.3v12.3h67.4v-22.1H778.7l-6.7,18.7l-6.8-18.7H638v22.1L705.4,239.6z M638,260.4h67.4v22.1H638V260.4z M818.4,282.5l7.7-22.1
	H717.7l8.1,22.1H818.4z M638,303.3h67.4v22.1H638V303.3z M594.4,346.2h111v22.1h-111L594.4,346.2z M594.4,389.2h111v22.1h-111
	L594.4,389.2z M803,325.4l8-22.1h-78l7.9,22.1H803z M788,368.3l7.6-22.1h-47.3l8.1,22.1H788z M771.5,411.2l1.3,0l7.9-22.1h-17.1
	L771.5,411.2z M593.2,131.7v22.1h149l-7.4-22.1L593.2,131.7z M593.2,88.8v22.1h134.3l-8-22.1L593.2,88.8z M905.2,196.7v-22.1H793.1
	l-8,22.1L905.2,196.7z M837.8,260.4h67.4v22.1h-67.4V260.4z M837.8,303.3h67.4v22.1h-67.4V303.3z M837.8,346.2H950v22.1H837.8V346.2
	z M837.8,389.2H950v22.1H837.8V389.2z M807.8,131.7l-7.4,22.1h148.4v-22.1H807.8z M823.7,88.8l-8,22.1h133V88.8L823.7,88.8z
	 M372.5,174.6H440v22.1h-67.4V174.6z M544.8,239.6c0,0,14.4-11.3,19-22.1H372.5v22.1H544.8z M372.5,260.4v22.1h191.3
	c-4.6-10.7-19-22.1-19-22.1L372.5,260.4L372.5,260.4z M372.5,303.3H440v22.1h-67.4V303.3z M573,196.7c0,0,4.3-11.6,4.3-22.1h-71.7
	v22.1H573L573,196.7z M505.6,303.3v22.1h71.7c0-10.4-4.3-22.1-4.3-22.1H505.6L505.6,303.3z M327.8,131.7v22.1h247.6
	c0,0-2.9-17-7.9-22.1L327.8,131.7L327.8,131.7z M567.5,368.3c5-5.1,7.9-22.1,7.9-22.1H327.8v22.1H567.5L567.5,368.3z M327.8,88.8
	v22.1h221.9c0,0-22.7-22.1-52.7-22.1L327.8,88.8L327.8,88.8z M497,411.2c30,0,52.7-22.1,52.7-22.1H327.8v22.1L497,411.2L497,411.2z"
	/>
</svg>
