<?xml version="1.0" encoding="UTF-8"?>
<svg width="800px" height="324px" viewBox="0 0 800 324" version="1.1" xmlns="http://www.w3.org/2000/svg" xmlns:xlink="http://www.w3.org/1999/xlink">
    <!-- Generator: Sketch 44.1 (41455) - http://www.bohemiancoding.com/sketch -->
    <title>ibm</title>
    <desc>Created with Sketch.</desc>
    <defs></defs>
    <g id="Page-1" stroke="none" stroke-width="1" fill="none" fill-rule="evenodd">
        <g id="ibm" fill-rule="nonzero" fill="#000000">
            <path d="M44.8,86.6 L112.2,86.6 L112.2,108.7 L44.8,108.7 L44.8,86.6 L44.8,86.6 Z M44.8,129.5 L112.2,129.5 L112.2,151.6 L44.8,151.6 L44.8,129.5 L44.8,129.5 Z M44.8,172.4 L112.2,172.4 L112.2,194.5 L44.8,194.5 L44.8,172.4 L44.8,172.4 Z M44.8,215.3 L112.2,215.3 L112.2,237.4 L44.8,237.4 L44.8,215.3 L44.8,215.3 Z M1.2,258.2 L156.9,258.2 L156.9,280.3 L1.2,280.3 L1.2,258.2 Z M1.2,301.2 L156.9,301.2 L156.9,323.3 L1.2,323.3 L1.2,301.2 Z M0,43.7 L155.7,43.7 L155.7,65.8 L0,65.8 L0,43.7 Z M0,0.8 L155.7,0.8 L155.7,22.9 L0,22.9 L0,0.8 Z M607.5,108.7 L599.5,86.6 L488,86.6 L488,108.7 L607.5,108.7 Z M555.4,151.6 L555.4,139.3 L559.7,151.6 L683.2,151.6 L687.8,139.3 L687.8,151.6 L755.2,151.6 L755.2,129.5 L628.7,129.5 L622,148.2 L615.2,129.5 L488,129.5 L488,151.6 L555.4,151.6 Z M488,172.4 L555.4,172.4 L555.4,194.5 L488,194.5 L488,172.4 Z M668.4,194.5 L676.1,172.4 L567.7,172.4 L575.8,194.5 L668.4,194.5 Z M488,215.3 L555.4,215.3 L555.4,237.4 L488,237.4 L488,215.3 Z M444.4,258.2 L555.4,258.2 L555.4,280.3 L444.4,280.3 L444.4,258.2 Z M444.4,301.2 L555.4,301.2 L555.4,323.3 L444.4,323.3 L444.4,301.2 Z M653,237.4 L661,215.3 L583,215.3 L590.9,237.4 L653,237.4 Z M638,280.3 L645.6,258.2 L598.3,258.2 L606.4,280.3 L638,280.3 Z M621.5,323.2 L622.8,323.2 L630.7,301.1 L613.6,301.1 L621.5,323.2 Z M443.2,43.7 L443.2,65.8 L592.2,65.8 L584.8,43.7 L443.2,43.7 Z M443.2,0.8 L443.2,22.9 L577.5,22.9 L569.5,0.8 L443.2,0.8 Z M755.2,108.7 L755.2,86.6 L643.1,86.6 L635.1,108.7 L755.2,108.7 Z M687.8,172.4 L755.2,172.4 L755.2,194.5 L687.8,194.5 L687.8,172.4 Z M687.8,215.3 L755.2,215.3 L755.2,237.4 L687.8,237.4 L687.8,215.3 Z M687.8,258.2 L800,258.2 L800,280.3 L687.8,280.3 L687.8,258.2 Z M687.8,301.2 L800,301.2 L800,323.3 L687.8,323.3 L687.8,301.2 Z M657.8,43.7 L650.4,65.8 L798.8,65.8 L798.8,43.7 L657.8,43.7 Z M673.7,0.8 L665.7,22.9 L798.7,22.9 L798.7,0.8 L673.7,0.8 Z M222.5,86.6 L290,86.6 L290,108.7 L222.6,108.7 L222.6,86.6 L222.5,86.6 Z M394.8,151.6 C394.8,151.6 409.2,140.3 413.8,129.5 L222.5,129.5 L222.5,151.6 L394.8,151.6 Z M222.5,172.4 L222.5,194.5 L413.8,194.5 C409.2,183.8 394.8,172.4 394.8,172.4 L222.5,172.4 L222.5,172.4 Z M222.5,215.3 L290,215.3 L290,237.4 L222.6,237.4 L222.6,215.3 L222.5,215.3 Z M423,108.7 C423,108.7 427.3,97.1 427.3,86.6 L355.6,86.6 L355.6,108.7 L423,108.7 L423,108.7 Z M355.6,215.3 L355.6,237.4 L427.3,237.4 C427.3,227 423,215.3 423,215.3 L355.6,215.3 L355.6,215.3 Z M177.8,43.7 L177.8,65.8 L425.4,65.8 C425.4,65.8 422.5,48.8 417.5,43.7 L177.8,43.7 L177.8,43.7 Z M417.5,280.3 C422.5,275.2 425.4,258.2 425.4,258.2 L177.8,258.2 L177.8,280.3 L417.5,280.3 L417.5,280.3 Z M177.8,0.8 L177.8,22.9 L399.7,22.9 C399.7,22.9 377,0.8 347,0.8 L177.8,0.8 L177.8,0.8 Z M347,323.2 C377,323.2 399.7,301.1 399.7,301.1 L177.8,301.1 L177.8,323.2 L347,323.2 L347,323.2 Z" id="Shape"></path>
        </g>
    </g>
</svg>