<?xml version="1.0" encoding="UTF-8"?>
<svg width="614px" height="183px" viewBox="0 0 614 183" version="1.1" xmlns="http://www.w3.org/2000/svg" xmlns:xlink="http://www.w3.org/1999/xlink">
    <!-- Generator: Sketch 44.1 (41455) - http://www.bohemiancoding.com/sketch -->
    <title>indico</title>
    <desc>Created with Sketch.</desc>
    <defs></defs>
    <g id="Page-1" stroke="none" stroke-width="1" fill="none" fill-rule="evenodd">
        <g id="indico" transform="translate(1.000000, 0.000000)" fill-rule="nonzero" fill="#000000">
            <path d="M365.723,121.339 C365.723,87.779 392.927,60.575 426.488,60.575 L426.488,60.555 L470.834,60.555 L470.834,82.809 L426.488,82.809 C405.213,82.809 387.979,100.063 387.979,121.338 C387.979,142.613 405.213,159.866 426.488,159.866 L470.834,159.866 L470.834,182.12 L426.488,182.12 L426.488,182.1 C392.925,182.1 365.723,154.899 365.723,121.339 L365.723,121.339 Z M22.674,61.513 L0.43,61.513 L22.674,61.513 Z M22.497,35.098 C22.497,41.143 17.597,46.041 11.552,46.041 C5.507,46.041 0.608,41.141 0.608,35.098 C0.608,29.054 5.508,24.154 11.552,24.154 C17.597,24.153 22.497,29.053 22.497,35.098 Z M102.627,61.448 C136.187,61.448 163.39,88.65 163.39,122.208 L163.41,122.208 L163.41,182.121 L141.155,182.121 L141.155,122.21 C141.155,100.935 123.902,83.702 102.627,83.702 C81.352,83.702 64.097,100.935 64.097,122.21 L64.097,182.122 L41.845,182.122 L41.845,122.21 L41.865,122.21 C41.865,88.651 69.068,61.449 102.628,61.449 L102.627,61.448 Z" id="Shape"></path>
            <g id="Group" transform="translate(335.688000, 42.535000) scale(-1, 1) rotate(-180.000000) translate(-335.688000, -42.535000) translate(323.813000, 23.160000)">
                <path d="M22.7425,0.3975 L0.4975,0.3975 L22.7425,0.3975 Z" id="Shape"></path>
                <g transform="translate(0.000000, 15.000000)" id="Shape">
                    <path d="M22.56625,11.80875 C22.56625,5.76468377 17.6665662,0.865 11.6225,0.865 C5.57843377,0.865 0.67875,5.76468377 0.67875,11.80875 C0.67875,17.8528162 5.57843377,22.7525 11.6225,22.7525 C17.6665662,22.7525 22.56625,17.8528162 22.56625,11.80875 Z"></path>
                </g>
            </g>
            <path d="M551.292,59.563 C517.445,59.563 490.002,87.006 490.002,120.853 C490.002,154.699 517.445,182.123 551.292,182.123 C585.138,182.123 612.562,154.699 612.562,120.853 C612.562,87.006 585.139,59.563 551.292,59.563 Z M551.292,83.378 C571.987,83.378 588.747,100.158 588.747,120.853 C588.747,141.546 571.985,158.328 551.292,158.328 C530.598,158.328 513.817,141.546 513.817,120.853 C513.817,100.159 530.597,83.378 551.292,83.378 Z M551.292,109.926 C545.269,109.926 540.388,114.809 540.388,120.83 C540.388,126.854 545.269,131.734 551.292,131.734 C557.314,131.734 562.195,126.853 562.195,120.83 C562.197,114.809 557.315,109.926 551.292,109.926 Z M283.068,0.888 L283.068,73.728 C272.445,64.874 258.782,59.561 243.869,59.561 C210.023,59.561 182.579,87.005 182.579,120.851 C182.579,154.698 210.023,182.121 243.869,182.121 C277.545,182.121 304.867,154.973 305.139,121.361 L305.139,0.887 L283.068,0.887 L283.068,0.888 Z M243.87,83.378 C264.564,83.378 281.325,100.158 281.325,120.853 C281.325,141.546 264.565,158.328 243.87,158.328 C223.175,158.328 206.395,141.546 206.395,120.853 C206.395,100.159 223.175,83.378 243.87,83.378 Z" id="Shape"></path>
            <path d="M0.431,61.513 L22.675,61.513 L22.675,182.124 L0.431,182.124 L0.431,61.513 Z M324.311,61.513 L346.554,61.513 L346.554,182.124 L324.311,182.124 L324.311,61.513 Z" id="Shape" stroke="#000000"></path>
        </g>
    </g>
</svg>