<?xml version="1.0" encoding="utf-8"?>
<!-- Generator: Adobe Illustrator 18.1.1, SVG Export Plug-In . SVG Version: 6.00 Build 0)  -->
<svg version="1.1" xmlns="http://www.w3.org/2000/svg" xmlns:xlink="http://www.w3.org/1999/xlink" x="0px" y="0px"
	 viewBox="0 0 88 100" enable-background="new 0 0 88 100" xml:space="preserve">
<g id="Loblaw_Digital">
</g>
<g id="Phoenix">
</g>
<g id="Magnet_Forensics_1_">
</g>
<g id="Bloomberg">
</g>
<g id="Wish">
</g>
<g id="lani">
</g>
<g id="Yelp">
</g>
<g id="Mozilla">
</g>
<g id="Microsoft">
</g>
<g id="Facebook">
</g>
<g id="Kik_1_">
	<g id="Kik_3_">
		<g>
			<path fill="#40B4E6" d="M83.7,46.6c2.9,0,4.4,2.3,4.4,5.1c0,2.8-1.6,5.1-4.4,5.1c-2.9,0-5.1-2.3-5.1-5.1
				C78.5,48.9,80.8,46.6,83.7,46.6z"/>
			<path fill="#82BC41" d="M42.5,64.8h-9.2V41.7h9.2V64.8z"/>
			<path fill="#82BC41" d="M37.9,60.1c2.5,0,4.6,2.1,4.6,4.6c0,2.6-2,4.6-4.6,4.6c-2.6,0-4.6-2.1-4.6-4.6
				C33.3,62.1,35.3,60.1,37.9,60.1z"/>
			<path fill="#82BC41" d="M37.9,36.9c2.5,0,4.6,2.1,4.6,4.6c0,2.6-2,4.6-4.6,4.6c-2.6,0-4.6-2.1-4.6-4.6
				C33.3,39,35.3,36.9,37.9,36.9z"/>
			<path fill="#82BC41" d="M4.6,60.1c2.5,0,4.5,2,4.5,4.6c0,2.6-2,4.6-4.5,4.6c-2.5,0-4.5-2-4.5-4.6C0.1,62.2,2.1,60.1,4.6,60.1z"/>
			<path fill="#82BC41" d="M4.6,24.9c2.5,0,4.5,2.1,4.5,4.6c0,2.6-2,4.6-4.5,4.6c-2.5,0-4.5-2.1-4.5-4.6C0.1,26.9,2.1,24.9,4.6,24.9
				z"/>
			<path fill="#82BC41" d="M0,29.7l9.2,0.1v17l8.6-8.4l6.8,6.4l-6,5.9L27,62l-7.5,5.4l-8-10.7l-2.3,2.1v6L0,64.5L0,29.7z"/>
			<path fill="#82BC41" d="M21.2,36.9c2.6,0,4.6,2,4.6,4.6c0,2.6-2,4.6-4.6,4.6s-4.6-2.1-4.6-4.6C16.6,39,18.7,36.9,21.2,36.9z"/>
			<path fill="#82BC41" d="M23.1,60c2.5,0,4.6,2.1,4.6,4.6c0,2.6-2,4.6-4.6,4.6c-2.5,0-4.6-2.1-4.6-4.6C18.5,62.1,20.6,60,23.1,60z"
				/>
			<path fill="#82BC41" d="M53.6,60.1c2.5,0,4.5,2,4.5,4.6c0,2.6-2,4.6-4.5,4.6c-2.5,0-4.5-2-4.5-4.6C49.1,62.2,51.1,60.1,53.6,60.1
				z"/>
			<path fill="#82BC41" d="M53.6,24.9c2.5,0,4.5,2.1,4.5,4.6c0,2.6-2,4.6-4.5,4.6c-2.5,0-4.5-2.1-4.5-4.6
				C49.1,26.9,51.1,24.9,53.6,24.9z"/>
			<path fill="#82BC41" d="M49,29.7l9.2,0.1v17l8.6-8.4l6.8,6.4l-6,5.9L76,62l-7.5,5.4l-8-10.7l-2.3,2.1v6L49,64.5L49,29.7z"/>
			<path fill="#82BC41" d="M70.2,36.9c2.6,0,4.6,2,4.6,4.6c0,2.6-2,4.6-4.6,4.6c-2.6,0-4.6-2.1-4.6-4.6C65.6,39,67.7,36.9,70.2,36.9
				z"/>
			<path fill="#82BC41" d="M72.1,60c2.5,0,4.6,2.1,4.6,4.6c0,2.6-2,4.6-4.6,4.6c-2.5,0-4.6-2.1-4.6-4.6C67.5,62.1,69.6,60,72.1,60z"
				/>
		</g>
	</g>
</g>
<g id="D2L">
</g>
<g id="Linode">
</g>
<g id="Braintree">
</g>
<g id="Velocity">
</g>
<g id="citi">
</g>
<g id="Course_Hero">
</g>
<g id="square">
</g>
<g id="Capco">
</g>
</svg>
