<?xml version="1.0" encoding="UTF-8"?>
<svg width="755px" height="256px" viewBox="0 0 755 256" version="1.1" xmlns="http://www.w3.org/2000/svg" xmlns:xlink="http://www.w3.org/1999/xlink">
    <!-- Generator: Sketch 44.1 (41455) - http://www.bohemiancoding.com/sketch -->
    <title>Loopio_Logo_Teal_256px</title>
    <desc>Created with Sketch.</desc>
    <defs></defs>
    <g id="Page-1" stroke="none" stroke-width="1" fill="none" fill-rule="evenodd">
        <g id="Loopio_Logo_Teal_256px" fill-rule="nonzero" fill="#3EC7C2">
            <path d="M729.6,70.3 C714,55 693.6,46.6 672,46.6 C628.1,46.6 593.3,80 590.7,123.6 L590.8,49.9 L565.3,49.9 L565.2,124.6 C564.5,103.8 556.1,84.5 541.5,69.9 C526.1,54.6 505.4,46.1 483.2,46.1 C438.8,46.1 403.7,80.1 401.8,124.2 C399.4,81 363.6,46.6 319.8,46.6 C295.9,46.6 274.2,56.2 258.8,73.6 C255.1,77.8 251.8,82.4 249.1,87.3 C242.9,98.3 239.3,110.8 238.5,123.7 C235.9,80.8 200.2,46.7 156.6,46.6 C110.9,46.6 75.2,82.6 75.1,128.6 C75.1,150.4 83.2,170 96.7,184.5 C85.3,184.5 76.6,184.4 75.7,184.3 C47.1,181.4 25.5,156.9 25.5,128.2 L25.6,0 L0.1,0 L0,128.2 C0,171.3 32.4,206.5 75.3,209.6 C76.8,209.7 174,210.3 174.2,210.3 L179,210.3 L173.5,204.7 L157.8,185.7 L156,185.7 C125.4,183.6 100.5,159.5 100.5,128.9 C100.5,97.9 125.8,72.4 156.8,72.4 C187.8,72.4 213.1,97.6 213,128.6 C213,147.5 203.5,165 187.6,175.5 L184.4,177.5 L200.9,197.5 L203.6,195.7 C224.1,181.6 236.8,158.8 238.4,134 C241,177.2 275.7,210.4 319.6,210.4 L319.7,210.4 C363.7,210.4 398.6,178 401.6,135.2 L401.6,256 L427.1,256 L427.1,188.3 C442,202.2 462.1,209.9 483.1,209.9 C527.4,209.9 563.6,174.5 565.1,130.6 L565,210 L590.5,210 L590.6,133.7 C593.1,176.9 627.9,210.2 671.9,210.2 L672,210.2 C718,210.2 754.1,174.4 754.1,128.7 C754.1,106.7 745.4,85.9 729.6,70.3 Z M483.2,71.6 C514.2,71.6 539.6,96.9 539.6,127.9 C539.6,158.9 514.4,184.1 483.4,184.1 C470.2,184.1 457.4,179.4 447.3,170.9 C434.5,160.2 426.9,144.4 426.9,127.8 C426.9,96.8 452.6,71.6 482.9,71.6 L483.2,71.6 Z M265.3,115.5 C267.9,104.5 274.1,94.7 282.5,87 C292.9,77.4 305.6,72.1 321.1,72.1 L320.7,72.1 C335.8,72.1 349.7,78 360.3,88.6 C370.9,99.2 376.6,113.4 376.6,128.4 C376.6,159.4 351.3,184.6 320.2,184.6 C289.2,184.6 263.9,159.3 263.9,128.3 C263.9,124 264.3,119.6 265.3,115.5 Z M671.3,72.1 L671.8,72.1 C686.9,72.1 701.3,78 711.9,88.6 C722.5,99.2 728.4,113.4 728.4,128.5 C728.4,159.5 703.2,184.7 672.1,184.7 C641.1,184.7 615.4,159.4 615.4,128.4 C615.6,97.3 641.1,72.1 671.3,72.1 Z" id="Shape"></path>
            <path d="M578.1,27.1 C585.2,27.1 591,21.3 591,14.2 C591,7.1 585.2,1.3 578.1,1.3 C571,1.3 565.2,7.1 565.2,14.2 C565.2,21.4 571,27.1 578.1,27.1 Z" id="Shape"></path>
        </g>
    </g>
</svg>