<?xml version="1.0" encoding="utf-8"?>
<!-- Generator: Adobe Illustrator 19.0.0, SVG Export Plug-In . SVG Version: 6.00 Build 0)  -->
<svg version="1.1" id="Layer_1" xmlns="http://www.w3.org/2000/svg" xmlns:xlink="http://www.w3.org/1999/xlink" x="0px" y="0px"
	 viewBox="-1572 3382 310 150" style="enable-background:new -1572 3382 310 150;" xml:space="preserve">
<style type="text/css">
	.st0{fill:#716E6F;}
	.st1{fill:#F05423;}
	.st2{fill:#84C441;}
	.st3{fill:#2DABE2;}
	.st4{fill:#F9BC15;}
</style>
<path id="path5056" class="st0" d="M-1265.5,3453.9v-5.3h-6.6v-8.3l-0.2,0.1l-6.2,1.9h-0.1v6.3h-9.8v-3.5c0-1.6,0.4-2.9,1.1-3.7
	c0.7-0.8,1.7-1.2,3-1.2c0.9,0,1.9,0.2,2.9,0.7l0.2,0.1v-5.6h-0.1c-0.9-0.3-2.1-0.5-3.7-0.5c-1.9,0-3.7,0.4-5.2,1.3
	c-1.5,0.8-2.7,2-3.6,3.5c-0.8,1.5-1.3,3.3-1.3,5.2v3.8h-4.6v5.3h4.6v22.4h6.6v-22.5h9.8v14.3c0,5.9,2.8,8.9,8.2,8.9
	c0.9,0,1.8-0.1,2.8-0.3s1.7-0.4,2-0.6l0.1-0.1v-5.4l-0.3,0.2c-0.4,0.2-0.8,0.4-1.3,0.6c-0.5,0.1-1,0.2-1.3,0.2c-1.3,0-2.2-0.3-2.8-1
	c-0.6-0.7-0.9-1.9-0.9-3.6v-13.2H-1265.5L-1265.5,3453.9z M-1314.5,3471.6c-2.4,0-4.3-0.8-5.6-2.4c-1.3-1.6-2-3.8-2-6.7
	s0.7-5.3,2-6.9c1.3-1.6,3.2-2.4,5.6-2.4c2.3,0,4.1,0.8,5.4,2.3c1.3,1.5,2,3.8,2,6.8s-0.6,5.3-1.9,6.9
	C-1310.2,3470.8-1312.1,3471.6-1314.5,3471.6 M-1314.2,3447.9c-4.6,0-8.2,1.3-10.8,4c-2.6,2.6-3.9,6.3-3.9,10.9
	c0,4.3,1.3,7.8,3.8,10.4c2.5,2.5,6,3.8,10.2,3.8c4.4,0,8-1.4,10.6-4c2.6-2.7,3.9-6.3,3.9-10.8c0-4.4-1.2-7.9-3.7-10.5
	C-1306.4,3449.2-1309.9,3447.9-1314.2,3447.9 M-1339.6,3447.9c-3.1,0-5.7,0.8-7.7,2.4c-2,1.6-3,3.7-3,6.2c0,1.3,0.2,2.5,0.6,3.4
	c0.4,1,1.1,1.9,2,2.6c0.9,0.7,2.2,1.5,4,2.2c1.5,0.6,2.6,1.1,3.3,1.6c0.7,0.4,1.2,0.8,1.5,1.2c0.3,0.4,0.4,0.9,0.4,1.6
	c0,1.9-1.4,2.8-4.3,2.8c-1.1,0-2.3-0.2-3.6-0.7c-1.3-0.4-2.6-1.1-3.7-1.9l-0.3-0.2v6.4h0.1c0.9,0.4,2.1,0.8,3.5,1.1
	c1.4,0.3,2.6,0.4,3.7,0.4c3.4,0,6.1-0.8,8.1-2.4c2-1.6,3-3.7,3-6.3c0-1.9-0.5-3.5-1.6-4.8s-2.9-2.5-5.5-3.5c-2.1-0.8-3.4-1.5-3.9-2
	s-0.8-1.2-0.8-2.1c0-0.8,0.3-1.5,1-2c0.7-0.5,1.6-0.8,2.8-0.8c1.1,0,2.2,0.2,3.4,0.5c1.1,0.3,2.1,0.8,2.9,1.4l0.3,0.2v-6h-0.1
	c-0.8-0.3-1.8-0.6-3-0.8C-1337.5,3448-1338.6,3447.9-1339.6,3447.9 M-1367.5,3471.6c-2.4,0-4.3-0.8-5.6-2.4c-1.3-1.6-2-3.8-2-6.7
	s0.7-5.3,2-6.9c1.3-1.6,3.2-2.4,5.6-2.4c2.3,0,4.1,0.8,5.4,2.3c1.3,1.5,2,3.8,2,6.8s-0.6,5.3-1.9,6.9
	C-1363.2,3470.8-1365,3471.6-1367.5,3471.6 M-1367.2,3447.9c-4.6,0-8.2,1.3-10.8,4c-2.6,2.6-3.9,6.3-3.9,10.9
	c0,4.4,1.3,7.8,3.8,10.4c2.5,2.5,6,3.8,10.2,3.8c4.4,0,8-1.4,10.6-4c2.6-2.7,3.9-6.3,3.9-10.8c0-4.4-1.2-7.9-3.7-10.5
	C-1359.4,3449.2-1362.9,3447.9-1367.2,3447.9 M-1391.9,3453.4v-4.8h-6.5v27.8h6.5v-14.2c0-2.4,0.5-4.4,1.6-5.9
	c1.1-1.5,2.5-2.2,4.2-2.2c0.6,0,1.2,0.1,2,0.3c0.7,0.2,1.2,0.4,1.5,0.6l0.3,0.2v-6.6h-0.1c-0.6-0.3-1.5-0.4-2.6-0.4
	c-1.6,0-3.1,0.5-4.4,1.6C-1390.4,3450.6-1391.2,3451.8-1391.9,3453.4L-1391.9,3453.4z M-1410.2,3447.9c-3,0-5.7,0.6-7.9,1.9
	c-2.3,1.3-4,3.1-5.2,5.4c-1.2,2.3-1.8,5-1.8,8c0,2.6,0.6,5,1.7,7.2c1.2,2.1,2.8,3.8,4.9,4.9c2.1,1.2,4.5,1.7,7.1,1.7
	c3.1,0,5.8-0.6,7.9-1.8h0.1v-6l-0.3,0.2c-1,0.7-2,1.3-3.2,1.7c-1.2,0.4-2.2,0.6-3.1,0.6c-2.6,0-4.6-0.8-6.1-2.4
	c-1.5-1.6-2.3-3.8-2.3-6.6s0.8-5.1,2.4-6.8c1.6-1.7,3.6-2.5,6.1-2.5c2.1,0,4.2,0.7,6.2,2.2l0.3,0.2v-6.3h-0.1c-0.7-0.4-1.8-0.8-3-1
	C-1407.8,3448.1-1409,3447.9-1410.2,3447.9 M-1429.7,3448.6h-6.5v27.8h6.5V3448.6z M-1432.9,3436.8c-1.1,0-2,0.4-2.8,1.1
	c-0.8,0.7-1.2,1.6-1.2,2.7c0,1.1,0.4,2,1.2,2.7c0.8,0.7,1.7,1.1,2.8,1.1s2-0.4,2.8-1.1c0.8-0.7,1.2-1.6,1.2-2.7c0-1-0.4-1.9-1.1-2.7
	C-1430.8,3437.1-1431.7,3436.8-1432.9,3436.8 M-1449.2,3446.5v29.8h6.7v-38.7h-9.2l-11.7,28.8l-11.4-28.8h-9.6v38.8h6.3v-29.9h0.1
	l12,29.8h4.7l11.8-29.8H-1449.2L-1449.2,3446.5z"/>
<path id="path5058" class="st1" d="M-1537.8,3455.4h-30.7v-30.7h30.7V3455.4z"/>
<path id="path5060" class="st2" d="M-1503.8,3455.4h-30.8v-30.7h30.7L-1503.8,3455.4L-1503.8,3455.4z"/>
<path id="path5062" class="st3" d="M-1537.8,3489.3h-30.7v-30.7h30.7V3489.3z"/>
<path id="path5064" class="st4" d="M-1503.8,3489.3h-30.8v-30.7h30.7L-1503.8,3489.3L-1503.8,3489.3z"/>
</svg>
