<?xml version="1.0" encoding="UTF-8"?>
<svg width="208px" height="45px" viewBox="0 0 208 45" version="1.1" xmlns="http://www.w3.org/2000/svg" xmlns:xlink="http://www.w3.org/1999/xlink">
    <!-- Generator: Sketch 44.1 (41455) - http://www.bohemiancoding.com/sketch -->
    <title>microsoft</title>
    <desc>Created with Sketch.</desc>
    <defs></defs>
    <g id="Page-1" stroke="none" stroke-width="1" fill="none" fill-rule="evenodd">
        <g id="microsoft" fill-rule="nonzero">
            <polygon id="Shape" fill="#F05225" points="0 0.1 21.1 0.1 21.1 21.2 0 21.2"></polygon>
            <polygon id="Shape" fill="#80BB41" points="23.2 0.1 44.3 0.1 44.3 21.2 23.2 21.2"></polygon>
            <path d="M92.4,8.3 C93.3,8.1 94.4,8.5 95,9.2 C95.8,10 95.9,11.2 95.3,12.1 C94.7,13.2 93.5,13.6 92.3,13.3 C91.1,13.1 90.2,11.9 90.2,10.7 C90,9.7 91.2,8.4 92.4,8.3 Z M57.4,8.9 L64.1,8.9 C66.2,14.2 68.2,19.4 70.3,24.6 C70.9,26 71.4,27.2 71.8,28.6 C74.5,22.1 77.1,15.5 79.7,9 L86.1,9 L86.1,35.6 L81.5,35.6 L81.5,15.1 C81.3,15.3 81.3,15.4 81.2,15.6 C78.6,22.3 75.9,29 73.3,35.7 L70,35.7 C67.5,28.8 64.7,22 62,15.3 C62,15.1 61.8,15 61.8,14.8 L61.8,35.2 L57.5,35.2 C57.4,26.5 57.4,17.7 57.4,8.9 L57.4,8.9 Z M104.8,16.3 C106.9,15.7 109.4,15.7 111.5,16.3 C112,16.5 112.4,16.6 112.7,16.9 L112.7,21.3 C111.2,20.2 109.4,19.5 107.5,19.6 C106,19.8 104.6,20.5 103.7,21.7 C102.5,23.2 102.3,25.2 102.5,27 C102.7,28.4 103.3,29.9 104.3,30.8 C105.5,31.9 107,32.2 108.6,32 C110.1,31.8 111.5,31.2 112.7,30.3 L112.7,34.4 C110.9,35.5 108.6,35.8 106.5,35.6 C104.4,35.4 102.1,34.7 100.6,33.2 C98.9,31.5 98,29.2 97.9,26.8 C97.7,24.4 98.4,21.8 99.7,19.7 C101.1,18.2 102.9,17 104.8,16.3 L104.8,16.3 Z M154.7,16 C156.8,15.7 159,15.8 161.1,16.6 L161.1,20.9 C159.7,20 158.1,19.4 156.2,19.5 C155.3,19.5 154.4,20 154.1,20.7 C153.8,21.5 153.9,22.5 154.7,23 C155.9,23.9 157.6,24.2 159,25 C160.1,25.6 161.1,26.4 161.6,27.4 C162.7,29.5 162.2,32.3 160.4,33.8 C158.7,35.3 156.3,35.8 154,35.8 C152.5,35.6 150.8,35.3 149.4,34.7 L149.4,30.3 C150.6,31.2 152,31.8 153.5,32.1 C154.6,32.3 155.6,32.3 156.7,31.8 C157.6,31.3 157.8,30 157.3,29.2 C156.8,28.6 156.1,28.3 155.3,28 C153.9,27.4 152.6,26.9 151.3,26 C150.5,25.4 149.8,24.5 149.6,23.4 C149.3,21.9 149.3,20.2 150.2,18.8 C151.2,17.4 152.9,16.3 154.7,16 Z M123.1,16.7 C124.3,15.9 126,15.9 127.4,16.4 L127.4,21 C126.5,20.4 125.4,20.1 124.4,20.2 C123.2,20.4 122.1,21.4 121.5,22.5 C120.9,23.7 120.9,25.1 120.9,26.3 L120.9,35.4 L116.3,35.4 L116.3,16.4 L120.9,16.4 L120.9,19.7 C121.3,18.5 122,17.4 123.1,16.7 L123.1,16.7 Z M90.4,16.3 L95,16.3 L95,35.3 L90.4,35.3 L90.4,16.3 L90.4,16.3 Z M146.3,20.9 C145.5,19.1 144,17.7 142.3,16.9 C140.3,16 138,15.8 135.8,16.1 C133.5,16.4 131.2,17.5 129.9,19.3 C128.5,21 127.9,23.1 127.8,25.1 C127.6,27.5 128,30.1 129.5,32.2 C130.7,34 132.7,35.2 134.8,35.7 C136.5,36 138.4,36 140.1,35.7 C142.1,35.2 144.1,34.2 145.3,32.5 C146.5,31 147.1,29 147.3,26.9 C147.2,24.9 147.1,22.7 146.3,20.9 L146.3,20.9 Z M141.9,29.6 C141.4,30.5 140.7,31.4 139.6,31.7 C138.4,32.2 137.2,32.2 136,31.9 C134.8,31.6 133.7,30.7 133.1,29.5 C132.3,28 132.2,26.3 132.3,24.8 C132.5,23.3 132.9,21.8 134.1,20.8 C134.9,20 136.1,19.7 137.1,19.6 C138.5,19.4 140,19.9 140.9,20.8 C142,21.9 142.4,23.4 142.4,24.8 C142.5,26.5 142.5,28.2 141.9,29.6 Z M182.8,21.4 C182,19.6 180.7,17.9 178.8,17 C176.7,15.9 174.2,15.8 172.1,16.1 C170.3,16.3 168.5,17 167.1,18.2 C165.4,19.7 164.4,21.8 164.1,24 C163.8,26.3 163.9,28.6 164.9,30.7 C165.8,32.7 167.5,34.3 169.5,35.3 C171.5,36.1 173.8,36.2 175.9,35.9 C178,35.6 180.2,34.4 181.5,32.6 C182.8,30.8 183.6,28.3 183.5,26.1 C183.4,24.4 183.3,22.9 182.8,21.4 L182.8,21.4 Z M178.5,27.9 C178.3,29 177.9,29.9 177.3,30.6 C176.7,31.4 175.6,31.8 174.6,32 C173.5,32.2 172.3,32.2 171.4,31.7 C170.3,31.2 169.4,30.3 169,29.1 C168.4,27.7 168.4,26.4 168.4,25 C168.6,23.6 168.9,22.3 169.8,21.2 C170.6,20.3 171.9,19.7 173.1,19.5 C174.3,19.3 175.8,19.7 176.7,20.6 C177.6,21.4 178.1,22.4 178.4,23.6 C178.9,25.2 178.9,26.5 178.5,27.9 L178.5,27.9 Z M207.3,20.1 L207.3,16.5 L202.7,16.5 L202.7,10.9 C201.2,11.4 199.7,11.8 198.1,12.3 L198.1,16.6 L191.4,16.6 C191.4,15.5 191.2,14.3 191.6,13.1 C191.8,12.2 192.2,11.3 193.1,11 C194.2,10.5 195.4,10.8 196.4,11.3 L196.4,7.3 C194.3,6.7 191.7,6.8 189.7,8.1 C188.5,8.9 187.6,10.2 187.1,11.6 C186.6,13.1 186.9,14.8 186.8,16.5 L183.6,16.5 L183.6,20.1 L186.8,20.1 L186.8,35.4 L191.4,35.4 L191.4,20.1 L198.1,20.1 L198.1,29.8 C198.1,31.3 198.4,33 199.3,34.2 C200.2,35.3 201.6,35.7 202.9,35.9 C204.3,36.1 205.8,35.7 207,35.3 L207,31.5 C205.9,32.1 204.6,32.4 203.5,31.8 C202.9,31.5 202.6,30.7 202.6,30 C202.4,28.8 202.6,27.6 202.4,26.5 L202.4,20.1 C204.2,20.1 205.7,20 207.3,20.1 L207.3,20.1 Z" id="Shape" fill="#787878"></path>
            <polygon id="Shape" fill="#35A0DA" points="0 23.2 21.1 23.2 21.1 44.3 0 44.3"></polygon>
            <polygon id="Shape" fill="#FDB813" points="23.2 23.2 44.3 23.2 44.3 44.3 23.2 44.3"></polygon>
        </g>
    </g>
</svg>