<?xml version="1.0" encoding="utf-8"?>
<!-- Generator: Adobe Illustrator 18.0.0, SVG Export Plug-In . SVG Version: 6.00 Build 0)  -->
<!DOCTYPE svg PUBLIC "-//W3C//DTD SVG 1.1//EN" "http://www.w3.org/Graphics/SVG/1.1/DTD/svg11.dtd">
<svg version="1.1" id="Layer_1" xmlns="http://www.w3.org/2000/svg" xmlns:xlink="http://www.w3.org/1999/xlink" x="0px" y="0px"
	 viewBox="0 0 310 150" enable-background="new 0 0 310 150" xml:space="preserve">
<path id="path5056" fill="#716E6F" d="M306.5,71.9v-5.3h-6.6v-8.3l-0.2,0.1l-6.2,1.9l-0.1,0v6.3h-9.8v-3.5c0-1.6,0.4-2.9,1.1-3.7
	c0.7-0.8,1.7-1.2,3-1.2c0.9,0,1.9,0.2,2.9,0.7l0.2,0.1v-5.6l-0.1,0c-0.9-0.3-2.1-0.5-3.7-0.5c-1.9,0-3.7,0.4-5.2,1.3
	c-1.5,0.8-2.7,2-3.6,3.5c-0.8,1.5-1.3,3.3-1.3,5.2v3.8h-4.6v5.3h4.6v22.4h6.6V71.9h9.8v14.3c0,5.9,2.8,8.9,8.2,8.9
	c0.9,0,1.8-0.1,2.8-0.3c1-0.2,1.7-0.4,2-0.6l0.1-0.1v-5.4l-0.3,0.2c-0.4,0.2-0.8,0.4-1.3,0.6c-0.5,0.1-1,0.2-1.3,0.2
	c-1.3,0-2.2-0.3-2.8-1c-0.6-0.7-0.9-1.9-0.9-3.6V71.9L306.5,71.9L306.5,71.9z M257.5,89.6c-2.4,0-4.3-0.8-5.6-2.4
	c-1.3-1.6-2-3.8-2-6.7c0-2.9,0.7-5.3,2-6.9c1.3-1.6,3.2-2.4,5.6-2.4c2.3,0,4.1,0.8,5.4,2.3c1.3,1.5,2,3.8,2,6.8c0,3-0.6,5.3-1.9,6.9
	C261.8,88.8,259.9,89.6,257.5,89.6 M257.8,65.9c-4.6,0-8.2,1.3-10.8,4c-2.6,2.6-3.9,6.3-3.9,10.9c0,4.3,1.3,7.8,3.8,10.4
	c2.5,2.5,6,3.8,10.2,3.8c4.4,0,8-1.4,10.6-4c2.6-2.7,3.9-6.3,3.9-10.8c0-4.4-1.2-7.9-3.7-10.5C265.6,67.2,262.1,65.9,257.8,65.9
	 M232.4,65.9c-3.1,0-5.7,0.8-7.7,2.4c-2,1.6-3,3.7-3,6.2c0,1.3,0.2,2.5,0.6,3.4c0.4,1,1.1,1.9,2,2.6c0.9,0.7,2.2,1.5,4,2.2
	c1.5,0.6,2.6,1.1,3.3,1.6c0.7,0.4,1.2,0.8,1.5,1.2c0.3,0.4,0.4,0.9,0.4,1.6c0,1.9-1.4,2.8-4.3,2.8c-1.1,0-2.3-0.2-3.6-0.7
	c-1.3-0.4-2.6-1.1-3.7-1.9l-0.3-0.2v6.4l0.1,0c0.9,0.4,2.1,0.8,3.5,1.1c1.4,0.3,2.6,0.4,3.7,0.4c3.4,0,6.1-0.8,8.1-2.4
	c2-1.6,3-3.7,3-6.3c0-1.9-0.5-3.5-1.6-4.8c-1.1-1.3-2.9-2.5-5.5-3.5c-2.1-0.8-3.4-1.5-3.9-2c-0.5-0.5-0.8-1.2-0.8-2.1
	c0-0.8,0.3-1.5,1-2c0.7-0.5,1.6-0.8,2.8-0.8c1.1,0,2.2,0.2,3.4,0.5c1.1,0.3,2.1,0.8,2.9,1.4l0.3,0.2v-6l-0.1,0
	c-0.8-0.3-1.8-0.6-3-0.8C234.5,66,233.4,65.9,232.4,65.9 M204.5,89.6c-2.4,0-4.3-0.8-5.6-2.4c-1.3-1.6-2-3.8-2-6.7
	c0-2.9,0.7-5.3,2-6.9c1.3-1.6,3.2-2.4,5.6-2.4c2.3,0,4.1,0.8,5.4,2.3c1.3,1.5,2,3.8,2,6.8c0,3-0.6,5.3-1.9,6.9
	C208.8,88.8,207,89.6,204.5,89.6 M204.8,65.9c-4.6,0-8.2,1.3-10.8,4c-2.6,2.6-3.9,6.3-3.9,10.9c0,4.4,1.3,7.8,3.8,10.4
	c2.5,2.5,6,3.8,10.2,3.8c4.4,0,8-1.4,10.6-4c2.6-2.7,3.9-6.3,3.9-10.8c0-4.4-1.2-7.9-3.7-10.5C212.6,67.2,209.1,65.9,204.8,65.9
	 M180.1,71.4v-4.8h-6.5v27.8h6.5V80.2c0-2.4,0.5-4.4,1.6-5.9c1.1-1.5,2.5-2.2,4.2-2.2c0.6,0,1.2,0.1,2,0.3c0.7,0.2,1.2,0.4,1.5,0.6
	l0.3,0.2v-6.6l-0.1,0c-0.6-0.3-1.5-0.4-2.6-0.4c-1.6,0-3.1,0.5-4.4,1.6C181.6,68.6,180.8,69.8,180.1,71.4
	C180.1,71.4,180.1,71.4,180.1,71.4z M161.8,65.9c-3,0-5.7,0.6-7.9,1.9c-2.3,1.3-4,3.1-5.2,5.4c-1.2,2.3-1.8,5-1.8,8
	c0,2.6,0.6,5,1.7,7.2c1.2,2.1,2.8,3.8,4.9,4.9c2.1,1.2,4.5,1.7,7.1,1.7c3.1,0,5.8-0.6,7.9-1.8l0.1,0v-6l-0.3,0.2
	c-1,0.7-2,1.3-3.2,1.7c-1.2,0.4-2.2,0.6-3.1,0.6c-2.6,0-4.6-0.8-6.1-2.4c-1.5-1.6-2.3-3.8-2.3-6.6c0-2.8,0.8-5.1,2.4-6.8
	c1.6-1.7,3.6-2.5,6.1-2.5c2.1,0,4.2,0.7,6.2,2.2l0.3,0.2v-6.3l-0.1,0c-0.7-0.4-1.8-0.8-3-1C164.2,66.1,163,65.9,161.8,65.9
	 M142.3,66.6h-6.5v27.8h6.5V66.6z M139.1,54.8c-1.1,0-2,0.4-2.8,1.1c-0.8,0.7-1.2,1.6-1.2,2.7c0,1.1,0.4,2,1.2,2.7
	c0.8,0.7,1.7,1.1,2.8,1.1c1.1,0,2-0.4,2.8-1.1c0.8-0.7,1.2-1.6,1.2-2.7c0-1-0.4-1.9-1.1-2.7C141.2,55.1,140.3,54.8,139.1,54.8
	 M122.8,64.5v29.8h6.7V55.6h-9.2l-11.7,28.8L97.2,55.6h-9.6v38.8h6.3V64.5H94l12,29.8h4.7l11.8-29.8H122.8L122.8,64.5z"/>
<path id="path5058" fill="#F05423" d="M34.2,73.4H3.5V42.7h30.7V73.4z"/>
<path id="path5060" fill="#84C441" d="M68.2,73.4H37.4V42.7h30.7V73.4z"/>
<path id="path5062" fill="#2DABE2" d="M34.2,107.3H3.5V76.6h30.7V107.3z"/>
<path id="path5064" fill="#F9BC15" d="M68.2,107.3H37.4V76.6h30.7V107.3z"/>
</svg>
