<?xml version="1.0" encoding="UTF-8"?>
<svg width="2223px" height="992px" viewBox="0 0 2223 992" version="1.1" xmlns="http://www.w3.org/2000/svg" xmlns:xlink="http://www.w3.org/1999/xlink">
    <!-- Generator: Sketch 44.1 (41455) - http://www.bohemiancoding.com/sketch -->
    <title>Mosaic Manufacturing Full Gradient - Outlines</title>
    <desc>Created with Sketch.</desc>
    <defs>
        <linearGradient x1="9.97465649%" y1="53.5153698%" x2="74.7653817%" y2="45.7517524%" id="linearGradient-1">
            <stop stop-color="#BD70E6" offset="0%"></stop>
            <stop stop-color="#A652D7" offset="20%"></stop>
            <stop stop-color="#9200CC" offset="56.97%"></stop>
            <stop stop-color="#8D04C4" offset="62.85%"></stop>
            <stop stop-color="#7F0EAF" offset="71.78%"></stop>
            <stop stop-color="#6E1B96" offset="80%"></stop>
            <stop stop-color="#74229C" offset="83.16%"></stop>
            <stop stop-color="#8534AE" offset="87.62%"></stop>
            <stop stop-color="#A052CC" offset="92.85%"></stop>
            <stop stop-color="#C67CF4" offset="98.62%"></stop>
            <stop stop-color="#D087FF" offset="100%"></stop>
        </linearGradient>
        <linearGradient x1="10.2178626%" y1="53.6970257%" x2="67.1942366%" y2="46.4570257%" id="linearGradient-2">
            <stop stop-color="#6E1B96" stop-opacity="0" offset="88.48%"></stop>
            <stop stop-color="#77209F" stop-opacity="0.163" offset="90.36%"></stop>
            <stop stop-color="#8E2EB7" stop-opacity="0.4288" offset="93.42%"></stop>
            <stop stop-color="#B345DF" stop-opacity="0.7623" offset="97.26%"></stop>
            <stop stop-color="#D257FF" offset="100%"></stop>
        </linearGradient>
        <linearGradient x1="6.64317355%" y1="79.1831694%" x2="95.0000331%" y2="48.3104372%" id="linearGradient-3">
            <stop stop-color="#00B78D" offset="0%"></stop>
            <stop stop-color="#00C397" offset="5%"></stop>
            <stop stop-color="#00E0AD" offset="18.67%"></stop>
            <stop stop-color="#00F1BA" offset="30.6%"></stop>
            <stop stop-color="#00F7BF" offset="39.39%"></stop>
            <stop stop-color="#01F5BD" offset="51.11%"></stop>
            <stop stop-color="#05ECB8" offset="57.96%"></stop>
            <stop stop-color="#0BDEAE" offset="63.53%"></stop>
            <stop stop-color="#14CAA1" offset="68.42%"></stop>
            <stop stop-color="#16C79F" offset="69.09%"></stop>
            <stop stop-color="#26AB8D" offset="89.09%"></stop>
            <stop stop-color="#00FFC3" offset="100%"></stop>
        </linearGradient>
        <linearGradient x1="10.5376364%" y1="40.7159563%" x2="101.26114%" y2="69.0654098%" id="linearGradient-4">
            <stop stop-color="#00FFC5" offset="0%"></stop>
            <stop stop-color="#00EBB5" offset="1.12%"></stop>
            <stop stop-color="#00DBA9" offset="2.45%"></stop>
            <stop stop-color="#00D2A1" offset="3.96%"></stop>
            <stop stop-color="#00CF9F" offset="6.06%"></stop>
            <stop stop-color="#00E1AE" offset="18.01%"></stop>
            <stop stop-color="#00E8B4" offset="26.67%"></stop>
            <stop stop-color="#06DFAE" stop-opacity="0.6122" offset="44.53%"></stop>
            <stop stop-color="#16C79F" stop-opacity="0" offset="72.73%"></stop>
            <stop stop-color="#22806A" stop-opacity="0.09" offset="100%"></stop>
        </linearGradient>
        <radialGradient cx="52.4789917%" cy="65.9929882%" fx="52.4789917%" fy="65.9929882%" r="53.2671736%" gradientTransform="translate(0.524790,0.659930),scale(0.604959,1.000000),translate(-0.524790,-0.659930)" id="radialGradient-5">
            <stop stop-color="#22806A" stop-opacity="0" offset="54.55%"></stop>
            <stop stop-color="#208069" stop-opacity="0.2514" offset="76.89%"></stop>
            <stop stop-color="#197E67" stop-opacity="0.3419" offset="84.94%"></stop>
            <stop stop-color="#0E7C63" stop-opacity="0.4062" offset="90.65%"></stop>
            <stop stop-color="#007A5F" stop-opacity="0.45" offset="94.55%"></stop>
        </radialGradient>
        <radialGradient cx="50.9905473%" cy="43.8371549%" fx="50.9905473%" fy="43.8371549%" r="67.2152231%" gradientTransform="translate(0.509905,0.438372),scale(0.604959,1.000000),translate(-0.509905,-0.438372)" id="radialGradient-6">
            <stop stop-color="#22806A" stop-opacity="0" offset="6.06%"></stop>
            <stop stop-color="#004F3E" stop-opacity="0.75" offset="100%"></stop>
        </radialGradient>
        <linearGradient x1="7.96266116%" y1="86.6963115%" x2="90.6023306%" y2="49.8050273%" id="linearGradient-7">
            <stop stop-color="#26AB8D" stop-opacity="0" offset="83.64%"></stop>
            <stop stop-color="#24AF8F" stop-opacity="0.2238" offset="87.3%"></stop>
            <stop stop-color="#1FBA97" stop-opacity="0.44" offset="90.84%"></stop>
            <stop stop-color="#16CEA3" stop-opacity="0.6531" offset="94.32%"></stop>
            <stop stop-color="#0AE9B5" stop-opacity="0.8631" offset="97.76%"></stop>
            <stop stop-color="#00FFC3" offset="100%"></stop>
        </linearGradient>
        <linearGradient x1="7.47631405%" y1="38.4148907%" x2="56.0635702%" y2="55.590847%" id="linearGradient-8">
            <stop stop-color="#00FFC3" offset="0%"></stop>
            <stop stop-color="#26AB8D" stop-opacity="0" offset="16.97%"></stop>
        </linearGradient>
        <linearGradient x1="27.5159933%" y1="49.7908108%" x2="104.970976%" y2="64.4707143%" id="linearGradient-9">
            <stop stop-color="#FFE100" offset="1.21%"></stop>
            <stop stop-color="#FEE20B" offset="1.54%"></stop>
            <stop stop-color="#FDE321" offset="2.36%"></stop>
            <stop stop-color="#FBE432" offset="3.33%"></stop>
            <stop stop-color="#FBE53D" offset="4.54%"></stop>
            <stop stop-color="#FAE544" offset="6.22%"></stop>
            <stop stop-color="#FAE546" offset="10.91%"></stop>
            <stop stop-color="#FDE321" offset="23.7%"></stop>
            <stop stop-color="#FEE209" offset="34.55%"></stop>
            <stop stop-color="#FFE200" offset="41.21%"></stop>
            <stop stop-color="#F2D700" offset="69.7%"></stop>
            <stop stop-color="#EFD506" offset="78.33%"></stop>
            <stop stop-color="#E7D018" offset="90.3%"></stop>
            <stop stop-color="#DECA2C" offset="100%"></stop>
        </linearGradient>
    </defs>
    <g id="Page-1" stroke="none" stroke-width="1" fill="none" fill-rule="evenodd">
        <g id="Mosaic-Manufacturing-Full-Gradient---Outlines">
            <g id="Group">
                <path d="M360.904,241.234 C386.946,160.609 413.236,80.235 439.904,0.234 C501.876,185.259 562.217,371.924 622.904,558.234 C579.689,581.353 532.945,600.941 487.904,622.234 L486.904,622.234 C444.008,496.134 404.187,366.95 360.904,241.234" id="Shape" fill="url(#linearGradient-1)"></path>
                <path d="M360.904,241.234 C386.946,160.609 413.236,80.235 439.904,0.234 C501.876,185.259 562.217,371.924 622.904,558.234 C579.689,581.353 532.945,600.941 487.904,622.234 L486.904,622.234 C444.008,496.134 404.187,366.95 360.904,241.234" id="Shape" fill="url(#linearGradient-2)"></path>
                <path d="M486.904,622.234 L487.904,622.234 C525.743,745.73 568.319,864.484 605.904,988.234 L0.904,988.234 C17.531,932.194 37.002,879 53.904,823.234 C99.802,802.132 145.656,780.986 190.904,759.234 C290.493,714.493 388.426,668.087 486.904,622.234" id="Shape" fill="url(#linearGradient-3)"></path>
                <path d="M486.904,622.234 L487.904,622.234 C525.743,745.73 568.319,864.484 605.904,988.234 L0.904,988.234 C17.531,932.194 37.002,879 53.904,823.234 C99.802,802.132 145.656,780.986 190.904,759.234 C290.493,714.493 388.426,668.087 486.904,622.234" id="Shape" fill="url(#linearGradient-4)"></path>
                <path d="M486.904,622.234 L487.904,622.234 C525.743,745.73 568.319,864.484 605.904,988.234 L0.904,988.234 C17.531,932.194 37.002,879 53.904,823.234 C99.802,802.132 145.656,780.986 190.904,759.234 C290.493,714.493 388.426,668.087 486.904,622.234" id="Shape" fill="url(#radialGradient-5)"></path>
                <path d="M486.904,622.234 L487.904,622.234 C525.743,745.73 568.319,864.484 605.904,988.234 L0.904,988.234 C17.531,932.194 37.002,879 53.904,823.234 C99.802,802.132 145.656,780.986 190.904,759.234 C290.493,714.493 388.426,668.087 486.904,622.234" id="Shape" fill="url(#radialGradient-6)" opacity="0.75"></path>
                <path d="M486.904,622.234 L487.904,622.234 C525.743,745.73 568.319,864.484 605.904,988.234 L0.904,988.234 C17.531,932.194 37.002,879 53.904,823.234 C99.802,802.132 145.656,780.986 190.904,759.234 C290.493,714.493 388.426,668.087 486.904,622.234" id="Shape" fill="url(#linearGradient-7)"></path>
                <path d="M486.904,622.234 L487.904,622.234 C525.743,745.73 568.319,864.484 605.904,988.234 L0.904,988.234 C17.531,932.194 37.002,879 53.904,823.234 C99.802,802.132 145.656,780.986 190.904,759.234 C290.493,714.493 388.426,668.087 486.904,622.234" id="Shape" fill="url(#linearGradient-8)" opacity="0.33"></path>
                <path d="M360.904,241.234 C404.186,366.95 445.008,496.134 487.904,622.234 C389.425,668.088 290.493,714.493 190.904,759.234 C247.809,586.81 303.764,413.417 360.904,241.234" id="Shape" fill="url(#linearGradient-9)"></path>
            </g>
            <g id="Group" transform="translate(664.000000, 553.000000)" fill-rule="nonzero" fill="#231F20">
                <g id="Shape">
                    <polygon points="239.833 274.986 239.833 108.548 167.178 274.881 122.304 274.881 49.61 108.548 49.61 274.986 0.402 274.986 0.402 5.308 57.936 5.308 144.722 216.928 231.508 5.308 289.042 5.308 289.042 274.986"></polygon>
                    <path d="M479.579,1.117 C567.93,1.117 618.501,61.783 618.501,139.989 C618.501,219.02 568.665,279.224 479.579,279.224 C392.674,279.224 340.996,219.147 340.996,139.993 C340.996,61.871 391.075,1.121 479.579,1.121 L479.579,1.117 Z M479.579,42.123 C423.205,42.123 390.204,80.367 390.204,139.993 C390.204,200.251 424.206,238.19 479.579,238.19 C536.589,238.19 569.293,200.47 569.293,139.993 C569.293,80.383 535.957,42.127 479.579,42.127 L479.579,42.123 Z"></path>
                    <path d="M683.922,207.902 C702.457,226.848 738.382,238.514 773.382,238.514 C805.173,238.514 835.955,227.527 835.955,199.599 C835.955,166.576 804.757,165.338 760.757,157.175 C710.883,147.963 664.402,134.718 664.402,81.303 C664.402,26.054 722.132,0.592 781.642,0.592 C814.362,0.592 847.983,8.382 873.148,23.045 L843.984,57.787 C825.419,46.264 800.397,40.042 775.147,40.042 C743.949,40.042 714.443,52.158 714.443,78.645 C714.443,105.775 749.643,112.235 775.648,117.208 C834.195,128.565 888.231,137.438 888.231,199.46 C888.231,255.029 829.807,279.612 771.645,279.612 C727.849,279.612 680.552,265.87 655.071,241.576 L683.922,207.902 Z"></path>
                    <path d="M1133.84,274.986 L1110.132,214.724 L989.224,214.724 L965.515,274.986 L913.926,274.986 L1024.737,5.308 L1074.62,5.308 L1185.473,274.986 L1133.84,274.986 L1133.84,274.986 Z M1095.311,174.2 L1049.678,59.067 L1004.044,174.2 L1095.311,174.2 Z"></path>
                    <polygon points="1228.158 274.986 1228.158 5.308 1277.366 5.308 1277.366 274.986"></polygon>
                    <path d="M1558.473,248.28 C1536.152,267.366 1505.554,278.839 1467.742,278.839 C1379.238,278.839 1329.159,218.111 1329.159,139.989 C1329.159,61.871 1379.238,1.117 1467.742,1.117 C1505.555,1.117 1536.152,12.617 1558.473,31.702 L1526.362,64.495 C1512.235,49.944 1492.503,42.127 1467.742,42.127 C1411.368,42.127 1378.367,80.371 1378.367,139.989 C1378.367,199.615 1411.368,237.859 1467.742,237.859 C1492.503,237.859 1512.235,230.043 1526.362,215.491 L1558.473,248.28 Z"></path>
                </g>
                <g transform="translate(0.000000, 308.000000)" id="Shape">
                    <polygon points="114.175 128.375 114.175 23.601 67.659 128.356 57.34 128.356 10.819 23.601 10.819 128.375 0.165 128.375 0.165 3.011 13.339 3.011 62.496 116.183 111.655 3.011 124.829 3.011 124.829 128.375"></polygon>
                    <path d="M254.482,128.375 L240.242,93.769 L175.434,93.769 L161.194,128.375 L150.008,128.375 L202.183,3.011 L213.491,3.011 L265.675,128.375 L254.482,128.375 Z M236.901,84.836 L207.839,14.451 L178.778,84.836 L236.901,84.836 Z"></path>
                    <polygon points="374.84 128.375 299.868 20.796 299.868 128.375 289.214 128.375 289.214 3.011 302.09 3.011 377.09 110.629 377.09 3.011 387.744 3.011 387.744 128.375"></polygon>
                    <path d="M521.223,71.474 C521.223,106.418 509.926,130.705 471.192,130.705 C432.868,130.705 421.161,107.128 421.161,71.472 L421.161,3.011 L431.815,3.011 L431.815,70.679 C431.815,103.188 441.219,120.993 471.192,120.993 C501.466,120.993 510.569,102.638 510.569,70.679 L510.569,3.011 L521.223,3.011 L521.223,71.474 Z"></path>
                    <polygon points="565.236 11.944 565.236 61.307 624.184 61.307 624.184 70.244 565.236 70.244 565.236 128.376 554.582 128.376 554.582 3.011 629.828 3.011 629.828 11.944"></polygon>
                    <path d="M736.051,128.375 L721.812,93.769 L657.003,93.769 L642.764,128.375 L631.577,128.375 L683.753,3.011 L695.061,3.011 L747.245,128.375 L736.051,128.375 Z M718.47,84.836 L689.408,14.451 L660.346,84.836 L718.47,84.836 Z"></path>
                    <path d="M858.118,119.963 C848.57,126.524 836.347,130.345 821.774,130.345 C781.716,130.345 758.825,102.707 758.825,65.611 C758.825,28.513 781.717,0.888 821.774,0.888 C836.347,0.888 848.57,4.696 858.118,11.256 L851.414,18.573 C843.527,12.933 833.718,9.911 821.774,9.911 C788.646,9.911 769.479,32.644 769.479,65.61 C769.479,98.576 788.646,121.309 821.774,121.309 C833.717,121.309 843.527,118.287 851.414,112.647 L858.118,119.963 Z"></path>
                    <polygon points="933.883 11.944 933.883 128.376 923.229 128.376 923.229 11.944 876.572 11.944 876.572 3.011 980.543 3.011 980.543 11.944"></polygon>
                    <path d="M1105.767,71.474 C1105.767,106.418 1094.47,130.705 1055.736,130.705 C1017.412,130.705 1005.705,107.128 1005.705,71.472 L1005.705,3.011 L1016.359,3.011 L1016.359,70.679 C1016.359,103.188 1025.763,120.993 1055.736,120.993 C1086.009,120.993 1095.113,102.638 1095.113,70.679 L1095.113,3.011 L1105.767,3.011 L1105.767,71.474 Z"></path>
                    <path d="M1190.68,3.001 C1215.825,3.001 1230.461,19.024 1230.461,42.094 C1230.461,62.684 1219.278,77.217 1199.31,80.228 L1234.928,128.375 L1222.324,128.375 L1188.311,81.29 L1149.781,81.29 L1149.781,128.375 L1139.127,128.375 L1139.127,3.001 L1190.68,3.001 Z M1149.757,72.533 L1189.686,72.533 C1208.97,72.533 1219.807,60.745 1219.807,42.11 C1219.807,23.715 1208.785,11.779 1189.686,11.779 L1149.757,11.779 L1149.757,72.533 Z"></path>
                    <polygon points="1264.131 128.375 1264.131 3.011 1274.785 3.011 1274.785 128.375"></polygon>
                    <polygon points="1393.854 128.375 1318.882 20.796 1318.882 128.375 1308.228 128.375 1308.228 3.011 1321.105 3.011 1396.106 110.629 1396.106 3.011 1406.759 3.011 1406.759 128.375"></polygon>
                    <path d="M1548.175,108.224 C1537.533,122.118 1520.574,130.525 1498.181,130.525 C1458.849,130.525 1435.244,103.179 1435.244,65.611 C1435.244,28.513 1458.125,0.888 1498.182,0.888 C1518.498,0.888 1534.461,8.007 1545.251,19.883 L1538.71,25.995 C1528.618,15.678 1515.075,9.907 1498.239,9.907 C1465.875,9.907 1445.897,32.178 1445.897,65.612 C1445.897,98.959 1465.649,121.548 1498.179,121.548 C1515.634,121.548 1528.752,115.624 1537.746,105.142 L1537.746,69.767 L1498.187,69.767 L1498.187,61.176 L1548.172,61.176 L1548.172,108.224 L1548.175,108.224 Z"></path>
                </g>
            </g>
        </g>
    </g>
</svg>