<?xml version="1.0" encoding="utf-8"?>
<!-- Generator: Adobe Illustrator 18.0.0, SVG Export Plug-In . SVG Version: 6.00 Build 0)  -->
<!DOCTYPE svg PUBLIC "-//W3C//DTD SVG 1.1//EN" "http://www.w3.org/Graphics/SVG/1.1/DTD/svg11.dtd">
<svg version="1.1" id="Layer_1" xmlns="http://www.w3.org/2000/svg" xmlns:xlink="http://www.w3.org/1999/xlink" x="0px" y="0px"
	 viewBox="0 0 310 150" enable-background="new 0 0 310 150" xml:space="preserve">
<path id="path14499" fill="#253B80" d="M58.4,42.2c-3.6-4.1-10.1-5.8-18.3-5.8H16c-1.7,0-3.1,1.2-3.4,2.9l-10,63.5
	c-0.2,1.3,0.8,2.4,2,2.4h14.8l3.7-23.6l-0.1,0.7c0.3-1.7,1.7-2.9,3.4-2.9h7c13.8,0,24.7-5.6,27.9-21.9c0.1-0.5,0.2-0.9,0.2-1.4
	c-0.4-0.2-0.4-0.2,0,0C62.6,50,61.6,45.9,58.4,42.2"/>
<path id="path14519" fill="#263A7F" d="M211.6,72.2h-8c-0.8,0-1.5,0.4-1.9,1l-11,16.2l-4.7-15.6c-0.3-1-1.2-1.6-2.2-1.6H176
	c-0.9,0-1.6,0.9-1.3,1.8l8.8,25.8l-8.3,11.7c-0.6,0.9,0,2.2,1.1,2.2h8c0.8,0,1.5-0.4,1.9-1l26.5-38.3
	C213.4,73.4,212.7,72.2,211.6,72.2 M158.3,87.6c-0.8,4.5-4.4,7.6-9,7.6c-2.3,0-4.1-0.7-5.3-2.1c-1.2-1.4-1.6-3.4-1.2-5.6
	c0.7-4.5,4.4-7.6,8.9-7.6c2.3,0,4.1,0.7,5.3,2.2C158.1,83.4,158.6,85.4,158.3,87.6 M169.3,72.2h-7.9c-0.7,0-1.3,0.5-1.4,1.2
	l-0.3,2.2l-0.6-0.8c-1.7-2.5-5.6-3.3-9.4-3.3c-8.8,0-16.3,6.7-17.7,16c-0.8,4.7,0.3,9.1,3,12.2c2.4,2.9,5.9,4,10,4
	c7.1,0,11-4.5,11-4.5l-0.4,2.2c-0.1,0.8,0.5,1.6,1.4,1.6h7.2c1.1,0,2.1-0.8,2.3-1.9l4.3-27.2C170.8,72.9,170.2,72.2,169.3,72.2
	 M121.7,72.4c-0.9,6-5.5,6-9.9,6h-2.5l1.8-11.1c0.1-0.7,0.7-1.2,1.4-1.2h1.1c3,0,5.8,0,7.3,1.7C121.7,68.8,122,70.3,121.7,72.4
	 M119.8,56.8h-16.6c-1.1,0-2.1,0.8-2.3,1.9l-6.7,42.5c-0.1,0.8,0.5,1.6,1.4,1.6h7.9c1.1,0,2.1-0.8,2.3-1.9l1.8-11.5
	c0.2-1.1,1.1-1.9,2.3-1.9h5.2c10.9,0,17.2-5.3,18.9-15.8c0.7-4.6,0-8.2-2.1-10.7C129.5,58.3,125.3,56.8,119.8,56.8"/>
<path id="path14523" fill="#179BD7" d="M297,58l-6.8,43.3c-0.1,0.8,0.5,1.6,1.4,1.6h6.8c1.1,0,2.1-0.8,2.3-1.9l6.7-42.5
	c0.1-0.8-0.5-1.6-1.4-1.6h-7.7C297.7,56.8,297.1,57.3,297,58 M276.6,87.6c-0.8,4.5-4.4,7.6-9,7.6c-2.3,0-4.1-0.7-5.3-2.1
	c-1.2-1.4-1.6-3.4-1.2-5.6c0.7-4.5,4.4-7.6,8.9-7.6c2.3,0,4.1,0.7,5.3,2.2C276.4,83.4,276.9,85.4,276.6,87.6 M287.6,72.2h-7.9
	c-0.7,0-1.3,0.5-1.4,1.2l-0.3,2.2l-0.6-0.8c-1.7-2.5-5.6-3.3-9.4-3.3c-8.8,0-16.3,6.7-17.7,16c-0.8,4.7,0.3,9.1,3,12.2
	c2.4,2.9,5.9,4,10,4c7.1,0,11-4.5,11-4.5l-0.4,2.2c-0.1,0.8,0.5,1.6,1.4,1.6h7.2c1.1,0,2.1-0.8,2.3-1.9l4.3-27.2
	C289.1,72.9,288.5,72.2,287.6,72.2 M240,72.4c-0.9,6-5.5,6-9.9,6h-2.5l1.8-11.1c0.1-0.7,0.7-1.2,1.4-1.2h1.1c3,0,5.8,0,7.3,1.7
	C240,68.8,240.3,70.3,240,72.4 M238.1,56.8h-16.6c-1.1,0-2.1,0.8-2.3,1.9l-6.7,42.5c-0.1,0.8,0.5,1.6,1.4,1.6h8.5
	c0.8,0,1.5-0.6,1.6-1.4l1.9-12.1c0.2-1.1,1.1-1.9,2.3-1.9h5.2c10.9,0,17.2-5.3,18.9-15.8c0.7-4.6,0-8.2-2.1-10.7
	C247.8,58.3,243.6,56.8,238.1,56.8"/>
<path id="path14527" fill="#253B80" d="M58.4,42.2c-3.6-4.1-10.1-5.8-18.3-5.8H16c-1.7,0-3.1,1.2-3.4,2.9l-10,63.5
	c-0.2,1.3,0.8,2.4,2,2.4h14.8l3.7-23.6l-0.1,0.7c0.3-1.7,1.7-2.9,3.4-2.9h7c13.8,0,24.7-5.6,27.9-21.9c0.1-0.5,0.2-0.9,0.2-1.4
	c-0.4-0.2-0.4-0.2,0,0C62.6,50,61.6,45.9,58.4,42.2"/>
<path id="path14531" fill="#263A7F" d="M27.2,56.1c0.2-1,0.8-1.8,1.7-2.2c0.4-0.2,0.8-0.3,1.3-0.3H49c2.2,0,4.3,0.1,6.2,0.5
	c0.5,0.1,1.1,0.2,1.6,0.3c0.5,0.1,1,0.2,1.5,0.4c0.2,0.1,0.5,0.1,0.7,0.2c0.9,0.3,1.8,0.7,2.6,1.1c0.9-6,0-10.1-3.3-13.8
	c-3.6-4.1-10.1-5.8-18.3-5.8H16c-1.7,0-3.1,1.2-3.4,2.9l-10,63.4c-0.2,1.3,0.8,2.4,2,2.4h14.8l3.7-23.6L27.2,56.1L27.2,56.1z"/>
<path id="path14535" fill="#179BD7" d="M61.6,56L61.6,56c-0.1,0.5-0.2,0.9-0.2,1.4c-3.2,16.3-14,21.9-27.9,21.9h-7.1
	c-1.7,0-3.1,1.2-3.4,2.9l-3.6,22.9l-1,6.5c-0.2,1.1,0.7,2.1,1.8,2.1h12.5c1.5,0,2.7-1.1,3-2.5l0.1-0.6l2.4-14.9l0.2-0.8
	c0.2-1.5,1.5-2.5,3-2.5h1.9c12.1,0,21.6-4.9,24.4-19.2c1.2-5.9,0.6-10.9-2.5-14.4C64.1,57.6,63,56.7,61.6,56"/>
<path id="path14539" fill="#232C64" d="M58.3,54.7c-0.5-0.1-1-0.3-1.5-0.4c-0.5-0.1-1-0.2-1.6-0.3c-1.9-0.3-4-0.5-6.2-0.5H30.2
	c-0.5,0-0.9,0.1-1.3,0.3c-0.9,0.4-1.5,1.2-1.7,2.2l-4,25.4l-0.1,0.7c0.3-1.7,1.7-2.9,3.4-2.9h7.1c13.8,0,24.7-5.6,27.9-21.9
	c0.1-0.5,0.2-0.9,0.2-1.4c-0.8-0.4-1.7-0.8-2.6-1.1C58.8,54.8,58.6,54.7,58.3,54.7"/>
</svg>
