<?xml version="1.0" encoding="UTF-8"?>
<svg width="5117px" height="5309px" viewBox="0 0 5117 5309" version="1.1" xmlns="http://www.w3.org/2000/svg" xmlns:xlink="http://www.w3.org/1999/xlink">
    <!-- Generator: Sketch 44.1 (41455) - http://www.bohemiancoding.com/sketch -->
    <title>CLR-Full(Sqr)</title>
    <desc>Created with Sketch.</desc>
    <defs></defs>
    <g id="Page-1" stroke="none" stroke-width="1" fill="none" fill-rule="evenodd">
        <g id="CLR-Full(Sqr)" fill-rule="nonzero" fill="#5EAEC2">
            <path d="M3540,2024 C3519,2018 3498,2018 3478,2022 C3478,2022 3478,2022 3478,2022 C3246,2050 3005,1990 2810,1842 C2906,1618 3083,1446 3298,1355 L3298,1355 C3317,1348 3335,1337 3350,1322 C3406,1266 3406,1175 3350,1119 C3294,1063 3203,1063 3147,1119 C3132,1134 3121,1152 3114,1172 C3114,1172 3114,1172 3114,1172 C3023,1386 2851,1563 2627,1659 C2480,1463 2419,1223 2447,991 L2447,991 C2450,971 2450,950 2445,929 C2425,852 2346,807 2269,828 C2193,849 2147,927 2168,1004 C2173,1025 2184,1043 2197,1059 C2338,1246 2406,1485 2376,1728 C2133,1758 1894,1690 1707,1550 C1691,1537 1673,1527 1652,1521 C1575,1501 1497,1546 1476,1623 C1456,1699 1501,1778 1577,1799 C1598,1805 1619,1805 1639,1802 L1639,1802 C1871,1774 2112,1834 2307,1982 C2211,2206 2034,2378 1819,2469 C1819,2469 1819,2469 1819,2469 C1800,2476 1782,2487 1767,2502 C1711,2558 1711,2649 1767,2705 C1823,2761 1914,2761 1970,2705 C1986,2690 1996,2671 2003,2652 L2003,2652 C2094,2438 2266,2260 2490,2164 C2638,2360 2698,2600 2670,2832 C2670,2832 2670,2832 2670,2832 C2666,2852 2667,2873 2672,2894 C2692,2971 2771,3016 2848,2995 C2925,2975 2970,2896 2949,2819 C2943,2798 2933,2780 2920,2764 L2920,2764 C2779,2577 2711,2338 2742,2095 C2985,2065 3224,2133 3411,2273 C3427,2286 3445,2296 3466,2302 C3542,2322 3621,2277 3642,2201 C3663,2124 3617,2046 3541,2025 L3540,2024 Z" id="Shape"></path>
            <path d="M1094,2747 L2558,3592 L4022,2747 L4022,1056 L2558,211 L1094,1056 L1094,2747 Z M2558,3805 L910,2854 L910,951 L2558,0 L4206,951 L4206,2854 L2558,3805 Z" id="Shape"></path>
            <path d="M57,4810 C103,4755 168,4703 252,4703 C267,4703 277,4705 279,4706 L279,4753 C279,4753 264,4752 254,4752 C167,4752 104,4808 57,4864 L57,5303 L0,5303 L0,4708 L26,4708 C51,4708 57,4715 57,4773 L57,4811 L57,4810 Z" id="Shape"></path>
            <path d="M761,5166 L761,5020 C715,5010 665,5002 608,5002 C503,5002 424,5040 424,5131 C424,5226 486,5264 566,5264 C662,5264 715,5223 761,5167 L761,5166 Z M761,5221 C711,5273 656,5308 558,5308 C447,5308 366,5247 366,5135 C366,5015 466,4960 605,4960 C662,4960 712,4966 761,4978 L761,4871 C761,4778 702,4745 615,4745 C527,4745 468,4768 430,4798 L406,4798 L406,4751 C454,4725 520,4700 617,4700 C738,4700 818,4744 818,4868 L818,5302 L802,5302 C769,5302 761,5292 761,5244 L761,5221 Z" id="Shape"></path>
            <path d="M955,4707 L1034,4707 L1034,4541 L1091,4541 L1091,4707 L1250,4707 L1250,4750 L1091,4750 L1091,5166 C1091,5238 1124,5260 1194,5260 L1263,5260 L1263,5300 C1245,5304 1210,5307 1175,5307 C1084,5307 1034,5268 1034,5173 L1034,4750 L955,4750 L955,4707 Z" id="Shape"></path>
            <path d="M1412,4963 L1804,4963 C1801,4804 1728,4744 1617,4744 C1507,4744 1426,4817 1413,4963 L1412,4963 Z M1637,5260 C1732,5260 1790,5230 1822,5198 L1847,5198 L1847,5240 C1805,5273 1740,5306 1631,5306 C1452,5306 1352,5191 1352,5006 C1352,4819 1464,4700 1616,4700 C1762,4700 1860,4784 1860,4979 C1860,4991 1859,5004 1859,5006 L1410,5006 C1410,5173 1488,5260 1636,5260 L1637,5260 Z" id="Shape"></path>
            <path d="M2081,4802 C2148,4748 2237,4700 2343,4700 C2426,4700 2497,4734 2497,4859 L2497,5302 L2440,5302 L2440,4866 C2440,4771 2389,4748 2321,4748 C2233,4748 2149,4797 2081,4849 L2081,5302 L2024,5302 L2024,4502 L2045,4502 C2077,4502 2082,4508 2082,4557 L2082,4801 L2081,4802 Z" id="Shape"></path>
            <path d="M3104,5215 C3038,5265 2949,5309 2856,5309 C2765,5309 2695,5271 2695,5154 L2695,4707 L2753,4707 L2753,5148 C2753,5239 2801,5262 2864,5262 C2954,5262 3037,5216 3104,5167 L3104,4707 L3161,4707 L3161,5302 L3135,5302 C3110,5302 3104,5294 3104,5238 L3104,5215 Z" id="Shape"></path>
            <path d="M3431,4869 L3431,5183 C3478,5234 3534,5262 3620,5262 C3718,5262 3828,5207 3828,5002 C3828,4799 3732,4747 3649,4747 C3553,4747 3483,4808 3432,4869 L3431,4869 Z M3431,4813 C3478,4758 3552,4700 3657,4700 C3770,4700 3886,4768 3886,4997 C3886,5232 3753,5307 3631,5307 C3535,5307 3476,5278 3430,5237 C3425,5273 3412,5302 3389,5302 L3374,5302 L3374,4502 L3395,4502 C3428,4502 3432,4509 3432,4557 L3432,4813 L3431,4813 Z" id="Shape"></path>
            <path d="M3967,5263 C3967,5239 3985,5218 4010,5218 C4034,5218 4055,5239 4055,5263 C4055,5288 4034,5306 4010,5306 C3985,5306 3967,5288 3967,5263 Z" id="Shape"></path>
            <path d="M4113,5002 C4113,4813 4230,4699 4396,4699 C4494,4699 4548,4729 4582,4756 L4582,4802 L4552,4802 C4525,4775 4479,4745 4394,4745 C4261,4745 4171,4840 4171,5002 C4171,5166 4255,5260 4394,5260 C4487,5260 4538,5222 4566,5191 L4592,5191 L4592,5234 C4559,5266 4495,5305 4392,5305 C4217,5305 4113,5188 4113,5001 L4113,5002 Z" id="Shape"></path>
            <path d="M5059,5165 L5059,5019 C5013,5009 4963,5001 4906,5001 C4801,5001 4722,5039 4722,5130 C4722,5225 4784,5263 4864,5263 C4960,5263 5013,5222 5060,5166 L5059,5165 Z M5059,5220 C5009,5273 4954,5307 4855,5307 C4744,5307 4663,5246 4663,5134 C4663,5014 4763,4959 4902,4959 C4959,4959 5010,4965 5059,4977 L5059,4869 C5059,4776 4999,4743 4913,4743 C4825,4743 4765,4766 4728,4796 L4704,4796 L4704,4749 C4752,4723 4818,4698 4916,4698 C5037,4698 5117,4743 5117,4866 L5117,5301 L5101,5301 C5068,5301 5060,5291 5060,5243 L5060,5220 L5059,5220 Z" id="Shape"></path>
        </g>
    </g>
</svg>