<svg xmlns="http://www.w3.org/2000/svg" viewBox="0 0 38.84 44.666668" height="44.667" width="38.84"><defs><clipPath id="a"><path d="M0 0h291v334.973H0z"/></clipPath></defs><g clip-path="url(#a)" transform="matrix(.13333 0 0 -.13333 0 44.667)"><path d="M254.824 41.031c0-11.074-4.543-17.496-13.402-20.902C206.988 6.848 166.207 0 127.41 0 88.621 0 47.844 6.848 13.398 20.129 4.543 23.535 0 29.957 0 41.03v293.942h254.824V41.031" fill="#1a5dad"/><path d="M68.34 155.844c-35.274 22.023-46.934 31.777-47.922 46.222-.164 2.938.5 7.883 1.73 11.422l-3.324 2.207c-2.668-4.234-4.351-9.816-4.351-14.941-.004-8.348 2.671-14.664 5.945-19.715 4.965-7.637 10.176-12.426 23.016-22.055 13.847-10.39 23.285-22.515 28.722-35.199h1.969v14.399c18.707-10.614 35.199-20.61 43.309-38.457h1.964c-3.175 18.5-13.636 32.757-51.058 56.117m103.547 48.16c-7.723-3.461-13.039-8.152-17.785-14.899l15.769.829c.567 7 1.484 11.648 2.016 14.07zm56.836-56.289c1.586 3.847 2.605 7.555 2.882 12.242l-23.043 1.309a79.374 79.374 0 0 0-4.585-16.664zm-24.938 57.18a96.845 96.845 0 0 0 3.809-12.883l13.554.746a43.608 43.608 0 0 1-17.363 12.137zm-6.156-13.434c-2.313 8.004-5.074 13.57-6.531 16.191-.926.051-1.864.078-2.809.078-1.555 0-3.125-.199-4.637-.367-2.246-5.593-4.066-11.254-5.554-16.988zm11.309-7.262a82.466 82.466 0 0 0 .421-16.191l22.172 1.176a42.778 42.778 0 0 1-4.144 14.168zm-7.543-16.605a99.188 99.188 0 0 1-2.063 17.051l-22.379 1.015c-1.543-6.812-2.551-13.461-3.027-19.523zm3.445 47.886l2.621 3.676-4.063 5.422.68 1.199 11.426-6.164-2.492-7.551c1.836-.878 3.535-2.003 5.797-3.503l7.379 12.136-19.114 9.989h-42.238l-34.277-20.625c6.437-4.473 12.363-9.305 16.57-14.176 9.183 13.363 25.328 21.894 41.305 21.894 5.222 0 11.312-.554 16.406-2.297zm-84.52 1.2l18.926 11.343c-3.711 1.848-7.82 3.024-12.699 3.086-6.52.102-17.527-2.902-22.856-3.714 2.379-1.629 10.836-7.032 16.629-10.715zm3.883 42.726c-6.719 1.473-10.465.645-14.324-3.039 1.891-.902 4.258-1.394 6.875-1.207 3.769.266 6.117 2.528 7.449 4.246zM230.852 99.699h-2.391c0 13.168-12.07 16.754-24.715 16.754h-39.508c1.27-6.488 1.867-14.086.875-21.262h-1.965c-3.66 29.586-20.378 44.243-43.75 59.926v-13.461h-1.964c-6.207 13.891-19.864 26.934-32.79 36.18h.004c-3.441 2.457-6.996 5-10.523 7.512v-14.524h-1.969c-5.476 14.406-15.43 25.153-29.613 37.946-15.316 13.792-21.504 22.046-25.082 31.539-2.18 5.746-2.79 10.394-2.871 16.707-.14 11.289 5.566 21.484 12.68 25.304v-5.468c-3.532-4.68-5.356-10.586-5.364-16.594-.011-5.535 1.309-11.703 4.075-16.961 8.625-16.426 37.68-36.586 56.136-48.961 57.387-38.484 68.84-45.203 78.371-65.629 1.059-2.277 2.117-5.34 3.004-8.883 8.289 1.281 38.36 5.856 43.906 6.735 1.059.164 3.282.449 4.426.515 5.18 3.278 9.227 7.449 12.781 12.653l-22 1.711a65.272 65.272 0 0 0-3.25-6.344h-1.789a111.94 111.94 0 0 1 1.571 6.609l-5.617.414v1.199l6.089.75a108.981 108.981 0 0 1 1.832 17.614l-27.707 1.566a89.762 89.762 0 0 1-.082-7.996h-1.773a105.738 105.738 0 0 0-1.41 8.188l-6.071.347v1.852l5.766.312c-.805 7.328-.855 14.172-.559 20.047l-16.199.746c.766-1.426 1.555-2.871 2.114-4.437 3.496-9.774 2.664-21.235 1.507-26.5h-1.965c-.281 6.101-2.332 13.57-4.277 18.133-4.48 10.558-14.539 19.89-31.387 30.718V191.16h-1.964c-5.61 17.738-19.559 27.602-40.301 38.254-17.113 8.785-22.434 19.367-21.469 35.754l5.781-3.426c1.48-15.324 13.258-24.164 25.578-24.07 7.25.047 14.047 1.012 20.618 2.328 9.484 1.914 18.257 3.551 25.586.953v9.051h-5.754c-2.059-1.777-6.235-3.848-12.375-3.938-6.754-.128-19.532 3.762-19.532 18.039 0 12.399 10.496 14.375 19.043 14.375 4.567 0 12.168.172 14.743.321 1.914.109 3.343.402 4.269 1.32.973.953 1.266 1.934 1.492 3.199.27 1.539.27 3.118.27 5.774v9.051H95.785v-15.68l-14.98 5.699v3.75h7.172v6.231H61.269v13.023h-9.113c-4.87 0-10.476-3.41-10.867-10.02-.383-6.339 2.473-11.675 8.992-11.675h1.176v-7.586h-1.176c-11.43 0-20.047 8.586-20.047 19.984 0 11.875 10.118 20.918 22.344 20.918h19.316v-13.023h75.102v-19.243c0-3.242-.176-7.597-.492-10.351-.219-1.996-.934-5.606-4.727-8.5-2.285-1.746-5.738-2.449-11.343-2.473-1.825-.008-7.153.082-13.536.473-8.554.539-10.98-2.758-11.328-5.824a8.232 8.232 0 0 1 0-1.883c4.008 3.105 9.68 5.293 16.118 3.269 11.335-3.562 14.566-3.882 20.464.758l.602-1.328c-.637-.988-1.774-2.398-3.43-3.652h5.477v-29.653l17.039 10.207h47.828s20.219-10.558 23.547-12.304c2.933-1.543 4.09-3.407 4.551-6.145.379-2.293-.211-5.191-1.34-7.047-.703-1.16-6.196-10.164-9.102-14.972 8.129-8.797 13.617-21.106 13.617-34.817 0-12.422-4.593-28.449-19.519-40.359 6.562-2.149 10.769-5.723 14.066-10.434l-4.636-15.789" fill="#fddd04"/><path d="M128.906 36.094h-9.051v25.914h8.637c11.863 0 16.418-3.535 16.418-12.434 0-9.625-5.941-13.48-16.004-13.48zm-.722 51.422c7.175 0 12.046-1.555 12.046-9.22 0-8.167-6.523-10.421-13.964-10.421h-6.411v19.64h8.329zm14.433-21.856c6.426 1.043 12.574 6.043 12.574 13.602 0 6.816-2.894 14.304-22.961 14.304H98.383v-.547c1.027-.316 2.64-1.144 3.703-2.195 2.301-2.246 3.055-5.605 3.168-10.058V30.094h28.051c15.429 0 26.597 5.883 26.597 19.363 0 10.965-8.531 15.633-17.285 16.203M47.344 87.516h9.879c8.222 0 12.511-2.403 12.511-11.145 0-7.793-5.613-12.406-14.617-12.406h-7.773zm26.058-57.422H91.68L68.332 59.94c9.36 2.504 16.371 7.621 16.371 16.926 0 10.922-6.535 16.7-23.629 16.7H25.766v-.547c1.3-.465 2.753-1.305 3.707-2.243 2.472-2.437 3.207-6.16 3.207-11.187V30.094h14.664v28.133h5.351l20.707-28.133m145.786 54.773c3.921-2.226 5.113-5.129 5.136-5.156.192-.215.614-.145.614-.145l3.191 10.856s-5.731 4.113-19.363 4.113c-20.637 0-36.086-10.394-36.086-33.137 0-25.632 18.406-32.285 34.625-32.285 15.093 0 21.019 4.797 21.019 4.797v7.45s-5.332-4.981-16.762-4.981c-9.449 0-23.3 4.308-23.597 25.383-.277 19.449 8.203 25.797 19.57 25.797 6.332 0 9.5-1.48 11.653-2.692" fill="#fff"/><path d="M273.438 22.336h1.21c1.543 0 2.215.168 2.696.594.429.422.676 1.07.676 1.797 0 1.109-.403 1.847-1.274 2.183-.379.133-1.148.258-2.012.258h-1.296zm3.144 7.7c3.176 0 5.266-2.095 5.266-5.216 0-2.707-1.797-4.894-3.977-4.933.32-.293.508-.461.723-.77 1.023-1.285 4.265-6.933 4.265-6.933h-4.226c-.684 1.199-.977 1.664-1.668 2.953-1.762 3.203-2.317 4.062-2.961 4.37-.176.044-.32.126-.566.126v-7.45h-3.489v17.852zm-1.062 3.73c-6.79 0-12.208-5.66-12.208-12.766 0-7.113 5.418-12.84 12.208-12.84 6.753 0 12.246 5.727 12.246 12.84 0 7.106-5.493 12.766-12.246 12.766zm0-28.688c-8.704 0-15.852 7.016-15.852 15.922 0 8.863 7.148 15.93 15.852 15.93 8.679 0 15.828-7.067 15.828-15.93 0-8.906-7.149-15.922-15.828-15.922" fill="#1a5dad"/></g></svg>