<?xml version="1.0" encoding="utf-8"?>
<!-- Generator: Adobe Illustrator 18.0.0, SVG Export Plug-In . SVG Version: 6.00 Build 0)  -->
<!DOCTYPE svg PUBLIC "-//W3C//DTD SVG 1.1//EN" "http://www.w3.org/Graphics/SVG/1.1/DTD/svg11.dtd">
<svg version="1.1" id="Layer_1" xmlns="http://www.w3.org/2000/svg" xmlns:xlink="http://www.w3.org/1999/xlink" x="0px" y="0px"
	 viewBox="0 0 215 140" enable-background="new 0 0 215 140" xml:space="preserve">
<g>
	
		<linearGradient id="SVGID_1_" gradientUnits="userSpaceOnUse" x1="21.1769" y1="57.9456" x2="21.1769" y2="54.1773" gradientTransform="matrix(1 0 0 -1 0 142)">
		<stop  offset="0" style="stop-color:#010101;stop-opacity:0"/>
		<stop  offset="1" style="stop-color:#010101;stop-opacity:0.52"/>
	</linearGradient>
	<path fill="url(#SVGID_1_)" d="M36.9,55.9c-0.4-0.1-1.2-2-1.3-2c0,0-21.3,6.2-21.5,6.5c-0.3,0.4-9.3,32.2-9.3,32.2l33,6.2
		L36.9,55.9z"/>
	
		<linearGradient id="SVGID_2_" gradientUnits="userSpaceOnUse" x1="46.3047" y1="59.024" x2="46.3047" y2="54.9819" gradientTransform="matrix(1 0 0 -1 0 142)">
		<stop  offset="0" style="stop-color:#010101;stop-opacity:0"/>
		<stop  offset="1" style="stop-color:#010101;stop-opacity:0.52"/>
	</linearGradient>
	<path fill="url(#SVGID_2_)" d="M46.1,55.1c0,0,0-0.3-0.2-0.4c-0.1-0.1-0.3-0.1-0.3-0.1l-4.7-0.3l-3.4-3.4c-0.1-0.1-0.3-0.2-0.4-0.2
		l0.6,48.2L55.5,95L46.1,55.1z"/>
</g>
<linearGradient id="SVGID_3_" gradientUnits="userSpaceOnUse" x1="50.5561" y1="45.1403" x2="24.7281" y2="53.77" gradientTransform="matrix(1 0 0 -1 0 142)">
	<stop  offset="0" style="stop-color:#010101;stop-opacity:0"/>
	<stop  offset="1" style="stop-color:#010101;stop-opacity:0.4"/>
</linearGradient>
<polygon fill="url(#SVGID_3_)" points="37.7,98.9 56.6,99.3 64.1,95 55.6,95 "/>
<path opacity="0.3" fill="#FFFFFF" enable-background="new    " d="M37.7,57.2c0.7,0.2,1.4-0.2,1.6-1c0.2-0.8-0.3-1.7-1-1.9
	c-0.7-0.2-1.4,0.2-1.6,1C36.6,56.1,37,57,37.7,57.2z"/>
<path opacity="0.62" fill="#5A5A62" enable-background="new    " d="M23.6,60c0,0-0.1,0-0.1,0c-0.6-0.1-1-0.6-1-1.1
	c0-0.5-0.3-13.1,7-15.9c1.9-0.7,3.5-0.6,5,0.5c1.8,1.2,3.1,3.7,3.8,7.3c0.5,2.6,0.6,4.8,0.6,4.8c0,0.5-0.4,0.9-1,0.8
	c-0.6-0.1-1-0.6-1-1.1c-0.1-2.3-0.9-8.6-3.4-10.4c-0.8-0.6-1.8-0.6-3-0.2c-6.3,2.4-6,14.2-6,14.3C24.5,59.6,24.1,60,23.6,60z"/>
<path opacity="0.62" fill="#5A5A62" enable-background="new    " d="M23.6,60c0,0-0.1,0-0.1,0c-0.6-0.1-1-0.6-1-1.1
	c0-0.5-0.3-13.1,7-15.9c1.9-0.7,3.5-0.6,5,0.5c1.8,1.2,3.1,3.7,3.8,7.3c0.5,2.6,0.6,4.8,0.6,4.8c0,0.5-0.4,0.9-1,0.8
	c-0.6-0.1-1-0.6-1-1.1c-0.1-2.3-0.9-8.6-3.4-10.4c-0.8-0.6-1.8-0.6-3-0.2c-6.3,2.4-6,14.2-6,14.3C24.5,59.6,24.1,60,23.6,60z"/>
<path opacity="0.46" fill="#B2B2C3" enable-background="new    " d="M34.1,43.4c-1.3-0.9-2.9-1.1-4.6-0.4c-3,1.2-5.1,4.2-6.1,8.9
	c-0.8,3.5-0.7,6.6-0.7,6.7c0,0.2,0.1,0.3,0.2,0.5c0.1,0.1,0.3,0.2,0.5,0.2c0,0,0.1,0,0.1,0c0.3,0,0.5-0.2,0.5-0.5
	c0-0.1-0.3-12.1,6.2-14.6c1.3-0.5,2.5-0.4,3.4,0.2c2.7,1.9,3.5,8.4,3.6,10.7c0,0.3,0.3,0.7,0.7,0.7c0.4,0,0.6-0.2,0.6-0.5
	C38.4,54.9,38,46.2,34.1,43.4z"/>
<path opacity="0.46" fill="#B2B2C3" enable-background="new    " d="M23.3,59C23.3,59,23.3,59,23.3,59c-0.3,0-0.4-0.2-0.4-0.4
	c0-0.1-0.1-3.2,0.7-6.6c1-4.6,3.1-7.6,6-8.8c1.7-0.6,3.1-0.5,4.4,0.4c3.8,2.7,4.1,11.2,4.1,11.6c0,0.2-0.2,0.3-0.4,0.3
	c-0.2,0-0.4-0.2-0.4-0.4c0-0.1-0.4-8.5-3.7-10.9c-1-0.7-2.2-0.8-3.6-0.3c-6.6,2.6-6.3,14.7-6.3,14.8C23.6,58.8,23.5,59,23.3,59z"/>
<path opacity="0.62" fill="#5A5A62" enable-background="new    " d="M26,49.4c0.3-0.5,0.5-1,0.8-1.5C26.7,48,26,49.8,24,49.5
	C24,49.5,25.2,49.9,26,49.4z"/>
<path opacity="0.62" fill="#5A5A62" enable-background="new    " d="M25.3,51.5c0.2-0.5,0.4-1.1,0.6-1.7c-0.1,0.2-0.4,2-2.5,2
	C23.3,51.9,24.5,52.1,25.3,51.5z"/>
<path opacity="0.62" fill="#5A5A62" enable-background="new    " d="M24.8,53.7c0.2-0.6,0.3-1.1,0.4-1.7c-0.1,0.2-0.1,2-2.3,2.3
	C22.9,54.3,24.1,54.4,24.8,53.7z"/>
<path opacity="0.62" fill="#5A5A62" enable-background="new    " d="M37.1,47.2c-0.3-0.6-0.6-1.2-0.9-1.8c0.1,0.2,1.1,2.1,0,3.5
	C36.2,48.9,37.1,48.2,37.1,47.2z"/>
<path opacity="0.62" fill="#5A5A62" enable-background="new    " d="M35.2,44.2c-0.5-0.4-1.1-0.8-1.6-1.2c0.2,0.2,2,1.4,1.9,3.3
	C35.5,46.3,35.8,45.2,35.2,44.2z"/>
<path opacity="0.62" fill="#5A5A62" enable-background="new    " d="M37.9,50.3c-0.2-0.6-0.3-1.2-0.5-1.8c0.1,0.2,0.7,2.2-0.7,3.3
	C36.7,51.7,37.7,51.3,37.9,50.3z"/>
<path opacity="0.62" fill="#5A5A62" enable-background="new    " d="M38.7,53.4c-0.1-0.6-0.2-1.2-0.3-1.9c0,0.2,0.4,2.2-1.1,3.1
	C37.2,54.7,38.3,54.3,38.7,53.4z"/>
<path opacity="0.62" fill="#5A5A62" enable-background="new    " d="M24.5,56.2c0.1-0.6,0.1-1.2,0.2-1.8c0,0.2,0,2.1-1.9,2.6
	C22.7,57,23.9,57,24.5,56.2z"/>
<path opacity="0.62" fill="#5A5A62" enable-background="new    " d="M27,47.5c0.4-0.4,0.8-0.8,1.1-1.3c-0.1,0.1-1.2,1.5-3.2,1
	C24.9,47.2,26.1,47.8,27,47.5z"/>
<path opacity="0.62" fill="#5A5A62" enable-background="new    " d="M28.3,46c0.5-0.3,0.9-0.7,1.3-1.1c-0.2,0.1-1.5,1.2-3.4,0.4
	C26.2,45.4,27.2,46.1,28.3,46z"/>
<path opacity="0.62" fill="#5A5A62" enable-background="new    " d="M30.1,44.9c0.6-0.2,1.1-0.4,1.7-0.6c-0.2,0.1-1.9,0.7-3.6-0.6
	C28.1,43.7,29,44.7,30.1,44.9z"/>
<path opacity="0.62" fill="#5A5A62" enable-background="new    " d="M31.7,44.3c0.5,0.1,1,0.1,1.4,0.1c-0.2,0-1.6-0.1-2.5-1.5
	C30.6,42.9,31,43.8,31.7,44.3z"/>
<path opacity="0.62" fill="#5A5A62" enable-background="new    " d="M33.6,45c0.4,0.4,0.7,0.7,1.1,1.1c-0.1-0.1-1.3-1.2-1-2.6
	C33.7,43.5,33.3,44.2,33.6,45z"/>
<linearGradient id="SVGID_4_" gradientUnits="userSpaceOnUse" x1="23.4085" y1="98.7272" x2="20.1164" y2="84.9179" gradientTransform="matrix(1 0 -0.1763 -1 25.0711 142)">
	<stop  offset="0" style="stop-color:#FFFFFF;stop-opacity:0.65"/>
	<stop  offset="1" style="stop-color:#FFFFFF;stop-opacity:0"/>
</linearGradient>
<path opacity="0.74" fill="url(#SVGID_4_)" enable-background="new    " d="M37.7,54.9c0-0.4-0.4-8.8-4-11.4
	c-0.7-0.5-1.5-0.7-2.3-0.7c-0.6,0-1.2,0.1-1.9,0.4c-2.9,1.1-4.9,4.1-5.9,8.7c-0.8,3.4-0.7,6.5-0.7,6.6c0,0.1,0.1,0.2,0.2,0.2
	c0,0,0,0,0,0c0.1,0,0.2-0.1,0.2-0.2c0-0.1-0.3-12.4,6.4-15c1.5-0.6,2.8-0.5,3.8,0.3c3.5,2.5,3.8,11,3.8,11.1c0,0.1,0.1,0.2,0.2,0.2
	c0,0,0,0,0,0C37.6,55.1,37.7,55,37.7,54.9z"/>
<g>
	
		<linearGradient id="SVGID_5_" gradientUnits="userSpaceOnUse" x1="26.7532" y1="94.4567" x2="28.3234" y2="83.8477" gradientTransform="matrix(1 0 -0.1763 -1 25.0711 142)">
		<stop  offset="0" style="stop-color:#010101;stop-opacity:0"/>
		<stop  offset="1" style="stop-color:#010101;stop-opacity:0.4"/>
	</linearGradient>
	<path fill="url(#SVGID_5_)" d="M38.3,50.7c-0.8-3.6-2.1-6.1-3.8-7.3c-1-0.7-2-1-3.1-0.9c0.9,0.1,1.7,0.4,2.5,0.9
		c1.8,1.2,3.1,3.7,3.8,7.3c0.5,2.6,0.6,4.8,0.6,4.8c0,0.4-0.2,0.7-0.5,0.8c0.1,0,0.1,0,0.2,0c0.6,0.1,1-0.3,1-0.8
		C38.9,55.5,38.8,53.3,38.3,50.7z"/>
</g>
<linearGradient id="SVGID_6_" gradientUnits="userSpaceOnUse" x1="16.5269" y1="87.279" x2="22.0322" y2="98.8316" gradientTransform="matrix(1 0 -0.1763 -1 25.0711 142)">
	<stop  offset="0" style="stop-color:#010101;stop-opacity:0"/>
	<stop  offset="1" style="stop-color:#010101;stop-opacity:0.4"/>
</linearGradient>
<path fill="url(#SVGID_6_)" d="M29.8,44.8c-6.3,2.4-6,14.2-6,14.3c0,0.4-0.2,0.7-0.5,0.8c0.1,0,0.1,0,0.2,0c0,0,0.1,0,0.1,0
	c0.5,0,0.8-0.4,0.8-0.9c0-0.1-0.3-11.9,6-14.3c0.4-0.2,0.8-0.3,1.2-0.3C31.1,44.4,30.5,44.5,29.8,44.8z"/>
<linearGradient id="SVGID_7_" gradientUnits="userSpaceOnUse" x1="28.6668" y1="95.7352" x2="31.652" y2="80.6848" gradientTransform="matrix(1 0 0 -1 0 142)">
	<stop  offset="0" style="stop-color:#010101;stop-opacity:0"/>
	<stop  offset="1" style="stop-color:#010101;stop-opacity:0.4"/>
</linearGradient>
<path fill="url(#SVGID_7_)" d="M23.6,60c0,0-0.1,0-0.1,0c-0.6-0.1-1-0.6-1-1.1c0-0.5-0.3-13.1,7-15.9c1.9-0.7,3.5-0.6,5,0.5
	c1.8,1.2,3.1,3.7,3.8,7.3c0.5,2.6,0.6,4.8,0.6,4.8c0,0.5-0.4,0.9-1,0.8c-0.6-0.1-1-0.6-1-1.1c-0.1-2.3-0.9-8.6-3.4-10.4
	c-0.8-0.6-1.8-0.6-3-0.2c-6.3,2.4-6,14.2-6,14.3C24.5,59.6,24.1,60,23.6,60z"/>
<linearGradient id="SVGID_8_" gradientUnits="userSpaceOnUse" x1="34.7585" y1="91.6975" x2="16.7943" y2="47.4683" gradientTransform="matrix(1 0 0 -1 0 142)">
	<stop  offset="0" style="stop-color:#B8D26E"/>
	<stop  offset="1" style="stop-color:#7FB642"/>
</linearGradient>
<path fill="url(#SVGID_8_)" d="M39.4,47.7L11,56.5c0,0-1.2,0.3-1.5,0.7c-0.3,0.4-0.4,1.4-0.4,1.4L4.7,92.5l33,6.2l2.5-51
	C39.8,47.6,39.5,47.7,39.4,47.7z"/>
<linearGradient id="SVGID_9_" gradientUnits="userSpaceOnUse" x1="61.4491" y1="72.3636" x2="44.785" y2="69.7521" gradientTransform="matrix(1 0 0 -1 0 142)">
	<stop  offset="0" style="stop-color:#B5D33C"/>
	<stop  offset="1" style="stop-color:#61A945"/>
</linearGradient>
<path fill="url(#SVGID_9_)" d="M49.2,52.1c0,0,0-0.3-0.2-0.4c-0.1-0.1-0.3-0.1-0.3-0.1l-4.7-0.3l-3.4-3.4c-0.1-0.1-0.3-0.2-0.4-0.2
	l-2.5,51l17.9-3.9L49.2,52.1z"/>
<linearGradient id="SVGID_10_" gradientUnits="userSpaceOnUse" x1="13.2811" y1="52.5939" x2="8.9279" y2="17.1467" gradientTransform="matrix(0.9991 4.350000e-02 4.350000e-02 -0.9991 6.8709 124.5638)">
	<stop  offset="0" style="stop-color:#1D1D1B;stop-opacity:0.5"/>
	<stop  offset="8.960000e-02" style="stop-color:#1D1D1B;stop-opacity:0.4552"/>
	<stop  offset="1" style="stop-color:#1D1D1B;stop-opacity:0"/>
</linearGradient>
<path opacity="0.47" fill="url(#SVGID_10_)" enable-background="new    " d="M27.3,75.7c-0.5-0.7-1.1-1.3-1.7-1.8
	c-0.6-0.5-1.3-1-1.9-1.4c-0.4-0.3-0.8-0.6-1.2-0.8c-0.3-0.3-0.6-0.5-0.8-0.8c-0.2-0.3-0.4-0.5-0.5-0.8c-0.1-0.3-0.1-0.5-0.1-0.8
	c0-0.4,0.1-0.7,0.2-1c0.1-0.3,0.4-0.6,0.6-0.8c0.3-0.2,0.6-0.4,1-0.5c0.4-0.1,0.8-0.2,1.3-0.2c0.5,0,1,0,1.5,0
	c0.5,0,0.9,0.1,1.3,0.2c0.4,0.1,0.8,0.2,1.2,0.4c0.3,0.1,0.7,0.3,0.9,0.4l2.2-6.6c-0.3-0.2-0.7-0.3-1.2-0.5c-0.5-0.1-1-0.2-1.5-0.3
	c-0.6-0.1-1.2-0.1-1.8-0.1c-0.6,0-1.3,0-2,0.1c-1.5,0.2-2.9,0.6-4,1.2c-1.2,0.6-2.2,1.3-3,2.2c-0.8,0.9-1.4,1.9-1.9,3
	c-0.4,1.1-0.7,2.4-0.8,3.7c0,0.8,0,1.5,0.2,2.2c0.2,0.7,0.4,1.3,0.8,1.9c0.3,0.6,0.8,1.1,1.2,1.6c0.5,0.5,1,1,1.6,1.4
	c0.5,0.3,0.9,0.7,1.2,1c0.3,0.3,0.6,0.6,0.8,0.9c0.2,0.3,0.3,0.6,0.4,0.9c0.1,0.3,0.1,0.6,0.1,1c0,0.3-0.1,0.7-0.2,1
	c-0.1,0.3-0.3,0.5-0.6,0.7c-0.2,0.2-0.5,0.3-0.9,0.4c-0.3,0.1-0.7,0.1-1.2,0c-0.5-0.1-1-0.2-1.5-0.4c-0.5-0.2-0.9-0.4-1.4-0.7
	c-0.4-0.2-0.8-0.5-1.2-0.7c-0.4-0.2-0.7-0.5-0.9-0.7l-1.5,5c0.2,0.3,0.6,0.6,0.9,0.9c0.4,0.3,0.8,0.6,1.3,0.9c0.5,0.3,1,0.5,1.6,0.8
	c0.6,0.2,1.2,0.4,1.8,0.6c0,0,0,0,0,0c0,0,0,0,0,0c0,0,0,0,0,0c0,0,0,0,0,0c1.4,0.3,2.7,0.4,3.9,0.2c1.3-0.2,2.4-0.6,3.5-1.3
	c1-0.7,1.9-1.7,2.5-2.9c0.6-1.2,1-2.7,1.1-4.5c0-1.1-0.1-2-0.4-2.9C28.3,77.1,27.8,76.4,27.3,75.7z"/>
<linearGradient id="SVGID_11_" gradientUnits="userSpaceOnUse" x1="13.6111" y1="52.2637" x2="9.2579" y2="16.8165" gradientTransform="matrix(0.9991 4.350000e-02 4.350000e-02 -0.9991 6.8709 124.5638)">
	<stop  offset="0" style="stop-color:#FFFFFF"/>
	<stop  offset="1" style="stop-color:#CFCEE8"/>
</linearGradient>
<path fill="url(#SVGID_11_)" d="M27.6,76c-0.5-0.7-1.1-1.3-1.7-1.8c-0.6-0.5-1.3-1-1.9-1.4c-0.4-0.3-0.8-0.6-1.2-0.8
	c-0.3-0.3-0.6-0.5-0.8-0.8c-0.2-0.3-0.4-0.5-0.5-0.8c-0.1-0.3-0.1-0.5-0.1-0.8c0-0.4,0.1-0.7,0.2-1c0.1-0.3,0.4-0.6,0.6-0.8
	c0.3-0.2,0.6-0.4,1-0.5c0.4-0.1,0.8-0.2,1.3-0.2c0.5,0,1,0,1.5,0c0.5,0,0.9,0.1,1.3,0.2c0.4,0.1,0.8,0.2,1.2,0.4
	c0.4,0.1,0.7,0.3,0.9,0.4l2.2-6.6c-0.3-0.2-0.7-0.3-1.2-0.5c-0.5-0.1-1-0.2-1.5-0.3c-0.6-0.1-1.2-0.1-1.8-0.1c-0.6,0-1.3,0-2,0.1
	c-1.5,0.2-2.9,0.6-4,1.2c-1.2,0.6-2.2,1.3-3,2.2c-0.8,0.9-1.4,1.9-1.9,3c-0.4,1.1-0.7,2.4-0.8,3.7c0,0.8,0,1.5,0.2,2.2
	c0.2,0.7,0.4,1.3,0.8,1.9c0.3,0.6,0.8,1.1,1.2,1.6c0.5,0.5,1,1,1.6,1.4c0.5,0.3,0.9,0.7,1.2,1c0.3,0.3,0.6,0.6,0.8,0.9
	c0.2,0.3,0.3,0.6,0.4,0.9c0.1,0.3,0.1,0.6,0.1,1c0,0.3-0.1,0.7-0.2,1c-0.1,0.3-0.3,0.5-0.6,0.7c-0.2,0.2-0.5,0.3-0.9,0.4
	c-0.3,0.1-0.7,0.1-1.2,0c-0.5-0.1-1-0.2-1.5-0.4c-0.5-0.2-0.9-0.4-1.4-0.7c-0.4-0.2-0.8-0.5-1.2-0.8c-0.4-0.2-0.7-0.5-0.9-0.7
	l-1.5,5c0.2,0.3,0.6,0.6,0.9,0.9c0.4,0.3,0.8,0.6,1.3,0.9c0.5,0.3,1,0.5,1.6,0.8c0.6,0.2,1.2,0.4,1.8,0.6c0,0,0,0,0,0c0,0,0,0,0,0
	c0,0,0,0,0,0c0,0,0,0,0,0c1.4,0.3,2.7,0.4,3.9,0.2c1.3-0.2,2.4-0.6,3.5-1.3c1-0.7,1.9-1.7,2.5-2.9c0.6-1.2,1-2.7,1.1-4.5
	c0-1.1-0.1-2-0.4-2.9C28.6,77.5,28.2,76.7,27.6,76z"/>
<linearGradient id="SVGID_12_" gradientUnits="userSpaceOnUse" x1="30.7784" y1="68.0477" x2="52.4706" y2="70.143" gradientTransform="matrix(1 0 0 -1 0 142)">
	<stop  offset="0" style="stop-color:#1D1D1B;stop-opacity:0.5"/>
	<stop  offset="3.800000e-02" style="stop-color:#1D1D1B;stop-opacity:0.4837"/>
	<stop  offset="0.4243" style="stop-color:#1D1D1B;stop-opacity:0.3185"/>
	<stop  offset="1" style="stop-color:#1D1D1B;stop-opacity:0"/>
</linearGradient>
<path opacity="0.41" fill="url(#SVGID_12_)" enable-background="new    " d="M45.2,89.1l-1.1-37.9l-0.2-0.2l0.5,37.6
	c0,0-4.7,7.2-5.4,7c-1-0.3,2-47.4,2-47.4l-0.3-0.3c-0.1-0.1-0.3-0.2-0.5-0.2l-2.5,50.3l0,0l0,0.7l0.9-1.1l0,0L45.2,89.1z"/>
<linearGradient id="SVGID_13_" gradientUnits="userSpaceOnUse" x1="34.6107" y1="92.9673" x2="32.1053" y2="89.1415" gradientTransform="matrix(1 0 0 -1 0 142)">
	<stop  offset="0" style="stop-color:#010101;stop-opacity:0"/>
	<stop  offset="1" style="stop-color:#010101;stop-opacity:0.4"/>
</linearGradient>
<path fill="url(#SVGID_13_)" d="M32.4,49.9c-0.4,1.6-0.9,3.1-1.3,3.9c-0.2,0.5,0,1,0.5,1.1c0.5,0.1,1.1-0.3,1.3-0.8
	c0-0.1,0.9-2.3,1.5-4.8c0,0,0,0,0,0L32.4,49.9z"/>
<linearGradient id="SVGID_14_" gradientUnits="userSpaceOnUse" x1="19.462" y1="88.2716" x2="17.329" y2="85.7324" gradientTransform="matrix(1 0 0 -1 0 142)">
	<stop  offset="0" style="stop-color:#010101;stop-opacity:0"/>
	<stop  offset="1" style="stop-color:#010101;stop-opacity:0.4"/>
</linearGradient>
<path fill="url(#SVGID_14_)" d="M17.2,54.6c-0.5,1-0.9,1.9-1.3,2.5c-0.3,0.5-0.1,1,0.4,1.2c0.5,0.2,1.2-0.1,1.5-0.6
	c0-0.1,1-1.7,1.9-3.8L17.2,54.6z"/>
<linearGradient id="SVGID_15_" gradientUnits="userSpaceOnUse" x1="46.0721" y1="47.4071" x2="46.9114" y2="44.197" gradientTransform="matrix(1 0 0 -1 0 142)">
	<stop  offset="0" style="stop-color:#010101;stop-opacity:0"/>
	<stop  offset="1" style="stop-color:#010101;stop-opacity:0.4"/>
</linearGradient>
<polygon opacity="0.32" fill="url(#SVGID_15_)" enable-background="new    " points="37.7,98.7 45.2,89.1 55.6,94.8 "/>
<linearGradient id="SVGID_16_" gradientUnits="userSpaceOnUse" x1="44.9608" y1="52.4606" x2="46.8985" y2="44.0904" gradientTransform="matrix(1 0 0 -1 0 142)">
	<stop  offset="0" style="stop-color:#FFFFFF;stop-opacity:0.5"/>
	<stop  offset="8.960000e-02" style="stop-color:#FFFFFF;stop-opacity:0.4552"/>
	<stop  offset="1" style="stop-color:#FFFFFF;stop-opacity:0"/>
</linearGradient>
<polygon opacity="0.19" fill="url(#SVGID_16_)" enable-background="new    " points="37.7,98.7 45.1,89.2 55.6,94.8 "/>
<linearGradient id="SVGID_17_" gradientUnits="userSpaceOnUse" x1="44.2044" y1="51.5314" x2="47.5999" y2="42.7508" gradientTransform="matrix(1 0 0 -1 0 142)">
	<stop  offset="0" style="stop-color:#010101;stop-opacity:0"/>
	<stop  offset="1" style="stop-color:#010101;stop-opacity:0.4"/>
</linearGradient>
<polygon opacity="0.19" fill="url(#SVGID_17_)" enable-background="new    " points="37.7,98.7 45.1,89.2 55.6,94.8 "/>
<linearGradient id="SVGID_18_" gradientUnits="userSpaceOnUse" x1="40.646" y1="87.8353" x2="19.0962" y2="63.5049" gradientTransform="matrix(1 0 0 -1 0 142)">
	<stop  offset="0" style="stop-color:#FFFFFF;stop-opacity:0.5"/>
	<stop  offset="1" style="stop-color:#FFFFFF;stop-opacity:0"/>
</linearGradient>
<path opacity="0.6" fill="url(#SVGID_18_)" enable-background="new    " d="M30.4,72.1c3.9,5.3,6.5,11,7.8,16.5l2-40.9
	c-0.4-0.1-0.7,0-0.8,0L11,56.5c0,0-0.3,0.1-0.6,0.2C17.6,59.2,24.8,64.5,30.4,72.1z"/>
<linearGradient id="SVGID_19_" gradientUnits="userSpaceOnUse" x1="37.0992" y1="69.3622" x2="61.0126" y2="68.6308" gradientTransform="matrix(1 0 0 -1 0 142)">
	<stop  offset="0" style="stop-color:#1D1D1B;stop-opacity:0.5"/>
	<stop  offset="8.960000e-02" style="stop-color:#1D1D1B;stop-opacity:0.4552"/>
	<stop  offset="1" style="stop-color:#1D1D1B;stop-opacity:0"/>
</linearGradient>
<path fill="url(#SVGID_19_)" d="M49.1,51.7c0.2,0.1,0.2,0.3,0.2,0.3l6.3,42.7l-10.3-5.6l-1.1-37.9l4.6,0.3
	C48.7,51.6,48.9,51.6,49.1,51.7z"/>
<linearGradient id="SVGID_20_" gradientUnits="userSpaceOnUse" x1="55.0288" y1="88.4417" x2="53.1755" y2="81.5708" gradientTransform="matrix(1 0 0 -1 0 142)">
	<stop  offset="0" style="stop-color:#FFFFFF;stop-opacity:0.4"/>
	<stop  offset="1" style="stop-color:#FFFFFF;stop-opacity:0"/>
</linearGradient>
<path fill="url(#SVGID_20_)" d="M48.3,51.8c0,0,0.2,0,0.4,0.2c0.2,0.1,0.2,0.3,0.2,0.3L55,94.5l0.5,0.3l-6.3-42.7c0,0,0-0.2-0.2-0.3
	c-0.2-0.1-0.4-0.1-0.4-0.1l-4.6-0.3L48.3,51.8z"/>
<linearGradient id="SVGID_21_" gradientUnits="userSpaceOnUse" x1="19.5725" y1="43.7947" x2="21.1867" y2="52.0293" gradientTransform="matrix(1 0 0 -1 0 142)">
	<stop  offset="0" style="stop-color:#1D1D1B;stop-opacity:0.5"/>
	<stop  offset="8.960000e-02" style="stop-color:#1D1D1B;stop-opacity:0.4552"/>
	<stop  offset="1" style="stop-color:#1D1D1B;stop-opacity:0"/>
</linearGradient>
<polygon fill="url(#SVGID_21_)" points="4.7,92.5 37.7,98.7 39.3,63.7 8.1,63.9 "/>
<ellipse transform="matrix(0.9392 0.3434 -0.3434 0.9392 20.7587 -2.2565)" opacity="0.3" fill="#FFFFFF" enable-background="new    " cx="16.8" cy="57.5" rx="1.3" ry="1.6"/>
<ellipse transform="matrix(0.9392 0.3434 -0.3434 0.9392 20.6305 -2.2791)" opacity="0.89" fill="#010101" enable-background="new    " cx="16.8" cy="57.1" rx="1.3" ry="1.6"/>
<linearGradient id="SVGID_22_" gradientUnits="userSpaceOnUse" x1="33.9288" y1="69.0421" x2="55.7032" y2="68.1486" gradientTransform="matrix(1 0 0 -1 0 142)">
	<stop  offset="0" style="stop-color:#1D1D1B;stop-opacity:0.5"/>
	<stop  offset="1" style="stop-color:#1D1D1B;stop-opacity:0"/>
</linearGradient>
<path fill="url(#SVGID_22_)" d="M44.1,51.3l-3.4-3.4c-0.1-0.1-0.3-0.2-0.5-0.2l-2.5,51l7.5-9.5L44.1,51.3z"/>
<linearGradient id="SVGID_23_" gradientUnits="userSpaceOnUse" x1="26.2871" y1="94.1632" x2="22.5556" y2="53.3657" gradientTransform="matrix(1 0 0 -1 0 142)">
	<stop  offset="0" style="stop-color:#FFFFFF;stop-opacity:0.5"/>
	<stop  offset="1" style="stop-color:#FFFFFF;stop-opacity:0"/>
</linearGradient>
<path fill="url(#SVGID_23_)" d="M39.4,47.7L11,56.5c0,0-1.2,0.3-1.5,0.7c0,0,0,0.1-0.1,0.1l28.7-7.9c0.2-0.1,0.8-0.3,0.7,1.4
	l-1.7,47.8l0.6,0.1l2.5-51C39.8,47.6,39.5,47.7,39.4,47.7z"/>
<linearGradient id="SVGID_24_" gradientUnits="userSpaceOnUse" x1="26.2871" y1="94.1632" x2="22.5556" y2="53.3657" gradientTransform="matrix(1 0 0 -1 0 142)">
	<stop  offset="0" style="stop-color:#FFFFFF;stop-opacity:0.5"/>
	<stop  offset="1" style="stop-color:#FFFFFF;stop-opacity:0"/>
</linearGradient>
<path fill="url(#SVGID_24_)" d="M39.4,47.7L11,56.5c0,0-1.2,0.3-1.5,0.7c0,0,0,0.1-0.1,0.1l6.6-1.8l22.8-7.1c0.1,0,0.5-0.1,0.8,0
	l-2.5,50.2l0.5,0.1l2.5-51C39.8,47.6,39.5,47.7,39.4,47.7z"/>
<linearGradient id="SVGID_25_" gradientUnits="userSpaceOnUse" x1="45.1652" y1="52.3806" x2="37.7505" y2="40.6602" gradientTransform="matrix(1 0 0 -1 0 142)">
	<stop  offset="0" style="stop-color:#FFFFFF;stop-opacity:0.5"/>
	<stop  offset="8.960000e-02" style="stop-color:#FFFFFF;stop-opacity:0.4552"/>
	<stop  offset="1" style="stop-color:#FFFFFF;stop-opacity:0"/>
</linearGradient>
<path opacity="0.32" fill="url(#SVGID_25_)" enable-background="new    " d="M46.7,90l-1.5-0.8l-7.5,9.5l0.4-0.1
	c0,0,6.6-8.5,7.2-8.8C45.7,89.6,46.7,90,46.7,90z"/>
<linearGradient id="SVGID_26_" gradientUnits="userSpaceOnUse" x1="42.8713" y1="53.4091" x2="42.3541" y2="51.4918" gradientTransform="matrix(1 0 0 -1 0 142)">
	<stop  offset="0" style="stop-color:#010101;stop-opacity:0"/>
	<stop  offset="1" style="stop-color:#010101;stop-opacity:0.4"/>
</linearGradient>
<path opacity="0.57" fill="url(#SVGID_26_)" enable-background="new    " d="M37.7,98.7l7.5-9.5C45.2,89.1,40.4,94.3,37.7,98.7z"/>
<linearGradient id="SVGID_27_" gradientUnits="userSpaceOnUse" x1="50.7438" y1="51.3412" x2="50.6163" y2="50.8684" gradientTransform="matrix(1 0 0 -1 0 142)">
	<stop  offset="0" style="stop-color:#010101;stop-opacity:0"/>
	<stop  offset="1" style="stop-color:#010101;stop-opacity:0.4"/>
</linearGradient>
<path opacity="0.46" fill="url(#SVGID_27_)" enable-background="new    " d="M55.6,94.8l-10.4-5.6C45.2,89.1,46.4,89.3,55.6,94.8z"
	/>
<ellipse transform="matrix(0.9392 0.3435 -0.3435 0.9392 20.4916 -7.6361)" opacity="0.3" fill="#FFFFFF" enable-background="new    " cx="31.8" cy="54" rx="1.3" ry="1.6"/>
<ellipse transform="matrix(0.9392 0.3435 -0.3435 0.9392 20.3637 -7.659)" opacity="0.89" fill="#010101" enable-background="new    " cx="31.8" cy="53.7" rx="1.3" ry="1.6"/>
<path fill="#5A5A62" d="M16.7,58.2c0,0-0.1,0-0.1,0c-0.5-0.1-0.9-0.6-0.8-1.1c0.1-0.5,2-13.1,9.8-15.9c2-0.7,3.6-0.6,4.9,0.5
	c1.5,1.2,2.4,3.7,2.5,7.3c0.1,2.6-0.2,4.8-0.2,4.8c-0.1,0.5-0.6,0.9-1.1,0.8c-0.5-0.1-0.9-0.6-0.8-1.1c0.3-2.3,0.6-8.6-1.6-10.4
	c-0.7-0.6-1.7-0.6-3-0.2c-6.7,2.4-8.5,14.2-8.5,14.3C17.6,57.9,17.2,58.2,16.7,58.2z"/>
<path opacity="0.46" fill="#B2B2C3" enable-background="new    " d="M30.1,41.7c-1.2-0.9-2.7-1.1-4.6-0.4c-3.2,1.2-5.9,4.2-7.7,8.9
	c-1.4,3.5-1.8,6.6-1.9,6.7c0,0.2,0,0.3,0.1,0.5c0.1,0.1,0.2,0.2,0.4,0.2c0,0,0.1,0,0.1,0c0.3,0,0.6-0.2,0.6-0.5
	c0-0.1,1.8-12.1,8.8-14.6c1.4-0.5,2.5-0.4,3.4,0.2c2.4,1.9,2.1,8.4,1.7,10.7c0,0.3,0.2,0.7,0.5,0.7c0.3,0,0.7-0.2,0.7-0.5
	C32.3,53.2,33.5,44.4,30.1,41.7z"/>
<path opacity="0.81" fill="#B2B2C3" enable-background="new    " d="M16.6,57.2C16.5,57.2,16.5,57.2,16.6,57.2
	c-0.3,0-0.4-0.2-0.4-0.4c0-0.1,0.5-3.2,1.8-6.6c1.8-4.6,4.5-7.6,7.6-8.8c1.8-0.6,3.2-0.5,4.3,0.4c3.3,2.7,2.1,11.2,2.1,11.6
	c0,0.2-0.2,0.3-0.4,0.3c-0.2,0-0.3-0.2-0.3-0.4c0-0.1,1.1-8.5-1.8-10.9c-0.9-0.7-2.1-0.8-3.6-0.3c-7.1,2.6-8.9,14.7-8.9,14.8
	C16.9,57.1,16.7,57.2,16.6,57.2z"/>
<path opacity="0.42" fill="#5A5A62" enable-background="new    " d="M21,47.6c0.4-0.5,0.7-1,1-1.5c-0.1,0.2-1.1,1.9-3.1,1.7
	C18.9,47.7,20,48.1,21,47.6z"/>
<path opacity="0.42" fill="#5A5A62" enable-background="new    " d="M19.8,49.8c0.3-0.5,0.6-1.1,0.8-1.7c-0.1,0.2-0.8,2-2.9,2
	C17.8,50.2,19,50.4,19.8,49.8z"/>
<path opacity="0.42" fill="#5A5A62" enable-background="new    " d="M19,52c0.3-0.6,0.5-1.1,0.7-1.7c-0.1,0.2-0.5,2-2.7,2.3
	C17,52.5,18.2,52.7,19,52z"/>
<path opacity="0.62" fill="#5A5A62" enable-background="new    " d="M32.4,45.5c-0.2-0.6-0.4-1.2-0.6-1.8c0.1,0.2,0.7,2.1-0.6,3.5
	C31.2,47.2,32.2,46.5,32.4,45.5z"/>
<path opacity="0.62" fill="#5A5A62" enable-background="new    " d="M31.1,42.4c-0.5-0.4-0.9-0.8-1.4-1.2c0.2,0.2,1.7,1.4,1.3,3.3
	C31,44.5,31.4,43.4,31.1,42.4z"/>
<path opacity="0.62" fill="#5A5A62" enable-background="new    " d="M32.7,48.5c0-0.6-0.1-1.2-0.2-1.8c0,0.2,0.3,2.2-1.3,3.3
	C31.2,50,32.3,49.5,32.7,48.5z"/>
<path opacity="0.62" fill="#5A5A62" enable-background="new    " d="M32.9,51.7c0-0.6,0-1.2,0-1.9c0,0.2,0,2.2-1.7,3.1
	C31.2,52.9,32.4,52.6,32.9,51.7z"/>
<path opacity="0.42" fill="#5A5A62" enable-background="new    " d="M18.2,54.4c0.2-0.6,0.3-1.2,0.5-1.8c-0.1,0.2-0.4,2.1-2.4,2.6
	C16.3,55.2,17.5,55.2,18.2,54.4z"/>
<path opacity="0.42" fill="#5A5A62" enable-background="new    " d="M22.3,45.8c0.5-0.4,0.9-0.8,1.3-1.3c-0.2,0.1-1.5,1.5-3.4,1
	C20.2,45.5,21.3,46.1,22.3,45.8z"/>
<path opacity="0.42" fill="#5A5A62" enable-background="new    " d="M23.8,44.3c0.5-0.3,1-0.7,1.5-1.1c-0.2,0.1-1.7,1.2-3.5,0.4
	C21.8,43.6,22.7,44.4,23.8,44.3z"/>
<path opacity="0.62" fill="#5A5A62" enable-background="new    " d="M25.8,43.1c0.6-0.2,1.2-0.4,1.8-0.6c-0.2,0.1-2,0.7-3.5-0.6
	C24.1,42,24.8,43,25.8,43.1z"/>
<path opacity="0.62" fill="#5A5A62" enable-background="new    " d="M27.5,42.5c0.5,0.1,0.9,0.1,1.4,0.1c-0.2,0-1.6-0.1-2.2-1.5
	C26.7,41.2,26.9,42.1,27.5,42.5z"/>
<path opacity="0.62" fill="#5A5A62" enable-background="new    " d="M29.3,43.3c0.3,0.4,0.6,0.7,0.9,1.1c-0.1-0.1-1-1.2-0.6-2.6
	C29.7,41.7,29.2,42.5,29.3,43.3z"/>
<linearGradient id="SVGID_28_" gradientUnits="userSpaceOnUse" x1="27.078" y1="100.4687" x2="23.7859" y2="86.6592" gradientTransform="matrix(1 0 0 -1 0 142)">
	<stop  offset="0" style="stop-color:#FFFFFF;stop-opacity:0.65"/>
	<stop  offset="1" style="stop-color:#FFFFFF;stop-opacity:0"/>
</linearGradient>
<path fill="url(#SVGID_28_)" d="M31.7,53.2c0-0.4,1.2-8.8-2-11.4C29,41.3,28.3,41,27.5,41c-0.6,0-1.3,0.1-2,0.4
	c-3.1,1.1-5.7,4.1-7.5,8.7c-1.4,3.4-1.8,6.5-1.8,6.6c0,0.1,0.1,0.2,0.2,0.2c0,0,0,0,0,0c0.1,0,0.2-0.1,0.2-0.2c0-0.1,1.9-12.4,9-15
	c1.6-0.6,2.8-0.5,3.8,0.3c3,2.5,1.9,11,1.9,11.1c0,0.1,0.1,0.2,0.2,0.2c0,0,0,0,0,0C31.6,53.3,31.6,53.3,31.7,53.2z"/>
<g>
	
		<linearGradient id="SVGID_29_" gradientUnits="userSpaceOnUse" x1="30.4236" y1="96.1982" x2="31.9938" y2="85.5892" gradientTransform="matrix(1 0 0 -1 0 142)">
		<stop  offset="0" style="stop-color:#010101;stop-opacity:0"/>
		<stop  offset="1" style="stop-color:#010101;stop-opacity:0.4"/>
	</linearGradient>
	<path fill="url(#SVGID_29_)" d="M33,49c-0.1-3.6-1-6.1-2.5-7.3c-0.8-0.7-1.8-1-3-0.9c0.9,0.1,1.7,0.4,2.4,0.9
		c1.5,1.2,2.4,3.7,2.5,7.3c0.1,2.6-0.2,4.8-0.2,4.8c-0.1,0.4-0.3,0.7-0.7,0.8c0.1,0,0.1,0,0.2,0c0.5,0.1,1-0.3,1.1-0.8
		C32.8,53.7,33.1,51.5,33,49z"/>
</g>
<linearGradient id="SVGID_30_" gradientUnits="userSpaceOnUse" x1="20.197" y1="89.0202" x2="25.7023" y2="100.5728" gradientTransform="matrix(1 0 0 -1 0 142)">
	<stop  offset="0" style="stop-color:#010101;stop-opacity:0"/>
	<stop  offset="1" style="stop-color:#010101;stop-opacity:0.4"/>
</linearGradient>
<path fill="url(#SVGID_30_)" d="M25.6,43.1c-6.7,2.4-8.5,14.2-8.5,14.3c-0.1,0.4-0.3,0.7-0.7,0.8c0.1,0,0.1,0,0.2,0c0,0,0.1,0,0.1,0
	c0.5,0,0.9-0.4,1-0.9c0-0.1,1.8-11.9,8.5-14.3c0.5-0.2,0.9-0.3,1.2-0.3C26.9,42.7,26.3,42.8,25.6,43.1z"/>
<g opacity="0.45">
	
		<linearGradient id="SVGID_31_" gradientUnits="userSpaceOnUse" x1="16.3913" y1="89.2459" x2="16.7444" y2="85.1984" gradientTransform="matrix(1 0 0 -1 0 142)">
		<stop  offset="0" style="stop-color:#010101;stop-opacity:0"/>
		<stop  offset="1" style="stop-color:#010101;stop-opacity:0.4"/>
	</linearGradient>
	<path fill="url(#SVGID_31_)" d="M16.6,56.8c-0.3-0.1-0.6-0.4-0.7-0.8c-0.1,0.6-0.2,1-0.2,1c-0.1,0.5,0.3,1,0.8,1.1c0,0,0.1,0,0.1,0
		c0.5,0,0.9-0.4,1-0.9c0,0,0-0.3,0.1-0.8C17.5,56.9,17,57,16.6,56.8z"/>
	
		<linearGradient id="SVGID_32_" gradientUnits="userSpaceOnUse" x1="31.6693" y1="90.5789" x2="32.0224" y2="86.5314" gradientTransform="matrix(1 0 0 -1 0 142)">
		<stop  offset="0" style="stop-color:#010101;stop-opacity:0"/>
		<stop  offset="1" style="stop-color:#010101;stop-opacity:0.4"/>
	</linearGradient>
	<path fill="url(#SVGID_32_)" d="M31.5,53.1c-0.3-0.1-0.5-0.3-0.6-0.6c0,0.4-0.1,0.8-0.1,1.1c-0.1,0.5,0.3,1,0.8,1.1
		c0.5,0.1,1-0.3,1.1-0.8c0,0,0.1-0.5,0.1-1.2C32.5,53.1,32,53.2,31.5,53.1z"/>
</g>
<g>
	<path fill="#010101" d="M65.8,81c1.3,0.7,3.5,1.6,5.7,1.5c2,0,3-1.1,3-2.4c0-1.3-0.8-2.1-2.9-3.3C69,75.3,67,73.2,67,70.5
		c0-4.9,4.2-8.3,10.2-8.3c2.7,0,4.7,0.5,5.8,1.2l-1.6,4.9c-1-0.5-2.5-1-4.3-1c-2,0-3.2,0.9-3.2,2.3c0,1.1,0.9,1.9,2.7,2.9
		c2.7,1.6,5,3.7,5,6.6c0,5.5-4.5,8.6-10.7,8.6c-2.9,0-5.5-0.8-6.8-1.7L65.8,81z"/>
	<path fill="#010101" d="M83,87.2l6.7-35.4h6.9L94,65.7l0.1,0c1.9-2.2,4.3-3.7,7.3-3.7c3.6,0,5.7,2.4,5.7,6.3c0,1.2-0.2,3-0.5,4.5
		l-2.7,14.3h-6.9l2.6-13.9c0.2-1,0.3-2.1,0.3-3.1c0-1.5-0.6-2.6-2.2-2.6c-2.2,0-4.6,2.8-5.5,7.4l-2.3,12.1L83,87.2L83,87.2z"/>
	<path fill="#010101" d="M132.1,71.8c0,8.6-5.5,15.9-13.7,15.9c-6.2,0-9.5-4.3-9.5-9.7c0-8.4,5.5-15.9,13.9-15.9
		C129.2,62.1,132.1,66.8,132.1,71.8z M116,77.9c0,2.5,1,4.5,3.4,4.5c3.7,0,5.7-6.5,5.7-10.8c0-2.1-0.8-4.2-3.3-4.2
		C118,67.4,116,73.9,116,77.9z"/>
	<path fill="#010101" d="M130.5,97l4.8-25.3c0.6-2.9,1.1-6.7,1.4-9.2h6.1l-0.4,3.7h0.1c1.9-2.6,4.6-4.1,7.3-4.1
		c5.1,0,7.1,4.2,7.1,8.8c0,8.4-5.3,16.8-13.5,16.8c-1.7,0-3.3-0.4-4.1-0.9h-0.2L137.4,97L130.5,97L130.5,97z M140.4,81.5
		c0.8,0.6,1.6,1,2.9,1c3.9,0,6.5-6.4,6.5-10.8c0-1.9-0.7-3.8-2.8-3.8c-2.4,0-4.7,2.9-5.5,7.2L140.4,81.5z"/>
	<path fill="#010101" d="M157.2,87.2l4.7-24.5h7l-4.7,24.5H157.2z M166.1,59.6c-2,0-3.3-1.4-3.3-3.5c0-2.3,1.8-4,4-4
		c2.1,0,3.5,1.5,3.5,3.5c0,2.6-1.9,4-4.1,4H166.1z"/>
	<path fill="#010101" d="M170.1,87.2l3.7-19.4h-3.2l1-5.2h3.2l0.2-1.2c0.6-2.9,1.7-5.8,4-7.8c1.9-1.6,4.3-2.3,6.8-2.3
		c1.7,0,3,0.3,3.8,0.6l-1.4,5.4c-0.6-0.2-1.3-0.4-2.2-0.4c-2.3,0-3.7,2.1-4.1,4.5l-0.3,1.2h4.8l-1,5.2h-4.8L177,87.2H170.1z"/>
	<path fill="#010101" d="M195,62.6l1.1,11c0.3,2.5,0.5,4.2,0.6,5.8h0.1c0.6-1.7,1.1-3.2,2.1-5.9l4.2-11h7.2l-8.5,18.2
		c-3,6.2-5.9,10.8-9.1,13.8c-2.5,2.3-5.4,3.5-6.8,3.8l-1.9-5.9c1.2-0.4,2.6-1,3.9-2c1.6-1.1,3-2.6,3.8-4.2c0.2-0.4,0.3-0.7,0.2-1.2
		l-4.2-22.5L195,62.6L195,62.6z"/>
</g>
</svg>
