<?xml version="1.0" encoding="utf-8"?>
<!-- Generator: Adobe Illustrator 19.0.0, SVG Export Plug-In . SVG Version: 6.00 Build 0)  -->
<svg version="1.1" id="Layer_1" xmlns="http://www.w3.org/2000/svg" xmlns:xlink="http://www.w3.org/1999/xlink" x="0px" y="0px"
	 viewBox="-1667 3392 120 130" style="enable-background:new -1667 3392 120 130;" xml:space="preserve">
<g id="Loblaw_Digital">
</g>
<g id="Phoenix">
</g>
<g id="Magnet_Forensics_1_">
</g>
<g id="Bloomberg">
</g>
<g id="Wish">
</g>
<g id="lani">
</g>
<g id="Yelp">
</g>
<g id="Mozilla">
</g>
<g id="Microsoft">
</g>
<g id="Facebook">
</g>
<g id="D2L">
</g>
<g id="Linode">
</g>
<g id="Braintree">
</g>
<g id="Velocity">
</g>
<g id="citi">
</g>
<g id="Course_Hero">
</g>
<g id="square">
</g>
<g id="Capco">
</g>
<path d="M-1549,3482.3h-116v-50.6h116V3482.3z M-1663.4,3480.7h112.7v-47.3h-112.7V3480.7z"/>
<path d="M-1648.5,3465h-0.4c-2.3,0-5.3-1.3-6.3-3.2c-0.3-0.4,0.5-0.7,0.8-0.3c0.9,1.6,3.5,2.8,5.5,2.8h0.4c2.9,0,5.4-1.2,5.4-3.7
	c0-2.8-2.9-3.5-5.7-4c-2.2-0.4-5.7-1.2-5.7-3.7v-0.3c0-2.7,2.9-3.8,5.6-3.8h0.2c2.4,0,4,0.9,5.2,1.8c0.4,0.3-0.1,0.9-0.5,0.5
	c-1.2-0.9-2.6-1.6-4.6-1.6h-0.2c-2.2,0-4.8,0.9-4.8,3.1v0.3c0,1.7,2.7,2.6,5,3c3.2,0.6,6.4,1.2,6.4,4.6
	C-1642.3,3463.8-1645.4,3465-1648.5,3465z"/>
<path d="M-1648.5,3465.4h-0.4c-2.3,0-5.5-1.3-6.6-3.4c-0.1-0.2-0.1-0.4,0-0.6c0.1-0.2,0.4-0.4,0.7-0.4c0.3,0,0.5,0.1,0.7,0.4
	c0.8,1.6,3.4,2.6,5.2,2.6h0.4c2.4,0,5.1-0.9,5.1-3.4c0-2.6-2.7-3.2-5.4-3.7c-1.5-0.2-6-1-6-4v-0.3c0-2.8,3.1-4.1,5.9-4.1h0.2
	c2.6,0,4.3,1,5.4,1.8c0.3,0.2,0.3,0.5,0.3,0.7c-0.1,0.4-0.8,0.6-1.2,0.3c-0.9-0.7-2.3-1.5-4.4-1.5h-0.2c-1.7,0-4.5,0.6-4.5,2.8v0.3
	c0,1.6,3,2.4,4.8,2.7c3,0.5,6.7,1.1,6.7,4.9C-1642,3464.1-1645.5,3465.4-1648.5,3465.4z M-1654.7,3461.7c-0.1,0-0.1,0-0.1,0
	c1,1.8,3.9,3,6,3h0.4c2.7,0,5.9-1.1,5.9-4c0-2-1.2-3-3-3.6c1.5,0.6,2.9,1.6,2.9,3.6c0,2.4-2.2,4-5.7,4h-0.4
	C-1650.8,3464.7-1653.6,3463.5-1654.7,3461.7C-1654.6,3461.7-1654.6,3461.7-1654.7,3461.7z M-1648.9,3449.3c-2.6,0-5.3,1.1-5.3,3.5
	v0.3c0,1.5,1.4,2.5,4.4,3.1c-2.8-0.7-4.3-1.7-4.3-3.1v-0.3C-1654,3450.4-1651.4,3449.3-1648.9,3449.3l0.2,0c2.3,0,3.9,0.9,4.8,1.7
	c0.1,0.1,0.2,0,0.2,0c-1-0.7-2.6-1.7-5-1.7C-1648.6,3449.3-1648.9,3449.3-1648.9,3449.3z"/>
<path d="M-1632,3465h-0.4c-3.2,0-5.8-2.2-5.8-4.9v-6.3c0-2.7,2.6-4.9,5.8-4.9h0.4c3.2,0,5.8,2.2,5.8,4.9v6.3
	C-1626.2,3462.9-1628.8,3465-1632,3465z M-1627,3453.8c0-2.3-2.2-4.2-5-4.2h-0.4c-2.7,0-5,1.9-5,4.2v6.3c0,2.3,2.2,4.2,5,4.2h0.4
	c2.7,0,5-1.9,5-4.2V3453.8L-1627,3453.8z"/>
<path d="M-1632,3465.4h-0.4c-3.4,0-6.1-2.3-6.1-5.2v-6.3c0-2.9,2.7-5.2,6.1-5.2h0.4c3.4,0,6.1,2.3,6.1,5.2v6.3
	C-1625.9,3463-1628.6,3465.4-1632,3465.4z M-1632.5,3449.3c-3,0-5.5,2-5.5,4.6v6.3c0,2.5,2.5,4.6,5.5,4.6h0.4c3,0,5.5-2.1,5.5-4.6
	v-6.3c0-2.5-2.5-4.6-5.5-4.6H-1632.5z M-1632,3464.7h-0.4c-2.9,0-5.3-2-5.3-4.5v-6.3c0-2.5,2.4-4.5,5.3-4.5h0.4c2.9,0,5.3,2,5.3,4.5
	v6.3C-1626.7,3462.7-1629.1,3464.7-1632,3464.7z M-1632.5,3449.9c-2.6,0-4.7,1.7-4.7,3.9v6.3c0,2.1,2.1,3.9,4.7,3.9h0.4
	c2.6,0,4.7-1.7,4.7-3.9v-6.3c0-2.1-2.1-3.9-4.7-3.9H-1632.5z"/>
<path d="M-1610.9,3448.9c-0.2,0-0.4,0.1-0.4,0.4v2v2.2v6.8v0.5c-0.3,2-2.4,3.5-5,3.5h-0.4c-2.7,0-5-1.9-5-4.2v-10.8
	c0-0.2-0.2-0.4-0.4-0.4c-0.2,0-0.4,0.1-0.4,0.4v10.8c0,2.7,2.6,4.9,5.8,4.9h0.4c2.1,0,4.2-1,5-2.3v4.3c0,2.3-2.2,4.2-5,4.2h-0.4
	c-2.4,0-4.8-1.1-5.4-2.8c-0.1-0.2-0.2-0.3-0.4-0.3c-0.2,0-0.4,0.1-0.4,0.3c0,0.1,0,0.1,0,0.1c0.7,2.1,3.5,3.3,6.2,3.3h0.4
	c3.2,0,5.8-2.2,5.8-4.9v-17.7C-1610.5,3449.1-1610.7,3448.9-1610.9,3448.9z"/>
<path d="M-1616.3,3472.2h-0.4c-2.6,0-5.6-1.2-6.4-3.5c-0.1-0.1-0.1-0.2-0.1-0.3c0-0.4,0.4-0.7,0.8-0.7c0.3,0,0.6,0.2,0.7,0.5
	c0.6,1.5,2.7,2.6,5.1,2.6h0.4c2.6,0,4.7-1.7,4.7-3.9v-3.3c-1.1,1-2.9,1.7-4.7,1.7h-0.4c-3.4,0-6.1-2.4-6.1-5.3v-10.8
	c0-0.4,0.3-0.7,0.7-0.7c0.4,0,0.8,0.3,0.8,0.7v10.8c0,2.2,2.1,3.9,4.7,3.9h0.4c2.4,0,4.4-1.4,4.7-3.2l0-0.4v-11.1
	c0-0.4,0.3-0.7,0.7-0.7c0.4,0,0.8,0.3,0.8,0.7v17.7C-1610.1,3469.9-1612.9,3472.2-1616.3,3472.2z M-1622.5,3468.5L-1622.5,3468.5
	c0.7,2,3.5,3.1,5.8,3.1h0.4c3,0,5.5-2,5.5-4.6v-17.7c0,0-0.1,0-0.1,0c0,0-0.1,0-0.1,0v11.6c-0.3,2.2-2.6,3.8-5.3,3.8h-0.4
	c-2.9,0-5.3-2.1-5.3-4.6v-10.8c0,0,0,0-0.1,0c0,0-0.1,0-0.1,0v10.8c0,2.5,2.5,4.6,5.5,4.6h0.4c2,0,4-0.9,4.7-2.2l0.6-1.1v5.5
	c0,2.5-2.4,4.5-5.3,4.5h-0.4c-2.7,0-5-1.2-5.7-3C-1622.4,3468.5-1622.5,3468.5-1622.5,3468.5z"/>
<path d="M-1600.7,3465c-2.5,0-4.5-1.7-4.5-3.8v-18.8c0-0.2,0.2-0.4,0.4-0.4c0.2,0,0.4,0.1,0.4,0.4v18.8c0,1.7,1.6,3.1,3.7,3.1
	c0.3,0,0.4,0.2,0.4,0.4C-1600.3,3464.9-1600.5,3465-1600.7,3465z"/>
<path d="M-1600.7,3465.4c-2.7,0-4.8-1.8-4.8-4.1v-18.8c0-0.4,0.3-0.7,0.7-0.7c0.5,0,0.8,0.3,0.8,0.7v18.8c0,1.5,1.5,2.8,3.4,2.8
	c0.4,0,0.7,0.3,0.7,0.7C-1600,3465-1600.3,3465.4-1600.7,3465.4z M-1604.8,3442.4C-1604.8,3442.4-1604.9,3442.4-1604.8,3442.4
	l-0.1,18.8c0,2,1.8,3.5,4.2,3.5c0.1,0,0.1,0,0.1,0c0,0-0.1,0-0.1,0c-2.2,0-4-1.6-4-3.5v-18.8
	C-1604.7,3442.5-1604.8,3442.4-1604.8,3442.4z"/>
<path d="M-1586.2,3457.3h-10.8v2.9c0,2.3,2.2,4.2,5,4.2h0.4c2.2,0,4-1.2,4.7-2.9c0-0.2,0.2-0.2,0.4-0.2c0.2,0,0.5,0.1,0.5,0.3
	c0,0,0,0.1,0,0.1c-0.8,1.9-3,3.3-5.5,3.3h-0.4c-3.2,0-5.8-2.2-5.8-4.9v-6.3c0-2.7,2.7-4.9,5.8-4.9h0.3c3.2,0,5.9,2,5.9,4.9v3.1
	C-1585.8,3457.1-1586,3457.3-1586.2,3457.3z M-1586.6,3453.8c0-2.3-2.2-4.2-5-4.2h-0.4c-2.7,0-5,1.9-5,4.2v2.8h10.4V3453.8z"/>
<path d="M-1591.6,3465.4h-0.4c-3.4,0-6.1-2.3-6.1-5.2v-6.3c0-2.9,2.8-5.2,6.2-5.2h0.3c3.5,0,6.2,2.2,6.2,5.2v3.1
	c0,0.4-0.3,0.7-0.7,0.7h-10.5v2.6c0,2.1,2.1,3.9,4.7,3.9h0.4c2,0,3.8-1.1,4.4-2.7c0-0.2,0.3-0.4,0.6-0.4c0.4,0,0.8,0.3,0.8,0.6
	c0,0.1,0,0.1,0,0.2l0,0.1C-1586.7,3464-1589,3465.4-1591.6,3465.4z M-1592,3449.3c-3,0-5.5,2-5.5,4.6v6.3c0,2.5,2.5,4.6,5.5,4.6h0.4
	c2.3,0,4.4-1.2,5.2-3.1c0,0,0,0,0,0c0,0-0.1,0-0.1,0c-0.8,1.9-2.8,3.1-5.1,3.1h-0.4c-2.9,0-5.3-2-5.3-4.5v-3.2h11.1
	c0.1,0,0.1,0,0.1,0l0-3.1c0-2.6-2.4-4.6-5.6-4.6H-1592z M-1586.3,3456.9h-11.1v-3.1c0-2.5,2.4-4.5,5.4-4.5h0.4c2.9,0,5.3,2,5.3,4.5
	L-1586.3,3456.9L-1586.3,3456.9z M-1596.7,3456.3h9.8v-2.4c0-2.1-2.1-3.9-4.7-3.9h-0.4c-2.6,0-4.7,1.7-4.7,3.9V3456.3z"/>
<path d="M-1570.2,3465c-0.2,0-0.4-0.1-0.4-0.4v-10.8c0-2.4-2.3-4.2-5-4.2h-0.4c-2.8,0-5,1.8-5,3.9v11.2c0,0.2-0.2,0.4-0.4,0.4
	c-0.2,0-0.4-0.1-0.4-0.4v-15.4c0-0.2,0.2-0.3,0.4-0.3c0.2,0,0.4,0.1,0.4,0.3v2c0.7-1.4,2.9-2.4,5-2.4h0.4c3.2,0,5.8,2.2,5.8,4.9
	v10.8C-1569.8,3464.9-1570,3465-1570.2,3465z"/>
<path d="M-1570.2,3465.4c-0.4,0-0.7-0.3-0.7-0.7v-10.8c0-2.2-2.1-3.9-4.7-3.9h-0.4c-2.6,0-4.7,1.6-4.7,3.6v11.2
	c0,0.4-0.3,0.7-0.8,0.7c-0.4,0-0.7-0.3-0.7-0.7v-15.4c0-0.4,0.3-0.6,0.7-0.6c0.5,0,0.8,0.3,0.8,0.6v1.1c1-1,2.9-1.7,4.7-1.7h0.4
	c3.4,0,6.2,2.4,6.2,5.3v10.8C-1569.4,3465.1-1569.8,3465.4-1570.2,3465.4z M-1576,3449.3h0.4c3,0,5.4,2.1,5.4,4.6v10.8
	c0,0,0.1,0,0.1,0c0.1,0,0.1,0,0.1,0l0-10.8c0-2.5-2.5-4.6-5.5-4.6L-1576,3449.3c-2,0-4.1,0.9-4.7,2.2l-0.6,1.2v-3.3c0,0,0,0-0.1,0
	c0,0-0.1,0-0.1,0l0,15.4c0,0,0,0,0,0c0.1,0,0.1,0,0.1,0l0-11.2C-1581.4,3451.2-1579,3449.3-1576,3449.3z"/>
<path d="M-1563.7,3461.2v-11.6h-2.1c-0.6,0-0.6-0.7,0-0.7h2.1v-6.6c0-0.5,0.8-0.5,0.8,0v6.6h3.4c0.5,0,0.5,0.7,0,0.7h-3.4v11.6
	c0,1.7,1.6,3.1,3.7,3.1c0.5,0,0.5,0.7,0,0.7C-1561.8,3465-1563.7,3463.4-1563.7,3461.2z"/>
<path d="M-1559.3,3465.4c-2.7,0-4.8-1.8-4.8-4.1V3450h-1.8c-0.5,0-0.8-0.3-0.8-0.7c0-0.3,0.3-0.7,0.8-0.7h1.8v-6.2
	c0-0.4,0.3-0.7,0.7-0.7c0.4,0,0.7,0.3,0.7,0.7v6.2h3.1c0.5,0,0.7,0.3,0.7,0.7c0,0.3-0.3,0.7-0.7,0.7h-3.1v11.2
	c0,1.6,1.5,2.8,3.3,2.8c0.5,0,0.7,0.3,0.7,0.7C-1558.5,3465-1558.8,3465.4-1559.3,3465.4z M-1565.9,3449.3c0,0,0,0,0.1,0h2.4v11.9
	c0,2,1.8,3.5,4.2,3.5c0.1,0,0.1,0,0.1,0c0,0,0,0-0.1,0c-2.2,0-4-1.5-4-3.5v-11.9h3.8c0.1,0,0.1,0,0.1,0s0,0-0.1,0h-3.8v-6.9
	c0,0-0.2,0-0.2,0l0,6.9h-2.4C-1565.9,3449.3-1565.9,3449.3-1565.9,3449.3L-1565.9,3449.3z"/>
</svg>
