<?xml version="1.0" encoding="UTF-8"?>
<svg width="614px" height="253px" viewBox="0 0 614 253" version="1.1" xmlns="http://www.w3.org/2000/svg" xmlns:xlink="http://www.w3.org/1999/xlink">
    <!-- Generator: Sketch 44.1 (41455) - http://www.bohemiancoding.com/sketch -->
    <title>sunlife</title>
    <desc>Created with Sketch.</desc>
    <defs></defs>
    <g id="Page-1" stroke="none" stroke-width="1" fill="none" fill-rule="evenodd">
        <g id="sunlife" fill-rule="nonzero">
            <g id="Group" transform="translate(0.000000, 112.000000)" fill="#003946">
                <path d="M33.6,16.3 C32.4,11.9 30.7,3.3 20.9,3.3 C15.8,3.3 11.9,6.6 11.9,11.9 C11.9,25.1 40.7,24.2 40.7,42.6 C40.7,54.8 29.4,59.2 18.5,59.2 C10.7,59.2 5.5,57.2 2.6,55.8 C0.4,50.4 -1.42108547e-14,46.5 -1.42108547e-14,39.7 L4.2,38.8 C5.5,44 8.4,56 20,56 C25.7,56 29.5,52.2 29.5,46.5 C29.5,32 1.6,33.1 1.6,15.5 C1.6,4.6 10.1,-2.84217094e-14 21.7,-2.84217094e-14 C28.5,-2.84217094e-14 32.5,1.4 35.8,3.2 C36.5,7.4 36.8,12 36.8,16.3 L33.6,16.3 L33.6,16.3 Z" id="Shape"></path>
                <path d="M79.2,54.8 C76.5,56.3 72.3,59.2 65.5,59.2 C51.5,59.2 50.9,51.5 50.9,42 L50.9,29.6 C50.9,26.6 50.9,22.7 48.2,22.7 C46.8,22.7 45.7,23.1 45.3,23.2 L45.3,20.7 C52,18.6 57,17.9 61.7,17.6 L61.7,41.7 C61.7,48.5 63.1,54.2 71.9,54.2 C75.3,54.2 77.4,52.7 78.7,52.1 L78.7,29.5 C78.7,26.5 78.7,22.6 76,22.6 C74.7,22.6 73.5,23 73.1,23.1 L73.1,20.6 C79.9,18.5 84.8,17.8 89.5,17.5 L89.5,43.2 C89.5,50.2 89.5,53.6 92.6,53.6 C93.1,53.6 94.2,53.7 95.1,53.5 L95.3,55.7 C91.2,57.1 86.2,58.3 81.7,59.1 L79.2,54.8 Z" id="Shape"></path>
                <path d="M106.3,29.5 C106.3,26.5 106.3,22.6 103.6,22.6 C102.2,22.6 101.1,23 100.7,23.1 L100.7,20.6 C107.5,18.5 112.2,17.8 116.9,17.5 L116.9,22.5 C119.2,20.6 123.5,17.5 131.1,17.5 C139.2,17.5 144.7,21.2 144.7,32.8 L144.7,49.7 C144.7,54.2 145.1,55.2 148.4,55.4 L150.3,55.6 L150.3,57.8 L128.3,57.8 L128.3,55.6 L130.2,55.4 C133.4,55.1 133.9,54.2 133.9,49.7 L133.9,37.5 C133.9,30.7 133.9,22.5 124.5,22.5 C120.8,22.5 118.5,24.3 117,25.8 L117,49.7 C117,54.2 117.5,55.2 120.7,55.4 L122.6,55.6 L122.6,57.8 L100.8,57.8 L100.8,55.6 L102.7,55.4 C105.8,55.1 106.2,54.2 106.2,49.7 L106.2,29.5 L106.3,29.5 Z" id="Shape"></path>
            </g>
            <g id="Group" transform="translate(80.000000, 187.000000)" fill="#003946">
                <g transform="translate(169.000000, 2.000000)" id="Shape">
                    <path d="M0.1,59.8 L2.2,59.5 C6.5,59 6.5,58.8 6.5,49.4 L6.5,18 C6.5,9 6.5,8.6 2.3,7.9 L0.1,7.6 L0.1,5.4 L41.6,5.4 C42.3,9.8 42.6,14.7 42.6,19.3 L39.4,19.6 C37.5,11.5 37.1,8.6 25.4,8.6 L18.3,8.6 L18.3,32.4 L25.3,32.4 C32.3,32.4 34.1,32.4 34.8,28.7 L35.3,25.7 L37.6,25.7 L37.6,42.9 L35.3,42.9 L34.9,39.6 C34.2,36.2 31.9,36.2 25.4,36.2 L18.3,36.2 L18.3,49.2 C18.3,58.4 18.3,58.6 22.6,59.3 L24.7,59.6 L24.7,61.8 L0.2,61.8 L0.2,59.8 L0.1,59.8 Z"></path>
                    <path d="M48,59.8 L49.9,59.6 C53.1,59.2 53.6,58.4 53.6,53.8 L53.6,33.6 C53.6,30.6 53.6,26.7 50.9,26.7 C49.6,26.7 48.4,27.1 48,27.2 L48,24.7 C54.8,22.6 59.7,21.9 64.4,21.6 L64.4,53.8 C64.4,58.3 64.9,59.2 68.1,59.6 L70,59.8 L70,62 L48,62 L48,59.8 L48,59.8 Z M52.1,8.5 C52.1,5.2 54.8,2.6 58.4,2.6 C61.8,2.6 64.7,5.3 64.7,8.5 C64.7,12.1 61.8,14.6 58.4,14.6 C54.8,14.6 52.1,12.1 52.1,8.5 Z"></path>
                    <path d="M81.5,33.7 C81.5,30.7 81.5,26.8 78.8,26.8 C77.5,26.8 76.3,27.2 75.9,27.3 L75.9,24.8 C82.6,22.7 87.4,22 92.1,21.7 L92.1,26.7 C94.4,24.8 98.7,21.7 106.3,21.7 C114.4,21.7 119.9,25.4 119.9,37 L119.9,53.9 C119.9,58.4 120.4,59.4 123.6,59.7 L125.5,59.9 L125.5,62.1 L103.5,62.1 L103.5,59.9 L105.4,59.7 C108.6,59.4 109.1,58.5 109.1,53.9 L109.1,41.7 C109.1,34.9 109.1,26.7 99.7,26.7 C96,26.7 93.7,28.5 92.2,30 L92.2,53.9 C92.2,58.4 92.6,59.4 95.9,59.7 L97.8,59.9 L97.8,62.1 L76,62.1 L76,59.9 L77.9,59.7 C81,59.4 81.4,58.5 81.4,53.9 L81.4,33.7 L81.5,33.7 Z"></path>
                    <path d="M153.8,51.7 C153.8,53.3 154.1,55.5 154.2,56.3 C153.5,56.8 151.8,58.4 148.7,58.4 C144.7,58.4 142,55.3 142,51.2 C142,44.8 147.7,42.3 152.8,42.3 C153.2,42.3 153.4,42.4 153.8,42.4 L153.8,51.7 Z M171.1,60.1 C170.8,60.2 170.6,60.2 170.4,60.2 C164.6,60.2 164.6,53.9 164.6,47.7 L164.6,37.1 C164.6,27.3 162.6,21.7 151.3,21.7 C142.2,21.7 136,26.6 131.9,30.8 C132.6,32.9 133.1,33.5 134.3,35.2 L135.2,35.2 C136.4,32.6 139,26.7 145.9,26.7 C152.3,26.7 153.7,31.2 153.7,36.3 L153.7,38.4 C146.2,40.3 130.4,43.2 130.4,54 C130.4,59.5 135.2,63.4 142.2,63.4 C148.5,63.4 152.2,60.7 154.7,59 C156.1,61.1 157.8,63.4 163.5,63.4 C167.5,63.4 170.1,61.9 171.2,61.3 L171.1,60.1 Z"></path>
                    <path d="M180.6,33.7 C180.6,30.7 180.6,26.8 177.9,26.8 C176.5,26.8 175.4,27.2 175,27.3 L175,24.8 C181.8,22.7 186.5,22 191.2,21.7 L191.2,26.7 C193.5,24.8 197.8,21.7 205.4,21.7 C213.5,21.7 219,25.4 219,37 L219,53.9 C219,58.4 219.4,59.4 222.7,59.7 L224.6,59.9 L224.6,62.1 L202.6,62.1 L202.6,59.9 L204.5,59.7 C207.7,59.4 208.2,58.5 208.2,53.9 L208.2,41.7 C208.2,34.9 208.2,26.7 198.8,26.7 C195.1,26.7 192.8,28.5 191.3,30 L191.3,53.9 C191.3,58.4 191.7,59.4 195,59.7 L196.9,59.9 L196.9,62.1 L175.1,62.1 L175.1,59.9 L177,59.7 C180.1,59.4 180.5,58.5 180.5,53.9 L180.5,33.7 L180.6,33.7 Z"></path>
                    <path d="M265.4,59 C262.5,61 257.8,63.4 249.2,63.4 C239.4,63.4 228.1,57 228.1,44.4 C228.1,28.5 241.7,21.8 251.8,21.8 C258.2,21.8 261.7,23 264,24.6 C263.6,27.4 262.7,29.1 260.5,31.6 L259.7,31.6 C257.7,29.5 254.6,26 249.3,26 C243.5,26 239.6,31.2 239.6,39.9 C239.6,52.7 247.3,58.3 256.4,58.3 C259.5,58.3 263.3,57.3 264.6,56.8 L265.4,59 Z"></path>
                    <g transform="translate(270.000000, 0.000000)">
                        <path d="M0.1,59.8 L2,59.6 C5.2,59.2 5.7,58.4 5.7,53.8 L5.7,33.6 C5.7,30.6 5.7,26.7 3,26.7 C1.6,26.7 0.5,27.1 0.1,27.2 L0.1,24.7 C6.9,22.6 11.8,21.9 16.5,21.6 L16.5,53.8 C16.5,58.3 16.9,59.2 20.2,59.6 L22.1,59.8 L22.1,62 L0.1,62 L0.1,59.8 Z M4.2,8.5 C4.2,5.2 6.9,2.6 10.5,2.6 C13.9,2.6 16.8,5.3 16.8,8.5 C16.8,12.1 13.9,14.6 10.5,14.6 C6.9,14.6 4.2,12.1 4.2,8.5 Z"></path>
                        <path d="M51.8,51.7 C51.8,53.3 52.1,55.5 52.2,56.3 C51.5,56.8 49.8,58.4 46.7,58.4 C42.7,58.4 40,55.3 40,51.2 C40,44.8 45.7,42.3 50.8,42.3 C51.2,42.3 51.4,42.4 51.8,42.4 L51.8,51.7 L51.8,51.7 Z M69.1,60.1 C68.8,60.2 68.6,60.2 68.4,60.2 C62.6,60.2 62.6,53.9 62.6,47.7 L62.6,37.1 C62.6,27.3 60.6,21.7 49.3,21.7 C40.2,21.7 34,26.6 29.9,30.8 C30.6,32.9 31.1,33.5 32.3,35.2 L33.2,35.2 C34.4,32.6 37,26.7 43.9,26.7 C50.3,26.7 51.7,31.2 51.7,36.3 L51.7,38.4 C44.2,40.3 28.4,43.2 28.4,54 C28.4,59.5 33.2,63.4 40.2,63.4 C46.5,63.4 50.2,60.7 52.7,59 C54.1,61.1 55.8,63.4 61.5,63.4 C65.5,63.4 68.1,61.9 69.2,61.3 L69.1,60.1 Z"></path>
                        <path d="M73,59.8 L74.9,59.6 C78.1,59.2 78.6,58.4 78.6,53.8 L78.6,15.1 C78.6,7.5 78.6,4.2 75.5,4.2 C74.4,4.2 73.3,4.4 73,4.4 L73,2.2 C80.5,0.7 84.5,0.2 89.4,0.2 L89.4,53.8 C89.4,58.3 89.9,59.2 93.1,59.6 L95,59.8 L95,62 L73,62 L73,59.8 Z"></path>
                    </g>
                </g>
                <g id="Shape">
                    <path d="M0.9,61.8 L3.1,61.5 C7.3,60.7 7.3,61.1 7.3,51.3 L7.3,19.8 C7.3,11.5 7.3,10.4 3.1,9.9 L0.9,9.6 L0.9,7.4 L25.4,7.4 L25.4,9.6 L23.2,9.9 C19,10.5 19,11.5 19,19.8 L19,59.5 C21.7,60.1 22.4,60.7 25.2,60.7 C37.9,60.7 38,54.9 40.6,47.7 L43.8,48.3 C43.3,53.9 42.6,58.4 40.7,63.9 L0.9,63.9 L0.9,61.8 L0.9,61.8 Z"></path>
                    <path d="M48.1,61.8 L50,61.6 C53.2,61.3 53.7,60.4 53.7,55.9 L53.7,35.7 C53.7,32.7 53.7,28.8 51,28.8 C49.6,28.8 48.5,29.2 48.1,29.3 L48.1,26.8 C54.9,24.7 59.8,24 64.5,23.7 L64.5,55.9 C64.5,60.4 64.9,61.3 68.2,61.6 L70.1,61.8 L70.1,64 L48.1,64 L48.1,61.8 Z M52.2,10.5 C52.2,7.2 54.9,4.6 58.5,4.6 C61.9,4.6 64.8,7.3 64.8,10.5 C64.8,14.1 61.9,16.6 58.5,16.6 C54.9,16.6 52.2,14 52.2,10.5 Z"></path>
                    <path d="M81.6,28.8 C81.6,28.9 81.6,25 81.6,24.9 C81.6,13 87.8,0.9 102,0.9 C106.8,0.9 109.8,2.3 111.8,3.7 C111.2,6.4 110.5,8 108.2,10.1 L107.6,10.1 C105.9,8.6 101.7,5.1 98.2,5.1 C92.8,5.1 92.4,12.1 92.4,19.9 L92.4,24.8 C95.1,24.9 100.6,25.2 103.6,25.6 L103.6,27.8 C99.7,28.2 96.2,28.5 92.4,28.7 L92.4,55.7 C92.4,60.2 92.8,61.2 96.2,61.4 L99.8,61.6 L99.8,63.8 L76,63.8 L76,61.6 L77.8,61.4 C81.1,61.1 81.6,60.2 81.6,55.7 L81.6,28.8 L81.6,28.8 Z"></path>
                    <path d="M117.5,41.9 C117.5,40.4 117.5,27 125.3,27 C131,27 133.7,32.1 134.3,38.2 C128.8,39.9 123.1,41 117.5,41.9 Z M144,57.8 C142.7,58.4 139,60.3 134.1,60.3 C121.8,60.3 119.1,51 118.1,45.9 C127.5,43.8 137.5,41.1 145.2,37.7 C144.2,32.7 141.9,23.7 127.4,23.7 C117.1,23.7 106.8,31.4 106.8,45.1 C106.8,58.9 117.2,65.3 127.9,65.3 C137,65.3 142.7,61.6 145,59.8 L144,57.8 Z"></path>
                </g>
            </g>
            <g id="Group" transform="translate(169.000000, 0.000000)" fill="#EAAB00">
                <g transform="translate(41.000000, 0.000000)" id="Shape">
                    <path d="M71.2,29.5 C71,22.4 72.2,15.3 74.7,8.6 L73.9,8.1 C68.2,12.6 63.6,18.3 60.1,24.6 C64,25.9 67.7,27.6 71.2,29.5 Z"></path>
                    <path d="M33.1,20.5 C29.3,14.5 26.7,7.8 25.5,0.7 L24.6,0.7 C22,7.5 20.9,14.7 21.1,21.9 C25.2,21.2 29.2,20.7 33.1,20.5 Z"></path>
                    <path d="M52.8,22.5 C50.7,15.7 50,8.5 50.7,1.4 L49.9,1.2 C45.6,7.1 42.6,13.7 41,20.8 C44.9,20.9 48.9,21.5 52.8,22.5 Z"></path>
                    <path d="M87.1,41.1 C88.8,34.2 91.8,27.6 96,21.9 L95.4,21.3 C88.7,24.2 82.7,28.4 77.8,33.6 C81.1,35.8 84.2,38.3 87.1,41.1 Z"></path>
                    <path d="M99.5,56.5 C102.9,50.3 107.6,44.8 113.2,40.3 L112.8,39.5 C105.6,40.5 98.7,43 92.6,46.7 C95,49.7 97.4,53 99.5,56.5 Z"></path>
                    <path d="M106.7,72.5 C106.9,73.2 107.1,73.9 107.3,74.6 C112.2,69.5 118.2,65.4 124.8,62.5 L124.6,61.6 C117.4,60.7 110.1,61.3 103.2,63.3 C104.5,66.3 105.7,69.3 106.7,72.5 Z"></path>
                    <path d="M107.7,113.7 C114.5,111.8 121.7,111.3 128.9,112.2 L129.2,111.4 C123.4,107 116.8,103.8 109.9,102 C109.4,105.9 108.7,109.8 107.7,113.7 Z"></path>
                    <path d="M109,82.1 C109.7,86.1 110.1,90.1 110.1,94.1 C116.2,90.5 123,88.1 130.1,87.1 L130.1,86.2 C123.4,83.4 116.2,82.1 109,82.1 Z"></path>
                    <path d="M105.3,121 C103.9,124.8 102.2,128.4 100.2,131.9 C107.3,131.9 114.4,133.2 121,136 L121.5,135.3 C117.1,129.5 111.6,124.6 105.3,121 Z"></path>
                    <path d="M13.5,23.9 C13.6,23.9 13.7,23.9 13.7,23.8 C8.5,19 4.2,13.2 1.2,6.7 L0.3,6.9 C-0.4,14.1 0.4,21.4 2.5,28.3 C6,26.6 9.7,25.1 13.5,23.9 Z"></path>
                    <path d="M72.5,159.5 C78.6,163.1 84,167.9 88.4,173.6 L89.2,173.2 C88.4,166 86,159 82.5,152.8 C79.3,155.2 76,157.5 72.5,159.5 Z"></path>
                    <path d="M88.2,147.5 C95.1,149.3 101.5,152.5 107.2,156.9 L107.9,156.3 C105.2,149.6 101.1,143.5 96,138.4 C93.6,141.7 91,144.7 88.2,147.5 Z"></path>
                </g>
                <path d="M26.2,120 C30.2,120.1 34.2,119.8 38.2,119.3 C37.7,118.5 37.3,117.7 36.8,116.8 C31,105.9 26.9,94.9 24.7,84.4 C22,84.5 19.3,84.5 16.6,84.2 C8.6,83.3 3.4,79.1 3.4,79.1 C0.9,88.6 0.3,98.6 1.8,108.5 C1.8,108.6 7.6,120.1 26.2,120 Z" id="Shape"></path>
                <path d="M53.7,150.2 C56.3,149.9 58.8,149.5 61.2,149 C53.8,142.1 46.7,133.5 40.6,123.4 C36.5,124.1 32.5,124.4 28.8,124.4 C6.7,124 3.2,115.8 3.2,115.8 C3.3,116.3 4,118.5 4.2,119 C5.6,123.6 7.4,128.1 9.7,132.4 C11.2,135.2 12.9,137.9 14.9,140.5 C14.8,140.6 26.2,153.1 53.7,150.2 Z" id="Shape"></path>
                <path d="M27.6,79.9 C33.6,79.3 41,77.4 49.9,73.5 C50.8,73.1 51.8,72.7 52.7,72.2 C46.6,58.3 41.7,45 38.1,33 C37.9,33.1 37.6,33.3 37.4,33.4 C35.2,34.7 33.1,36.1 31.1,37.6 C24.8,46.7 23.7,62.2 27.6,79.9 Z" id="Shape"></path>
                <path d="M23.8,80.1 C21,64 22.5,49.6 28.3,39.8 C17.2,49 9.3,61.2 5.1,74.6 C6.6,76 12.2,80.4 23.8,80.1 Z" id="Shape"></path>
                <path d="M65.3,152.6 C52.4,155.6 37.7,156.6 25.3,150.8 C44.1,168.2 71,174.4 95.7,166.6 C86.2,165.9 75.5,161 65.3,152.6 Z" id="Shape"></path>
                <path d="M124.1,117.3 C117.8,125.6 108,134 96.1,140.9 C95.2,141.4 93.9,142.1 92.2,142.9 C91.5,143.2 90.8,143.6 90,143.9 C84.9,146.2 77.6,149.2 69.3,151.5 C79.5,160.3 90,165.3 98.9,165.4 C101.4,164.5 103.9,163.4 106.4,162.1 C106.5,162 106.6,162 106.7,161.9 C106.8,161.8 98.2,151 95.2,147.1 C95.6,146.9 95.9,146.8 96.3,146.6 C98.7,145.3 100.8,144 102.2,143 C112.6,136.1 120.1,127.8 125,119.7 C127.4,115.8 129.1,111.9 130.1,108.3 L129.6,108 C128.4,111.1 126.5,114.2 124.1,117.3 Z" id="Shape"></path>
                <path d="M122.8,64.1 C120.5,71 116.2,78.2 110.2,85.1 C102.2,94.3 91.4,103.2 78.4,110.2 C77.8,110.5 77.2,110.9 76.6,111.2 L76.6,111.2 C75.5,111.8 74.4,112.3 73.3,112.8 C72.3,113.3 71.3,113.8 70.3,114.2 C65.9,116.2 61.4,118 57.1,119.4 C57.1,119.4 54.5,120.3 51.6,121 L51.6,121.1 C49.5,121.7 47.4,122.2 45.3,122.6 C51.5,132.6 58.4,141.3 65.5,148.1 C74.7,145.9 82.4,142.8 87.5,140.5 C88.4,140.1 89.2,139.7 89.9,139.4 C85.3,132.7 80.6,125.2 76.1,117.6 C76.2,117.6 76.2,117.5 76.3,117.5 C77.3,117 78.3,116.5 79.3,116 C81.8,114.6 84.1,113.3 85.7,112.3 C96.2,105.7 105,96.9 111.5,88.1 C117.4,80.1 121.4,71.9 123.1,64.9 L122.8,64.1 Z" id="Shape"></path>
                <path d="M54.6,76.4 C53.7,76.8 52.7,77.2 51.7,77.7 C45.8,80.2 37.6,83 28.6,84.1 C31.2,93.9 35.2,104.4 40.7,114.7 C41.4,116 42.1,117.2 42.8,118.5 C52.7,116.6 61.6,113.2 68,110.4 C69.1,109.9 70.1,109.4 71.1,109 C69.5,106.1 67.9,103.1 66.3,100.1 C66.5,100.4 60.9,89.5 58.2,83.9 C57.8,83 57.3,82.1 56.9,81.1 C57.2,80.9 57.6,80.8 57.9,80.6 C58.3,80.4 58.7,80.2 59.1,79.9 C59.4,79.8 59.4,79.8 59.4,79.8 L62.8,78 C76.2,70.6 85.3,60.6 90.7,51 C93,46.9 94.6,42.8 95.6,39 L95.1,38.7 C93.8,42 91.9,45.5 89.4,49 C83.1,57.8 73.1,66.7 60.5,73.6 L60,73.9 C59.8,73.9 58.2,74.8 54.6,76.4 Z" id="Shape"></path>
            </g>
        </g>
    </g>
</svg>