<svg xmlns="http://www.w3.org/2000/svg" width="677" height="277" version="1"><path d="M216.9 275.009c-11.533-6.096-15.18-21.729-7.84-33.606 7.99-12.93 30.777-13.793 37.033-1.403 3.405 6.742 3.178 7.195-5.093 10.158-4.125 1.477-10.79 3.485-14.809 4.46-7.037 1.71-7.285 1.87-6.672 4.329 1.128 4.52 4.419 8.796 8.126 10.555 3.38 1.603 9.347 1.712 17.855.324 3.75-.612 2.092 2.629-2.5 4.883-6.114 3-20.673 3.168-26.1.3z" fill="#0e3846"/><path d="M226.185 249.485c10.235-2.12 9.85-1.875 8.784-5.593-2.003-6.984-9.407-10.425-13.215-6.142-2.24 2.52-4.929 13.25-3.32 13.25.24 0 3.727-.682 7.75-1.515z" fill="#fff"/><path d="M274.667 276.333c-1.48-1.48-.529-3.333 1.71-3.333 4.5 0 4.673-1.15 4.39-29.113l-.267-26.368-2.988-.517c-1.774-.307-3.124-1.225-3.323-2.26-.311-1.616 1.361-1.742 23.166-1.742h23.501l.66 5.28c.968 7.753.377 11.22-1.915 11.22-1.323 0-2.312-1.214-3.259-4-2.138-6.295-4.3-7.5-13.453-7.5H295v25.084l7.75-.292c7.68-.29 7.763-.322 9.18-3.542.787-1.787 2.025-3.25 2.75-3.25 1.005 0 1.32 2.386 1.32 10 0 7.974-.288 10-1.42 10-.782 0-1.718-1.354-2.082-3.008-.877-3.994-3.069-4.992-10.964-4.992h-6.597l.281 11.75.282 11.75 3.25.957c2.103.619 3.25 1.59 3.25 2.75 0 1.634-1.18 1.793-13.333 1.793-7.334 0-13.634-.3-14-.667zM327 275.066c0-1.366.807-2.026 2.75-2.25l2.75-.316v-34l-2.75-.316c-1.848-.213-2.75-.899-2.75-2.091 0-1.792 4.001-3.068 14.73-4.7l4.229-.642.27 20.874.271 20.875 2.75.316c1.943.224 2.75.884 2.75 2.25 0 1.809-.81 1.934-12.5 1.934s-12.5-.125-12.5-1.934zm31-.036c0-1.288.658-2.03 1.8-2.03 3.73 0 4.2-1.917 4.2-17.118 0-8.095-.273-15.43-.607-16.3-.334-.87-1.684-1.582-3-1.582-1.664 0-2.393-.565-2.393-1.855 0-1.51 1.5-2.18 8.039-3.593 8.539-1.845 10.961-1.618 10.961 1.024 0 1.176.493 1.429 1.75.896 9.29-3.939 13.993-4.359 20.349-1.816 6.53 2.613 7.852 6.623 7.879 23.894.023 14.5.523 16.45 4.222 16.45 1.142 0 1.8.742 1.8 2.03 0 1.946-.513 2.02-12.238 1.75-10.523-.24-12.283-.515-12.56-1.958-.228-1.195.487-1.77 2.489-2l2.809-.322.288-13c.16-7.15.035-14.024-.275-15.275-.995-4.016-4.126-6.225-8.822-6.225-7.657 0-7.782.31-7.468 18.506l.277 15.994 2.81.322c2 .23 2.716.805 2.487 2-.276 1.443-2.036 1.717-12.56 1.959-11.724.269-12.237.195-12.237-1.75zm62.923-.953c-2.256-2.257-2.923-3.835-2.923-6.923 0-7.235 7.724-13.408 20.265-16.197l5.765-1.282-.627-3.587c-1.107-6.334-2.855-8.088-8.058-8.088-3.99 0-5.062.48-7.977 3.571-1.852 1.964-3.368 3.99-3.368 4.5 0 1.97-2.018.794-3.476-2.024-1.524-2.948-1.519-2.96 3.127-6.507 4.94-3.772 12.563-6.54 18.01-6.54 4.566 0 11.159 2.813 12.586 5.37.68 1.218 1.445 8.554 1.787 17.13.623 15.604 1.61 19.5 4.942 19.5 2.467 0 3.678 1.972 1.902 3.096-2.548 1.614-14.045 1.063-16.071-.77-1.731-1.567-2.078-1.567-5.363 0C439.19 276.4 435.412 277 430.89 277c-6.45 0-7.289-.246-9.966-2.923z" fill="#0e3846"/><path d="M442.418 270.393c1.245-.478 1.582-2.181 1.582-8 0-7.258-.047-7.393-2.55-7.393-3.261 0-8.026 2.453-8.829 4.545-1.149 2.993-.634 7.783 1.034 9.626 1.643 1.816 5.73 2.386 8.763 1.222z" fill="#fff"/><path d="M467.667 276.333c-1.509-1.508-.495-3.22 2.083-3.517l2.75-.316v-34l-2.75-.316c-1.848-.213-2.75-.899-2.75-2.091 0-1.793 4-3.068 14.75-4.702 4.074-.62 4.25-.54 4.25 1.947v2.595l3.75-2.217c2.917-1.723 5.316-2.216 10.794-2.216 13.124 0 15.536 3.821 16.383 25.958.572 14.933.577 14.958 3.073 15.545 1.375.323 2.5 1.242 2.5 2.042 0 1.196-2.228 1.455-12.5 1.455-10.444 0-12.5-.247-12.5-1.5 0-.825 1.013-1.644 2.252-1.82 3.838-.545 4.544-3.51 4.027-16.913-.578-15.029-1.82-17.573-8.82-18.084-2.387-.174-5.39.245-6.674.932-2.314 1.238-2.33 1.38-2.059 17.317l.274 16.068 2.75.316c1.943.224 2.75.884 2.75 2.25 0 1.803-.802 1.934-11.833 1.934-6.509 0-12.134-.3-12.5-.667zm69.319-1.622c-2.38-1.259-5.707-3.992-7.392-6.073-2.678-3.31-3.11-4.713-3.436-11.174-.307-6.077.018-8.196 1.829-11.937 5.454-11.266 20.474-17.156 33.513-13.142 3.545 1.091 3.976 1.559 3.786 4.11-.117 1.582-1.122 3.785-2.232 4.895l-2.018 2.019-2.942-2.819c-2.036-1.95-4.328-2.975-7.442-3.326-3.842-.433-4.864-.143-6.994 1.987-6.376 6.377-5.894 20.11.955 27.163 3.927 4.043 7.92 5.087 16.486 4.31 5.21-.472 5.901-.324 5.901 1.262 0 2.977-6.852 5.014-16.863 5.014-7.266 0-9.586-.404-13.151-2.289zm35.014.414c0-1.287.949-2.065 3.024-2.48l3.025-.605-.275-16.77-.274-16.77-2.75-.316c-1.851-.213-2.75-.898-2.75-2.096 0-1.402 1.598-2.13 7.528-3.434 12.626-2.774 11.39-4.79 11.702 19.096l.27 20.75 2.75.316c1.943.224 2.75.884 2.75 2.25 0 1.809-.81 1.934-12.5 1.934-11.556 0-12.5-.142-12.5-1.875zm34.686-.54c-9.06-8.397-.888-19.699 17.171-23.75l5.357-1.201-.522-3.895c-.725-5.402-3.114-7.739-7.913-7.739-5.032 0-7.096 1.16-9.771 5.487-2.6 4.206-3.24 4.318-5.076.887-1.346-2.517-1.23-2.782 2.765-6.327 7.015-6.226 18.39-8.709 25.769-5.626 5.695 2.38 6.863 5.979 7.49 23.079.302 8.25.913 15.563 1.356 16.25.443.688 1.653 1.25 2.688 1.25 2.447 0 3.646 1.977 1.878 3.096-2.358 1.494-13.22 1.053-15.63-.635-1.978-1.385-2.494-1.385-5.173 0-1.892.979-5.671 1.539-10.38 1.539-6.44 0-7.742-.314-10.009-2.415z" fill="#0e3846"/><path d="M628.792 262.75l.292-7.75h-2.965c-4.59 0-9.119 4.352-9.119 8.76 0 5.11 2.43 7.407 7.448 7.038l4.052-.298.292-7.75z" fill="#fff"/><path d="M652.667 276.333c-1.509-1.508-.495-3.22 2.083-3.517l2.75-.316v-59l-2.81-.322c-1.982-.227-2.715-.808-2.49-1.974.323-1.68 2.818-2.329 13.55-3.525l5.25-.585v31.753c0 32.984.144 34.153 4.2 34.153 1.133 0 1.8.74 1.8 2 0 1.887-.667 2-11.833 2-6.509 0-12.134-.3-12.5-.667zM89 274.625c0-.756 1.292-1.633 2.87-1.949 1.88-.376 3.083-1.368 3.486-2.875 1.013-3.78.724-47.46-.331-50.236-.692-1.819-1.71-2.565-3.5-2.565-1.87 0-2.525-.526-2.525-2.028 0-1.953.511-2.018 13.75-1.75 11.39.23 13.75.534 13.75 1.768 0 .874-1.241 1.705-3 2.01l-3 .519-.266 26.62-.266 26.62 2.266.606c7.418 1.988 14.856-.854 17.72-6.771 1.126-2.324 2.046-4.758 2.046-5.41 0-.651 1.176-1.184 2.614-1.184 2.547 0 2.596.12 1.925 4.75-.378 2.613-1.157 6.663-1.732 9l-1.044 4.25H111.38c-18.322 0-22.38-.25-22.38-1.375zm52-.125c0-.825.81-1.5 1.8-1.5 3.73 0 4.2-1.917 4.2-17.118 0-8.095-.273-15.43-.607-16.3-.334-.87-1.684-1.582-3-1.582-1.676 0-2.393-.564-2.393-1.881 0-2.044 4.019-3.416 13.73-4.687l5.229-.684.27 20.876.271 20.876 2.75.316c1.574.182 2.75.93 2.75 1.75 0 1.169-2.313 1.434-12.5 1.434-10.444 0-12.5-.247-12.5-1.5zm30.25.25c.228-.688 1.278-1.406 2.333-1.597 1.054-.191 2.367-.775 2.917-1.298.584-.555 1.21-11.017 1.507-25.153.467-22.32.674-24.513 2.658-28.202 4.308-8.01 11.434-12.5 19.835-12.5 4.606 0 11.503 2.219 11.496 3.699-.006 1.344-3.912 7.301-4.787 7.301-.451 0-2.345-1.125-4.209-2.5-4.285-3.161-8.456-3.261-10.427-.25-.902 1.377-1.59 5.353-1.773 10.25l-.3 8 6.25.298c5.43.258 6.25.553 6.25 2.25 0 1.55-.694 1.952-3.375 1.952-1.856 0-4.781.281-6.5.625l-3.125.625v14.81c0 17.822.582 19.94 5.475 19.94 2.467 0 3.525.45 3.525 1.5 0 1.262-2.231 1.5-14.083 1.5-10.822 0-13.987-.29-13.667-1.25zm-24.177-53.385c-2.722-3.46-2.617-5.912.382-8.91 3-3 6.415-3.132 9.91-.382 3.343 2.63 3.48 6.785.32 9.753-3.274 3.076-7.991 2.872-10.612-.46zm185.943-.072c-4.847-6.162 2.22-13.87 9.3-10.143 2.885 1.518 3.65 2.79 3.669 6.1.036 6.51-8.85 9.28-12.969 4.043zm245.057.072c-2.722-3.46-2.617-5.912.382-8.91 4.674-4.674 12.545-1.625 12.545 4.86 0 6.403-8.886 9.187-12.927 4.05z" fill="#0e3846"/><path d="M325.5 187.247c-1.65-1.985-5.584-5.513-8.741-7.84l-5.741-4.232 4.993-3.588c2.747-1.973 5.468-3.587 6.048-3.587 1.92 0 7.894 16.007 7.93 21.25.016 2.559-1.117 2.053-4.489-2.003z" fill="#ecab23"/><path d="M7.7 186.839c-2.09-.584-4.513-2.15-5.386-3.482-2.195-3.35-3.087-16.254-1.206-17.445 2.677-1.695 3.744-.873 5.422 4.18 3.133 9.43 10.387 14.897 17.898 13.488 4.884-.917 7.072-3.888 7.072-9.604 0-5.944-2.247-8.63-11.5-13.74-11.802-6.52-15.097-9.201-17.226-14.014-2.422-5.474-1.887-11.85 1.376-16.433 4.216-5.92 16.504-9.04 27.013-6.859 8.265 1.716 8.995 2.545 9.592 10.895L41.27 141h-2.635c-1.705 0-2.634-.543-2.634-1.54 0-2.529-3.81-9.213-6.21-10.894-3.232-2.264-9.962-2.005-13.155.507-2.107 1.656-2.635 2.923-2.635 6.312 0 5.36 2.404 7.79 14 14.15 14.092 7.73 17.487 12.05 16.812 21.391-.484 6.686-3.102 10.737-9.15 14.161-3.494 1.977-5.768 2.392-14.162 2.584-5.5.126-11.71-.248-13.8-.832zm54.513-.346c-4.949-2.15-6.195-6.239-6.313-20.71-.121-14.963-.648-17.276-3.94-17.302-1.472-.012-2.567-.68-2.761-1.686-.374-1.941 4.1-3.477 12.933-4.44l5.631-.615.415 16.88c.441 17.934 1.015 20.236 5.565 22.309 3.174 1.446 8.49 1.353 10.593-.186 1.519-1.11 1.686-3.058 1.441-16.75L85.5 148.5l-2.75.04c-1.963.028-2.75-.46-2.75-1.704 0-2.053 4.708-3.663 13.25-4.53l5.75-.584v18.057c0 9.932.273 18.77.607 19.64.334.87 1.684 1.581 3 1.581 1.67 0 2.393.564 2.393 1.868 0 1.423-1.386 2.257-5.816 3.5-7.533 2.114-9.437 2.057-10.926-.327-1.212-1.94-1.263-1.94-5.49-.022-5.146 2.336-15.71 2.58-20.555.474zm48.974-1.243c.183-.963 1.295-1.888 2.471-2.056 2.897-.415 3.312-2.585 3.328-17.379.016-14.44-.858-18.1-4.21-17.628-1.405.198-2.343-.27-2.542-1.267-.371-1.862 5.238-3.804 13.43-4.649 4.957-.512 5.336-.399 5.336 1.59 0 2.592-.295 2.583 4.764.139 5.066-2.448 14.989-2.696 19.269-.483 5.358 2.77 6.413 6.32 6.967 23.44l.5 15.458 2.495.586c1.372.323 2.642 1.354 2.823 2.293.296 1.535-.936 1.706-12.318 1.706s-12.614-.17-12.318-1.706c.18-.939 1.451-1.973 2.823-2.298l2.495-.592v-29.581l-2.806-2.412c-3.259-2.8-8.17-3.166-11.471-.854-2.138 1.497-2.223 2.162-2.223 17.375v15.818l3 .6c1.76.352 3 1.23 3 2.125 0 1.286-1.972 1.525-12.573 1.525-11.435 0-12.543-.158-12.24-1.75z" fill="#0e3846"/><path d="M255.164 185.945c-13.456-2.404-28.743-9.423-37.664-17.294l-4-3.53 6.5 2.084c7.483 2.4 25.156 2.902 33.223.944 4.714-1.143 4.737-1.136 12 3.698 7.743 5.154 15.061 8.528 20.777 9.58 2.161.397.75-.469-3.69-2.264-7.343-2.968-19.455-10.963-18.988-12.534.142-.478 4.29-2.319 9.218-4.089 16.71-6.003 30.133-14.023 41.018-24.507 6.867-6.613 11.613-12.397 13.979-17.033 2.51-4.921 2.94-2.28.54 3.321-5.098 11.892-16.102 24.493-28.639 32.796-3.54 2.344-6.438 4.69-6.438 5.212 0 .523 2.475 4.013 5.5 7.757 3.025 3.744 5.5 7.047 5.5 7.34 0 1.077-7.998 4.574-10.46 4.574-1.397 0-2.54.373-2.54.828 0 2.678-25.753 4.918-35.836 3.117zm88.637-16.962c-2.584-1.576-6.972-3.672-9.75-4.658-2.778-.987-5.051-2.197-5.051-2.689 0-.93 6.842-8.91 8.09-9.437 1.375-.58 6.941 6.364 10.464 13.051 3.985 7.566 3.434 8.113-3.753 3.733z" fill="#ecab23"/><path d="M223.713 164.53c-17.54-3.664-25.177-10.903-32.158-30.481-2.25-6.31-2.381-7.209-.856-5.867 6.064 5.336 17.919 8.199 31.738 7.664l8.938-.346 4.062 5.915c2.235 3.254 7.3 9.619 11.257 14.144 7.17 8.202 7.185 8.231 4.5 8.812-6.618 1.433-20.987 1.516-27.481.16zm28.284-8.25c-6.338-6.89-16.532-21.078-15.725-21.886.244-.243 3.647-1.33 7.563-2.416 14.52-4.023 32.873-13.08 44.93-22.17 13.5-10.18 22.456-20.242 29.437-33.072 3.112-5.72 3.82-6.544 3.382-3.934-.806 4.8-7.008 16.664-12.788 24.468-6.864 9.267-20.234 21.42-29.87 27.151l-8.008 4.764 2.706 4.657c1.487 2.562 4.904 7.935 7.593 11.94l4.887 7.282-5.547 2.453c-4.788 2.118-12.617 4.81-20.19 6.943-1.71.481-3.376-.75-8.37-6.18zm106.175-8.838c-2.381-.748-6.994-1.662-10.25-2.03-3.257-.369-5.922-.905-5.922-1.191 0-1.57 5.396-11.221 6.273-11.221 2.254 0 14.903 10.703 16.841 14.25 1.172 2.144-.577 2.193-6.942.192z" fill="#ecab23"/><path d="M202.727 130.047c-3.175-1.015-7.386-3.075-9.356-4.578-5.695-4.343-6.712-8.01-6.093-21.969.293-6.6.994-13.184 1.557-14.632l1.025-2.631 5.085 2.516c3.33 1.648 7.428 2.684 11.878 3.002l6.793.486 2.737 9.13c1.505 5.02 4.833 13.546 7.395 18.944 3.88 8.17 4.416 9.969 3.206 10.735-2.567 1.624-18.008.985-24.227-1.003zm28.013-4.397c-5.234-9.363-12.701-28.59-12.73-32.771-.007-1.187 1.296-1.795 4.869-2.269 5.458-.724 15.665-4.076 24.448-8.03 14.897-6.706 34.333-23.549 40.189-34.828 3.006-5.79 5.153-7.672 3.993-3.502-2.676 9.623-12.704 23.906-22.637 32.243-4.216 3.538-15.407 10.802-18.219 11.824-.718.262 1.677 6.036 6.347 15.301 4.125 8.185 7.632 15.165 7.793 15.51.634 1.36-26.138 10.872-30.602 10.872-.56 0-2.114-1.958-3.452-4.35zm119.628-3.732c.377-1.88.958-5.117 1.29-7.194.52-3.246.903-3.695 2.724-3.203 3.804 1.028 18.984 8.95 19.345 10.096.236.752-3.014 1.284-9.938 1.627-5.659.28-11.148.865-12.198 1.3-1.725.716-1.843.464-1.223-2.626zm2.156-20.168c-1.048-3.17-.948-11.758.142-12.176 1.615-.619 13.197 1.1 17.847 2.65 5.616 1.87 5.252 3.213-1.247 4.598-3.171.676-8.016 2.338-10.766 3.694-5.873 2.896-5.455 2.81-5.976 1.234z" fill="#ecab23"/><path d="M203.5 87.343c-5.005-1.063-11.5-4.755-11.5-6.536 0-2.816 5.473-14.28 10.104-21.167 5.607-8.337 12.968-15.826 14.846-15.106.819.315 1.212.295.874-.043-.856-.856 2.999-4.816 7.123-7.318l3.447-2.091 4.136 12.209c2.274 6.715 5.98 16.484 8.236 21.709 3.745 8.678 3.956 9.61 2.441 10.775-2.177 1.674-18.736 6.948-23.184 7.384-3.422.336-3.495.262-4.654-4.659-1.463-6.215-1.707-24.833-.386-29.44.54-1.885.792-3.618.56-3.851-.234-.233-1.169 2.137-2.079 5.266-1.699 5.845-2.28 25.429-.914 30.866.639 2.547.504 2.654-3.192 2.543-2.122-.064-4.758-.307-5.858-.54zm143.488-12.376c-1.241-3.317-2.067-6.222-1.835-6.453.231-.231 4.482-.962 9.447-1.623 8.502-1.132 14.4-.771 14.4.88 0 .403-2.084 1.838-4.632 3.19-2.547 1.35-6.774 4.163-9.393 6.248-2.619 2.085-4.98 3.791-5.246 3.791-.267 0-1.5-2.715-2.741-6.033zM336.942 56.25c-1.893-2.612-3.577-5.044-3.743-5.403-.42-.91 9.365-5.41 14.801-6.809 2.475-.636 5.288-1.386 6.25-1.665 2.963-.86 1.96 1.335-2.896 6.33-2.555 2.63-5.765 6.472-7.133 8.539-1.368 2.067-2.79 3.758-3.161 3.758s-2.224-2.138-4.118-4.75zm-14.453-15.444c-2.744-2.193-5.121-4.343-5.282-4.777-.427-1.147 9.497-8.831 15.043-11.65 2.614-1.327 4.75-1.923 4.75-1.324s-1.204 3.144-2.676 5.655c-1.471 2.511-3.614 7.157-4.76 10.325l-2.086 5.759-4.99-3.988zM303.25 29.21c-2.887-1.405-5.25-3.112-5.25-3.793 0-2.556 12.967-17.352 15.25-17.401 1.03-.022.942.78-.664 6.07-.765 2.523-1.713 7.585-2.105 11.25-.393 3.665-1 6.611-1.347 6.547-.349-.065-2.997-1.268-5.884-2.673zm-70.266-1.615c-1.593-4.47-2.505-20.155-1.218-20.95.58-.359 2.366 1.687 4.022 4.605 1.638 2.887 4.803 7.312 7.033 9.833l4.054 4.582-6.394 2.512-6.393 2.513-1.104-3.095zm21.298-5.304C253.167 19.386 257.184 0 258.9 0c.388 0 1.738 3.263 3 7.25 1.262 3.988 3.169 8.77 4.238 10.626 1.068 1.857 1.779 3.54 1.579 3.74-.2.2-3.184.75-6.631 1.22-5.036.69-6.373.582-6.805-.545zm26.83.628c-2.414-.474-4.556-1.03-4.76-1.234C274.85 20.183 284.714 0 286.95 0c.448 0 .878 3.753.956 8.34.078 4.587.581 9.872 1.118 11.743.537 1.872.976 3.52.976 3.66 0 .464-4.418.054-8.888-.824z" fill="#ecab23"/></svg>