<?xml version="1.0" encoding="utf-8"?>
<!-- Generator: Adobe Illustrator 19.0.0, SVG Export Plug-In . SVG Version: 6.00 Build 0)  -->
<svg version="1.1" xmlns="http://www.w3.org/2000/svg" xmlns:xlink="http://www.w3.org/1999/xlink" x="0px" y="0px"
	 viewBox="-1572 3382 310 150" style="enable-background:new -1572 3382 310 150;" xml:space="preserve">
<style type="text/css">
	.st0{display:none;}
	.st1{display:inline;fill:#FFFFFF;}
	.st2{fill:#54B948;}
	.st3{clip-path:url(#SVGID_2_);}
	.st4{fill:#FFFFFF;}
</style>
<g id="Layer_2" class="st0">
	<rect x="-1572" y="3382" class="st1" width="310" height="150"/>
</g>
<g id="Layer_1">
	<g id="g10" transform="matrix(1.25,0,0,-1.25,-1429.2113,402.72843)" inkscape:label="GetFile" inkscape:groupmode="layer">
		<g id="g3261" transform="matrix(5.2996804,0,0,5.2996804,-4916.1212,-154.78849)">
			<path id="path52" inkscape:connector-curvature="0" class="st2" d="M917.2-442.8h24.6v22h-24.6V-442.8z"/>
			<g id="g54">
				<g>
					<defs>
						<rect id="SVGID_1_" x="848.1" y="-504.7" width="162.8" height="145.6"/>
					</defs>
					<clipPath id="SVGID_2_">
						<use xlink:href="#SVGID_1_"  style="overflow:visible;"/>
					</clipPath>
					<g id="g56" class="st3">
						<g id="g62" transform="translate(1183.0096,47.6816)">
							<path id="path64" inkscape:connector-curvature="0" class="st4" d="M-249.7-485.8h-5.7v10.3h2.9v-8.5h2.8
								c1.9,0,2.7,1.3,2.7,4.7c0,3.4-0.9,4.4-2.8,4.4h-6.3v-11h-2.8v11h-4.2v1.8h14.2c3.4,0,5.1-1.8,5.1-6.2
								C-244-485-246.4-485.8-249.7-485.8"/>
						</g>
					</g>
				</g>
			</g>
		</g>
	</g>
</g>
</svg>
