<?xml version="1.0" encoding="UTF-8"?>
<svg width="544px" height="263px" viewBox="0 0 544 263" version="1.1" xmlns="http://www.w3.org/2000/svg" xmlns:xlink="http://www.w3.org/1999/xlink">
    <!-- Generator: Sketch 44.1 (41455) - http://www.bohemiancoding.com/sketch -->
    <title>tech-domains-logo</title>
    <desc>Created with Sketch.</desc>
    <defs></defs>
    <g id="Page-1" stroke="none" stroke-width="1" fill="none" fill-rule="evenodd">
        <g id="tech-domains-logo" fill-rule="nonzero">
            <path d="M56.5,152.1 C56.5,167.6 44,180.1 28.5,180.1 C13,180.1 0.5,167.6 0.5,152.1 C0.5,136.6 13,124.1 28.5,124.1 C44,124.1 56.5,136.6 56.5,152.1" id="Shape" fill="#16B14B"></path>
            <path d="M267.1,120.4 L293,98.7 L299,62.2 L279.2,37.4 L214.8,37.4 L184.9,62.6 L170,152.5 L189.6,178.5 L261.5,178.5 L283.9,152.5 L287.5,130.9 L286.9,130.9 L257.4,130.9 L250.8,130.9 L249.8,137.9 L243.5,142.5 L211.2,142.4 L207.2,137.9 L210,120.3 L267.1,120.4 Z M220.6,71.1 L225.9,66.5 L258.3,66.5 L262.2,71.1 L259.1,86.8 L255.2,90.2 L217,90.2 L220.6,71.1 Z" id="Shape" fill="#272626"></path>
            <polygon id="Shape" fill="#272626" points="411.8 130.8 373.6 130.9 372.2 139.6 365.9 144.2 334.1 144.2 330.1 139.7 340.4 75.7 346.7 71.1 379.1 71.1 382.1 75.7 381.3 84.1 419.8 84.1 423.5 62.1 406.3 37.4 337.1 37.4 308.7 62.1 293.8 152.5 313.9 178.5 385.9 178.5 408.6 152.5 412.4 130.8"></polygon>
            <polygon id="Shape" fill="#272626" points="127.5 138 122.2 142.6 107.9 142.6 104 138 106.5 121.8 115.2 71 149.7 71 155.1 37.5 123.1 37.5 129.5 0 92 0 85.6 37.5 67.9 37.5 62.5 71 80.8 71 67.3 152.3 86.2 177.7 94.2 177.7 139.8 177.7 139.1 177.7 160 152.5 163.6 131 128.5 131"></polygon>
            <polygon id="Shape" fill="#272626" points="524.8 37.3 484.4 37.3 476.2 44 471 47.9 473.7 31 478.7 0 443.5 0 414 178.5 449.9 178.5 465.1 84.1 477.2 75.7 500.7 75.7 505.9 85.7 490.9 178.5 525 178.5 543.6 62.1"></polygon>
            <path d="M191.4,260.4 L191.4,204.6 L203,204.6 C212,204.6 219.5,207 225.4,211.7 C231.3,216.5 234.3,223.3 234.3,232.2 C234.3,241.3 231.4,248.3 225.5,253.1 C219.6,257.9 212.1,260.4 202.8,260.4 L191.4,260.4 L191.4,260.4 Z M198.4,211 L198.4,254.1 L200.8,254.1 C204.5,254.1 208,253.7 211,253 C214.1,252.3 216.8,251.1 219.3,249.4 C221.8,247.8 223.7,245.5 225.1,242.7 C226.5,239.8 227.2,236.5 227.2,232.6 C227.2,228.7 226.5,225.2 225.1,222.4 C223.7,219.5 221.7,217.3 219.2,215.7 C216.7,214.1 213.9,212.9 210.9,212.2 C207.9,211.5 204.5,211.1 200.7,211.1 L198.4,211.1 L198.4,211 Z" id="Shape" fill="#757576"></path>
            <path d="M246,212 C251.7,206.3 258.6,203.5 266.6,203.5 C274.6,203.5 281.5,206.3 287.2,212 C292.9,217.7 295.8,224.5 295.8,232.5 C295.8,240.7 293,247.6 287.3,253.2 C281.6,258.8 274.7,261.6 266.6,261.6 C258.5,261.6 251.5,258.8 245.9,253.2 C240.2,247.6 237.4,240.7 237.4,232.5 C237.3,224.5 240.2,217.7 246,212 M250.9,248.6 C255.3,253 260.5,255.2 266.6,255.2 C272.7,255.2 277.9,253 282.3,248.6 C286.7,244.2 288.9,238.9 288.9,232.6 C288.9,226.3 286.8,221 282.6,216.6 C278.4,212.2 273.1,210 266.6,210 C260.2,210 254.9,212.2 250.6,216.6 C246.4,221 244.3,226.3 244.3,232.6 C244.3,238.9 246.5,244.2 250.9,248.6" id="Shape" fill="#757576"></path>
            <polygon id="Shape" fill="#757576" points="328.8 261.6 312 223.6 311.9 223.6 305.4 260.4 298.2 260.4 309.6 202.3 328.8 246.2 347.9 202.3 359.3 260.4 352.1 260.4 345.6 223.6 345.5 223.6"></polygon>
            <path d="M399.1,246.4 L373.5,246.4 L367.1,260.4 L359.6,260.4 L386.2,202.2 L412.8,260.4 L405.3,260.4 L399.1,246.4 Z M396.2,240.1 L386.3,217.5 L376.4,240.1 L396.2,240.1 Z" id="Shape" fill="#757576"></path>
            <rect id="Rectangle-path" fill="#757576" x="417.3" y="204.6" width="7" height="55.8"></rect>
            <polygon id="Shape" fill="#757576" points="434.1 260.4 434.1 202 476 245.9 476 204.6 482.9 204.6 482.9 262.7 441 218.8 441 260.4"></polygon>
            <path d="M523.2,211.9 L517.6,215.2 C515.5,211.7 512.5,209.9 508.6,209.9 C506.2,209.9 504.1,210.6 502.2,212.1 C500.3,213.6 499.3,215.5 499.3,217.8 C499.3,221.2 501.9,223.8 507.1,225.8 L511.1,227.4 C515.5,229.1 519,231.3 521.4,233.8 C523.8,236.4 525,239.8 525,244.2 C525,249.2 523.3,253.4 519.9,256.7 C516.5,260 512.2,261.6 507.2,261.6 C502.7,261.6 498.9,260.1 495.7,257.2 C492.5,254.3 490.6,250.5 490,246 L497,244.5 C496.9,247.5 498,250 500.1,252 C502.2,254 504.8,255 507.8,255 C510.8,255 513.2,253.9 515.2,251.8 C517.1,249.7 518.1,247.1 518.1,244.1 C518.1,241.4 517.2,239.3 515.5,237.7 C513.8,236.1 511.4,234.8 508.4,233.5 L504.6,231.9 C500.8,230.3 497.8,228.4 495.7,226.3 C493.6,224.2 492.5,221.3 492.5,217.8 C492.5,213.5 494.1,210 497.4,207.3 C500.7,204.7 504.5,203.3 508.9,203.3 C515.2,203.4 520,206.3 523.2,211.9" id="Shape" fill="#757576"></path>
        </g>
    </g>
</svg>