<?xml version="1.0" encoding="utf-8"?>
<!-- Generator: Adobe Illustrator 18.0.0, SVG Export Plug-In . SVG Version: 6.00 Build 0)  -->
<!DOCTYPE svg PUBLIC "-//W3C//DTD SVG 1.1//EN" "http://www.w3.org/Graphics/SVG/1.1/DTD/svg11.dtd">
<svg version="1.1" id="Layer_1" xmlns="http://www.w3.org/2000/svg" xmlns:xlink="http://www.w3.org/1999/xlink" x="0px" y="0px"
	 viewBox="0 0 215 140" enable-background="new 0 0 215 140" xml:space="preserve">
<g id="Layer_1_1_">
	<path fill="#E43346" d="M1.9,56.3c0.6,2.4,2.7,4.9,5.5,5.5H16l0.4,0.2v21.7h5.4V62l0.5-0.2h8.6c2.9-0.8,4.9-3,5.5-5.5v0H1.9
		L1.9,56.3z"/>
	<path fill="#E43346" d="M166.2,83.8c2.7-1.1,4.1-3.1,4.7-5.4H147V56.3h-5.3v27.5H166.2z"/>
	<path fill="#E43346" d="M101.8,61.7h18.9c2.8-0.8,5.3-3,5.8-5.4l-30,0v16.2h24.6v5.7h-19.3c-3,0.8-5.6,2.9-6.9,5.5l1.6,0h29.9V67.1
		h-24.6L101.8,61.7L101.8,61.7z"/>
	<path fill="#E43346" d="M182.3,67.1v16.6h5.3V72.7h19.4v11.1h5.3V67.2L182.3,67.1z"/>
	<path fill="#E43346" d="M55.2,61.7h20.5c2.8-0.6,5-3.1,5.5-5.5H49.6C50.2,58.6,52.3,61.2,55.2,61.7"/>
	<path fill="#E43346" d="M55.2,72.6h20.5c2.8-0.6,5-3.1,5.5-5.5H49.6C50.2,69.5,52.3,72,55.2,72.6"/>
	<path fill="#E43346" d="M55.2,83.8h20.5c2.8-0.6,5-3.1,5.5-5.5H49.6C50.2,80.7,52.3,83.2,55.2,83.8"/>
	<path fill="#E43346" d="M187.1,61.7h20.5c2.8-0.6,5-3.1,5.5-5.5h-31.6C182.1,58.7,184.2,61.2,187.1,61.7"/>
</g>
</svg>
