<?xml version="1.0" encoding="utf-8"?>
<!-- Generator: Adobe Illustrator 18.0.0, SVG Export Plug-In . SVG Version: 6.00 Build 0)  -->
<!DOCTYPE svg PUBLIC "-//W3C//DTD SVG 1.1//EN" "http://www.w3.org/Graphics/SVG/1.1/DTD/svg11.dtd">
<svg version="1.1" id="Layer_1" xmlns="http://www.w3.org/2000/svg" xmlns:xlink="http://www.w3.org/1999/xlink" x="0px" y="0px"
	 viewBox="0.6 217.5 498.7 65" enable-background="new 0.6 217.5 498.7 65" xml:space="preserve">
<g id="Layer_1_1_">
	<path fill="#E33145" d="M0.6,217.6c1.4,5.7,6.4,11.5,13.1,12.9h20.3l1,0.4v51.3h12.7V231l1.1-0.4h20.4c6.8-1.8,11.6-7.2,13-12.9
		v-0.1H0.6V217.6z"/>
	<path fill="#E33145" d="M388.6,282.5c6.3-2.7,9.7-7.3,11.1-12.8h-56.4l0-52.1l-12.6,0v64.9H388.6z"/>
	<path fill="#E33145" d="M236.6,230.4h44.7c6.7-1.9,12.4-7.1,13.8-12.8l-70.9,0.1v38.3h58.1v13.4l-45.5,0c-7.1,2-13.2,6.8-16.2,13.1
		l3.7-0.1h70.5v-39.3h-58V230.4z"/>
	<path fill="#E33145" d="M426.7,243.2v39.2h12.6v-26.1h45.8v26.1h12.6v-39.1L426.7,243.2z"/>
	<path fill="#E33145" d="M126.4,230.5h48.4c6.7-1.3,11.7-7.3,13.1-13h-74.6C114.7,223.2,119.7,229.2,126.4,230.5"/>
	<path fill="#E33145" d="M126.4,256.1h48.4c6.7-1.3,11.7-7.3,13.1-13h-74.6C114.7,248.9,119.7,254.8,126.4,256.1"/>
	<path fill="#E33145" d="M126.4,282.5h48.4c6.7-1.3,11.7-7.3,13.1-13h-74.6C114.7,275.2,119.7,281.1,126.4,282.5"/>
	<path fill="#E33145" d="M437.9,230.5h48.4c6.7-1.3,11.7-7.3,13.1-13h-74.6C426.2,223.3,431.2,229.2,437.9,230.5"/>
</g>
</svg>
