<?xml version="1.0" encoding="utf-8"?>
<!-- Generator: Adobe Illustrator 18.0.0, SVG Export Plug-In . SVG Version: 6.00 Build 0)  -->
<!DOCTYPE svg PUBLIC "-//W3C//DTD SVG 1.1//EN" "http://www.w3.org/Graphics/SVG/1.1/DTD/svg11.dtd">
<svg version="1.1" id="Layer_1" xmlns="http://www.w3.org/2000/svg" xmlns:xlink="http://www.w3.org/1999/xlink" x="0px" y="0px"
	 viewBox="0 0 215 140" enable-background="new 0 0 215 140" xml:space="preserve">
<path fill="#13141E" d="M29.7,55.3v16.9c0,5.8-2.8,9.2-11.2,9.2c-8.4,0-11.2-3.4-11.2-9.2V60.3c-0.1-2.8-2.4-5.1-5.2-5.1v3.3
	c1,0,1.8,0.8,1.9,1.8v13c0,6.7,5.2,11.4,14.5,11.4C27.8,84.8,33,80,33,73.3v-18H29.7z"/>
<path fill="#13141E" d="M125.8,80.9V73c0-1.1,0.9-2,2-2h14.4v-3.3h-14.5c-0.7,0-1.3,0.2-1.9,0.4v-9.5h23.5v-3.3h-26.9v29h27.8v-3.3
	C150.3,80.9,125.8,80.9,125.8,80.9z"/>
<path fill="#13141E" d="M185.4,69.7c-0.7,0-1.4,0.1-2,0.4l0-11.8l18.2,0c3.2,0,5.7,2.5,5.7,5.7c0,3.2-2.5,5.7-5.7,5.7L185.4,69.7z
	 M210.8,81.1c-0.8,0.6-1.9,0.5-2.6-0.2l-6.3-8c4.7-0.1,8.5-4,8.5-8.8c0-4.9-3.9-8.8-8.8-8.8h-21.5v29h3.3l0-9.4c0-1.1,0.9-1.9,2-1.9
	l12.2,0l7.9,10.1c1.8,2.2,5,2.5,7.3,0.8L210.8,81.1z"/>
<path fill="#13141E" d="M84.4,81.1l-18.3,0v-8.2c0-1.1,0.9-2,2-2l16.3,0c2.8,0,5.1,2.3,5.1,5.1C89.5,78.8,87.2,81.1,84.4,81.1
	 M66.1,58.3l18.4,0c2.6,0,4.7,2.1,4.7,4.7c0,2.6-2.1,4.7-4.7,4.7H67.8c-0.6,0-1.2,0.2-1.7,0.4V58.3z M89.2,69.2
	c1.9-1.4,3.1-3.7,3.1-6.2c0-4.3-3.5-7.8-7.8-7.8l-21.7,0v29h21.6c4.6,0,8.2-3.7,8.2-8.3C92.6,73.2,91.3,70.7,89.2,69.2"/>
</svg>
