<?xml version="1.0" encoding="UTF-8"?>
<svg width="353px" height="271px" viewBox="0 0 353 271" version="1.1" xmlns="http://www.w3.org/2000/svg" xmlns:xlink="http://www.w3.org/1999/xlink">
    <!-- Generator: Sketch 44.1 (41455) - http://www.bohemiancoding.com/sketch -->
    <title>Wake-Ups Logo_QHacks</title>
    <desc>Created with Sketch.</desc>
    <defs></defs>
    <g id="Page-1" stroke="none" stroke-width="1" fill="none" fill-rule="evenodd">
        <g id="Wake-Ups-Logo_QHacks" transform="translate(0.000000, -1.000000)">
            <polyline id="Shape" fill="#CE0E2D" fill-rule="nonzero" points="330.79 174.95 329.69 175.25 329.38 174.13 332.81 173.17 333.13 174.3 332.01 174.61 333.44 179.74 332.23 180.08"></polyline>
            <path d="M338.41,176 C338.21,175.41 337.95,174.61 337.77,173.94 L337.77,173.94 C337.85,174.64 337.89,175.46 337.91,175.94 L337.98,178.33 L337.13,178.57 L336,176.55 C335.74,176.09 335.35,175.35 335.06,174.7 L335.06,174.7 C335.23,175.38 335.41,176.18 335.55,176.81 L336,179 L335,179.29 L333.7,172.91 L334.99,172.54 L336.12,174.67 C336.51,175.41 336.86,176.07 337.17,176.74 L337.17,176.74 C337.06,176.02 337.01,175.28 336.94,174.44 L336.82,172.04 L338.09,171.68 L340.22,177.83 L339.13,178.14" id="Shape" fill="#CE0E2D" fill-rule="nonzero"></path>
            <polyline id="Shape" fill="#CE0E2D" fill-rule="nonzero" points="340.48 178.18 340.79 170.87 341.58 170.65 341.27 177.96"></polyline>
            <path d="M346.93,173.62 C346.72,173.04 346.46,172.24 346.29,171.57 L346.29,171.57 C346.36,172.28 346.41,173.09 346.43,173.57 L346.5,175.96 L345.65,176.2 L344.52,174.14 C344.26,173.67 343.87,172.94 343.58,172.29 L343.58,172.29 C343.75,172.97 343.92,173.77 344.07,174.4 L344.56,176.6 L343.56,176.89 L342.26,170.51 L343.56,170.15 L344.68,172.28 C345.07,173.02 345.43,173.67 345.68,174.35 L345.68,174.35 C345.58,173.63 345.52,172.88 345.46,172.05 L345.33,169.64 L346.61,169.29 L348.74,175.44 L347.65,175.74" id="Shape" fill="#CE0E2D" fill-rule="nonzero"></path>
            <path d="M352.6,174.3 C352.333692,174.494733 352.031071,174.634142 351.71,174.71 C350.1,175.16 348.98,174.06 348.48,172.28 C347.82,169.92 348.87,168.64 350.09,168.28 C350.375335,168.178741 350.682343,168.154594 350.98,168.21 L351.07,169.29 C350.870003,169.237905 350.659997,169.237905 350.46,169.29 C349.77,169.48 349.32,170.29 349.75,171.8 C350.18,173.31 350.9,173.72 351.64,173.51 C351.832491,173.448494 352.01709,173.364585 352.19,173.26" id="Shape" fill="#CE0E2D" fill-rule="nonzero"></path>
            <path d="M199.57,1.14 C207.99,-0.51 205.7,12.52 203.43,16.76 C200.93,21.44 197.19,25.07 192.43,29.49 C188.15,33.49 183.04,36.76 177.59,38.17 C169.23,40.32 161.85,37.26 161.77,28.17 C161.77,23.28 165.37,12.56 171.61,13.9 C173.37,14.28 174.39,16.21 174.5,17.76 C174.71,20.41 171.12,25.9 174.89,26.82 C177.17,27.38 180.65,25.09 181.25,22.77 C182.68,17.26 177.74,16.67 177.59,12.17 C177.44,7.67 185.13,2.67 188.59,6.57 C191.42,9.78 185.4,17.47 190.91,18.91 C194.6,19.91 198.24,15.91 198.23,13.13 C198.23,10.76 195.93,10.19 195.34,7.92 C194.929856,6.45595712 195.1547,4.88690334 195.959488,3.59695917 C196.764276,2.30701501 198.074716,1.4152582 199.57,1.14" id="Shape" fill="#CE0E2D"></path>
            <path d="M219.43,9.05 C217.14,14.35 212.95,19.41 210.18,24.86 C216.8,25.19 222.32,23.57 228.88,23.7 C223.66,26.7 217.72,29 212.49,32 C224.08,53 236.94,72.72 248.55,93.7 C239.26,87.18 230.55,80.08 221.36,73.45 C218.2,81.92 216.31,91.67 213.65,100.64 C209.55,94.77 206.58,87.78 202.65,81.74 C196.32,86.92 190.72,93.86 184.52,98.52 C186.85,76.1 189.73,55.13 192.04,32.96 C200.77,24.59 210.4,17.13 219.42,9.05 M205.35,34.5 C212.35,34.71 211.52,23.04 204,24.86 C198.76,26.13 200.18,34.35 205.35,34.5" id="Shape" fill="#011E41"></path>
            <path d="M206.7,26 C207.15,28.05 205.47,28.68 204.19,27.93 C202.82,26.27 205.42,24.43 206.7,26" id="Shape" fill="#011E41"></path>
            <path d="M214.8,32 C220.38,33.44 224.8,28.48 229.26,27.95 C232.519815,27.5651907 235.532957,29.7360422 236.2,32.95 C237.03,39.71 229.77,43.11 223.67,40.66 C221.67,39.86 220.03,38.23 218.47,36.81 C216.91,35.39 214.83,34 214.8,32" id="Shape" fill="#CE0E2D"></path>
            <path d="M187.81,155.79 C184,147.2 180.93,138 177.2,129.18 C173.603951,120.610844 169.548053,112.242007 165.05,104.11 C160.7,96.27 156.14,88.83 150.05,81.94 C143.96,75.05 135.05,65.94 122.05,68.25 C112.93,69.88 104.05,75.94 97.36,80.59 C89.88,85.83 83.07,91.36 76.54,96.59 C86.24,81.08 96.86,64.7 110.09,51.47 C114.37,47.19 119.42,42.3 125.09,40.29 C129.95,38.57 135.87,39.83 139.55,42.22 C146.93,46.99 152.41,57.22 157.1,65.16 C172.1,90.67 182.1,122.6 187.76,155.79" id="Shape" fill="#CE0E2D"></path>
            <path d="M191.86,254.13 C191.07,254.56 189.96,254.67 189.16,255.13 C188.67666,248.458214 188.546478,241.765535 188.77,235.08 C189.12,205.19 189.13,142.96 188.96,108.97 C188.96,105.77 188.03,101.34 188.77,98.56 C189.07,97.45 190.9,96.16 192.05,95.09 C194.55,92.76 196.53,90.77 198.8,88.53 C199.89,87.46 200.8,86.15 202.27,85.83 C206.41,92.83 209.85,100.62 214.42,107.24 C217.69,97.65 219.6,86.71 222.9,77.16 C230.9,83.64 238.9,92.1 238.9,104.92 C238.860756,110.426283 237.186606,115.79679 234.09,120.35 C226.64,130.77 213.31,137.61 204,146.96 C200.83,150.15 197.23,153.46 195.33,157.18 C192.33,162.93 192.78,173.02 192.63,179.54 C192.41,189.26 192.43,195.54 192.43,203.65 C192.43,223.1 192.43,237.95 191.86,254.17" id="Shape" fill="#011E41"></path>
            <path d="M182.41,148.85 C179.94,147.22 178.41,144.48 176.41,142.1 C166.74,130.45 156.91,118.48 144.6,108.74 C139.98,105.09 133.84,100.91 127.05,100.26 C118.89,99.47 111.11,103.26 104.87,105.85 C98.05,108.62 92.51,111.91 86.56,115.1 C94.11,105.97 102.65,95.5 112.97,88.1 C117.33,84.98 123.89,80.95 130.13,82.31 C137.05,83.82 142.73,90.22 147.13,95.04 C151.819189,100.315528 156.120424,105.92351 160,111.82 C168.18,124 176.41,136.3 182.37,148.82" id="Shape" fill="#011E41"></path>
            <path d="M180.29,152.51 C172.66,148.2 164.9,142.83 155.99,138.63 C147.42,134.63 137.84,129.97 126.49,129.95 C112.05,129.95 102.89,137.64 92.56,142.68 C98.74,133.48 105.56,124.86 114.15,117.42 C117.75,114.31 122.06,110.94 128.8,112.21 C134.55,113.3 139.5,116.82 144.04,119.92 C157.18,128.92 171.22,140.79 180.29,152.51" id="Shape" fill="#CE0E2D"></path>
            <path d="M307.36,140.17 C308,138.94 310.91,139.03 312.95,139.17 C316.89,139.49 321.02,141.53 322.79,143.6 C323.765421,144.742463 324.368968,146.15539 324.52,147.65 C324.64,154.92 311.52,153.54 310.25,147.65 C309.76,145.36 311.25,144.59 311.02,142.65 C310.79,140.71 308.75,140.65 307.36,140.14" id="Shape" fill="#CE0E2D"></path>
            <path d="M305.24,140.17 C305.34,142.53 302.38,143.11 301.96,146.17 C301.832008,147.150872 301.966588,148.148141 302.35,149.06 C304.94,156.2 318.35,156.69 324.52,161.78 C329.41,165.85 329.52,173.91 325.52,179.14 C322.98,182.44 318.65,185.02 314.15,186.85 C312.9,187.36 311.15,188.68 309.9,187.62 C310.05,186.27 311.75,186.24 312.6,185.31 C315.6,182.05 313.71,177.21 311.06,174.7 C304.78,168.78 288.9,167.07 289.06,154.65 C289.18,146.53 296.91,141.75 303.91,140.19 C304.27,140.11 304.8,139.81 305.26,140.19" id="Shape" fill="#CE0E2D"></path>
            <path d="M262.82,201.49 C263.04,199.88 264.46,198.9 265.32,197.43 C267.789452,193.025118 269.608309,188.285984 270.72,183.36 C272.41,176.44 274.47,160.87 267.06,159.26 C265.06,158.83 263.79,160.05 262.24,160.26 C264.79,154.4 272.14,144.61 281.52,149.08 C285.93,151.18 288.39,157.08 288.65,163.73 C289.02,173.16 284.85,180.73 280.17,187.07 C275.17,193.77 269.84,198.67 262.82,201.53" id="Shape" fill="#CE0E2D"></path>
            <path d="M240.45,150.39 C240.61,150.39 240.63,150.46 240.64,150.58 C240.85,161.92 241.03,170.46 241.03,179.89 C241.03,190.83 241.17,201.13 241.03,207.46 C236.163527,209.31145 231.144387,210.733539 226.03,211.71 C226.14,191.57 225.56,172.65 225.64,154.63 C230.64,153.29 235.64,151.86 240.49,150.39" id="Shape" fill="#CE0E2D"></path>
            <path d="M261.28,224.63 C256.28,225.73 251.91,227.48 246.81,228.48 C246.53,207.93 246.24,182.11 246.23,159.26 C250.69,157.83 255.03,156.59 259.54,155.26 C261.4,154.69 261.04,156.26 261.08,158.54 C261.4,175.54 261.28,192.75 261.28,207.9 C261.28,214.24 261.42,220.28 261.28,224.68" id="Shape" fill="#CE0E2D"></path>
            <path d="M214.23,158.1 L214.61,158.1 C214.85,165.25 214.61,170.8 214.61,181.82 C214.61,186.22 214.49,190.37 214.42,193.39 C214.32,197.18 214.11,202.73 216.93,203.61 C220.8,204.82 222.01,200.51 224.06,198.79 C223.98,204.16 220.85,210.2 217.12,213.79 C213.39,217.38 204.95,221.08 200.92,215.14 C199.01,212.32 198.92,208.23 198.99,203.14 C199.08,194.27 199.49,175.53 199.38,166.51 C199.38,164.9 199.05,164 199.38,162.84 C201.14,161.34 203.88,161.02 206.32,160.34 C209.02,159.57 211.69,158.84 214.23,158.02" id="Shape" fill="#CE0E2D"></path>
            <path d="M119.74,173.91 C120.51,185.39 119.93,193.79 119.93,206.11 C119.93,219.99 119.81,229.88 119.74,242.37 C115.03,243.82 109.74,245.69 104.89,246.37 C104.89,232.99 105.28,222.15 105.28,209.93 C105.28,195.68 105.43,190.14 105.48,177.73 C110.3,176.51 114.67,174.84 119.74,173.87" id="Shape" fill="#CE0E2D"></path>
            <path d="M307.55,188.38 C306.95,189.57 304.18,189.48 302.15,189.38 C296.8,189 290.15,186.12 289.42,181.09 C287.99,171.46 303.22,172.92 304.08,179.74 C304.3,181.48 303.08,182.79 303.08,184.17 C303.22,186.71 305.53,186.94 307.52,188.42" id="Shape" fill="#CE0E2D"></path>
            <path d="M165.83,211.71 C165.54,210.16 166.93,209.51 167.56,208.24 C171.45,200.33 172.28,187.87 167.37,180.47 C176.25,176.13 184.7,181.41 184.37,191.08 C184.123108,195.6921 182.366172,200.09498 179.37,203.61 C175.77,207.61 170.46,210.9 165.87,211.71" id="Shape" fill="#CE0E2D"></path>
            <path d="M181.25,210.16 C181.35,215.64 178.81,219.53 176.05,223.08 C172.92,227.08 167.96,231.33 161.2,230.99 C149.84,230.42 146.96,216.99 149.44,205.15 C151.042308,198.287574 154.207906,191.887933 158.69,186.45 C160.42598,184.53982 162.450531,182.91343 164.69,181.63 C167.07,180.33 165.59,182.77 165.07,184.13 C162.2,191.76 158.57,211.23 167,215.75 C172.08,218.48 178.16,214.9 181.27,210.16" id="Shape" fill="#CE0E2D"></path>
            <path d="M53.8,261.26 C50.18,262.34 46.67,263.52 42.8,264.35 C36.97,240.41 31.8,215.86 26.02,191.85 C31.13,190.11 37.61,188.61 42.8,187.03 C44.8,186.41 44.41,187.82 44.91,190.11 C48.56,206.5 52.36,222 56.1,238.51 C56.68,241.05 57.61,243.93 57.64,246.03 C57.72,250.68 54.3,257.09 53.79,261.26" id="Shape" fill="#CE0E2D"></path>
            <path d="M122.44,209.78 C122.76,206.78 124.44,203.31 126.11,200.14 C127.50525,197.191046 129.324523,194.462136 131.51,192.04 C133.56,189.98 138.16,186.6 142.51,188.38 C145.06,189.38 146.05,192.62 145.6,195.7 C144.94,200.21 140.6,205.7 135.19,205.15 C133.42,204.97 132.19,203.84 130.75,203.8 C126.2,203.66 125.11,207.96 122.46,209.8" id="Shape" fill="#CE0E2D"></path>
            <path d="M17.35,194.35 C18.6,195.9 18.58,198.35 19.09,200.52 C21.31,210.15 23.85,220.91 26.22,231.95 C26.92,235.2 27.7,242.25 31.22,242.37 C33.33,242.43 33.87,240.32 35.09,239.86 C35.45,242.19 34.57,244.65 33.92,246.99 C32.04,253.86 29.92,261.37 28.15,268.39 C24.58,269.91 20.37,270.78 16.38,271.87 C10.74,247.85 5,223.08 0,199.56 C5.49,197.56 11.62,196.14 17.35,194.35" id="Shape" fill="#CE0E2D"></path>
            <path d="M100.07,248 C95.3293345,249.605102 90.5016125,250.940571 85.61,252 C85.73,244.65 85.74,237.69 85.81,230 C85.81,223.52 86.68,216.2 86,209.37 C85.9610832,208.443633 85.7649555,207.530625 85.42,206.67 C84.83,205.67 83.42,205.84 82.53,204.94 C87.76,201.69 96.03,203.18 98.73,207.44 C101.43,211.7 100.27,219.44 100.27,226.92 C100.27,234.98 100.21,242.22 100.07,247.92" id="Shape" fill="#CE0E2D"></path>
            <path d="M147.5,218.65 C148.67,220.33 147.76,222.65 147.31,224.65 C145.95,230.65 142.79,237.65 136.71,238.53 C128.44,239.74 127.82,232.3 127.27,225.61 C126.95,221.88 126.64,217.32 124.95,215.78 C123.95,214.91 122.84,215.44 121.67,214.78 C121.78,213.21 123.45,212.56 124.56,211.89 C126.95,210.45 130.28,208.06 134.78,208.8 C136.755467,209.226236 138.446455,210.493564 139.41,212.27 C140.83,215.04 140.69,221.5 143.27,222.11 C146.27,222.82 146.35,219.52 147.5,218.64" id="Shape" fill="#CE0E2D"></path>
            <path d="M59.2,240.63 C58.31,238.45 59.01,235.84 59.2,233.5 C60.64,215.44 57.63,197.39 51.67,184.5 C59.54,182.14 67.55,179.94 75.39,177.56 C70.55,198.36 64.39,219.5 59.2,240.56" id="Shape" fill="#CE0E2D"></path>
            <path d="M84.07,224.05 C84.33,225.46 82.8,226.47 81.76,227.71 C79.11,230.85 75.09,235.65 75.76,241.79 C76.03,244.2 77.41,246.79 80.39,246.79 C82.08,246.79 82.64,245.72 84.05,245.79 C84.05,248.41 82.25,250.79 80.39,252.54 C76.49,256.17 69.07,259.16 64,254.67 C62.294407,252.968538 61.2670249,250.704031 61.11,248.3 C59.99,235.4 73.57,228.22 82.7,224.2 C83.1250896,224.017716 83.5911105,223.952127 84.05,224.01" id="Shape" fill="#CE0E2D"></path>
            <path d="M81,205.73 C80.76,207.46 78.46,207.59 78.69,210.16 C78.9,212.51 81.07,212.28 81.39,214.41 C82.31,220.46 74.76,227.31 69.82,223.47 C65.82,220.32 69.65,213.73 72.33,210.94 C74.4124983,208.744593 76.9020344,206.975086 79.66,205.73 C79.88,205.63 80.66,205.29 81,205.73" id="Shape" fill="#CE0E2D"></path>
        </g>
    </g>
</svg>