<?xml version="1.0" encoding="utf-8"?>
<!-- Generator: Adobe Illustrator 18.0.0, SVG Export Plug-In . SVG Version: 6.00 Build 0)  -->
<!DOCTYPE svg PUBLIC "-//W3C//DTD SVG 1.1//EN" "http://www.w3.org/Graphics/SVG/1.1/DTD/svg11.dtd">
<svg version="1.1" id="Layer_1" xmlns="http://www.w3.org/2000/svg" xmlns:xlink="http://www.w3.org/1999/xlink" x="0px" y="0px"
	 viewBox="0 0 177.5 75.3" enable-background="new 0 0 177.5 75.3" xml:space="preserve">
<g>
	<polygon fill="#898989" points="162.2,20.8 162.2,28.2 149.6,28.2 149.6,12.1 141.2,12.1 141.2,4.3 129.7,4.3 129.7,10.8 122,10.8 
		122,23.4 119.4,26 119.4,2.4 108.7,2.4 108.7,7.1 103.4,7.1 103.4,22.4 99.3,22.4 99.3,7.1 83.7,7.1 83.7,14.6 81.6,16.6 81.6,26 
		78.7,26 78.7,11.6 69.8,11.6 69.8,24.4 67.6,24.4 67.6,21.7 63,21.7 63,0 50.6,0 50.6,23.9 44.7,23.9 44.7,19.8 40.6,19.8 40.6,5 
		30.4,15.1 30.4,26 28.2,26 28.2,9.6 15.8,9.6 5.5,12.3 5.5,32.8 0,38.3 0,75.3 177.5,75.3 177.5,20.8 	"/>
</g>
</svg>
