<?xml version="1.0" encoding="utf-8"?>
<!-- Generator: Adobe Illustrator 16.0.0, SVG Export Plug-In . SVG Version: 6.00 Build 0)  -->
<!DOCTYPE svg PUBLIC "-//W3C//DTD SVG 1.1//EN" "http://www.w3.org/Graphics/SVG/1.1/DTD/svg11.dtd">
<svg version="1.1" id="Layer_1" xmlns="http://www.w3.org/2000/svg" xmlns:xlink="http://www.w3.org/1999/xlink" x="0px" y="0px"
	 width="344.737px" height="197px" viewBox="-1.487 -15.5 344.737 197" enable-background="new -1.487 -15.5 344.737 197"
	 xml:space="preserve">
<g id="BNackground" display="none">
</g>
<g id="Layer_1_1_">
	<g>
		<polygon fill="#007EE5" points="28.888,29.017 -0.743,48.363 19.746,64.769 49.621,46.322 		"/>
		<polygon fill="#007EE5" points="-0.743,81.176 28.888,100.521 49.621,83.216 19.746,64.769 		"/>
		<polygon fill="#007EE5" points="49.621,83.216 70.354,100.521 99.982,81.176 79.496,64.769 		"/>
		<polygon fill="#007EE5" points="99.982,48.363 70.354,29.017 49.621,46.322 79.496,64.769 		"/>
		<polygon fill="#007EE5" points="49.681,86.939 28.888,104.194 19.991,98.385 19.991,104.896 49.681,122.703 79.373,104.896 
			79.373,98.385 70.476,104.194 		"/>
	</g>
</g>
<g id="Layer_2">
	<g>
		<path fill="#007EE5" d="M115.068,100.487h13.698c3.991,0,9.628,0,14.248-3.595c5.637-4.295,8.532-13.045,8.532-22.813
			c0-25.625-16.205-25.704-24.189-25.704h-12.289V100.487z M126.498,57.361h1.955c4.619,0,10.961,0.547,10.961,16.562
			c0,17.032-6.418,17.58-10.961,17.58h-1.955V57.361z"/>
		<path fill="#007EE5" d="M155.483,61.97v38.517h10.724v-16.64c0-2.972,0-11.876,7.904-11.876c0.393,0,0.861,0,1.799,0.156V61.658
			c-0.546-0.156-1.092-0.235-1.878-0.235c-6.261,0-8.14,6.564-9.079,9.845v-9.297L155.483,61.97L155.483,61.97z"/>
		<path fill="#007EE5" d="M193.104,61.11c-11.506,0-15.731,8.048-15.731,20.079c0,12.423,4.537,20.078,15.654,20.078
			c11.271,0,15.734-7.732,15.734-20.078C208.762,69.158,204.535,61.11,193.104,61.11z M193.104,68.611
			c3.29,0,4.541,2.656,4.541,12.578c0,10.312-1.409,12.58-4.541,12.58c-3.209,0-4.617-2.344-4.617-12.58
			c0-9.452,1.097-12.578,4.54-12.578H193.104z"/>
		<path fill="#007EE5" d="M211.942,61.97v51.565h10.567V97.676c1.175,1.25,3.132,3.357,7.359,3.357
			c12.287,0,13.071-14.844,13.071-20.312c0-6.482-1.252-12.5-5.011-16.329c-1.877-1.875-4.774-2.97-7.357-2.97
			c-5.244,0-7.357,3.828-8.689,6.329V61.97H211.942z M222.511,77.439c0-3.438,0-8.905,4.853-8.905c4.149,0,4.463,5.39,4.463,12.187
			c0,8.127-0.391,12.893-4.774,12.893c-4.539,0-4.539-3.282-4.539-8.829L222.511,77.439L222.511,77.439z"/>
		<path fill="#007EE5" d="M246.135,48.375v52.112h6.342c0.859-2.734,1.253-3.515,2.036-5c0.938,1.952,2.739,5.78,8.925,5.78
			c2.035,0,4.148-0.391,6.262-1.482c7.046-3.672,7.518-15.234,7.518-18.83c0-9.296-2.977-19.533-12.449-19.533
			c-4.617,0-6.729,2.501-8.062,4.143v-17.19H246.135L246.135,48.375z M256.703,75.564c0-1.952,0-3.905,1.256-5.393
			c0.781-1.015,2.033-1.639,3.442-1.639c3.053,0,4.696,2.578,4.696,12.732c0,9.924-1.485,12.578-4.854,12.578
			c-4.54,0-4.54-4.998-4.54-9.375V75.564L256.703,75.564z"/>
		<path fill="#007EE5" d="M295.644,61.11c-11.509,0-15.736,8.048-15.736,20.079c0,12.423,4.542,20.078,15.657,20.078
			c11.272,0,15.734-7.732,15.734-20.078C311.299,69.158,307.07,61.11,295.644,61.11z M295.644,68.611
			c3.285,0,4.539,2.656,4.539,12.578c0,10.312-1.408,12.58-4.539,12.58c-3.211,0-4.622-2.344-4.622-12.58
			c0-9.452,1.098-12.578,4.543-12.578H295.644z"/>
		<path fill="#007EE5" d="M310.882,61.97l9.941,18.831l-11.429,19.688h9.312l6.498-11.562l5.638,11.562h11.664l-11.508-21.563
			l9.94-16.955h-9.312l-4.934,8.906l-4.147-8.906L310.882,61.97L310.882,61.97z"/>
	</g>
	<g display="none">
		
			<line display="inline" fill="none" stroke="#377ABC" stroke-width="0.25" stroke-miterlimit="10" x1="7.719" y1="57.336" x2="354.559" y2="57.336"/>
		
			<line display="inline" fill="none" stroke="#377ABC" stroke-width="0.25" stroke-miterlimit="10" x1="7.719" y1="109.457" x2="354.559" y2="109.457"/>
	</g>
</g>
</svg>
