<?xml version="1.0" encoding="utf-8"?>
<!-- Generator: Adobe Illustrator 18.0.0, SVG Export Plug-In . SVG Version: 6.00 Build 0)  -->
<!DOCTYPE svg PUBLIC "-//W3C//DTD SVG 1.1//EN" "http://www.w3.org/Graphics/SVG/1.1/DTD/svg11.dtd">
<svg version="1.1" id="Layer_1" xmlns="http://www.w3.org/2000/svg" xmlns:xlink="http://www.w3.org/1999/xlink" x="0px" y="0px"
	 viewBox="0 0 120 130" enable-background="new 0 0 120 130" xml:space="preserve">
<g id="Layer_1_1_">
	<g>
		<polygon fill="#397ABE" points="12.7,49.4 2.9,55.8 9.7,61.3 19.6,55.2 		"/>
		<polygon fill="#397ABE" points="2.9,66.8 12.7,73.2 19.6,67.4 9.7,61.3 		"/>
		<polygon fill="#397ABE" points="19.6,67.4 26.5,73.2 36.4,66.8 29.6,61.3 		"/>
		<polygon fill="#397ABE" points="36.4,55.8 26.5,49.4 19.6,55.2 29.6,61.3 		"/>
		<polygon fill="#397ABE" points="19.7,68.7 12.7,74.4 9.8,72.5 9.8,74.7 19.7,80.6 29.5,74.7 29.5,72.5 26.6,74.4 		"/>
	</g>
</g>
<g id="Layer_2">
	<g>
		<path fill="#397ABE" d="M41.4,73.2H46c1.3,0,3.2,0,4.7-1.2c1.9-1.4,2.8-4.3,2.8-7.6c0-8.5-5.4-8.6-8.1-8.6h-4.1
			C41.4,55.8,41.4,73.2,41.4,73.2z M45.2,58.8h0.7c1.5,0,3.6,0.2,3.6,5.5c0,5.7-2.1,5.9-3.6,5.9h-0.7V58.8z"/>
		<path fill="#397ABE" d="M54.9,60.4v12.8h3.6v-5.5c0-1,0-4,2.6-4c0.1,0,0.3,0,0.6,0.1v-3.5c-0.2-0.1-0.4-0.1-0.6-0.1
			c-2.1,0-2.7,2.2-3,3.3v-3.1L54.9,60.4L54.9,60.4z"/>
		<path fill="#397ABE" d="M67.4,60.1c-3.8,0-5.2,2.7-5.2,6.7c0,4.1,1.5,6.7,5.2,6.7c3.8,0,5.2-2.6,5.2-6.7
			C72.6,62.8,71.2,60.1,67.4,60.1z M67.4,62.6c1.1,0,1.5,0.9,1.5,4.2c0,3.4-0.5,4.2-1.5,4.2c-1.1,0-1.5-0.8-1.5-4.2
			C65.9,63.6,66.2,62.6,67.4,62.6L67.4,62.6z"/>
		<path fill="#397ABE" d="M73.7,60.4v17.2h3.5v-5.3c0.4,0.4,1,1.1,2.4,1.1c4.1,0,4.4-4.9,4.4-6.8c0-2.2-0.4-4.2-1.7-5.4
			c-0.6-0.6-1.6-1-2.4-1c-1.7,0-2.4,1.3-2.9,2.1v-1.9H73.7z M77.2,65.5c0-1.1,0-3,1.6-3c1.4,0,1.5,1.8,1.5,4.1
			c0,2.7-0.1,4.3-1.6,4.3c-1.5,0-1.5-1.1-1.5-2.9L77.2,65.5L77.2,65.5z"/>
		<path fill="#397ABE" d="M85.1,55.8v17.3h2.1c0.3-0.9,0.4-1.2,0.7-1.7c0.3,0.6,0.9,1.9,3,1.9c0.7,0,1.4-0.1,2.1-0.5
			c2.3-1.2,2.5-5.1,2.5-6.3c0-3.1-1-6.5-4.1-6.5c-1.5,0-2.2,0.8-2.7,1.4v-5.7H85.1L85.1,55.8z M88.6,64.9c0-0.6,0-1.3,0.4-1.8
			c0.3-0.3,0.7-0.5,1.1-0.5c1,0,1.6,0.9,1.6,4.2c0,3.3-0.5,4.2-1.6,4.2c-1.5,0-1.5-1.7-1.5-3.1V64.9L88.6,64.9z"/>
		<path fill="#397ABE" d="M101.5,60.1c-3.8,0-5.2,2.7-5.2,6.7c0,4.1,1.5,6.7,5.2,6.7c3.8,0,5.2-2.6,5.2-6.7
			C106.7,62.8,105.3,60.1,101.5,60.1z M101.5,62.6c1.1,0,1.5,0.9,1.5,4.2c0,3.4-0.5,4.2-1.5,4.2c-1.1,0-1.5-0.8-1.5-4.2
			C100,63.6,100.4,62.6,101.5,62.6L101.5,62.6z"/>
		<path fill="#397ABE" d="M106.6,60.4l3.3,6.3l-3.8,6.6h3.1l2.2-3.8l1.9,3.8h3.9l-3.8-7.2l3.3-5.6h-3.1l-1.6,3l-1.4-3L106.6,60.4
			L106.6,60.4z"/>
	</g>
	<g display="none">
		
			<line display="inline" fill="none" stroke="#397BBC" stroke-width="0.25" stroke-miterlimit="10" x1="3.7" y1="55.6" x2="119.1" y2="55.6"/>
		
			<line display="inline" fill="none" stroke="#397BBC" stroke-width="0.25" stroke-miterlimit="10" x1="3.7" y1="72.9" x2="119.1" y2="72.9"/>
	</g>
</g>
</svg>
