<?xml version="1.0" encoding="utf-8"?>
<!-- Generator: Adobe Illustrator 18.0.0, SVG Export Plug-In . SVG Version: 6.00 Build 0)  -->
<!DOCTYPE svg PUBLIC "-//W3C//DTD SVG 1.1//EN" "http://www.w3.org/Graphics/SVG/1.1/DTD/svg11.dtd">
<svg version="1.1" id="Layer_1" xmlns="http://www.w3.org/2000/svg" xmlns:xlink="http://www.w3.org/1999/xlink" x="0px" y="0px"
	 viewBox="0 0 120 130" enable-background="new 0 0 120 130" xml:space="preserve">
<g id="Facebook">
	<g id="Facebook_1_">
		<rect x="0.9" y="43" fill="#3866A4" width="118.2" height="44"/>
		<g>
			<path fill="#FFFFFF" d="M50.3,61.4c-4.4,0-5.6,2.3-5.6,5.2v2.6c0,3.3,1.8,5.5,6,5.5c2,0,2.9-0.1,5-0.5v-3.3
				c-2.1,0.4-3,0.5-4.6,0.5c-1.8,0-2.3-0.4-2.3-1.9v-0.3H56v-2.7C55.9,63.7,54.7,61.4,50.3,61.4 M51.9,66.6h-3.3V66
				c0-0.9,0.3-1.6,1.6-1.6c1.4,0,1.6,0.7,1.6,1.6L51.9,66.6L51.9,66.6z M75.8,61.4c-4.7,0-5.8,2.6-5.8,5.4v2.6
				c0,2.7,1.2,5.4,5.8,5.4c4.7,0,5.7-2.6,5.7-5.4v-2.6C81.6,64.1,80.5,61.4,75.8,61.4 M77.6,69.8c0,0.9-0.5,1.6-1.8,1.6
				c-1.4,0-1.8-0.7-1.8-1.6v-3.4c0-0.9,0.5-1.6,1.8-1.6c1.4,0,1.8,0.7,1.8,1.6V69.8z M88.6,61.4c-4.7,0-5.8,2.6-5.8,5.4v2.6
				c0,2.7,1.2,5.4,5.8,5.4c4.7,0,5.7-2.6,5.7-5.4v-2.6C94.3,64.1,93.3,61.4,88.6,61.4 M90.4,69.8c0,0.9-0.5,1.6-1.8,1.6
				c-1.4,0-1.8-0.7-1.8-1.6v-3.4c0-0.9,0.5-1.6,1.8-1.6c1.4,0,1.8,0.7,1.8,1.6V69.8z M33.5,66.9v2.3c0,3.3,1.8,5.5,6,5.5
				c1,0,2.2-0.1,4-0.5v-3.3c-2.1,0.4-2.7,0.5-3.7,0.5c-1.8,0-2.3-0.4-2.3-1.9v-2.9c0-1.5,0.5-1.9,2.3-1.9c1,0,1.6,0.1,3.7,0.5v-3.3
				c-1.8-0.5-2.9-0.5-4-0.5C35.2,61.4,33.5,63.6,33.5,66.9 M21.6,61.6h-3V60c0-0.8,0.1-1.3,1.3-1.3h1.6v-3.3h-2.6
				c-3.2,0-4.3,1.6-4.3,4.3v2h-2V65h2v9.7h4v-9.7h2.7L21.6,61.6z M26.5,61.6h-3.7l-0.3,3.3h3.4c2.1,0,2.2,0.5,2.2,1.8v0.6h-2.7
				c-2.7,0-4.2,0.9-4.2,3.6c0,2.2,1.3,3.9,3.7,3.9c0.8,0,2.2-0.1,3.7-1l0.1,0.8h3.3v-8C32.2,63,31.2,61.6,26.5,61.6 M28.1,71.3
				c-0.6,0.3-1.1,0.5-1.9,0.5c-0.8,0-1.1-0.4-1.1-1.1c0-0.7,0.4-0.8,1.2-0.8h1.8L28.1,71.3L28.1,71.3z M64.2,61.4
				c-1,0-2.2,0.1-2.9,0.5v-6.3l-4,0.7v18c2.2,0.4,3.3,0.5,5.3,0.5c5.4,0,6.3-2.3,6.3-5.4v-3.3C68.8,63.2,68.1,61.4,64.2,61.4
				 M64.9,69.3c0,1.2-0.3,2.2-2.2,2.2c-0.5,0-0.8,0-1.4-0.1v-6.1c0.6-0.3,1.2-0.5,2-0.5c1.4,0,1.6,0.7,1.6,1.6V69.3z M107.4,61.6
				h-4.3l-3.7,5.7V55.6l-4,0.7v18.2h4v-6.1l3.7,6.1h4.3l-4-6.7L107.4,61.6z"/>
		</g>
	</g>
</g>
<g id="Capco">
</g>
</svg>
