<?xml version="1.0" encoding="utf-8"?>
<!-- Generator: Adobe Illustrator 18.0.0, SVG Export Plug-In . SVG Version: 6.00 Build 0)  -->
<!DOCTYPE svg PUBLIC "-//W3C//DTD SVG 1.1//EN" "http://www.w3.org/Graphics/SVG/1.1/DTD/svg11.dtd">
<svg version="1.1" id="Layer_1" xmlns="http://www.w3.org/2000/svg" xmlns:xlink="http://www.w3.org/1999/xlink" x="0px" y="0px"
	 viewBox="0 0 310 150" enable-background="new 0 0 310 150" xml:space="preserve">
<path id="path2998" fill="#557EBF" d="M77.5,60.3H41.9v10.6h25.2C65.9,85.7,53.6,92,41.9,92c-14.9,0-27.9-11.7-27.9-28.1
	c0-16,12.4-28.3,27.9-28.3c12,0,19,7.6,19,7.6l7.4-7.7c0,0-9.5-10.6-26.8-10.6c-22,0-39.1,18.6-39.1,38.7c0,19.7,16,38.9,39.7,38.9
	c20.8,0,36-14.2,36-35.3C78.1,62.9,77.5,60.3,77.5,60.3L77.5,60.3z"/>
<path id="path3000" fill="#EA4535" d="M106.6,52.7c-14.6,0-25.1,11.4-25.1,24.7c0,13.5,10.2,25.1,25.2,25.1
	c13.7,0,24.9-10.4,24.9-24.9C131.7,61.2,118.6,52.7,106.6,52.7L106.6,52.7z M106.8,62.5c7.2,0,14,5.8,14,15.2
	c0,9.2-6.8,15.1-14,15.1c-8,0-14.2-6.4-14.2-15.2C92.5,68.9,98.7,62.5,106.8,62.5L106.8,62.5z"/>
<path id="path3005" fill="#F9BC15" d="M161.2,52.7c-14.6,0-25.1,11.4-25.1,24.7c0,13.5,10.2,25.1,25.2,25.1
	c13.7,0,24.9-10.4,24.9-24.9C186.2,61.2,173.2,52.7,161.2,52.7L161.2,52.7z M161.3,62.5c7.2,0,14,5.8,14,15.2
	c0,9.2-6.8,15.1-14,15.1c-8,0-14.2-6.4-14.2-15.2C147,68.9,153.2,62.5,161.3,62.5L161.3,62.5z"/>
<path id="path3007" fill="#557EBF" d="M214.6,52.7c-13.4,0-23.9,11.7-23.9,24.9c0,15,12.2,25,23.7,25c7.1,0,10.9-2.8,13.7-6.1v4.9
	c0,8.6-5.2,13.8-13.1,13.8c-7.6,0-11.4-5.7-12.8-8.9l-9.6,4c3.4,7.2,10.2,14.7,22.4,14.7c13.3,0,23.5-8.4,23.5-26V54.2h-10.5v4.2
	C224.9,55,220.5,52.7,214.6,52.7L214.6,52.7z M215.6,62.5c6.6,0,13.3,5.6,13.3,15.2c0,9.7-6.7,15.1-13.5,15.1
	c-7.1,0-13.8-5.8-13.8-15C201.7,68.2,208.6,62.5,215.6,62.5L215.6,62.5z"/>
<path id="path3011" fill="#EA4535" d="M285,52.6c-12.6,0-23.3,10.1-23.3,24.9c0,15.7,11.8,25,24.5,25c10.6,0,17-5.8,20.9-10.9
	l-8.6-5.7c-2.2,3.5-6,6.9-12.2,6.9c-7,0-10.2-3.8-12.2-7.6l33.4-13.9l-1.7-4.1C302.5,59.3,295,52.6,285,52.6L285,52.6z M285.5,62.2
	c4.6,0,7.8,2.4,9.2,5.3l-22.3,9.3C271.4,69.7,278.2,62.2,285.5,62.2L285.5,62.2z"/>
<path id="path3015" fill="#36A852" d="M245.8,101.1h11V27.6h-11V101.1z"/>
</svg>
