<?xml version="1.0" encoding="utf-8"?>
<!-- Generator: Adobe Illustrator 19.2.0, SVG Export Plug-In . SVG Version: 6.00 Build 0)  -->
<svg version="1.1" id="Layer_1" xmlns="http://www.w3.org/2000/svg" xmlns:xlink="http://www.w3.org/1999/xlink" x="0px" y="0px"
	 viewBox="0 0 572.2 216.3" style="enable-background:new 0 0 572.2 216.3;" xml:space="preserve">
<style type="text/css">
	.st0{fill:#1B4A45;}
	.st1{fill:#153E39;}
	.st2{fill:#2C887D;}
	.st3{fill:#47A97D;}
	.st4{fill:#288279;}
	.st5{fill:#724036;}
</style>
<polygon class="st0" points="462,86.6 439.2,2.9 434.3,22.3 429.4,9.4 425.7,20.5 417.5,0 411.7,23.9 403.8,12 376.2,86.6 "/>
<path class="st1" d="M421.7,86.1L410.2,36c0,0-3.1,19.3-3.1,18.7c0-0.4-5.8-21-8.6-30.6c-0.8-3-1.4-4.9-1.4-4.9l-2,5.7l-10,28.1
	l-9.5-10.4l-6.1,16.8l-6.5-6.2l-8.6,37.6V91L421.7,86.1z"/>
<polygon class="st2" points="467.2,92.4 452.8,46.6 451.8,48.8 447,59.9 437.4,36.6 429.5,64.4 425.1,53.7 418.6,70.7 418.5,70.9 
	410.2,56.2 406.1,70.9 399.6,56.7 392.6,76 387.3,53.7 379.8,82.8 376.4,73.2 372,91.3 367.5,73.4 362.8,99.6 361.5,106.5 
	450.4,106.5 "/>
<path class="st3" d="M572.2,118.4c0,0-42.5-36.1-149.9-36.1C277.7,82.2,0,195.6,0,195.6l0,84.8v33.5h572.2V118.4z"/>
<path class="st4" d="M440.6,91.8c0,0-1.5-5.1-6.9-5.2c-5.4-0.1-6,7.1-6,7.1s-2-2.7-4.4-1.5c-2.4,1.3-3.7,5-3.7,5s-3.6-2.5-6.2,2.1
	h42.2c0,0-3.3-5.5-8.5-3C447.2,96.5,446.2,91.5,440.6,91.8z"/>
<path class="st4" d="M327.4,116.5c0,0-1.3-4-5.6-4.3c-4.4-0.1-4.8,5.7-4.8,5.7s-1.7-2.3-3.6-1.2c-1.9,1.1-3,4-3,4s-2.9-2-5,1.8h34.1
	c0,0-2.7-4.4-6.8-2.4C332.7,120.2,331.9,116.2,327.4,116.5z"/>
<path class="st4" d="M-592.2,80.8c0,0,70.2-37.9,125.9-38.1C-311.6,42.4-20,217.1-20,217.1v66.5h-572.2V80.8z"/>
<path class="st3" d="M-386.1,59.4c0,0-2.5-8.1-10.9-8.3c-8.5-0.2-9.3,11.3-9.3,11.3s-3.2-4.4-6.9-2.5s-5.8,7.8-5.8,7.8
	s-5.6-4.1-9.9,3.3h66.3c0,0-5.3-8.6-13.4-4.6C-375.9,66.6-377.5,58.9-386.1,59.4z"/>
<path class="st3" d="M-475.5,95.2c0,0-1.9-6.5-8.8-6.7c-6.9-0.2-7.6,9.2-7.6,9.2s-2.6-3.5-5.6-1.9c-3,1.6-4.6,6.3-4.6,6.3
	s-4.6-3.2-7.9,2.8h53.8c0,0-4.2-7.1-10.8-3.7C-467.2,101-468.5,94.7-475.5,95.2z"/>
<path class="st5" d="M-450.5,83.7c-0.5,0.2-0.9-1.1-1.9-0.9c0,0-1.1-1.6-1.1,0.2c-0.5,0.2-1.6,0.9-2.6,0.9s-3.9-1.6-6.2-0.4
	c-0.4,0.2-0.5,0,0-0.5c1.2-1.2,2.8-1.6,2.6-4.6c-0.4-3.5-3.9-4.2-5.5-4.1c-1.6,0.2-4.2,0.9-4.1,3.2c0.2,2.1,1.4,2.3,1.4,2.3
	s-0.2-1.9,1.2-2.1c1.4-0.2,1.6,0.9,1.6,1.2c-0.2,1.9-2.1,4.2-1.8,6.2c0,0,0.2,1.6,1.4,2.8c0.5,0.4,0.7,2.6,0.7,2.8
	c0.2,0.9,0.5,1.2,1.4,1.2c0.9,0,1.8-0.2,1.8-0.4c0-0.4-1.4-0.4-1.8-0.7c-0.4-0.2-0.2-0.4,0.2-0.5c0.4-0.2,0.7-0.7,1.1-1.1
	c0.7,0.2,2.8,0.5,4.9-0.5c0.4,0.5,1.8,2.1,1.9,2.3c0.4,0.2,1.9,0,1.8-0.4c-0.2-0.5-0.7-0.2-1.1-0.9c-0.4-0.7-1.1-2.1,1.2-4.1
	c0.5-0.4,1.1-0.5,1.2-0.5c0.5-0.2,0.9-0.2,1.2-0.7C-450.3,84.1-449.9,83.6-450.5,83.7z"/>
</svg>
