<?xml version="1.0" encoding="utf-8"?>
<!-- Generator: Adobe Illustrator 18.0.0, SVG Export Plug-In . SVG Version: 6.00 Build 0)  -->
<!DOCTYPE svg PUBLIC "-//W3C//DTD SVG 1.1//EN" "http://www.w3.org/Graphics/SVG/1.1/DTD/svg11.dtd">
<svg version="1.1" id="Layer_1" xmlns="http://www.w3.org/2000/svg" xmlns:xlink="http://www.w3.org/1999/xlink" x="0px" y="0px"
	 viewBox="0 0 120 130" enable-background="new 0 0 120 130" xml:space="preserve">
<g id="Layer_2">
	<g display="none">
		
			<line display="inline" fill="none" stroke="#397BBC" stroke-width="0.25" stroke-miterlimit="10" x1="3.7" y1="55.6" x2="119.1" y2="55.6"/>
		
			<line display="inline" fill="none" stroke="#397BBC" stroke-width="0.25" stroke-miterlimit="10" x1="3.7" y1="72.9" x2="119.1" y2="72.9"/>
	</g>
</g>
<g id="Kik_1_">
	<g id="Kik_3_">
		<g>
			<path fill="#43B4E4" d="M98.9,64.5c2.8,0,4.3,2.3,4.3,5c0,2.7-1.6,5-4.3,5c-2.8,0-5-2.3-5-5C93.8,66.8,96.1,64.5,98.9,64.5z"/>
			<path fill="#83BC41" d="M58.5,82.4h-9V59.7h9V82.4z"/>
			<path fill="#83BC41" d="M54,77.8c2.5,0,4.5,2.1,4.5,4.5c0,2.6-2,4.5-4.5,4.5c-2.6,0-4.5-2.1-4.5-4.5C49.5,79.7,51.4,77.8,54,77.8
				z"/>
			<path fill="#83BC41" d="M54,55c2.5,0,4.5,2.1,4.5,4.5c0,2.6-2,4.5-4.5,4.5c-2.6,0-4.5-2.1-4.5-4.5C49.5,57.1,51.4,55,54,55z"/>
			<path fill="#83BC41" d="M21.3,77.8c2.5,0,4.4,2,4.4,4.5c0,2.6-2,4.5-4.4,4.5s-4.4-2-4.4-4.5C16.9,79.8,18.8,77.8,21.3,77.8z"/>
			<path fill="#83BC41" d="M21.3,43.2c2.5,0,4.4,2.1,4.4,4.5c0,2.6-2,4.5-4.4,4.5s-4.4-2.1-4.4-4.5C16.9,45.2,18.8,43.2,21.3,43.2z"
				/>
			<path fill="#83BC41" d="M16.8,47.9l9,0.1v16.7l8.4-8.2l6.7,6.3L35,68.5l8.2,11.1l-7.4,5.3l-7.8-10.5l-2.3,2.1v5.9l-9-0.3V47.9z"
				/>
			<path fill="#83BC41" d="M37.6,55c2.6,0,4.5,2,4.5,4.5c0,2.6-2,4.5-4.5,4.5c-2.6,0-4.5-2.1-4.5-4.5C33.1,57.1,35.1,55,37.6,55z"/>
			<path fill="#83BC41" d="M39.4,77.7c2.5,0,4.5,2.1,4.5,4.5c0,2.6-2,4.5-4.5,4.5c-2.5,0-4.5-2.1-4.5-4.5
				C34.9,79.7,37,77.7,39.4,77.7z"/>
			<path fill="#83BC41" d="M69.4,77.8c2.5,0,4.4,2,4.4,4.5c0,2.6-2,4.5-4.4,4.5s-4.4-2-4.4-4.5C65,79.8,66.9,77.8,69.4,77.8z"/>
			<path fill="#83BC41" d="M69.4,43.2c2.5,0,4.4,2.1,4.4,4.5c0,2.6-2,4.5-4.4,4.5S65,50.2,65,47.7C65,45.2,66.9,43.2,69.4,43.2z"/>
			<path fill="#83BC41" d="M64.9,47.9l9,0.1v16.7l8.4-8.2l6.7,6.3l-5.9,5.8l8.2,11.1L84,84.9l-7.8-10.5l-2.3,2.1v5.9l-9-0.3V47.9z"
				/>
			<path fill="#83BC41" d="M85.7,55c2.6,0,4.5,2,4.5,4.5c0,2.6-2,4.5-4.5,4.5s-4.5-2.1-4.5-4.5C81.1,57.1,83.2,55,85.7,55z"/>
			<path fill="#83BC41" d="M87.5,77.7c2.5,0,4.5,2.1,4.5,4.5c0,2.6-2,4.5-4.5,4.5c-2.5,0-4.5-2.1-4.5-4.5
				C83,79.7,85.1,77.7,87.5,77.7z"/>
		</g>
	</g>
</g>
<g id="Capco">
</g>
</svg>
