<?xml version="1.0" encoding="utf-8"?>
<!-- Generator: Adobe Illustrator 18.0.0, SVG Export Plug-In . SVG Version: 6.00 Build 0)  -->
<!DOCTYPE svg PUBLIC "-//W3C//DTD SVG 1.1//EN" "http://www.w3.org/Graphics/SVG/1.1/DTD/svg11.dtd">
<svg version="1.1" id="Layer_1" xmlns="http://www.w3.org/2000/svg" xmlns:xlink="http://www.w3.org/1999/xlink" x="0px" y="0px"
	 viewBox="0 0 120 130" enable-background="new 0 0 120 130" xml:space="preserve">
<g>
	<path fill="#010101" d="M12.3,72.5c-4.1,0-7.4-3.3-7.4-7.4c0-4.1,3.3-7.4,7.4-7.4c4.1,0,7.4,3.3,7.4,7.4
		C19.7,69.2,16.4,72.5,12.3,72.5L12.3,72.5z M12.3,56c-5,0-9.1,4.1-9.1,9.1v14.6h1.6v-9.4c1.6,2.4,4.4,3.9,7.4,3.9
		c5,0,9.1-4.1,9.1-9.1S17.3,56,12.3,56L12.3,56z"/>
	<path fill="#010101" d="M55.3,72.4c-4.4,0-7.4-3-7.4-7.4c0-4.1,3.3-7.4,7.4-7.4c4.1,0,7.4,3.3,7.4,7.4
		C62.7,69.1,59.4,72.4,55.3,72.4L55.3,72.4z M55.3,55.9c-3.1,0-5.8,1.5-7.4,3.9v-9.4h-1.6V65c0,5.3,3.7,9.1,9.1,9.1
		c5,0,9.1-4.1,9.1-9.1C64.3,60,60.3,55.9,55.3,55.9L55.3,55.9z"/>
	<path fill="#010101" d="M76.5,72.4c-4.5,0-7.4-3-7.4-7.4c0-4.1,3.3-7.4,7.4-7.4c4.1,0,7.4,3.3,7.4,7.4
		C83.9,69.1,80.6,72.4,76.5,72.4L76.5,72.4z M76.5,55.9c-3.1,0-5.8,1.5-7.4,3.9v-9.4h-1.6V65c0,5.3,3.7,9.1,9.1,9.1
		c5,0,9.1-4.1,9.1-9.1C85.5,60,81.5,55.9,76.5,55.9L76.5,55.9z"/>
	<path fill="#010101" d="M90.6,69.7V50.3H89v19.5c0,2.3,1.9,4.2,4.2,4.2v-1.6C91.8,72.3,90.6,71.1,90.6,69.7L90.6,69.7z"/>
	<path fill="#010101" d="M26,65.3c-0.1-1.7,0.3-3.4,1.4-4.9c1.2-1.7,2.9-2.8,4.9-3.1c0.4-0.1,0.9-0.1,1.3-0.1c3.4,0,6.4,2.2,7.3,5.5
		L26,65.3L26,65.3z M42.7,63.2c-0.9-5-5.7-8.4-10.7-7.5c-2.4,0.4-4.5,1.8-6,3.8c-1.4,2-2,4.5-1.5,6.9c0.4,2.4,1.8,4.5,3.8,6
		c1.6,1.1,3.4,1.7,5.3,1.7c0.5,0,1.1,0,1.6-0.1c4-0.7,7-3.9,7.6-7.9l-0.1,0L41,66.2c-0.6,3.1-3,5.5-6.1,6.1
		c-3.9,0.7-7.6-1.7-8.6-5.4L42.8,64L42.7,63.2L42.7,63.2z"/>
	<path fill="#010101" d="M96,65.3c-0.1-1.7,0.3-3.4,1.4-4.9c1.2-1.7,2.9-2.8,4.9-3.1c0.4-0.1,0.9-0.1,1.3-0.1c3.4,0,6.4,2.2,7.3,5.5
		L96,65.3L96,65.3z M112.7,63.2c-0.9-5-5.7-8.4-10.7-7.5c-2.4,0.4-4.5,1.8-6,3.8c-1.4,2-2,4.5-1.5,6.9c0.4,2.4,1.8,4.5,3.8,6
		c1.6,1.1,3.4,1.7,5.3,1.7c0.5,0,1.1,0,1.6-0.1c4-0.7,7-3.9,7.6-7.9l-0.1,0l-1.6,0.3c-0.6,3.1-3,5.5-6.1,6.1
		c-3.9,0.7-7.6-1.7-8.6-5.4l16.5-2.9L112.7,63.2L112.7,63.2z"/>
	<path fill="#010101" d="M115.7,72.2c-0.1,0-0.2-0.1-0.3-0.1h-0.2v0.5h0.2c0.1,0,0.2,0,0.3,0c0.1,0,0.2-0.1,0.2-0.2
		C115.8,72.3,115.7,72.2,115.7,72.2L115.7,72.2z M115.4,72c0.2,0,0.3,0,0.4,0.1c0.2,0.1,0.2,0.2,0.2,0.4c0,0.1,0,0.2-0.1,0.3
		c-0.1,0-0.1,0.1-0.2,0.1c0.1,0,0.2,0.1,0.3,0.1c0.1,0.1,0.1,0.2,0.1,0.2v0.1c0,0,0,0.1,0,0.1c0,0,0,0.1,0,0.1l0,0h-0.2c0,0,0,0,0,0
		c0,0,0,0,0,0l0,0v-0.1c0-0.2,0-0.3-0.1-0.3c-0.1,0-0.2,0-0.3,0h-0.2v0.6h-0.3V72H115.4L115.4,72z M114.6,71.9
		c-0.2,0.2-0.3,0.5-0.3,0.8c0,0.3,0.1,0.6,0.3,0.8c0.2,0.2,0.5,0.3,0.8,0.3c0.3,0,0.6-0.1,0.8-0.3c0.2-0.2,0.3-0.5,0.3-0.8
		c0-0.3-0.1-0.6-0.3-0.8c-0.2-0.2-0.5-0.3-0.8-0.3C115.1,71.5,114.8,71.7,114.6,71.9L114.6,71.9z M116.4,73.7
		c-0.3,0.3-0.6,0.4-1,0.4c-0.4,0-0.7-0.1-1-0.4c-0.3-0.3-0.4-0.6-0.4-1c0-0.4,0.1-0.7,0.4-1c0.3-0.3,0.6-0.4,1-0.4
		c0.4,0,0.7,0.1,1,0.4c0.3,0.3,0.4,0.6,0.4,1C116.8,73.1,116.6,73.4,116.4,73.7L116.4,73.7z"/>
</g>
</svg>
