<?xml version="1.0" encoding="utf-8"?>
<!-- Generator: Adobe Illustrator 18.0.0, SVG Export Plug-In . SVG Version: 6.00 Build 0)  -->
<!DOCTYPE svg PUBLIC "-//W3C//DTD SVG 1.1//EN" "http://www.w3.org/Graphics/SVG/1.1/DTD/svg11.dtd">
<svg version="1.1" id="Layer_1" xmlns="http://www.w3.org/2000/svg" xmlns:xlink="http://www.w3.org/1999/xlink" x="0px" y="0px"
	 viewBox="0 0 215 140" enable-background="new 0 0 215 140" xml:space="preserve">
<g>
	<g>
		<g>
			<g>
				<path fill="#E9A824" d="M40.3,45.3c-0.9-2.7-3.8-4.2-6.6-3.3c-2.7,0.9-4.2,3.8-3.3,6.6l13.5,41.4c0.9,2.6,3.7,4,6.3,3.2
					c2.8-0.8,4.4-3.7,3.6-6.4C53.7,86.6,40.3,45.3,40.3,45.3L40.3,45.3z"/>
			</g>
		</g>
		<g>
			<g>
				<path fill="#40B991" d="M19.4,52.1c-0.9-2.7-3.8-4.2-6.6-3.3c-2.7,0.9-4.2,3.8-3.3,6.6L23,96.7c0.9,2.6,3.7,4,6.3,3.2
					c2.8-0.8,4.4-3.7,3.6-6.4C32.8,93.4,19.4,52.1,19.4,52.1L19.4,52.1z"/>
			</g>
		</g>
	</g>
	<path fill="#E11666" d="M57.2,79.6c2.7-0.9,4.2-3.8,3.3-6.6c-0.9-2.7-3.8-4.2-6.6-3.3L12.6,83.1c-2.6,0.9-4,3.7-3.2,6.3
		c0.8,2.8,3.7,4.4,6.4,3.6C15.9,93,57.2,79.6,57.2,79.6L57.2,79.6z"/>
	<path fill="#472B49" d="M21.2,91.3c2.7-0.9,6.2-2,9.9-3.2c-0.9-2.7-2-6.2-3.2-9.9L18,81.4L21.2,91.3L21.2,91.3z"/>
	<g>
		<g>
			<g>
				<path fill="#CE2028" d="M42.1,84.5c3.7-1.2,7.2-2.3,9.9-3.2c-0.9-2.7-2-6.2-3.2-9.9l-9.9,3.2L42.1,84.5L42.1,84.5z"/>
			</g>
		</g>
		<g>
			<g>
				<path fill="#72CBDC" d="M50.4,58.7c2.7-0.9,4.2-3.8,3.3-6.6c-0.9-2.7-3.8-4.2-6.6-3.3L5.8,62.3c-2.6,0.9-4,3.7-3.2,6.3
					c0.8,2.8,3.7,4.4,6.4,3.6C9.1,72.1,50.4,58.7,50.4,58.7L50.4,58.7z"/>
			</g>
		</g>
	</g>
	<path fill="#20947E" d="M14.5,70.4c2.7-0.9,6.2-2,9.9-3.2c-1.2-3.7-2.3-7.2-3.2-9.9l-9.9,3.2L14.5,70.4L14.5,70.4z"/>
	<path fill="#67883A" d="M35.3,63.6c3.7-1.2,7.2-2.3,9.9-3.2c-1.2-3.7-2.3-7.2-3.2-9.9l-9.9,3.2L35.3,63.6L35.3,63.6z"/>
	<path fill="#3D454D" d="M99.2,56.2c1.8,0.8,2,1.4,0.5,4.1c-1.5,2.8-1.8,3-3.6,2.2c-2.3-1-5.2-1.7-7-1.7c-3.1,0-5.1,1.1-5.1,2.8
		c0,5.5,17.5,2.5,17.5,14.2c0,5.9-5.1,9.8-12.6,9.8c-4,0-8.9-1.3-12.3-3.1c-1.7-0.9-1.8-1.4-0.3-4.2c1.3-2.5,1.7-2.7,3.5-2
		c2.9,1.3,6.6,2.2,9,2.2c2.8,0,4.7-1.1,4.7-2.8c0-5.3-17.8-2.8-17.8-14.1c0-6,5-10.1,12.5-10.1C91.7,53.7,96.1,54.8,99.2,56.2
		L99.2,56.2z"/>
	<path fill="#3D454D" d="M113.4,42.3v43.7c0,0.7-0.7,1.4-1.7,1.4h-4.6c-1,0-1.7-0.7-1.7-1.4V42.3c0-2.2,0.6-2.4,4-2.4
		C113.2,39.9,113.4,40.2,113.4,42.3L113.4,42.3z"/>
	<path fill="#3D454D" d="M124.8,77.7c0,2.2,1.9,3.7,4.8,3.7c3.5,0,6.6-1.7,8.4-4.5V74c-1.8-0.7-4.1-1.1-6.1-1.1
		C127.7,72.9,124.8,75,124.8,77.7L124.8,77.7z M146,66.8v18.8c0,1-0.7,1.7-1.7,1.7h-4.5c-1,0-1.8-0.8-1.7-1.8l0.1-2
		c-2.5,2.7-6,4.2-9.5,4.2c-6.9,0-11.5-4-11.5-9.9c0-6.3,5.2-10.5,13-10.6c3,0,5.7,0.5,7.9,1.4v-2.2c0-3.5-2.7-5.5-7.4-5.5
		c-2.2,0-4.8,0.9-7,2.1c-1.6,0.9-2,0.9-3.8-1.8c-1.7-2.6-1.7-3.1,0-4.2c3.2-2.1,7.5-3.4,11.5-3.4C140.4,53.7,146,58.6,146,66.8
		L146,66.8z"/>
	<g>
		<g>
			<g>
				<path fill="#3D454D" d="M177.2,56.2c1.7,1,1.7,1.5-0.1,4.3c-1.7,2.7-2,2.8-3.9,1.9c-1.4-0.7-3.6-1.4-5.5-1.4
					c-5.8,0-9.6,3.8-9.6,9.5c0,6,3.8,10,9.6,10c2,0,4.5-0.8,6.1-1.7c1.7-1,2-0.9,3.8,1.7c1.6,2.4,1.6,3,0.1,4
					c-2.6,1.8-6.6,3.1-10.2,3.1c-10.7,0-17.8-6.8-17.8-17c0-10.2,7.1-16.9,17.8-16.9C171,53.7,174.8,54.8,177.2,56.2L177.2,56.2z"/>
			</g>
		</g>
		<g>
			<g>
				<path fill="#3D454D" d="M211.9,83.2c1.3,1.7,0.8,2.3-2.5,3.5c-3.4,1.2-3.9,1.2-5.1-0.4l-9.5-12.7l-4.3,4.1v8.3
					c0,0.7-0.7,1.4-1.7,1.4h-4.6c-1,0-1.7-0.7-1.7-1.4V42.3c0-2.2,0.6-2.4,4-2.4c3.9,0,4,0.3,4,2.4v24.8l13-12.5
					c1.4-1.4,2.2-1.3,4.8,0.4c2.8,1.8,3,2.3,1.7,3.7l-9.7,9.5L211.9,83.2L211.9,83.2z"/>
			</g>
		</g>
	</g>
</g>
</svg>
