<?xml version="1.0" encoding="utf-8"?>
<!-- Generator: Adobe Illustrator 16.0.0, SVG Export Plug-In . SVG Version: 6.00 Build 0)  -->
<!DOCTYPE svg PUBLIC "-//W3C//DTD SVG 1.1//EN" "http://www.w3.org/Graphics/SVG/1.1/DTD/svg11.dtd">
<svg version="1.1" id="Layer_1" xmlns="http://www.w3.org/2000/svg" xmlns:xlink="http://www.w3.org/1999/xlink" x="0px" y="0px"
	 width="438.872px" height="317px" viewBox="0 -75.814 438.872 317" enable-background="new 0 -75.814 438.872 317"
	 xml:space="preserve">
<g>
	<g>
		<g>
			<defs>
				<rect id="SVGID_1_" y="5.684" width="438.872" height="125.687"/>
			</defs>
			<clipPath id="SVGID_2_">
				<use xlink:href="#SVGID_1_"  overflow="visible"/>
			</clipPath>
			<path clip-path="url(#SVGID_2_)" fill="#E9A823" d="M79.092,16.918c-1.854-5.707-7.983-8.83-13.689-6.975
				c-5.707,1.854-8.83,7.983-6.975,13.689l28.093,86.433c1.928,5.33,7.687,8.326,13.215,6.735c5.766-1.659,9.281-7.784,7.441-13.448
				C107.107,103.139,79.092,16.918,79.092,16.918L79.092,16.918z"/>
		</g>
		<g>
			<defs>
				<rect id="SVGID_3_" y="5.684" width="438.872" height="125.687"/>
			</defs>
			<clipPath id="SVGID_4_">
				<use xlink:href="#SVGID_3_"  overflow="visible"/>
			</clipPath>
			<path clip-path="url(#SVGID_4_)" fill="#3FB991" d="M35.563,31.062c-1.854-5.707-7.983-8.83-13.689-6.976
				c-5.707,1.854-8.83,7.983-6.976,13.69l28.093,86.432c1.929,5.331,7.688,8.327,13.216,6.733c5.766-1.657,9.281-7.781,7.441-13.445
				C63.578,117.282,35.563,31.062,35.563,31.062L35.563,31.062z"/>
		</g>
	</g>
	<path fill="#E11765" d="M114.452,88.501c5.707-1.854,8.829-7.983,6.975-13.69c-1.854-5.707-7.983-8.829-13.689-6.975L21.306,95.93
		c-5.331,1.928-8.327,7.688-6.736,13.215c1.66,5.766,7.784,9.28,13.448,7.44C28.232,116.516,114.452,88.501,114.452,88.501
		L114.452,88.501z"/>
	<path fill="#472A49" d="M39.32,112.914c5.625-1.828,12.877-4.184,20.658-6.712c-1.828-5.626-4.185-12.878-6.713-20.66
		l-20.659,6.715L39.32,112.914L39.32,112.914z"/>
	<g>
		<g>
			<defs>
				<rect id="SVGID_5_" y="5.684" width="438.872" height="125.687"/>
			</defs>
			<clipPath id="SVGID_6_">
				<use xlink:href="#SVGID_5_"  overflow="visible"/>
			</clipPath>
			<path clip-path="url(#SVGID_6_)" fill="#CD2027" d="M82.849,98.77c7.81-2.537,15.069-4.896,20.658-6.711
				c-1.828-5.627-4.185-12.881-6.714-20.664l-20.659,6.713L82.849,98.77L82.849,98.77z"/>
		</g>
		<g>
			<defs>
				<rect id="SVGID_7_" y="5.684" width="438.872" height="125.687"/>
			</defs>
			<clipPath id="SVGID_8_">
				<use xlink:href="#SVGID_7_"  overflow="visible"/>
			</clipPath>
			<path clip-path="url(#SVGID_8_)" fill="#71CBDC" d="M100.309,44.972c5.706-1.854,8.829-7.983,6.975-13.689
				s-7.983-8.83-13.69-6.975L7.162,52.4c-5.331,1.929-8.327,7.687-6.735,13.215c1.66,5.766,7.784,9.281,13.447,7.441
				C14.089,72.986,100.309,44.972,100.309,44.972L100.309,44.972z"/>
		</g>
	</g>
	<path fill="#1D947E" d="M25.172,69.386c5.626-1.827,12.879-4.185,20.662-6.713c-2.538-7.811-4.896-15.07-6.713-20.66l-20.663,6.716
		L25.172,69.386L25.172,69.386z"/>
	<path fill="#66873A" d="M68.702,55.242c7.812-2.538,15.072-4.897,20.662-6.713c-2.539-7.812-4.897-15.073-6.714-20.664
		l-20.664,6.716L68.702,55.242L68.702,55.242z"/>
	<path fill="#3C444C" d="M202.125,39.669c3.823,1.668,4.101,2.919,1.112,8.618c-3.057,5.838-3.822,6.186-7.575,4.657
		c-4.726-2.015-10.773-3.544-14.665-3.544c-6.393,0-10.633,2.293-10.633,5.768c0,11.468,36.627,5.282,36.627,29.746
		c0,12.302-10.565,20.503-26.41,20.503c-8.34,0-18.627-2.78-25.716-6.396c-3.544-1.807-3.752-2.849-0.695-8.687
		c2.642-5.144,3.475-5.699,7.298-4.101c6.046,2.642,13.692,4.656,18.835,4.656c5.838,0,9.73-2.363,9.73-5.838
		c0-11.119-37.252-5.838-37.252-29.538c0-12.58,10.494-20.989,26.201-20.989C186.349,34.526,195.662,36.75,202.125,39.669
		L202.125,39.669z"/>
	<path fill="#3C444C" d="M231.667,10.618v91.184c0,1.39-1.461,2.851-3.545,2.851h-9.592c-2.085,0-3.545-1.459-3.545-2.851V10.618
		c0-4.518,1.252-4.935,8.342-4.935C231.388,5.684,231.667,6.24,231.667,10.618L231.667,10.618z"/>
	<path fill="#3C444C" d="M255.643,84.636c0,4.657,3.962,7.784,9.939,7.784c7.228,0,13.76-3.475,17.582-9.382v-6.116
		c-3.822-1.459-8.479-2.294-12.648-2.294C261.62,74.627,255.643,78.867,255.643,84.636L255.643,84.636z M299.845,61.909v39.268
		c0,2.085-1.46,3.544-3.544,3.544h-9.453c-2.154,0-3.684-1.598-3.544-3.752l0.139-4.24c-5.144,5.699-12.51,8.688-19.877,8.688
		c-14.317,0-23.907-8.271-23.907-20.642c0-13.137,10.842-21.962,27.104-22.032c6.187,0,11.815,1.112,16.401,2.988v-4.518
		c0-7.228-5.699-11.537-15.358-11.537c-4.519,0-10.078,1.807-14.526,4.378c-3.406,1.946-4.24,1.807-7.923-3.683
		c-3.614-5.491-3.476-6.533,0-8.757c6.672-4.309,15.707-7.089,24.047-7.089C288.099,34.526,299.845,44.673,299.845,61.909
		L299.845,61.909z"/>
	<g>
		<g>
			<defs>
				<rect id="SVGID_9_" y="5.684" width="438.872" height="125.687"/>
			</defs>
			<clipPath id="SVGID_10_">
				<use xlink:href="#SVGID_9_"  overflow="visible"/>
			</clipPath>
			<path clip-path="url(#SVGID_10_)" fill="#3C444C" d="M364.901,39.809c3.475,2.015,3.613,3.127-0.209,9.035
				c-3.613,5.56-4.238,5.908-8.062,3.961c-2.92-1.529-7.576-2.85-11.396-2.85c-12.023,0-20.018,7.923-20.018,19.877
				c0,12.439,7.992,20.779,20.018,20.779c4.17,0,9.383-1.598,12.785-3.475c3.477-2.016,4.24-1.876,7.926,3.475
				c3.336,5.005,3.266,6.186,0.275,8.271c-5.35,3.684-13.83,6.533-21.266,6.533c-22.24,0-37.113-14.248-37.113-35.584
				c0-21.198,14.873-35.307,37.252-35.307C351.905,34.526,359.897,36.82,364.901,39.809L364.901,39.809z"/>
		</g>
		<g>
			<defs>
				<rect id="SVGID_11_" y="5.684" width="438.872" height="125.687"/>
			</defs>
			<clipPath id="SVGID_12_">
				<use xlink:href="#SVGID_11_"  overflow="visible"/>
			</clipPath>
			<path clip-path="url(#SVGID_12_)" fill="#3C444C" d="M437.461,96.034c2.779,3.544,1.668,4.796-5.283,7.298
				c-7.088,2.57-8.061,2.432-10.561-0.834l-19.879-26.549l-8.896,8.617v17.236c0,1.391-1.459,2.85-3.543,2.85h-9.592
				c-2.084,0-3.545-1.459-3.545-2.85V10.618c0-4.518,1.252-4.935,8.34-4.935c8.062,0,8.34,0.556,8.34,4.935v51.847l27.244-26.132
				c2.99-2.85,4.658-2.641,10.008,0.903c5.908,3.822,6.326,4.865,3.477,7.645L413.276,64.62L437.461,96.034L437.461,96.034z"/>
		</g>
	</g>
</g>
</svg>
