<?xml version="1.0" encoding="utf-8"?>
<!-- Generator: Adobe Illustrator 18.0.0, SVG Export Plug-In . SVG Version: 6.00 Build 0)  -->
<!DOCTYPE svg PUBLIC "-//W3C//DTD SVG 1.1//EN" "http://www.w3.org/Graphics/SVG/1.1/DTD/svg11.dtd">
<svg version="1.1" id="Layer_1" xmlns="http://www.w3.org/2000/svg" xmlns:xlink="http://www.w3.org/1999/xlink" x="0px" y="0px"
	 viewBox="0 0 120 130" enable-background="new 0 0 120 130" xml:space="preserve">
<g id="Loblaw_Digital">
</g>
<g id="Phoenix">
</g>
<g id="Magnet_Forensics_1_">
</g>
<g id="Bloomberg">
</g>
<g id="Wish">
</g>
<g id="lani">
</g>
<g id="Yelp">
</g>
<g id="Mozilla">
</g>
<g id="Microsoft">
</g>
<g id="Facebook">
</g>
<g id="D2L">
</g>
<g id="Linode">
</g>
<g id="Braintree">
</g>
<g id="Velocity">
</g>
<g id="citi">
</g>
<g id="Course_Hero">
</g>
<g id="square">
</g>
<g id="Capco">
</g>
<g id="g3012" transform="matrix(1.25,0,0,-1.25,7.0866142,430.93724)">
	<g id="g3014" transform="matrix(0.46693562,0,0,0.46693562,0,-6.7920122e-4)">
		<g id="g3016">
			<g>
				<g id="g3018">
					<path id="path3024" fill="#68CEF5" d="M155.6,621.6c0,0-0.1,0-0.1,0L155.6,621.6C155.7,621.6,155.6,621.6,155.6,621.6"/>
					<path id="path3026" fill="#68CEF5" d="M21,612.1c0-1.3-0.5-2.4-1.4-3.4c-0.9-0.9-2.1-1.4-3.4-1.4H6.7c-3.9,0-7.3,1.4-10.1,4.2
						c-2.8,2.8-4.2,6.2-4.2,10.1v19.1c0,1.3,0.5,2.5,1.4,3.4c0.9,0.9,2.1,1.4,3.4,1.4c1.3,0,2.4-0.5,3.4-1.4
						c0.9-0.9,1.4-2.1,1.4-3.4v-6.9h13.5c1.2,0,2.3-0.4,3.2-1.3c0.9-0.9,1.3-1.9,1.3-3.1c0-1.2-0.4-2.3-1.3-3.1
						c-0.9-0.9-1.9-1.3-3.1-1.3H2v-3.4c0-1.3,0.5-2.4,1.4-3.4c0.9-0.9,2-1.4,3.4-1.4h9.5c1.3,0,2.4-0.5,3.4-1.4
						C20.5,614.5,21,613.4,21,612.1"/>
					<path id="path3028" fill="#68CEF5" d="M132,612.1c0-1.3-0.5-2.4-1.4-3.4c-0.9-0.9-2.1-1.4-3.4-1.4h-4.3
						c-3.9,0-7.3,1.4-10.1,4.2c-2.8,2.8-4.2,6.2-4.2,10.1v19.1c0,1.3,0.5,2.5,1.4,3.4c0.9,0.9,2.1,1.4,3.4,1.4
						c1.3,0,2.4-0.5,3.4-1.4c0.9-0.9,1.4-2.1,1.4-3.4v-6.9h8.3c1.2,0,2.3-0.4,3.1-1.3c0.9-0.9,1.3-1.9,1.3-3.1
						c0-1.2-0.4-2.3-1.3-3.1c-0.9-0.9-1.9-1.3-3.1-1.3h-8.3v-3.4c0-1.3,0.5-2.4,1.4-3.4c0.9-0.9,2-1.4,3.4-1.4h4.3
						c1.3,0,2.4-0.5,3.4-1.4C131.5,614.5,132,613.4,132,612.1"/>
					<path id="path3030" fill="#68CEF5" d="M106.9,612.1c0-1.3-0.5-2.4-1.4-3.4c-0.9-0.9-2.1-1.4-3.4-1.4h-4.3
						c-3.9,0-7.3,1.4-10.1,4.2c-2.8,2.8-4.2,6.2-4.2,10.1v19.1c0,1.3,0.5,2.5,1.4,3.4c0.9,0.9,2.1,1.4,3.4,1.4
						c1.3,0,2.4-0.5,3.4-1.4c0.9-0.9,1.4-2.1,1.4-3.4v-6.9h8.3c1.2,0,2.3-0.4,3.1-1.3c0.9-0.9,1.3-1.9,1.3-3.1
						c0-1.2-0.4-2.3-1.3-3.1c-0.9-0.9-1.9-1.3-3.1-1.3h-8.3v-3.4c0-1.3,0.5-2.4,1.4-3.4c0.9-0.9,2-1.4,3.4-1.4h4.3
						c1.3,0,2.4-0.5,3.4-1.4C106.4,614.5,106.9,613.4,106.9,612.1"/>
					<path id="path3032" fill="#68CEF5" d="M67.2,620.7c0-3.7-1.3-6.8-3.9-9.4c-2.6-2.6-5.8-3.9-9.5-3.9c-3.4,0-6.3,1.1-8.9,3.4
						c-2.5-2.3-5.5-3.4-8.9-3.4c-3.7,0-6.8,1.3-9.5,3.9c-2.6,2.6-3.9,5.8-3.9,9.4v9.3c0,1.3,0.4,2.3,1.3,3.2
						c0.9,0.9,1.9,1.3,3.2,1.3c1.2,0,2.3-0.4,3.2-1.3c0.9-0.9,1.3-1.9,1.3-3.2v-9.3c0-1.2,0.4-2.3,1.3-3.1c0.9-0.9,1.9-1.3,3.1-1.3
						c1.2,0,2.2,0.4,3.1,1.3c0.9,0.9,1.3,1.9,1.3,3.1v9.3c0,1.2,0.4,2.3,1.3,3.2c0.9,0.9,2,1.3,3.2,1.3c1.2,0,2.3-0.4,3.2-1.3
						c0.9-0.9,1.3-1.9,1.3-3.2v-9.3c0-1.2,0.4-2.3,1.3-3.1c0.9-0.9,1.9-1.3,3.1-1.3c1.2,0,2.3,0.4,3.1,1.3c0.9,0.9,1.3,1.9,1.3,3.1
						v9.3c0,1.2,0.4,2.3,1.3,3.2c0.9,0.9,1.9,1.3,3.2,1.3c1.2,0,2.3-0.4,3.2-1.3c0.9-0.9,1.3-1.9,1.3-3.2L67.2,620.7"/>
					<path id="path3034" fill="#68CEF5" d="M80.1,641.8c0-1.3-0.5-2.4-1.4-3.4c-0.9-0.9-2.1-1.4-3.4-1.4c-1.3,0-2.4,0.5-3.4,1.4
						c-0.9,0.9-1.4,2.1-1.4,3.4c0,1.3,0.5,2.4,1.4,3.4c0.9,0.9,2.1,1.4,3.4,1.4c1.3,0,2.4-0.5,3.4-1.4
						C79.7,644.2,80.1,643.1,80.1,641.8"/>
					<path id="path3036" fill="#68CEF5" d="M80.1,612.1c0-1.3-0.5-2.4-1.4-3.4c-0.9-0.9-2.1-1.4-3.4-1.4c-1.3,0-2.4,0.5-3.4,1.4
						c-0.9,0.9-1.4,2.1-1.4,3.4v17.6c0,1.3,0.5,2.4,1.4,3.4c0.9,0.9,2.1,1.4,3.4,1.4c1.3,0,2.4-0.5,3.4-1.4c0.9-0.9,1.4-2.1,1.4-3.4
						V612.1"/>
					<path id="path3038" fill="#68CEF5" d="M188.9,629.4c0-1.2-0.4-2.3-1.3-3.1c-0.9-0.9-1.9-1.3-3.1-1.3H178
						c-1.2,0-2.3-0.4-3.1-1.3c-0.9-0.9-1.3-1.9-1.3-3.1v-8.8c0-1.2-0.4-2.3-1.3-3.1c-0.9-0.9-1.9-1.3-3.1-1.3
						c-1.2,0-2.3,0.4-3.1,1.3c-0.9,0.9-1.3,1.9-1.3,3.1v8.8c0,3.7,1.3,6.8,3.9,9.4c2.6,2.6,5.7,3.9,9.4,3.9h6.5
						c1.2,0,2.3-0.4,3.1-1.3C188.5,631.7,188.9,630.6,188.9,629.4"/>
					<path id="path3040" fill="#68CEF5" d="M142.9,624.5h9.5c0,3.1-4.7,3.1-4.7,3.1S142.9,627.6,142.9,624.5z M147,607.3
						c-3.8,0-7.3,1.4-10.1,4.3c-2.8,2.9-3.9,6-3.9,10c0,0-0.3,12.8,14.3,12.8c11.4,0,14.8-8,14.8-11.9c0-3.1-1.4-4.2-4.7-4.2h-14.5
						c0,0-0.5-3.3,6.1-3.3h8.3c2.1,0,3.8-1.7,3.8-3.8c0-2.1-1.7-3.8-3.8-3.8H147"/>
				</g>
			</g>
		</g>
	</g>
</g>
</svg>
