<?xml version="1.0" encoding="utf-8"?>
<!-- Generator: Adobe Illustrator 18.1.1, SVG Export Plug-In . SVG Version: 6.00 Build 0)  -->
<svg version="1.1" xmlns="http://www.w3.org/2000/svg" xmlns:xlink="http://www.w3.org/1999/xlink" x="0px" y="0px"
	 viewBox="0 0 98.4 44.3" enable-background="new 0 0 98.4 44.3" xml:space="preserve">
<g id="Loblaw_Digital">
</g>
<g id="Phoenix">
</g>
<g id="Magnet_Forensics_1_">
</g>
<g id="Bloomberg">
</g>
<g id="Wish">
	<g>
		<path fill="#5FC8F1" d="M49.4,7.2c-0.6-0.7-0.8-1.6-0.7-2.6c0.1-1,0.6-1.9,1.4-2.6c0.8-0.7,1.7-1,2.7-1c1,0,1.8,0.4,2.4,1
			c0.6,0.7,0.8,1.6,0.7,2.6c-0.1,1-0.6,1.9-1.4,2.6c-0.8,0.7-1.7,1-2.7,1C50.8,8.2,50,7.9,49.4,7.2z"/>
		<path fill="#5FC8F1" d="M43.7,10.4h-2.8c-1.2,0-2.3,1-2.5,2.1l-1.2,8.8c-0.1,1-0.6,1.8-1.4,2.5c-0.8,0.7-1.7,1.1-2.7,1.1
			c-1,0-1.7-0.3-2.3-1c-0.6-0.7-0.8-1.5-0.7-2.5l0.7-5.3c0-1.1-0.8-1.9-1.9-1.9h-2.9c-1.1,0-2.1,0.8-2.4,1.9l-0.8,5.3
			c-0.1,1-0.6,1.8-1.4,2.5c-0.8,0.7-1.7,1-2.6,1c-1,0-1.7-0.4-2.3-1.1c-0.6-0.7-0.8-1.5-0.7-2.5l1.6-11.7c0.2-1.1-0.5-2.3-1.5-2.8
			c0,0-12.2-5.1-13-5.4c-0.8-0.3-1.7,0.4-2,1.6L0.1,6c-0.3,1.2,0.4,2.6,1.6,3.1l8.2,3.4l-1.2,8.8c-0.4,3,0.3,5.5,2.1,7.6
			c1.8,2.1,4.2,3.1,7.1,3.1c2.7,0,5.2-0.9,7.5-2.7c1.8,1.8,4.1,2.7,6.8,2.7c3,0,5.6-1,8-3.1c2.4-2.1,3.8-4.6,4.2-7.6
			c0,0,1.3-9.3,1.3-9.5C45.8,11,44.9,10.4,43.7,10.4z"/>
		<path fill="#5FC8F1" d="M52.8,10.4h-2.6c-1.1,0-2.1,0.9-2.2,1.9c0,0-2.6,18.3-2.6,18.4c-0.1,0.7,0.7,1.3,1.8,1.3h2.6
			c1.1,0,2.1-0.9,2.2-1.9c0,0,2.6-18.4,2.6-18.4C54.6,10.9,53.8,10.4,52.8,10.4z"/>
		<path fill="#5FC8F1" d="M96.7,12.7c-1.5-1.7-3.5-2.6-6-2.6c-2.5,0-4.9,0.5-7.2,2.5c0,0,1.6-11.3,1.6-11.3C85.3,0.6,84.5,0,83.4,0
			h-2.6c-1.1,0-2.1,0.9-2.3,2c0,0-4.2,28.7-4.2,28.7c-0.1,0.7,0.7,1.4,1.8,1.4h2.6c1.1,0,2.1-0.9,2.2-1.9h0l1.3-9
			c0.3-1.8,1-3.2,2.1-4.1c1.1-0.9,2.4-1.4,3.7-1.4c2.7,0,3.8,1.8,3.3,5.3c0,0-1.4,9.7-1.4,9.7c-0.1,0.7,0.7,1.4,1.8,1.4h2.6
			c1.1,0,2.1-0.9,2.3-2l1.6-10.5C98.7,16.7,98.2,14.4,96.7,12.7z"/>
		<path fill="#5FC8F1" d="M71.5,16.6c0.4,0,0.7-0.2,1.1-0.7l1.2-1.6c0.5-0.7,0.5-1.7,0-2.4c-0.2-0.4-0.9-0.7-1.4-1.1l-0.1,0
			c-1.8-1-3.6-1.4-6-1.2c-2.6,0.1-4.8,0.9-6.6,2.3c-1.8,1.4-2.8,3.2-3,5.2c-0.2,2.1,0.5,3.7,2.1,4.7c0.8,0.5,1.5,0.9,2.1,1.1
			c0.6,0.2,1.5,0.5,2.7,0.9c1.1,0.3,2,0.7,2.6,1.1c0.5,0.4,0.8,0.7,0.7,1.2c0,0.4-0.3,0.8-0.7,1.1c-0.5,0.3-1.1,0.5-1.8,0.5
			c-2,0.1-3.9-0.4-5.6-1.4l-1.3-0.7c-0.2-0.1-0.4-0.2-0.7-0.2c-0.4,0-0.8,0.2-1,0.5L54,28.3c-0.2,0.2-0.3,0.5-0.2,0.8
			c0.1,0.3,0.2,0.5,0.5,0.7l0,0c0.6,0.5,1.2,0.9,1.8,1.2c0.8,0.4,1.7,0.8,2.6,1.1c1.7,0.5,3.4,0.7,5.1,0.6c2.5-0.1,4.6-0.9,6.3-2.3
			c1.7-1.4,2.7-3.3,3-5.5c0.2-2.2-0.4-3.8-1.9-4.7c-0.8-0.5-1.4-0.8-2-1c-0.6-0.2-1.5-0.5-2.9-0.9c-1.3-0.4-2.3-0.7-2.8-1
			c-0.5-0.3-0.7-0.6-0.6-1.1c0.1-0.9,1-1.4,2.7-1.5c1.4-0.1,2.8,0.3,4.2,0.9c0.3,0.2,0.6,0.3,0.9,0.5c0,0,0,0,0,0s0,0,0,0
			C71,16.5,71.2,16.6,71.5,16.6z"/>
	</g>
</g>
<g id="lani">
</g>
<g id="Yelp">
</g>
<g id="Mozilla">
</g>
<g id="Microsoft">
</g>
<g id="Facebook">
</g>
<g id="Kik_1_">
</g>
<g id="D2L">
</g>
<g id="Linode">
</g>
<g id="Braintree">
</g>
<g id="Velocity">
</g>
<g id="citi">
</g>
<g id="Course_Hero">
</g>
<g id="square">
</g>
<g id="Capco">
</g>
</svg>
