<?xml version="1.0" encoding="utf-8"?>
<!-- Generator: Adobe Illustrator 18.0.0, SVG Export Plug-In . SVG Version: 6.00 Build 0)  -->
<!DOCTYPE svg PUBLIC "-//W3C//DTD SVG 1.1//EN" "http://www.w3.org/Graphics/SVG/1.1/DTD/svg11.dtd">
<svg version="1.1" id="Layer_1" xmlns="http://www.w3.org/2000/svg" xmlns:xlink="http://www.w3.org/1999/xlink" x="0px" y="0px"
	 viewBox="0 0 120 130" enable-background="new 0 0 120 130" xml:space="preserve">
<g id="Wish">
	<g>
		<path fill="#61C8F1" d="M60.2,54.1c-0.7-0.8-0.9-1.9-0.8-3.1s0.7-2.3,1.7-3.1s2-1.2,3.2-1.2s2.1,0.5,2.8,1.2
			c0.7,0.8,0.9,1.9,0.8,3.1s-0.7,2.3-1.7,3.1c-0.9,0.8-2,1.2-3.2,1.2C61.9,55.3,60.9,55,60.2,54.1z"/>
		<path fill="#61C8F1" d="M53.5,57.9h-3.3c-1.4,0-2.7,1.2-3,2.5l-1.4,10.4c-0.1,1.2-0.7,2.1-1.7,3c-0.9,0.8-2,1.3-3.2,1.3
			c-1.2,0-2-0.4-2.7-1.2c-0.7-0.8-0.9-1.8-0.8-3l0.8-6.3c0-1.3-0.9-2.3-2.3-2.3h-3.4c-1.3,0-2.5,0.9-2.8,2.3L28.7,71
			c-0.1,1.2-0.7,2.1-1.7,3s-2,1.2-3.1,1.2c-1.2,0-2-0.5-2.7-1.3c-0.7-0.8-0.9-1.8-0.8-3L22.3,57c0.2-1.3-0.6-2.7-1.8-3.3
			c0,0-14.5-6.1-15.4-6.4s-2,0.5-2.4,1.9l-0.9,3.6c-0.4,1.4,0.5,3.1,1.9,3.7l9.7,4l-1.4,10.4c-0.5,3.6,0.4,6.5,2.5,9s5,3.7,8.4,3.7
			c3.2,0,6.2-1.1,8.9-3.2c2.1,2.1,4.9,3.2,8.1,3.2c3.6,0,6.6-1.2,9.5-3.7c2.8-2.5,4.5-5.5,5-9c0,0,1.5-11,1.5-11.3
			C56,58.6,54.9,57.9,53.5,57.9z"/>
		<path fill="#61C8F1" d="M64.3,57.9h-3.1c-1.3,0-2.5,1.1-2.6,2.3c0,0-3.1,21.7-3.1,21.8c-0.1,0.8,0.8,1.5,2.1,1.5h3.1
			c1.3,0,2.5-1.1,2.6-2.3l3.1-21.8C66.4,58.5,65.4,57.9,64.3,57.9z"/>
		<path fill="#61C8F1" d="M116.3,60.7c-1.8-2-4.2-3.1-7.1-3.1s-5.8,0.6-8.5,3l1.9-13.4c0.2-0.8-0.7-1.5-2-1.5h-3.1
			c-1.3,0-2.5,1.1-2.7,2.4l-5,34.1c-0.1,0.8,0.8,1.7,2.1,1.7H95c1.3,0,2.5-1.1,2.6-2.3l0,0l1.5-10.7c0.4-2.1,1.2-3.8,2.5-4.9
			c1.3-1.1,2.8-1.7,4.4-1.7c3.2,0,4.5,2.1,3.9,6.3L108.3,82c-0.1,0.8,0.8,1.7,2.1,1.7h3.1c1.3,0,2.5-1.1,2.7-2.4l1.9-12.5
			C118.7,65.4,118.1,62.7,116.3,60.7z"/>
		<path fill="#61C8F1" d="M86.4,65.3c0.5,0,0.8-0.2,1.3-0.8l1.4-1.9c0.6-0.8,0.6-2,0-2.8c-0.2-0.5-1.1-0.8-1.7-1.3h-0.1
			c-2.1-1.2-4.3-1.7-7.1-1.4c-3.1,0.1-5.7,1.1-7.8,2.7s-3.3,3.8-3.6,6.2c-0.2,2.5,0.6,4.4,2.5,5.6c0.9,0.6,1.8,1.1,2.5,1.3
			c0.7,0.2,1.8,0.6,3.2,1.1c1.3,0.4,2.4,0.8,3.1,1.3c0.6,0.5,0.9,0.8,0.8,1.4c0,0.5-0.4,0.9-0.8,1.3c-0.6,0.4-1.3,0.6-2.1,0.6
			c-2.4,0.1-4.6-0.5-6.6-1.7L69.8,76c-0.2-0.1-0.5-0.2-0.8-0.2c-0.5,0-0.9,0.2-1.2,0.6l-2.1,2.8c-0.2,0.2-0.4,0.6-0.2,0.9
			c0.1,0.4,0.2,0.6,0.6,0.8l0,0c0.7,0.6,1.4,1.1,2.1,1.4c0.9,0.5,2,0.9,3.1,1.3c2,0.6,4,0.8,6.1,0.7c3-0.1,5.5-1.1,7.5-2.7
			c2-1.7,3.2-3.9,3.6-6.5c0.2-2.6-0.5-4.5-2.3-5.6c-0.9-0.6-1.7-0.9-2.4-1.2c-0.7-0.2-1.8-0.6-3.4-1.1c-1.5-0.5-2.7-0.8-3.3-1.2
			s-0.8-0.7-0.7-1.3c0.1-1.1,1.2-1.7,3.2-1.8c1.7-0.1,3.3,0.4,5,1.1c0.4,0.2,0.7,0.4,1.1,0.6l0,0l0,0C85.9,65.2,86.1,65.3,86.4,65.3
			z"/>
	</g>
</g>
<g id="Capco">
</g>
</svg>
