<?xml version="1.0" encoding="UTF-8"?>
<svg width="354px" height="264px" viewBox="0 0 354 264" version="1.1" xmlns="http://www.w3.org/2000/svg" xmlns:xlink="http://www.w3.org/1999/xlink">
    <!-- Generator: Sketch 44.1 (41455) - http://www.bohemiancoding.com/sketch -->
    <title>digitalocean</title>
    <desc>Created with Sketch.</desc>
    <defs></defs>
    <g id="Page-1" stroke="none" stroke-width="1" fill="none" fill-rule="evenodd">
        <g id="digitalocean" fill="#0080FF">
            <g id="XMLID_690_" transform="translate(88.000000, 0.000000)">
                <g id="XMLID_691_">
                    <g id="XMLID_44_">
                        <g id="XMLID_48_" fill-rule="nonzero">
                            <path d="M89,176.5 L89,142.3 C125.2,142.3 153.3,106.4 139.4,68.3 C134.3,54.3 123,43 108.9,37.9 C70.8,24.1 34.9,52.1 34.9,88.3 C34.9,88.3 34.9,88.3 34.9,88.3 L0.8,88.3 C0.8,30.6 56.6,-14.4 117.1,4.5 C143.5,12.8 164.6,33.8 172.8,60.2 C191.7,120.7 146.7,176.5 89,176.5 Z" id="XMLID_49_"></path>
                        </g>
                        <polygon id="XMLID_47_" points="89.1 142.5 55 142.5 55 108.4 55 108.4 89.1 108.4 89.1 108.4"></polygon>
                        <polygon id="XMLID_46_" points="55 168.6 28.9 168.6 28.9 168.6 28.9 142.5 55 142.5"></polygon>
                        <path d="M28.9,142.5 L7,142.5 C7,142.5 7,142.5 7,142.5 L7,120.6 C7,120.6 7,120.6 7,120.6 L28.9,120.6 C28.9,120.6 28.9,120.6 28.9,120.6 L28.9,142.5 Z" id="XMLID_45_"></path>
                    </g>
                </g>
            </g>
            <g id="XMLID_234_" transform="translate(0.000000, 205.000000)" fill-rule="nonzero">
                <path d="M31.2,6.1 C26.8,3 21.2,1.5 14.8,1.5 L0.8,1.5 L0.8,46 L14.9,46 C21.3,46 26.9,44.4 31.3,41.1 C33.7,39.4 35.6,37 37,34 C38.3,31 39,27.4 39,23.5 C39,19.6 38.3,16.1 37,13.1 C35.6,10.1 33.7,7.7 31.2,6.1 Z M9,9 L13.4,9 C18.3,9 22.3,10 25.4,11.9 C28.8,14 30.5,17.9 30.5,23.5 C30.5,29.3 28.8,33.4 25.4,35.6 L25.4,35.6 C22.5,37.5 18.5,38.5 13.5,38.5 L9,38.5 L9,9 Z" id="XMLID_677_"></path>
                <path d="M48.7,0.9 C47.3,0.9 46.2,1.4 45.2,2.3 C44.3,3.2 43.8,4.3 43.8,5.7 C43.8,7.1 44.3,8.2 45.2,9.2 C46.1,10.1 47.3,10.6 48.7,10.6 C50,10.6 51.2,10.1 52.2,9.2 C53.1,8.3 53.6,7.1 53.6,5.7 C53.6,4.3 53.1,3.2 52.2,2.3 C51.2,1.4 50,0.9 48.7,0.9 Z" id="XMLID_676_"></path>
                <rect id="XMLID_675_" x="44.7" y="14.6" width="7.9" height="31.4"></rect>
                <path d="M81.3,17.2 C78.9,15.1 76.3,13.8 73.4,13.8 C69,13.8 65.4,15.3 62.6,18.3 C59.8,21.2 58.3,25 58.3,29.6 C58.3,34 59.7,37.8 62.5,40.8 C65.3,43.7 69,45.2 73.3,45.2 C76.3,45.2 79,44.4 81.1,42.7 L81.1,43.4 C81.1,46 80.4,48 79,49.4 C77.6,50.8 75.7,51.5 73.3,51.5 C69.7,51.5 67.4,50.1 64.6,46.3 L59.2,51.5 L59.3,51.7 C60.5,53.3 62.2,54.9 64.6,56.4 C66.9,57.9 69.9,58.7 73.4,58.7 C78.1,58.7 81.9,57.3 84.7,54.4 C87.5,51.5 88.9,47.7 88.9,43 L88.9,14.5 L81.1,14.5 L81.1,17.2 L81.3,17.2 Z M79.2,35.8 C77.8,37.4 76,38.1 73.8,38.1 C71.5,38.1 69.8,37.3 68.4,35.8 C67,34.2 66.4,32.2 66.4,29.7 C66.4,27.1 67.1,25.1 68.4,23.5 C69.7,21.9 71.6,21.2 73.8,21.2 C76.1,21.2 77.8,22 79.2,23.5 C80.6,25.1 81.3,27.2 81.3,29.7 C81.3,32.2 80.6,34.2 79.2,35.8 Z" id="XMLID_670_"></path>
                <rect id="XMLID_668_" x="95.8" y="14.6" width="7.9" height="31.4"></rect>
                <path d="M99.8,0.9 C98.4,0.9 97.3,1.4 96.3,2.3 C95.4,3.2 94.9,4.3 94.9,5.7 C94.9,7.1 95.4,8.2 96.3,9.2 C97.2,10.1 98.4,10.6 99.8,10.6 C101.1,10.6 102.3,10.1 103.3,9.2 C104.2,8.3 104.7,7.1 104.7,5.7 C104.7,4.3 104.2,3.2 103.3,2.3 C102.3,1.4 101.2,0.9 99.8,0.9 Z" id="XMLID_660_"></path>
                <path d="M121,6.1 L113.2,6.1 L113.2,14.6 L108.7,14.6 L108.7,21.8 L113.2,21.8 L113.2,34.8 C113.2,38.9 114,41.8 115.6,43.5 C117.2,45.2 120.1,46 124.1,46 C125.4,46 126.7,46 127.9,45.9 L128.3,45.9 L128.3,38.7 L125.6,38.8 C123.7,38.8 122.5,38.5 121.9,37.8 C121.3,37.1 121,35.7 121,33.6 L121,21.7 L128.4,21.7 L128.4,14.5 L121,14.5 L121,6.1 Z" id="XMLID_652_"></path>
                <rect id="XMLID_642_" x="165.4" y="1.4" width="7.9" height="44.6"></rect>
                <path d="M253.1,34.8 C251.7,36.4 250.2,37.8 249.1,38.5 L249.1,38.5 C248,39.2 246.6,39.6 245,39.6 C242.7,39.6 240.8,38.8 239.3,37 C237.8,35.3 237,33 237,30.4 C237,27.7 237.8,25.5 239.3,23.8 C240.8,22.1 242.7,21.2 245,21.2 C247.5,21.2 250.2,22.8 252.5,25.5 L257.7,20.5 L257.7,20.5 C254.3,16.1 250,14 244.8,14 C240.5,14 236.7,15.6 233.6,18.7 C230.5,21.8 229,25.7 229,30.4 C229,35.1 230.6,39 233.6,42.1 C236.7,45.2 240.4,46.8 244.8,46.8 C250.5,46.8 255.1,44.3 258.3,39.8 L253.1,34.8 Z" id="XMLID_448_"></path>
                <path d="M285.6,19 C284.5,17.4 283,16.2 281.1,15.3 C279.2,14.4 277,13.9 274.6,13.9 C270.2,13.9 266.6,15.5 263.9,18.7 C261.3,21.9 259.9,25.8 259.9,30.5 C259.9,35.3 261.4,39.2 264.2,42.2 C267.1,45.2 270.9,46.7 275.6,46.7 C280.9,46.7 285.3,44.5 288.6,40.3 L288.8,40.1 L283.6,35.1 L283.6,35.1 C283.1,35.7 282.4,36.3 281.8,36.9 C281,37.6 280.3,38.2 279.5,38.6 C278.3,39.2 277,39.5 275.5,39.5 C273.3,39.5 271.5,38.9 270.1,37.6 C268.8,36.4 268,34.8 267.8,32.8 L288.7,32.8 L288.8,29.9 C288.8,27.9 288.5,25.9 288,24.1 C287.5,22.3 286.7,20.6 285.6,19 Z M268.3,26.4 C268.7,24.9 269.4,23.6 270.4,22.7 C271.5,21.6 272.9,21.1 274.5,21.1 C276.4,21.1 277.9,21.6 278.9,22.7 C279.8,23.7 280.4,24.9 280.5,26.4 L268.3,26.4 Z" id="XMLID_445_"></path>
                <path d="M315.9,17 L315.9,17 C313.5,15 310.2,13.9 306.1,13.9 C303.5,13.9 301,14.5 298.8,15.6 C296.7,16.6 294.7,18.4 293.4,20.6 L293.5,20.7 L298.6,25.5 C300.7,22.2 303,21 306.1,21 C307.8,21 309.1,21.4 310.2,22.3 C311.2,23.2 311.8,24.3 311.8,25.7 L311.8,27.2 C309.8,26.6 307.9,26.3 306,26.3 C302.1,26.3 298.9,27.2 296.5,29 C294.1,30.8 292.9,33.5 292.9,36.9 C292.9,39.9 293.9,42.2 296,44 C298.1,45.7 300.6,46.6 303.6,46.6 C306.6,46.6 309.4,45.4 312,43.3 L312,45.9 L319.8,45.9 L319.8,25.7 C319.5,22 318.3,19 315.9,17 Z M301.9,34 C302.8,33.4 304.1,33.1 305.7,33.1 C307.6,33.1 309.6,33.5 311.7,34.2 L311.7,37.3 C310,38.9 307.7,39.7 304.9,39.7 C303.5,39.7 302.5,39.4 301.7,38.8 C301,38.2 300.6,37.5 300.6,36.5 C300.6,35.4 301,34.6 301.9,34 Z" id="XMLID_442_"></path>
                <path d="M349.9,17.6 C347.7,15.1 344.6,13.9 340.7,13.9 C337.6,13.9 335,14.8 333.1,16.6 L333.1,14.7 L325.4,14.7 L325.4,46 L333.3,46 L333.3,28.7 C333.3,26.3 333.9,24.4 335,23.1 C336.1,21.8 337.6,21.1 339.7,21.1 C341.5,21.1 342.8,21.7 343.8,22.9 C344.8,24.1 345.3,25.8 345.3,27.8 L345.3,46 L353.2,46 L353.2,27.8 C353.2,23.5 352.1,20 349.9,17.6 Z" id="XMLID_393_"></path>
                <path d="M155.5,17 L155.5,17 C153.1,15 149.8,13.9 145.7,13.9 C143.1,13.9 140.6,14.5 138.4,15.6 C136.3,16.6 134.3,18.4 133,20.6 L133.1,20.7 L138.2,25.5 C140.3,22.2 142.6,21 145.7,21 C147.4,21 148.7,21.4 149.8,22.3 C150.8,23.2 151.4,24.3 151.4,25.7 L151.4,27.2 C149.4,26.6 147.5,26.3 145.6,26.3 C141.7,26.3 138.5,27.2 136.1,29 C133.7,30.8 132.5,33.5 132.5,36.9 C132.5,39.9 133.5,42.2 135.6,44 C137.7,45.7 140.2,46.6 143.2,46.6 C146.2,46.6 149,45.4 151.6,43.3 L151.6,45.9 L159.4,45.9 L159.4,25.7 C159.1,22 157.9,19 155.5,17 Z M141.5,34 C142.4,33.4 143.7,33.1 145.3,33.1 C147.2,33.1 149.2,33.5 151.3,34.2 L151.3,37.3 C149.6,38.9 147.3,39.7 144.5,39.7 C143.1,39.7 142.1,39.4 141.3,38.8 C140.6,38.2 140.2,37.5 140.2,36.5 C140.2,35.4 140.6,34.6 141.5,34 Z" id="XMLID_320_"></path>
                <path d="M202,46.7 C189.3,46.7 179,36.4 179,23.7 C179,11 189.3,0.7 202,0.7 C214.7,0.7 225,11 225,23.7 C225,36.4 214.7,46.7 202,46.7 Z M202,8.8 C193.8,8.8 187.1,15.5 187.1,23.7 C187.1,31.9 193.8,38.6 202,38.6 C210.2,38.6 216.9,31.9 216.9,23.7 C216.9,15.5 210.2,8.8 202,8.8 Z" id="XMLID_235_"></path>
            </g>
        </g>
    </g>
</svg>