<?xml version="1.0" encoding="UTF-8"?>
<svg width="296px" height="172px" viewBox="0 0 296 172" version="1.1" xmlns="http://www.w3.org/2000/svg" xmlns:xlink="http://www.w3.org/1999/xlink">
    <!-- Generator: Sketch 44.1 (41455) - http://www.bohemiancoding.com/sketch -->
    <title>g14</title>
    <desc>Created with Sketch.</desc>
    <defs></defs>
    <g id="Page-1" stroke="none" stroke-width="1" fill="none" fill-rule="evenodd">
        <g id="DIID-logo" transform="translate(-57.000000, -47.000000)" fill-rule="nonzero">
            <g id="g10" transform="translate(197.000000, 132.166670) scale(-1, 1) rotate(-180.000000) translate(-197.000000, -132.166670) translate(0.000000, 0.666670)">
                <g id="g12">
                    <g id="g14-Clipped">
                        <g id="g14" transform="translate(55.999999, 42.666666)">
                            <g id="g20" transform="translate(1.734800, 1.264667)" fill="#2D2D2C">
                                <path d="M19.9999995,15.9999996 C19.9999995,20.1533328 18.9453329,23.2773328 16.8359996,25.3733327 C14.725333,27.470666 11.6279997,28.518666 7.54133314,28.518666 L2.20399994,28.518666 L2.20399994,3.08533326 L7.00533316,3.08533326 C15.6679996,3.08533326 19.9999995,7.38933315 19.9999995,15.9999996 M22.2026661,16.0799996 C22.2026661,11.2119997 20.9253328,7.53199981 18.3733329,5.03866654 C15.8199996,2.54533327 12.0706664,1.29999997 7.12399982,1.29999997 L0.181333329,1.29999997 L0.181333329,30.3039992 L8.01733313,30.3039992 C12.6466664,30.3039992 16.1679996,29.0933326 18.5813329,26.6733327 C20.9946661,24.2533327 22.2026661,20.7213328 22.2026661,16.0799996" id="path22"></path>
                            </g>
                            <polygon id="path24" fill="#2D2D2C" points="30.6026659 31.5679992 32.6266659 31.5679992 32.6266659 2.56399994 30.6026659 2.56399994"></polygon>
                            <g id="g26" transform="translate(38.182932, 2.043333)" fill="#2D2D2C">
                                <path d="M18.6666662,7.9999998 C18.6666662,5.57999986 17.7773329,3.66133324 15.9986663,2.24666661 C14.2199996,0.831999979 11.8546664,0.123999997 8.90533311,0.123999997 C5.3613332,0.123999997 2.64399993,0.514666654 0.751999981,1.29466663 L0.751999981,3.31866658 C2.84133326,2.43199994 5.50666653,1.98933328 8.74666645,1.98933328 C11.1279997,1.98933328 13.0159997,2.5346666 14.4106663,3.62533324 C15.8066663,4.71599988 16.5039996,6.14799985 16.5039996,7.9199998 C16.5039996,9.01866644 16.2733329,9.92799975 15.8093329,10.6479997 C15.3466663,11.369333 14.593333,12.0266664 13.5479997,12.6226664 C12.5039997,13.217333 10.9693331,13.8586663 8.94533311,14.5466663 C5.98266652,15.5653329 3.9359999,16.6666662 2.80533326,17.8493329 C1.67466662,19.0333329 1.10933331,20.6106662 1.10933331,22.5813328 C1.10933331,24.750666 1.95866662,26.5199993 3.65866658,27.8879993 C5.3573332,29.2573326 7.54399981,29.9413326 10.2146664,29.9413326 C12.9399997,29.9413326 15.4986663,29.4253326 17.8933329,28.394666 L17.1586662,26.6479993 C14.7519996,27.6533326 12.4506664,28.1559993 10.2546664,28.1559993 C8.1119998,28.1559993 6.40666651,27.6599993 5.13599987,26.6679993 C3.86666657,25.6759994 3.23199992,24.3279994 3.23199992,22.6213328 C3.23199992,21.5493328 3.42666658,20.6706661 3.81733324,19.9826662 C4.20666656,19.2946662 4.84533321,18.6759995 5.73199986,18.1279995 C6.61733317,17.5786662 8.13866646,16.9213329 10.2946664,16.1533329 C12.5559997,15.3733329 14.2559996,14.6159996 15.3933329,13.8826663 C16.5306663,13.1479997 17.3599996,12.3146664 17.8826662,11.3826664 C18.4053329,10.4506664 18.6666662,9.32266643 18.6666662,7.9999998" id="path28"></path>
                            </g>
                            <g id="g30" transform="translate(58.538532, 2.564000)" fill="#2D2D2C">
                                <polygon id="path32" points="11.9999997 0 9.95599975 0 9.95599975 27.0999993 0.53333332 27.0999993 0.53333332 29.0039993 21.4239995 29.0039993 21.4239995 27.0999993 11.9999997 27.0999993"></polygon>
                            </g>
                            <g id="g34" transform="translate(83.623865, 2.280533)" fill="#2D2D2C">
                                <path d="M2.6666666,14.6666663 L8.20266646,14.6666663 C10.6493331,14.6666663 12.5466664,15.2119996 13.8959997,16.3039996 C15.245333,17.3946662 15.9186663,19.0053329 15.9186663,21.1346661 C15.9186663,23.3426661 15.2586663,24.9493327 13.9359997,25.954666 C12.613333,26.9599993 10.4573331,27.462666 7.46799981,27.462666 L2.6666666,27.462666 L2.6666666,14.6666663 Z M2.6666666,12.921333 L2.6666666,0.283999993 L0.642666651,0.283999993 L0.642666651,29.2879993 L7.54666648,29.2879993 C11.1453331,29.2879993 13.8026663,28.622666 15.5226663,27.294666 C17.2413329,25.9653327 18.1013329,23.9639994 18.1013329,21.2933328 C18.1013329,19.3479995 17.5893329,17.7079996 16.5639996,16.3733329 C15.5386663,15.037333 13.981333,14.0786663 11.8919997,13.4959997 L19.7679995,0.283999993 L17.3479996,0.283999993 L9.86799975,12.921333 L2.6666666,12.921333 Z" id="path36"></path>
                            </g>
                            <polygon id="path38" fill="#2D2D2C" points="108.410664 31.5679992 110.434664 31.5679992 110.434664 2.56399994 108.410664 2.56399994"></polygon>
                            <g id="g40" transform="translate(118.004930, 2.201200)" fill="#2D2D2C">
                                <path d="M2.6666666,14.6666663 L2.6666666,2.14799995 L9.49066643,2.14799995 C14.861333,2.14799995 17.5453329,4.33066656 17.5453329,8.69466645 C17.5453329,12.6759997 14.7159996,14.6666663 9.05466644,14.6666663 L2.6666666,14.6666663 Z M2.6666666,16.4519996 L9.05466644,16.4519996 C11.7799997,16.4519996 13.7599997,16.9053329 14.9959996,17.8106662 C16.2333329,18.7173329 16.8519996,20.1359995 16.8519996,22.0666661 C16.8519996,23.9973327 16.1533329,25.3999994 14.7586663,26.2719993 C13.3626663,27.1453327 11.2839997,27.5813326 8.51866645,27.5813326 L2.6666666,27.5813326 L2.6666666,16.4519996 Z M0.642666651,29.3666659 L8.59866645,29.3666659 C12.1826664,29.3666659 14.8146663,28.7586659 16.4946663,27.542666 C18.1746662,26.3253327 19.0133329,24.4866661 19.0133329,22.0266661 C19.0133329,20.3466662 18.5013329,18.9479995 17.4759996,17.8306662 C16.4519996,16.7133329 14.953333,15.9959996 12.9826663,15.6786663 L12.9826663,15.5599996 C15.297333,15.2159996 16.9999996,14.485333 18.0919995,13.3666663 C19.1826662,12.249333 19.7279995,10.6919997 19.7279995,8.69466645 C19.7279995,6.02399985 18.8413329,3.96666657 17.0693329,2.52533327 C15.297333,1.08399997 12.7839997,0.362666658 9.53066643,0.362666658 L0.642666651,0.362666658 L0.642666651,29.3666659 Z" id="path42"></path>
                            </g>
                            <g id="g44" transform="translate(142.781330, 0.901733)" fill="#2D2D2C">
                                <path d="M22.6666661,30.6666659 L22.6666661,11.8986664 C22.6666661,8.56666645 21.7013328,5.95999985 19.7706662,4.08266656 C17.8386662,2.20399994 15.1479996,1.2653333 11.6959997,1.2653333 C8.33599979,1.2653333 5.71466652,2.20799994 3.82933324,4.0919999 C1.94533328,5.97733318 1.00266664,8.60533312 1.00266664,11.9786664 L1.00266664,30.6666659 L3.04666659,30.6666659 L3.04666659,11.8986664 C3.04666659,9.10799977 3.8199999,6.93599983 5.36666653,5.3813332 C6.91466649,3.8279999 9.10399977,3.05066659 11.933333,3.05066659 C14.6986663,3.05066659 16.8399996,3.81466657 18.3613329,5.34266653 C19.8826662,6.86933316 20.6426662,8.98933311 20.6426662,11.701333 L20.6426662,30.6666659 L22.6666661,30.6666659 Z" id="path46"></path>
                            </g>
                            <g id="g48" transform="translate(168.902396, 2.564000)" fill="#2D2D2C">
                                <polygon id="path50" points="11.9999997 0 9.95599975 0 9.95599975 27.0999993 0.53333332 27.0999993 0.53333332 29.0039993 21.4239995 29.0039993 21.4239995 27.0999993 11.9999997 27.0999993"></polygon>
                            </g>
                            <g id="g52" transform="translate(194.482262, 2.564000)" fill="#2D2D2C">
                                <polygon id="path54" points="15.9999996 0 0.14933333 0 0.14933333 29.0039993 15.9999996 29.0039993 15.9999996 27.1399993 2.17199995 27.1399993 2.17199995 16.1693329 15.2266663 16.1693329 15.2266663 14.3039996 2.17199995 14.3039996 2.17199995 1.86533329 15.9999996 1.86533329"></polygon>
                            </g>
                            <g id="g56" transform="translate(216.867995, 1.264667)" fill="#2D2D2C">
                                <path d="M19.9999995,15.9999996 C19.9999995,20.1533328 18.9453329,23.2773328 16.8359996,25.3733327 C14.7266663,27.470666 11.6279997,28.518666 7.54133314,28.518666 L2.20399994,28.518666 L2.20399994,3.08533326 L7.00533316,3.08533326 C15.6679996,3.08533326 19.9999995,7.38933315 19.9999995,15.9999996 M22.2026661,16.0799996 C22.2026661,11.2119997 20.9253328,7.53199981 18.3733329,5.03866654 C15.8199996,2.54533327 12.0706664,1.29999997 7.12399982,1.29999997 L0.181333329,1.29999997 L0.181333329,30.3039992 L8.01733313,30.3039992 C12.6466664,30.3039992 16.1679996,29.0933326 18.5813329,26.6733327 C20.9946661,24.2533327 22.2026661,20.7213328 22.2026661,16.0799996" id="path58"></path>
                            </g>
                            <polygon id="path60" fill="#2D2D2C" points="256.29066 31.5679992 258.31466 31.5679992 258.31466 2.56399994 256.29066 2.56399994"></polygon>
                            <g id="g62" transform="translate(266.346127, 1.264667)" fill="#2D2D2C">
                                <path d="M19.9999995,15.9999996 C19.9999995,20.1533328 18.9453329,23.2773328 16.8359996,25.3733327 C14.7266663,27.470666 11.6279997,28.518666 7.54133314,28.518666 L2.20399994,28.518666 L2.20399994,3.08533326 L7.00533316,3.08533326 C15.6679996,3.08533326 19.9999995,7.38933315 19.9999995,15.9999996 M22.2026661,16.0799996 C22.2026661,11.2119997 20.9253328,7.53199981 18.3733329,5.03866654 C15.8199996,2.54533327 12.0706664,1.29999997 7.12399982,1.29999997 L0.181333329,1.29999997 L0.181333329,30.3039992 L8.01733313,30.3039992 C12.6466664,30.3039992 16.1679996,29.0933326 18.5813329,26.6733327 C20.9946661,24.2533327 22.2026661,20.7213328 22.2026661,16.0799996" id="path64"></path>
                            </g>
                            <polygon id="path66" fill="#076534" points="155.547996 173.377329 173.750662 173.377329 173.750662 57.9879986 155.547996 57.9879986"></polygon>
                            <g id="g68" transform="translate(199.743995, 57.178799)" fill="#076534">
                                <path d="M78.6666647,58.6666652 C78.6666647,64.7333317 77.8266647,70.3119982 76.1479981,75.4066648 C74.4666648,80.4973313 72.0039982,84.8573312 68.7533316,88.4893311 C65.502665,92.1186644 61.5466651,94.9626643 56.8893319,97.0213309 C52.229332,99.0786642 46.9199988,100.109331 40.9626656,100.109331 L18.2093329,100.109331 L18.2093329,16.8986662 L40.9626656,16.8986662 C47.0279988,16.8986662 52.4199987,17.9559996 57.1333319,20.0679995 C61.8466651,22.1813328 65.7999984,25.106666 68.9973316,28.8439993 C72.1919982,32.5826659 74.6039981,36.9959991 76.2293314,42.0893323 C77.8546647,47.1813322 78.6666647,52.7066653 78.6666647,58.6666652 L78.6666647,58.6666652 Z M0.0066666665,0.809333313 L0.0066666665,116.198664 L40.9626656,116.198664 C50.2799987,116.198664 58.4333319,114.679997 65.4213317,111.647997 C72.4093315,108.613331 78.259998,104.497331 82.9733313,99.2973309 C87.6866645,94.0959976 91.2346644,88.0013311 93.6186643,81.0133313 C96.0013309,74.0253315 97.1933309,66.574665 97.1933309,58.6666652 C97.1933309,49.8906654 95.8653309,41.9533323 93.2119977,34.8573325 C90.5559977,27.7599993 86.7933312,21.6933328 81.9173313,16.6559996 C77.0413314,11.617333 71.1346649,7.71733314 64.2026651,4.95333321 C57.2679986,2.19066661 49.5199988,0.809333313 40.9626656,0.809333313 L0.0066666665,0.809333313 Z" id="path70"></path>
                            </g>
                            <g id="g72" transform="translate(0.876800, 57.178532)" fill="#3C3C3C">
                                <path d="M83.9999979,58.6666652 C83.9999979,65.598665 83.0253313,71.9653315 81.0746646,77.7626647 C79.123998,83.5573312 76.2799981,88.5706645 72.5426649,92.7959977 C68.8039983,97.0213309 64.2253317,100.297331 58.8093319,102.627997 C53.3906653,104.957331 47.1613322,106.122664 40.119999,106.122664 L12.329333,106.122664 L12.329333,10.8853331 L40.119999,10.8853331 C47.2706655,10.8853331 53.581332,12.105333 59.0533319,14.5426663 C64.5226651,16.9799996 69.1013316,20.3373328 72.7866648,24.6186661 C76.4679981,28.8973326 79.2586647,33.9359992 81.155998,39.7333323 C83.0506646,45.5279989 83.9999979,51.841332 83.9999979,58.6666652 L83.9999979,58.6666652 Z M0.951999976,0.809333313 L0.951999976,116.198664 L40.119999,116.198664 C49.3279988,116.198664 57.3719986,114.679997 64.2533317,111.647997 C71.1333316,108.613331 76.8746647,104.497331 81.4813313,99.2973309 C86.0853312,94.0959976 89.5506644,88.0013311 91.8826644,81.0133313 C94.2106643,74.0253315 95.3759976,66.574665 95.3759976,58.6666652 C95.3759976,49.8906654 94.0759976,41.9533323 91.4759977,34.8573325 C88.8759978,27.7599993 85.1626645,21.6933328 80.3426647,16.6559996 C75.5213314,11.617333 69.7239983,7.71733314 62.9533318,4.95333321 C56.1813319,2.19066661 48.5706655,0.809333313 40.119999,0.809333313 L0.951999976,0.809333313 Z" id="path74"></path>
                            </g>
                            <polygon id="path76" fill="#3C3C3C" points="118.030664 173.377329 129.406663 173.377329 129.406663 57.9879986 118.030664 57.9879986"></polygon>
                        </g>
                    </g>
                </g>
            </g>
        </g>
    </g>
</svg>