<?xml version="1.0" encoding="UTF-8"?>
<svg width="481px" height="130px" viewBox="0 0 481 130" version="1.1" xmlns="http://www.w3.org/2000/svg" xmlns:xlink="http://www.w3.org/1999/xlink">
    <!-- Generator: Sketch 44.1 (41455) - http://www.bohemiancoding.com/sketch -->
    <title>github-logo</title>
    <desc>Created with Sketch.</desc>
    <defs></defs>
    <g id="Page-1" stroke="none" stroke-width="1" fill="none" fill-rule="evenodd">
        <g id="github-logo" fill-rule="nonzero" fill="#100E0F">
            <path d="M92.5,55.6 L52.1,55.6 C51.1,55.6 50.2,56.4 50.2,57.5 L50.2,77.2 C50.2,78.2 51,79.1 52.1,79.1 L67.8,79.1 L67.8,103.6 C67.8,103.6 64.3,104.8 54.5,104.8 C43,104.8 26.9,100.6 26.9,65.2 C26.9,29.8 43.7,25.1 59.4,25.1 C73,25.1 78.9,27.5 82.6,28.7 C83.8,29.1 84.9,27.9 84.9,26.8 L89.4,7.7 C89.4,7.2 89.2,6.6 88.7,6.2 C87.2,5.2 78,0 54.6,0 C27.6,0 0,11.5 0,66.6 C0,121.7 31.6,129.9 58.3,129.9 C80.4,129.9 93.8,120.5 93.8,120.5 C94.4,120.2 94.4,119.4 94.4,119.1 L94.4,57.5 C94.4,56.4 93.5,55.6 92.5,55.6 Z" id="Shape"></path>
            <path d="M300.5,6.6 C300.5,5.6 299.7,4.7 298.6,4.7 L275.9,4.7 C274.9,4.7 274,5.5 274,6.6 C274,6.6 274,50.5 274,50.5 L238.6,50.5 L238.6,6.6 C238.6,5.6 237.8,4.7 236.7,4.7 L214,4.7 C213,4.7 212.1,5.5 212.1,6.6 L212.1,125.5 C212.1,126.5 212.9,127.4 214,127.4 L236.7,127.4 C237.7,127.4 238.6,126.5 238.6,125.5 L238.6,74.6 L274,74.6 C274,74.6 273.9,125.5 273.9,125.5 C273.9,126.5 274.7,127.4 275.8,127.4 L298.6,127.4 C299.6,127.4 300.5,126.5 300.5,125.5 L300.5,6.6 L300.5,6.6 Z" id="Shape"></path>
            <g id="Group" transform="translate(106.000000, 7.000000)">
                <path d="M29.4,15.2 C29.4,7 22.8,0.4 14.7,0.4 C6.6,0.4 0.1,7 0.1,15.2 C0.1,23.4 6.7,30 14.7,30 C22.8,30 29.4,23.4 29.4,15.2 Z" id="Shape"></path>
                <path d="M27.8,93.4 C27.8,90.4 27.8,38.5 27.8,38.5 C27.8,37.5 27,36.6 25.9,36.6 L3.2,36.6 C2.2,36.6 1.2,37.7 1.2,38.7 C1.2,38.7 1.2,104.7 1.2,117.3 C1.2,119.6 2.6,120.3 4.5,120.3 C4.5,120.3 14.2,120.3 24.9,120.3 C27.1,120.3 27.7,119.2 27.7,117.3 C27.8,113.1 27.8,96.6 27.8,93.4 Z" id="Shape"></path>
            </g>
            <path d="M386.8,43.8 L364.3,43.8 C363.3,43.8 362.4,44.7 362.4,45.7 L362.4,104 C362.4,104 356.7,108.2 348.5,108.2 C340.4,108.2 338.2,104.5 338.2,96.5 C338.2,88.5 338.2,45.7 338.2,45.7 C338.2,44.7 337.4,43.8 336.3,43.8 L313.4,43.8 C312.4,43.8 311.5,44.7 311.5,45.7 C311.5,45.7 311.5,76.7 311.5,100.4 C311.5,124 324.7,129.8 342.8,129.8 C357.7,129.8 369.7,121.6 369.7,121.6 C369.7,121.6 370.3,125.9 370.5,126.4 C370.8,126.9 371.4,127.4 372.2,127.4 L386.8,127.3 C387.8,127.3 388.7,126.4 388.7,125.4 L388.7,45.6 C388.7,44.7 387.9,43.8 386.8,43.8 Z" id="Shape"></path>
            <path d="M448.5,41.2 C435.7,41.2 427,46.9 427,46.9 L427,6.6 C427,5.6 426.2,4.7 425.1,4.7 L402.3,4.7 C401.3,4.7 400.4,5.5 400.4,6.6 L400.4,125.5 C400.4,126.5 401.2,127.4 402.3,127.4 C402.3,127.4 418.1,127.4 418.1,127.4 C418.8,127.4 419.4,127 419.7,126.4 C420.1,125.8 420.7,120.9 420.7,120.9 C420.7,120.9 430,129.7 447.7,129.7 C468.4,129.7 480.3,119.2 480.3,82.5 C480.2,45.9 461.3,41.2 448.5,41.2 Z M439.6,108.1 C431.8,107.9 426.5,104.3 426.5,104.3 L426.5,66.7 C426.5,66.7 431.7,63.5 438.2,62.9 C446.3,62.2 454.1,64.6 454.1,84 C454,104.4 450.5,108.5 439.6,108.1 Z" id="Shape"></path>
            <path d="M199.1,43.6 L182.1,43.6 C182.1,43.6 182.1,21.1 182.1,21.1 C182.1,20.2 181.7,19.8 180.7,19.8 L157.5,19.8 C156.6,19.8 156.1,20.2 156.1,21.1 L156.1,44.4 C156.1,44.4 144.5,47.2 143.7,47.4 C142.9,47.6 142.3,48.4 142.3,49.2 L142.3,63.8 C142.3,64.9 143.1,65.7 144.2,65.7 L156.1,65.7 C156.1,65.7 156.1,81 156.1,100.9 C156.1,127 174.4,129.6 186.8,129.6 C192.5,129.6 199.2,127.8 200.3,127.4 C201,127.2 201.4,126.5 201.4,125.7 L201.4,109.6 C201.4,108.6 200.5,107.7 199.5,107.7 C198.5,107.7 196,108.1 193.3,108.1 C184.9,108.1 182.1,104.2 182.1,99.2 C182.1,94.2 182.1,65.8 182.1,65.8 L199.1,65.8 C200.1,65.8 201,65 201,63.9 L201,45.5 C200.9,44.5 200.1,43.6 199.1,43.6 Z" id="Shape"></path>
        </g>
    </g>
</svg>