<?xml version="1.0" encoding="UTF-8"?>
<svg width="1804px" height="440px" viewBox="0 0 1804 440" version="1.1" xmlns="http://www.w3.org/2000/svg" xmlns:xlink="http://www.w3.org/1999/xlink">
    <!-- Generator: Sketch 44.1 (41455) - http://www.bohemiancoding.com/sketch -->
    <title>Group</title>
    <desc>Created with Sketch.</desc>
    <defs></defs>
    <g id="Page-1" stroke="none" stroke-width="1" fill="none" fill-rule="evenodd">
        <g id="Launch-Academy-Logo-Color" transform="translate(-88.000000, -77.000000)">
            <g id="Group" transform="translate(88.000000, 77.000000)">
                <path d="M419.0833,219.6289 C419.0833,329.4836 330.0274,418.53948 220.1771,418.53948 C110.318,418.53948 21.2665,329.4836 21.2665,219.6289 C21.2665,109.7742 110.318,20.7183 220.1771,20.7183 C330.0274,20.7183 419.0833,109.7742 419.0833,219.6289" id="Fill-3" fill="#FFA312"></path>
                <path d="M321.1253,116.401 C321.1253,116.401 246.7742,137.8598 168.419,238.2809 C167.6446,238.3205 141.6495,239.0201 141.6495,239.0201 L149.8819,222.8941 C149.8819,222.8941 114.0967,237.4053 90.5743,284.5028 C89.1751,296.2376 105.8863,275.5929 105.8863,275.5929 L142.6527,275.0781 L139.3747,304.9716 L144.5315,307.2508 L147.2067,312.2272 L176.7746,306.6788 L179.045,343.388 C179.045,343.388 159.7598,361.626 171.3406,359.3688 C216.5066,332.278 228.237,295.4852 228.237,295.4852 L212.7886,304.954 C212.7886,304.954 211.4994,278.9852 211.4994,278.1845 C305.6593,192.4285 321.3981,116.6518 321.3981,116.6518" id="Fill-5" fill="#FFFFFF"></path>
                <path d="M302.7606,137.0216 C302.7606,137.0216 200.0427,173.5988 150.3095,296.8206 C149.8695,296.429 177.4751,248.9707 200.4871,225.9675 C223.4815,202.9643 302.7606,137.0216 302.7606,137.0216" id="Fill-6" fill="#FFA312"></path>
                <path d="M220.108,414.2301 C113.0033,414.2301 25.857,327.097 25.857,219.9967 C25.857,112.8876 113.0033,25.7633 220.108,25.7633 C327.2038,25.7633 414.3458,112.8876 414.3458,219.9967 C414.3458,327.097 327.2038,414.2301 220.108,414.2301 M439.6545,219.9967 L439.6545,219.7503 L439.6545,219.4951 C439.6545,215.0335 436.7769,211.2407 432.7729,209.8371 C436.6449,208.0375 439.1221,203.9939 438.7041,199.5499 C438.3037,195.0927 435.1093,191.586 431.0173,190.5476 C434.6693,188.4224 436.7769,184.1456 435.9717,179.7808 C435.1313,175.3852 431.6685,172.138 427.4841,171.4868 C430.9337,169.036 432.6497,164.6008 431.4353,160.3064 C430.2077,156.0076 426.4325,153.0992 422.2086,152.8352 C425.4249,150.0896 426.7229,145.496 425.1301,141.3292 C423.5286,137.1316 419.5158,134.6236 415.283,134.7292 C418.209,131.7152 419.0978,127.038 417.1398,123.0208 C415.1598,119.0168 410.9226,116.8652 406.7206,117.3536 C409.365,114.0712 409.8094,109.3456 407.473,105.5176 C405.1586,101.7116 400.7278,99.9648 396.583,100.8184 C398.9414,97.3204 398.959,92.5641 396.2706,88.9737 C393.5998,85.4009 389.081,84.0501 385.0198,85.2953 C387.0394,81.5905 386.6038,76.8473 383.6602,73.5253 C380.6726,70.1901 375.9646,69.2749 372.0794,70.8677 C373.7602,66.9913 372.9154,62.3009 369.6814,59.2693 C366.3594,56.2245 361.6558,55.7141 357.907,57.6721 C359.2182,53.6373 357.951,49.0657 354.4178,46.3201 C350.8934,43.5745 346.1458,43.5173 342.6038,45.7965 C343.5366,41.6825 341.8514,37.2341 338.1114,34.8405 C334.3362,32.4029 329.5798,32.7637 326.2403,35.3597 C326.8078,31.1797 324.7399,26.8941 320.7711,24.8525 C316.7803,22.8021 312.1119,23.5809 309.0231,26.4893 C309.2123,22.2521 306.7571,18.1821 302.5903,16.4837 C298.4543,14.8117 293.8475,16.0305 291.0491,19.1765 C290.8423,14.9657 288.0263,11.1333 283.7407,9.8353 C279.4683,8.5329 275.0155,10.1565 272.4987,13.5709 C271.9047,9.3909 268.7543,5.8137 264.3763,4.9337 C259.9895,4.0097 255.7083,6.0645 253.5171,9.6901 C252.5535,5.5541 249.0995,2.3113 244.6467,1.8141 C240.2159,1.3081 236.1107,3.7413 234.2495,7.5297 C232.9251,3.5301 229.1808,0.5953 224.706,0.5117 C220.2576,0.4193 216.3768,3.1825 214.894,7.1293 C213.2088,3.2573 209.24,0.6613 204.7564,0.9737 C200.2948,1.2861 196.7044,4.3881 195.5648,8.4757 C193.532,4.7621 189.3212,2.5445 184.93,3.2573 C180.5036,3.9657 177.208,7.3845 176.46,11.5557 C174.0928,8.0533 169.6884,6.2405 165.3632,7.3405 C161.0248,8.4537 158.0504,12.1629 157.6764,16.3693 C154.9924,13.0957 150.4428,11.7009 146.2496,13.2057 C142.0608,14.6929 139.3944,18.6573 139.4208,22.8813 C136.4552,19.8673 131.7957,18.8817 127.7521,20.7693 C123.7217,22.6481 121.4513,26.8413 121.8429,31.0565 C118.6221,28.3065 113.9053,27.7521 110.0553,30.0049 C106.1789,32.2577 104.3309,36.6445 105.0921,40.7893 C101.6337,38.3605 96.8773,38.2329 93.2561,40.8069 C89.5865,43.3985 88.1433,47.9129 89.3005,51.9741 C85.6089,49.8797 80.8701,50.1745 77.4821,53.0873 C74.0809,56.0001 73.0557,60.6509 74.5517,64.5845 C70.7193,62.8245 66.0289,63.5373 62.9181,66.7625 C59.7765,69.9437 59.1693,74.6781 61.0569,78.4753 C57.0529,77.0497 52.4329,78.1981 49.6037,81.6785 C46.7877,85.1457 46.6205,89.8889 48.8205,93.5101 C44.7197,92.4541 40.2317,94.0249 37.7413,97.7384 C35.251,101.452 35.4974,106.1996 38.0009,109.592 C33.8254,108.9188 29.5134,110.8944 27.375,114.8192 C25.219,118.7484 25.9054,123.4388 28.7258,126.6024 C24.5018,126.2944 20.3482,128.666 18.6014,132.78 C16.7974,136.872 17.9282,141.4964 21.0302,144.3784 C16.7974,144.5016 12.8814,147.2076 11.48658,151.4668 C10.10498,155.7216 11.60097,160.2008 14.9714,162.7924 C10.76498,163.2984 7.12178,166.3564 6.11418,170.708 C5.13298,175.0816 7.05138,179.4288 10.63738,181.686 C6.49258,182.5484 3.13978,185.954 2.54138,190.376 C1.93858,194.8111 4.27938,198.9427 8.01938,200.9007 C3.98018,202.1283 0.98379,205.7935 0.77259,210.2771 C0.60539,214.7387 3.28938,218.6547 7.17018,220.2431 C3.28938,221.8403 0.60539,225.7739 0.81659,230.2311 C1.00579,234.7015 4.03298,238.3579 8.10738,239.5811 C4.32338,241.5303 2.00898,245.6927 2.62498,250.1147 C3.23658,254.5367 6.56298,257.9291 10.72538,258.7915 C7.16138,261.0663 5.23418,265.4047 6.23298,269.7871 C7.24938,274.1211 10.87938,277.1879 15.099,277.6807 C11.72857,280.2723 10.24138,284.7691 11.62297,289.0019 C13.0486,293.2566 16.9426,295.9758 21.1842,296.0594 C18.1042,298.9546 17.0086,303.5834 18.7642,307.6842 C20.5902,311.7586 24.713,314.1214 28.9238,313.8046 C26.1078,316.977 25.4346,321.6982 27.6038,325.5966 C29.751,329.5302 34.0762,331.475 38.2429,330.8018 C35.7306,334.1942 35.5238,338.9374 38.0009,342.6554 C40.5045,346.3558 45.0013,347.9178 49.0977,346.8662 C46.9197,350.461 47.1045,355.2306 49.9293,358.6934 C52.7585,362.165 57.3785,363.3002 61.3473,361.879 C59.4949,365.663 60.0977,370.3974 63.2525,373.5786 C66.3765,376.7686 71.0757,377.499 74.9081,375.7258 C73.4033,379.6594 74.4461,384.3102 77.8429,387.2097 C81.2529,390.1093 85.9873,390.4041 89.6525,388.2745 C88.5217,392.3709 89.9869,396.8765 93.6345,399.4549 C97.2777,402.0333 102.0517,401.9013 105.4881,399.4549 C104.7137,403.6085 106.5749,408.0041 110.4513,410.2261 C114.3277,412.4789 119.0797,411.8893 122.2873,409.1613 C121.9001,413.3589 124.1529,417.54772 128.1921,419.43092 C132.2665,421.29651 136.9128,420.31532 139.8784,417.25732 C139.8784,421.50771 142.5184,425.46331 146.7292,426.97691 C150.9532,428.45971 155.472,427.03851 158.134,423.74291 C158.53,427.96251 161.5132,431.6673 165.8648,432.7717 C170.1856,433.8629 174.5636,432.0545 176.9264,428.52131 C177.6964,432.6793 181.0008,436.0937 185.4272,436.8197 C189.836,437.5105 194.038,435.2973 196.0664,431.5617 C197.1972,435.6493 200.8008,438.7381 205.258,439.0417 C209.7196,439.3409 213.7104,436.7405 215.3736,432.8773 C216.8828,436.8197 220.7812,439.5829 225.2296,439.4597 L225.2296,439.4905 C229.6823,439.3805 233.4311,436.4237 234.7379,432.4373 C236.6255,436.2213 240.6999,438.6281 245.1483,438.1265 C249.5879,437.6073 253.0551,434.3425 254.0187,430.2373 C256.1879,433.8321 260.4911,435.8517 264.8691,434.9629 C269.2383,434.0477 272.3887,430.5013 272.9959,426.30371 C275.4995,429.69611 279.9611,431.3329 284.2423,430.01731 C288.5279,428.71931 291.3219,424.86491 291.5111,420.64091 C294.3271,423.78691 298.9383,424.98371 303.0919,423.29851 C307.2015,421.61771 309.6479,417.54772 309.4631,413.3149 C312.5519,416.2013 317.2203,416.9845 321.2155,414.9341 C325.1711,412.8353 327.2434,408.5541 326.6362,404.3741 C329.9758,406.9789 334.7322,407.3177 338.4898,404.9197 C342.2518,402.5041 343.915,398.0293 342.9734,393.9241 C346.5242,396.1813 351.285,396.1021 354.7962,393.3741 C358.3382,390.6109 359.5702,386.0306 358.2766,382.0178 C362.0122,383.967 366.7378,383.4566 369.9894,380.4162 C373.263,377.3538 374.0946,372.6634 372.3874,368.7914 C376.3518,370.371 380.9894,369.4382 383.9506,366.1074 C386.9382,362.7766 387.3562,358.0422 385.3014,354.3374 C389.3538,355.5694 393.8902,354.2098 396.583,350.6282 C399.2318,347.029 399.2098,342.2594 396.8338,338.7614 C401.0006,339.6326 405.3874,337.8594 407.7238,334.049 C410.0602,330.2254 409.5806,325.4954 406.9054,322.2174 C411.1294,322.6838 415.3798,320.5542 417.351,316.5238 C419.331,312.4934 418.407,307.825 415.4634,304.8022 C419.683,304.9078 423.7397,302.3778 425.3369,298.1978 C426.9121,293.9914 425.5877,289.4287 422.3758,286.7007 C426.5953,286.4103 430.3573,283.5195 431.5805,279.2119 C432.7729,274.8955 431.0349,270.4779 427.5897,268.0447 C431.7697,267.3539 435.2589,264.1331 436.0729,259.7331 C436.8561,255.3287 434.7309,251.0915 431.0569,248.9707 C435.1533,247.9279 438.3477,244.4035 438.7657,239.9331 C439.1397,235.5023 436.6669,231.4543 432.7993,229.6723 C436.8209,228.2731 439.6545,224.4627 439.6545,219.9967" id="Fill-4" fill="#FFA312"></path>
                <path d="M648.8756,150.9542 C651.3352,150.9542 653.1216,152.7406 653.1216,155.4246 L653.1216,177.539 C653.1216,179.7698 651.3352,181.7806 648.8756,181.7806 L543.2053,181.7806 C540.9745,181.7806 539.8569,179.9986 539.8569,177.759 L539.8569,7.3075 C539.8569,5.0767 541.6433,3.066 544.1029,3.066 L567.3349,3.066 C569.7945,3.066 571.8009,5.0767 571.8009,7.3075 L571.8009,150.9542 L648.8756,150.9542 Z" id="Fill-7" fill="#FFA312"></path>
                <path d="M793.2096,124.3716 L763.9452,62.0413 L734.4564,124.3716 L793.2096,124.3716 Z M852.1871,176.868 C853.5247,179.552 852.6359,181.7828 849.5031,181.7828 L823.3671,181.7828 C821.1319,181.7828 819.7943,180.6696 818.8967,178.8788 L806.8364,153.4116 L720.8252,153.4116 L708.7649,178.8788 C707.8717,180.6696 706.3097,181.7828 704.2945,181.7828 L677.9341,181.7828 C675.2545,181.7828 673.6881,179.552 675.0301,176.868 L759.2504,4.1813 C760.148,2.6193 761.2612,1.9461 762.3832,1.9461 L765.0628,1.9461 C766.4004,1.9461 767.2936,2.6193 768.1868,4.1813 L852.1871,176.868 Z" id="Fill-8" fill="#FFA312"></path>
                <path d="M1005.464,2.8389 C1007.924,2.8389 1009.71,4.4053 1009.71,7.3093 L1009.71,116.7724 C1009.71,154.7488 983.125,183.3443 938.668,183.3443 C894.4347,183.3443 868.5231,154.7488 868.5231,116.7724 L868.5231,7.3093 C868.5231,4.6297 870.5295,2.8389 873.2135,2.8389 L896.2211,2.8389 C898.6807,2.8389 900.4671,4.6297 900.4671,7.3093 L900.4671,115.6548 C900.4671,138.6712 914.543,152.5224 938.668,152.5224 C963.022,152.5224 977.762,138.6712 977.762,115.6548 L977.762,7.3093 C977.762,4.4053 979.548,2.8389 982.008,2.8389 L1005.464,2.8389 Z" id="Fill-9" fill="#FFA312"></path>
                <path d="M1192.922,3.0647 C1195.157,3.0647 1197.392,5.0755 1197.392,7.3062 L1197.392,177.5377 C1197.392,179.7729 1195.601,181.7837 1193.146,181.7837 L1185.772,181.7837 C1179.739,181.7837 1173.263,177.5377 1165.224,168.6057 L1073.849,66.5082 L1073.849,177.3133 C1073.849,179.5485 1071.838,181.5593 1069.383,181.5593 L1046.596,181.7837 C1044.14,181.7837 1042.13,179.7729 1042.13,177.3133 L1042.13,7.3062 C1042.13,5.0755 1044.14,3.0647 1046.371,3.0647 L1059.554,3.0647 C1062.009,3.0647 1063.575,3.9579 1065.586,6.4174 L1165.444,120.7953 L1165.444,7.3062 C1165.444,5.0755 1167.235,3.0647 1169.69,3.0647 L1192.922,3.0647 Z" id="Fill-10" fill="#FFA312"></path>
                <path d="M1381.049,148.2729 C1383.285,150.0637 1383.285,152.2945 1381.274,154.3052 C1364.739,172.398 1341.282,183.3452 1314.477,183.3452 C1265.329,183.3452 1224.22,143.8025 1224.22,92.8725 C1224.22,42.1582 1265.329,1.5022 1314.477,1.5022 C1341.507,1.5022 1365.187,12.6694 1381.943,30.9866 C1383.953,32.9974 1383.729,35.237 1381.718,37.019 L1363.177,51.9922 C1360.946,53.7742 1358.935,53.5498 1357.144,51.539 C1347.539,41.4894 1332.57,32.3286 1314.697,32.3286 C1281.86,32.3286 1256.169,60.6997 1256.169,92.8725 C1256.169,125.4853 1281.86,152.5189 1314.697,152.5189 C1332.35,152.5189 1347.095,143.8025 1356.475,133.9729 C1358.486,131.9621 1360.497,131.7421 1362.728,133.3085 L1381.049,148.2729 Z" id="Fill-11" fill="#FFA312"></path>
                <path d="M1555.771,3.0647 C1558.231,3.0647 1560.241,5.0755 1560.241,7.3062 L1560.241,177.3133 C1560.241,179.9973 1558.451,181.7837 1556.22,181.7837 L1539.24,181.7837 C1532.09,181.7837 1528.069,176.8645 1528.069,170.3877 L1528.069,110.5213 L1442.286,110.5213 L1442.286,177.3133 C1442.286,179.5485 1440.496,181.7837 1438.04,181.7837 L1414.804,181.7837 C1412.349,181.7837 1410.338,179.7729 1410.338,177.3133 L1410.338,7.3062 C1410.338,5.0755 1412.129,3.0647 1414.584,3.0647 L1437.816,3.0647 C1440.276,3.0647 1442.286,5.0755 1442.286,7.3062 L1442.286,78.3486 L1528.069,78.3486 L1528.069,7.3062 C1528.069,5.0755 1529.855,3.0647 1532.535,3.0647 L1555.771,3.0647 Z" id="Fill-12" fill="#FFA312"></path>
                <path d="M635.8688,379.8851 L606.6001,317.5592 L577.1113,379.8851 L635.8688,379.8851 Z M694.842,432.38584 C696.184,435.06544 695.2908,437.30063 692.1624,437.30063 L666.0264,437.30063 C663.7912,437.30063 662.4536,436.18304 661.556,434.39664 L649.4956,408.9251 L563.4845,408.9251 L551.4241,434.39664 C550.5265,436.18304 548.9645,437.30063 546.9537,437.30063 L520.5933,437.30063 C517.9137,437.30063 516.3473,435.06544 517.6893,432.38584 L601.9097,259.6992 C602.8029,258.1328 603.9205,257.464 605.0381,257.464 L607.7221,257.464 C609.0596,257.464 609.9528,258.1328 610.846,259.6992 L694.842,432.38584 Z" id="Fill-13" fill="#FFA312"></path>
                <path d="M860.1872,403.7907 C862.4224,405.5771 862.4224,407.8123 860.4116,409.8187 C843.8765,427.91586 820.4201,438.86305 793.6153,438.86305 C744.463,438.86305 703.3582,399.3203 703.3582,348.3859 C703.3582,297.676 744.463,257.0156 793.6153,257.0156 C820.6445,257.0156 844.3253,268.1872 861.0804,286.5044 C863.0912,288.5152 862.8668,290.7504 860.856,292.5324 L842.3145,307.5056 C840.0837,309.2876 838.0729,309.0676 836.2821,307.0568 C826.6769,297.0028 811.7081,287.8464 793.8353,287.8464 C760.9981,287.8464 735.3066,316.2176 735.3066,348.3859 C735.3066,381.0031 760.9981,408.0323 793.8353,408.0323 C811.4881,408.0323 826.2325,399.3203 835.6133,389.4907 C837.6241,387.4799 839.6349,387.2555 841.8657,388.8219 L860.1872,403.7907 Z" id="Fill-14" fill="#FFA312"></path>
                <path d="M998.274,379.8851 L969.005,317.5592 L939.516,379.8851 L998.274,379.8851 Z M1057.247,432.38584 C1058.589,435.06544 1057.696,437.30063 1054.567,437.30063 L1028.431,437.30063 C1026.196,437.30063 1024.858,436.18304 1023.961,434.39664 L1011.9,408.9251 L925.889,408.9251 L913.829,434.39664 C912.936,436.18304 911.3693,437.30063 909.3585,437.30063 L882.9981,437.30063 C880.3185,437.30063 878.7521,435.06544 880.0941,432.38584 L964.314,259.6992 C965.208,258.1328 966.325,257.464 967.443,257.464 L970.127,257.464 C971.464,257.464 972.358,258.1328 973.251,259.6992 L1057.247,432.38584 Z" id="Fill-15" fill="#FFA312"></path>
                <path d="M1143.729,406.4698 C1180.592,406.4698 1202.707,377.6543 1202.487,347.0479 C1202.487,316.8859 1181.485,289.4124 1143.729,289.4124 L1112.009,289.4124 L1112.229,406.4698 L1143.729,406.4698 Z M1143.729,258.5772 C1201.813,258.5772 1235.548,305.2699 1235.548,347.2679 C1235.548,394.8539 1201.589,437.30061 1143.729,437.30061 L1084.756,437.30061 C1082.296,437.30061 1080.286,435.28981 1080.286,432.83022 L1080.286,262.8276 C1080.286,260.588 1082.072,258.5772 1084.527,258.5772 L1143.729,258.5772 Z" id="Fill-16" fill="#FFA312"></path>
                <path d="M1296.558,289.4102 L1296.558,334.3165 L1340.347,334.3165 C1342.802,334.3165 1344.813,336.3273 1344.813,338.7825 L1344.813,360.8969 C1344.813,363.5765 1343.026,365.1385 1340.347,365.1385 L1296.782,365.1385 L1296.782,406.4676 L1377.879,406.4676 C1380.334,406.4676 1382.345,408.4828 1382.345,410.938 L1382.345,432.83242 C1382.345,435.28761 1380.334,437.29841 1377.879,437.29841 L1269.08,437.29841 C1266.625,437.29841 1264.614,435.28761 1264.614,432.83242 L1264.614,262.8254 C1264.614,260.5902 1266.4,258.5794 1268.86,258.5794 L1377.879,258.5794 C1380.334,258.5794 1382.345,260.5902 1382.345,262.8254 L1382.345,285.1642 C1382.345,287.6194 1380.334,289.4102 1377.879,289.4102 L1296.558,289.4102 Z" id="Fill-17" fill="#FFA312"></path>
                <path d="M1613.581,258.5781 C1616.036,258.5781 1618.047,260.5889 1618.047,262.8241 L1618.047,432.83112 C1618.047,435.06192 1616.26,437.30152 1613.805,437.30152 L1590.793,437.30152 C1588.109,437.30152 1586.327,435.29072 1586.327,432.83112 L1586.327,324.4856 L1521.093,427.69193 C1519.755,429.92712 1518.413,430.82032 1516.403,430.82032 L1515.061,430.82032 C1513.05,430.82032 1511.712,429.92712 1510.37,427.69193 L1445.36,324.2612 L1445.36,432.83112 C1445.36,435.06192 1443.354,437.30152 1440.894,437.30152 L1417.882,437.30152 C1415.427,437.30152 1413.416,435.29072 1413.416,432.83112 L1413.416,262.8241 C1413.416,260.5889 1415.203,258.5781 1417.882,258.5781 L1437.097,258.5781 C1439.328,258.5781 1440.894,259.4713 1442.232,261.4821 L1515.734,377.6508 L1589.456,261.4821 C1590.569,259.4713 1592.131,258.5781 1594.59,258.5781 L1613.581,258.5781 Z" id="Fill-18" fill="#FFA312"></path>
                <path d="M1800.149,258.5781 C1802.609,258.5781 1804.171,261.2621 1802.609,263.7173 L1736.485,365.366 L1736.485,432.83112 C1736.485,435.51072 1734.919,437.30152 1732.464,437.30152 L1715.709,437.30152 C1708.779,437.30152 1704.757,432.38672 1704.757,425.90553 L1704.757,365.366 L1638.858,263.7173 C1637.292,261.2621 1638.858,258.5781 1641.314,258.5781 L1669.909,258.5781 C1672.369,258.5781 1673.482,260.5889 1674.824,262.8241 L1720.623,333.4176 L1766.194,262.8241 C1767.756,260.5889 1768.874,258.5781 1771.105,258.5781 L1800.149,258.5781 Z" id="Fill-19" fill="#FFA312"></path>
                <path d="M240.4514,395.5429 C233.803,396.2865 227.049,396.7177 220.1982,396.7177 C213.1054,396.7177 206.1446,396.2777 199.2498,395.4505 C111.6591,385.0665 43.4944,310.359 43.4944,220.0007 C43.4944,122.5716 122.7691,43.3101 220.1982,43.3101 C317.6229,43.3101 396.9064,122.5716 396.9064,220.0007 C396.9064,310.5834 328.3677,385.4493 240.4514,395.5429 M220.1982,33.2385 C117.2119,33.2385 33.4448,117.0232 33.4448,220.0007 C33.4448,315.9118 106.1019,395.1425 199.2498,405.5837 C206.1446,406.3537 213.1186,406.7585 220.1982,406.7585 C227.049,406.7585 233.803,406.3933 240.4514,405.6541 C333.9293,395.5429 406.978,316.145 406.978,220.0007 C406.978,117.0232 323.1757,33.2385 220.1982,33.2385" id="Fill-20" fill="#FFFFFF"></path>
            </g>
        </g>
    </g>
</svg>