<?xml version="1.0" encoding="UTF-8"?>
<svg width="493px" height="161px" viewBox="0 0 493 161" version="1.1" xmlns="http://www.w3.org/2000/svg" xmlns:xlink="http://www.w3.org/1999/xlink">
    <!-- Generator: Sketch 44.1 (41455) - http://www.bohemiancoding.com/sketch -->
    <title>logdna_final</title>
    <desc>Created with Sketch.</desc>
    <defs></defs>
    <g id="Page-1" stroke="none" stroke-width="1" fill="none" fill-rule="evenodd">
        <g id="logdna_final">
            <path d="M99.224,14.213 L135.777,35.317 C139.741,37.605 142.183,41.835 142.183,46.412 C142.183,61.992 142.183,98.032 142.183,113.613 C142.183,118.19 139.741,122.419 135.777,124.708 C122.284,132.498 91.072,150.518 77.579,158.308 C73.615,160.597 68.732,160.597 64.768,158.308 C51.275,150.518 20.063,132.498 6.57,124.708 C2.606,122.419 0.164,118.19 0.164,113.613 C0.164,98.032 0.164,61.992 0.164,46.412 C0.164,41.835 2.606,37.605 6.57,35.317 C20.063,27.527 51.275,9.507 64.768,1.716 C68.732,-0.572 73.615,-0.572 77.579,1.716 L98.402,13.739 L98.639,13.793 C98.868,13.956 99.06,14.092 99.224,14.213 Z M50.263,134.56 L64.768,142.934 C68.732,145.223 73.615,145.223 77.579,142.934 L91.604,134.837 C91.443,133.449 91.268,132.063 91.079,130.679 L50.57,129.438 C50.449,131.144 50.346,132.851 50.263,134.56 L50.263,134.56 Z M100.033,129.971 L122.463,117.021 C126.427,114.732 128.868,110.503 128.868,105.926 C128.868,93.108 128.868,66.916 128.868,54.099 C128.868,49.522 126.427,45.292 122.463,43.004 L100.591,30.376 C100.562,30.724 100.533,31.071 100.502,31.418 L100.484,31.623 C100.096,35.429 99.603,39.224 98.953,42.994 C98.908,43.237 98.861,43.48 98.815,43.723 C98.603,44.811 98.382,45.898 98.145,46.981 C98.062,47.357 97.981,47.734 97.891,48.109 C97.864,48.222 97.731,48.741 97.729,48.748 C97.639,49.1 97.598,49.257 97.505,49.607 C97.286,50.436 97.056,51.261 96.818,52.085 L96.781,52.211 C96.424,53.305 96.053,54.393 95.66,55.474 C95.614,55.601 95.562,55.726 95.512,55.852 C95.377,56.192 95.366,56.22 95.23,56.557 C94.965,57.213 94.694,57.866 94.411,58.515 C94.355,58.643 94.291,58.768 94.231,58.894 C94.181,59 94.13,59.106 94.08,59.211 C93.883,59.621 93.682,60.029 93.479,60.436 C93.092,61.207 92.693,61.971 92.28,62.728 C92.086,63.083 91.887,63.435 91.687,63.786 L91.634,63.878 C91.017,64.88 90.376,65.866 89.7,66.829 C89.456,67.177 89.208,67.521 88.955,67.861 C88.855,67.996 88.754,68.135 88.65,68.267 C87.716,69.45 86.728,70.593 85.655,71.654 C85.605,71.704 85.55,71.75 85.497,71.797 C85.357,71.923 85.216,72.048 85.073,72.172 C84.634,72.553 84.183,72.92 83.723,73.275 C83.657,73.325 83.658,73.325 83.592,73.373 C82.711,74.001 81.798,74.583 80.838,75.083 C80.6,75.207 80.356,75.322 80.112,75.433 C79.719,75.611 79.32,75.774 78.914,75.918 C78.443,76.085 77.963,76.226 77.475,76.33 C77.275,76.373 77.074,76.409 76.871,76.436 C77.051,76.529 77.229,76.625 77.406,76.724 C77.803,76.945 78.192,77.18 78.573,77.427 C81.553,79.359 84.003,82.015 86.033,84.909 C86.371,85.39 86.697,85.88 87.014,86.375 C87.431,87.027 87.83,87.691 88.213,88.363 C88.724,89.257 89.206,90.167 89.664,91.089 C90.242,92.25 90.781,93.429 91.289,94.622 C91.98,96.244 92.612,97.891 93.198,99.553 C94.003,101.838 94.72,104.154 95.371,106.488 C96.215,109.515 96.946,112.573 97.594,115.647 C98.398,119.469 99.071,123.318 99.641,127.181 C99.778,128.11 99.908,129.04 100.033,129.971 L100.033,129.971 Z M41.72,129.627 C41.789,128.777 41.863,127.926 41.943,127.077 C41.963,126.862 41.988,126.648 42.011,126.434 C42.033,126.237 42.055,126.039 42.077,125.841 C42.162,125.071 42.253,124.301 42.348,123.532 C42.572,121.714 42.823,119.899 43.105,118.088 C43.212,117.406 43.324,116.724 43.438,116.042 L43.493,115.721 C43.813,114.007 44.163,112.298 44.55,110.598 C44.606,110.372 44.663,110.145 44.72,109.918 C44.905,109.199 45.092,108.482 45.289,107.766 C45.365,107.487 45.441,107.216 45.52,106.938 C45.562,106.789 45.6,106.639 45.647,106.492 C45.975,105.466 46.32,104.445 46.678,103.428 L46.751,103.225 C47.13,102.233 47.527,101.249 47.94,100.271 L47.979,100.181 C48.493,99.066 49.026,97.961 49.59,96.87 C49.925,96.22 50.272,95.577 50.626,94.938 L50.711,94.787 C51.312,93.784 51.941,92.797 52.603,91.832 C52.845,91.48 53.091,91.13 53.343,90.784 C53.444,90.644 53.546,90.501 53.652,90.364 C54.574,89.166 55.555,88.011 56.622,86.939 C56.671,86.889 56.725,86.844 56.776,86.797 C56.823,86.755 56.87,86.712 56.917,86.669 C57.145,86.464 57.376,86.263 57.609,86.065 C57.944,85.782 58.284,85.505 58.634,85.241 C58.731,85.168 58.831,85.099 58.93,85.03 C59.057,84.941 59.185,84.853 59.313,84.766 C59.744,84.476 60.185,84.199 60.636,83.942 C60.925,83.777 61.218,83.616 61.517,83.471 C61.879,83.296 62.246,83.132 62.619,82.985 C63.133,82.783 63.658,82.611 64.195,82.482 C64.566,82.392 64.942,82.323 65.322,82.284 C65.559,82.26 65.799,82.246 66.037,82.259 L66.051,82.26 L66.105,82.319 L66.047,82.373 C66.009,82.373 65.971,82.376 65.931,82.379 C65.917,82.38 65.877,82.382 65.89,82.382 C65.835,82.387 65.784,82.393 65.73,82.4 C64.982,82.506 64.263,82.776 63.599,83.129 C63.023,83.435 62.489,83.81 61.991,84.228 C61.788,84.399 61.59,84.575 61.399,84.759 C61.025,85.119 60.677,85.505 60.353,85.91 C60.235,86.058 60.119,86.209 60.007,86.363 C59.97,86.413 59.935,86.464 59.898,86.514 C59.756,86.707 59.615,86.899 59.48,87.097 C59.17,87.552 58.886,88.024 58.62,88.506 C58.592,88.557 58.56,88.606 58.53,88.655 C58.5,88.706 58.47,88.757 58.44,88.808 C58.158,89.295 57.891,89.789 57.644,90.295 C57.342,90.913 57.07,91.545 56.816,92.185 C56.758,92.331 56.697,92.475 56.64,92.622 C56.498,92.981 56.363,93.344 56.235,93.708 C56.109,94.068 55.988,94.43 55.874,94.794 L80.923,93.707 C80.289,92.531 79.603,91.382 78.845,90.281 C78.126,89.235 77.341,88.231 76.469,87.308 C75.272,86.043 73.891,84.91 72.299,84.181 C71.843,83.972 71.371,83.798 70.888,83.664 C70.577,83.578 70.261,83.516 69.945,83.447 C69.772,83.407 69.772,83.407 69.6,83.366 C69.2,83.267 68.802,83.16 68.408,83.037 C67.686,82.813 66.976,82.547 66.284,82.241 C65.599,81.94 64.931,81.6 64.283,81.226 C63.787,80.94 63.303,80.635 62.831,80.312 C59.839,78.262 57.371,75.527 55.326,72.55 C55.027,72.114 54.737,71.672 54.454,71.226 C54.042,70.574 53.647,69.912 53.268,69.241 C52.766,68.353 52.291,67.449 51.839,66.533 C51.273,65.386 50.745,64.22 50.248,63.041 C49.576,61.446 48.962,59.828 48.395,58.194 C47.661,56.081 47.006,53.941 46.412,51.785 C45.636,48.967 44.965,46.121 44.374,43.259 C43.634,39.671 43.018,36.057 42.511,32.429 C42.404,31.66 42.301,30.889 42.202,30.119 L19.884,43.004 C15.92,45.292 13.479,49.522 13.479,54.099 C13.479,66.916 13.479,93.108 13.479,105.926 C13.479,110.503 15.92,114.732 19.884,117.021 L41.72,129.627 L41.72,129.627 Z M50.845,125.702 L90.14,124.497 C89.668,121.694 89.133,118.902 88.523,116.126 C88.477,115.916 88.43,115.706 88.383,115.496 L52.123,114.204 C51.993,115.132 51.872,116.061 51.762,116.991 C51.727,117.251 51.693,117.512 51.659,117.772 C51.324,120.408 51.053,123.053 50.845,125.702 L50.845,125.702 Z M52.67,110.506 L86.841,109.288 C86.492,108.021 86.122,106.76 85.728,105.506 C85.117,103.564 84.449,101.638 83.699,99.745 L54.854,98.493 C54.802,98.701 54.753,98.909 54.704,99.117 C54.473,100.113 54.275,101.115 54.1,102.121 C54.049,102.367 54.001,102.613 53.953,102.86 C53.811,103.599 53.679,104.341 53.562,105.085 C53.528,105.268 53.495,105.452 53.462,105.636 C53.398,106.002 53.334,106.368 53.275,106.735 C53.194,107.231 53.119,107.728 53.045,108.226 C52.997,108.496 52.951,108.766 52.905,109.036 C52.823,109.525 52.745,110.015 52.67,110.506 L52.67,110.506 Z M76.635,76.316 C76.652,76.312 76.67,76.309 76.687,76.305 C77.431,76.141 78.139,75.834 78.794,75.45 C79.329,75.136 79.827,74.767 80.296,74.362 C80.849,73.885 81.358,73.36 81.821,72.794 C81.941,72.647 82.058,72.498 82.172,72.346 C82.243,72.252 82.31,72.156 82.38,72.062 C82.489,71.914 82.598,71.767 82.704,71.617 C83.052,71.12 83.37,70.604 83.667,70.076 C83.696,70.025 83.728,69.976 83.758,69.926 C83.789,69.876 83.819,69.825 83.85,69.774 C84.238,69.117 84.596,68.444 84.92,67.754 C85.128,67.312 85.32,66.863 85.505,66.412 C85.592,66.201 85.681,65.992 85.765,65.781 C85.908,65.421 86.044,65.059 86.174,64.694 C86.37,64.143 86.55,63.587 86.718,63.027 L60.621,64.004 C61.019,64.747 61.439,65.477 61.884,66.193 C62.702,67.509 63.605,68.777 64.626,69.944 C66.034,71.553 67.69,72.997 69.636,73.914 C70.186,74.174 70.757,74.389 71.342,74.554 C71.526,74.605 71.712,74.652 71.899,74.694 C72.076,74.733 72.254,74.769 72.431,74.808 C72.601,74.847 72.601,74.847 72.771,74.888 C73.11,74.973 73.446,75.064 73.78,75.167 C74.44,75.37 75.088,75.611 75.721,75.888 C76.03,76.022 76.334,76.165 76.635,76.316 L76.635,76.316 Z M57.926,58.122 L87.745,59.239 C87.951,58.361 88.13,57.478 88.293,56.591 C88.321,56.436 88.324,56.437 88.358,56.274 C88.403,56.058 88.446,55.842 88.49,55.626 C88.621,54.952 88.743,54.277 88.856,53.599 C88.875,53.484 88.899,53.369 88.921,53.254 C88.943,53.135 88.964,53.016 88.986,52.897 C89.072,52.415 89.156,51.933 89.234,51.449 C89.288,51.116 89.338,50.782 89.389,50.449 C89.443,50.152 89.495,49.855 89.547,49.558 C89.625,49.09 89.702,48.621 89.775,48.152 L55.025,49.283 C55.367,50.532 55.732,51.774 56.123,53.009 C56.668,54.731 57.264,56.44 57.926,58.122 L57.926,58.122 Z M53.511,43.111 L90.35,44.31 C90.376,44.124 90.402,43.937 90.428,43.751 L90.425,43.766 L90.487,43.306 C90.526,43.008 90.564,42.71 90.601,42.413 C90.63,42.182 90.658,41.951 90.685,41.72 C90.717,41.488 90.747,41.255 90.777,41.023 C90.818,40.704 90.858,40.385 90.898,40.066 C90.898,40.061 90.895,40.085 90.896,40.08 C90.935,39.754 90.974,39.427 91.012,39.101 C91.012,39.096 91.009,39.12 91.01,39.115 C91.123,38.11 91.23,37.104 91.325,36.097 C91.424,35.045 91.512,33.992 91.591,32.938 L51.817,34.036 C52.293,37.071 52.851,40.094 53.508,43.095 L53.511,43.111 L53.511,43.111 Z M50.656,25.238 C50.753,26.144 50.857,27.049 50.968,27.953 L91.862,29.082 C91.876,28.859 91.891,28.636 91.905,28.413 L91.905,28.426 C91.929,28.031 91.952,27.637 91.976,27.242 C91.998,26.844 92.019,26.446 92.04,26.049 C92.05,25.851 92.06,25.654 92.069,25.456 L77.579,17.09 C73.615,14.802 68.732,14.802 64.768,17.09 L50.656,25.238 Z" id="Logo" fill="#DB0A5B"></path>
            <g id="TextCurve" transform="translate(158.000000, 38.000000)" fill-rule="nonzero" fill="#20000C">
                <g id="Group">
                    <path d="M16.367,81.479 C16.442,82.154 16.217,82.566 15.693,82.715 C14.644,83.09 13.52,83.333 12.322,83.446 C11.123,83.558 10.074,83.614 9.176,83.614 C5.879,83.614 3.688,82.772 2.602,81.086 C1.516,79.401 0.973,77.022 0.973,73.951 L0.973,1.585 C0.973,0.911 1.31,0.574 1.984,0.574 L5.243,0.574 C5.992,0.574 6.366,0.911 6.366,1.585 L6.366,72.153 C6.366,74.55 6.647,76.254 7.209,77.266 C7.771,78.277 9.026,78.782 10.973,78.782 C11.723,78.782 12.434,78.745 13.108,78.67 C13.783,78.595 14.419,78.483 15.019,78.333 C15.243,78.333 15.449,78.352 15.637,78.389 C15.824,78.427 15.955,78.633 16.03,79.007 L16.367,81.479 L16.367,81.479 Z" id="Shape"></path>
                    <path d="M73.113,52.938 C73.113,63.126 70.903,70.861 66.483,76.142 C62.064,81.423 55.846,84.064 47.83,84.064 C39.89,84.064 33.765,81.423 29.458,76.142 C25.151,70.861 22.997,63.238 22.997,53.275 C22.997,43.237 25.282,35.596 29.851,30.352 C34.421,25.108 40.526,22.486 48.167,22.486 C56.183,22.486 62.344,25.127 66.652,30.408 C70.959,35.689 73.113,43.199 73.113,52.938 L73.113,52.938 Z M67.832,53.275 C67.832,49.904 67.532,46.626 66.933,43.443 C66.334,40.259 65.266,37.468 63.73,35.071 C62.195,32.674 60.153,30.745 57.606,29.284 C55.059,27.823 51.838,27.093 47.943,27.093 C44.347,27.093 41.294,27.805 38.785,29.228 C36.275,30.651 34.252,32.562 32.717,34.959 C31.181,37.356 30.057,40.109 29.346,43.218 C28.634,46.327 28.278,49.567 28.278,52.938 C28.278,56.683 28.615,60.167 29.289,63.388 C29.964,66.609 31.087,69.418 32.66,71.816 C34.234,74.213 36.275,76.086 38.785,77.434 C41.294,78.782 44.384,79.457 48.055,79.457 C51.875,79.457 55.059,78.67 57.606,77.097 C60.153,75.524 62.176,73.482 63.674,70.973 C65.172,68.463 66.24,65.654 66.877,62.545 C67.513,59.436 67.832,56.346 67.832,53.275 L67.832,53.275 Z" id="Shape"></path>
                    <path d="M109.071,22.486 C112.217,22.486 115.626,22.711 119.296,23.16 C122.967,23.61 126.6,24.546 130.196,25.969 C130.87,26.269 131.207,26.793 131.207,27.543 L131.207,79.344 C131.207,84.363 130.571,88.54 129.297,91.873 C128.024,95.207 126.207,97.923 123.847,100.02 C121.488,102.118 118.66,103.728 115.364,104.852 C112.067,105.976 108.397,106.837 104.351,107.436 C103.602,107.511 103.19,107.287 103.115,106.762 L102.666,103.503 C102.666,102.979 102.966,102.679 103.565,102.605 C106.786,102.005 109.764,101.294 112.498,100.47 C115.232,99.646 117.592,98.466 119.577,96.93 C121.563,95.394 123.098,93.39 124.184,90.918 C125.271,88.446 125.814,85.262 125.814,81.367 L125.814,80.58 C124.615,81.03 123.267,81.461 121.769,81.873 C120.27,82.285 118.716,82.622 117.105,82.884 C115.495,83.146 113.903,83.371 112.33,83.558 C110.756,83.745 109.296,83.839 107.947,83.839 C103.602,83.839 99.875,83.09 96.767,81.592 C93.658,80.093 91.092,77.996 89.069,75.299 C87.047,72.602 85.567,69.418 84.631,65.748 C83.694,62.077 83.226,58.107 83.226,53.837 C83.226,49.417 83.732,45.297 84.743,41.476 C85.755,37.656 87.309,34.341 89.406,31.532 C91.504,28.722 94.182,26.512 97.441,24.902 C100.699,23.291 104.576,22.486 109.071,22.486 L109.071,22.486 Z M108.509,79.232 C109.333,79.232 110.419,79.176 111.768,79.063 C113.116,78.951 114.577,78.745 116.15,78.445 C117.723,78.146 119.353,77.79 121.038,77.378 C122.724,76.966 124.316,76.423 125.814,75.749 L125.814,29.902 C122.967,28.854 120.008,28.142 116.937,27.767 C113.865,27.393 111.243,27.205 109.071,27.205 C106.149,27.205 103.453,27.73 100.98,28.779 C98.508,29.827 96.373,31.419 94.575,33.554 C92.778,35.689 91.354,38.424 90.305,41.757 C89.257,45.091 88.732,49.042 88.732,53.612 C88.732,62.002 90.493,68.37 94.014,72.715 C97.534,77.059 102.366,79.232 108.509,79.232 L108.509,79.232 Z" id="Shape"></path>
                </g>
                <g id="Group" transform="translate(145.000000, 1.000000)">
                    <path d="M0.865,53.12 C0.865,48.925 1.39,44.917 2.438,41.097 C3.487,37.276 5.098,33.924 7.27,31.04 C9.443,28.155 12.252,25.871 15.698,24.185 C19.144,22.5 23.227,21.657 27.946,21.657 C29.894,21.657 31.785,21.732 33.621,21.882 C35.456,22.031 37.535,22.369 39.857,22.893 L39.857,2.33 C39.857,1.431 40.026,0.831 40.363,0.532 C40.7,0.232 41.355,0.082 42.329,0.082 L53.791,0.082 C54.615,0.082 55.233,0.213 55.645,0.475 C56.057,0.738 56.263,1.356 56.263,2.33 L56.263,74.077 C56.263,74.938 56.188,75.781 56.038,76.605 C55.963,77.429 55.401,78.178 54.353,78.852 C53.304,79.527 51.974,80.107 50.364,80.594 C48.753,81.081 46.955,81.512 44.97,81.886 C42.985,82.261 41.018,82.542 39.071,82.729 C37.123,82.916 35.287,83.066 33.564,83.178 C31.841,83.291 30.418,83.347 29.294,83.347 C23.901,83.347 19.387,82.598 15.754,81.1 C12.121,79.601 9.199,77.504 6.989,74.807 C4.779,72.11 3.206,68.926 2.27,65.256 C1.334,61.585 0.865,57.54 0.865,53.12 L0.865,53.12 Z M17.833,53.345 C17.833,59.338 19.013,63.533 21.373,65.93 C23.732,68.327 27.01,69.526 31.205,69.526 C32.254,69.526 33.658,69.413 35.419,69.189 C37.179,68.964 38.659,68.627 39.857,68.177 L39.857,36.827 C37.909,36.377 36.186,36.077 34.688,35.928 C33.19,35.778 31.841,35.703 30.643,35.703 C26.822,35.703 23.732,37.089 21.373,39.861 C19.013,42.632 17.833,47.127 17.833,53.345 L17.833,53.345 Z" id="Shape"></path>
                    <path d="M94.918,35.141 C94.168,35.141 93.101,35.16 91.715,35.197 C90.329,35.235 88.85,35.403 87.277,35.703 L87.277,80.088 C87.277,80.912 87.145,81.456 86.883,81.718 C86.621,81.98 85.966,82.111 84.917,82.111 L73.343,82.111 C72.519,82.111 71.92,81.98 71.545,81.718 C71.17,81.456 70.983,80.912 70.983,80.088 L70.983,31.882 C70.983,29.335 71.433,27.331 72.332,25.871 C73.23,24.41 75.103,23.38 77.95,22.781 C78.699,22.631 79.767,22.5 81.152,22.387 C82.538,22.275 84.018,22.163 85.591,22.05 C87.164,21.938 88.719,21.844 90.254,21.769 C91.79,21.694 93.12,21.657 94.243,21.657 C99.487,21.657 104.019,22.181 107.84,23.23 C111.66,24.279 114.825,25.946 117.335,28.23 C119.845,30.515 121.717,33.512 122.953,37.22 C124.189,40.928 124.808,45.441 124.808,50.76 L124.808,80.088 C124.808,80.912 124.676,81.456 124.414,81.718 C124.152,81.98 123.497,82.111 122.448,82.111 L110.761,82.111 C109.937,82.111 109.338,81.98 108.964,81.718 C108.589,81.456 108.402,80.912 108.402,80.088 L108.402,49.749 C108.402,47.277 108.196,45.142 107.784,43.344 C107.372,41.546 106.66,40.029 105.649,38.793 C104.637,37.557 103.252,36.639 101.491,36.04 C99.731,35.441 97.539,35.141 94.918,35.141 L94.918,35.141 Z" id="Shape"></path>
                    <path d="M189.532,74.807 C189.532,75.781 189.401,76.605 189.138,77.279 C188.876,77.953 188.221,78.59 187.172,79.189 C185.449,80.013 183.595,80.688 181.61,81.212 C179.625,81.736 177.602,82.148 175.542,82.448 C173.482,82.748 171.403,82.972 169.305,83.122 C167.208,83.272 165.223,83.347 163.35,83.347 C158.256,83.347 154.042,82.86 150.708,81.886 C147.375,80.912 144.697,79.583 142.674,77.897 C140.651,76.212 139.228,74.226 138.404,71.942 C137.58,69.657 137.168,67.203 137.168,64.582 C137.168,61.66 137.655,58.982 138.629,56.547 C139.603,54.113 141.063,51.996 143.011,50.198 C144.959,48.401 147.412,46.996 150.371,45.985 C153.33,44.973 156.832,44.468 160.878,44.468 L173.238,44.468 L173.238,42.67 C173.238,41.621 173.126,40.61 172.901,39.636 C172.676,38.662 172.208,37.819 171.497,37.107 C170.785,36.396 169.792,35.815 168.519,35.366 C167.245,34.916 165.56,34.692 163.462,34.692 C162.339,34.692 161.065,34.748 159.642,34.86 C158.218,34.973 156.795,35.122 155.372,35.31 C153.948,35.497 152.562,35.722 151.214,35.984 C149.866,36.246 148.667,36.527 147.618,36.827 C146.644,37.051 145.97,37.051 145.596,36.827 C145.221,36.602 144.959,36.115 144.809,35.366 L143.011,27.5 C142.786,26.676 142.768,26.095 142.955,25.758 C143.142,25.421 143.536,25.14 144.135,24.916 C147.506,23.717 151.046,22.855 154.754,22.331 C158.462,21.807 162.151,21.544 165.822,21.544 C173.987,21.544 179.98,23.286 183.801,26.77 C187.621,30.253 189.532,35.403 189.532,42.22 L189.532,74.807 L189.532,74.807 Z M173.126,55.367 L164.249,55.367 C163.2,55.367 162.076,55.442 160.878,55.592 C159.679,55.742 158.574,56.098 157.563,56.66 C156.552,57.221 155.709,58.027 155.035,59.075 C154.36,60.124 154.023,61.548 154.023,63.345 C154.023,65.967 154.903,67.803 156.664,68.852 C158.424,69.9 160.803,70.425 163.799,70.425 C164.249,70.425 164.848,70.406 165.597,70.369 C166.346,70.331 167.152,70.256 168.013,70.144 C168.875,70.031 169.755,69.882 170.654,69.694 C171.553,69.507 172.377,69.264 173.126,68.964 L173.126,55.367 Z" id="Shape"></path>
                </g>
            </g>
        </g>
    </g>
</svg>