<?xml version="1.0" encoding="UTF-8"?>
<svg width="614px" height="148px" viewBox="0 0 614 148" version="1.1" xmlns="http://www.w3.org/2000/svg" xmlns:xlink="http://www.w3.org/1999/xlink">
    <!-- Generator: Sketch 44.1 (41455) - http://www.bohemiancoding.com/sketch -->
    <title>MMIE logo-no comma</title>
    <desc>Created with Sketch.</desc>
    <defs></defs>
    <g id="Page-1" stroke="none" stroke-width="1" fill="none" fill-rule="evenodd">
        <g id="MMIE-logo-no-comma" fill-rule="nonzero" fill="#021D49">
            <g id="Group" transform="translate(100.000000, 66.000000)">
                <path d="M32.2,24.6 C32.2,26.1 32.3,27.1 32.6,27.5 C32.8,27.9 33.3,28 34.2,28.1 L36.1,28.2 L36.1,29.4 C34.1,29.3 32.2,29.3 30.4,29.3 C28.5,29.3 26.7,29.3 25.2,29.4 L25.2,28.2 L26.5,28.1 C27.4,28 27.9,27.9 28.1,27.5 C28.4,27.1 28.5,26.1 28.5,24.6 L28.5,6.9 L28.4,6.9 C27.8,8 27.3,9 26.8,10.1 L19.9,24.8 C19.2,26.4 18.5,28.1 17.8,29.8 L17,29.8 L6.2,6.9 L6,6.9 L6,24.6 C6,26.1 6.1,27.1 6.4,27.5 C6.6,27.9 7.1,28 8,28.1 L9.7,28.2 L9.7,29.4 C8,29.4 6.6,29.3 5,29.3 C3.6,29.3 2,29.4 0.5,29.4 L0.5,28.2 L2.2,28.1 C3.1,28 3.6,27.9 3.8,27.5 C4.1,27.1 4.2,26.1 4.2,24.6 L4.2,7 C4.2,5.5 4.1,4.5 3.8,4.1 C3.6,3.7 3.1,3.6 2.2,3.5 L0.5,3.4 L0.5,2.2 C1.7,2.2 3,2.3 4.2,2.3 C5.4,2.3 6.7,2.2 7.9,2.2 L18.2,23.9 L28.4,2.2 C29.6,2.2 30.9,2.3 32.1,2.3 C33.3,2.3 34.6,2.2 35.7,2.2 L35.7,3.4 L34.1,3.5 C33.2,3.6 32.7,3.7 32.5,4.1 C32.2,4.5 32.1,5.5 32.1,7 L32.1,24.6 L32.2,24.6 Z" id="Shape"></path>
                <path d="M48.5,18 L48.5,17.9 C48.5,14.9 47,13 43.6,13 C41.9,13 41.4,13.2 40.9,13.8 C40.7,14.1 40.5,14.6 40.2,15.1 L39.7,16.3 L38.7,16 L38.7,13.5 L40.8,12.3 C42.5,11.3 44.1,11 45.3,11 C50.2,11 51.7,13.1 51.7,18.8 L51.7,25.9 C51.7,26.5 51.7,27.1 51.8,27.6 C51.9,28 52.2,28.1 52.8,28.2 L54.3,28.3 L54.3,29.5 C53.3,29.5 52.3,29.4 51.4,29.4 C50.4,29.4 49.4,29.5 48.4,29.5 L48.6,26.2 L43.8,29.6 C43.5,29.8 42.7,29.9 42,29.9 C39.3,29.9 37.2,28.3 37.2,25.2 C37.2,20.7 41.1,19.6 44.7,18.9 L48.5,18 Z M48.5,19.3 C46.5,19.6 44.8,19.9 42.8,20.7 C41.4,21.2 40.5,22.9 40.5,24.4 C40.5,26.4 42,27.6 43.5,27.6 C44.7,27.6 46,26.8 47.2,25.8 C47.8,25.3 48.3,24.7 48.4,24.5 L48.4,19.3 L48.5,19.3 Z" id="Shape"></path>
                <path d="M57.1,23.7 L57.1,25.3 C57.1,27.7 59.9,28.6 62.1,28.6 C64.6,28.6 66.7,27.2 66.7,25.1 C66.7,23.9 66,22.8 64.8,22.5 C63.1,22.1 60.9,21.6 59.1,20.9 C57.3,20.2 55.8,19 55.8,16.6 C55.8,12.4 59.5,10.9 63.1,10.9 C64.9,10.9 66.6,11.3 68.1,11.9 C68,13.3 67.9,14.7 67.9,16.3 L66.8,16.3 L66.8,15.4 C66.8,13.4 64.5,12.2 62.3,12.2 C59,12.2 58.5,14 58.5,15.4 C58.5,17.1 59.8,18 62.8,18.5 C67.4,19.3 69.6,20.5 69.6,23.5 C69.6,27.8 65.3,30.1 61,30.1 C59.1,30.1 57.5,29.8 55.5,29.2 C55.9,27.5 55.9,25.6 55.9,23.8 L57.1,23.8 L57.1,23.7 Z" id="Shape"></path>
                <path d="M70.8,14.5 L70.8,13.7 L73.8,12.3 L73.8,9.6 C73.8,8.6 73.8,7.6 73.6,6.5 C75,6.1 76.3,5.4 76.9,5 L77.4,5.4 C77.2,7.1 77,9.3 77,10.9 L77,12.4 L82.3,12.2 L81.9,14.3 L76.9,14.3 L76.9,24.5 C76.9,26.3 77.4,27.2 79,27.2 C80,27.2 80.8,26.8 81.3,26.5 L81.8,27.2 L79.9,29.3 C79.5,29.7 78.2,29.8 77.4,29.8 C75.3,29.8 73.6,28.8 73.6,25.7 L73.6,14.5 L70.8,14.5 Z" id="Shape"></path>
                <path d="M99.1,18.1 C99.1,18.6 99.1,19.2 99,19.7 C96.7,20.1 94.3,20.2 91.9,20.2 L86.2,20.2 C86.2,24.8 88.5,27.9 93.3,27.9 C95.2,27.9 96.7,27 98.1,26.1 L98.6,26.5 L97.8,27.8 C97.5,28.3 94.2,30 91.6,30 C85.7,30 82.6,26.3 82.6,21 C82.6,17.2 83.6,15 85.4,13.6 C86.1,13 87,12.4 87.8,12 C89.2,11.4 90.3,10.9 91.6,10.9 C96,10.9 99.1,13.7 99.1,18.1 Z M86.4,18.2 L86.4,18.7 C88.1,18.9 89.8,18.9 91.4,18.9 C92.9,18.9 94.4,18.9 95.7,18.8 C95.7,15.2 94.4,12.2 91.6,12.2 C88.6,12.2 86.4,14.3 86.4,18.2 Z" id="Shape"></path>
                <path d="M103.4,16.5 C103.4,15.3 103.3,14.4 103.1,14.1 C102.9,13.8 102.5,13.7 101.7,13.7 L100.3,13.7 L100.3,12.6 C102.6,12.4 104.9,11.6 106.4,11 L106.8,11.2 L106.8,15.1 L106.9,15.1 L109,12.6 C109.9,11.5 111.3,11 112.3,11 C113,11 113.8,11.2 114.1,11.4 L113.7,16.1 L112.9,16.1 C112.5,15.2 111.7,14.3 110.2,14.3 C108.5,14.3 106.8,16.1 106.8,18.6 L106.8,25.3 C106.8,26.4 106.8,27.1 107,27.6 C107.2,28 107.7,28.1 108.6,28.1 L110.6,28.2 L110.6,29.4 C108.6,29.4 107,29.3 105.1,29.3 C103.2,29.3 101.6,29.4 100.2,29.4 L100.2,28.2 L102,28.1 C102.7,28.1 103.1,27.9 103.2,27.6 C103.4,27.2 103.4,26.4 103.4,25.3 L103.4,16.5 L103.4,16.5 Z" id="Shape"></path>
                <path d="M132.1,30 C127.3,30 123.8,26.1 123.8,20.9 C123.8,15.1 127.5,11 133.7,11 C138.7,11 142.6,14.9 142.6,19.9 C142.6,25.9 138.3,30.1 132.4,30.1 L132.1,30.1 L132.1,30 Z M127.4,19.2 C127.4,23.3 128.9,28.7 133.9,28.7 C137.4,28.7 139,25.2 139,21.5 C139,16.5 136.6,12.2 132.9,12.2 C128.7,12.2 127.4,15.6 127.4,19.2 Z" id="Shape"></path>
                <path d="M156.2,4.3 L155.7,4.5 C155,3.8 154.1,3.4 153.1,3.4 C150.7,3.4 150.3,4.5 150.3,9 L150.3,12.3 L155.4,12.1 L155.1,14.2 L150.3,14.2 L150.3,25.2 C150.3,26.3 150.3,27 150.5,27.5 C150.7,27.9 151.1,28 151.7,28 L153.5,28.1 L153.5,29.3 C152.1,29.3 150.5,29.2 148.6,29.2 C146.7,29.2 145.1,29.3 143.7,29.3 L143.7,28.1 L145.5,28 C146.2,28 146.6,27.8 146.7,27.5 C146.9,27.1 146.9,26.3 146.9,25.2 L146.9,14.2 L144.2,14.4 L144.2,13.5 L146.9,12.3 L146.9,10.7 C146.9,8.1 147.4,6.4 148.5,5.1 L150.8,2.5 C151.8,1.3 153.2,0.9 154.3,0.9 C154.9,0.9 155.5,1.1 156.1,1.3 L156.1,4.3 L156.2,4.3 Z" id="Shape"></path>
                <path d="M195.9,24.6 C195.9,26.1 196,27.1 196.3,27.5 C196.5,27.9 197,28 197.9,28.1 L199.8,28.2 L199.8,29.4 C197.8,29.3 195.9,29.3 194.1,29.3 C192.2,29.3 190.4,29.3 188.9,29.4 L188.9,28.2 L190.2,28.1 C191.1,28 191.6,27.9 191.8,27.5 C192.1,27.1 192.2,26.1 192.2,24.6 L192.2,6.9 L192.1,6.9 C191.5,8 191,9 190.5,10.1 L183.6,24.8 C182.9,26.4 182.2,28.1 181.5,29.8 L180.7,29.8 L169.9,6.9 L169.8,6.9 L169.8,24.6 C169.8,26.1 169.9,27.1 170.2,27.5 C170.4,27.9 170.9,28 171.8,28.1 L173.5,28.2 L173.5,29.4 C171.8,29.4 170.4,29.3 168.8,29.3 C167.4,29.3 165.8,29.4 164.3,29.4 L164.3,28.2 L166,28.1 C166.9,28 167.4,27.9 167.6,27.5 C167.9,27.1 168,26.1 168,24.6 L168,7 C168,5.5 167.9,4.5 167.6,4.1 C167.4,3.7 166.9,3.6 166,3.5 L164.3,3.4 L164.3,2.2 C165.5,2.2 166.8,2.3 168,2.3 C169.2,2.3 170.5,2.2 171.7,2.2 L182,23.9 L192.2,2.2 C193.4,2.2 194.7,2.3 195.9,2.3 C197.1,2.3 198.4,2.2 199.5,2.2 L199.5,3.4 L197.9,3.5 C197,3.6 196.5,3.7 196.3,4.1 C196,4.5 195.9,5.5 195.9,7 L195.9,24.6 L195.9,24.6 Z" id="Shape"></path>
                <path d="M212.2,18 L212.2,17.9 C212.2,14.9 210.7,13 207.3,13 C205.6,13 205.1,13.2 204.6,13.8 C204.4,14.1 204.2,14.6 203.9,15.1 L203.4,16.3 L202.4,16 L202.4,13.5 L204.5,12.3 C206.2,11.3 207.8,11 209,11 C213.9,11 215.4,13.1 215.4,18.8 L215.4,25.9 C215.4,26.5 215.4,27.1 215.5,27.6 C215.6,28 215.9,28.1 216.5,28.2 L218,28.3 L218,29.5 C217,29.5 216,29.4 215.1,29.4 C214.1,29.4 213.1,29.5 212.1,29.5 L212.3,26.2 L207.5,29.6 C207.2,29.8 206.4,29.9 205.7,29.9 C203,29.9 200.9,28.3 200.9,25.2 C200.9,20.7 204.8,19.6 208.4,18.9 L212.2,18 Z M212.2,19.3 C210.2,19.6 208.5,19.9 206.5,20.7 C205.1,21.2 204.2,22.9 204.2,24.4 C204.2,26.4 205.7,27.6 207.2,27.6 C208.4,27.6 209.7,26.8 210.9,25.8 C211.5,25.3 212,24.7 212.1,24.5 L212.1,19.3 L212.2,19.3 Z" id="Shape"></path>
                <path d="M224.8,25.3 C224.8,26.4 224.8,27.1 225,27.6 C225.2,28 225.6,28.1 226.2,28.1 L228,28.2 L228,29.4 C226.6,29.4 225.1,29.3 223.2,29.3 C221.3,29.3 219.7,29.4 218.4,29.4 L218.4,28.2 L220.2,28.1 C220.9,28.1 221.3,27.9 221.4,27.6 C221.6,27.2 221.6,26.4 221.6,25.3 L221.6,16.5 C221.6,15.3 221.5,14.4 221.3,14.1 C221.1,13.8 220.7,13.7 219.9,13.7 L218.5,13.7 L218.5,12.6 C220.8,12.4 223.1,11.6 224.6,11 L225,11.2 L225,14.5 L225.1,14.5 L228,12 C228.9,11.3 229.6,11 231.2,11 C235.8,11 237.6,13.5 237.6,17.8 L237.6,25.3 C237.6,26.4 237.6,27.1 237.8,27.6 C238,28 238.4,28.1 239,28.1 L240.6,28.2 L240.6,29.4 C239.6,29.4 238.5,29.3 237.4,29.3 C236.3,29.3 235.2,29.4 234.3,29.4 L234.3,18.3 C234.3,15.1 232.5,13.3 229.8,13.3 C227.4,13.3 225,15.4 225,17 L225,25.3 L224.8,25.3 Z" id="Shape"></path>
                <path d="M252.5,18 L252.5,17.9 C252.5,14.9 251,13 247.6,13 C245.9,13 245.4,13.2 244.9,13.8 C244.7,14.1 244.5,14.6 244.2,15.1 L243.7,16.3 L242.7,16 L242.7,13.5 L244.8,12.3 C246.5,11.3 248.1,11 249.3,11 C254.2,11 255.7,13.1 255.7,18.8 L255.7,25.9 C255.7,26.5 255.7,27.1 255.8,27.6 C255.9,28 256.2,28.1 256.8,28.2 L258.3,28.3 L258.3,29.5 C257.3,29.5 256.3,29.4 255.4,29.4 C254.4,29.4 253.4,29.5 252.4,29.5 L252.6,26.2 L247.8,29.6 C247.5,29.8 246.7,29.9 246,29.9 C243.3,29.9 241.2,28.3 241.2,25.2 C241.2,20.7 245.1,19.6 248.7,18.9 L252.5,18 Z M252.5,19.3 C250.5,19.6 248.8,19.9 246.8,20.7 C245.4,21.2 244.5,22.9 244.5,24.4 C244.5,26.4 246,27.6 247.5,27.6 C248.7,27.6 250,26.8 251.2,25.8 C251.8,25.3 252.3,24.7 252.4,24.5 L252.4,19.3 L252.5,19.3 Z" id="Shape"></path>
                <path d="M275,14.5 C275.3,15.2 275.4,15.9 275.4,16.7 C275.4,18.8 274.3,20.5 272.8,21.5 C271.1,22.7 269.1,23.4 267.3,23.4 C267,23.4 266.8,23.4 266.5,23.3 C266,23.8 264.7,24.6 264.7,25.5 C264.7,27 266.5,27.1 267.7,27.1 L273.9,27.1 C277.4,27.1 278.5,30 278.5,31.9 C278.5,36 274.5,40.3 267.9,40.3 C263.2,40.3 259.5,37.9 259.5,34.5 C259.5,33.4 259.8,32.1 260.6,31.4 L264,29.6 C262.3,29.1 261.4,28.4 261.4,27.3 C261.4,26.7 261.6,26.1 262,25.7 L265,23.4 L265,23.3 C263.8,23.3 260.4,22.1 260.4,18.1 C260.4,15.6 261.6,13.9 263.4,12.8 C265.2,11.6 267.6,11.1 269.1,11.1 C270.8,11.1 272.6,11.6 273.9,12.7 L279.4,12.5 L279.6,13 L278.6,14.6 L275,14.6 L275,14.5 Z M275.5,33.3 C275.5,31 274.4,29.8 270,29.8 C269,29.8 267.6,29.8 265.9,30 C264.8,30.1 262.6,31.6 262.6,34.1 C262.6,37.5 265.2,39.1 268.3,39.1 C272.6,39.1 275.5,36.4 275.5,33.3 Z M267.7,12.3 C265.1,12.3 263.8,14.3 263.8,16.9 C263.8,20.3 265.7,22.1 268.2,22.1 C270.5,22.1 272.2,20.3 272.2,18 C272.2,15.1 270.9,12.3 267.7,12.3 Z" id="Shape"></path>
                <path d="M296.5,18.1 C296.5,18.6 296.5,19.2 296.4,19.7 C294.1,20.1 291.7,20.2 289.3,20.2 L283.6,20.2 C283.6,24.8 285.9,27.9 290.7,27.9 C292.6,27.9 294.1,27 295.5,26.1 L296,26.5 L295.2,27.8 C294.9,28.3 291.6,30 289,30 C283.1,30 280,26.3 280,21 C280,17.2 281,15 282.8,13.6 C283.5,13 284.4,12.4 285.2,12 C286.6,11.4 287.7,10.9 289,10.9 C293.4,10.9 296.5,13.7 296.5,18.1 Z M283.8,18.2 L283.8,18.7 C285.5,18.9 287.2,18.9 288.8,18.9 C290.3,18.9 291.8,18.9 293.1,18.8 C293.1,15.2 291.8,12.2 289,12.2 C286,12.2 283.8,14.3 283.8,18.2 Z" id="Shape"></path>
                <path d="M300.6,16.5 C300.6,15.3 300.5,14.4 300.3,14.1 C300.1,13.8 299.7,13.7 298.9,13.7 L297.5,13.7 L297.5,12.6 C299.8,12.4 302.1,11.6 303.6,11 L304,11.2 L304,14.5 L306.7,12 C307.5,11.3 308.6,11 310.1,11 C312.4,11 314.4,12.1 315.4,14.6 L318.4,11.9 C319.3,11.2 320.3,10.9 321.8,10.9 C324.9,10.9 327.4,13.1 327.4,17.2 L327.4,25.2 C327.4,26.3 327.4,27 327.6,27.5 C327.8,27.9 328.2,28 328.8,28 L330.6,28.1 L330.6,29.3 C329.4,29.3 328.3,29.2 327.2,29.2 C326.1,29.2 325,29.3 324.1,29.3 L324.1,18.2 C324.1,15.6 323,13.2 320.4,13.2 C318,13.2 315.6,15.3 315.6,16.9 L315.6,25.2 C315.6,26.3 315.6,27 315.8,27.5 C316,27.9 316.4,28 317,28 L318.8,28.1 L318.8,29.3 C317.4,29.3 315.8,29.2 313.9,29.2 C312,29.2 310.4,29.3 309,29.3 L309,28.1 L310.8,28 C311.5,28 311.9,27.8 312,27.5 C312.2,27.1 312.2,26.3 312.2,25.2 L312.2,18.2 C312.2,15.6 311.1,13.2 308.5,13.2 C306.1,13.2 303.7,15.3 303.7,16.9 L303.7,25.2 C303.7,26.3 303.7,27 303.9,27.5 C304.1,27.9 304.5,28 305.1,28 L306.7,28.1 L306.7,29.3 C305.5,29.3 303.9,29.2 302,29.2 C300.1,29.2 298.5,29.3 297.1,29.3 L297.1,28.1 L298.9,28 C299.6,28 300,27.8 300.1,27.5 C300.3,27.1 300.3,26.3 300.3,25.2 L300.3,16.5 L300.6,16.5 Z" id="Shape"></path>
                <path d="M347.7,18.1 C347.7,18.6 347.7,19.2 347.6,19.7 C345.3,20.1 342.9,20.2 340.5,20.2 L334.8,20.2 C334.8,24.8 337.1,27.9 341.9,27.9 C343.8,27.9 345.3,27 346.7,26.1 L347.2,26.5 L346.4,27.8 C346.1,28.3 342.8,30 340.2,30 C334.3,30 331.2,26.3 331.2,21 C331.2,17.2 332.2,15 334,13.6 C334.7,13 335.6,12.4 336.4,12 C337.8,11.4 338.9,10.9 340.2,10.9 C344.5,10.9 347.7,13.7 347.7,18.1 Z M335,18.2 L335,18.7 C336.7,18.9 338.4,18.9 340,18.9 C341.5,18.9 343,18.9 344.3,18.8 C344.3,15.2 343,12.2 340.2,12.2 C337.2,12.2 335,14.3 335,18.2 Z" id="Shape"></path>
                <path d="M354.6,25.3 C354.6,26.4 354.6,27.1 354.8,27.6 C355,28 355.4,28.1 356,28.1 L357.8,28.2 L357.8,29.4 C356.4,29.4 354.9,29.3 353,29.3 C351.1,29.3 349.5,29.4 348.2,29.4 L348.2,28.2 L350,28.1 C350.7,28.1 351.1,27.9 351.2,27.6 C351.4,27.2 351.4,26.4 351.4,25.3 L351.4,16.5 C351.4,15.3 351.3,14.4 351.1,14.1 C350.9,13.8 350.5,13.7 349.7,13.7 L348.3,13.7 L348.3,12.6 C350.6,12.4 352.9,11.6 354.4,11 L354.8,11.2 L354.8,14.5 L354.9,14.5 L357.8,12 C358.7,11.3 359.4,11 361,11 C365.6,11 367.4,13.5 367.4,17.8 L367.4,25.3 C367.4,26.4 367.4,27.1 367.6,27.6 C367.8,28 368.2,28.1 368.8,28.1 L370.4,28.2 L370.4,29.4 C369.4,29.4 368.3,29.3 367.2,29.3 C366.1,29.3 365,29.4 364.1,29.4 L364.1,18.3 C364.1,15.1 362.3,13.3 359.6,13.3 C357.2,13.3 354.8,15.4 354.8,17 L354.8,25.3 L354.6,25.3 Z" id="Shape"></path>
                <path d="M370.5,14.5 L370.5,13.7 L373.5,12.3 L373.5,9.6 C373.5,8.6 373.5,7.6 373.3,6.5 C374.7,6.1 376,5.4 376.6,5 L377.1,5.4 C376.9,7.1 376.7,9.3 376.7,10.9 L376.7,12.4 L382,12.2 L381.6,14.3 L376.6,14.3 L376.6,24.5 C376.6,26.3 377.1,27.2 378.7,27.2 C379.7,27.2 380.5,26.8 381,26.5 L381.5,27.2 L379.6,29.3 C379.2,29.7 377.9,29.8 377.1,29.8 C375,29.8 373.3,28.8 373.3,25.7 L373.3,14.5 L370.5,14.5 Z" id="Shape"></path>
                <path d="M8.3,65.6 C8.3,67.1 8.4,68.1 8.7,68.5 C8.9,68.9 9.4,69 10.3,69.1 L12.2,69.2 L12.2,70.4 C10.2,70.3 8.3,70.3 6.5,70.3 C4.6,70.3 2.8,70.3 0.7,70.4 L0.7,69.2 L2.6,69.1 C3.5,69.1 4,68.9 4.2,68.5 C4.5,68.1 4.6,67.1 4.6,65.6 L4.6,48 C4.6,46.5 4.5,45.5 4.2,45.1 C4,44.7 3.5,44.6 2.6,44.5 L0.7,44.4 L0.7,43.2 C2.7,43.3 4.6,43.3 6.5,43.3 C8.3,43.3 10.1,43.3 12.2,43.2 L12.2,44.4 L10.3,44.5 C9.4,44.5 8.9,44.7 8.7,45.1 C8.4,45.5 8.3,46.5 8.3,48 L8.3,65.6 Z" id="Shape"></path>
                <path d="M18.8,66.3 C18.8,67.4 18.8,68.1 19,68.6 C19.2,69 19.6,69.1 20.2,69.1 L22,69.2 L22,70.4 C20.6,70.4 19.1,70.3 17.2,70.3 C15.3,70.3 13.7,70.4 12.4,70.4 L12.4,69.2 L14.2,69.1 C14.9,69.1 15.3,68.9 15.4,68.6 C15.6,68.2 15.6,67.4 15.6,66.3 L15.6,57.5 C15.6,56.3 15.5,55.4 15.3,55.1 C15.1,54.8 14.7,54.7 13.9,54.7 L12.5,54.7 L12.5,53.6 C14.8,53.4 17.1,52.6 18.6,52 L19,52.2 L19,55.5 L19.1,55.5 L22,53 C22.9,52.3 23.6,52 25.2,52 C29.8,52 31.6,54.5 31.6,58.8 L31.6,66.3 C31.6,67.4 31.6,68.1 31.8,68.6 C32,69 32.4,69.1 33,69.1 L34.6,69.2 L34.6,70.4 C33.6,70.4 32.5,70.3 31.4,70.3 C30.3,70.3 29.2,70.4 28.3,70.4 L28.3,59.3 C28.3,56.1 26.5,54.3 23.8,54.3 C21.4,54.3 19,56.4 19,58 L19,66.3 L18.8,66.3 Z" id="Shape"></path>
                <path d="M40.5,66.3 C40.5,67.4 40.5,68.1 40.7,68.6 C40.9,69 41.3,69.1 41.9,69.1 L43.7,69.2 L43.7,70.4 C42.3,70.4 40.8,70.3 38.9,70.3 C37,70.3 35.4,70.4 34.1,70.4 L34.1,69.2 L35.9,69.1 C36.6,69.1 37,68.9 37.1,68.6 C37.3,68.2 37.3,67.4 37.3,66.3 L37.3,57.5 C37.3,56.3 37.2,55.4 37,55.1 C36.8,54.8 36.4,54.7 35.6,54.7 L34.2,54.7 L34.2,53.6 C36.5,53.4 38.8,52.6 40.3,52 L40.7,52.2 L40.7,55.5 L40.8,55.5 L43.7,53 C44.6,52.3 45.3,52 46.9,52 C51.5,52 53.3,54.5 53.3,58.8 L53.3,66.3 C53.3,67.4 53.3,68.1 53.5,68.6 C53.7,69 54.1,69.1 54.7,69.1 L56.3,69.2 L56.3,70.4 C55.3,70.4 54.2,70.3 53.1,70.3 C52,70.3 50.9,70.4 50,70.4 L50,59.3 C50,56.1 48.2,54.3 45.5,54.3 C43.1,54.3 40.7,56.4 40.7,58 L40.7,66.3 L40.5,66.3 Z" id="Shape"></path>
                <path d="M65.1,71 C60.3,71 56.8,67.1 56.8,61.9 C56.8,56.1 60.5,52 66.7,52 C71.7,52 75.6,55.9 75.6,60.9 C75.6,66.9 71.3,71.1 65.4,71.1 L65.1,71.1 L65.1,71 Z M60.4,60.2 C60.4,64.3 61.9,69.7 66.9,69.7 C70.4,69.7 72,66.2 72,62.5 C72,57.5 69.6,53.2 65.9,53.2 C61.7,53.2 60.4,56.6 60.4,60.2 Z" id="Shape"></path>
                <path d="M88.9,66.3 C88.2,67.7 87.8,69.2 87.3,70.6 L85.3,70.6 L78.6,54.9 C78.4,54.4 78.1,53.7 77.4,53.6 L76.1,53.5 L76.1,52.4 C77.6,52.4 79.1,52.5 80.7,52.5 C82.2,52.5 83.7,52.4 85.2,52.4 L85.2,53.5 L83.3,53.6 C82.7,53.6 82.3,53.8 82.3,54.4 C82.3,54.8 82.4,55.2 82.7,55.8 L87.3,67 C88.1,65.2 89,63.4 89.7,61.5 L91.3,57.4 C91.8,56.2 92,55.2 92,54.6 C92,53.9 91.7,53.6 91.1,53.5 L89.5,53.4 L89.5,52.3 C90.7,52.3 92,52.4 93.2,52.4 C94.4,52.4 95.7,52.3 96.9,52.3 L96.9,53.4 L95.7,53.5 C94.7,53.6 94.1,54.9 93.5,56.1 L88.9,66.3 Z" id="Shape"></path>
                <path d="M109.5,59 L109.5,58.9 C109.5,55.9 108,54 104.6,54 C102.9,54 102.4,54.2 101.9,54.8 C101.7,55.1 101.5,55.6 101.2,56.1 L100.7,57.3 L99.7,57 L99.7,54.5 L101.8,53.3 C103.5,52.3 105.1,52 106.3,52 C111.2,52 112.7,54.1 112.7,59.8 L112.7,66.9 C112.7,67.5 112.7,68.1 112.8,68.6 C112.9,69 113.2,69.1 113.8,69.2 L115.3,69.3 L115.3,70.5 C114.3,70.5 113.3,70.4 112.4,70.4 C111.4,70.4 110.4,70.5 109.4,70.5 L109.6,67.2 L104.8,70.6 C104.5,70.8 103.7,70.9 103,70.9 C100.3,70.9 98.2,69.3 98.2,66.2 C98.2,61.7 102.1,60.6 105.7,59.9 L109.5,59 Z M109.5,60.3 C107.5,60.6 105.8,60.9 103.8,61.7 C102.4,62.2 101.5,63.9 101.5,65.4 C101.5,67.4 103,68.6 104.5,68.6 C105.7,68.6 107,67.8 108.2,66.8 C108.8,66.3 109.3,65.7 109.4,65.5 L109.4,60.3 L109.5,60.3 Z" id="Shape"></path>
                <path d="M116.3,55.5 L116.3,54.7 L119.3,53.3 L119.3,50.6 C119.3,49.6 119.3,48.6 119.1,47.5 C120.5,47.1 121.8,46.4 122.4,46 L122.9,46.4 C122.7,48.1 122.5,50.3 122.5,51.9 L122.5,53.4 L127.8,53.2 L127.4,55.3 L122.4,55.3 L122.4,65.5 C122.4,67.3 122.9,68.2 124.5,68.2 C125.5,68.2 126.3,67.8 126.8,67.5 L127.3,68.2 L125.4,70.3 C125,70.7 123.7,70.8 122.9,70.8 C120.8,70.8 119.1,69.8 119.1,66.7 L119.1,55.5 L116.3,55.5 Z" id="Shape"></path>
                <path d="M134.5,66.3 C134.5,67.4 134.5,68.1 134.7,68.6 C134.9,69 135.3,69.1 135.9,69.1 L137.7,69.2 L137.7,70.4 C136.3,70.4 134.7,70.3 132.8,70.3 C130.9,70.3 129.3,70.4 127.9,70.4 L127.9,69.2 L129.7,69.1 C130.4,69.1 130.8,68.9 130.9,68.6 C131.1,68.2 131.1,67.4 131.1,66.3 L131.1,57.5 C131.1,56.3 131,55.4 130.8,55.1 C130.6,54.8 130.2,54.7 129.4,54.7 L128,54.7 L128,53.6 C130.3,53.4 132.6,52.6 134.1,52 L134.5,52.2 L134.5,66.3 L134.5,66.3 Z M134.8,45.6 C134.8,46.7 133.7,47.7 132.6,47.7 C131.5,47.7 130.5,46.7 130.5,45.6 C130.5,44.5 131.5,43.4 132.6,43.4 C133.7,43.4 134.8,44.5 134.8,45.6 Z" id="Shape"></path>
                <path d="M147.1,71 C142.3,71 138.8,67.1 138.8,61.9 C138.8,56.1 142.5,52 148.7,52 C153.7,52 157.6,55.9 157.6,60.9 C157.6,66.9 153.3,71.1 147.4,71.1 L147.1,71.1 L147.1,71 Z M142.4,60.2 C142.4,64.3 143.9,69.7 148.9,69.7 C152.4,69.7 154,66.2 154,62.5 C154,57.5 151.6,53.2 147.9,53.2 C143.7,53.2 142.4,56.6 142.4,60.2 Z" id="Shape"></path>
                <path d="M164.6,66.3 C164.6,67.4 164.6,68.1 164.8,68.6 C165,69 165.4,69.1 166,69.1 L167.8,69.2 L167.8,70.4 C166.4,70.4 164.9,70.3 163,70.3 C161.1,70.3 159.5,70.4 158.2,70.4 L158.2,69.2 L160,69.1 C160.7,69.1 161.1,68.9 161.2,68.6 C161.4,68.2 161.4,67.4 161.4,66.3 L161.4,57.5 C161.4,56.3 161.3,55.4 161.1,55.1 C160.9,54.8 160.5,54.7 159.7,54.7 L158.3,54.7 L158.3,53.6 C160.6,53.4 162.9,52.6 164.4,52 L164.8,52.2 L164.8,55.5 L164.9,55.5 L167.8,53 C168.7,52.3 169.4,52 171,52 C175.6,52 177.4,54.5 177.4,58.8 L177.4,66.3 C177.4,67.4 177.4,68.1 177.6,68.6 C177.8,69 178.2,69.1 178.8,69.1 L180.4,69.2 L180.4,70.4 C179.4,70.4 178.3,70.3 177.2,70.3 C176.1,70.3 175,70.4 174.1,70.4 L174.1,59.3 C174.1,56.1 172.3,54.3 169.6,54.3 C167.2,54.3 164.8,56.4 164.8,58 L164.8,66.3 L164.6,66.3 Z" id="Shape"></path>
                <path d="M217.3,54.9 C217,55.9 216.8,56.8 216.8,57.7 C215,57.4 213.1,57.3 211.3,57.2 C211.5,57.8 211.5,58.4 211.5,59 C211.5,61.5 210,63.8 208.3,65.6 C210.5,66.9 212.7,68.1 214.9,68.1 C215.9,68.1 216.6,67.7 217.4,67.4 L217.6,68.4 L214.2,70.9 C213.9,71.1 213.5,71.1 213,71.1 L212.6,71.1 C211,71.1 207.3,69.4 205.8,68.1 C203.6,69.9 200.9,71.1 198,71.1 C193,71.1 189.8,67.8 189.8,63.6 C189.8,59.7 192.6,57 195.8,55.3 C195.1,53.6 194.6,51.8 194.6,50.2 C194.6,48.6 194.9,47.3 195.5,46.7 L198.2,44.4 C198.7,43.9 199.4,43.5 200.9,43.5 C203.2,43.5 204.6,44.7 204.6,47.1 C204.6,50.4 201.5,53.2 199,54.9 C201.2,58.6 204,61.8 207,64.9 C208.1,63.5 208.9,62 208.9,60.7 C208.9,59.2 208.5,57.6 208,57.4 C207.5,57.2 206,57.1 204.5,57 L205.8,55.2 C206.8,55.2 207.8,55.3 208.9,55.3 L209.6,55.3 L217.3,54.9 Z M193.4,62.2 C193.4,65.7 196.4,68.9 199.9,68.9 C201.6,68.9 203.4,68.1 204.7,67.1 C201.7,63.8 198.8,60.5 196.6,56.6 C194.7,58 193.4,59.6 193.4,62.2 Z M197.6,48.9 C197.6,50.1 198.2,52.3 198.6,53.5 C200.1,52.5 202.2,50.1 202.2,48.2 C202.2,47 201.5,45.5 200.1,45.5 C197.9,45.4 197.6,47.2 197.6,48.9 Z" id="Shape"></path>
                <path d="M231.2,48 C231.2,46.5 231.1,45.5 230.8,45.1 C230.6,44.7 230.1,44.6 229.2,44.5 L227.3,44.4 L227.3,43.2 C228.4,43.2 229.5,43.2 230.6,43.3 C231.7,43.3 232.8,43.3 233.9,43.3 C237.3,43.3 240.9,43.2 243.1,43.2 C244.9,43.2 246.6,43.2 248.1,43.3 C247.7,45 247.5,47.2 247.5,49.2 L246.1,49.2 L246.1,46.7 C246.1,46.2 246.1,45.8 245.7,45.6 C243.6,44.8 240.6,44.8 238.1,44.8 C237,44.8 235.9,44.8 234.8,45.1 L234.8,55.5 C236,55.6 237.5,55.6 239.3,55.6 C241.7,55.6 243,55.4 243.4,55.2 C243.6,55 243.7,54.7 243.7,54.2 L243.9,52.2 L245.1,52.2 C245.1,53.8 245,55.3 245,56.7 C245,58.1 245.1,59.6 245.1,61 L243.9,61 L243.7,58.7 C243.7,58.2 243.6,57.8 243.4,57.7 C243,57.4 241.6,57.2 239.3,57.2 C237.4,57.2 236,57.2 234.8,57.3 L234.8,68.2 C235.9,68.5 237,68.5 238.1,68.5 C241.3,68.5 245.3,68.4 246,68 C246.6,67.7 247.1,66 247.4,63.6 L248.8,63.6 C248.4,65.5 248.2,67.9 248.2,70 C246.7,70 244.2,70.1 241.7,70.1 L240.5,70.1 C237.5,70.1 234.4,70 232,70 C230.5,70 229.2,70.1 227.8,70.1 L227.8,68.9 L229.2,68.8 C230.1,68.7 230.6,68.6 230.8,68.2 C231.1,67.8 231.2,66.8 231.2,65.3 L231.2,48 L231.2,48 Z" id="Shape"></path>
                <path d="M256.1,66.3 C256.1,67.4 256.1,68.1 256.3,68.6 C256.5,69 256.9,69.1 257.5,69.1 L259.3,69.2 L259.3,70.4 C257.9,70.4 256.4,70.3 254.5,70.3 C252.6,70.3 251,70.4 249.7,70.4 L249.7,69.2 L251.5,69.1 C252.2,69.1 252.6,68.9 252.7,68.6 C252.9,68.2 252.9,67.4 252.9,66.3 L252.9,57.5 C252.9,56.3 252.8,55.4 252.6,55.1 C252.4,54.8 252,54.7 251.2,54.7 L249.8,54.7 L249.8,53.6 C252.1,53.4 254.4,52.6 255.9,52 L256.3,52.2 L256.3,55.5 L256.4,55.5 L259.3,53 C260.2,52.3 260.9,52 262.5,52 C267.1,52 268.9,54.5 268.9,58.8 L268.9,66.3 C268.9,67.4 268.9,68.1 269.1,68.6 C269.3,69 269.7,69.1 270.3,69.1 L271.9,69.2 L271.9,70.4 C270.9,70.4 269.8,70.3 268.7,70.3 C267.6,70.3 266.5,70.4 265.6,70.4 L265.6,59.3 C265.6,56.1 263.8,54.3 261.1,54.3 C258.7,54.3 256.3,56.4 256.3,58 L256.3,66.3 L256.1,66.3 Z" id="Shape"></path>
                <path d="M271.9,55.5 L271.9,54.7 L274.9,53.3 L274.9,50.6 C274.9,49.6 274.9,48.6 274.7,47.5 C276.1,47.1 277.4,46.4 278,46 L278.5,46.4 C278.3,48.1 278.1,50.3 278.1,51.9 L278.1,53.4 L283.4,53.2 L283,55.3 L278,55.3 L278,65.5 C278,67.3 278.5,68.2 280.1,68.2 C281.1,68.2 281.9,67.8 282.4,67.5 L282.9,68.2 L281,70.3 C280.6,70.7 279.3,70.8 278.5,70.8 C276.4,70.8 274.7,69.8 274.7,66.7 L274.7,55.5 L271.9,55.5 Z" id="Shape"></path>
                <path d="M286.9,57.5 C286.9,56.3 286.8,55.4 286.6,55.1 C286.4,54.8 286,54.7 285.2,54.7 L283.8,54.7 L283.8,53.6 C286.1,53.4 288.4,52.6 289.9,52 L290.3,52.2 L290.3,56.1 L290.4,56.1 L292.5,53.6 C293.4,52.5 294.8,52 295.8,52 C296.5,52 297.3,52.2 297.6,52.4 L297.2,57.1 L296.4,57.1 C296,56.2 295.2,55.3 293.7,55.3 C292,55.3 290.3,57.1 290.3,59.6 L290.3,66.3 C290.3,67.4 290.3,68.1 290.5,68.6 C290.7,69 291.2,69.1 292.1,69.1 L294.1,69.2 L294.1,70.4 C292.1,70.4 290.5,70.3 288.6,70.3 C286.7,70.3 285.1,70.4 283.7,70.4 L283.7,69.2 L285.5,69.1 C286.2,69.1 286.6,68.9 286.7,68.6 C286.9,68.2 286.9,67.4 286.9,66.3 L286.9,57.5 L286.9,57.5 Z" id="Shape"></path>
                <path d="M314,59.1 C314,59.6 314,60.2 313.9,60.7 C311.6,61.1 309.2,61.2 306.8,61.2 L301.1,61.2 C301.1,65.8 303.4,68.9 308.2,68.9 C310.1,68.9 311.6,68 313,67.1 L313.5,67.5 L312.7,68.8 C312.4,69.3 309.1,71 306.5,71 C300.6,71 297.5,67.3 297.5,62 C297.5,58.2 298.5,56 300.3,54.6 C301,54 301.9,53.4 302.7,53 C304.1,52.4 305.2,51.9 306.5,51.9 C310.8,51.9 314,54.7 314,59.1 Z M301.3,59.2 L301.3,59.7 C303,59.9 304.7,59.9 306.3,59.9 C307.8,59.9 309.3,59.9 310.6,59.8 C310.6,56.2 309.3,53.2 306.5,53.2 C303.5,53.2 301.3,55.3 301.3,59.2 Z" id="Shape"></path>
                <path d="M317.8,57.5 C317.8,56.3 317.7,55.4 317.5,55.1 C317.3,54.8 316.9,54.7 316.1,54.7 L314.7,54.7 L314.7,53.6 C317,53.4 319.3,52.6 320.8,52 L321.2,52.2 L321.2,55.9 L321.3,55.9 L324.4,53.1 C325.1,52.5 326.4,52.1 328.1,52.1 C332.2,52.1 336,55.3 336,60.1 C336,62.7 333.9,66.6 332.6,67.4 L328.2,70.3 C327.5,70.7 326.5,70.9 325.5,70.9 C324.3,70.9 322.5,70.7 321.2,69.9 L321.2,77.3 C321.2,78.4 321.2,79.1 321.4,79.6 C321.6,80 322,80.1 322.6,80.1 L324.4,80.2 L324.4,81.4 C323,81.4 321.4,81.3 319.5,81.3 C317.6,81.3 316,81.4 314.6,81.4 L314.6,80 L316.4,79.9 C317.1,79.9 317.5,79.7 317.6,79.4 C317.8,79 317.8,78.2 317.8,77.1 L317.8,57.5 L317.8,57.5 Z M321.1,66.4 C322.6,68.1 324.4,68.7 326.6,68.7 C329.8,68.7 332.5,65.5 332.5,61.1 C332.5,57.4 330.5,54.5 326.4,54.5 C323.5,54.5 322,56.3 321.3,57.5 C321.1,57.9 321.1,58.2 321.1,58.6 L321.1,66.4 L321.1,66.4 Z" id="Shape"></path>
                <path d="M340.8,57.5 C340.8,56.3 340.7,55.4 340.5,55.1 C340.3,54.8 339.9,54.7 339.1,54.7 L337.7,54.7 L337.7,53.6 C340,53.4 342.3,52.6 343.8,52 L344.2,52.2 L344.2,56.1 L344.3,56.1 L346.4,53.6 C347.3,52.5 348.7,52 349.7,52 C350.4,52 351.2,52.2 351.5,52.4 L351.1,57.1 L350.3,57.1 C349.9,56.2 349.1,55.3 347.6,55.3 C345.9,55.3 344.2,57.1 344.2,59.6 L344.2,66.3 C344.2,67.4 344.2,68.1 344.4,68.6 C344.6,69 345.1,69.1 346,69.1 L348,69.2 L348,70.4 C346,70.4 344.4,70.3 342.5,70.3 C340.6,70.3 339,70.4 337.6,70.4 L337.6,69.2 L339.4,69.1 C340.1,69.1 340.5,68.9 340.6,68.6 C340.8,68.2 340.8,67.4 340.8,66.3 L340.8,57.5 L340.8,57.5 Z" id="Shape"></path>
                <path d="M367.9,59.1 C367.9,59.6 367.9,60.2 367.8,60.7 C365.5,61.1 363.1,61.2 360.7,61.2 L355,61.2 C355,65.8 357.3,68.9 362.1,68.9 C364,68.9 365.5,68 366.9,67.1 L367.4,67.5 L366.6,68.8 C366.3,69.3 363,71 360.4,71 C354.5,71 351.4,67.3 351.4,62 C351.4,58.2 352.4,56 354.2,54.6 C354.9,54 355.8,53.4 356.6,53 C358,52.4 359.1,51.9 360.4,51.9 C364.7,51.9 367.9,54.7 367.9,59.1 Z M355.2,59.2 L355.2,59.7 C356.9,59.9 358.6,59.9 360.2,59.9 C361.7,59.9 363.2,59.9 364.5,59.8 C364.5,56.2 363.2,53.2 360.4,53.2 C357.4,53.2 355.2,55.3 355.2,59.2 Z" id="Shape"></path>
                <path d="M374.8,66.3 C374.8,67.4 374.8,68.1 375,68.6 C375.2,69 375.6,69.1 376.2,69.1 L378,69.2 L378,70.4 C376.6,70.4 375.1,70.3 373.2,70.3 C371.3,70.3 369.7,70.4 368.4,70.4 L368.4,69.2 L370.2,69.1 C370.9,69.1 371.3,68.9 371.4,68.6 C371.6,68.2 371.6,67.4 371.6,66.3 L371.6,57.5 C371.6,56.3 371.5,55.4 371.3,55.1 C371.1,54.8 370.7,54.7 369.9,54.7 L368.5,54.7 L368.5,53.6 C370.8,53.4 373.1,52.6 374.6,52 L375,52.2 L375,55.5 L375.1,55.5 L378,53 C378.9,52.3 379.6,52 381.2,52 C385.8,52 387.6,54.5 387.6,58.8 L387.6,66.3 C387.6,67.4 387.6,68.1 387.8,68.6 C388,69 388.4,69.1 389,69.1 L390.6,69.2 L390.6,70.4 C389.6,70.4 388.5,70.3 387.4,70.3 C386.3,70.3 385.2,70.4 384.3,70.4 L384.3,59.3 C384.3,56.1 382.5,54.3 379.8,54.3 C377.4,54.3 375,56.4 375,58 L375,66.3 L374.8,66.3 Z" id="Shape"></path>
                <path d="M407.3,59.1 C407.3,59.6 407.3,60.2 407.2,60.7 C404.9,61.1 402.5,61.2 400.1,61.2 L394.4,61.2 C394.4,65.8 396.7,68.9 401.5,68.9 C403.4,68.9 404.9,68 406.3,67.1 L406.8,67.5 L406,68.8 C405.7,69.3 402.4,71 399.8,71 C393.9,71 390.8,67.3 390.8,62 C390.8,58.2 391.8,56 393.6,54.6 C394.3,54 395.2,53.4 396,53 C397.4,52.4 398.5,51.9 399.8,51.9 C404.2,51.9 407.3,54.7 407.3,59.1 Z M394.6,59.2 L394.6,59.7 C396.3,59.9 398,59.9 399.6,59.9 C401.1,59.9 402.6,59.9 403.9,59.8 C403.9,56.2 402.6,53.2 399.8,53.2 C396.8,53.2 394.6,55.3 394.6,59.2 Z" id="Shape"></path>
                <path d="M427.2,66.3 C427.2,67.4 427.2,68.1 427.4,68.6 C427.6,69 428,69.1 428.6,69.1 L430.2,69.2 L430.2,70.4 C429.2,70.4 428.1,70.3 427,70.3 C425.9,70.3 424.7,70.4 423.7,70.4 C423.8,69.3 423.9,68.3 423.9,66.8 L421.3,69.2 C420.2,70.2 418.8,70.7 416.9,70.7 C411.4,70.7 411.4,67.2 411.4,64 L411.4,57.4 C411.4,56.2 411.3,55.3 411.1,55 C410.9,54.7 410.5,54.6 409.7,54.6 L408.3,54.6 L408.3,53.5 C410.6,53.3 412.9,52.5 414.4,51.9 L414.8,52.1 L414.8,63.6 C414.8,66.7 415.5,68.3 419.1,68.3 C421.6,68.3 424.1,65.7 424.1,63.8 L424.1,57.4 C424.1,56.2 424,55.3 423.8,55 C423.6,54.7 423.2,54.6 422.4,54.6 L421,54.6 L421,53.5 C423.3,53.3 425.6,52.5 427.1,51.9 L427.5,52.1 L427.5,66.3 L427.2,66.3 Z" id="Shape"></path>
                <path d="M434.2,57.5 C434.2,56.3 434.1,55.4 433.9,55.1 C433.7,54.8 433.3,54.7 432.5,54.7 L431,54.7 L431,53.6 C433.3,53.4 435.6,52.6 437.1,52 L437.5,52.2 L437.5,56.1 L437.6,56.1 L439.7,53.6 C440.6,52.5 442,52 443,52 C443.7,52 444.5,52.2 444.8,52.4 L444.4,57.1 L443.6,57.1 C443.2,56.2 442.4,55.3 440.9,55.3 C439.2,55.3 437.5,57.1 437.5,59.6 L437.5,66.3 C437.5,67.4 437.5,68.1 437.7,68.6 C437.9,69 438.4,69.1 439.3,69.1 L441.3,69.2 L441.3,70.4 C439.3,70.4 437.7,70.3 435.8,70.3 C433.9,70.3 432.3,70.4 430.9,70.4 L430.9,69.2 L432.7,69.1 C433.4,69.1 433.8,68.9 433.9,68.6 C434.1,68.2 434.1,67.4 434.1,66.3 L434.1,57.5 L434.2,57.5 Z" id="Shape"></path>
                <path d="M447.3,64.7 L447.3,66.3 C447.3,68.7 450.1,69.6 452.3,69.6 C454.8,69.6 456.9,68.2 456.9,66.1 C456.9,64.9 456.2,63.8 455,63.5 C453.3,63.1 451.1,62.6 449.3,61.9 C447.5,61.2 446,60 446,57.6 C446,53.4 449.7,51.9 453.3,51.9 C455.1,51.9 456.8,52.3 458.3,52.9 C458.2,54.3 458.1,55.7 458.1,57.3 L457,57.3 L457,56.4 C457,54.4 454.7,53.2 452.5,53.2 C449.2,53.2 448.7,55 448.7,56.4 C448.7,58.1 450,59 453,59.5 C457.6,60.3 459.8,61.5 459.8,64.5 C459.8,68.8 455.5,71.1 451.2,71.1 C449.3,71.1 447.7,70.8 445.7,70.2 C446.1,68.5 446.1,66.6 446.1,64.8 L447.3,64.8 L447.3,64.7 Z" id="Shape"></path>
                <path d="M463.5,46.1 C463.5,45.2 463.4,44.5 462.5,44.5 L460.3,44.5 L460.3,43.4 C462.4,43.1 464.4,42.7 466.4,42 L466.8,42.3 L466.8,55.5 L466.9,55.5 L469.8,53 C470.7,52.3 471.4,52 473,52 C477.6,52 479.4,54.5 479.4,58.8 L479.4,66.3 C479.4,67.4 479.4,68.1 479.6,68.6 C479.8,69 480.2,69.1 480.8,69.1 L482.4,69.2 L482.4,70.4 C481.4,70.4 480.3,70.3 479.2,70.3 C478.1,70.3 477,70.4 476.1,70.4 L476.1,59.3 C476.1,56.1 474.3,54.3 471.6,54.3 C469.2,54.3 466.8,56.4 466.8,58 L466.8,66.3 C466.8,67.4 466.8,68.1 467,68.6 C467.2,69 467.6,69.1 468.2,69.1 L470,69.2 L470,70.4 C468.6,70.4 467.1,70.3 465.2,70.3 C463.3,70.3 461.7,70.4 460.4,70.4 L460.4,69.2 L462.2,69.1 C462.9,69.1 463.3,68.9 463.4,68.6 C463.6,68.2 463.6,67.4 463.6,66.3 L463.6,46.1 L463.5,46.1 Z" id="Shape"></path>
                <path d="M489.2,66.3 C489.2,67.4 489.2,68.1 489.4,68.6 C489.6,69 490,69.1 490.6,69.1 L492.4,69.2 L492.4,70.4 C491,70.4 489.4,70.3 487.5,70.3 C485.6,70.3 484,70.4 482.6,70.4 L482.6,69.2 L484.4,69.1 C485.1,69.1 485.5,68.9 485.6,68.6 C485.8,68.2 485.8,67.4 485.8,66.3 L485.8,57.5 C485.8,56.3 485.7,55.4 485.5,55.1 C485.3,54.8 484.9,54.7 484.1,54.7 L482.7,54.7 L482.7,53.6 C485,53.4 487.3,52.6 488.8,52 L489.2,52.2 L489.2,66.3 L489.2,66.3 Z M489.5,45.6 C489.5,46.7 488.4,47.7 487.3,47.7 C486.2,47.7 485.2,46.7 485.2,45.6 C485.2,44.5 486.2,43.4 487.3,43.4 C488.4,43.4 489.5,44.5 489.5,45.6 Z" id="Shape"></path>
                <path d="M495.7,57.5 C495.7,56.3 495.6,55.4 495.4,55.1 C495.2,54.8 494.8,54.7 494,54.7 L492.6,54.7 L492.6,53.6 C494.9,53.4 497.2,52.6 498.7,52 L499.1,52.2 L499.1,55.9 L499.2,55.9 L502.3,53.1 C503,52.5 504.3,52.1 506,52.1 C510.1,52.1 513.9,55.3 513.9,60.1 C513.9,62.7 511.8,66.6 510.5,67.4 L506.1,70.3 C505.4,70.7 504.4,70.9 503.4,70.9 C502.2,70.9 500.4,70.7 499.1,69.9 L499.1,77.3 C499.1,78.4 499.1,79.1 499.3,79.6 C499.5,80 499.9,80.1 500.5,80.1 L502.3,80.2 L502.3,81.4 C500.9,81.4 499.3,81.3 497.4,81.3 C495.5,81.3 493.9,81.4 492.5,81.4 L492.5,80 L494.3,79.9 C495,79.9 495.4,79.7 495.5,79.4 C495.7,79 495.7,78.2 495.7,77.1 L495.7,57.5 L495.7,57.5 Z M499,66.4 C500.5,68.1 502.3,68.7 504.5,68.7 C507.7,68.7 510.4,65.5 510.4,61.1 C510.4,57.4 508.4,54.5 504.3,54.5 C501.4,54.5 499.9,56.3 499.2,57.5 C499,57.9 499,58.2 499,58.6 L499,66.4 L499,66.4 Z" id="Shape"></path>
            </g>
            <g id="Group">
                <path d="M188,29.9 C189,28.9 190.9,20.2 190.8,17.6 C192.4,17.1 194.6,16 196,15.2 C196.2,15.6 196.3,15.6 196.5,15.8 C196.1,19.1 193.4,25.5 192,28 L189.2,30.2 C189.1,30.2 188.6,30.2 188,29.9" id="Shape"></path>
                <path d="M86.4,41 C86.4,42.8 86.5,44.1 86.7,44.8 C87,45.4 87.7,45.7 88.9,45.7 L91.7,45.9 L91.7,47.9 C90,47.8 88,47.7 86.1,47.7 C84.1,47.7 82.1,47.8 80.3,47.9 C80.4,46 80.6,44.3 80.6,41.8 L76,46 C74.1,47.7 71.6,48.6 68.3,48.6 C58.6,48.6 58.6,42.6 58.6,37.3 L58.6,26.2 C58.6,24.1 58.5,22.6 58.1,22.1 C57.7,21.6 57,21.4 55.6,21.4 L53.6,21.4 L53.6,19.5 C57.2,19.1 61.3,17.8 63.8,16.8 L64.4,17.1 L64.4,36.6 C64.4,41.8 65.6,44.6 71.9,44.6 C76.4,44.6 80.6,40.2 80.6,37 L80.6,26.2 C80.6,24.1 80.5,22.6 80.1,22.1 C79.7,21.6 79,21.4 77.6,21.4 L75,21.4 L75,19.5 C79.1,19.1 83.2,17.8 85.7,16.8 L86.3,17.1 L86.3,41 L86.4,41 Z" id="Shape"></path>
                <path d="M106.9,16.7 C104.5,16.7 102.5,17.4 100,18.5 C98.5,19.2 97,20.2 95.6,21.1 C92.4,23.5 90.5,27.3 90.5,33.7 C90.5,42.6 96.1,49 106.7,49 C111.5,49 117.5,46.1 118,45.3 L119.4,43.1 L118.5,42.4 C115.8,43.9 112.6,45.4 109.3,45.4 C100.6,45.4 97.1,40.2 97.1,32.5 L107.4,32.5 C111.6,32.5 115.9,32.2 120.1,31.6 C120.2,30.7 120.2,29.7 120.2,28.8 C120.3,21.4 114.6,16.7 106.9,16.7 M106.6,18.9 C111.7,18.9 114.1,23.9 114.1,30.1 C109,30.4 103.1,30.5 97.4,29.9 C96.9,22.7 101.2,18.9 106.6,18.9" id="Shape"></path>
                <path d="M138.8,16.8 C136.4,16.8 134.4,17.5 132,18.6 C130.5,19.3 129,20.3 127.7,21.2 C124.5,23.6 122.7,27.4 122.7,33.8 C122.7,42.7 128.3,49.1 138.7,49.1 C143.4,49.1 149.3,46.2 149.8,45.4 L151.2,43.2 L150.3,42.5 C147.7,44 145,45.6 141.7,45.6 C133.2,45.6 129.1,40.3 129.1,32.6 L139.2,32.6 C143.4,32.6 147.6,32.3 151.8,31.7 C151.9,30.8 151.9,29.8 151.9,28.9 C152,21.4 146.4,16.8 138.8,16.8 M138.5,18.9 C143.5,18.9 145.9,23.9 145.9,30.1 C140.9,30.4 135.1,30.5 129.4,29.9 C129,22.7 133.1,18.9 138.5,18.9" id="Shape"></path>
                <path d="M163.2,41 C163.2,42.8 163.3,44.1 163.5,44.8 C163.8,45.4 164.5,45.7 165.7,45.7 L168.8,45.9 L168.8,47.9 C166.4,47.8 163.6,47.7 160.1,47.7 C156.7,47.7 153.9,47.8 151.4,47.9 L151.4,45.9 L154.5,45.7 C155.7,45.6 156.5,45.4 156.7,44.8 C157,44.1 157.1,42.8 157.1,41 L157.1,26.3 C157.1,24.2 157,22.8 156.6,22.2 C156.2,21.7 155.5,21.5 154,21.5 L151.4,21.5 L151.4,19.7 C155.5,19.3 159.7,18.1 162.3,17 L162.9,17.3 L162.9,22.9 L163,22.9 L168.2,18.7 C169.7,17.5 171.1,17.1 173.9,17.1 C182.1,17.1 185.4,21.4 185.4,28.5 L185.4,41 C185.4,42.8 185.5,44.1 185.7,44.8 C186,45.4 186.7,45.7 187.9,45.7 L190.8,45.9 L190.8,47.9 C189.1,47.8 187,47.7 185.1,47.7 C183.1,47.7 181.1,47.8 179.5,47.9 L179.5,29.3 C179.5,23.9 176.2,21 171.5,21 C167.2,21 162.9,24.5 162.9,27.2 L162.9,41 L163.2,41 Z" id="Shape"></path>
                <path d="M198.5,38.1 L198.5,40.8 C198.5,44.9 203.5,46.4 207.5,46.4 C211.9,46.4 215.7,44 215.7,40.4 C215.7,38.3 214.5,36.6 212.3,36 C209.2,35.3 205.4,34.5 202,33.4 C198.6,32.2 196.1,30.2 196.1,26.2 C196.1,19.1 202.7,16.6 209.2,16.6 C212.5,16.6 215.5,17.3 218.2,18.3 C218,20.7 217.9,23.1 217.9,25.8 L215.9,25.8 L215.9,24.3 C215.9,20.9 211.8,18.9 207.8,18.9 C201.9,18.9 201,22 201,24.3 C201,27.1 203.3,28.7 208.6,29.5 C216.9,30.8 220.8,32.8 220.8,38 C220.8,45.3 213.1,49.1 205.4,49.1 C202.1,49.1 199,48.6 195.6,47.5 C196.3,44.6 196.4,41.4 196.4,38.3 L198.5,38.3 L198.5,38.1 Z" id="Shape"></path>
                <path d="M25.2,3.6 C14.4,3.5 7.4,11.4 7.5,25.1 C7.6,33.6 14.7,46.5 26,46.5 C40.4,46.5 45,36.1 45,24.1 C45,11.3 36.8,3.8 25.2,3.6 M98.7,50.4 C97.9,52.2 97.1,53.2 96.1,56.4 C95.8,57.5 90.2,61.7 78.5,61.3 C70.3,61.1 52.4,57.8 42.3,56.1 C34,54.7 33.3,54.6 26.5,53.8 C19.4,52.9 14.9,55 11.6,58.6 C11.5,58.7 11.2,58.6 10.5,58 C10.4,57.9 13.4,54.3 14.8,51.6 C14.9,51.4 15.8,50.9 17.7,50.3 C18.9,50 21.1,49.4 22.4,49.2 C11.2,47.7 0.7,39.8 0.1,26 C-0.5,12.2 10.1,0.7 25.3,0.8 C42.2,0.9 52,10.5 52,22.4 C52,40.2 41.2,48.5 28.7,49 C33.1,48.8 26.7,49.2 27.2,49.2 C38.9,50.6 64.4,54.7 76.8,55.7 C83.1,56.2 91.3,55.1 95.2,52 C95.4,51.8 97.1,50.4 97.3,49.7 C98.2,49.9 98.8,50.2 98.7,50.4" id="Shape"></path>
            </g>
        </g>
    </g>
</svg>