<?xml version="1.0" encoding="UTF-8"?>
<svg width="256px" height="256px" viewBox="0 0 256 256" version="1.1" xmlns="http://www.w3.org/2000/svg" xmlns:xlink="http://www.w3.org/1999/xlink">
    <!-- Generator: Sketch 44.1 (41455) - http://www.bohemiancoding.com/sketch -->
    <title>movember</title>
    <desc>Created with Sketch.</desc>
    <defs></defs>
    <g id="Page-1" stroke="none" stroke-width="1" fill="none" fill-rule="evenodd">
        <g id="movember" fill-rule="nonzero" fill="#231F20">
            <path d="M49.57,188 L53.44,184.73 L59.87,192.34 L62.1,190.45 L53.48,180.26 L38.72,192.77 L40.91,195.36 L47.46,189.82 L53.11,196.5 L55.22,194.72 L49.57,188 Z M68.94,42.21 C69.5449586,43.3990633 70.3462044,44.4775335 71.31,45.4 C72.2086818,46.2601095 73.2645684,46.9391363 74.42,47.4 C75.5563795,47.8548381 76.7774215,48.0594821 78,48 C80.6938577,47.8042248 83.1888095,46.5097426 84.9,44.42 C85.6560371,43.4527773 86.194919,42.3340857 86.48,41.14 C86.7628188,39.9269638 86.8103441,38.6709396 86.62,37.44 C86.4198552,36.1197854 86.0007642,34.8422337 85.38,33.66 C84.7683912,32.4843014 83.9638949,31.4195269 83,30.51 C82.1035099,29.6519384 81.0513059,28.9730971 79.9,28.51 C78.7596791,28.055994 77.5362796,27.8481183 76.31,27.9 C73.6111654,28.078062 71.1095741,29.375989 69.41,31.48 C68.6596825,32.4531699 68.1245493,33.5745638 67.84,34.77 C67.5551923,35.9827684 67.5076525,37.2391771 67.7,38.47 C67.9011701,39.7772636 68.3203259,41.0414917 68.94,42.21 Z M70.83,35.51 C70.9265965,34.6789206 71.2215483,33.8832365 71.69,33.19 C72.7978702,31.6732969 74.5520536,30.7628979 76.43,30.73 C77.2662772,30.7498804 78.0856978,30.9693068 78.82,31.37 C79.5748097,31.7910533 80.2513837,32.3390783 80.82,32.99 C82.0379293,34.3607368 82.8938757,36.0141916 83.31,37.8 C83.5157992,38.6436427 83.5733228,39.5166477 83.48,40.38 C83.3860281,41.2101221 83.0945616,42.0056543 82.63,42.7 C81.524243,44.2139322 79.7744047,45.1239961 77.9,45.16 C77.0637228,45.1401196 76.2443022,44.9206932 75.51,44.52 C74.7556372,44.0982866 74.0791692,43.5503475 73.51,42.9 C72.2869509,41.5299324 71.4243303,39.8768627 71,38.09 C70.7939989,37.2463883 70.736473,36.373348 70.83,35.51 L70.83,35.51 Z M57.2,64.73 L47.2,53.63 L47.2,53.63 L61.2,61.15 L63.28,59.29 L57.28,44.6 L57.28,44.6 L67.28,55.7 L69.68,53.55 L56.82,39.1 L53.31,42.25 L59.56,57 L59.56,57 L45.48,49.3 L41.89,52.5 L54.8,66.89 L57.2,64.73 Z M101.2,38.64 L102.2,18.24 L99,19.19 L98.4,35.26 L98.35,35.26 L89.49,21.9 L86.11,22.9 L97.61,39.68 L101.2,38.64 Z M185.2,54.76 L186.83,52.33 L177.93,46.33 L181.08,41.63 L189.17,47.06 L190.71,44.77 L182.62,39.34 L185.44,35.14 L194.21,41 L195.84,38.57 L184.29,30.81 L173.51,46.9 L185.2,54.76 Z M166,43 C166.835062,43.0800062 167.677707,42.9950621 168.48,42.75 C169.168149,42.5302161 169.790374,42.1417548 170.29,41.62 C170.790386,41.0919018 171.181238,40.4699383 171.44,39.79 C171.904773,38.7197629 172.023641,37.5310785 171.78,36.39 C171.501371,35.3203203 170.816024,34.4017405 169.87,33.83 L169.87,33.78 C170.754606,33.7730103 171.618693,33.5127429 172.36,33.03 C173.112158,32.5223878 173.685835,31.7913004 174,30.94 C174.595544,29.6877332 174.539499,28.2230942 173.85,27.02 C173.022373,25.7860386 171.809126,24.8611579 170.4,24.39 L161.61,21 L154.56,39 L162.83,42.24 C163.843056,42.649367 164.911452,42.9055123 166,43 L166,43 Z M163.77,24.78 L168.91,26.78 C169.628939,27.0088647 170.246996,27.4785881 170.66,28.11 C170.967178,28.809931 170.941449,29.6112176 170.59,30.29 C170.359485,31.0079596 169.814842,31.5820427 169.11,31.85 C168.408671,32.0811832 167.646714,32.0455777 166.97,31.75 L161.83,29.75 L163.77,24.78 Z M160.92,32 L166.49,34.18 C167.317941,34.4438554 168.014875,35.0121245 168.44,35.77 C168.78808,36.5216584 168.78808,37.3883416 168.44,38.14 C168.181186,38.9410881 167.591374,39.5927935 166.82,39.93 C165.994862,40.2146519 165.091467,40.1680482 164.3,39.8 L158.73,37.62 L160.92,32 Z M134.59,20.31 L134.64,20.31 L137.95,35.81 L140.71,36.18 L148,22.13 L148.05,22.13 L146.05,36.91 L149.24,37.34 L151.83,18.18 L147.16,17.55 L140,31.87 L140,31.87 L136.75,16.15 L132,15.5 L129.4,34.66 L132.59,35.09 L134.59,20.31 Z M125,35 L124.76,32.09 L114.09,33 L113.63,27.36 L123.35,26.57 L123.12,23.82 L113.4,24.62 L112.99,19.62 L123.49,18.76 L123.25,15.85 L109.38,16.98 L111,36.15 L125,35 Z M191.14,59.75 L196.79,54.14 L200.3,57.68 C200.771609,58.1241432 201.155007,58.653436 201.43,59.24 C201.637808,59.7075674 201.697145,60.2276393 201.6,60.73 C201.477469,61.2916853 201.235303,61.8203586 200.89,62.28 C200.437126,62.8927853 199.935495,63.467989 199.39,64 C199.06,64.33 198.73,64.69 198.39,65.08 C198.073354,65.4532766 197.847453,65.8948108 197.73,66.37 L200.29,69 C200.386827,68.2686159 200.680634,67.5773053 201.14,67 C201.734073,66.1514896 202.403451,65.3582776 203.14,64.63 C203.609085,64.1890137 203.995207,63.66741 204.28,63.09 C204.491819,62.6584072 204.617495,62.1896698 204.65,61.71 C204.675314,61.3189573 204.617372,60.9269935 204.48,60.56 C204.364443,60.2527091 204.206225,59.9632049 204.01,59.7 L204.01,59.7 C204.163333,59.78 204.42,59.8866667 204.78,60.02 C205.204286,60.1659378 205.651526,60.2337015 206.1,60.22 C206.683335,60.2001443 207.258689,60.0783046 207.8,59.86 C208.521746,59.558 209.172344,59.1083724 209.71,58.54 C210.796678,57.5678821 211.384914,56.1561148 211.31,54.7 C211.05993,52.9998368 210.208375,51.4457491 208.91,50.32 L202.41,43.77 L188.77,57.35 L191.14,59.75 Z M202.9,48.08 L206.77,51.98 C207.069429,52.2883803 207.34052,52.6230613 207.58,52.98 C207.807969,53.2997334 207.96482,53.6645816 208.04,54.05 C208.106416,54.4436798 208.064948,54.8479986 207.92,55.22 C207.718722,55.6944085 207.418737,56.1205227 207.04,56.47 C206.472286,57.1047269 205.661572,57.468276 204.81,57.47 C203.925361,57.373486 203.110404,56.9445612 202.53,56.27 L198.62,52.33 L202.9,48.08 Z M209.04,122.24 L208.21,126.81 L199.46,132.48 L161.34,108.28 L148,106.57 L141.56,108.08 L134.92,111.53 L129.43,115.84 L127.5,116.89 L127,116.89 L117.58,110.21 L112.66,108 L107.94,106.76 L102.14,106.76 L93.14,108.3 L55,132.48 L48,127.1 L47.75,109.1 L35.57,139.26 L62.82,149.19 L85.74,145 L107.07,144.64 L125.63,138.09 L126.87,137.26 L126.87,137.26 L127.23,137.2 L127.59,137.26 L127.59,137.26 L128.83,138.09 L147.39,144.64 L168.72,145 L191.64,149.14 L218.89,139.22 L210.54,106.91 L209.04,122.24 Z M199.86,182.66 L210.74,191.85 L210.74,191.85 L194.17,189.39 L191.86,192.12 L206.62,204.6 L208.7,202.14 L197.83,193 L197.88,192.94 L214.42,195.4 L216.73,192.67 L202,180.21 L199.86,182.66 Z M195.48,202 C194.652611,200.96359 193.659146,200.071499 192.54,199.36 C191.48973,198.693059 190.322399,198.231556 189.1,198 C187.891702,197.783952 186.651445,197.82484 185.46,198.12 C182.848091,198.830865 180.651481,200.599752 179.4,203 C178.857998,204.100841 178.554708,205.303779 178.51,206.53 C178.473481,207.777186 178.677181,209.019755 179.11,210.19 C179.563582,211.434351 180.222732,212.593779 181.06,213.62 C181.903749,214.668634 182.917902,215.56785 184.06,216.28 C185.109152,216.949134 186.276918,217.410808 187.5,217.64 C188.705367,217.856846 189.943232,217.812514 191.13,217.51 C193.731459,216.783589 195.919411,215.018761 197.18,212.63 C197.729301,211.534913 198.036263,210.33435 198.08,209.11 C198.114539,207.862947 197.9109,206.620751 197.48,205.45 C197.010419,204.196502 196.33442,203.030404 195.48,202 Z M194.57,211.39 C193.784227,213.096328 192.244637,214.336142 190.41,214.74 C189.586568,214.889089 188.739339,214.837638 187.94,214.59 C187.109978,214.330071 186.33165,213.927371 185.64,213.4 C184.170384,212.301054 183.001111,210.84978 182.24,209.18 C181.874618,208.391377 181.647963,207.545652 181.57,206.68 C181.501634,205.84805 181.631876,205.011759 181.95,204.24 C182.738224,202.537514 184.277413,201.301723 186.11,200.9 C186.933478,200.751698 187.78052,200.803137 188.58,201.05 C189.40948,201.311244 190.18759,201.713831 190.88,202.24 C192.347525,203.341112 193.516328,204.791802 194.28,206.46 C194.668899,207.257204 194.912706,208.117301 195,209 C195.051332,209.829394 194.903912,210.659058 194.57,211.42 L194.57,211.39 Z M217.32,73.85 C217.774629,73.4275368 218.007378,72.8179569 217.95,72.2 C218.00397,71.5254778 217.741651,70.8641363 217.24,70.41 C216.598363,69.9699503 215.82586,69.761833 215.05,69.82 L211.84,69.82 L211.84,78.13 L213.13,78.13 L213.13,74.56 L214.5,74.56 L216.76,78.13 L218.15,78.13 L215.77,74.46 C216.336302,74.4173782 216.876542,74.2047677 217.32,73.85 Z M214.47,73.51 L213.12,73.51 L213.12,70.88 L214.83,70.88 C215.049738,70.8648254 215.270262,70.8648254 215.49,70.88 C215.69512,70.9076365 215.894385,70.9684292 216.08,71.06 C216.249738,71.1493175 216.394196,71.280018 216.5,71.44 C216.616585,71.6433276 216.672132,71.8759341 216.66,72.11 C216.673029,72.3784348 216.610678,72.6451591 216.48,72.88 C216.358671,73.0602056 216.188781,73.202359 215.99,73.29 C215.76765,73.3849159 215.531117,73.4423595 215.29,73.46 L214.47,73.51 Z M168.2,209.13 L177.64,226 L180.64,224.35 L171.21,207.47 L168.2,209.13 Z M127.56,-3.33066907e-17 C57.1105573,-4.34709092e-15 8.62756845e-15,57.1105573 0,127.56 C-8.62756845e-15,198.009443 57.1105573,255.12 127.56,255.12 C198.009443,255.12 255.12,198.009443 255.12,127.56 C255.042842,57.1425419 197.977458,0.0771578071 127.56,-3.33066907e-17 Z M127.56,252.73 C58.4305179,252.73 2.39,196.689482 2.39,127.56 C2.39,58.4305179 58.4305179,2.39 127.56,2.39 C196.689482,2.39 252.73,58.4305179 252.73,127.56 C252.652845,196.657498 196.657498,252.652845 127.56,252.73 Z M221.16,71.16 C219.579114,67.5947394 215.444131,65.9398589 211.84,67.43 C210.991198,67.775319 210.217036,68.2812409 209.56,68.92 C208.898044,69.5570613 208.367968,70.3181971 208,71.16 C207.612954,72.04215 207.418626,72.996743 207.43,73.96 C207.41661,74.9363619 207.610904,75.9044187 208,76.8 C208.728559,78.5086467 210.106357,79.857666 211.83,80.55 C213.602122,81.2568112 215.577878,81.2568112 217.35,80.55 C218.193105,80.2051127 218.96079,79.6989841 219.61,79.06 C220.264354,78.4130945 220.787305,77.6456464 221.15,76.8 C221.535932,75.903429 221.730088,74.9360539 221.72,73.96 C221.729728,72.9979121 221.539014,72.0443394 221.16,71.16 L221.16,71.16 Z M220,76.38 C219.713095,77.0963003 219.292248,77.7513292 218.76,78.31 C218.229836,78.8543918 217.597864,79.2892977 216.9,79.59 C216.174337,79.9048351 215.391002,80.0649081 214.6,80.06 C213.023085,80.0726731 211.50946,79.4404905 210.41,78.31 C209.878365,77.7527967 209.460559,77.0972149 209.18,76.38 C208.875071,75.6099791 208.722254,74.7881628 208.73,73.96 C208.722329,73.1448201 208.875237,72.3361063 209.18,71.58 C209.460788,70.8688375 209.878721,70.2198516 210.41,69.67 C210.942301,69.1281477 211.573745,68.6936057 212.27,68.39 C213.006877,68.0784194 213.799998,67.9218376 214.6,67.93 C215.390293,67.9219356 216.1736,68.078597 216.9,68.39 C217.596377,68.6933872 218.22786,69.1279563 218.76,69.67 C219.29147,70.2216727 219.712383,70.8700143 220,71.58 C220.302043,72.3369005 220.454849,73.1450736 220.45,73.96 C220.454768,74.7878996 220.302055,75.6091541 220,76.38 Z M74.15,204.38 C74.1066942,203.150384 73.8033677,201.943894 73.26,200.84 C72.0028251,198.4526 69.8062642,196.698251 67.2,196 C66.0087212,195.703642 64.768211,195.662746 63.56,195.88 C62.3368486,196.108952 61.1690386,196.570645 60.12,197.24 C58.9996126,197.949861 58.0058936,198.84218 57.18,199.88 C56.3246183,200.913433 55.6485784,202.082982 55.18,203.34 C54.7474227,204.510309 54.5437305,205.752831 54.58,207 C54.6237369,208.22435 54.930699,209.424913 55.48,210.52 C56.7445554,212.903429 58.9314519,214.66379 61.53,215.39 C62.7167676,215.692514 63.9546328,215.736846 65.16,215.52 C66.3826027,215.289148 67.5500627,214.827594 68.6,214.16 C70.880633,212.704786 72.6198513,210.540425 73.55,208 C73.9787959,206.839106 74.1824283,205.60713 74.15,204.37 L74.15,204.38 Z M71.08,204.53 C71.0036334,205.395935 70.7769066,206.24193 70.41,207.03 C69.6463276,208.698198 68.4775253,210.148888 67.01,211.25 C66.3171624,211.775492 65.5391746,212.178016 64.71,212.44 C63.9105195,212.686863 63.0634784,212.738302 62.24,212.59 C60.4074132,212.188277 58.8682238,210.952486 58.08,209.25 C57.7626136,208.478035 57.6323994,207.641922 57.7,206.81 C57.7771694,205.944207 58.0038596,205.098348 58.37,204.31 C59.130742,202.639992 60.3000828,201.188634 61.77,200.09 C62.4616496,199.562629 63.239978,199.159929 64.07,198.9 C64.86941,198.652751 65.7165448,198.601305 66.54,198.75 C68.3708821,199.156681 69.9062748,200.396095 70.69,202.1 C71.0045257,202.862244 71.1347211,203.687957 71.07,204.51 L71.08,204.53 Z M106.24,230.76 L106.19,230.76 L101,214.8 L97.51,214 L92.93,232.78 L96.06,233.54 L99.43,219.73 L99.51,219.73 L104.69,235.63 L108.16,236.48 L112.75,217.7 L109.62,216.94 L106.24,230.76 Z M90.78,210.76 L86,221 C85.7266667,221.586667 85.42,222.17 85.08,222.75 C84.7666087,223.299512 84.3406373,223.7766 83.83,224.15 C83.3059627,224.51836 82.6894852,224.733088 82.05,224.77 C80.2760294,224.7023 78.6038548,223.923874 77.41,222.61 C77.028697,222.096312 76.7968237,221.487212 76.74,220.85 C76.696892,220.221956 76.7854499,219.591832 77,219 C77.2266667,218.366667 77.4766667,217.756667 77.75,217.17 L82.51,206.96 L79.44,205.53 L74.23,216.7 C73.7399088,217.694231 73.4478216,218.774274 73.37,219.88 C73.3170948,220.831078 73.481236,221.781729 73.85,222.66 C74.2331539,223.552899 74.8064828,224.351464 75.53,225 C77.1941649,226.454614 79.2363244,227.408084 81.42,227.75 C82.3766209,227.88984 83.3521526,227.821621 84.28,227.55 C85.1909897,227.268957 86.0256128,226.783233 86.72,226.13 C87.5193359,225.361256 88.1612882,224.444181 88.61,223.43 L93.84,212.22 L90.78,210.76 Z M130.89,221.52 C130.193192,220.620434 129.291477,219.900433 128.26,219.42 C127.05823,218.872252 125.750634,218.595711 124.43,218.61 L116.43,218.51 L116.19,237.84 L124.19,237.94 C125.509884,237.988701 126.824311,237.7463 128.04,237.23 C129.07944,236.785545 129.998109,236.099971 130.72,235.23 C131.4395,234.323189 131.973021,233.283333 132.29,232.17 C132.989836,229.716587 133.02435,227.121155 132.39,224.65 C132.100267,223.521395 131.590516,222.461113 130.89,221.53 L130.89,221.52 Z M129.16,231.06 C128.998308,231.853756 128.656148,232.599664 128.16,233.24 C127.63262,233.888646 126.942426,234.385585 126.16,234.68 C125.122447,235.053686 124.021654,235.220164 122.92,235.17 L119.59,235.17 L119.76,221.36 L123.09,221.36 C124.193541,221.337473 125.290826,221.531111 126.32,221.93 C127.10796,222.238799 127.798636,222.753354 128.32,223.42 C128.803125,224.073395 129.128294,224.829841 129.27,225.63 C129.434542,226.526971 129.508248,227.438244 129.49,228.35 C129.472966,229.262242 129.362387,230.170329 129.16,231.06 L129.16,231.06 Z M141.25,217.71 L137.6,238.09 L141.03,237.43 L141.85,232.06 L149.43,230.61 L152.17,235.29 L155.73,234.61 L144.73,217.02 L141.25,217.71 Z M142.25,229.37 L143.56,220.66 L143.64,220.66 L148.05,228.28 L142.25,229.37 Z M166.12,213.48 L165.12,210.75 L150.49,216.31 L151.49,219.04 L157.21,216.87 L163.04,232.2 L166.2,231 L160.37,215.67 L166.12,213.48 Z" id="Shape"></path>
        </g>
    </g>
</svg>