<?xml version="1.0" encoding="UTF-8"?>
<svg width="100px" height="42px" viewBox="0 0 100 42" version="1.1" xmlns="http://www.w3.org/2000/svg" xmlns:xlink="http://www.w3.org/1999/xlink">
    <!-- Generator: Sketch 44.1 (41455) - http://www.bohemiancoding.com/sketch -->
    <title>nextcanada</title>
    <desc>Created with Sketch.</desc>
    <defs></defs>
    <g id="Page-1" stroke="none" stroke-width="1" fill="none" fill-rule="evenodd">
        <g id="nextcanada" fill-rule="nonzero">
            <polygon id="Shape" fill="#FFFFFF" points="3.2 12 38.9 12 38.9 29.7 3.2 29.7"></polygon>
            <path d="M35.8,18.3 L35.8,25.3 L33.9,25.3 L33.9,18.3 L31.2,18.3 L31.2,16.5 L38.5,16.5 L38.5,18.3 L35.8,18.3 Z M28.1,25.3 L26.1,22.3 L24.1,25.3 L22,25.3 L25.1,20.8 L22.2,16.5 L24.5,16.5 L26.3,19.3 L28.2,16.5 L30.4,16.5 L27.5,20.8 L30.6,25.3 L28.1,25.3 L28.1,25.3 Z M20.9,25.3 L14.2,25.3 L14.2,16.5 L20.8,16.5 L20.8,18.2 L16.1,18.2 L16.1,20 L20.2,20 L20.2,21.7 L16.1,21.7 L16.1,23.5 L20.9,23.5 L20.9,25.3 L20.9,25.3 Z M12.1,25.3 L10.5,25.3 L6.3,19.7 L6.3,25.3 L4.4,25.3 L4.4,16.5 L6.2,16.5 L10.3,21.9 L10.3,16.5 L12.2,16.5 L12.2,25.3 L12.1,25.3 Z M21,0 C9.7,0 0.4,9.2 0.4,20.6 C0.4,32 9.6,41.2 21,41.2 C32.4,41.2 41.6,32 41.6,20.6 C41.6,9.2 32.4,0 21,0 Z" id="Fill-1" fill="#D8292F"></path>
            <path d="M42.8,20.9 C42.8,18.4 44.7,16.3 47.4,16.3 C49.1,16.3 50,16.9 50.9,17.7 L49.7,19.1 C49,18.5 48.3,18.1 47.5,18.1 C46,18.1 45,19.3 45,20.8 C45,22.3 46,23.6 47.5,23.6 C48.5,23.6 49.1,23.2 49.8,22.6 L51,23.8 C50.1,24.8 49.1,25.4 47.4,25.4 C44.7,25.4 42.8,23.4 42.8,20.9" id="Fill-4" fill="#D8292F"></path>
            <path d="M55.5,16.5 L57.3,16.5 L61.1,25.3 L59.1,25.3 L58.3,23.3 L54.6,23.3 L53.8,25.3 L51.8,25.3 L55.5,16.5 Z M57.5,21.6 L56.3,18.8 L55.1,21.6 L57.5,21.6 L57.5,21.6 Z" id="Fill-6" fill="#D8292F"></path>
            <polygon id="Fill-8" fill="#D8292F" points="62.3 16.5 64.1 16.5 68.2 21.9 68.2 16.5 70.1 16.5 70.1 25.3 68.5 25.3 64.2 19.7 64.2 25.3 62.3 25.3"></polygon>
            <path d="M75.2,16.5 L77,16.5 L80.8,25.3 L78.8,25.3 L78,23.3 L74.3,23.3 L73.5,25.3 L71.5,25.3 L75.2,16.5 Z M77.3,21.6 L76.1,18.8 L74.9,21.6 L77.3,21.6 Z" id="Fill-10" fill="#D8292F"></path>
            <path d="M82.1,16.5 L85.5,16.5 C88.3,16.5 90.2,18.4 90.2,20.9 C90.2,23.4 88.3,25.3 85.5,25.3 L82.1,25.3 L82.1,16.5 L82.1,16.5 Z M85.5,23.5 C87.1,23.5 88.1,22.4 88.1,20.9 C88.1,19.3 87,18.3 85.5,18.3 L84,18.3 L84,23.6 L85.5,23.6 L85.5,23.5 Z" id="Fill-12" fill="#D8292F"></path>
            <path d="M94.3,16.5 L96,16.5 L99.8,25.3 L97.8,25.3 L97,23.3 L93.3,23.3 L92.5,25.3 L90.5,25.3 L94.3,16.5 Z M96.3,21.6 L95.1,18.8 L94,21.6 L96.3,21.6 Z" id="Fill-14" fill="#D8292F"></path>
        </g>
    </g>
</svg>