<?xml version="1.0" encoding="UTF-8"?>
<svg width="1048px" height="167px" viewBox="0 0 1048 167" version="1.1" xmlns="http://www.w3.org/2000/svg" xmlns:xlink="http://www.w3.org/1999/xlink">
    <!-- Generator: Sketch 44.1 (41455) - http://www.bohemiancoding.com/sketch -->
    <title>Dunin-Deshpande Innovation Centre horizontal identity colour</title>
    <desc>Created with Sketch.</desc>
    <defs></defs>
    <g id="Page-1" stroke="none" stroke-width="1" fill="none" fill-rule="evenodd">
        <g id="Dunin-Deshpande-Innovation-Centre-horizontal-identity-colour">
            <path d="M97.19,15.661 C97.19,15.661 108.277,11.987 121.076,11.775 C133.875,11.563 136.885,12.865 140.763,13.718 C144.642,14.571 155.236,17.677 160.565,21.74 C165.894,25.804 172.97,32.658 175.316,36.151 C177.663,39.643 182.743,48.737 184.133,52.957 C185.523,57.178 188.004,71.634 187.623,78.07 C187.243,84.506 185.353,99.571 180.907,106.35 C176.228,103.747 175.052,103.101 175.052,103.101 C175.052,103.101 173.128,101.765 172.709,101.53 C172.291,101.296 169.508,99.943 168.269,99.567 C167.029,99.192 162.624,98.166 160.243,98.066 C157.862,97.967 151.118,98.127 148.651,98.596 C146.185,99.065 143.244,99.829 142.098,100.356 C140.951,100.883 138.989,101.911 138.037,102.74 C137.084,103.569 132.651,108.222 132.449,109.565 C131.021,110.835 128.996,112.825 128.611,113.255 C128.228,113.685 125.903,116.569 125.339,117.647 C124.776,118.724 123.45,121.933 123.074,123.97 C122.698,126.007 122.229,129.781 122.234,130.691 C122.24,131.601 122.387,136.353 122.479,137.211 C120.927,137.22 117.021,137.191 114.236,136.812 C111.452,136.431 103.758,134.865 101.11,133.955 C98.462,133.045 91.023,129.916 89.012,128.781 C87,127.644 83.659,125.552 83.659,125.552 L78.667,119.742 L85.59,116.894 C85.59,116.894 91.804,115.982 94.466,114.447 C97.129,112.912 101.606,110.546 103.716,108.584 C105.826,106.622 110.36,101.566 111.843,98.897 C113.326,96.227 116.526,88.833 117.063,86.927 C117.602,85.021 118.765,79.799 118.95,78.489 C119.135,77.18 119.718,69.645 119.703,68.264 C119.688,66.882 119.404,60.037 119.052,58.695 C118.701,57.353 118.383,55.341 117.729,53.37 C117.98,50.352 116.943,45.264 116.805,44.796 C116.667,44.329 114.231,37.423 113.079,35.739 C111.928,34.055 108.474,27.854 106.611,25.938 C104.748,24.022 97.785,15.891 97.19,15.661" id="Fill-1" fill="#F5B827" fill-rule="nonzero"></path>
            <path d="M92.332,17.243 C92.332,17.243 103.662,26.372 106.698,31.719 C109.733,37.066 112.316,40.949 113.081,42.769 C113.845,44.589 116.646,52.868 116.925,56.382 C117.205,59.896 117.197,64.219 117.183,64.531 C117.168,64.844 114.843,70.203 114.843,70.203 C114.843,70.203 110.752,80.027 110.384,80.784 C110.017,81.543 106.188,88.566 105.777,89.212 C105.366,89.859 98.419,99.939 94.638,102.334 C90.858,104.729 88.224,108.429 73.397,113.092 C71.071,110.01 69.562,107.848 69.562,107.848 C69.562,107.848 65.977,102.133 65.081,99.439 C64.186,96.743 62.231,90.2 62.435,85.863 C62.243,81.399 62.573,69.49 62.573,69.49 L63.52,57.566 C63.52,57.566 64.814,46.234 66.172,43.28 C67.53,40.326 69.846,33.19 71.949,31.397 C74.025,28.895 77.565,24.857 79.571,23.938 C82.309,22.082 90.421,17.425 92.332,17.243" id="Fill-2" fill="#032849" fill-rule="nonzero"></path>
            <path d="M127.866,136.851 C127.866,136.851 140.373,135.185 146.374,131.841 C152.376,128.496 160.53,124.484 163.308,122.629 C166.086,120.773 174.073,115.176 175.687,113.785 C177.299,112.397 179.986,108.023 179.986,108.023 C179.986,108.023 174.553,102.879 171.655,101.824 C168.758,100.771 162.229,99.545 160.09,99.593 C157.95,99.64 150.829,100.331 148.604,101.064 C146.379,101.797 142.365,103.888 141.304,104.569 C140.242,105.25 136.743,107.971 136.064,108.672 C135.385,109.373 132.891,112.394 132.294,113.412 C131.697,114.431 129.835,118.517 129.533,119.64 C129.23,120.765 127.992,124.795 127.866,126.113 C127.741,127.429 127.312,135.236 127.866,136.851" id="Fill-3" fill="#A41A36" fill-rule="nonzero"></path>
            <g id="Group-8" stroke="#1A1918">
                <path d="M104.501,28.84 C111.779,37.867 116.637,48.559 117.178,59.299 C117.854,72.707 113.301,87.959 105.148,98.789 C93.616,114.111 76.325,120.941 57.513,121.351 C40.358,121.724 28.007,114.182 17.759,100.986 C9.425,90.25 2.871,78.787 0.981,65.238 C-0.643,53.585 2.532,41.183 10.614,32.367 C18.114,24.185 29.239,18.129 38.846,12.883 C44.399,9.85 49.94,6.736 56.174,5.474 C63.289,4.035 73.571,3.081 80.657,5.177 C89.452,7.779 96.719,14.77 102.735,21.375 C113.732,33.447 122.247,49.357 116.371,66.006 C111.207,80.635 104.574,95.349 91.653,104.675 C74.133,117.322 46.137,119.384 29.091,104.64 C25.193,101.268 21.756,97.659 18.429,93.734 C11.086,85.07 6.007,75.957 4.086,64.7 C0.582,44.177 18.021,29.962 33.174,19.01 C40.291,13.868 48.329,8.358 56.913,6.122 C65.255,3.948 72.396,6.094 79.869,9.745 C94.139,16.713 109.333,27.533 115.172,43.144 C121.636,60.421 121.596,81.721 112.378,97.98 C105.161,110.706 91.886,118.605 76.79,117.401 C68.908,116.77 60.565,115.818 52.992,113.287 C45.78,110.878 38.038,109.036 32.18,103.937 C25.435,98.068 20.136,88.671 15.795,80.92 C12.366,74.796 9.12,68.384 7.982,61.376 C4.434,39.5 29.013,19.858 46.354,12.064 C66.582,2.972 89.038,11.056 103.618,26.882 C113.818,37.95 118.572,48.946 118.049,64.128 C117.598,77.314 113.34,92.971 103.901,102.71 C92.196,114.79 78.891,122.084 61.862,123.193 C45.234,124.281 32.059,117.364 20.647,105.58 C9.808,94.384 2.101,83.478 1.131,67.577 C0.436,56.179 0.01,42.309 6.889,32.485 C14.876,21.078 28.311,8.942 41.942,4.783 C50.581,2.148 62.7,4.095 71.408,6.421 C83.74,9.713 95.836,18.096 104.501,28.84 Z" id="Stroke-4" stroke-width="1.139"></path>
                <path d="M187.304,69.519 C188.565,83.488 186.272,97.506 179.604,108.674 C171.281,122.617 156.458,134.904 140.985,140.324 C119.094,147.996 97.111,143.256 77.912,131.035 C60.402,119.89 53.041,104.009 51.593,83.852 C50.418,67.454 51.521,51.522 58.72,36.621 C64.91,23.808 76.433,13.462 90.482,10.021 C103.523,6.827 118.783,8.204 131.97,9.378 C139.592,10.055 147.258,10.643 154.377,13.56 C162.5,16.889 173.485,22.834 179.206,29.702 C186.309,38.226 188.924,50.138 190.542,60.821 C193.499,80.352 191.381,102.075 174.287,114.88 C159.271,126.129 142.716,136.476 123.455,137.183 C97.339,138.14 67.786,121.418 60.541,95.136 C58.883,89.128 57.848,83.188 57.137,77.005 C55.568,63.358 56.579,50.78 62.204,38.166 C72.461,15.166 99.551,12.576 122.15,11.733 C132.76,11.339 144.548,11.193 154.685,14.707 C164.537,18.122 170.28,25.077 175.348,33.768 C185.024,50.361 193.043,71.448 188.436,91.074 C183.335,112.796 168.991,134.197 148.802,144.365 C132.996,152.322 114.336,151.355 99.959,140.006 C92.451,134.076 84.699,127.519 78.779,119.886 C73.141,112.619 66.588,105.568 64.119,96.505 C61.276,86.071 62.253,73.059 63.091,62.346 C63.754,53.883 64.795,45.251 68.357,37.437 C79.478,13.047 117.393,9.791 140.073,13.595 C166.529,18.032 183.69,41.244 187.731,66.955 C190.56,84.941 187.96,99.195 177.238,114.118 C167.93,127.08 153.134,139.97 137.095,143.431 C117.209,147.724 98.927,146.127 81.049,135.81 C63.591,125.736 54.98,109.932 51.413,90.412 C48.027,71.869 47.597,55.723 57.3,39.075 C64.254,27.141 73.14,12.902 86.657,7.638 C102.352,1.526 124.019,-1.661 140.522,3.308 C150.984,6.458 161.869,16.554 169.066,24.742 C179.263,36.336 185.804,52.892 187.304,69.519 Z" id="Stroke-6" stroke-width="1.378"></path>
                <path d="M158.529,99.999 C165.313,100.045 171.954,101.806 177.018,105.537 C183.341,110.197 188.562,117.907 190.446,125.611 C193.114,136.507 189.802,146.867 183.022,155.537 C176.838,163.445 168.849,166.246 159.077,165.998 C151.13,165.797 143.512,164.519 136.674,160.357 C130.796,156.777 126.356,150.748 125.356,143.822 C124.43,137.396 125.806,130.115 126.988,123.822 C127.67,120.183 128.313,116.521 130.05,113.232 C132.033,109.476 135.409,104.466 138.983,102.033 C143.419,99.014 149.274,98.313 154.495,98.033 C164.034,97.525 174.393,99.56 179.757,108.388 C184.468,116.144 188.675,124.597 188.113,133.902 C187.351,146.519 177.917,159.963 164.929,162.22 C161.957,162.736 159.051,162.957 156.04,163.009 C149.397,163.127 143.392,162.052 137.58,158.752 C126.989,152.74 127.011,139.576 127.664,128.658 C127.97,123.533 128.45,117.852 130.617,113.136 C132.723,108.554 136.34,106.113 140.759,104.081 C149.2,100.2 159.727,97.325 168.959,100.464 C179.177,103.935 188.807,111.841 192.757,122.037 C195.847,130.017 194.509,138.955 188.371,145.343 C185.167,148.681 181.646,152.107 177.694,154.599 C173.935,156.972 170.233,159.797 165.755,160.56 C160.598,161.441 154.379,160.361 149.263,159.457 C145.22,158.742 141.112,157.836 137.52,155.757 C126.299,149.261 126.505,130.857 129.398,120.117 C132.772,107.591 144.75,100.416 157.315,99.673 C166.106,99.154 172.845,101.072 179.526,106.933 C185.331,112.02 190.844,119.746 191.759,127.629 C192.895,137.402 191.27,146.129 185.467,154.252 C179.801,162.183 171.79,165.588 162.228,166.392 C153.142,167.154 145.35,166.605 137.789,161.156 C132.371,157.25 125.932,152.306 124.029,145.552 C121.824,137.711 121.302,127.132 124.467,119.42 C126.473,114.532 131.841,109.765 136.122,106.683 C142.18,102.318 150.454,99.944 158.529,99.999 Z" id="Stroke-7" stroke-width="0.666"></path>
            </g>
            <text id="Dunin-Deshpande" fill="#1A1918" font-family="LucidaGrande, Lucida Grande" font-size="53.016" font-weight="normal">
                <tspan x="235.349" y="51.6585344">Dunin-Deshpande</tspan>
            </text>
            <text id="Queen’s" fill="#1A1918" font-family="Queens-Regular, Queens" font-size="73" font-weight="normal">
                <tspan x="227.717" y="110.122391">Queen’s</tspan>
            </text>
            <text id="INNO" fill="#1A1918" font-family="LucidaGrande, Lucida Grande" font-size="53.016" font-weight="normal">
                <tspan x="496.06" y="113.658234">INNO</tspan>
            </text>
            <text id="V" fill="#1A1918" font-family="LucidaGrande, Lucida Grande" font-size="53.016" font-weight="normal">
                <tspan x="631" y="114">V</tspan>
            </text>
            <text id="A" fill="#1A1918" font-family="LucidaGrande, Lucida Grande" font-size="53.016" font-weight="normal">
                <tspan x="666" y="114">A</tspan>
            </text>
            <text id="TION-CENTRE" fill="#1A1918" font-family="LucidaGrande, Lucida Grande" font-size="53.016" font-weight="normal">
                <tspan x="703" y="114">TION CENTRE</tspan>
            </text>
        </g>
    </g>
</svg>