<?xml version="1.0" encoding="UTF-8"?>
<svg width="1164px" height="284px" viewBox="0 0 1164 284" version="1.1" xmlns="http://www.w3.org/2000/svg" xmlns:xlink="http://www.w3.org/1999/xlink">
    <!-- Generator: Sketch 44.1 (41455) - http://www.bohemiancoding.com/sketch -->
    <title>CLR-Full(Horz)</title>
    <desc>Created with Sketch.</desc>
    <defs></defs>
    <g id="Page-1" stroke="none" stroke-width="1" fill="none" fill-rule="evenodd">
        <g id="CLR-Full(Horz)" fill="#5AA3B1">
            <path d="M327.188,112.79 C334.712,103.712 345.469,95.055 359.439,95.055 C361.913,95.055 363.606,95.427 363.975,95.606 L363.975,103.363 C363.975,103.363 361.536,103.165 359.815,103.165 C345.469,103.165 335.096,112.414 327.188,121.643 L327.188,194.147 L317.707,194.147 L317.707,95.788 L322.083,95.788 C326.211,95.788 327.188,96.928 327.188,106.561 L327.188,112.79" id="Fill-1"></path>
            <path d="M443.436,171.679 L443.436,147.522 C435.9,145.828 427.57,144.498 418.139,144.498 C400.785,144.498 387.737,150.724 387.737,165.834 C387.737,181.51 397.947,187.739 411.134,187.739 C427.004,187.739 435.699,180.933 443.436,171.679 Z M443.436,180.75 C435.133,189.422 426.066,195.101 409.832,195.101 C391.524,195.101 378.119,185.092 378.119,166.586 C378.119,146.762 394.563,137.707 417.588,137.707 C427.004,137.707 435.303,138.645 443.436,140.727 L443.436,122.985 C443.436,107.681 433.605,102.216 419.271,102.216 C404.734,102.216 394.935,105.987 388.687,110.898 L384.729,110.898 L384.729,103.165 C392.656,98.831 403.595,94.684 419.635,94.684 C439.66,94.684 452.89,102.03 452.89,122.407 L452.89,194.147 L450.22,194.147 C444.754,194.147 443.436,192.446 443.436,184.51 L443.436,180.75 L443.436,180.75 Z" id="Fill-2"></path>
            <path d="M475.505,95.788 L488.525,95.788 L488.525,68.421 L497.995,68.421 L497.995,95.788 L524.215,95.788 L524.215,102.963 L497.995,102.963 L497.995,171.679 C497.995,183.572 503.45,187.154 514.962,187.154 L526.305,187.154 L526.305,193.771 C523.273,194.36 517.606,194.899 511.749,194.899 C496.654,194.899 488.525,188.499 488.525,172.83 L488.525,102.963 L475.505,102.963 L475.505,95.788" id="Fill-3"></path>
            <path d="M551.032,138.083 L615.747,138.083 C615.197,111.841 603.119,101.843 584.814,101.843 C566.692,101.843 553.296,113.918 551.032,138.083 Z M588.21,187.154 C603.87,187.154 613.5,182.254 618.787,176.955 L622.931,176.955 L622.931,183.949 C615.965,189.422 605.199,194.899 587.272,194.899 C557.637,194.899 541.194,175.846 541.194,145.258 C541.194,114.313 559.703,94.684 584.814,94.684 C608.968,94.684 625.19,108.642 625.19,140.727 C625.19,142.63 625.023,144.883 625.023,145.258 L550.823,145.258 C550.823,172.83 563.669,187.154 588.21,187.154 L588.21,187.154 Z" id="Fill-4"></path>
            <path d="M661.628,111.472 C672.777,102.592 687.476,94.684 704.85,94.684 C718.64,94.684 730.33,100.339 730.33,120.907 L730.33,194.147 L720.89,194.147 L720.89,122.051 C720.89,106.39 712.4,102.592 701.271,102.592 C686.724,102.592 672.777,110.705 661.628,119.209 L661.628,194.147 L652.196,194.147 L652.196,62.014 L655.596,62.014 C660.868,62.014 661.628,62.968 661.628,71.076 L661.628,111.472" id="Fill-5"></path>
            <path d="M830.75,179.796 C819.78,188.112 805.08,195.276 789.78,195.276 C774.7,195.276 763.17,189.057 763.17,169.614 L763.17,95.788 L772.81,95.788 L772.81,168.66 C772.81,183.774 780.71,187.533 791.1,187.533 C806,187.533 819.62,180.002 830.75,171.859 L830.75,95.788 L840.2,95.788 L840.2,194.147 L835.83,194.147 C831.68,194.147 830.75,192.825 830.75,183.572 L830.75,179.796" id="Fill-6"></path>
            <path d="M884.71,122.609 L884.71,174.525 C892.48,183.011 901.72,187.533 915.86,187.533 C932.1,187.533 950.24,178.471 950.24,144.498 C950.24,110.898 934.36,102.413 920.58,102.413 C904.74,102.413 893.22,112.414 884.71,122.609 Z M884.71,113.348 C892.48,104.313 904.74,94.684 922.09,94.684 C940.79,94.684 959.85,105.987 959.85,143.746 C959.85,182.63 937.95,194.899 917.74,194.899 C901.89,194.899 892.08,190.185 884.54,183.398 C883.79,189.422 881.53,194.147 877.76,194.147 L875.28,194.147 L875.28,62.014 L878.66,62.014 C884.15,62.014 884.71,63.153 884.71,71.076 L884.71,113.348 L884.71,113.348 Z" id="Fill-7"></path>
            <path d="M195.679,150.922 C194.136,150.515 192.586,150.484 191.097,150.743 C173.813,152.832 155.916,148.34 141.352,137.363 C148.492,120.675 161.68,107.914 177.647,101.107 C177.647,101.107 177.647,101.107 177.647,101.095 C179.061,100.576 180.414,99.777 181.53,98.641 C185.706,94.478 185.706,87.718 181.53,83.551 C177.36,79.372 170.611,79.372 166.439,83.551 C165.304,84.694 164.513,86.035 163.986,87.462 C163.986,87.462 163.986,87.462 163.971,87.454 C157.183,103.394 144.418,116.589 127.727,123.733 C116.756,109.169 112.276,91.284 114.38,74.011 C114.38,74.011 114.365,74.011 114.357,74.011 C114.609,72.53 114.578,70.964 114.171,69.402 C112.651,63.712 106.814,60.323 101.1,61.851 C95.413,63.366 92.025,69.236 93.561,74.937 C93.987,76.492 94.747,77.837 95.704,79 C106.178,92.945 111.264,110.714 109.019,128.842 C90.901,131.09 73.14,125.997 59.181,115.538 C58.026,114.558 56.669,113.802 55.091,113.371 C49.397,111.856 43.552,115.225 42.028,120.938 C40.501,126.629 43.881,132.478 49.584,134.002 C51.13,134.412 52.673,134.443 54.158,134.184 C71.446,132.094 89.343,136.587 103.902,147.573 C96.747,164.26 83.548,177.017 67.612,183.832 C66.201,184.355 64.868,185.147 63.724,186.274 C59.545,190.449 59.545,197.209 63.724,201.38 C67.899,205.543 74.64,205.535 78.815,201.38 C79.982,200.237 80.765,198.888 81.28,197.461 C81.28,197.473 81.296,197.473 81.296,197.473 C88.08,181.544 100.844,168.353 117.521,161.198 C128.494,175.753 132.995,193.647 130.894,210.916 C130.894,210.916 130.894,210.912 130.909,210.912 C130.638,212.401 130.668,213.962 131.072,215.513 C132.595,221.216 138.457,224.592 144.151,223.075 C149.845,221.541 153.237,215.684 151.702,209.993 C151.287,208.436 150.527,207.067 149.551,205.911 C139.077,191.972 133.995,174.203 136.247,156.077 C154.376,153.829 172.142,158.923 186.085,169.389 C187.24,170.358 188.601,171.121 190.151,171.54 C195.854,173.072 201.714,169.676 203.23,163.981 C204.773,158.298 201.381,152.441 195.679,150.922" id="Fill-8"></path>
            <path d="M13.676,204.718 L122.641,267.631 L231.563,204.718 L231.563,78.919 L122.641,16.029 L13.676,78.919 L13.676,204.718 Z M122.641,283.415 L0.001,212.625 L0.001,71.015 L122.641,0.221 L245.265,71.015 L245.265,212.625 L122.641,283.415 L122.641,283.415 Z" id="Fill-9"></path>
            <path d="M973.31,187.633 C973.31,183.665 976.34,180.262 980.49,180.262 C984.46,180.262 987.87,183.665 987.87,187.633 C987.87,191.792 984.46,194.817 980.49,194.817 C976.34,194.817 973.31,191.792 973.31,187.633" id="Fill-10"></path>
            <path d="M997.5,144.538 C997.5,113.35 1016.78,94.448 1044.19,94.448 C1060.44,94.448 1069.33,99.362 1075,103.898 L1075,111.459 L1070.08,111.459 C1065.55,106.923 1057.99,102.009 1044,102.009 C1022.07,102.009 1007.14,117.697 1007.14,144.538 C1007.14,171.568 1020.94,187.256 1044,187.256 C1059.31,187.256 1067.82,181.018 1072.35,175.915 L1076.7,175.915 L1076.7,183.097 C1071.22,188.391 1060.64,194.817 1043.62,194.817 C1014.7,194.817 997.5,175.536 997.5,144.538" id="Fill-11"></path>
            <path d="M1153.81,171.568 L1153.81,147.373 C1146.25,145.672 1137.93,144.349 1128.48,144.349 C1111.09,144.349 1098.05,150.587 1098.05,165.708 C1098.05,181.397 1108.26,187.633 1121.49,187.633 C1137.37,187.633 1146.06,180.83 1153.81,171.568 Z M1153.81,180.641 C1145.49,189.335 1136.42,195.006 1120.17,195.006 C1101.83,195.006 1088.41,184.988 1088.41,166.463 C1088.41,146.617 1104.85,137.544 1127.92,137.544 C1137.37,137.544 1145.69,138.49 1153.81,140.569 L1153.81,122.8 C1153.81,107.489 1143.98,102.009 1129.62,102.009 C1115.06,102.009 1105.23,105.789 1099,110.703 L1095.03,110.703 L1095.03,102.953 C1102.97,98.606 1113.93,94.448 1129.99,94.448 C1150.03,94.448 1163.26,101.82 1163.26,122.234 L1163.26,194.061 L1160.62,194.061 C1155.13,194.061 1153.81,192.359 1153.81,184.421 L1153.81,180.641 L1153.81,180.641 Z" id="Fill-12"></path>
        </g>
    </g>
</svg>