<?xml version="1.0" encoding="UTF-8"?>
<svg width="2271px" height="518px" viewBox="0 0 2271 518" version="1.1" xmlns="http://www.w3.org/2000/svg" xmlns:xlink="http://www.w3.org/1999/xlink">
    <!-- Generator: Sketch 44.1 (41455) - http://www.bohemiancoding.com/sketch -->
    <title>Ritual_logo_black</title>
    <desc>Created with Sketch.</desc>
    <defs></defs>
    <g id="Page-1" stroke="none" stroke-width="1" fill="none" fill-rule="evenodd">
        <g id="Ritual_logo_black" fill-rule="nonzero" fill="#000000">
            <g id="Group" transform="translate(1135.250000, 259.000000) scale(-1, 1) rotate(-180.000000) translate(-1135.250000, -259.000000) ">
                <path d="M2.2,515.7 L0,513.4 L0,262.3 L0,11.3 L2.1,9.4 C4,7.7 5.8,7.5 18.1,7.5 C31.2,7.5 32.1,7.6 34.2,9.8 L36.5,12.1 L36.8,119 L37,226 L106.3,226 L175.5,225.9 L231.8,118.1 C262.8,58.7 289.1,9.3 290.2,8.3 C291.9,6.7 294.4,6.5 308.7,6.2 C322.7,5.9 325.5,6.1 327.7,7.5 C329.8,8.9 330.2,9.8 329.7,12.9 C329.4,15.1 307.4,57.1 272.1,122.9 C240.7,181.5 215.1,229.5 215.3,229.6 C215.5,229.8 219.5,231.1 224.2,232.4 C251.6,240.4 274.3,253.3 292.6,271.5 C311.8,290.5 323.7,313.4 328.5,340.7 C332.1,360.8 331.3,392.1 326.8,412.9 C313.7,473.7 268.5,510 197.1,517 C191,517.6 150.1,518 95.6,518 L4.3,518 L2.2,515.7 Z M206.3,479.7 C260.7,468.9 288.6,440.4 294.1,389.9 C295.5,377 294.7,351 292.6,341.5 C282.9,297.2 247.9,268 195.5,260.5 C187.5,259.3 170.6,259 111.3,259 L37,259 L37,370.5 L37,482.1 L117.3,481.7 C188.4,481.4 198.5,481.2 206.3,479.7 Z" id="Shape"></path>
                <path d="M445.7,516.8 C444.8,516.1 443.6,514.2 443,512.7 C441.6,508.7 441.6,16.5 443.1,12.2 C444.5,8.1 448.1,7 460.5,7 C471.5,7 476.5,8.1 478,11 C478.7,12.2 479,101.7 479,263 L479,513.1 L476.5,515.5 C474.2,517.9 473.6,518 460.7,518 C451.6,518 446.9,517.6 445.7,516.8 Z" id="Shape"></path>
                <path d="M569.2,515.7 C567.2,513.6 567,512.3 567,500.9 C567,494.1 567.4,488 567.8,487.4 C570,484.1 572.5,484 656.4,484 L740,484 L740,250.1 C740,87.3 740.3,15.4 741.1,13.2 C742.7,8.7 746,7.8 759.7,8.2 C769,8.4 772.2,8.9 774.3,10.3 L777,12 L777,248 L777,484 L862.6,484.2 L948.2,484.5 L950.1,486.9 C951.7,488.9 952,490.9 952,500.7 C952,512 952,512.2 949.1,515.1 L946.2,518 L758.8,518 L571.3,518 L569.2,515.7 Z" id="Shape"></path>
                <path d="M1033,515.3 L1030.9,512.7 L1031.2,338.6 C1031.5,164.5 1031.6,164.5 1033.7,152.5 C1034.9,145.9 1037.1,136.1 1038.5,130.6 C1050.5,84.5 1078.1,46.1 1115.4,23.8 C1134.8,12.1 1160.1,3.6 1182.9,1 C1198.3,-0.8 1228.6,0.2 1242.4,2.9 C1276,9.7 1303.1,24 1326.6,47.4 C1353.3,74.2 1369.1,106.5 1377.3,151.5 C1379.5,163.5 1379.5,163.5 1379.8,338.3 L1380.1,513 L1377.6,515.5 C1375.2,517.9 1374.6,518 1362,518 C1354.8,518 1348,517.6 1347,517 C1346,516.5 1344.7,514.6 1344.1,512.9 C1343.3,510.6 1343,462.1 1343,342.9 C1343,199 1342.8,174.5 1341.5,164.3 C1336.4,125.2 1322.4,94.5 1299,71 C1281.1,53.1 1260.3,42 1234,36.3 C1221.8,33.7 1189.1,33.7 1177.1,36.4 C1123.8,48 1087.9,84.4 1073.6,141.5 C1068.3,162.4 1068.6,152.9 1068,339.8 L1067.5,513.2 L1064.7,515.6 C1062,517.9 1061.2,518 1048.5,518 C1035.2,518 1035.1,518 1033,515.3 Z" id="Shape"></path>
                <path d="M1631.8,513.1 C1629,509.8 1614.5,470.9 1538.3,262.9 C1488.6,127.4 1447.7,15.1 1447.4,13.4 C1446.9,10.9 1447.3,9.7 1448.9,8.1 C1450.8,6.2 1452.1,6 1463.9,6 C1478.4,6 1481.3,6.7 1483.3,10.7 C1484.1,12.2 1522,116.7 1567.5,242.8 C1613.1,368.9 1650.7,471.7 1651,471.3 C1651.4,470.9 1690.1,367.2 1737,241 C1797.4,78.4 1822.9,10.8 1824.6,9 C1826.9,6.6 1827.6,6.5 1841.1,6.2 C1852.9,5.9 1855.5,6.1 1857.7,7.5 C1860,9 1860.2,9.7 1859.8,14.3 C1859.1,21.7 1675.3,510.4 1671.8,514.2 L1669.2,517 L1652.2,517 L1635.2,517 L1631.8,513.1 Z" id="Shape"></path>
                <path d="M1952.9,515.1 L1950.5,513.2 L1950.2,264.3 C1950.1,127.5 1950.2,14 1950.5,12.2 C1951.7,5.6 1941.7,5.9 2112,6.2 L2265.9,6.5 L2268.2,8.8 C2270.3,10.9 2270.5,11.9 2270.5,23.5 C2270.5,35.2 2270.4,36 2268.1,38.4 L2265.7,41 L2126.3,41 L1987,41 L1987,276.4 L1987,511.7 L1984.4,514.4 C1981.8,516.9 1981.5,517 1968.5,517 C1956.9,517 1954.9,516.8 1952.9,515.1 Z" id="Shape"></path>
            </g>
        </g>
    </g>
</svg>