<?xml version="1.0" encoding="UTF-8"?>
<svg width="1502px" height="400px" viewBox="0 0 1502 400" version="1.1" xmlns="http://www.w3.org/2000/svg" xmlns:xlink="http://www.w3.org/1999/xlink">
    <!-- Generator: Sketch 44.1 (41455) - http://www.bohemiancoding.com/sketch -->
    <title>logo</title>
    <desc>Created with Sketch.</desc>
    <defs></defs>
    <g id="Page-1" stroke="none" stroke-width="1" fill="none" fill-rule="evenodd">
        <g id="logo">
            <path d="M551.6,162.5 C579.5,162.5 599.1,148.1 599.1,122.4 L599.1,122 C599.1,99.4 584.3,90 558,83.2 C535.6,77.5 530.1,74.7 530.1,66.2 L530.1,65.8 C530.1,59.5 535.8,54.5 546.7,54.5 C557.6,54.5 568.9,59.3 580.4,67.3 L595.2,45.8 C582.1,35.3 566,29.3 547.1,29.3 C520.6,29.3 501.8,44.8 501.8,68.3 L501.8,68.7 C501.8,94.4 518.6,101.6 544.7,108.3 C566.3,113.9 570.8,117.5 570.8,124.8 L570.8,125.2 C570.8,132.8 563.8,137.4 552.1,137.4 C537.3,137.4 525.1,131.3 513.4,121.7 L496.6,141.9 C512.2,155.6 532,162.5 551.6,162.5 Z M663,162.8 C633.2,162.8 611.2,141.9 611.2,111.6 L611.2,111.2 C611.2,82.9 631.4,59.6 660.2,59.6 C693.3,59.6 708.5,85.3 708.5,113.4 C708.5,115.6 708.3,118.2 708.1,120.8 L639.1,120.8 C641.9,133.6 650.8,140.2 663.3,140.2 C672.7,140.2 679.6,137.2 687.3,130 L703.4,144.2 C694.2,155.8 680.9,162.8 663,162.8 Z M638.7,103.3 L681.1,103.3 C679.4,90.7 672,82.2 660.2,82.2 C648.5,82.2 641,90.5 638.7,103.3 Z M771.4,162.8 C741.6,162.8 719.6,141.9 719.6,111.6 L719.6,111.2 C719.6,82.9 739.8,59.6 768.6,59.6 C801.7,59.6 816.9,85.3 816.9,113.4 C816.9,115.6 816.7,118.2 816.5,120.8 L747.5,120.8 C750.3,133.6 759.2,140.2 771.7,140.2 C781.1,140.2 788,137.2 795.7,130 L811.8,144.2 C802.6,155.8 789.3,162.8 771.4,162.8 Z M747.1,103.3 L789.5,103.3 C787.8,90.7 780.4,82.2 768.6,82.2 C756.9,82.2 749.4,90.5 747.1,103.3 Z M873.5,162.5 C850.4,162.5 828.4,144.4 828.4,111.3 L828.4,110.9 C828.4,77.8 850,59.7 873.5,59.7 C888.5,59.7 897.7,66.5 904.4,74.5 L904.4,25.6 L932.5,25.6 L932.5,160.7 L904.4,160.7 L904.4,146.5 C897.5,155.6 888.1,162.5 873.5,162.5 Z M880.7,138.6 C893.8,138.6 904.7,127.7 904.7,111.2 L904.7,110.8 C904.7,94.3 893.8,83.4 880.7,83.4 C867.6,83.4 856.5,94.1 856.5,110.8 L856.5,111.2 C856.5,127.7 867.6,138.6 880.7,138.6 Z M1011.7,162.5 C996.7,162.5 987.5,155.7 980.8,147.7 L980.8,160.6 L952.7,160.6 L952.7,25.6 L980.8,25.6 L980.8,75.7 C987.6,66.5 997.1,59.6 1011.7,59.6 C1034.8,59.6 1056.8,77.7 1056.8,110.8 L1056.8,111.2 C1056.8,144.3 1035.2,162.5 1011.7,162.5 Z M1004.5,138.6 C1017.6,138.6 1028.7,127.9 1028.7,111.2 L1028.7,110.8 C1028.7,94.3 1017.6,83.4 1004.5,83.4 C991.4,83.4 980.4,94.3 980.4,110.8 L980.4,111.2 C980.4,127.7 991.3,138.6 1004.5,138.6 Z M1119.5,162.8 C1089.7,162.8 1067.7,141.9 1067.7,111.6 L1067.7,111.2 C1067.7,82.9 1087.9,59.6 1116.7,59.6 C1149.8,59.6 1165,85.3 1165,113.4 C1165,115.6 1164.8,118.2 1164.6,120.8 L1095.6,120.8 C1098.4,133.6 1107.3,140.2 1119.8,140.2 C1129.2,140.2 1136.1,137.2 1143.8,130 L1159.9,144.2 C1150.8,155.8 1137.5,162.8 1119.5,162.8 Z M1095.3,103.3 L1137.7,103.3 C1136,90.7 1128.6,82.2 1116.8,82.2 C1105.1,82.2 1097.5,90.5 1095.3,103.3 Z M1182.2,160.6 L1210.3,160.6 L1210.3,25.6 L1182.2,25.6 L1182.2,160.6 Z M1265.3,162.3 C1274.7,162.3 1281.6,160.1 1287.5,156.6 L1287.5,134 C1283.4,136.2 1278.8,137.5 1273.6,137.5 C1267.3,137.5 1264.5,134.4 1264.5,127.9 L1264.5,85.5 L1287.8,85.5 L1287.8,61.5 L1264.5,61.5 L1264.5,36.1 L1236.4,36.1 L1236.4,61.4 L1224.6,61.4 L1224.6,85.4 L1236.4,85.4 L1236.4,132.4 C1236.4,155.4 1248.1,162.3 1265.3,162.3 Z M505.5,369.6 L534,369.6 L534,319.5 L595.8,319.5 L595.8,293.6 L534,293.6 L534,266 L604.1,266 L604.1,240.1 L505.5,240.1 L505.5,369.6 Z M618.9,369.6 L647,369.6 L647,333 C647,309.3 658.5,298 677.2,298 L678.7,298 L678.7,268.6 C662,267.9 652.8,276.7 647.1,290.4 L647.1,270.4 L619,270.4 L619,369.6 L618.9,369.6 Z M714.8,371.5 C696.1,371.5 680.8,360.8 680.8,341.2 L680.8,340.8 C680.8,319.2 697.3,309.2 720.8,309.2 C730.8,309.2 738,310.9 745,313.3 L745,311.6 C745,299.9 737.8,293.5 723.7,293.5 C713,293.5 705.4,295.5 696.3,298.9 L689.3,277.4 C700.2,272.6 710.9,269.4 727.8,269.4 C743.2,269.4 754.3,273.5 761.3,280.5 C768.7,287.9 772,298.8 772,312.1 L772,369.6 L744.8,369.6 L744.8,358.9 C737.9,366.5 728.5,371.5 714.8,371.5 Z M723.3,352 C736.4,352 745.3,344.8 745.3,334.6 L745.3,329.6 C740.5,327.4 734.2,325.9 727.4,325.9 C715.4,325.9 708,330.7 708,339.6 L708,340 C707.9,347.6 714.2,352 723.3,352 Z M791.2,369.6 L819.3,369.6 L819.3,314.3 C819.3,301 825.8,294.1 836.3,294.1 C846.8,294.1 852.8,300.9 852.8,314.3 L852.8,369.6 L880.9,369.6 L880.9,314.3 C880.9,301 887.4,294.1 897.9,294.1 C908.4,294.1 914.4,300.9 914.4,314.3 L914.4,369.6 L942.5,369.6 L942.5,305 C942.5,281.1 929.9,268.6 909,268.6 C895.5,268.6 885.1,274.2 876.4,284.3 C871.2,274.3 861.4,268.6 848.5,268.6 C834.3,268.6 825.7,276.2 819.3,284.5 L819.3,270.4 L791.2,270.4 L791.2,369.6 Z M1008.9,371.8 C979.1,371.8 957.1,350.9 957.1,320.6 L957.1,320.2 C957.1,291.9 977.3,268.6 1006.1,268.6 C1039.2,268.6 1054.4,294.3 1054.4,322.4 C1054.4,324.6 1054.2,327.2 1054,329.8 L985,329.8 C987.8,342.6 996.7,349.2 1009.2,349.2 C1018.6,349.2 1025.5,346.2 1033.2,339 L1049.3,353.2 C1040.2,364.8 1026.8,371.8 1008.9,371.8 Z M984.7,312.2 L1027,312.2 C1025.3,299.6 1017.9,291.1 1006.1,291.1 C994.5,291.2 986.9,299.5 984.7,312.2 Z M1088.1,370.3 L1113.3,370.3 L1132.7,309.4 L1151.8,370.3 L1177.1,370.3 L1208,270.4 L1180,270.4 L1163.7,330.7 L1144.8,270 L1120.6,270 L1101.9,330.5 L1086,270.4 L1057.5,270.4 L1088.1,370.3 Z M1264,371.8 C1233.3,371.8 1210.5,349 1210.5,320.6 L1210.5,320.2 C1210.5,291.7 1233.4,268.6 1264.3,268.6 C1295,268.6 1317.8,291.4 1317.8,319.8 L1317.8,320.2 C1317.8,348.7 1294.9,371.8 1264,371.8 Z M1264.4,347.6 C1280.5,347.6 1290.1,335.2 1290.1,320.6 L1290.1,320.2 C1290.1,305.6 1279.6,292.8 1264,292.8 C1247.9,292.8 1238.3,305.2 1238.3,319.8 L1238.3,320.2 C1238.3,334.8 1248.8,347.6 1264.4,347.6 Z M1333.2,369.6 L1361.3,369.6 L1361.3,333 C1361.3,309.3 1372.8,298 1391.5,298 L1393,298 L1393,268.6 C1376.4,267.9 1367.1,276.7 1361.4,290.4 L1361.4,270.4 L1333.3,270.4 L1333.3,369.6 L1333.2,369.6 Z M1405.5,369.6 L1433.6,369.6 L1433.6,339.4 L1443.4,329 L1469.3,369.5 L1501.5,369.5 L1462.5,309.4 L1500.2,270.4 L1466.5,270.4 L1433.6,306.5 L1433.6,234.5 L1405.5,234.5 L1405.5,369.6 Z" id="Seedbelt-Framework" fill="#000000" fill-rule="nonzero"></path>
            <g id="Icon">
                <g id="base">
                    <path d="M53.1,0 L346.9,0 C376.2,0 400,23.8 400,53.1 L400,346.9 C400,376.2 376.2,400 346.9,400 L53.1,400 C23.8,400 0,376.2 0,346.9 L0,53.1 C0,23.8 23.8,0 53.1,0 Z" id="Shape" fill="#000000" fill-rule="nonzero"></path>
                    <path d="M53.1,0 L346.9,0 C376.2,0 400,23.8 400,53.1 L400,346.9 C400,376.2 376.2,400 346.9,400 L53.1,400 C23.8,400 0,376.2 0,346.9 L0,53.1 C0,23.8 23.8,0 53.1,0 Z" id="path-2_1_" fill="#414BFF" fill-rule="nonzero"></path>
                    <path d="M53.1,0 L346.9,0 C376.2,0 400,23.8 400,53.1 L400,346.9 C400,376.2 376.2,400 346.9,400 L53.1,400 C23.8,400 0,376.2 0,346.9 L0,53.1 C0,23.8 23.8,0 53.1,0 Z" id="path-2_2_"></path>
                </g>
                <circle id="circle" stroke="#FFFFFF" stroke-width="40" cx="200" cy="200" r="112"></circle>
            </g>
        </g>
    </g>
</svg>