<?xml version="1.0" encoding="UTF-8"?>
<svg width="1629px" height="408px" viewBox="0 0 1629 408" version="1.1" xmlns="http://www.w3.org/2000/svg" xmlns:xlink="http://www.w3.org/1999/xlink">
    <!-- Generator: Sketch 44.1 (41455) - http://www.bohemiancoding.com/sketch -->
    <title>stdlib-logo-wordmark</title>
    <desc>Created with Sketch.</desc>
    <defs></defs>
    <g id="Page-1" stroke="none" stroke-width="1" fill="none" fill-rule="evenodd">
        <g id="stdlib-logo-wordmark" fill-rule="nonzero">
            <g id="Group" transform="translate(227.000000, 0.000000)" fill="#231F20">
                <path d="M140.9,193.2 C135.8,186.8 129.4,181.4 121.9,177.1 C114.4,172.8 105.1,170.6 94.2,170.6 C83.9,170.6 75,172.8 67.5,177.1 C60,181.4 56.2,187.8 56.2,196.1 C56.2,202.8 58.4,208.3 62.7,212.4 C67,216.6 72.2,219.9 78.1,222.5 C84,225.1 90.4,227 97.1,228.3 C103.8,229.6 109.6,230.7 114.4,231.7 C123.7,233.9 132.5,236.7 140.6,239.9 C148.7,243.1 155.8,247.3 161.8,252.4 C167.7,257.5 172.4,263.8 175.7,271.2 C179.1,278.6 180.8,287.5 180.8,298.2 C180.8,311.1 178.1,322.1 172.6,331.2 C167.1,340.4 160.1,347.8 151.4,353.6 C142.7,359.4 132.9,363.6 121.8,366.1 C110.7,368.6 99.5,369.9 88.3,369.9 C69.4,369.9 52.7,367 38.5,361.2 C24.2,355.4 11.5,344.9 0.3,329.4 L33,302.4 C40.1,309.5 47.9,315.7 56.6,321.2 C65.3,326.7 75.8,329.4 88.4,329.4 C93.8,329.4 99.4,328.8 105,327.7 C110.6,326.5 115.6,324.8 119.9,322.4 C124.2,320 127.8,317 130.5,313.3 C133.2,309.6 134.6,305.3 134.6,300.6 C134.6,294.2 132.6,288.9 128.6,284.7 C124.6,280.5 119.8,277.3 114.1,274.9 C108.4,272.5 102.5,270.6 96.3,269.1 C90,267.7 84.5,266.4 79.7,265.5 C70.4,263.3 61.6,260.7 53.2,257.8 C44.9,254.9 37.4,251.1 31.1,246.2 C24.7,241.4 19.5,235.3 15.7,227.9 C11.9,220.5 9.9,211.3 9.9,200.4 C9.9,188.5 12.4,178.2 17.3,169.4 C22.3,160.6 28.9,153.3 37,147.5 C45.1,141.7 54.5,137.4 64.9,134.5 C75.3,131.6 85.9,130.2 96.4,130.2 C111.8,130.2 126.5,133.1 140.7,138.9 C154.8,144.7 166.1,154.3 174.4,167.8 L140.9,193.2 Z" id="Shape"></path>
                <path d="M355.5,173.5 L293.4,173.5 L293.4,277 C293.4,283.4 293.5,289.8 293.9,296 C294.2,302.3 295.4,307.9 297.5,312.8 C299.6,317.8 302.8,321.8 307.1,324.8 C311.4,327.8 317.8,329.4 326.1,329.4 C331.2,329.4 336.5,328.9 342,328 C347.4,327.1 352.4,325.3 356.9,322.7 L356.9,362.2 C351.8,365.1 345.1,367.1 337,368.2 C328.8,369.4 322.5,369.9 318,369.9 C301.3,369.9 288.4,367.6 279.3,362.9 C270.1,358.3 263.4,352.2 259.1,344.8 C254.8,337.4 252.2,329.2 251.4,320 C250.6,310.9 250.2,301.6 250.2,292.3 L250.2,173.5 L200,173.5 L200,135.9 L250.1,135.9 L250.1,71.9 L293.4,71.9 L293.4,135.9 L355.6,135.9 L355.6,173.5 L355.5,173.5 Z" id="Shape"></path>
                <path d="M640,364.1 L596.7,364.1 L596.7,331.4 L595.8,331.4 C587.5,343.6 576,353.1 561.4,359.8 C546.8,366.5 531.8,369.9 516.4,369.9 C498.8,369.9 482.8,366.9 468.5,360.8 C454.2,354.7 442,346.2 431.9,335.3 C421.8,324.4 414,311.7 408.6,297.3 C403.1,282.8 400.4,267.2 400.4,250.1 C400.4,233.1 403.1,217.3 408.6,202.7 C414.1,188.1 421.8,175.5 431.9,164.7 C442,153.9 454.2,145.5 468.5,139.4 C482.7,133.3 498.7,130.2 516.4,130.2 C532.7,130.2 548.2,133.7 562.6,140.5 C577.1,147.4 588.1,156.8 595.8,168.7 L596.7,168.7 L596.7,0.3 L640,0.3 L640,364.1 L640,364.1 Z M521.6,329.5 C533.2,329.5 543.6,327.5 552.9,323.5 C562.2,319.5 570,314 576.5,307.2 C582.9,300.3 587.9,292 591.4,282.2 C594.9,272.4 596.7,261.7 596.7,250.2 C596.7,238.7 595,228 591.4,218.2 C587.9,208.4 582.9,200.1 576.5,193.2 C570.1,186.3 562.2,180.8 552.9,176.9 C543.6,172.9 533.2,170.9 521.6,170.9 C510,170.9 499.6,172.9 490.3,176.9 C481,180.9 473.1,186.4 466.7,193.2 C460.3,200.1 455.3,208.4 451.8,218.2 C448.3,228 446.5,238.7 446.5,250.2 C446.5,261.7 448.2,272.5 451.8,282.2 C455.3,292 460.3,300.3 466.7,307.2 C473.1,314.1 480.9,319.6 490.3,323.5 C499.6,327.4 510,329.5 521.6,329.5 Z" id="Shape"></path>
                <polygon id="Shape" points="708.8 0.3 752.1 0.3 752.1 364.2 708.8 364.2"></polygon>
                <path d="M814.2,54.2 C814.2,45.5 817.3,38.1 823.6,31.8 C829.9,25.5 837.3,22.4 846,22.4 C854.7,22.4 862.1,25.5 868.4,31.8 C874.7,38.1 877.8,45.5 877.8,54.2 C877.8,62.9 874.7,70.3 868.4,76.6 C862.1,82.9 854.7,86 846,86 C837.3,86 829.9,82.9 823.6,76.6 C817.3,70.3 814.2,62.8 814.2,54.2 Z M824.4,136 L867.7,136 L867.7,364.2 L824.4,364.2 L824.4,136 Z" id="Shape"></path>
                <path d="M936.5,0.3 L979.8,0.3 L979.8,168.8 L980.7,168.8 C988.4,156.9 999.5,147.6 1013.9,140.6 C1028.4,133.7 1043.7,130.3 1060.1,130.3 C1077.7,130.3 1093.7,133.3 1108,139.5 C1122.2,145.6 1134.5,154 1144.6,164.8 C1154.7,175.6 1162.5,188.2 1167.9,202.8 C1173.3,217.4 1176.1,233.2 1176.1,250.2 C1176.1,267.2 1173.4,282.9 1167.9,297.4 C1162.4,311.9 1154.7,324.5 1144.6,335.4 C1134.5,346.3 1122.3,354.8 1108,360.9 C1093.7,367 1077.7,370 1060.1,370 C1044.7,370 1029.7,366.6 1015.1,359.9 C1000.5,353.2 989,343.7 980.7,331.5 L979.8,331.5 L979.8,364.2 L936.5,364.2 L936.5,0.3 Z M1054.9,329.5 C1066.5,329.5 1076.9,327.5 1086.2,323.5 C1095.5,319.5 1103.3,314 1109.8,307.2 C1116.2,300.3 1121.2,292 1124.7,282.2 C1128.2,272.4 1130,261.7 1130,250.2 C1130,238.7 1128.3,228 1124.7,218.2 C1121.2,208.4 1116.2,200.1 1109.8,193.2 C1103.4,186.3 1095.5,180.8 1086.2,176.9 C1076.9,172.9 1066.5,170.9 1054.9,170.9 C1043.3,170.9 1032.9,172.9 1023.6,176.9 C1014.3,180.9 1006.4,186.4 1000,193.2 C993.6,200.1 988.6,208.4 985.1,218.2 C981.6,228 979.8,238.7 979.8,250.2 C979.8,261.7 981.5,272.5 985.1,282.2 C988.6,292 993.6,300.3 1000,307.2 C1006.4,314.1 1014.2,319.6 1023.6,323.5 C1032.9,327.4 1043.3,329.5 1054.9,329.5 Z" id="Shape"></path>
            </g>
            <g id="Group" transform="translate(1407.000000, 88.000000)">
                <rect id="Rectangle-path" fill="#284B84" transform="translate(70.138735, 89.712405) rotate(-45.000000) translate(-70.138735, -89.712405) " x="59.18884" y="2.11324509" width="21.89979" height="175.19832"></rect>
                <rect id="Rectangle-path" fill="#284B84" transform="translate(70.175475, 229.025135) rotate(-45.000000) translate(-70.175475, -229.025135) " x="-17.4236849" y="218.07524" width="175.19832" height="21.89979"></rect>
                <rect id="Rectangle-path" fill="#284B84" transform="translate(139.813520, 159.350550) rotate(-45.000000) translate(-139.813520, -159.350550) " x="128.863625" y="148.400655" width="21.89979" height="21.89979"></rect>
                <path d="M139.8,174.9 L16,298.7 C41.7,324.4 83.2,324.4 108.9,298.7 L201.8,205.8 L155.4,159.4 L139.8,174.9 Z" id="Shape" fill="#9C73B0"></path>
                <path d="M155.3,159.4 L201.7,113 L108.8,20.1 C83.1,-5.6 41.6,-5.6 15.9,20.1 L139.8,144 L155.3,159.4 Z" id="Shape" fill="#51BB8D"></path>
                <path d="M201.8,205.8 C227.5,180.1 227.5,138.6 201.8,112.9 L155.4,159.3 L201.8,205.8 Z" id="Shape" fill="#51BB8D"></path>
                <polygon id="Shape" fill="#6E4698" points="201.8 205.8 124.3 190.3 155.3 159.4"></polygon>
            </g>
            <g id="Group" transform="translate(0.000000, 86.000000)">
                <rect id="Rectangle-path" fill="#4572B5" transform="translate(152.498640, 90.865130) rotate(-45.000000) translate(-152.498640, -90.865130) " x="63.9494892" y="79.815236" width="177.098302" height="22.0997881"></rect>
                <rect id="Rectangle-path" fill="#4572B5" transform="translate(152.556640, 231.839730) rotate(-45.000000) translate(-152.556640, -231.839730) " x="141.506746" y="143.290579" width="22.0997881" height="177.098302"></rect>
                <rect id="Rectangle-path" fill="#4572B5" transform="translate(82.040340, 161.381430) rotate(-45.000000) translate(-82.040340, -161.381430) " x="70.990446" y="150.331536" width="22.0997881" height="22.0997881"></rect>
                <path d="M66.4,161.4 L19.4,208.4 L113.3,302.3 C139.2,328.2 181.3,328.2 207.2,302.3 L82.1,177 L66.4,161.4 Z" id="Shape" fill="#ED4C40"></path>
                <path d="M19.5,114.4 C-6.4,140.3 -6.4,182.4 19.5,208.3 L66.5,161.3 L19.5,114.4 Z" id="Shape" fill="#ED4C40"></path>
                <path d="M82.1,145.7 L207.4,20.4 C181.5,-5.5 139.4,-5.5 113.5,20.4 L19.6,114.3 L66.6,161.3 L82.1,145.7 Z" id="Shape" fill="#F9AA40"></path>
                <polygon id="Shape" fill="#F48C45" points="19.5 114.4 97.7 130.1 66.4 161.4"></polygon>
            </g>
        </g>
    </g>
</svg>