<?xml version="1.0" encoding="UTF-8"?>
<svg width="255px" height="48px" viewBox="0 0 255 48" version="1.1" xmlns="http://www.w3.org/2000/svg" xmlns:xlink="http://www.w3.org/1999/xlink">
    <!-- Generator: Sketch 44.1 (41455) - http://www.bohemiancoding.com/sketch -->
    <title>TELUS_2017_EN_RGB_0</title>
    <desc>Created with Sketch.</desc>
    <defs></defs>
    <g id="Page-1" stroke="none" stroke-width="1" fill="none" fill-rule="evenodd">
        <g id="TELUS_2017_EN_RGB_0">
            <polyline id="Fill-1" fill="#4B286D" points="147.125 13.564 147.125 8.483 129.013 8.483 129.013 34.612 147.125 34.612 147.125 29.312 136.351 29.312 136.351 23.521 145.313 23.521 145.313 18.448 136.351 18.448 136.351 13.564 147.125 13.564"></polyline>
            <polyline id="Fill-2" fill="#4B286D" points="179.08 29.456 167.761 29.456 167.761 8.483 160.334 8.483 160.334 34.612 179.08 34.612 179.08 29.456"></polyline>
            <path d="M238.881,18.441 C233.87,17.31 232.117,17.184 232.117,15.19 C232.117,13.339 234.596,12.762 236.027,12.762 C238.342,12.762 241.065,13.3 243.842,14.728 L245.862,9.92 C243.02,8.365 239.364,7.72 235.845,7.72 C228.933,7.72 224.298,10.522 224.107,15.987 C223.904,20.968 227.96,22.836 231.686,23.606 C235.275,24.346 238.918,24.981 238.991,27.115 C239.059,29.083 237.291,29.925 233.952,29.925 C230.857,29.925 227.986,28.931 225.046,27.702 L223.334,32.925 C226.706,34.364 230.134,35.154 233.671,35.154 C238.58,35.154 242.159,34.39 244.799,31.914 C246.627,30.212 247.225,28.159 247.225,26.205 C247.225,22.073 244.653,19.745 238.881,18.441" id="Fill-3" fill="#4B286D"></path>
            <polyline id="Fill-4" fill="#4B286D" points="118.478 13.64 118.478 8.483 95.689 8.483 95.689 13.64 103.389 13.64 103.389 34.612 110.771 34.612 110.771 13.64 118.478 13.64"></polyline>
            <path d="M204.411,8.483 L204.411,25.084 C204.411,26.385 204.411,26.745 204.329,27.25 C204.097,28.832 202.557,29.75 200.112,29.781 C198.301,29.753 196.977,29.218 196.357,28.271 C196.046,27.782 195.896,26.909 195.896,25.515 L195.896,8.483 L188.197,8.483 L188.197,26.491 C188.197,28.986 188.53,30.11 189.653,31.533 C191.515,33.864 195.139,35.085 200.129,35.085 C200.18,35.085 200.234,35.085 200.288,35.085 C200.318,35.085 200.362,35.085 200.397,35.085 C207.082,35.085 210.527,32.475 211.528,30.039 C212.027,28.858 212.065,28.297 212.065,25.911 L212.065,8.483 L204.411,8.483" id="Fill-5" fill="#4B286D"></path>
            <path d="M99.168,1.329 L55.984,9.927 L55.984,12.936 L56.124,12.9 C84.65,5.968 99.168,1.801 99.286,1.768 C99.448,1.727 99.503,1.601 99.481,1.495 C99.459,1.383 99.342,1.292 99.168,1.329" id="Fill-6" fill="#4B286D"></path>
            <path d="M64.057,0.504 C61.957,0.625 58.071,3.733 55.939,5.582 C47.441,12.931 41.125,19.689 36.531,26.766 C26.955,31.892 14.748,37.166 2.624,41.285 L2.333,41.384 L0,47.667 L1.332,47.151 C9.043,44.214 21.913,38.695 33.581,32.56 C32.923,34.312 32.592,35.921 32.592,37.391 C32.592,38.489 32.775,39.501 33.143,40.435 C33.878,42.277 35.321,43.678 37.327,44.476 C40.312,45.667 44.387,45.69 49.035,44.283 C60.91,40.68 74.994,29.634 78.061,27.437 L78.175,27.353 C78.296,27.268 78.305,27.136 78.252,27.048 C78.186,26.947 78.046,26.923 77.929,26.99 L77.779,27.084 C74.487,29.051 58.497,38.547 48.102,41.337 C42.81,42.758 38.775,41.979 37.252,39.851 C36.724,39.125 36.47,38.203 36.47,37.128 C36.47,35.037 37.454,32.367 39.355,29.405 C41.104,28.406 42.734,27.434 44.205,26.515 C54.347,20.814 66.03,9.732 66.526,2.97 C66.529,2.924 66.529,2.871 66.529,2.819 C66.529,2.239 66.277,1.634 65.835,1.19 C65.36,0.706 64.732,0.464 64.057,0.504 Z M62.927,3.73 C63.594,3.301 63.786,3.568 63.591,4.054 C63.271,4.829 61.811,9.504 50.938,18.428 C48.102,20.752 46.083,22.06 42.001,24.475 C48.688,15.1 58.454,6.637 62.927,3.73 L62.927,3.73 Z" id="Fill-7" fill="#66CC00"></path>
            <polyline id="Fill-8" fill="#4B286D" points="55.844 9.955 10.41 19.721 8.654 24.443 55.984 12.936 56.058 12.918 56.058 9.911 55.844 9.955"></polyline>
            <path d="M250.903,11.017 L251.42,11.017 C251.854,11.017 252.255,10.995 252.255,10.494 C252.255,10.073 251.892,10.009 251.557,10.009 L250.903,10.009 L250.903,11.017 Z M250.41,9.608 L251.638,9.608 C252.393,9.608 252.748,9.906 252.748,10.516 C252.748,11.09 252.385,11.329 251.913,11.38 L252.821,12.782 L252.29,12.782 L251.426,11.417 L250.903,11.417 L250.903,12.782 L250.41,12.782 L250.41,9.608 Z M251.471,13.517 C252.728,13.517 253.7,12.514 253.7,11.184 C253.7,9.884 252.728,8.882 251.471,8.882 C250.199,8.882 249.227,9.884 249.227,11.184 C249.227,12.514 250.199,13.517 251.471,13.517 Z M251.471,8.483 C252.951,8.483 254.193,9.653 254.193,11.184 C254.193,12.748 252.951,13.916 251.471,13.916 C249.981,13.916 248.731,12.748 248.731,11.184 C248.731,9.653 249.981,8.483 251.471,8.483 L251.471,8.483 Z" id="Fill-9" fill="#4B286D"></path>
        </g>
    </g>
</svg>