<?xml version="1.0" encoding="UTF-8"?>
<svg width="710px" height="252px" viewBox="0 0 710 252" version="1.1" xmlns="http://www.w3.org/2000/svg" xmlns:xlink="http://www.w3.org/1999/xlink">
    <!-- Generator: Sketch 44.1 (41455) - http://www.bohemiancoding.com/sketch -->
    <title>wolfram</title>
    <desc>Created with Sketch.</desc>
    <defs></defs>
    <g id="Page-1" stroke="none" stroke-width="1" fill="none" fill-rule="evenodd">
        <g id="wolfram" transform="translate(0.000000, -10.000000)">
            <path d="M143.2504,106.3559 C138.4414,101.5219 128.7984,95.4169 128.7984,95.4169 C128.7984,95.4169 126.8794,84.1799 125.5834,80.0179 C134.2554,71.6459 135.5504,70.3749 143.8984,62.3519 C144.5464,78.3989 144.2224,86.7459 143.2504,106.3559" id="Fill-1" fill="#000222"></path>
            <path d="M150.003,140.0693 C144.222,141.6643 143.574,141.9883 137.793,143.6073 C131.689,140.0693 126.232,138.1503 121.099,138.7733 C121.747,135.5843 122.693,133.3163 123.665,130.4263 C134.579,128.8313 142.602,134.6123 150.003,140.0693" id="Fill-3" fill="#000222"></path>
            <path d="M238.6342,135.5842 C238.6342,165.5602 226.7242,194.3142 205.5442,215.5192 C199.4642,221.5992 192.7862,226.9062 185.6102,231.3912 C185.6102,231.3912 185.5852,231.4162 185.5602,231.4162 L146.7882,183.1022 L178.9072,186.6402 C178.9072,186.6402 194.3312,188.2352 197.8442,186.6402 C201.0592,185.3692 218.4012,160.9502 218.4012,160.9502 C218.4012,160.9502 168.6162,129.4792 151.5972,112.1372 C153.5412,82.9082 149.3552,44.0372 149.3552,44.3612 C136.8212,56.8702 135.2272,58.8132 122.6932,70.3752 C117.2362,52.7092 114.6702,46.6042 109.2132,28.9372 C92.8172,42.4182 80.3092,65.2422 71.3132,91.9042 C69.3452,94.0712 67.4512,96.3642 65.5832,98.8062 C64.3622,100.4252 63.1402,102.0702 61.9692,103.7642 C59.5522,107.2032 57.2352,110.8162 55.0182,114.6032 C53.4482,117.2702 51.9032,120.0112 50.4082,122.8012 C39.9672,142.4112 31.3962,164.8872 23.9702,185.1202 C23.9202,185.0452 23.8712,184.9452 23.8462,184.8712 C16.4702,169.6462 12.5332,152.8272 12.5332,135.5842 C12.5332,105.5832 24.4442,76.8292 45.6492,55.6242 C66.8532,34.4192 95.6082,22.5092 125.5842,22.5092 C155.5842,22.5092 184.3392,34.4192 205.5442,55.6242 C226.7242,76.8292 238.6342,105.5832 238.6342,135.5842" id="Fill-5" fill="#000222"></path>
            <path d="M143.2504,106.3559 C138.4414,101.5219 128.7984,95.4169 128.7984,95.4169 C128.7984,95.4169 126.8794,84.1799 125.5834,80.0179 C134.2554,71.6459 135.5504,70.3749 143.8984,62.3519 C144.5464,78.3989 144.2224,86.7459 143.2504,106.3559" id="Fill-7" fill="#DD1100"></path>
            <path d="M150.003,140.0693 C144.222,141.6643 143.574,141.9883 137.793,143.6073 C131.689,140.0693 126.232,138.1503 121.099,138.7733 C121.747,135.5843 122.693,133.3163 123.665,130.4263 C134.579,128.8313 142.602,134.6123 150.003,140.0693" id="Fill-9" fill="#DD1100"></path>
            <path d="M238.6342,135.5842 C238.6342,165.5602 226.7242,194.3142 205.5442,215.5192 C199.4642,221.5992 192.7862,226.9062 185.6102,231.3912 C185.6102,231.3912 185.5852,231.4162 185.5602,231.4162 L146.7882,183.1022 L178.9072,186.6402 C178.9072,186.6402 194.3312,188.2352 197.8442,186.6402 C201.0592,185.3692 218.4012,160.9502 218.4012,160.9502 C218.4012,160.9502 168.6162,129.4792 151.5972,112.1372 C153.5412,82.9082 149.3552,44.0372 149.3552,44.3612 C136.8212,56.8702 135.2272,58.8132 122.6932,70.3752 C117.2362,52.7092 114.6702,46.6042 109.2132,28.9372 C92.8172,42.4182 80.3092,65.2422 71.3132,91.9042 C69.3452,94.0712 67.4512,96.3642 65.5832,98.8062 C64.3622,100.4252 63.1402,102.0702 61.9692,103.7642 C59.5522,107.2032 57.2352,110.8162 55.0182,114.6032 C53.4482,117.2702 51.9032,120.0112 50.4082,122.8012 C39.9672,142.4112 31.3962,164.8872 23.9702,185.1202 C23.9202,185.0452 23.8712,184.9452 23.8462,184.8712 C16.4702,169.6462 12.5332,152.8272 12.5332,135.5842 C12.5332,105.5832 24.4442,76.8292 45.6492,55.6242 C66.8532,34.4192 95.6082,22.5092 125.5842,22.5092 C155.5842,22.5092 184.3392,34.4192 205.5442,55.6242 C226.7242,76.8292 238.6342,105.5832 238.6342,135.5842" id="Fill-11" fill="#DD1100"></path>
            <path d="M143.2504,106.3559 C138.4414,101.5219 128.7984,95.4169 128.7984,95.4169 C128.7984,95.4169 126.8794,84.1799 125.5834,80.0179 C134.2554,71.6459 135.5504,70.3749 143.8984,62.3519 C144.5464,78.3989 144.2224,86.7459 143.2504,106.3559" id="Fill-13" fill="#FFFFFF"></path>
            <path d="M150.003,140.0693 C144.222,141.6643 143.574,141.9883 137.793,143.6073 C131.689,140.0693 126.232,138.1503 121.099,138.7733 C121.747,135.5843 122.693,133.3163 123.665,130.4263 C134.579,128.8313 142.602,134.6123 150.003,140.0693" id="Fill-15" fill="#FFFFFF"></path>
            <path d="M150.003,140.0693 C144.222,141.6643 143.574,141.9883 137.793,143.6073 C131.689,140.0693 126.232,138.1503 121.099,138.7733 C121.747,135.5843 122.693,133.3163 123.665,130.4263 C134.579,128.8313 142.602,134.6123 150.003,140.0693" id="Fill-17" fill="#000000"></path>
            <path d="M146.7886,183.1018 L185.5606,231.4168 C185.5846,231.4168 185.6096,231.3918 185.6096,231.3918 L146.7886,183.1018 Z M23.8456,184.8708 C23.8706,184.9458 23.9206,185.0448 23.9706,185.1198 C31.3956,164.8868 39.9676,142.4118 50.4076,122.8018 C39.8926,142.3368 31.2466,164.7378 23.8456,184.8708 L23.8456,184.8708 Z" id="Fill-19" fill="#000222"></path>
            <path d="M205.5439,215.5192 C199.4639,221.5992 192.7859,226.9062 185.6099,231.3912 C185.6099,231.3912 185.5849,231.4162 185.5599,231.4162 L146.7889,183.1022 L178.9069,186.6402 C178.9069,186.6402 194.3309,188.2352 197.8439,186.6402 C201.0589,185.3692 218.4009,160.9502 218.4009,160.9502 C218.4009,160.9502 168.6159,129.4792 151.5979,112.1372 C153.5409,82.9082 149.3549,44.0372 149.3549,44.3612 C136.8219,56.8702 135.2269,58.8132 122.6939,70.3752 C117.2369,52.7092 114.6699,46.6042 109.2129,28.9372 C92.8179,42.4182 80.3089,65.2422 71.3139,91.9042 C69.3449,94.0712 67.4519,96.3642 65.5829,98.8062 C64.3619,100.4252 63.1409,102.0702 61.9699,103.7642 C59.5529,107.2032 57.2349,110.8162 55.0179,114.6032 C53.4479,117.2702 51.9029,120.0112 50.4079,122.8012 C49.7599,124.0222 49.1119,125.2682 48.4649,126.5142 C38.8959,145.2022 30.9229,166.1582 23.9709,185.1202 C23.9209,185.0452 23.8709,184.9452 23.8459,184.8712 C16.4699,169.6462 12.5329,152.8272 12.5329,135.5842 C12.5329,105.5832 24.4439,76.8292 45.6489,55.6242 C66.8539,34.4192 95.6079,22.5092 125.5839,22.5092 C155.5849,22.5092 184.3389,34.4192 205.5439,55.6242 C226.7239,76.8292 238.6339,105.5832 238.6339,135.5842 C238.6339,165.5602 226.7239,194.3142 205.5439,215.5192 M125.5839,80.0182 C134.2549,71.6462 135.5509,70.3752 143.8979,62.3522 C144.5459,78.3982 144.2219,86.7462 143.2499,106.3562 C138.4409,101.5222 128.7979,95.4172 128.7979,95.4172 C128.7979,95.4172 126.8799,84.1792 125.5839,80.0182 M165.7259,241.8822 C96.4549,266.9242 46.3959,220.8262 35.7069,204.7052 C35.7569,204.5552 35.7809,204.4312 35.8059,204.2812 C45.4249,163.6162 57.2849,114.9522 76.4469,100.5752 C86.4139,83.2072 89.3039,57.5182 107.2699,44.0372 C111.7799,57.5182 118.8559,85.4752 123.6649,98.9552 C144.8699,120.1602 176.9889,146.4982 198.4919,157.4122 C200.7349,158.7072 203.6249,167.7022 203.6249,167.7022 L194.9539,178.6162 L102.4609,169.2972 C100.3919,169.1232 98.3239,169.0482 96.2559,169.0482 C90.3259,169.0482 84.2459,169.7212 77.0949,170.8922 C81.5799,159.6542 91.2229,150.6592 91.2229,150.6592 C91.2229,150.6592 82.2279,145.2022 75.4749,144.2552 C77.4189,139.7452 82.5519,133.9642 83.8469,132.3702 C81.2559,133.3162 62.6429,141.6642 60.6989,148.7402 C69.6939,150.9832 76.1229,153.8732 76.1229,153.8732 C76.1229,153.8732 66.1809,163.8402 64.2369,181.1832 C64.2369,181.1832 93.7889,176.6732 115.9659,179.5632 C116.5889,179.8872 116.9129,179.8872 117.2369,179.8872 L128.7979,180.2112 L165.5269,241.3582 L165.8259,241.8322 C165.7759,241.8572 165.7509,241.8822 165.7259,241.8822 M214.3899,46.7782 C190.8429,23.2312 158.8979,10.0002 125.5839,10.0002 C92.2939,10.0002 60.3499,23.2312 36.7779,46.7782 C13.2309,70.3252 -0.0001,102.2692 -0.0001,135.5842 C-0.0001,168.8742 13.2309,200.8182 36.7779,224.3652 C60.3499,247.9372 92.2939,261.1682 125.5839,261.1682 C158.8979,261.1682 190.8429,247.9372 214.3899,224.3652 C237.9369,200.8182 251.1679,168.8742 251.1679,135.5842 C251.1679,102.2692 237.9369,70.3252 214.3899,46.7782" id="Fill-21" fill="#000000"></path>
            <path d="M123.6653,130.4263 C134.5793,128.8313 142.6023,134.6123 150.0033,140.0693 C144.2223,141.6643 143.5743,141.9883 137.7933,143.6073 C131.6883,140.0693 126.2313,138.1503 121.0983,138.7733 C121.7463,135.5843 122.6933,133.3163 123.6653,130.4263 M77.0943,170.8923 C84.2463,169.7213 90.3253,169.0483 96.2563,169.0483 C98.3243,169.0483 100.3923,169.1233 102.4603,169.2973 L194.9543,178.6163 L203.6253,167.7023 C203.6253,167.7023 200.7353,158.7073 198.4923,157.4113 C176.9883,146.4983 144.8703,120.1603 123.6653,98.9553 C118.8563,85.4753 111.7793,57.5183 107.2693,44.0373 C89.3043,57.5183 86.4133,83.2073 76.4463,100.5753 C57.2853,114.9523 45.4243,163.6163 35.8063,204.2813 C35.7813,204.4313 35.7563,204.5553 35.7063,204.7053 C46.3963,220.8263 96.4553,266.9243 165.7263,241.8823 C165.7503,241.8823 165.7753,241.8573 165.8253,241.8323 L165.5263,241.3583 L128.7983,180.2113 L117.2363,179.8873 C116.9123,179.8873 116.5883,179.8873 115.9653,179.5633 C93.7893,176.6733 64.2373,181.1833 64.2373,181.1833 C66.1803,163.8403 76.1223,153.8733 76.1223,153.8733 C76.1223,153.8733 69.6943,150.9833 60.6993,148.7403 C62.6423,141.6643 81.2553,133.3163 83.8473,132.3693 C82.5513,133.9643 77.4183,139.7453 75.4753,144.2553 C82.2273,145.2023 91.2223,150.6593 91.2223,150.6593 C91.2223,150.6593 81.5793,159.6543 77.0943,170.8923" id="Fill-23" fill="#FFFFFF"></path>
            <polygon id="Fill-25" fill="#000000" points="312.0587 31.3593 326.6497 31.3593 339.8857 92.9553 350.0987 31.3593 362.5017 31.3593 347.8067 110.4633 333.5287 110.4633 319.3537 45.3253 305.1797 110.4633 290.9017 110.4633 276.2047 31.3593 288.6077 31.3593 298.8227 92.9553"></polygon>
            <path d="M365.5201,83.4706 C365.5201,67.4206 370.1061,56.1646 388.6591,56.1646 C407.2091,56.1646 411.7941,67.4206 411.7941,83.4706 C411.7941,99.5216 407.2091,110.7766 388.6591,110.7766 C370.1061,110.7766 365.5201,99.5216 365.5201,83.4706 M400.0181,83.4706 C400.0181,72.3196 398.5591,65.9616 388.6591,65.9616 C378.7561,65.9616 377.2961,72.3196 377.2961,83.4706 C377.2961,94.6226 378.7561,100.9806 388.6591,100.9806 C398.5591,100.9806 400.0181,94.6226 400.0181,83.4706" id="Fill-27" fill="#000000"></path>
            <path d="M420.7535,96.7074 L420.7535,31.3584 L432.4265,31.3584 L432.4265,96.6034 C432.4265,99.5224 433.4685,100.5624 436.8045,100.5624 L436.8045,110.0484 C436.8045,110.0484 435.7615,110.2564 434.5105,110.2564 C425.0275,110.2564 420.7535,105.6704 420.7535,96.7074" id="Fill-29" fill="#000000"></path>
            <path d="M480.5749,41.2604 C478.6989,40.6354 476.5099,40.2184 472.8629,40.2184 C467.6509,40.2184 463.4819,42.1984 463.4819,48.1394 L463.4819,57.4164 L478.1779,57.4164 L478.1779,67.3164 L463.4819,67.3164 L463.4819,109.5264 L451.8099,109.5264 L451.8099,67.3164 L442.3239,67.3164 L442.3239,60.1254 L451.8099,57.4164 L451.8099,47.0974 C451.8099,35.9444 458.0629,30.1084 472.0289,30.1084 C475.4689,30.1084 478.5949,30.6304 480.5749,31.3604 L480.5749,41.2604 Z" id="Fill-31" fill="#000000"></path>
            <path d="M514.9657,66.795 C513.7137,66.378 511.6297,66.17 509.2327,66.17 C503.0837,66.17 498.4977,67.629 495.8927,69.297 L495.8927,109.526 L484.2207,109.526 L484.2207,57.416 L491.0977,57.416 L492.9747,61.583 C496.8307,58.458 502.6667,56.165 509.4417,56.165 C511.6297,56.165 513.5067,56.478 514.9657,56.79 L514.9657,66.795 Z" id="Fill-33" fill="#000000"></path>
            <path d="M538.9349,66.1698 C532.1609,66.1698 526.6379,67.7328 522.6769,69.2978 L522.6769,59.1868 C526.7409,57.4158 533.6189,56.1648 539.7689,56.1648 C556.8619,56.1648 560.8229,63.6688 560.8229,74.7158 L560.8229,109.5258 L553.9429,109.5258 L552.0669,105.3578 C547.8979,108.7968 542.0629,110.7768 536.3299,110.7768 C522.8849,110.7768 518.4029,102.4408 518.4029,94.1018 C518.4029,82.8448 525.6989,78.0498 537.4759,77.1118 L549.1479,76.1758 L549.1479,73.5698 C549.1479,68.2538 546.6469,66.1698 538.9349,66.1698 L538.9349,66.1698 Z M538.2059,85.4518 C532.9939,86.0768 529.9719,88.0558 529.9719,93.4758 C529.9719,97.4358 531.6399,101.1888 537.9969,101.1888 C542.6879,101.1888 545.9179,99.8338 549.1479,97.7488 L549.1479,84.2008 L538.2059,85.4518 Z" id="Fill-35" fill="#000000"></path>
            <path d="M632.0031,72.7358 C632.0031,67.8368 629.1881,66.0658 624.6031,66.0658 C619.4961,66.0658 616.0571,67.6288 613.3471,69.2968 C613.5551,71.1728 613.6591,72.9438 613.6591,75.0278 L613.6591,109.5278 L601.9861,109.5278 L601.9861,72.7358 C601.9861,67.8368 599.2771,66.0658 594.5881,66.0658 C589.7911,66.0658 586.3531,67.5238 583.6441,69.0888 L583.6441,109.5278 L571.9701,109.5278 L571.9701,57.4158 L578.8491,57.4158 L580.7241,61.5838 C585.1021,58.1448 591.3561,56.1648 596.4621,56.1648 C603.4441,56.1648 607.6141,58.1448 609.8021,61.3748 C614.4931,58.0408 620.7461,56.1648 626.4791,56.1648 C638.7771,56.1648 643.6761,62.8358 643.6761,72.7358 L643.6761,109.5278 L632.0031,109.5278 L632.0031,72.7358 Z" id="Fill-37" fill="#000000"></path>
            <polygon id="Fill-39" fill="#000000" points="287.8405 203.0185 321.8175 203.0185 321.8175 213.7545 276.1675 213.7545 276.1675 135.5865 287.8405 135.5865"></polygon>
            <path d="M344.6378,170.3966 C337.8628,170.3966 332.3388,171.9596 328.3798,173.5246 L328.3798,163.4136 C332.4438,161.6426 339.3218,160.3916 345.4718,160.3916 C362.5648,160.3916 366.5258,167.8956 366.5258,178.9426 L366.5258,213.7526 L359.6458,213.7526 L357.7698,209.5846 C353.6008,213.0236 347.7658,215.0036 342.0328,215.0036 C328.5878,215.0036 324.1058,206.6676 324.1058,198.3286 C324.1058,187.0716 331.4018,182.2766 343.1788,181.3386 L354.8508,180.4026 L354.8508,177.7966 C354.8508,172.4806 352.3498,170.3966 344.6378,170.3966 L344.6378,170.3966 Z M343.9088,189.6786 C338.6968,190.3036 335.6748,192.2826 335.6748,197.7026 C335.6748,201.6626 337.3418,205.4156 343.6998,205.4156 C348.3908,205.4156 351.6208,204.0606 354.8508,201.9756 L354.8508,188.4276 L343.9088,189.6786 Z" id="Fill-41" fill="#000000"></path>
            <path d="M409.5656,213.7535 L409.5656,178.0055 C409.5656,172.6895 406.8546,170.2915 401.3306,170.2915 C395.9126,170.2915 392.1596,171.7515 389.3466,173.3145 L389.3466,213.7535 L377.6726,213.7535 L377.6726,161.6415 L384.5516,161.6415 L386.4266,165.8105 C391.7426,162.1625 397.6836,160.3915 403.3116,160.3915 C416.5486,160.3915 421.2376,166.9575 421.2376,176.9615 L421.2376,213.7535 L409.5656,213.7535 Z" id="Fill-43" fill="#000000"></path>
            <path d="M452.0834,199.9964 C449.8934,199.9964 447.8094,199.8924 446.0384,199.5794 C445.2044,200.4134 444.5794,201.5594 444.5794,202.6014 C444.5794,204.3744 445.5174,205.3124 447.7054,205.6244 L466.5704,207.9174 C476.8894,209.1674 480.5364,213.8564 480.5364,222.5084 C480.5364,235.9524 466.3614,241.0604 451.2494,241.0604 C437.2844,241.0604 427.1734,236.5784 427.1734,225.8444 C427.1734,218.7554 432.4894,214.5874 438.0134,212.9204 L438.0134,212.8164 C435.4084,211.3574 433.9494,208.4384 433.9494,205.6244 C433.9494,201.7674 436.2404,199.0574 438.6384,197.1814 C432.6974,193.8474 430.3014,187.8024 430.3014,180.1934 C430.3014,168.3124 436.1374,160.3914 452.0834,160.3914 C455.8364,160.3914 458.9624,160.8084 461.6714,161.6414 L479.7024,161.6414 L479.7024,169.0414 L472.3024,171.1254 C473.3444,173.8364 473.8654,176.8574 473.8654,180.1934 C473.8654,192.0744 468.0294,199.9964 452.0834,199.9964 L452.0834,199.9964 Z M448.4344,215.3164 C443.1204,216.2544 438.3264,218.6514 438.3264,223.6544 C438.3264,229.4914 442.4954,231.7834 452.0834,231.7834 C461.2564,231.7834 469.2794,229.0744 469.2794,222.8204 C469.2794,219.2784 467.5084,217.7154 463.2344,217.1924 L448.4344,215.3164 Z M452.0834,190.7214 C460.8374,190.7214 462.8194,186.1344 462.8194,180.1934 C462.8194,174.2534 460.8374,169.6664 452.0834,169.6664 C443.3294,169.6664 441.3474,174.2534 441.3474,180.1934 C441.3474,186.1344 443.3294,190.7214 452.0834,190.7214 L452.0834,190.7214 Z" id="Fill-45" fill="#000000"></path>
            <path d="M498.1467,161.642 L498.1467,197.39 C498.1467,202.706 500.8557,205.102 506.3797,205.102 C511.7997,205.102 515.5527,203.644 518.3647,202.081 L518.3647,161.642 L530.0397,161.642 L530.0397,213.754 L523.1587,213.754 L521.2837,209.585 C515.9677,213.231 510.0287,215.003 504.3997,215.003 C491.1637,215.003 486.4737,208.438 486.4737,198.432 L486.4737,161.642 L498.1467,161.642 Z" id="Fill-47" fill="#000000"></path>
            <path d="M558.0698,170.3966 C551.2948,170.3966 545.7708,171.9596 541.8118,173.5246 L541.8118,163.4136 C545.8748,161.6426 552.7538,160.3916 558.9038,160.3916 C575.9968,160.3916 579.9578,167.8956 579.9578,178.9426 L579.9578,213.7526 L573.0778,213.7526 L571.2018,209.5846 C567.0328,213.0236 561.1978,215.0036 555.4648,215.0036 C542.0198,215.0036 537.5378,206.6676 537.5378,198.3286 C537.5378,187.0716 544.8328,182.2766 556.6108,181.3386 L568.2828,180.4026 L568.2828,177.7966 C568.2828,172.4806 565.7818,170.3966 558.0698,170.3966 L558.0698,170.3966 Z M557.3408,189.6786 C552.1288,190.3036 549.1068,192.2826 549.1068,197.7026 C549.1068,201.6626 550.7748,205.4156 557.1318,205.4156 C561.8228,205.4156 565.0528,204.0606 568.2828,201.9756 L568.2828,188.4276 L557.3408,189.6786 Z" id="Fill-49" fill="#000000"></path>
            <path d="M610.9074,199.9964 C608.7194,199.9964 606.6334,199.8924 604.8624,199.5794 C604.0284,200.4134 603.4034,201.5594 603.4034,202.6014 C603.4034,204.3744 604.3414,205.3124 606.5294,205.6244 L625.3944,207.9174 C635.7134,209.1674 639.3604,213.8564 639.3604,222.5084 C639.3604,235.9524 625.1854,241.0604 610.0734,241.0604 C596.1084,241.0604 585.9974,236.5784 585.9974,225.8444 C585.9974,218.7554 591.3134,214.5874 596.8374,212.9204 L596.8374,212.8164 C594.2324,211.3574 592.7734,208.4384 592.7734,205.6244 C592.7734,201.7674 595.0644,199.0574 597.4624,197.1814 C591.5214,193.8474 589.1254,187.8024 589.1254,180.1934 C589.1254,168.3124 594.9614,160.3914 610.9074,160.3914 C614.6604,160.3914 617.7864,160.8084 620.4954,161.6414 L638.5264,161.6414 L638.5264,169.0414 L631.1264,171.1254 C632.1684,173.8364 632.6894,176.8574 632.6894,180.1934 C632.6894,192.0744 626.8524,199.9964 610.9074,199.9964 L610.9074,199.9964 Z M607.2584,215.3164 C601.9444,216.2544 597.1494,218.6514 597.1494,223.6544 C597.1494,229.4914 601.3194,231.7834 610.9074,231.7834 C620.0804,231.7834 628.1034,229.0744 628.1034,222.8204 C628.1034,219.2784 626.3314,217.7154 622.0594,217.1924 L607.2584,215.3164 Z M610.9074,190.7214 C619.6614,190.7214 621.6434,186.1344 621.6434,180.1934 C621.6434,174.2534 619.6614,169.6664 610.9074,169.6664 C602.1534,169.6664 600.1714,174.2534 600.1714,180.1934 C600.1714,186.1344 602.1534,190.7214 610.9074,190.7214 L610.9074,190.7214 Z" id="Fill-51" fill="#000000"></path>
            <path d="M667.3921,160.3912 C685.7341,160.3912 688.6531,172.4812 688.6531,186.8642 C688.6531,188.6352 688.5471,190.3022 688.4451,191.9712 L656.0311,191.9712 C656.2391,199.7882 659.0541,204.8932 669.6841,204.8932 C676.2501,204.8932 681.6701,203.7492 686.2571,201.7672 L686.2571,211.7722 C680.3161,214.2742 673.5411,215.0042 667.9131,215.0042 C650.5071,215.0042 644.2541,204.5812 644.2541,187.6972 C644.2541,170.9182 650.4031,160.3912 667.3921,160.3912 M656.0311,183.8422 L676.8761,183.8422 C676.8761,176.7532 676.4591,170.5022 667.3921,170.5022 C658.8441,170.5022 656.4481,176.0242 656.0311,183.8422" id="Fill-53" fill="#000000"></path>
            <path d="M697.3619,150.304 L700.6159,150.304 L703.6219,158.053 L706.5729,150.304 L709.8269,150.304 L709.8269,161.776 L707.7309,161.776 L707.7309,153.006 L707.6759,153.006 L704.4499,161.776 L702.7399,161.776 L699.5129,153.006 L699.4579,153.006 L699.4579,161.776 L697.3619,161.776 L697.3619,150.304 Z M689.0339,152.234 L685.5039,152.234 L685.5039,150.304 L694.6589,150.304 L694.6589,152.234 L691.1289,152.234 L691.1289,161.776 L689.0339,161.776 L689.0339,152.234 Z" id="Fill-55" fill="#000000"></path>
        </g>
    </g>
</svg>