<?xml version="1.0" encoding="utf-8"?>
<!-- Generator: Adobe Illustrator 18.0.0, SVG Export Plug-In . SVG Version: 6.00 Build 0)  -->
<!DOCTYPE svg PUBLIC "-//W3C//DTD SVG 1.1//EN" "http://www.w3.org/Graphics/SVG/1.1/DTD/svg11.dtd">
<svg version="1.1" id="Layer_1" xmlns="http://www.w3.org/2000/svg" xmlns:xlink="http://www.w3.org/1999/xlink" x="0px" y="0px"
	 viewBox="0 0 14 11.9" enable-background="new 0 0 14 11.9" xml:space="preserve">
<g>
	<path fill="#FFFFFF" d="M13.7,2.9c-0.2-0.3-0.6-0.6-1-0.6c-0.1,0-0.3,0-0.4,0c0.2-0.5,0.2-1.1-0.1-1.6c-0.2-0.4-0.6-0.6-1-0.6
		S10.3,0,10,0.3c-0.6,0.5-0.8,1.3-0.5,2L2.7,7.1l0,0l0,0C2.5,6.8,2.2,6.6,1.8,6.6C1.4,6.5,1,6.6,0.7,6.8C0,7.3-0.2,8.3,0.3,9
		c0.2,0.3,0.6,0.6,1,0.6c0.1,0,0.3,0,0.4,0c-0.2,0.5-0.2,1.1,0.1,1.6c0.2,0.4,0.6,0.6,1,0.6c0.4,0.1,0.8,0,1.2-0.3
		c0.6-0.5,0.8-1.3,0.5-2l6.8-4.8l0,0c0.2,0.3,0.6,0.4,0.9,0.5c0.4,0.1,0.8,0,1.2-0.3C14.1,4.6,14.2,3.6,13.7,2.9z"/>
	<g id="Capa_1_76_">
	</g>
</g>
</svg>
