<?xml version="1.0" encoding="utf-8"?>
<!-- Generator: Adobe Illustrator 18.0.0, SVG Export Plug-In . SVG Version: 6.00 Build 0)  -->
<!DOCTYPE svg PUBLIC "-//W3C//DTD SVG 1.1//EN" "http://www.w3.org/Graphics/SVG/1.1/DTD/svg11.dtd">
<svg version="1.1" id="Layer_1" xmlns="http://www.w3.org/2000/svg" xmlns:xlink="http://www.w3.org/1999/xlink" x="0px" y="0px"
	 viewBox="0 0 370.8 7.4" enable-background="new 0 0 370.8 7.4" xml:space="preserve">
<g>
	<polygon fill="#47A97D" points="10.5,7.4 3.8,7.4 7.3,0 	"/>
	<polygon fill="#47A97D" points="14.2,7.4 10.5,7.4 12.4,1.3 	"/>
	<polygon fill="#47A97D" points="3.8,7.4 0,7.4 2,1.3 	"/>
	<polygon fill="#47A97D" points="25.2,7.4 18.5,7.4 22,0 	"/>
	<polygon fill="#47A97D" points="29,7.4 25.2,7.4 27.2,1.3 	"/>
	<polygon fill="#47A97D" points="18.5,7.4 14.8,7.4 16.7,1.3 	"/>
	<polygon fill="#47A97D" points="39.1,7.4 32.4,7.4 35.9,0 	"/>
	<polygon fill="#47A97D" points="42.8,7.4 39.1,7.4 41,1.3 	"/>
	<polygon fill="#47A97D" points="32.4,7.4 28.6,7.4 30.6,1.3 	"/>
	<polygon fill="#47A97D" points="53.8,7.4 47.1,7.4 50.6,0 	"/>
	<polygon fill="#47A97D" points="57.6,7.4 53.8,7.4 55.8,1.3 	"/>
	<polygon fill="#47A97D" points="47.1,7.4 43.4,7.4 45.3,1.3 	"/>
	<polygon fill="#47A97D" points="68.1,7.4 61.4,7.4 64.9,0 	"/>
	<polygon fill="#47A97D" points="71.8,7.4 68.1,7.4 70,1.3 	"/>
	<polygon fill="#47A97D" points="61.4,7.4 57.6,7.4 59.6,1.3 	"/>
	<polygon fill="#47A97D" points="82.8,7.4 76.1,7.4 79.6,0 	"/>
	<polygon fill="#47A97D" points="86.6,7.4 82.8,7.4 84.8,1.3 	"/>
	<polygon fill="#47A97D" points="76.1,7.4 72.4,7.4 74.3,1.3 	"/>
	<polygon fill="#47A97D" points="96.7,7.4 90,7.4 93.5,0 	"/>
	<polygon fill="#47A97D" points="100.4,7.4 96.7,7.4 98.6,1.3 	"/>
	<polygon fill="#47A97D" points="90,7.4 86.2,7.4 88.2,1.3 	"/>
	<polygon fill="#47A97D" points="111.4,7.4 104.7,7.4 108.2,0 	"/>
	<polygon fill="#47A97D" points="115.2,7.4 111.4,7.4 113.4,1.3 	"/>
	<polygon fill="#47A97D" points="104.7,7.4 101,7.4 102.9,1.3 	"/>
	<polygon fill="#47A97D" points="125.7,7.4 119,7.4 122.5,0 	"/>
	<polygon fill="#47A97D" points="129.4,7.4 125.7,7.4 127.6,1.3 	"/>
	<polygon fill="#47A97D" points="119,7.4 115.2,7.4 117.2,1.3 	"/>
	<polygon fill="#47A97D" points="140.4,7.4 133.7,7.4 137.2,0 	"/>
	<polygon fill="#47A97D" points="144.2,7.4 140.4,7.4 142.4,1.3 	"/>
	<polygon fill="#47A97D" points="133.7,7.4 130,7.4 131.9,1.3 	"/>
	<polygon fill="#47A97D" points="154.3,7.4 147.6,7.4 151.1,0 	"/>
	<polygon fill="#47A97D" points="158,7.4 154.3,7.4 156.2,1.3 	"/>
	<polygon fill="#47A97D" points="147.6,7.4 143.8,7.4 145.8,1.3 	"/>
	<polygon fill="#47A97D" points="169,7.4 162.3,7.4 165.8,0 	"/>
	<polygon fill="#47A97D" points="172.8,7.4 169,7.4 171,1.3 	"/>
	<polygon fill="#47A97D" points="162.3,7.4 158.6,7.4 160.5,1.3 	"/>
	<polygon fill="#47A97D" points="183.3,7.4 176.6,7.4 180.1,0 	"/>
	<polygon fill="#47A97D" points="187,7.4 183.3,7.4 185.2,1.3 	"/>
	<polygon fill="#47A97D" points="176.6,7.4 172.8,7.4 174.8,1.3 	"/>
	<polygon fill="#47A97D" points="198,7.4 191.3,7.4 194.8,0 	"/>
	<polygon fill="#47A97D" points="201.8,7.4 198,7.4 200,1.3 	"/>
	<polygon fill="#47A97D" points="191.3,7.4 187.6,7.4 189.5,1.3 	"/>
	<polygon fill="#47A97D" points="211.8,7.4 205.2,7.4 208.7,0 	"/>
	<polygon fill="#47A97D" points="215.6,7.4 211.8,7.4 213.8,1.3 	"/>
	<polygon fill="#47A97D" points="205.2,7.4 201.4,7.4 203.4,1.3 	"/>
	<polygon fill="#47A97D" points="226.6,7.4 219.9,7.4 223.4,0 	"/>
	<polygon fill="#47A97D" points="230.4,7.4 226.6,7.4 228.6,1.3 	"/>
	<polygon fill="#47A97D" points="219.9,7.4 216.2,7.4 218.1,1.3 	"/>
	<g>
		<polygon fill="#47A97D" points="237.1,7.4 230.4,7.4 233.9,0 		"/>
		<polygon fill="#47A97D" points="240.9,7.4 237.1,7.4 239.1,1.3 		"/>
		<polygon fill="#47A97D" points="251.9,7.4 245.2,7.4 248.7,0 		"/>
		<polygon fill="#47A97D" points="255.6,7.4 251.9,7.4 253.8,1.3 		"/>
		<polygon fill="#47A97D" points="245.2,7.4 241.4,7.4 243.4,1.3 		"/>
		<polygon fill="#47A97D" points="265.7,7.4 259,7.4 262.5,0 		"/>
		<polygon fill="#47A97D" points="269.4,7.4 265.7,7.4 267.7,1.3 		"/>
		<polygon fill="#47A97D" points="259,7.4 255.2,7.4 257.2,1.3 		"/>
		<polygon fill="#47A97D" points="280.4,7.4 273.8,7.4 277.3,0 		"/>
		<polygon fill="#47A97D" points="284.2,7.4 280.4,7.4 282.4,1.3 		"/>
		<polygon fill="#47A97D" points="273.8,7.4 270,7.4 272,1.3 		"/>
		<polygon fill="#47A97D" points="294.7,7.4 288,7.4 291.5,0 		"/>
		<polygon fill="#47A97D" points="298.5,7.4 294.7,7.4 296.7,1.3 		"/>
		<polygon fill="#47A97D" points="288,7.4 284.2,7.4 286.2,1.3 		"/>
		<polygon fill="#47A97D" points="309.5,7.4 302.8,7.4 306.3,0 		"/>
		<polygon fill="#47A97D" points="313.2,7.4 309.5,7.4 311.4,1.3 		"/>
		<polygon fill="#47A97D" points="302.8,7.4 299,7.4 301,1.3 		"/>
		<polygon fill="#47A97D" points="323.3,7.4 316.6,7.4 320.1,0 		"/>
		<polygon fill="#47A97D" points="327,7.4 323.3,7.4 325.2,1.3 		"/>
		<polygon fill="#47A97D" points="316.6,7.4 312.8,7.4 314.8,1.3 		"/>
		<polygon fill="#47A97D" points="338,7.4 331.3,7.4 334.9,0 		"/>
		<polygon fill="#47A97D" points="341.8,7.4 338,7.4 340,1.3 		"/>
		<polygon fill="#47A97D" points="331.3,7.4 327.6,7.4 329.6,1.3 		"/>
		<polygon fill="#47A97D" points="352.3,7.4 345.6,7.4 349.1,0 		"/>
		<polygon fill="#47A97D" points="356.1,7.4 352.3,7.4 354.3,1.3 		"/>
		<polygon fill="#47A97D" points="345.6,7.4 341.8,7.4 343.8,1.3 		"/>
		<polygon fill="#47A97D" points="367.1,7.4 360.4,7.4 363.9,0 		"/>
		<polygon fill="#47A97D" points="370.8,7.4 367.1,7.4 369,1.3 		"/>
		<polygon fill="#47A97D" points="360.4,7.4 356.6,7.4 358.6,1.3 		"/>
	</g>
</g>
</svg>
