<?xml version="1.0" encoding="utf-8"?>
<!-- Generator: Adobe Illustrator 18.0.0, SVG Export Plug-In . SVG Version: 6.00 Build 0)  -->
<!DOCTYPE svg PUBLIC "-//W3C//DTD SVG 1.1//EN" "http://www.w3.org/Graphics/SVG/1.1/DTD/svg11.dtd">
<svg version="1.1" id="Layer_1" xmlns="http://www.w3.org/2000/svg" xmlns:xlink="http://www.w3.org/1999/xlink" x="0px" y="0px"
	 viewBox="0 0 572.2 263.5" enable-background="new 0 0 572.2 263.5" xml:space="preserve">
<polygon fill="#1B4A45" points="479.7,72.7 460.5,2.4 456.4,18.7 452.3,7.9 449.2,17.2 442.3,0 437.4,20.1 430.8,10.1 407.6,72.7 
	"/>
<path fill="#153E39" d="M445.8,72.3l-9.6-42.1c0,0-2.6,16.2-2.6,15.7c0-0.3-4.9-17.6-7.2-25.7c-0.7-2.5-1.2-4.1-1.2-4.1l-1.7,4.8
	l-8.4,23.6l-8-8.7L402,49.9l-5.5-5.2l-7.2,31.6l0,0.1L445.8,72.3z"/>
<polygon fill="#2C887D" points="484,77.6 471.9,39.1 471.1,41 467.1,50.3 459,30.7 452.4,54.1 448.7,45.1 443.2,59.4 443.1,59.5 
	436.2,47.2 432.7,59.5 427.3,47.6 421.4,63.8 416.9,45.1 410.6,69.5 407.8,61.5 404.1,76.7 400.3,61.6 396.4,83.6 395.3,89.4 
	469.9,89.4 "/>
<path fill="#47A97D" d="M572.2,99.4c0,0-35.7-30.3-125.9-30.3C250.6,69,0,209.7,0,209.7v53.8h572.2V99.4z"/>
<path fill="#288279" d="M461.7,77.1c0,0-1.3-4.3-5.8-4.4s-5,6-5,6s-1.7-2.3-3.7-1.3c-2,1.1-3.1,4.2-3.1,4.2s-3-2.1-5.2,1.8h35.4
	c0,0-2.8-4.6-7.1-2.5C467.2,81,466.4,76.8,461.7,77.1z"/>
<path fill="#288279" d="M366.6,97.8c0,0-1.1-3.4-4.7-3.6c-3.7-0.1-4,4.8-4,4.8s-1.4-1.9-3-1c-1.6,0.9-2.5,3.4-2.5,3.4
	s-2.4-1.7-4.2,1.5h28.6c0,0-2.3-3.7-5.7-2C371.1,100.9,370.4,97.6,366.6,97.8z"/>
</svg>
