<?xml version="1.0" encoding="utf-8"?>
<!-- Generator: Adobe Illustrator 18.0.0, SVG Export Plug-In . SVG Version: 6.00 Build 0)  -->
<!DOCTYPE svg PUBLIC "-//W3C//DTD SVG 1.1//EN" "http://www.w3.org/Graphics/SVG/1.1/DTD/svg11.dtd">
<svg version="1.1" id="Layer_1" xmlns="http://www.w3.org/2000/svg" xmlns:xlink="http://www.w3.org/1999/xlink" x="0px" y="0px"
	 viewBox="0 0 71.6 81.9" enable-background="new 0 0 71.6 81.9" xml:space="preserve">
<g>
	<path fill="#DE303F" d="M66.4,26.6l3.1-0.9c-0.1-0.3-0.1-0.5-0.2-0.8l-2.6,0.8C66.6,26,66.5,26.3,66.4,26.6z"/>
	<path fill="#DE303F" d="M65.8,28.2c-1.9,0-4,1-5.7,2.9l1.1-0.3l1,0.5l-3,0.9c-0.3,0.3-0.5,0.7-0.7,1l4.7-1.4l1,0.5l-6.3,1.8
		c-0.2,0.3-0.3,0.6-0.5,1l7.8-2.3l1,0.5l-9.2,2.7c-0.1,0.3-0.2,0.6-0.4,0.9l10.5-3.1l1,0.5l-11.8,3.5c-1.8,6-0.3,11.8,3.5,13.1
		c0.5,0.2,1,0.2,1.5,0.3l3.4-1c0.6-0.4,1.2-0.8,1.8-1.4l-5.9,1.7l0.5-1l6.5-1.9c0.3-0.3,0.6-0.7,0.8-1.1l-6.7,2l0.5-1l6.9-2
		c0.1-0.1,0.2-0.3,0.2-0.4L68.6,45l-6,1.8l0.5-1l4.6-1.3l0,0l-0.1,0l-1-0.5l-3,0.9l0.5-1l1.5-0.4l0,0l-0.1,0l-1-0.5l0.1,0l0.5-1
		l-1.6,0.5l-1-0.5l3.1-0.9l0.5-1l-4.6,1.3l-1-0.5l6.1-1.8l0.5-1l-7.6,2.2l-1-0.5L68,37l0.5-1l-10.6,3.1l-1-0.5L69,35l1,0.5l1.5-0.4
		c0-0.3-0.1-0.5-0.1-0.8L69.1,35l0.5-1l1.7-0.5c-0.1-0.3-0.1-0.5-0.2-0.8L70.1,33l0.5-1l0.1,0c-0.3-0.7-0.7-1.4-1.1-1.9
		c0-0.1,0-0.2,0-0.4l-0.4,0.1l-1-0.5l1.4-0.4c0-0.3,0-0.5,0-0.8l-2.4,0.7l-1-0.5l3.3-1c0-0.3-0.1-0.5-0.1-0.8l-3.5,1
		C66,27.8,65.9,28,65.8,28.2z"/>
	<path fill="#DE303F" d="M67.6,23.8L66.9,24c0,0.3-0.1,0.6-0.1,0.9l1.7-0.5l0.6,0.4c-0.4-1.3-1.2-2.8-2.3-4.2c0,0,0.2,1.2,0.1,2.9
		L67.6,23.8z"/>
	<path fill="#DE303F" d="M71.6,36.4c0-0.2,0-0.3,0-0.5L71,36.1L71.6,36.4z"/>
	<path fill="#CAB24D" d="M66.8,24.9c0,0.3-0.1,0.6-0.2,0.9l2.6-0.8c0-0.1-0.1-0.2-0.1-0.3l-0.6-0.4L66.8,24.9z"/>
	<path fill="#CAB24D" d="M67,23.5c0,0.2,0,0.3,0,0.5l0.6-0.2L67,23.5z"/>
	<path fill="#CAB24D" d="M69.3,29.9l0.4-0.1c0-0.3,0-0.5,0.1-0.8l-1.4,0.4L69.3,29.9z"/>
	<path fill="#CAB24D" d="M67.4,28.8l2.4-0.7c0-0.3,0-0.5-0.1-0.8l-3.3,1L67.4,28.8z"/>
	<path fill="#CAB24D" d="M66.1,27.5l3.5-1c0-0.3-0.1-0.5-0.2-0.8l-3.1,0.9C66.3,26.9,66.2,27.2,66.1,27.5z"/>
	<path fill="#772C2E" d="M64.6,50.3l-3.4,1C62.3,51.3,63.5,50.9,64.6,50.3z"/>
	<path fill="#772C2E" d="M69.1,35l2.4-0.7c0-0.3-0.1-0.5-0.2-0.8L69.6,34L69.1,35z"/>
	<path fill="#772C2E" d="M70.1,33l0.9-0.3c-0.1-0.3-0.2-0.5-0.3-0.7l-0.1,0L70.1,33z"/>
	<path fill="#772C2E" d="M65.1,32.9l-7.8,2.3c-0.1,0.3-0.3,0.6-0.4,0.9l9.2-2.7L65.1,32.9z"/>
	<path fill="#772C2E" d="M67.1,33.9L56.5,37c0,0.1-0.1,0.2-0.1,0.3c-0.1,0.2-0.1,0.4-0.2,0.6L68,34.5L67.1,33.9z"/>
	<path fill="#772C2E" d="M61.2,30.7L60.1,31c-0.3,0.3-0.6,0.7-0.9,1.1l3-0.9L61.2,30.7z"/>
	<path fill="#772C2E" d="M63.1,31.8l-4.7,1.4c-0.2,0.3-0.4,0.7-0.6,1l6.3-1.8L63.1,31.8z"/>
	<path fill="#772C2E" d="M61.6,48.7l6.7-2c0.2-0.3,0.4-0.7,0.7-1l-6.9,2L61.6,48.7z"/>
	<path fill="#772C2E" d="M69,35l-12.1,3.5l1,0.5L68.5,36L68,37l-9.1,2.7l1,0.5l7.6-2.2l-0.5,1l-6.1,1.8l1,0.5l4.6-1.3l-0.5,1
		l-3.1,0.9l1,0.5l1.6-0.5l-0.5,1l-0.1,0l1,0.5l0.1,0l0,0l-1.5,0.4l-0.5,1l3-0.9l1,0.5l0.1,0l0,0l-4.6,1.3l-0.5,1l6-1.8l0.6,0.3
		c0.5-1,1-2,1.4-3.2c0.7-2,1-3.9,1-5.7L71,36.1l0.6-0.2c0-0.3,0-0.5-0.1-0.8L70,35.6L69,35z"/>
	<path fill="#772C2E" d="M60.5,50.7l5.9-1.7c0.4-0.3,0.7-0.7,1.1-1.1L61,49.7L60.5,50.7z"/>
	<g>
		<path fill="#DE303F" d="M54.3,27l0.7-0.2c0.1-0.3,0.1-0.6,0.2-0.9l-1.8,0.5L54.3,27z"/>
		<path fill="#DE303F" d="M49.1,34.3L49.1,34.3L49.1,34.3l-4.7,1.4c0.4,0.2,0.7,0.4,1.1,0.5l4.5-1.3L49.1,34.3z"/>
		<path fill="#DE303F" d="M52.4,25.9l2.9-0.8c0-0.3,0.1-0.6,0.1-0.8l-4,1.2L52.4,25.9z"/>
		<path fill="#DE303F" d="M48.4,26.2L48.4,26.2l0.5-0.9L39.7,28c0.1,0.3,0.1,0.5,0.2,0.8L48.4,26.2L48.4,26.2z"/>
		<path fill="#DE303F" d="M47.8,33.6l-0.7-0.4h0l0,0l-3,0.9l0.5-1l1.5-0.4l-1-0.5l0,0l0,0l0.5-1l-1.5,0.4l-1-0.5l3-0.9l0,0l0,0
			l0.5-1l-4.5,1.3l-1-0.5l6.1-1.8l0,0l0,0l0.5-1l-7.5,2.2l-0.1-0.1c0.8,2.5,2,4.4,3.5,5.7l4.5-1.3L47.8,33.6z"/>
		<path fill="#DE303F" d="M47,1.9c-0.1-0.1-0.2-0.3-0.4-0.4l-0.3,0.6L47,1.9z"/>
		<path fill="#DE303F" d="M47,7.7l-0.7,0.2c0,0.3,0,0.5,0,0.8l1.8-0.5l-0.5,1l-3.4,1c-0.2,0.2-0.4,0.3-0.6,0.5l0.6,0.3l2.9-0.8
			l-0.5,1l-1.4,0.4L46,12l-0.5,1l1.5-0.4l1,0.5L45,14l-0.5,1l4.5-1.3l1,0.5l-6.1,1.8l-0.9-0.5l-2.7,0.8c-0.1,0.3-0.2,0.6-0.3,0.9
			l3.8-1.1l-0.5,1l-3.5,1c-0.1,0.3-0.1,0.6-0.2,0.9l3.1-0.9l-0.5,1l-2.7,0.8c0,0.3-0.1,0.6-0.1,0.9l2.3-0.7L41.6,20l0,0l1,0.5
			L41.1,21l0.1-0.1l-1.8,0.5c0,0.3,0,0.6,0,0.8l1.3-0.4l-0.5,1l-0.8,0.2c0,0.3,0,0.5,0,0.8l0.3-0.1l-0.3,0.5l0,0l0.2-0.4l6.1-1.8
			l1,0.5l-7.2,2.1c0,0.3,0,0.5,0.1,0.8l8.1-2.4l1,0.5l-9,2.6c0,0.3,0.1,0.5,0.1,0.8l9.9-2.9l1,0.5l5-1.5c0-0.2,0-0.3,0-0.5
			c0-0.1,0-0.2,0-0.3l-6,1.8l0.5-1l4.8-1.4l-0.1-0.1l0.8-0.2c0-0.3,0-0.5,0-0.8l-1.7,0.5l0.1,0.1l-3.3,1l0.5-1l1.8-0.5l0.8,0.5
			l-0.9-0.5l2.6-0.8c0-0.3-0.1-0.5-0.1-0.8l-3.5,1l-1-0.5l4.4-1.3c0-0.3-0.1-0.5-0.1-0.8l-5.2,1.5l-1-0.5l6-1.8
			c-0.1-0.2-0.1-0.5-0.2-0.7L54,16.4l-0.1-0.1l-6.1,1.8l-1-0.5l6.1-1.8l0.9,0.5l0,0l0.4-0.8l0.2,0c-0.7-2.1-1.8-3.9-3.1-5
			c-0.1-0.2-0.1-0.4-0.2-0.6l-0.2,0l-1-0.5l0.9-0.3c-0.1-0.2-0.2-0.5-0.3-0.7L49,8.8l-1-0.5l2.3-0.7c-0.1-0.2-0.2-0.5-0.3-0.7
			l-3,0.9L47,7.7z M40,23l0.5-1l3.1-0.9l1,0.5L40,23z M50.9,14.7l1,0.5L45.8,17l-1-0.5L50.9,14.7z"/>
		<path fill="#DE303F" d="M49.4,35.8l-1.9,0.6C48.1,36.3,48.8,36.1,49.4,35.8z"/>
		<path fill="#DE303F" d="M45.6,3.4c0,0.2,0.1,0.4,0.1,0.5l2.3-0.7c-0.1-0.2-0.3-0.4-0.4-0.6l-1.9,0.6L45.6,3.4z"/>
		<path fill="#DE303F" d="M46,5.5l2.9-0.9c-0.1-0.2-0.2-0.4-0.4-0.6l-2.7,0.8C45.9,5,46,5.3,46,5.5z"/>
		<path fill="#DE303F" d="M46.2,7.1l3-0.9l-0.1,0.1l0.6-0.2c-0.1-0.2-0.2-0.5-0.4-0.7l-3.3,0.9C46.1,6.6,46.2,6.8,46.2,7.1z"/>
		<path fill="#DE303F" d="M41,14.4c-0.1,0.3-0.3,0.6-0.4,0.9l1.4-0.4L41,14.4z"/>
		<path fill="#116843" d="M45.1,32.1L45.1,32.1L45.1,32.1l9.1-2.6c0.1-0.3,0.2-0.6,0.3-0.9l-8.9,2.6L45.1,32.1z"/>
		<path fill="#116843" d="M46.1,32.7l-1.5,0.4l-0.5,1l3-0.9l0,0l6.3-1.8c0.2-0.3,0.3-0.6,0.4-1L46.1,32.7L46.1,32.7z"/>
		<path fill="#116843" d="M47.8,33.6l0.3,0.1L43.6,35c0.3,0.2,0.5,0.4,0.8,0.6l4.7-1.4l0,0l3.1-0.9c0.2-0.3,0.5-0.7,0.7-1l-4.8,1.4
			L47.8,33.6z"/>
		<path fill="#116843" d="M50,34.8l-4.5,1.3c0.5,0.2,0.9,0.2,1.4,0.3c0.2,0,0.4,0,0.6,0l1.9-0.6c0.6-0.3,1.3-0.8,1.8-1.3L50,34.8
			L50,34.8z"/>
		<path fill="#116843" d="M49.5,24.3l1,0.5l-1.6,0.5l-0.5,1l0,0l0,0l3-0.9l1,0.5l-4.6,1.3l-0.5,1l0,0l0,0l6.1-1.8l1,0.5l-7.6,2.2
			l-0.5,1l0,0l0,0l8.5-2.5c0.1-0.3,0.1-0.6,0.2-0.9L54.3,27l-1-0.5l1.8-0.5c0-0.3,0.1-0.6,0.1-0.9l-2.9,0.8l-1-0.5l4-1.2
			c0-0.3,0-0.6,0.1-0.8l-5,1.5L49.5,24.3z"/>
		<path fill="#116843" d="M50,23.3l-0.5,1l6-1.8c0-0.1,0-0.2,0-0.3l-0.7-0.4L50,23.3z"/>
		<polygon fill="#116843" points="53.6,21.3 52.8,20.8 51,21.4 50.5,22.3 53.8,21.4 53.7,21.3 53.7,21.3 		"/>
		<path fill="#116843" d="M49,8.8l1.6-0.5c-0.1-0.2-0.2-0.5-0.3-0.7l-2.3,0.7L49,8.8z"/>
		<path fill="#116843" d="M51,9.9l0.2,0c-0.1-0.2-0.2-0.5-0.2-0.7L50,9.3L51,9.9z"/>
		<path fill="#116843" d="M53.8,16.3L53.8,16.3L53.8,16.3L53.8,16.3l0.2,0.1l0.7-0.2c-0.1-0.3-0.2-0.5-0.2-0.8l-0.2,0L53.8,16.3z"/>
		<path fill="#116843" d="M46.1,6.4l3.3-0.9c0,0,0-0.1,0-0.1L46.1,6.4C46.1,6.3,46.1,6.3,46.1,6.4z"/>
		<path fill="#116843" d="M48.6,7.2L47,7.7l0.1,0.1l3-0.9c-0.1-0.2-0.2-0.5-0.3-0.7l-0.6,0.2L48.6,7.2z"/>
		<path fill="#116843" d="M46.3,2.2l-0.8,0.2c0.1,0.2,0.1,0.5,0.2,0.8l0.2,0l0,0l1.9-0.6c0,0,0-0.1-0.1-0.1l-1.8,0.5L46.3,2.2z"/>
		<path fill="#116843" d="M45.8,0.7l-0.7,0.2c0.1,0.2,0.1,0.5,0.2,0.8l1.2-0.3C46.2,1.1,46,0.9,45.8,0.7z"/>
		<path fill="#116843" d="M44.9,0c0,0,0,0,0,0.1l0.1,0C45,0.1,44.9,0,44.9,0z"/>
		<path fill="#116843" d="M45.9,4.8L48.6,4c0,0,0-0.1,0-0.1L45.9,4.8C45.9,4.7,45.9,4.8,45.9,4.8z"/>
		<path fill="#CAB24D" d="M46.3,2.1L46.3,2.1L46.3,2.1l-0.6,1l1.8-0.5c-0.2-0.2-0.4-0.4-0.5-0.7L46.3,2.1z"/>
		<path fill="#CAB24D" d="M45.9,4.7l2.6-0.8c-0.1-0.2-0.3-0.5-0.5-0.7l-2.3,0.7C45.8,4.2,45.8,4.4,45.9,4.7z"/>
		<path fill="#CAB24D" d="M46.1,6.3l3.2-0.9c-0.1-0.2-0.3-0.5-0.4-0.7L46,5.5C46,5.8,46.1,6,46.1,6.3z"/>
		<path fill="#CAB24D" d="M48.6,7.2l0.5-0.9l0.1-0.1l-3,0.9c0,0.3,0.1,0.5,0.1,0.8L47,7.7L48.6,7.2z"/>
		<path fill="#CAB24D" d="M39.2,23.9c0,0.1,0,0.3,0,0.4l0.3-0.5L39.2,23.9z"/>
		<path fill="#CAB24D" d="M43.8,16L40,17.1c-0.1,0.3-0.2,0.6-0.2,0.9l3.5-1L43.8,16z"/>
		<path fill="#CAB24D" d="M42.7,18l-3.1,0.9c-0.1,0.3-0.1,0.6-0.1,0.9l2.7-0.8L42.7,18z"/>
		<path fill="#CAB24D" d="M41.6,20L41.6,20l0.1-0.1l-2.3,0.7c0,0.3-0.1,0.6-0.1,0.8l1.8-0.5L41.6,20z"/>
		<path fill="#CAB24D" d="M40.6,21.9l-1.3,0.4c0,0,0,0.1,0,0.1c0,0.2,0,0.5,0,0.7l0.8-0.2L40.6,21.9z"/>
		<path fill="#CAB24D" d="M48.1,8.2l-1.8,0.5c0,0.1,0,0.2,0,0.3c-0.8,0.2-1.5,0.6-2.2,1.1l3.4-1L48.1,8.2z"/>
		<path fill="#CAB24D" d="M43.9,15.9l6.1-1.8l-1-0.5L44.4,15l0.5-1l3-0.9l-1-0.5L45.5,13l0.5-1l-0.9-0.5l1.4-0.4l0.5-1L44.1,11
			l-0.6-0.3c-1,0.9-1.8,2.2-2.5,3.7l1,0.5l-1.4,0.4c-0.1,0.3-0.2,0.6-0.3,0.9l2.7-0.8L43.9,15.9z"/>
		<polygon fill="#CAB24D" points="53.8,16.3 52.9,15.8 46.8,17.5 47.8,18.1 53.9,16.3 53.9,16.3 		"/>
		<polygon fill="#CAB24D" points="45.8,17 51.9,15.2 50.9,14.7 44.9,16.5 		"/>
		<path fill="#CAB24D" d="M54.8,21.9l0.7,0.4c0-0.2,0-0.4,0-0.7l-0.8,0.2L54.8,21.9z"/>
		<path fill="#CAB24D" d="M53.6,21.3L53.6,21.3L53.6,21.3l1.8-0.5c0-0.3,0-0.5-0.1-0.8l-2.6,0.8L53.6,21.3z"/>
		<path fill="#CAB24D" d="M51.7,20.2l3.5-1c0-0.3-0.1-0.5-0.1-0.8l-4.4,1.3L51.7,20.2z"/>
		<path fill="#CAB24D" d="M49.8,19.2l5.2-1.5c-0.1-0.3-0.1-0.5-0.2-0.8l-6,1.8L49.8,19.2z"/>
		<path fill="#772C2E" d="M50.4,24.8l-1-0.5l-9.9,2.9c0,0.3,0.1,0.5,0.2,0.8l9.1-2.7L50.4,24.8z"/>
		<path fill="#772C2E" d="M47.8,27.2l4.6-1.3l-1-0.5l-3,0.9l-8.4,2.5c0.1,0.2,0.1,0.4,0.2,0.6l0.1,0.1L47.8,27.2z"/>
		<polygon fill="#772C2E" points="42.2,30.5 46.7,29.2 54.3,27 53.4,26.4 47.3,28.2 41.3,30 		"/>
		<path fill="#772C2E" d="M43.2,31.1l1,0.5l1.5-0.4l8.9-2.6c0.1-0.3,0.2-0.6,0.2-0.9l-8.5,2.5L43.2,31.1z"/>
		<path fill="#772C2E" d="M45.5,22.2l-6.1,1.8l-0.2,0.4c0,0.2,0,0.3,0,0.5l7.2-2.1L45.5,22.2z"/>
		<path fill="#772C2E" d="M47.5,23.2l-8.1,2.4c0,0.3,0.1,0.5,0.1,0.8l9-2.6L47.5,23.2z"/>
		<polygon fill="#772C2E" points="40.5,22 40,23 44.6,21.6 43.6,21.1 		"/>
		<polygon fill="#772C2E" points="41.1,20.9 41.1,21 42.6,20.5 41.6,20 41.6,20 41.6,20 		"/>
		<path fill="#772C2E" d="M45.8,3.2l-0.2,0c0,0.1,0,0.1,0,0.2L45.8,3.2L45.8,3.2z"/>
		<path fill="#772C2E" d="M46.3,2.2L46.3,2.2l0.4-0.7c-0.1-0.1-0.1-0.1-0.2-0.2l-1.2,0.3c0.1,0.2,0.1,0.5,0.2,0.8L46.3,2.2L46.3,2.2
			z"/>
		<path fill="#772C2E" d="M45,0.1L45,0.1c-0.1,0.2,0,0.4,0.1,0.8l0.7-0.2C45.5,0.5,45.3,0.3,45,0.1z"/>
		<path fill="#772C2E" d="M46.1,32.7L46.1,32.7l7.7-2.2c0.1-0.3,0.2-0.6,0.4-0.9l-9.1,2.6L46.1,32.7z"/>
		<path fill="#772C2E" d="M47.1,33.2l0.7,0.4l0.3,0.1l4.8-1.4c0.2-0.3,0.4-0.6,0.5-1L47.1,33.2L47.1,33.2z"/>
		<path fill="#772C2E" d="M49.1,34.3l1,0.5l0,0l1.2-0.3c0.3-0.3,0.7-0.7,1-1.1L49.1,34.3L49.1,34.3z"/>
	</g>
	<g>
		<path fill="#DE303F" d="M24.5,0.2l-0.3,0.1c-0.5,0.4-0.9,0.8-1.3,1.2l1.4-0.4C24.5,0.4,24.6,0,24.6,0c-0.1,0.1-0.1,0.1-0.2,0.2
			L24.5,0.2z"/>
		<path fill="#DE303F" d="M19.4,8.4l0.7-0.2l1,0.5l-1.8,0.5c0,0.4-0.1,0.7-0.1,0.8l2.8-0.8l1,0.5l-4.6,1.3c-0.3,0.3-0.5,0.7-0.7,1
			l6.3-1.8l1,0.5l-7.8,2.3c-0.1,0.3-0.3,0.6-0.4,0.9l9.2-2.7l1,0.5L16.5,15c-0.1,0.3-0.2,0.6-0.2,0.9l11.7-3.4l1,0.5l-12.1,3.5
			l-0.6-0.3c-0.5,2.3-0.5,5.1,0.1,7.9c0.6,3.1,1.9,5.9,3.4,7.9l12.1-3.5l-0.5,0.9l1.2-0.3c0.1-0.3,0.1-0.6,0.2-0.9l-0.8,0.2l0.5-0.9
			l-12.1,3.5l0.5-1l12-3.5c0-0.3,0-0.6,0-0.8l-11.5,3.4l0.5-1l10.5-3.1l-1-0.5l-9,2.6l0.5-1l7.5-2.2l-1-0.5l-6,1.8l0.5-1l4.5-1.3
			l-1-0.5l-3,0.9l0.5-1l1.5-0.4l-0.9-0.5l0,0l0,0l0.5-0.9l-1.5,0.4l-1-0.5l3-0.9l0,0l0,0l0.5-0.9l-4.5,1.3l-1-0.5l6.1-1.8l0,0l0,0
			l0.5-0.9l-7.6,2.2l-1-0.5l9.1-2.7l0,0l0,0l0.5-0.9l-10.6,3.1l-1-0.5l11.7-3.4C28,11.4,26,9.8,24,9.2c0,0,0,0,0,0
			c-0.2-1.6-0.3-3-0.2-4.3l-0.5-0.3l0.5-0.1c0-0.3,0-0.6,0.1-0.8l-1.5,0.4l-1-0.5L24,2.8c0-0.3,0.1-0.6,0.1-0.9L22,2.6
			C20.3,4.7,19.7,6.9,19.4,8.4z"/>
		<path fill="#DE303F" d="M32.8,27.5c0-0.2,0-0.5,0.1-0.7l-0.4,0.8L32.8,27.5z"/>
		<path fill="#DE303F" d="M31.3,29.6l-11,3.2c0.2,0.2,0.4,0.4,0.6,0.6l9.9-2.9l-0.5,0.9l1.7-0.5c0.1-0.3,0.2-0.6,0.3-0.9l-1.5,0.4
			L31.3,29.6z"/>
		<path fill="#DE303F" d="M30.2,31.5l-8.7,2.5c0.2,0.2,0.5,0.4,0.8,0.6l7.4-2.2l-0.5,0.9l1.9-0.5c0.2-0.3,0.4-0.6,0.5-1l-1.9,0.5
			L30.2,31.5z"/>
		<path fill="#DE303F" d="M26.1,36c0.3,0,0.7,0,1-0.1c0.3-0.1,0.6-0.1,0.8-0.2l0.1-0.2L26.1,36z"/>
		<path fill="#DE303F" d="M29.1,33.5l-5.9,1.7c0.4,0.2,0.8,0.4,1.1,0.5l4.3-1.3l-0.5,0.9l0.8-0.2c0.5-0.3,1-0.7,1.4-1.2l-1.7,0.5
			L29.1,33.5z"/>
		<path fill="#CAB24D" d="M29.1,33.5L29.1,33.5l-0.5,0.9l1.7-0.5c0.3-0.3,0.5-0.7,0.7-1L29.1,33.5L29.1,33.5z"/>
		<path fill="#CAB24D" d="M28.1,35.4L28.1,35.4l-0.1,0.2c0.3-0.1,0.7-0.3,1-0.5L28.1,35.4L28.1,35.4z"/>
		<path fill="#CAB24D" d="M32.4,27.6L32.4,27.6l-0.5,0.9l0.8-0.2c0-0.3,0.1-0.6,0.1-0.9L32.4,27.6L32.4,27.6z"/>
		<path fill="#CAB24D" d="M31.3,29.6L31.3,29.6l-0.5,0.9l1.5-0.4c0.1-0.3,0.2-0.6,0.2-0.9L31.3,29.6L31.3,29.6z"/>
		<path fill="#CAB24D" d="M30.2,31.5L30.2,31.5l-0.5,0.9l1.9-0.5c0.1-0.3,0.3-0.6,0.4-0.9L30.2,31.5L30.2,31.5z"/>
		<path fill="#CAB24D" d="M23.8,4.9c0-0.1,0-0.3,0-0.4l-0.5,0.1L23.8,4.9z"/>
		<path fill="#CAB24D" d="M22.3,4.1l1.5-0.4c0-0.3,0.1-0.6,0.1-0.9l-2.6,0.8L22.3,4.1z"/>
		<path fill="#CAB24D" d="M22,2.6L24.1,2c0.1-0.3,0.1-0.6,0.2-0.9l-1.4,0.4C22.5,1.9,22.2,2.2,22,2.6z"/>
		<path fill="#CAB24D" d="M24.4,0.2c-0.1,0-0.1,0.1-0.2,0.1l0.3-0.1L24.4,0.2z"/>
		<path fill="#772C2E" d="M26,11.4l-9.2,2.7c-0.1,0.3-0.2,0.6-0.3,0.9L26.9,12L26,11.4z"/>
		<path fill="#772C2E" d="M28.9,13l-1-0.5l-11.7,3.4c0,0.1,0,0.2-0.1,0.3l0.6,0.3L28.9,13z"/>
		<path fill="#772C2E" d="M18.7,17.7l10.6-3.1l-0.5,0.9l0,0l0,0l-9.1,2.7l1,0.5l7.6-2.2l-0.5,0.9l0,0l0,0l-6.1,1.8l1,0.5l4.5-1.3
			l-0.5,0.9l0,0l0,0l-3,0.9l1,0.5l1.5-0.4l-0.5,0.9l0,0l0,0l0.9,0.5l-1.5,0.4l-0.5,1l3-0.9l1,0.5L24,24.3l-0.5,1l6-1.8l1,0.5
			l-7.5,2.2l-0.5,1l9-2.6l1,0.5l-10.5,3.1l-0.5,1l11.5-3.4c0-1.6-0.1-3.2-0.4-4.9c-0.6-2.8-1.6-5.2-2.9-7.2l-11.7,3.4L18.7,17.7z"/>
		<path fill="#772C2E" d="M31.3,29.6L31.3,29.6l0.5-1l-12.1,3.5c0.2,0.2,0.4,0.5,0.5,0.7L31.3,29.6L31.3,29.6z"/>
		<path fill="#772C2E" d="M20.2,31.2l12.1-3.5l0,0l0-0.1l0.4-0.8c0,0,0-0.1,0-0.1l-12,3.5L20.2,31.2z"/>
		<path fill="#772C2E" d="M28.1,35.4L28.1,35.4l0.5-1l-4.3,1.3c0.6,0.2,1.2,0.3,1.8,0.3L28.1,35.4L28.1,35.4z"/>
		<path fill="#772C2E" d="M29.1,33.5L29.1,33.5l0.5-1l-7.4,2.2c0.3,0.2,0.6,0.4,0.9,0.6L29.1,33.5L29.1,33.5z"/>
		<path fill="#772C2E" d="M30.2,31.5L30.2,31.5l0.5-1l-9.9,2.9c0.2,0.2,0.4,0.4,0.7,0.6L30.2,31.5L30.2,31.5z"/>
		<path fill="#772C2E" d="M20.1,8.2l-0.7,0.2c-0.1,0.3-0.1,0.6-0.1,0.9l1.8-0.5L20.1,8.2z"/>
		<path fill="#772C2E" d="M22.1,9.3l-2.8,0.8c0,0,0,0,0,0l0,0.2c-0.3,0.3-0.6,0.5-0.9,0.9L23,9.8L22.1,9.3z"/>
		<path fill="#772C2E" d="M24,10.4l-6.3,1.8c-0.2,0.3-0.4,0.6-0.5,1l7.8-2.3L24,10.4z"/>
	</g>
	<g>
		<path fill="#DE303F" d="M61.8,66.6l2.8-0.8c0-0.3-0.1-0.5-0.1-0.8l-2.1,0.6L61.8,66.6z"/>
		<path fill="#DE303F" d="M46,77.1l-5.6,1.6c0.3,0.2,0.6,0.4,1,0.5l4.1-1.2L46,77.1z"/>
		<path fill="#DE303F" d="M62.9,64.7L62.9,64.7L62.9,64.7L62.7,65L62.9,64.7l1.5-0.5c-0.1-0.3-0.1-0.5-0.2-0.8l-0.7,0.2L62.9,64.7z"
			/>
		<path fill="#DE303F" d="M53.6,81.7c1.2-0.2,2.5-0.7,3.6-1.4l-3.4,1L53.6,81.7z"/>
		<path fill="#DE303F" d="M44.9,79l-2.6,0.8c0.3,0.2,0.7,0.3,1,0.5l1-0.3L44.9,79z"/>
		<path fill="#DE303F" d="M8.7,63c0,0.1-0.1,0.2-0.1,0.3L9,63.2L8.7,63z"/>
		<path fill="#DE303F" d="M42.3,56l10.6-3.1c-0.1-0.2-0.3-0.5-0.4-0.7L42.8,55L42.3,56z"/>
		<path fill="#DE303F" d="M10,63.7L10,63.7L10,63.7l-1.6,0.4c-0.1,0.3-0.1,0.6-0.1,0.9l2.7-0.8L10,63.7z"/>
		<path fill="#DE303F" d="M54.3,80.3L59,79c0.5-0.4,0.9-0.8,1.3-1.2l-5.4,1.6L54.3,80.3z"/>
		<path fill="#DE303F" d="M19.7,53.5c-0.5,0.5-1,0.9-1.7,1.3l2.7-0.8L19.7,53.5z"/>
		<polygon fill="#DE303F" points="63.9,62.9 63.9,62.9 63.9,63 		"/>
		<path fill="#DE303F" d="M61.8,71.5L61.8,71.5l2.4-0.6c0.1-0.3,0.1-0.6,0.2-0.9l-3.5,1L61.8,71.5z"/>
		<path fill="#DE303F" d="M46.5,76.1l0.5-1l-8.8,2.6c0.4,0.2,0.7,0.3,1.1,0.5L46.5,76.1z"/>
		<path fill="#DE303F" d="M48.6,74.7l6.3-1.8l1,0.5l-6.3,1.8l0.9,0.5l0,0l0,0l6.2-1.8l0.8,0.4l-0.1,0.2l-6,1.8l0.9,0.5l0.1,0.1l0,0
			l4.5-1.3l-0.5,1l-3,0.9l1,0.5l1.5-0.4l-0.5,0.9l6-1.7c0.1-0.1,0.1-0.1,0.2-0.2L60.7,76L56,77.4l0.5-1l3.2-0.9l-1-0.5L57,75.4
			l0.5-1l0.1-0.2l-0.9-0.5l1.4-0.4l0.4-0.6l0.2-0.3l-2.9,0.8l-1-0.5l4.4-1.3l0.5-0.9l0,0l0-0.1l-5.9,1.7l-1-0.5l6.1-1.8l0.2,0.1
			l1.1-0.3l-0.4,0.7l0,0l0.1,0.1l4.6-1.3c0-0.3,0.1-0.6,0.1-0.9l-4.4,1.3l0.5-1l3.9-1.1c0-0.3,0-0.5,0-0.8l-3.4,1l0.5-1l0,0l0,0.1
			l-5.7,1.7L56,68.3L49.9,70l-1-0.5l6.1-1.8l0.2,0.1l5.8-1.7l0,0l0,0l-1-0.5l-5.7,1.7L54,67.2L47.9,69l-1-0.5l6.1-1.8l0.2,0.1
			l5.8-1.7l0,0l0,0l-1-0.5l-5.7,1.7L52,66.1L46,67.9l-1-0.5l6.1-1.8l1,0.5l0.4-0.8L57,64l0,0l0,0l-1-0.5l-3,0.9l0.5-1l1.5-0.4l0,0
			l0,0l-1-0.5l0.1,0l0.3-0.6l0.2-0.4L53,61.9l-1-0.5l3.1-0.9l0.5-1h0l0,0l-4.6,1.3l-1-0.5l6.1-1.8l0.5-0.9l0-0.1l0,0l0,0l-7.6,2.2
			l-1-0.5l8.5-2.5c-0.3-0.2-0.6-0.4-0.9-0.6l-8.6,2.5l-1-0.5l8.8-2.6c-0.2-0.2-0.4-0.4-0.7-0.6l-9.2,2.7l-1-0.5l9.6-2.8
			c-0.2-0.2-0.3-0.5-0.5-0.7l-10.1,2.9l-1-0.5l0,0l0,0l-5.7,1.7l-0.2-0.1l-6.1,1.8l0.2,0.1l-0.4,0.1l0.1-0.2l-0.9-0.5l6.1-1.8
			l0.2,0.1l5.7-1.7l-1-0.5l-5.7,1.7l-0.2-0.1l-6.1,1.8l-1-0.5l6.1-1.8l0.4,0.2L33.6,56l5.7-1.7l-1-0.5l-5.7,1.7l-0.2-0.1l-6.1,1.8
			l-1-0.5l6.1-1.8l1,0.5l0,0l0.4-0.7l4.6-1.3l-1-0.5l-3,0.9l0.5-1l1.5-0.4l-1-0.5l0.5-1l0,0l0,0l-1.5,0.4l-1-0.5l3-0.9l0.5-1l0,0
			l0,0l-4.5,1.3l-1-0.5l6-1.8l0,0l0,0l0.5-1l0,0l0,0L29.6,49l-1-0.5l9.1-2.7l0,0l0,0l0.5-1l0,0l0,0l-10.6,3.1l-1-0.5l12.1-3.5l1,0.5
			l6.7-2c-0.2-0.2-0.4-0.4-0.6-0.6l-7.2,2.1l0.5-1l6-1.7c-0.2-0.2-0.5-0.4-0.7-0.6l-4.7,1.4l0.5-1l3.4-1c-0.3-0.2-0.6-0.4-0.9-0.6
			l-2,0.6l0.5-1l0.4-0.1c-3-1.4-6.2-1.6-9-1.3c-0.3,0-0.7,0.1-1,0.2l-0.4,0.8L29.9,39l-0.5-0.3l0,0l0.6,0.3l-1.8,0.5
			c-0.5,0.4-0.9,0.8-1.4,1.2l4.2-1.2l1,0.5l-6.2,1.8c-0.3,0.3-0.6,0.7-0.8,1.1l8-2.3l1,0.5L24.2,44c-0.2,0.3-0.3,0.6-0.5,1l11.2-3.3
			l1,0.5l-12.1,3.5l-0.1,0l-0.3,0.1c-0.1,0.3-0.2,0.6-0.3,0.9l1.6-0.5l0.1,0l12.1-3.5l1,0.5l-12.1,3.5l-0.4-0.2l0.4,0.2l-2.9,0.8
			c-0.1,0.3-0.2,0.6-0.3,0.9l4.2-1.2l0,0l-0.5,0.9l-4,1.2c0,0.1,0,0.1-0.1,0.2l0.7,0.4h0l0.1,0.1l2.8-0.8l-0.5,1l-1.3,0.4l0.9,0.5
			l-0.6,1l1.5-0.5l1,0.5l-3.1,0.9l-0.6,1l4.6-1.3l1,0.5L22.5,55l-0.9-0.5L16.8,56l0.4-0.8c-0.1,0-0.1,0.1-0.2,0.1
			c-0.8,0.3-1.6,0.6-2.2,0.9l0.5,0.3l1.5-0.4l-0.5,0.9l6-1.8l-0.5,1l-6,1.8l-0.5,1l6.1-1.8l-0.5,1l-6.1,1.8l-0.5,1l6.1-1.8l-0.5,1
			l-6.1,1.8l-0.5,1l6.1-1.8l-0.5,1l-6.1,1.8l-0.5,1l6.1-1.8l-0.5,1l-6.1,1.8l0.5-0.9l0,0l-3.7,1.1c0,0.3,0,0.5,0,0.8l3.2-0.9l-0.5,1
			L17,65l-0.5,1l-6.1,1.8l0.5-1l-2.6,0.8c0,0.3,0.1,0.5,0.1,0.8l2-0.6l-0.5,1l6.1-1.8l-0.5,1l-6.1,1.8l0.5-1l-1.3,0.4
			c0.1,0.3,0.1,0.5,0.2,0.8l0.6-0.2l-0.4,0.8c0,0,0,0.1,0,0.1l5.9-1.7l-0.5,1l-5.1,1.5c0.1,0.2,0.2,0.5,0.3,0.7l4.3-1.3l-0.5,1
			l-3.4,1c0.1,0.2,0.2,0.4,0.3,0.6c0,0,0,0.1,0.1,0.1l2.5-0.7l-0.5,1l-1.5,0.5c0.2,0.2,0.3,0.5,0.5,0.7l0.5-0.1l-0.2,0.4
			c2.1,2.4,5.3,4,8.2,4.7L31,76.5l-0.5,1l-9.1,2.7c0.6,0.1,1.2,0.1,1.7,0.1c4-0.2,6.9-3.1,10.9-3.3l-0.5-0.3l12.1-3.5l1,0.5
			l-11.2,3.3c0.6,0.1,1.1,0.2,1.7,0.3l10.6-3.1L48.6,74.7z M56.9,68.8l0.2,0.1l4.2-1.2l-0.5,1l-2.6,0.8l-0.2-0.1l-6.1,1.8l-1-0.5
			L56.9,68.8z M49.2,71.2l1.7-0.5l1,0.5l-3.2,0.9L49.2,71.2z M48.2,73.2l4.7-1.4l1,0.5l-6.2,1.8L48.2,73.2z M30.9,39.6L30.9,39.6
			L30.9,39.6L30.9,39.6z M49.1,64.5l1,0.5L44,66.8l-1-0.5L49.1,64.5z M47.1,63.4l1,0.5l-6.1,1.8l-1-0.5L47.1,63.4z M45.2,62.4l1,0.5
			l-6.1,1.8l-1-0.5L45.2,62.4z M42.3,60.8l-6.1,1.8l-1-0.5l6.1-1.8L42.3,60.8z M41.7,57l-0.5,1l-2.7,0.8l-1-0.5L41.7,57z M29.6,60.5
			l1.9-0.6l-0.2-0.1l6.1-1.8l1,0.5l-6.1,1.8l-0.4-0.2l0.6,0.3l-3.4,1L29.6,60.5z M29.5,53.8l1,0.5l-6.1,1.8l-1-0.5L29.5,53.8z
			 M20.2,59.1L20.2,59.1l1,0.5l-1.5,0.5L20.2,59.1z M19.1,61.1l3.1-0.9l1,0.5l-4.6,1.3L19.1,61.1z M18,63.1l6.1-1.8l1,0.5L17.5,64
			L18,63.1z M16.9,65l9.1-2.7l1,0.5L16.4,66L16.9,65z M32.5,76.1l-1-0.5l0,0l0,0l-12.1,3.5l0.5-1L30.6,75l0,0h0l-0.9-0.5l-0.1-0.1
			l-9.1,2.7l0.5-1l7.6-2.2l-0.1-0.1l-0.8-0.5l-6.1,1.8l0.5-1l4.6-1.3l0,0l0,0l-1-0.5l-3.1,0.9l0.5-1l1.6-0.5l0,0l0,0l-1-0.5l-0.1,0
			l0.5-1l0,0l0,0l-1.5,0.4l-1-0.5l3-0.9l0.5-1l0,0l0,0l-4.5,1.3l-1-0.5l6-1.8l0.5-1l0,0l0,0l-7.6,2.2l-1-0.5l9-2.6l0.5-1l0,0l0,0
			l-10.6,3.1l-1-0.5L28,63.4l0.5-1l4.9-1.4l-0.2-0.1l6.1-1.8l0.2,0.1l1.1-0.3l-0.4,0.7l-0.4-0.2l0.5,0.3l-6.1,1.8l0.2,0.1L28,63.4
			l1,0.5l6.4-1.9l1,0.5L30,64.5l0,0l1,0.5h0l0,0l6.4-1.9l0.3,0.2l-0.5-0.3l6.1-1.8l1,0.5l-6.1,1.8l-0.1,0L38,63.8l-6,1.8l0.9,0.5
			l0.1,0.1l0,0l0,0l4.5-1.3l-0.5,1l-3,0.9l1,0.5l1.5-0.4l-0.5,0.9l0,0l1,0.5l-1.5,0.4l-0.5,1l3-0.9l1,0.5l-4.5,1.3l-0.5,1l6.1-1.8
			l1,0.5l-7.6,2.2l-0.5,1l9.1-2.7l1,0.5l-10.6,3.1l-0.5,1L43.7,72l1,0.5L32.5,76.1z"/>
		<path fill="#DE303F" d="M63.3,73.5c0-0.1,0.1-0.2,0.1-0.3L63.3,73.5L63.3,73.5z"/>
		<path fill="#DE303F" d="M40.7,44.9L40.7,44.9l1,0.5l5.9-1.7c-0.2-0.2-0.3-0.4-0.5-0.7L40.7,44.9L40.7,44.9z"/>
		<path fill="#DE303F" d="M42.6,46L42.6,46l1,0.5l4.5-1.3l-0.5,1l-3,0.9l0,0l0,0l1,0.5l1.5-0.4l-0.5,1l0,0l0,0l1,0.5L46,49.1l-0.5,1
			l3.1-0.9l1,0.5l-4.6,1.3l-0.5,1l6.1-1.8l1,0.5L43.9,53l-0.5,1l8.7-2.5c-1-1.9-1.9-4.1-4-7L42.6,46L42.6,46z"/>
		<path fill="#DE303F" d="M63.7,72.5c0-0.1,0-0.1,0.1-0.2c0.1-0.2,0.1-0.4,0.2-0.6l-1.1,0.3L63.7,72.5z"/>
		<path fill="#DE303F" d="M62.2,75.5L62.2,75.5c0.3-0.4,0.5-0.7,0.7-1l-0.2,0L62.2,75.5z"/>
		<path fill="#116843" d="M38.7,43.9l7.2-2.1c-0.2-0.2-0.4-0.4-0.7-0.6l-6,1.7L38.7,43.9z"/>
		<path fill="#116843" d="M39.8,41.9l4.7-1.4c-0.3-0.2-0.5-0.4-0.8-0.6l-3.4,1L39.8,41.9z"/>
		<path fill="#116843" d="M40.8,39.9l2-0.6c-0.3-0.2-0.7-0.4-1-0.5L41.4,39L40.8,39.9z"/>
		<path fill="#116843" d="M31,76.5l-11.4,3.3c0.6,0.1,1.2,0.2,1.8,0.3l9.1-2.7L31,76.5z"/>
		<polygon fill="#116843" points="32.6,73.6 33.2,72.6 28.6,73.9 28.5,73.9 28.6,73.9 21,76.2 20.5,77.1 29.6,74.5 29.7,74.5 
			29.6,74.5 		"/>
		<polygon fill="#116843" points="33.7,71.6 34.2,70.6 26.7,72.9 26.7,72.9 22.1,74.2 21.6,75.2 27.7,73.4 27.7,73.4 		"/>
		<polygon fill="#116843" points="34.8,69.7 35.3,68.7 24.7,71.8 24.7,71.8 23.2,72.3 22.6,73.2 25.7,72.3 25.7,72.3 		"/>
		<polygon fill="#116843" points="35.9,67.7 35.8,67.7 36.3,66.7 34.9,67.2 33.9,66.6 36.9,65.8 37.4,64.8 32.9,66.1 32.9,66.1 
			25.3,68.3 25.3,68.3 25.3,68.3 24.8,69.3 33.9,66.6 34.9,67.2 24.3,70.3 24.3,70.3 24.2,70.3 23.7,71.3 23.8,71.3 23.7,71.2 		"/>
		<polygon fill="#116843" points="30.6,75 30.6,75 19.9,78.1 19.4,79.1 31.5,75.6 31.5,75.5 31.6,75.5 32.1,74.6 		"/>
		<polygon fill="#116843" points="32.8,66 31.9,65.6 38,63.8 38.1,63.6 37.6,63.3 37.3,63.2 31,65 31,65 26.4,66.4 26.4,66.4 
			26.4,66.4 25.8,67.3 31.9,65.6 		"/>
		<polygon fill="#116843" points="30,64.5 30,64.5 36.4,62.6 35.4,62.1 29,64 28,63.4 34.4,61.6 34.2,61.5 34.2,61.5 33.4,61 
			28.5,62.5 28,63.4 28,63.4 29,64 27.5,64.4 27.5,64.4 27.4,64.4 26.9,65.4 30,64.5 		"/>
		<polygon fill="#116843" points="40.2,59.7 40.6,58.9 39.5,59.3 39.8,59.4 		"/>
		<polygon fill="#116843" points="31.9,60.2 31.5,60 29.6,60.5 29.1,61.5 32.5,60.5 		"/>
		<polygon fill="#116843" points="41.2,57.9 41.7,57 37.5,58.2 38.5,58.7 		"/>
		<path fill="#116843" d="M45.2,57.6l9.2-2.7c-0.2-0.2-0.3-0.4-0.5-0.6c0,0,0-0.1-0.1-0.1L44.2,57L45.2,57.6z"/>
		<path fill="#116843" d="M38.7,43.9l-12.1,3.5l1,0.5l10.6-3.1l0,0l0,0l-0.5,1l0,0l0,0l-9.1,2.7l1,0.5l7.6-2.2l0,0l0,0l-0.5,1l0,0
			l0,0l-6,1.8l1,0.5l4.5-1.3l0,0l0,0l-0.5,1l-3,0.9l1,0.5l1.5-0.4l0,0l0,0l-0.5,1l1,0.5l-1.5,0.4l-0.5,1l3-0.9l1,0.5l-4.6,1.3
			l-0.4,0.7l0,0l0,0l0,0l0.2,0.1l5.7-1.7l1,0.5L33.6,56l0.2,0.1l0.6,0.3h0l0.2,0.1l5.7-1.7l1,0.5l-5.7,1.7l0.8,0.4l0,0l0.2,0.1
			l5.7-1.7l0,0l0,0l0.5-1l9.6-2.8c-0.1-0.2-0.3-0.5-0.4-0.7L43.3,54l0.5-1l7.6-2.2l-1-0.5l-6.1,1.8l0.5-1l4.6-1.3l-1-0.5l-3.1,0.9
			l0.5-1l1.5-0.5l-1-0.5l0,0l0,0l0.5-1l-1.5,0.4l-1-0.5l0,0l0,0l3-0.9l0.5-1l-4.5,1.3l-1-0.5l0,0l0,0l5.4-1.6
			c-0.2-0.2-0.3-0.4-0.5-0.7l-5.9,1.7l-1-0.5l0,0l0,0l6.3-1.9c0,0,0,0,0,0c-0.2-0.2-0.3-0.4-0.5-0.6l-6.7,2L38.7,43.9z"/>
		<polygon fill="#116843" points="30.3,59.3 30.1,59.5 30.5,59.4 30.3,59.3 30.3,59.3 		"/>
		<path fill="#116843" d="M55.2,60.4l-3.1,0.9l1,0.5l1.6-0.5l-0.2,0.4l0.2-0.4l6.4-1.9c-0.3-0.2-0.5-0.4-0.8-0.6L55.2,60.4
			L55.2,60.4z"/>
		<path fill="#116843" d="M58.9,65.1L58.9,65.1L58.9,65.1l4.5-1.3l-0.5,0.9l0.6-1h0l0.4-0.7l0,0c0,0,0-0.1,0-0.1l-5.9,1.7L58.9,65.1
			z"/>
		<path fill="#116843" d="M47.2,58.6l8.6-2.5c-0.3-0.2-0.5-0.4-0.8-0.6l-8.8,2.6L47.2,58.6z"/>
		<polygon fill="#116843" points="61.8,66.6 62.4,65.6 62.4,65.6 62.7,65 62.9,64.8 59.9,65.6 60.9,66.1 60.9,66.1 60.9,66.1 
			62.3,65.7 61.8,66.6 61.8,66.6 61.8,66.6 		"/>
		<path fill="#116843" d="M56.7,57.6l-0.5,0.9l-6.1,1.8l1,0.5l4.6-1.3l0,0l3.8-1.1c-0.3-0.2-0.6-0.4-0.9-0.6l-2.3,0.7L56.7,57.6z"/>
		<path fill="#116843" d="M57,64L57,64L57,64l6.5-1.9c-0.1-0.2-0.3-0.5-0.5-0.7l-7,2L57,64z"/>
		<path fill="#116843" d="M54.1,62.4L54.1,62.4l0.9,0.6l0,0l0,0l7.4-2.2c0,0-0.1-0.1-0.1-0.1c-0.2-0.2-0.4-0.3-0.5-0.5L54.1,62.4
			L54.1,62.4z"/>
		<path fill="#116843" d="M49.1,59.7l7.6-2.2l0,0l0.9-0.3c-0.3-0.2-0.6-0.4-0.9-0.6l-8.5,2.5L49.1,59.7z"/>
		<path fill="#116843" d="M23.6,45.7L23.6,45.7l12.2-3.5l-1-0.5L23.7,45c-0.1,0.2-0.2,0.4-0.3,0.7L23.6,45.7L23.6,45.7z"/>
		<polygon fill="#116843" points="25.6,46.9 37.8,43.3 36.8,42.8 24.7,46.3 25.2,46.6 		"/>
		<path fill="#116843" d="M30.9,39.6l-4.2,1.2c-0.3,0.3-0.7,0.7-1,1.1l6.2-1.8L30.9,39.6z"/>
		<path fill="#116843" d="M32.9,40.6l-8,2.3c-0.2,0.2-0.3,0.5-0.5,0.7c-0.1,0.1-0.1,0.2-0.2,0.3l9.7-2.8L32.9,40.6z"/>
		<path fill="#116843" d="M29.4,38.7c-0.4,0.2-0.8,0.5-1.3,0.8l1.8-0.5L29.4,38.7z"/>
		<path fill="#116843" d="M43.3,56.5l10.1-2.9c-0.2-0.2-0.3-0.5-0.5-0.7L42.3,56L43.3,56.5z"/>
		<polygon fill="#CAB24D" points="30.9,39.6 30.9,39.5 30.8,39.5 		"/>
		<path fill="#CAB24D" d="M23.6,45.7l-0.2-0.1c0,0.1-0.1,0.1-0.1,0.2L23.6,45.7L23.6,45.7z"/>
		<path fill="#CAB24D" d="M25.2,46.6l-0.5-0.3l-0.1,0L23,46.8c-0.1,0.3-0.2,0.6-0.3,0.9l2.9-0.8L25.2,46.6z"/>
		<path fill="#CAB24D" d="M13.8,70.8l-4.3,1.3c0.1,0.2,0.2,0.5,0.3,0.7l3.4-1L13.8,70.8z"/>
		<path fill="#CAB24D" d="M12.7,72.8l-2.5,0.7c0.1,0.2,0.3,0.5,0.4,0.7l1.5-0.5L12.7,72.8z"/>
		<path fill="#CAB24D" d="M11.1,74.9c0.1,0.1,0.2,0.2,0.3,0.3l0.2-0.4L11.1,74.9z"/>
		<polygon fill="#CAB24D" points="12,64.8 11.5,65.8 17.5,64 18.1,63 12,64.8 12,64.8 		"/>
		<polygon fill="#CAB24D" points="10.9,66.7 10.4,67.7 16.4,65.9 17,65 10.9,66.7 10.9,66.7 		"/>
		<polygon fill="#CAB24D" points="9.8,68.7 9.3,69.7 15.4,67.9 15.9,66.9 9.9,68.7 9.8,68.7 		"/>
		<path fill="#CAB24D" d="M14.8,68.9l-5.9,1.7c0.1,0.2,0.2,0.5,0.3,0.7l5.1-1.5L14.8,68.9z"/>
		<polygon fill="#CAB24D" points="21.8,56.1 22.3,55.2 16.3,56.9 15.8,57.9 		"/>
		<polygon fill="#CAB24D" points="20.7,58.1 21.3,57.1 15.2,58.9 14.7,59.9 		"/>
		<polygon fill="#CAB24D" points="19.7,60.1 20.2,59.1 14.1,60.9 13.6,61.8 		"/>
		<polygon fill="#CAB24D" points="18.6,62 19.1,61 13.1,62.8 12.5,63.8 		"/>
		<path fill="#CAB24D" d="M31.5,38.5l0.4-0.8c-0.8,0.2-1.7,0.5-2.5,1l0.5,0.3L31.5,38.5z"/>
		<polygon fill="#CAB24D" points="34.2,61.5 40.3,59.7 39.8,59.4 39.5,59.3 39.3,59.2 33.3,60.9 33.4,61 34.2,61.5 		"/>
		<polygon fill="#CAB24D" points="32.3,60.4 38.3,58.6 37.4,58.1 31.3,59.9 31.5,60 31.9,60.2 		"/>
		<polygon fill="#CAB24D" points="35.6,57.1 35.4,57 29.3,58.8 30.3,59.3 30.3,59.3 30.3,59.3 36.4,57.5 36.4,57.5 		"/>
		<polygon fill="#CAB24D" points="33.9,56.2 33.4,55.9 27.4,57.7 28.4,58.2 34.4,56.5 34.4,56.5 		"/>
		<polygon fill="#CAB24D" points="42.1,65.8 48.1,64 47.1,63.4 41.1,65.2 		"/>
		<polygon fill="#CAB24D" points="40.1,64.7 46.2,62.9 45.2,62.4 39.1,64.1 		"/>
		<polygon fill="#CAB24D" points="38.1,63.6 44.2,61.8 43.2,61.3 37.2,63.1 37.6,63.3 38.1,63.6 		"/>
		<polygon fill="#CAB24D" points="35.2,62 36.2,62.5 42.3,60.8 41.3,60.2 		"/>
		<polygon fill="#CAB24D" points="55.2,67.8 55,67.7 48.9,69.5 49.9,70 56,68.3 55.1,67.8 		"/>
		<polygon fill="#CAB24D" points="53.2,66.8 53,66.7 47,68.4 47.9,69 54,67.2 53.2,66.8 		"/>
		<polygon fill="#CAB24D" points="52,66.1 51.1,65.6 45,67.4 46,67.9 52,66.1 52,66.1 		"/>
		<polygon fill="#CAB24D" points="44,66.8 50.1,65.1 49.1,64.5 43,66.3 		"/>
		<polygon fill="#CAB24D" points="57.9,69.3 57.1,68.9 57.1,68.9 56.9,68.8 50.9,70.6 51.9,71.1 		"/>
		<path fill="#CAB24D" d="M63.5,63.7L63.5,63.7l0.7-0.2c-0.1-0.2-0.2-0.4-0.2-0.6l0,0L63.5,63.7z"/>
		<path fill="#CAB24D" d="M62.7,65l-0.3,0.6h0l2.1-0.6c0-0.3-0.1-0.5-0.2-0.8l-1.4,0.4L62.7,65z"/>
		<path fill="#CAB24D" d="M61.8,66.6L61.8,66.6l-0.5,1l3.4-1c0-0.3,0-0.5-0.1-0.8L61.8,66.6L61.8,66.6z"/>
		<path fill="#CAB24D" d="M60.2,69.6l4.4-1.3c0-0.3,0-0.6,0-0.8l-3.9,1.1L60.2,69.6z"/>
		<path fill="#CAB24D" d="M54.9,79.3l5.4-1.6c0.4-0.4,0.7-0.8,1.1-1.1l-6,1.7L54.9,79.3z"/>
		<path fill="#CAB24D" d="M53.8,81.3l3.4-1c0.3-0.2,0.6-0.4,0.9-0.6c0.3-0.3,0.6-0.5,0.9-0.7l-4.6,1.4L53.8,81.3z"/>
		<polygon fill="#CAB24D" points="32.4,55.4 31.5,54.9 25.4,56.6 26.4,57.2 32.5,55.4 32.5,55.4 		"/>
		<polygon fill="#CAB24D" points="30.5,54.3 29.5,53.8 23.5,55.6 24.4,56.1 		"/>
		<path fill="#CAB24D" d="M26.6,47.4L26.6,47.4l-4.2,1.2c-0.1,0.3-0.2,0.6-0.3,0.9l4-1.2L26.6,47.4z"/>
		<path fill="#CAB24D" d="M21.6,54.6l0.9,0.5l6.1-1.8l-1-0.5l-4.6,1.3l0.6-1l3.1-0.9l-1-0.5l-1.5,0.5l0.6-1l-0.9-0.5l1.3-0.4l0.5-1
			l-2.8,0.8L22.7,50h0L22,49.7c-0.5,1.4-1.2,2.7-2.3,3.8l1,0.5L18,54.8c-0.2,0.1-0.5,0.2-0.7,0.3L16.8,56L21.6,54.6z"/>
		<path fill="#CAB24D" d="M59.8,70.4L59.8,70.4L59.8,70.4L59.1,70l0,0l-0.2-0.1l-6.1,1.8l1,0.5L59.8,70.4l-0.1,0.1l0,0l-0.5,0.9
			l-4.4,1.3l1,0.5l2.9-0.8l-0.2,0.3l-0.4,0.6l-1.4,0.4l0.9,0.5l-0.1,0.2l-0.5,1l1.6-0.5l1,0.5l-3.2,0.9l-0.5,1l4.7-1.4l0.9,0.4
			c0.3-0.3,0.5-0.7,0.7-1l-0.1,0l0.5-1l0.2,0c0.2-0.4,0.3-0.7,0.4-1l-0.1,0l0.2-0.3c0.1-0.3,0.2-0.5,0.2-0.7l-0.8-0.4l1.1-0.3
			c0.1-0.3,0.2-0.6,0.3-0.9l-2.3,0.7l-0.1,0L60.9,71l3.5-1c0.1-0.3,0.1-0.6,0.1-0.9L60,70.5L59.8,70.4z"/>
		<path fill="#772C2E" d="M9.8,68.7L9.8,68.7l0.5-1l-2,0.6c0,0.3,0.1,0.5,0.1,0.8L9.8,68.7L9.8,68.7z"/>
		<path fill="#772C2E" d="M10.9,66.7L10.9,66.7l0.5-1l-3.2,0.9c0,0.3,0,0.5,0.1,0.8L10.9,66.7L10.9,66.7z"/>
		<path fill="#772C2E" d="M12,64.8L12,64.8L12,64.8l0.6-1l0.5-1l0.5-1l0.5-1l0.5-1l0.5-1l0.5-1l0.5-1l0.5-0.9l-1.5,0.4l-0.5-0.3
			c-2.3,1-3.9,2.2-5.6,5.6C9,62.1,8.9,62.6,8.7,63L9,63.2l-0.4,0.1c-0.1,0.3-0.2,0.6-0.2,0.9l1.6-0.5l0,0l0,0l0.9,0.5l-2.7,0.8
			c0,0.3-0.1,0.6-0.1,0.8L12,64.8L12,64.8z"/>
		<polygon fill="#772C2E" points="20.2,59.1 20.2,59.1 19.6,60.1 21.2,59.7 		"/>
		<polygon fill="#772C2E" points="22.2,60.2 19.1,61.1 18.6,62.1 23.1,60.7 		"/>
		<path fill="#772C2E" d="M8.7,69.9c0.1,0.2,0.1,0.4,0.2,0.6l0.4-0.8L8.7,69.9z"/>
		<polygon fill="#772C2E" points="31.6,75.5 32.5,76.1 44.7,72.5 43.7,72 		"/>
		<path fill="#772C2E" d="M45.6,73.1l-12.1,3.5l0.5,0.3c0.1,0,0.2,0,0.3,0c0.4,0,0.7,0,1.1,0l11.2-3.3L45.6,73.1z"/>
		<polygon fill="#772C2E" points="36.8,68.2 35.9,67.7 23.7,71.2 23.8,71.3 24.7,71.8 24.7,71.8 35.3,68.7 		"/>
		<polygon fill="#772C2E" points="38.8,69.3 37.8,68.8 34.8,69.7 25.7,72.3 25.7,72.3 26.7,72.9 26.7,72.9 34.2,70.6 		"/>
		<polygon fill="#772C2E" points="33.2,72.6 40.7,70.4 39.8,69.9 33.7,71.6 27.7,73.4 27.7,73.4 28.5,73.9 28.6,73.9 		"/>
		<polygon fill="#772C2E" points="42.7,71.5 41.7,70.9 32.6,73.6 29.6,74.5 29.7,74.5 30.6,75 30.6,75 32.1,74.6 		"/>
		<path fill="#772C2E" d="M46.5,76.1l-7.2,2.1c0.3,0.2,0.7,0.3,1,0.5l5.6-1.6l-0.5,1l-4.1,1.2c0.3,0.2,0.7,0.4,1,0.5l2.6-0.8l-0.5,1
			l-1,0.3c0.7,0.3,1.4,0.6,2.2,0.9c2.3,0.7,5.2,1.1,8,0.5l0.2-0.4l0.5-1l0.5-1l0.5-1l0.5-0.9l-1.5,0.4l-1-0.5l3-0.9l0.5-1l-4.5,1.3
			l0,0l-0.1-0.1l-0.9-0.5l6-1.8l0.1-0.2l-0.8-0.4l-6.2,1.8l0,0l0,0l-0.9-0.5l6.3-1.8l-1-0.5l-6.3,1.8l-1-0.5L37,77.2
			c0.4,0.1,0.8,0.3,1.2,0.5l8.8-2.6L46.5,76.1z"/>
		<polygon fill="#772C2E" points="28,63.4 28,63.4 15.9,67 16.9,67.5 27.5,64.4 29,64 		"/>
		<polygon fill="#772C2E" points="31,65 30,64.5 30,64.5 26.9,65.4 17.9,68 18.8,68.6 26.4,66.4 31,65 		"/>
		<polygon fill="#772C2E" points="32.9,66.1 32.8,66 31.9,65.6 25.8,67.3 19.8,69.1 20.8,69.6 25.3,68.3 32.9,66.1 		"/>
		<polygon fill="#772C2E" points="33.9,66.6 24.8,69.3 21.8,70.2 22.8,70.7 24.3,70.3 34.9,67.2 		"/>
		<polygon fill="#772C2E" points="24.1,61.3 18,63.1 17.5,64 25.1,61.8 		"/>
		<polygon fill="#772C2E" points="26.1,62.4 16.9,65 16.4,66 27,62.9 		"/>
		<path fill="#772C2E" d="M54.4,61.8l-0.3,0.6l0,0l7.7-2.2c-0.2-0.2-0.5-0.4-0.7-0.6l-6.4,1.9L54.4,61.8z"/>
		<path fill="#772C2E" d="M55.7,59.5l-0.5,1l0,0l5.1-1.5c-0.3-0.2-0.6-0.4-0.8-0.6L55.7,59.5L55.7,59.5z"/>
		<path fill="#772C2E" d="M56.7,57.5L56.7,57.5l-0.5,1l2.3-0.7c-0.3-0.2-0.6-0.4-0.9-0.5L56.7,57.5L56.7,57.5z"/>
		<polygon fill="#772C2E" points="60.9,66.1 55.2,67.8 55.1,67.8 56,68.3 56.1,68.4 61.8,66.7 61.8,66.6 62.3,65.7 		"/>
		<polygon fill="#772C2E" points="62.9,64.8 62.9,64.7 63.4,63.8 59,65.1 53.2,66.8 53.2,66.8 54,67.2 54.2,67.3 59.9,65.6 
			62.9,64.8 		"/>
		<path fill="#772C2E" d="M52.5,65.3L52,66.1l0,0l0,0l0.2,0.1l5.7-1.7l5.9-1.7c-0.1-0.2-0.2-0.5-0.4-0.7L57,64L52.5,65.3z"/>
		<path fill="#772C2E" d="M53.5,63.4l-0.5,1l3-0.9l7-2c-0.2-0.2-0.4-0.4-0.6-0.7l-7.4,2.2L53.5,63.4z"/>
		<polygon fill="#772C2E" points="52.9,71.8 48.2,73.2 47.6,74.1 53.9,72.3 		"/>
		<polygon fill="#772C2E" points="59.8,70.4 59.8,70.4 60.2,69.6 59.1,70 59.1,70 		"/>
		<polygon fill="#772C2E" points="50.9,70.7 49.2,71.2 48.7,72.2 51.9,71.2 		"/>
		<polygon fill="#772C2E" points="57.9,69.3 58.1,69.4 60.7,68.7 61.3,67.7 57.1,68.9 57.1,68.9 		"/>
	</g>
	<g>
		<path fill="#DE303F" d="M3.4,23.8l2.3-0.7c-0.1-0.3-0.1-0.5-0.2-0.8l-1.9,0.6C3.5,23.2,3.4,23.5,3.4,23.8z"/>
		<path fill="#DE303F" d="M3.1,34.5l-3,0.9C0,35.7,0,36,0,36.3l2.6-0.7l-0.5,1l-2,0.6c0,0.2,0,0.4,0,0.6l0.1,0l0.3,0.2l-0.1,0
			l1.1-0.3l-0.4,0.7l0,0l-1,0.3c0,0.3,0.1,0.5,0.1,0.8l1.9-0.6l1,0.5l-2.8,0.8c0,0.3,0.1,0.5,0.2,0.8l3.6-1.1l1,0.5l-4.4,1.3
			c0,0,0,0,0,0c0.1,0.2,0.1,0.5,0.2,0.7L6,40.9l1,0.5l-5.9,1.7c1.7,4.6,5,7.9,8.3,8.4l4.4-1.3l0.1,0.1c0,0,0,0,0,0l-0.3-0.1l0.6-0.2
			c0.3-0.3,0.6-0.7,0.9-1.1l-2.5,0.7l-1-0.5l4.1-1.2c0.2-0.3,0.3-0.6,0.4-0.9l-5.5,1.6l-1-0.5l6.1-1.8l0.2,0.1l0.5-0.1
			c0.1-0.3,0.2-0.6,0.2-0.9l-1.8,0.5l-0.2-0.1l-6,1.8l-1-0.5l6.1-1.8l0.2,0.1l2.9-0.8c0-0.3,0.1-0.6,0.1-0.9l-4,1.2l-0.2-0.1l0,0
			l-6,1.8l-1-0.5l6.1-1.8l0.9,0.5l0.4-0.8l3.8-1.1c0-0.2,0-0.4,0-0.6L16.8,42l0,0l0,0l-3,0.9l0.5-1l1.5-0.4L14.9,41l0,0l0,0l0.5-0.9
			l-1.5,0.4l-1-0.5l3-0.9l0.5-1L12,39.4l-1-0.5l5.4-1.6c-0.1-0.3-0.1-0.5-0.2-0.8L10,38.3l-1-0.5l6.9-2c-0.1-0.2-0.2-0.5-0.3-0.7
			L8,37.2l-1-0.5l8.2-2.4c-0.1-0.2-0.2-0.5-0.4-0.7l-8.8,2.6l-1-0.5l9.4-2.7c-0.1-0.2-0.3-0.5-0.4-0.7l-9.9,2.9L3.1,34.5l10.4-3.1
			c-0.2-0.2-0.4-0.5-0.5-0.7l-9.4,2.7L3.1,34.5z M10.7,48.6l0.2,0.1l-0.3,0.1L10.7,48.6z M10.1,49.7l1.8-0.5l1,0.5l-3.3,1L10.1,49.7
			z M9.9,43.1l1,0.5l-6.1,1.8l-1-0.5L9.9,43.1z M8,42l1,0.5l-6.1,1.8l-1-0.5L8,42z"/>
		<path fill="#DE303F" d="M3.9,22l1.5-0.4c-0.1-0.3-0.1-0.5-0.1-0.8l-0.9,0.3C4.1,21.4,4,21.7,3.9,22z"/>
		<path fill="#DE303F" d="M6.4,28.7l2.7-0.8c-0.5-0.2-1-0.3-1.5-0.4l-0.7,0.2L6.4,28.7z"/>
		<path fill="#DE303F" d="M3.5,24.6L3.5,24.6l1,0.5l1.6-0.5C6,24.4,6,24.1,5.9,23.9L3.5,24.6L3.5,24.6z"/>
		<path fill="#DE303F" d="M5.3,30.6L11,29c-0.3-0.2-0.6-0.4-0.9-0.6l-4.3,1.3L5.3,30.6z"/>
		<path fill="#DE303F" d="M5.5,25.6L5.5,25.6l1,0.5l0.2-0.1c-0.1-0.2-0.2-0.5-0.3-0.7L5.5,25.6L5.5,25.6z"/>
		<path fill="#DE303F" d="M4.2,32.6l8.2-2.4c-0.2-0.2-0.4-0.4-0.7-0.6l-7,2.1L4.2,32.6z"/>
		<path fill="#DE303F" d="M1.2,33.5l-0.8,0.2c-0.1,0.3-0.1,0.6-0.2,0.9l2-0.6L1.2,33.5z"/>
		<path fill="#DE303F" d="M5.1,20c0-0.2,0-0.4,0-0.4c-0.1,0.2-0.2,0.3-0.3,0.5L5.1,20z"/>
		<path fill="#116843" d="M3.5,28.4c-1.5,1.1-2.6,3-3.2,5.3l0.8-0.2l1,0.5l-2,0.6c0,0.3-0.1,0.6-0.1,0.9l3-0.9l0.5-1l9.4-2.7
			c-0.2-0.2-0.4-0.4-0.6-0.6l-8.2,2.4l0.5-1l7-2.1c-0.2-0.2-0.5-0.4-0.8-0.6l-5.7,1.7l0.5-1l4.3-1.3c-0.3-0.2-0.7-0.4-1.1-0.5
			l-2.7,0.8l0.5-1l0.7-0.2c-0.1,0-0.2,0-0.4,0C7,27,6.8,26.6,6.6,26.1l-0.2,0.1l-1-0.5l0,0l0,0l0.9-0.3c-0.1-0.2-0.2-0.5-0.2-0.7
			l-1.6,0.5l-1-0.5l0,0l0,0l2.4-0.7c-0.1-0.3-0.1-0.5-0.2-0.8l-2.3,0.7C3,25.6,3.2,27.2,3.5,28.4z"/>
		<path fill="#116843" d="M3.6,22.9l1.9-0.6c-0.1-0.3-0.1-0.5-0.2-0.8L3.9,22C3.8,22.3,3.7,22.6,3.6,22.9z"/>
		<path fill="#116843" d="M14.9,41L14.9,41l0.9,0.5l1.2-0.4c0-0.3,0-0.5-0.1-0.8L14.9,41L14.9,41z"/>
		<path fill="#116843" d="M16.9,42L16.9,42l0.2,0.1c0-0.1,0-0.1,0-0.2L16.9,42L16.9,42z"/>
		<path fill="#116843" d="M8,37.2l7.5-2.2c-0.1-0.2-0.2-0.5-0.3-0.7l-8.2,2.4L8,37.2z"/>
		<path fill="#116843" d="M12,39.4l4.5-1.3l-0.5,1l-3,0.9l1,0.5l1.5-0.4l0,0l1.4-0.4c0-0.3-0.1-0.5-0.1-0.8L16,39l0.5-1l0.1,0
			c0-0.2-0.1-0.4-0.2-0.6c0,0,0-0.1,0-0.1L11,38.8L12,39.4z"/>
		<path fill="#116843" d="M10,38.3l6.1-1.8c-0.1-0.3-0.2-0.5-0.3-0.7l-6.9,2L10,38.3z"/>
		<path fill="#116843" d="M4.1,35.1l9.9-2.9c-0.2-0.2-0.3-0.5-0.5-0.7l-10.4,3L4.1,35.1z"/>
		<path fill="#116843" d="M6.1,36.1l8.8-2.6c-0.1-0.2-0.3-0.5-0.4-0.7l-9.4,2.7L6.1,36.1z"/>
		<polygon fill="#116843" points="1.5,37.5 0.4,37.8 0.4,37.9 1.1,38.2 		"/>
		<path fill="#116843" d="M2.6,35.5L0,36.3c0,0.3,0,0.5,0,0.8l2-0.6L2.6,35.5z"/>
		<path fill="#116843" d="M4.3,21.1l0.9-0.3c-0.1-0.3-0.1-0.6-0.1-0.8l-0.3,0.1C4.6,20.4,4.4,20.7,4.3,21.1z"/>
		<polygon fill="#CAB24D" points="2.9,44.3 9,42.5 8,42 1.9,43.8 		"/>
		<path fill="#CAB24D" d="M6,40.9l-5.1,1.5C1,42.7,1,42.9,1.1,43.2L7,41.5L6,40.9z"/>
		<path fill="#CAB24D" d="M4.1,39.9l-3.6,1.1c0.1,0.3,0.1,0.5,0.2,0.8L5,40.4L4.1,39.9z"/>
		<path fill="#CAB24D" d="M2.1,38.8l-1.9,0.6c0,0.3,0.1,0.5,0.1,0.8l2.8-0.8L2.1,38.8z"/>
		<path fill="#CAB24D" d="M16,46.4l-0.2-0.1l-6.1,1.8l1,0.5l5.5-1.6c0-0.1,0.1-0.2,0.1-0.4L16,46.4L16,46.4z"/>
		<polygon fill="#CAB24D" points="14,45.3 13.9,45.2 7.8,47 8.8,47.5 14.8,45.8 14,45.3 		"/>
		<polygon fill="#CAB24D" points="11.9,44.1 5.8,45.9 6.8,46.4 12.8,44.7 12.8,44.7 		"/>
		<polygon fill="#CAB24D" points="4.9,45.4 10.9,43.6 9.9,43.1 3.9,44.8 		"/>
		<path fill="#CAB24D" d="M12.7,49.7l2.5-0.7c0.2-0.3,0.4-0.6,0.6-1l-4.1,1.2L12.7,49.7z"/>
		<path fill="#CAB24D" d="M13.9,50.3c0.1-0.1,0.2-0.2,0.4-0.3l-0.6,0.2L13.9,50.3z"/>
		<path fill="#CAB24D" d="M1.1,38.2l-0.7-0.4l-0.3-0.2l-0.1,0c0,0.3,0,0.5,0.1,0.8L1.1,38.2L1.1,38.2z"/>
		<path fill="#772C2E" d="M15.4,40l-0.5,0.9l2.1-0.6c0-0.3-0.1-0.5-0.1-0.8L15.4,40L15.4,40z"/>
		<path fill="#772C2E" d="M16,39l0.8-0.2c-0.1-0.3-0.1-0.5-0.2-0.8l-0.1,0L16,39z"/>
		<polygon fill="#772C2E" points="10.7,48.6 10.6,48.8 10.9,48.7 		"/>
		<path fill="#772C2E" d="M15.9,46.4l0.4,0.2c0-0.1,0.1-0.3,0.1-0.4L15.9,46.4L15.9,46.4z"/>
		<path fill="#772C2E" d="M14,45.3l0.8,0.4l0.2,0.1l1.8-0.5c0.1-0.3,0.1-0.6,0.2-0.9L14,45.3L14,45.3z"/>
		<path fill="#772C2E" d="M12.8,44.7L12.8,44.7L12.8,44.7l0.1,0.1l4-1.2c0-0.3,0-0.6,0.1-0.8l-3.8,1.1L12.8,44.7z"/>
		<path fill="#772C2E" d="M14.4,41.9l-0.5,1l3-0.9l0.2-0.1c0-0.3,0-0.5,0-0.8l-1.2,0.4L14.4,41.9z"/>
		<path fill="#772C2E" d="M9.4,51.6c0.8,0.1,1.6,0.1,2.4-0.1c0.8-0.2,1.5-0.6,2.1-1.1l-0.1-0.1L9.4,51.6z"/>
		<polygon fill="#772C2E" points="11.9,49.2 10.1,49.7 9.5,50.7 12.8,49.8 		"/>
	</g>
</g>
</svg>
