<?xml version="1.0" encoding="utf-8"?>
<!-- Generator: Adobe Illustrator 18.0.0, SVG Export Plug-In . SVG Version: 6.00 Build 0)  -->
<!DOCTYPE svg PUBLIC "-//W3C//DTD SVG 1.1//EN" "http://www.w3.org/Graphics/SVG/1.1/DTD/svg11.dtd">
<svg version="1.1" id="Layer_1" xmlns="http://www.w3.org/2000/svg" xmlns:xlink="http://www.w3.org/1999/xlink" x="0px" y="0px"
	 viewBox="0 0 71.9 133.6" enable-background="new 0 0 71.9 133.6" xml:space="preserve">
<polygon fill="#1B4A45" points="0,133.6 71.9,133.6 54.1,60.4 50.4,69 44,48.7 38.8,67.6 36,58.3 31.6,69.4 26.2,56.2 23.5,66 
	19.3,53.6 14.6,66.2 11.1,48 6.2,67.9 4.1,59.8 1.1,72.1 0,66.4 "/>
<g>
	<polygon fill="#346767" points="44.8,21.3 47.6,19.5 30,15.9 21.6,22 23.2,22.2 30,17.2 44.8,20.1 	"/>
	<polygon fill="#E9EBE4" points="30,17.2 30,29.1 44.8,31.3 44.8,20.1 	"/>
	<rect x="32.9" y="0.9" fill="#BBBBBB" width="1" height="10.8"/>
	<path fill="none" stroke="#FFFFFF" stroke-miterlimit="10" d="M47.2,11.3"/>
	<polygon fill="#368380" points="47.6,19.4 33.4,10.3 30,15.9 	"/>
	<circle fill="#CDCCCC" cx="33.4" cy="0.7" r="0.7"/>
	<path fill="#DCDEDB" d="M42.4,20.4c-0.6-0.1-1.2,0.3-1.3,1c0.1-0.6-0.3-1.2-1-1.3c-0.6-0.1-1.2,0.3-1.3,1c0.1-0.6-0.3-1.2-1-1.3
		c-0.6-0.1-1.2,0.3-1.3,1c0.1-0.6-0.3-1.2-1-1.3l0,0c-0.6-0.1-1.2,0.3-1.3,1c0.1-0.6-0.3-1.2-1-1.3l0,0c-0.6-0.1-1.2,0.3-1.3,1v13.4
		l0.8-3.3l2.3,0.4l2.3,0.4l0,0l2.3,0.4l0,0l3.9,2.7l0-12.1C43.5,21.1,43.1,20.5,42.4,20.4z"/>
	<path fill="#454545" d="M40.3,25.2l0.1-2c0.1-0.4,0.4-0.7,0.8-0.6l0,0c0.4,0.1,0.7,0.4,0.6,0.8v7.4l-2.3-0.3l0.2-5.4L40.3,25.2z"/>
	<path fill="#454545" d="M38.7,24.8l0.1-2c0.1-0.4-0.2-0.8-0.6-0.8l0,0l0,0l0,0l0,0c-0.4-0.1-0.8,0.2-0.8,0.6l-0.1,2l-0.6-0.1l0,5.4
		l2.4,0.4l0.1-5.4L38.7,24.8z"/>
	<path fill="#454545" d="M35.6,24.2v-2c0.1-0.4-0.2-0.8-0.6-0.8l0,0c-0.4-0.1-0.8,0.2-0.8,0.6L34,29.8l2.2,0.2l0.1-5.6L35.6,24.2z"
		/>
	<polygon fill="#BBBBBB" points="30,17.2 30,29.1 23.5,33.3 23.2,22.2 	"/>
	<polygon fill="#E9EBE4" points="45.6,32.5 47,133.6 30.2,133.6 30.2,29.5 	"/>
	<polygon fill="#BBBBBB" points="23.1,32.8 23.1,133.6 30.2,133.6 30.2,29.3 	"/>
	<path fill="#1F6E6A" d="M21.6,22c11.8-11.7,11.8-11.7,11.8-11.7L30,15.9L21.6,22z"/>
	<path fill="none" stroke="#2C6161" stroke-miterlimit="10" d="M34.1,33.3"/>
	<path fill="none" stroke="#2C6161" stroke-miterlimit="10" d="M35.3,33.3"/>
	<path fill="none" stroke="#2C6161" stroke-miterlimit="10" d="M36.6,33.3"/>
	<path fill="none" stroke="#2C6161" stroke-miterlimit="10" d="M37.8,33.3"/>
	<path fill="none" stroke="#2C6161" stroke-miterlimit="10" d="M39.1,33.3"/>
	<path fill="none" stroke="#2C6161" stroke-miterlimit="10" d="M40.3,33.3"/>
	<path fill="none" stroke="#2C6161" stroke-miterlimit="10" d="M41.6,33.3"/>
	<path fill="none" stroke="#2C6161" stroke-miterlimit="10" d="M42.9,33.3"/>
	<path fill="none" stroke="#2C6161" stroke-miterlimit="10" d="M44.1,33.3"/>
	<path fill="none" stroke="#2C6161" stroke-miterlimit="10" d="M45.4,33.3"/>
	<path fill="none" stroke="#2C6161" stroke-miterlimit="10" d="M46.6,33.3"/>
	<path fill="none" stroke="#2C6161" stroke-miterlimit="10" d="M47.9,33.3"/>
	<path fill="none" stroke="#2C6161" stroke-miterlimit="10" d="M49.2,33.3"/>
	<path fill="none" stroke="#2C6161" stroke-miterlimit="10" d="M45.5,39.7"/>
	<path fill="none" stroke="#2C6161" stroke-miterlimit="10" d="M46.7,39.7"/>
	<path fill="none" stroke="#2C6161" stroke-miterlimit="10" d="M48,39.7"/>
	<path fill="none" stroke="#2C6161" stroke-miterlimit="10" d="M29.7,31.9"/>
	<polygon fill="#989898" points="45.6,32.8 46.6,31.1 29.6,27.6 30.2,29.7 	"/>
	<polygon fill="#919191" points="23.1,34.9 22.3,32.9 29.6,27.6 30.2,29.7 	"/>
	<path fill="#DADDD8" d="M45.6,38.8v-1.7l-1.9-0.3v-1.2L42,35.3V36l-2.4-0.5v0.8l-2.9-0.5v-1.7l-3.2-0.5v0.9l-3.2-0.6
		c0,3.9,0,3.9,0,3.9l1.3,0.2v0.9l3,0.3v-0.9l1.2,0.2v2.3l3.2,0.4V40l2.3,0.2v-0.7l2.1,0.3v-1.2L45.6,38.8z"/>
	<polygon fill="#DADDD8" points="39.6,51.8 39.6,50.1 37.6,49.8 37.6,48.6 35.8,48.3 35.8,49 33.4,48.5 33.4,49.3 30.2,48.8 
		30.2,53.9 32.8,54.2 32.8,53 35.1,53.2 35.1,52.5 37.1,52.7 37.1,51.6 	"/>
	<ellipse fill="#496167" stroke="#AB4C5C" stroke-miterlimit="10" cx="38.2" cy="39.3" rx="3.8" ry="4.7"/>
	<polygon fill="#CDCCCC" points="40.5,41.1 38.1,39.5 37.8,39.9 	"/>
	<polygon fill="#F3F3F3" points="38.3,35.8 38,40 38.5,40 	"/>
	<polygon fill="#DADDD8" points="36.7,87.3 36.7,89 38.7,89.4 38.7,90.6 40.4,90.8 40.4,90.2 42.9,90.6 42.9,89.9 46.4,90.2 
		46.3,85 43.5,84.9 43.5,86.1 41.2,85.9 41.2,86.6 39.1,86.4 39.1,87.6 	"/>
	<path fill="#DADDD8" d="M30.2,63.9v1.7l2.3,0.4v1.2l1.7,0.2v-0.6l2.4,0.5v-0.8l2.9,0.5v1.7l3.2,0.5v-0.9l3.3,0.5
		C46,64.9,46,64.9,46,64.9l-1.4-0.1v-0.9l-3-0.3v0.9l-1.2-0.2v-2.3l-3.2-0.4v1.2L35,62.6v0.7L33,63.1v1.2L30.2,63.9z"/>
	<path fill="#CDCCCC" d="M39.6,76.3v-2.4c0.1-0.5-0.3-0.9-0.8-1l0,0c-0.5-0.1-0.9,0.3-1,0.8l-0.2,9.4l2,0.2V76.3z"/>
</g>
</svg>
